<?xml version="1.0" encoding="UTF-8" standalone="no"?>
<!DOCTYPE svg PUBLIC "-//W3C//DTD SVG 1.1//EN"
 "http://www.w3.org/Graphics/SVG/1.1/DTD/svg11.dtd">
<!-- Generated by graphviz version 9.0.0 (20230911.1827)
 -->
<!-- Title: edu.wpi.first.wpilibj.simulation.ADXRS450_GyroSim.ADXRS450_GyroSim Pages: 1 -->
<svg width="595pt" height="88pt"
 viewBox="0.00 0.00 594.50 87.50" xmlns="http://www.w3.org/2000/svg" xmlns:xlink="http://www.w3.org/1999/xlink">
<g id="graph0" class="graph" transform="scale(1 1) rotate(0) translate(4 83.5)">
<title>edu.wpi.first.wpilibj.simulation.ADXRS450_GyroSim.ADXRS450_GyroSim</title>
<!-- Node1 -->
<g id="Node000001" class="node">
<title>Node1</title>
<g id="a_Node000001"><a xlink:title=" ">
<polygon fill="#999999" stroke="#666666" points="208,-54.5 0,-54.5 0,-24 208,-24 208,-54.5"/>
<text text-anchor="start" x="8" y="-41" font-family="Helvetica,sans-Serif" font-size="10.00">edu.wpi.first.wpilibj.simulation.</text>
<text text-anchor="middle" x="104" y="-29.75" font-family="Helvetica,sans-Serif" font-size="10.00">ADXRS450_GyroSim.ADXRS450_GyroSim</text>
</a>
</g>
</g>
<!-- Node2 -->
<g id="Node000002" class="node">
<title>Node2</title>
<g id="a_Node000002"><a xlink:href="classedu_1_1wpi_1_1first_1_1wpilibj_1_1simulation_1_1_sim_device_sim.html#a18ff83cec047ed1551deb66bde7147da" target="_top" xlink:title=" ">
<polygon fill="white" stroke="#666666" points="395.38,-79.5 245.88,-79.5 245.88,-49 395.38,-49 395.38,-79.5"/>
<text text-anchor="start" x="253.88" y="-66" font-family="Helvetica,sans-Serif" font-size="10.00">edu.wpi.first.wpilibj.simulation.</text>
<text text-anchor="middle" x="320.62" y="-54.75" font-family="Helvetica,sans-Serif" font-size="10.00">SimDeviceSim.getDouble</text>
</a>
</g>
</g>
<!-- Node1&#45;&gt;Node2 -->
<g id="edge1_Node000001_Node000002" class="edge">
<title>Node1&#45;&gt;Node2</title>
<g id="a_edge1_Node000001_Node000002"><a xlink:title=" ">
<path fill="none" stroke="#63b8ff" d="M208.23,-51.27C216.86,-52.28 225.54,-53.29 234.02,-54.28"/>
<polygon fill="#63b8ff" stroke="#63b8ff" points="233.61,-57.75 243.95,-55.44 234.42,-50.8 233.61,-57.75"/>
</a>
</g>
</g>
<!-- Node3 -->
<g id="Node000003" class="node">
<title>Node3</title>
<g id="a_Node000003"><a xlink:href="classedu_1_1wpi_1_1first_1_1wpilibj_1_1_a_d_x_r_s450___gyro.html#a67ad67aa94c7f0cc4f1e3d6fff340d73" target="_top" xlink:title=" ">
<polygon fill="white" stroke="#666666" points="397.25,-30.5 244,-30.5 244,0 397.25,0 397.25,-30.5"/>
<text text-anchor="start" x="252" y="-17" font-family="Helvetica,sans-Serif" font-size="10.00">edu.wpi.first.wpilibj.ADXRS450</text>
<text text-anchor="middle" x="320.62" y="-5.75" font-family="Helvetica,sans-Serif" font-size="10.00">_Gyro.getPort</text>
</a>
</g>
</g>
<!-- Node1&#45;&gt;Node3 -->
<g id="edge2_Node000001_Node000003" class="edge">
<title>Node1&#45;&gt;Node3</title>
<g id="a_edge2_Node000001_Node000003"><a xlink:title=" ">
<path fill="none" stroke="#63b8ff" d="M208.23,-27.71C216.24,-26.81 224.27,-25.91 232.17,-25.03"/>
<polygon fill="#63b8ff" stroke="#63b8ff" points="232.55,-28.51 242.1,-23.92 231.77,-21.55 232.55,-28.51"/>
</a>
</g>
</g>
<!-- Node4 -->
<g id="Node000004" class="node">
<title>Node4</title>
<g id="a_Node000004"><a xlink:href="classedu_1_1wpi_1_1first_1_1wpilibj_1_1_s_p_i.html#aee67a91f59dd0cbd90c8a3894ae56ffd" target="_top" xlink:title=" ">
<polygon fill="white" stroke="#666666" points="586.5,-24.88 433.25,-24.88 433.25,-5.63 586.5,-5.63 586.5,-24.88"/>
<text text-anchor="middle" x="509.88" y="-11.38" font-family="Helvetica,sans-Serif" font-size="10.00">edu.wpi.first.wpilibj.SPI.getPort</text>
</a>
</g>
</g>
<!-- Node3&#45;&gt;Node4 -->
<g id="edge3_Node000003_Node000004" class="edge">
<title>Node3&#45;&gt;Node4</title>
<g id="a_edge3_Node000003_Node000004"><a xlink:title=" ">
<path fill="none" stroke="#63b8ff" d="M397.52,-15.25C405.44,-15.25 413.54,-15.25 421.58,-15.25"/>
<polygon fill="#63b8ff" stroke="#63b8ff" points="421.36,-18.75 431.36,-15.25 421.36,-11.75 421.36,-18.75"/>
</a>
</g>
</g>
</g>
</svg>
