<?xml version="1.0" encoding="UTF-8" standalone="no"?>
<!DOCTYPE svg PUBLIC "-//W3C//DTD SVG 1.1//EN"
 "http://www.w3.org/Graphics/SVG/1.1/DTD/svg11.dtd">
<!-- Generated by graphviz version 9.0.0 (20230911.1827)
 -->
<!-- Title: edu.wpi.first.wpilibj.XboxController.leftTrigger Pages: 1 -->
<svg width="813pt" height="111pt"
 viewBox="0.00 0.00 813.25 110.50" xmlns="http://www.w3.org/2000/svg" xmlns:xlink="http://www.w3.org/1999/xlink">
<g id="graph0" class="graph" transform="scale(1 1) rotate(0) translate(4 106.5)">
<title>edu.wpi.first.wpilibj.XboxController.leftTrigger</title>
<!-- Node1 -->
<g id="Node000001" class="node">
<title>Node1</title>
<g id="a_Node000001"><a xlink:title=" ">
<polygon fill="#999999" stroke="#666666" points="124.75,-30.5 0,-30.5 0,0 124.75,0 124.75,-30.5"/>
<text text-anchor="start" x="8" y="-17" font-family="Helvetica,sans-Serif" font-size="10.00">edu.wpi.first.wpilibj.Xbox</text>
<text text-anchor="middle" x="62.38" y="-5.75" font-family="Helvetica,sans-Serif" font-size="10.00">Controller.leftTrigger</text>
</a>
</g>
</g>
<!-- Node2 -->
<g id="Node000002" class="node">
<title>Node2</title>
<g id="a_Node000002"><a xlink:href="classedu_1_1wpi_1_1first_1_1wpilibj_1_1_xbox_controller.html#aa18e78de4eb53e5b0cef765ad42cba2d" target="_top" xlink:title=" ">
<polygon fill="white" stroke="#666666" points="285.5,-52.5 160.75,-52.5 160.75,-22 285.5,-22 285.5,-52.5"/>
<text text-anchor="start" x="168.75" y="-39" font-family="Helvetica,sans-Serif" font-size="10.00">edu.wpi.first.wpilibj.Xbox</text>
<text text-anchor="middle" x="223.12" y="-27.75" font-family="Helvetica,sans-Serif" font-size="10.00">Controller.leftTrigger</text>
</a>
</g>
</g>
<!-- Node1&#45;&gt;Node2 -->
<g id="edge1_Node000001_Node000002" class="edge">
<title>Node1&#45;&gt;Node2</title>
<g id="a_edge1_Node000001_Node000002"><a xlink:title=" ">
<path fill="none" stroke="#63b8ff" d="M125.21,-23.82C133.08,-24.91 141.19,-26.03 149.21,-27.15"/>
<polygon fill="#63b8ff" stroke="#63b8ff" points="148.58,-30.59 158.96,-28.5 149.54,-23.66 148.58,-30.59"/>
</a>
</g>
</g>
<!-- Node6 -->
<g id="Node000006" class="node">
<title>Node6</title>
<g id="a_Node000006"><a xlink:href="classedu_1_1wpi_1_1first_1_1wpilibj_1_1_generic_h_i_d.html#af0b067c76cbb79f54d7f475e88fcfed2" target="_top" xlink:title=" ">
<polygon fill="white" stroke="#666666" points="805.25,-35.5 669.25,-35.5 669.25,-5 805.25,-5 805.25,-35.5"/>
<text text-anchor="start" x="677.25" y="-22" font-family="Helvetica,sans-Serif" font-size="10.00">edu.wpi.first.wpilibj.Generic</text>
<text text-anchor="middle" x="737.25" y="-10.75" font-family="Helvetica,sans-Serif" font-size="10.00">HID.pov</text>
</a>
</g>
</g>
<!-- Node1&#45;&gt;Node6 -->
<g id="edge8_Node000001_Node000006" class="edge">
<title>Node1&#45;&gt;Node6</title>
<g id="a_edge8_Node000001_Node000006"><a xlink:title=" ">
<path fill="none" stroke="#63b8ff" d="M125.19,-13.79C136.99,-13.56 149.25,-13.37 160.75,-13.25 338.31,-11.43 546.68,-15.51 657.52,-18.17"/>
<polygon fill="#63b8ff" stroke="#63b8ff" points="657.32,-21.67 667.4,-18.42 657.49,-14.67 657.32,-21.67"/>
</a>
</g>
</g>
<!-- Node3 -->
<g id="Node000003" class="node">
<title>Node3</title>
<g id="a_Node000003"><a xlink:href="classedu_1_1wpi_1_1first_1_1wpilibj_1_1_xbox_controller.html#ab5535e7ea76583907af894fa6d756bcb" target="_top" xlink:title=" ">
<polygon fill="white" stroke="#666666" points="461.25,-90.5 321.5,-90.5 321.5,-60 461.25,-60 461.25,-90.5"/>
<text text-anchor="start" x="329.5" y="-77" font-family="Helvetica,sans-Serif" font-size="10.00">edu.wpi.first.wpilibj.Xbox</text>
<text text-anchor="middle" x="391.38" y="-65.75" font-family="Helvetica,sans-Serif" font-size="10.00">Controller.getLeftTriggerAxis</text>
</a>
</g>
</g>
<!-- Node2&#45;&gt;Node3 -->
<g id="edge2_Node000002_Node000003" class="edge">
<title>Node2&#45;&gt;Node3</title>
<g id="a_edge2_Node000002_Node000003"><a xlink:title=" ">
<path fill="none" stroke="#63b8ff" d="M285.56,-51.29C293.73,-53.16 302.19,-55.09 310.62,-57.02"/>
<polygon fill="#63b8ff" stroke="#63b8ff" points="309.63,-60.38 320.16,-59.2 311.19,-53.56 309.63,-60.38"/>
</a>
</g>
</g>
<!-- Node2&#45;&gt;Node6 -->
<g id="edge7_Node000002_Node000006" class="edge">
<title>Node2&#45;&gt;Node6</title>
<g id="a_edge7_Node000002_Node000006"><a xlink:title=" ">
<path fill="none" stroke="#63b8ff" d="M285.9,-35.2C379.01,-32.11 555.28,-26.26 657.5,-22.86"/>
<polygon fill="#63b8ff" stroke="#63b8ff" points="657.59,-26.36 667.46,-22.53 657.35,-19.37 657.59,-26.36"/>
</a>
</g>
</g>
<!-- Node4 -->
<g id="Node000004" class="node">
<title>Node4</title>
<g id="a_Node000004"><a xlink:href="classedu_1_1wpi_1_1first_1_1wpilibj_1_1_generic_h_i_d.html#a561e13532e9305a057a3b02cc655833c" target="_top" xlink:title=" ">
<polygon fill="white" stroke="#666666" points="633.25,-90.5 497.25,-90.5 497.25,-60 633.25,-60 633.25,-90.5"/>
<text text-anchor="start" x="505.25" y="-77" font-family="Helvetica,sans-Serif" font-size="10.00">edu.wpi.first.wpilibj.Generic</text>
<text text-anchor="middle" x="565.25" y="-65.75" font-family="Helvetica,sans-Serif" font-size="10.00">HID.getRawAxis</text>
</a>
</g>
</g>
<!-- Node3&#45;&gt;Node4 -->
<g id="edge3_Node000003_Node000004" class="edge">
<title>Node3&#45;&gt;Node4</title>
<g id="a_edge3_Node000003_Node000004"><a xlink:title=" ">
<path fill="none" stroke="#63b8ff" d="M461.29,-75.25C469.29,-75.25 477.49,-75.25 485.61,-75.25"/>
<polygon fill="#63b8ff" stroke="#63b8ff" points="485.48,-78.75 495.48,-75.25 485.48,-71.75 485.48,-78.75"/>
</a>
</g>
</g>
<!-- Node5 -->
<g id="Node000005" class="node">
<title>Node5</title>
<g id="a_Node000005"><a xlink:href="classedu_1_1wpi_1_1first_1_1wpilibj_1_1_driver_station.html#af9606114345715ee1577c2b0c66a070c" target="_top" xlink:title=" ">
<polygon fill="white" stroke="#666666" points="801.5,-102.5 673,-102.5 673,-72 801.5,-72 801.5,-102.5"/>
<text text-anchor="start" x="681" y="-89" font-family="Helvetica,sans-Serif" font-size="10.00">edu.wpi.first.wpilibj.Driver</text>
<text text-anchor="middle" x="737.25" y="-77.75" font-family="Helvetica,sans-Serif" font-size="10.00">Station.getStickAxis</text>
</a>
</g>
</g>
<!-- Node4&#45;&gt;Node5 -->
<g id="edge4_Node000004_Node000005" class="edge">
<title>Node4&#45;&gt;Node5</title>
<g id="a_edge4_Node000004_Node000005"><a xlink:title=" ">
<path fill="none" stroke="#63b8ff" d="M633.44,-79.99C642.61,-80.64 652.07,-81.31 661.37,-81.96"/>
<polygon fill="#63b8ff" stroke="#63b8ff" points="660.87,-85.44 671.09,-82.65 661.36,-78.45 660.87,-85.44"/>
</a>
</g>
</g>
<!-- Node4&#45;&gt;Node6 -->
<g id="edge5_Node000004_Node000006" class="edge">
<title>Node4&#45;&gt;Node6</title>
<g id="a_edge5_Node000004_Node000006"><a xlink:title=" ">
<path fill="none" stroke="#63b8ff" d="M614.51,-59.64C633.9,-53.36 656.44,-46.07 676.83,-39.48"/>
<polygon fill="#63b8ff" stroke="#63b8ff" points="677.7,-42.87 686.13,-36.46 675.54,-36.21 677.7,-42.87"/>
</a>
</g>
</g>
<!-- Node6&#45;&gt;Node6 -->
<g id="edge6_Node000006_Node000006" class="edge">
<title>Node6&#45;&gt;Node6</title>
<g id="a_edge6_Node000006_Node000006"><a xlink:title=" ">
<path fill="none" stroke="#63b8ff" d="M706.77,-35.99C700.55,-45.06 710.71,-53.5 737.25,-53.5 751.76,-53.5 761.38,-50.97 766.09,-47.2"/>
<polygon fill="#63b8ff" stroke="#63b8ff" points="769.53,-47.88 767.51,-37.48 762.61,-46.87 769.53,-47.88"/>
</a>
</g>
</g>
</g>
</svg>
