<?xml version="1.0" encoding="UTF-8" standalone="no"?>
<!DOCTYPE svg PUBLIC "-//W3C//DTD SVG 1.1//EN"
 "http://www.w3.org/Graphics/SVG/1.1/DTD/svg11.dtd">
<!-- Generated by graphviz version 9.0.0 (20230911.1827)
 -->
<!-- Title: edu.wpi.first.wpilibj.simulation.XboxControllerSim.setRightTriggerAxis Pages: 1 -->
<svg width="580pt" height="39pt"
 viewBox="0.00 0.00 579.50 38.50" xmlns="http://www.w3.org/2000/svg" xmlns:xlink="http://www.w3.org/1999/xlink">
<g id="graph0" class="graph" transform="scale(1 1) rotate(0) translate(4 34.5)">
<title>edu.wpi.first.wpilibj.simulation.XboxControllerSim.setRightTriggerAxis</title>
<!-- Node1 -->
<g id="Node000001" class="node">
<title>Node1</title>
<g id="a_Node000001"><a xlink:title=" ">
<polygon fill="#999999" stroke="#666666" points="187,-30.5 0,-30.5 0,0 187,0 187,-30.5"/>
<text text-anchor="start" x="8" y="-17" font-family="Helvetica,sans-Serif" font-size="10.00">edu.wpi.first.wpilibj.simulation.</text>
<text text-anchor="middle" x="93.5" y="-5.75" font-family="Helvetica,sans-Serif" font-size="10.00">XboxControllerSim.setRightTriggerAxis</text>
</a>
</g>
</g>
<!-- Node2 -->
<g id="Node000002" class="node">
<title>Node2</title>
<g id="a_Node000002"><a xlink:href="classedu_1_1wpi_1_1first_1_1wpilibj_1_1simulation_1_1_generic_h_i_d_sim.html#ab2de65f92fc4086b735632f62915807a" target="_top" xlink:title=" ">
<polygon fill="white" stroke="#666666" points="372.5,-30.5 223,-30.5 223,0 372.5,0 372.5,-30.5"/>
<text text-anchor="start" x="231" y="-17" font-family="Helvetica,sans-Serif" font-size="10.00">edu.wpi.first.wpilibj.simulation.</text>
<text text-anchor="middle" x="297.75" y="-5.75" font-family="Helvetica,sans-Serif" font-size="10.00">GenericHIDSim.setRawAxis</text>
</a>
</g>
</g>
<!-- Node1&#45;&gt;Node2 -->
<g id="edge1_Node000001_Node000002" class="edge">
<title>Node1&#45;&gt;Node2</title>
<g id="a_edge1_Node000001_Node000002"><a xlink:title=" ">
<path fill="none" stroke="#63b8ff" d="M187.34,-15.25C195.29,-15.25 203.31,-15.25 211.21,-15.25"/>
<polygon fill="#63b8ff" stroke="#63b8ff" points="211.14,-18.75 221.14,-15.25 211.14,-11.75 211.14,-18.75"/>
</a>
</g>
</g>
<!-- Node3 -->
<g id="Node000003" class="node">
<title>Node3</title>
<g id="a_Node000003"><a xlink:href="classedu_1_1wpi_1_1first_1_1wpilibj_1_1simulation_1_1_driver_station_sim.html#aa37b8fa424a018f4518fa6967deb3199" target="_top" xlink:title=" ">
<polygon fill="white" stroke="#666666" points="571.5,-30.5 408.5,-30.5 408.5,0 571.5,0 571.5,-30.5"/>
<text text-anchor="start" x="416.5" y="-17" font-family="Helvetica,sans-Serif" font-size="10.00">edu.wpi.first.wpilibj.simulation.</text>
<text text-anchor="middle" x="490" y="-5.75" font-family="Helvetica,sans-Serif" font-size="10.00">DriverStationSim.setJoystickAxis</text>
</a>
</g>
</g>
<!-- Node2&#45;&gt;Node3 -->
<g id="edge2_Node000002_Node000003" class="edge">
<title>Node2&#45;&gt;Node3</title>
<g id="a_edge2_Node000002_Node000003"><a xlink:title=" ">
<path fill="none" stroke="#63b8ff" d="M372.85,-15.25C380.72,-15.25 388.8,-15.25 396.84,-15.25"/>
<polygon fill="#63b8ff" stroke="#63b8ff" points="396.66,-18.75 406.66,-15.25 396.66,-11.75 396.66,-18.75"/>
</a>
</g>
</g>
</g>
</svg>
