<?xml version="1.0" encoding="UTF-8" standalone="no"?>
<!DOCTYPE svg PUBLIC "-//W3C//DTD SVG 1.1//EN"
 "http://www.w3.org/Graphics/SVG/1.1/DTD/svg11.dtd">
<!-- Generated by graphviz version 9.0.0 (20230911.1827)
 -->
<!-- Title: edu.wpi.first.wpilibj.PWM Pages: 1 -->
<svg width="162pt" height="138pt"
 viewBox="0.00 0.00 162.12 137.75" xmlns="http://www.w3.org/2000/svg" xmlns:xlink="http://www.w3.org/1999/xlink">
<g id="graph0" class="graph" transform="scale(1 1) rotate(0) translate(4 133.75)">
<title>edu.wpi.first.wpilibj.PWM</title>
<!-- Node1 -->
<g id="Node000001" class="node">
<title>Node1</title>
<g id="a_Node000001"><a xlink:title=" ">
<polygon fill="#999999" stroke="#666666" points="134.75,-74.5 7.75,-74.5 7.75,-55.25 134.75,-55.25 134.75,-74.5"/>
<text text-anchor="middle" x="71.25" y="-61" font-family="Helvetica,sans-Serif" font-size="10.00">edu.wpi.first.wpilibj.PWM</text>
</a>
</g>
</g>
<!-- Node4 -->
<g id="Node000004" class="node">
<title>Node4</title>
<g id="a_Node000004"><a xlink:href="classedu_1_1wpi_1_1first_1_1wpilibj_1_1_servo.html" target="_top" xlink:title=" ">
<polygon fill="white" stroke="#666666" points="135.12,-19.25 7.38,-19.25 7.38,0 135.12,0 135.12,-19.25"/>
<text text-anchor="middle" x="71.25" y="-5.75" font-family="Helvetica,sans-Serif" font-size="10.00">edu.wpi.first.wpilibj.Servo</text>
</a>
</g>
</g>
<!-- Node1&#45;&gt;Node4 -->
<g id="edge3_Node000001_Node000004" class="edge">
<title>Node1&#45;&gt;Node4</title>
<g id="a_edge3_Node000001_Node000004"><a xlink:title=" ">
<path fill="none" stroke="#63b8ff" d="M71.25,-43.63C71.25,-35.34 71.25,-26.17 71.25,-19.61"/>
<polygon fill="#63b8ff" stroke="#63b8ff" points="67.75,-43.57 71.25,-53.57 74.75,-43.57 67.75,-43.57"/>
</a>
</g>
</g>
<!-- Node2 -->
<g id="Node000002" class="node">
<title>Node2</title>
<g id="a_Node000002"><a xlink:title=" ">
<polygon fill="white" stroke="#bfbfbf" points="56.5,-129.75 0,-129.75 0,-110.5 56.5,-110.5 56.5,-129.75"/>
<text text-anchor="middle" x="28.25" y="-116.25" font-family="Helvetica,sans-Serif" font-size="10.00">Sendable</text>
</a>
</g>
</g>
<!-- Node2&#45;&gt;Node1 -->
<g id="edge1_Node000001_Node000002" class="edge">
<title>Node2&#45;&gt;Node1</title>
<g id="a_edge1_Node000001_Node000002"><a xlink:title=" ">
<path fill="none" stroke="#63b8ff" d="M42.5,-101.47C49.7,-92.56 58.13,-82.12 64,-74.86"/>
<polygon fill="#63b8ff" stroke="#63b8ff" points="39.86,-99.18 36.3,-109.15 45.31,-103.57 39.86,-99.18"/>
</a>
</g>
</g>
<!-- Node3 -->
<g id="Node000003" class="node">
<title>Node3</title>
<g id="a_Node000003"><a xlink:title=" ">
<polygon fill="white" stroke="#bfbfbf" points="154.12,-129.75 74.38,-129.75 74.38,-110.5 154.12,-110.5 154.12,-129.75"/>
<text text-anchor="middle" x="114.25" y="-116.25" font-family="Helvetica,sans-Serif" font-size="10.00">AutoCloseable</text>
</a>
</g>
</g>
<!-- Node3&#45;&gt;Node1 -->
<g id="edge2_Node000001_Node000003" class="edge">
<title>Node3&#45;&gt;Node1</title>
<g id="a_edge2_Node000001_Node000003"><a xlink:title=" ">
<path fill="none" stroke="#63b8ff" d="M100,-101.47C92.8,-92.56 84.37,-82.12 78.5,-74.86"/>
<polygon fill="#63b8ff" stroke="#63b8ff" points="97.19,-103.57 106.2,-109.15 102.64,-99.18 97.19,-103.57"/>
</a>
</g>
</g>
</g>
</svg>
