<?xml version="1.0" encoding="UTF-8" standalone="no"?>
<!DOCTYPE svg PUBLIC "-//W3C//DTD SVG 1.1//EN"
 "http://www.w3.org/Graphics/SVG/1.1/DTD/svg11.dtd">
<!-- Generated by graphviz version 9.0.0 (20230911.1827)
 -->
<!-- Title: edu.wpi.first.wpilibj.StadiaController.getLeftTriggerButtonReleased Pages: 1 -->
<svg width="861pt" height="124pt"
 viewBox="0.00 0.00 861.25 123.50" xmlns="http://www.w3.org/2000/svg" xmlns:xlink="http://www.w3.org/1999/xlink">
<g id="graph0" class="graph" transform="scale(1 1) rotate(0) translate(4 119.5)">
<title>edu.wpi.first.wpilibj.StadiaController.getLeftTriggerButtonReleased</title>
<!-- Node1 -->
<g id="Node000001" class="node">
<title>Node1</title>
<g id="a_Node000001"><a xlink:title=" ">
<polygon fill="#999999" stroke="#666666" points="148.75,-78.12 0,-78.12 0,-36.38 148.75,-36.38 148.75,-78.12"/>
<text text-anchor="start" x="8" y="-64.62" font-family="Helvetica,sans-Serif" font-size="10.00">edu.wpi.first.wpilibj.Stadia</text>
<text text-anchor="start" x="8" y="-53.38" font-family="Helvetica,sans-Serif" font-size="10.00">Controller.getLeftTriggerButton</text>
<text text-anchor="middle" x="74.38" y="-42.12" font-family="Helvetica,sans-Serif" font-size="10.00">Released</text>
</a>
</g>
</g>
<!-- Node2 -->
<g id="Node000002" class="node">
<title>Node2</title>
<g id="a_Node000002"><a xlink:href="classedu_1_1wpi_1_1first_1_1wpilibj_1_1_generic_h_i_d.html#a2087699248ada770e00ea78b91b8fd01" target="_top" xlink:title=" ">
<polygon fill="white" stroke="#666666" points="325.25,-72.5 184.75,-72.5 184.75,-42 325.25,-42 325.25,-72.5"/>
<text text-anchor="start" x="192.75" y="-59" font-family="Helvetica,sans-Serif" font-size="10.00">edu.wpi.first.wpilibj.Generic</text>
<text text-anchor="middle" x="255" y="-47.75" font-family="Helvetica,sans-Serif" font-size="10.00">HID.getRawButtonReleased</text>
</a>
</g>
</g>
<!-- Node1&#45;&gt;Node2 -->
<g id="edge1_Node000001_Node000002" class="edge">
<title>Node1&#45;&gt;Node2</title>
<g id="a_edge1_Node000001_Node000002"><a xlink:title=" ">
<path fill="none" stroke="#63b8ff" d="M149.06,-57.25C157.03,-57.25 165.17,-57.25 173.22,-57.25"/>
<polygon fill="#63b8ff" stroke="#63b8ff" points="172.99,-60.75 182.99,-57.25 172.99,-53.75 172.99,-60.75"/>
</a>
</g>
</g>
<!-- Node3 -->
<g id="Node000003" class="node">
<title>Node3</title>
<g id="a_Node000003"><a xlink:href="classedu_1_1wpi_1_1first_1_1wpilibj_1_1_generic_h_i_d.html#a77f3feaa9b70759aa7e26c20bec4bec2" target="_top" xlink:title=" ">
<polygon fill="white" stroke="#666666" points="507,-97.5 371,-97.5 371,-67 507,-67 507,-97.5"/>
<text text-anchor="start" x="379" y="-84" font-family="Helvetica,sans-Serif" font-size="10.00">edu.wpi.first.wpilibj.Generic</text>
<text text-anchor="middle" x="439" y="-72.75" font-family="Helvetica,sans-Serif" font-size="10.00">HID.button</text>
</a>
</g>
</g>
<!-- Node2&#45;&gt;Node3 -->
<g id="edge2_Node000002_Node000003" class="edge">
<title>Node2&#45;&gt;Node3</title>
<g id="a_edge2_Node000002_Node000003"><a xlink:title=" ">
<path fill="none" stroke="#63b8ff" d="M325.59,-66.81C336.65,-68.33 348.16,-69.91 359.41,-71.46"/>
<polygon fill="#63b8ff" stroke="#63b8ff" points="358.67,-74.89 369.06,-72.78 359.62,-67.95 358.67,-74.89"/>
</a>
</g>
</g>
<!-- Node7 -->
<g id="Node000007" class="node">
<title>Node7</title>
<g id="a_Node000007"><a xlink:href="classedu_1_1wpi_1_1first_1_1wpilibj_1_1_driver_station.html#af7d67c20055e6730e05c8ed4483ea79a" target="_top" xlink:title=" ">
<polygon fill="white" stroke="#666666" points="516.75,-48.5 361.25,-48.5 361.25,-18 516.75,-18 516.75,-48.5"/>
<text text-anchor="start" x="369.25" y="-35" font-family="Helvetica,sans-Serif" font-size="10.00">edu.wpi.first.wpilibj.Driver</text>
<text text-anchor="middle" x="439" y="-23.75" font-family="Helvetica,sans-Serif" font-size="10.00">Station.getStickButtonReleased</text>
</a>
</g>
</g>
<!-- Node2&#45;&gt;Node7 -->
<g id="edge9_Node000002_Node000007" class="edge">
<title>Node2&#45;&gt;Node7</title>
<g id="a_edge9_Node000002_Node000007"><a xlink:title=" ">
<path fill="none" stroke="#63b8ff" d="M325.59,-48.07C333.43,-47.04 341.5,-45.98 349.54,-44.92"/>
<polygon fill="#63b8ff" stroke="#63b8ff" points="349.91,-48.4 359.37,-43.62 348.99,-41.46 349.91,-48.4"/>
</a>
</g>
</g>
<!-- Node3&#45;&gt;Node3 -->
<g id="edge3_Node000003_Node000003" class="edge">
<title>Node3&#45;&gt;Node3</title>
<g id="a_edge3_Node000003_Node000003"><a xlink:title=" ">
<path fill="none" stroke="#63b8ff" d="M406.79,-97.99C400.22,-107.06 410.96,-115.5 439,-115.5 454.34,-115.5 464.5,-112.97 469.48,-109.2"/>
<polygon fill="#63b8ff" stroke="#63b8ff" points="472.91,-109.9 470.98,-99.48 466,-108.83 472.91,-109.9"/>
</a>
</g>
</g>
<!-- Node4 -->
<g id="Node000004" class="node">
<title>Node4</title>
<g id="a_Node000004"><a xlink:href="classedu_1_1wpi_1_1first_1_1wpilibj_1_1_generic_h_i_d.html#abdb0245e5cb7f7b92cc1060202821a2d" target="_top" xlink:title=" ">
<polygon fill="white" stroke="#666666" points="688.75,-97.5 552.75,-97.5 552.75,-67 688.75,-67 688.75,-97.5"/>
<text text-anchor="start" x="560.75" y="-84" font-family="Helvetica,sans-Serif" font-size="10.00">edu.wpi.first.wpilibj.Generic</text>
<text text-anchor="middle" x="620.75" y="-72.75" font-family="Helvetica,sans-Serif" font-size="10.00">HID.getRawButton</text>
</a>
</g>
</g>
<!-- Node3&#45;&gt;Node4 -->
<g id="edge4_Node000003_Node000004" class="edge">
<title>Node3&#45;&gt;Node4</title>
<g id="a_edge4_Node000003_Node000004"><a xlink:title=" ">
<path fill="none" stroke="#63b8ff" d="M507.44,-75.69C518.5,-75.5 530.04,-75.45 541.34,-75.55"/>
<polygon fill="#63b8ff" stroke="#63b8ff" points="540.97,-79.04 551.01,-75.67 541.06,-72.05 540.97,-79.04"/>
</a>
</g>
</g>
<!-- Node6 -->
<g id="Node000006" class="node">
<title>Node6</title>
<g id="a_Node000006"><a xlink:href="classedu_1_1wpi_1_1first_1_1wpilibj_1_1_generic_h_i_d.html#af0b067c76cbb79f54d7f475e88fcfed2" target="_top" xlink:title=" ">
<polygon fill="white" stroke="#666666" points="688.75,-30.5 552.75,-30.5 552.75,0 688.75,0 688.75,-30.5"/>
<text text-anchor="start" x="560.75" y="-17" font-family="Helvetica,sans-Serif" font-size="10.00">edu.wpi.first.wpilibj.Generic</text>
<text text-anchor="middle" x="620.75" y="-5.75" font-family="Helvetica,sans-Serif" font-size="10.00">HID.pov</text>
</a>
</g>
</g>
<!-- Node3&#45;&gt;Node6 -->
<g id="edge7_Node000003_Node000006" class="edge">
<title>Node3&#45;&gt;Node6</title>
<g id="a_edge7_Node000003_Node000006"><a xlink:title=" ">
<path fill="none" stroke="#63b8ff" d="M489.72,-66.63C498.76,-63.63 508.06,-60.43 516.75,-57.25 535.22,-50.49 555.3,-42.46 572.78,-35.24"/>
<polygon fill="#63b8ff" stroke="#63b8ff" points="574.01,-38.52 581.9,-31.45 571.32,-32.05 574.01,-38.52"/>
</a>
</g>
</g>
<!-- Node4&#45;&gt;Node3 -->
<g id="edge5_Node000004_Node000003" class="edge">
<title>Node4&#45;&gt;Node3</title>
<g id="a_edge5_Node000004_Node000003"><a xlink:title=" ">
<path fill="none" stroke="#63b8ff" d="M552.53,-88.81C541.47,-89 529.93,-89.05 518.64,-88.95"/>
<polygon fill="#63b8ff" stroke="#63b8ff" points="519,-85.46 508.96,-88.83 518.91,-92.46 519,-85.46"/>
</a>
</g>
</g>
<!-- Node5 -->
<g id="Node000005" class="node">
<title>Node5</title>
<g id="a_Node000005"><a xlink:href="classedu_1_1wpi_1_1first_1_1wpilibj_1_1_driver_station.html#a3d86d4b8414c05aafe18fc866d99ccab" target="_top" xlink:title=" ">
<polygon fill="white" stroke="#666666" points="853.25,-97.5 724.75,-97.5 724.75,-67 853.25,-67 853.25,-97.5"/>
<text text-anchor="start" x="732.75" y="-84" font-family="Helvetica,sans-Serif" font-size="10.00">edu.wpi.first.wpilibj.Driver</text>
<text text-anchor="middle" x="789" y="-72.75" font-family="Helvetica,sans-Serif" font-size="10.00">Station.getStickButton</text>
</a>
</g>
</g>
<!-- Node4&#45;&gt;Node5 -->
<g id="edge6_Node000004_Node000005" class="edge">
<title>Node4&#45;&gt;Node5</title>
<g id="a_edge6_Node000004_Node000005"><a xlink:title=" ">
<path fill="none" stroke="#63b8ff" d="M688.89,-82.25C696.85,-82.25 705.02,-82.25 713.08,-82.25"/>
<polygon fill="#63b8ff" stroke="#63b8ff" points="712.87,-85.75 722.87,-82.25 712.87,-78.75 712.87,-85.75"/>
</a>
</g>
</g>
<!-- Node6&#45;&gt;Node6 -->
<g id="edge8_Node000006_Node000006" class="edge">
<title>Node6&#45;&gt;Node6</title>
<g id="a_edge8_Node000006_Node000006"><a xlink:title=" ">
<path fill="none" stroke="#63b8ff" d="M590.94,-30.99C584.85,-40.06 594.79,-48.5 620.75,-48.5 634.95,-48.5 644.35,-45.97 648.97,-42.2"/>
<polygon fill="#63b8ff" stroke="#63b8ff" points="652.4,-42.88 650.35,-32.48 645.47,-41.89 652.4,-42.88"/>
</a>
</g>
</g>
</g>
</svg>
