<?xml version="1.0" encoding="UTF-8" standalone="no"?>
<!DOCTYPE svg PUBLIC "-//W3C//DTD SVG 1.1//EN"
 "http://www.w3.org/Graphics/SVG/1.1/DTD/svg11.dtd">
<!-- Generated by graphviz version 9.0.0 (20230911.1827)
 -->
<!-- Title: frc.robot.Constants Pages: 1 -->
<svg width="218pt" height="94pt"
 viewBox="0.00 0.00 217.88 93.75" xmlns="http://www.w3.org/2000/svg" xmlns:xlink="http://www.w3.org/1999/xlink">
<g id="graph0" class="graph" transform="scale(1 1) rotate(0) translate(4 89.75)">
<title>frc.robot.Constants</title>
<!-- Node1 -->
<g id="Node000001" class="node">
<title>Node1</title>
<g id="a_Node000001"><a xlink:title=" ">
<polygon fill="#999999" stroke="#666666" points="128.88,-19.25 28.88,-19.25 28.88,0 128.88,0 128.88,-19.25"/>
<text text-anchor="middle" x="78.88" y="-5.75" font-family="Helvetica,sans-Serif" font-size="10.00">frc.robot.Constants</text>
</a>
</g>
</g>
<!-- Node2 -->
<g id="Node000002" class="node">
<title>Node2</title>
<g id="a_Node000002"><a xlink:title=" ">
<polygon fill="white" stroke="#bfbfbf" points="43.75,-85.75 0,-85.75 0,-66.5 43.75,-66.5 43.75,-85.75"/>
<text text-anchor="middle" x="21.88" y="-72.25" font-family="Helvetica,sans-Serif" font-size="10.00">Matter</text>
</a>
</g>
</g>
<!-- Node2&#45;&gt;Node1 -->
<g id="edge1_Node000001_Node000002" class="edge">
<title>Node2&#45;&gt;Node1</title>
<g id="a_edge1_Node000001_Node000002"><a xlink:title=" ">
<path fill="none" stroke="#9a32cd" stroke-dasharray="5,2" d="M37.35,-57.61C48.25,-45.28 62.37,-29.31 71.02,-19.52"/>
<polygon fill="#9a32cd" stroke="#9a32cd" points="34.8,-55.21 30.8,-65.02 40.05,-59.85 34.8,-55.21"/>
</a>
</g>
<text text-anchor="middle" x="77.88" y="-39" font-family="Helvetica,sans-Serif" font-size="10.00" fill="grey"> CHASSIS</text>
</g>
<!-- Node3 -->
<g id="Node000003" class="node">
<title>Node3</title>
<g id="a_Node000003"><a xlink:title=" ">
<polygon fill="white" stroke="#bfbfbf" points="209.88,-85.75 61.88,-85.75 61.88,-66.5 209.88,-66.5 209.88,-85.75"/>
<text text-anchor="middle" x="135.88" y="-72.25" font-family="Helvetica,sans-Serif" font-size="10.00">HolonomicPathFollowerConfig</text>
</a>
</g>
</g>
<!-- Node3&#45;&gt;Node1 -->
<g id="edge2_Node000001_Node000003" class="edge">
<title>Node3&#45;&gt;Node1</title>
<g id="a_edge2_Node000001_Node000003"><a xlink:title=" ">
<path fill="none" stroke="#9a32cd" stroke-dasharray="5,2" d="M122.59,-57.44C117.53,-50.94 111.6,-43.63 105.88,-37.25 100.42,-31.17 93.92,-24.74 88.66,-19.71"/>
<polygon fill="#9a32cd" stroke="#9a32cd" points="119.48,-59.14 128.34,-64.95 125.04,-54.88 119.48,-59.14"/>
</a>
</g>
<text text-anchor="middle" x="158.38" y="-39" font-family="Helvetica,sans-Serif" font-size="10.00" fill="grey"> pathFollowerConfig</text>
</g>
</g>
</svg>
