<?xml version="1.0" encoding="UTF-8" standalone="no"?>
<!DOCTYPE svg PUBLIC "-//W3C//DTD SVG 1.1//EN"
 "http://www.w3.org/Graphics/SVG/1.1/DTD/svg11.dtd">
<!-- Generated by graphviz version 9.0.0 (20230911.1827)
 -->
<!-- Title: edu.wpi.first.wpilibj.Ultrasonic.getRangeInches Pages: 1 -->
<svg width="553pt" height="88pt"
 viewBox="0.00 0.00 552.50 87.50" xmlns="http://www.w3.org/2000/svg" xmlns:xlink="http://www.w3.org/1999/xlink">
<g id="graph0" class="graph" transform="scale(1 1) rotate(0) translate(4 83.5)">
<title>edu.wpi.first.wpilibj.Ultrasonic.getRangeInches</title>
<!-- Node1 -->
<g id="Node000001" class="node">
<title>Node1</title>
<g id="a_Node000001"><a xlink:title=" ">
<polygon fill="#999999" stroke="#666666" points="163,-54.5 0,-54.5 0,-24 163,-24 163,-54.5"/>
<text text-anchor="start" x="8" y="-41" font-family="Helvetica,sans-Serif" font-size="10.00">edu.wpi.first.wpilibj.Ultrasonic.get</text>
<text text-anchor="middle" x="81.5" y="-29.75" font-family="Helvetica,sans-Serif" font-size="10.00">RangeInches</text>
</a>
</g>
</g>
<!-- Node2 -->
<g id="Node000002" class="node">
<title>Node2</title>
<g id="a_Node000002"><a xlink:href="classedu_1_1wpi_1_1first_1_1wpilibj_1_1_counter.html#a39f1ad64ca7c0f208c1e9f8c46c2ca8d" target="_top" xlink:title=" ">
<polygon fill="white" stroke="#666666" points="353.75,-79.5 201.25,-79.5 201.25,-49 353.75,-49 353.75,-79.5"/>
<text text-anchor="start" x="209.25" y="-66" font-family="Helvetica,sans-Serif" font-size="10.00">edu.wpi.first.wpilibj.Counter.get</text>
<text text-anchor="middle" x="277.5" y="-54.75" font-family="Helvetica,sans-Serif" font-size="10.00">Period</text>
</a>
</g>
</g>
<!-- Node1&#45;&gt;Node2 -->
<g id="edge1_Node000001_Node000002" class="edge">
<title>Node1&#45;&gt;Node2</title>
<g id="a_edge1_Node000001_Node000002"><a xlink:title=" ">
<path fill="none" stroke="#63b8ff" d="M163.37,-49.67C172.04,-50.79 180.9,-51.93 189.64,-53.06"/>
<polygon fill="#63b8ff" stroke="#63b8ff" points="189.17,-56.53 199.54,-54.33 190.07,-49.58 189.17,-56.53"/>
</a>
</g>
</g>
<!-- Node3 -->
<g id="Node000003" class="node">
<title>Node3</title>
<g id="a_Node000003"><a xlink:href="classedu_1_1wpi_1_1first_1_1wpilibj_1_1_ultrasonic.html#ad152fff690704203242141d5350dd926" target="_top" xlink:title=" ">
<polygon fill="white" stroke="#666666" points="356,-30.5 199,-30.5 199,0 356,0 356,-30.5"/>
<text text-anchor="start" x="207" y="-17" font-family="Helvetica,sans-Serif" font-size="10.00">edu.wpi.first.wpilibj.Ultrasonic.is</text>
<text text-anchor="middle" x="277.5" y="-5.75" font-family="Helvetica,sans-Serif" font-size="10.00">RangeValid</text>
</a>
</g>
</g>
<!-- Node1&#45;&gt;Node3 -->
<g id="edge2_Node000001_Node000003" class="edge">
<title>Node1&#45;&gt;Node3</title>
<g id="a_edge2_Node000001_Node000003"><a xlink:title=" ">
<path fill="none" stroke="#63b8ff" d="M163.37,-29.25C171.28,-28.27 179.35,-27.27 187.34,-26.28"/>
<polygon fill="#63b8ff" stroke="#63b8ff" points="187.57,-29.78 197.06,-25.08 186.71,-22.83 187.57,-29.78"/>
</a>
</g>
</g>
<!-- Node4 -->
<g id="Node000004" class="node">
<title>Node4</title>
<g id="a_Node000004"><a xlink:href="classedu_1_1wpi_1_1first_1_1wpilibj_1_1_counter.html#aa2e326e246a1f4dba1ff168b798996fd" target="_top" xlink:title=" ">
<polygon fill="white" stroke="#666666" points="544.5,-24.88 392,-24.88 392,-5.63 544.5,-5.63 544.5,-24.88"/>
<text text-anchor="middle" x="468.25" y="-11.38" font-family="Helvetica,sans-Serif" font-size="10.00">edu.wpi.first.wpilibj.Counter.get</text>
</a>
</g>
</g>
<!-- Node3&#45;&gt;Node4 -->
<g id="edge3_Node000003_Node000004" class="edge">
<title>Node3&#45;&gt;Node4</title>
<g id="a_edge3_Node000003_Node000004"><a xlink:title=" ">
<path fill="none" stroke="#63b8ff" d="M356.36,-15.25C364.3,-15.25 372.4,-15.25 380.42,-15.25"/>
<polygon fill="#63b8ff" stroke="#63b8ff" points="380.18,-18.75 390.18,-15.25 380.18,-11.75 380.18,-18.75"/>
</a>
</g>
</g>
</g>
</svg>
