<?xml version="1.0" encoding="UTF-8" standalone="no"?>
<!DOCTYPE svg PUBLIC "-//W3C//DTD SVG 1.1//EN"
 "http://www.w3.org/Graphics/SVG/1.1/DTD/svg11.dtd">
<!-- Generated by graphviz version 9.0.0 (20230911.1827)
 -->
<!-- Title: edu.wpi.first.wpilibj.GenericHID.getRawButtonReleased Pages: 1 -->
<!--zoomable 124 -->

<svg id="main" version="1.1" xmlns="http://www.w3.org/2000/svg" xmlns:xlink="http://www.w3.org/1999/xlink" xml:space="preserve" onload="init(evt)">
<style type="text/css"><![CDATA[
.node, .edge {opacity: 0.7;}
.node.selected, .edge.selected {opacity: 1;}
.edge:hover path { stroke: red; }
.edge:hover polygon { stroke: red; fill: red; }
]]></style>

<defs>
  <circle id="rim" cx="0" cy="0" r="7"/>
  <circle id="rim2" cx="0" cy="0" r="3.5"/>
  <g id="zoomPlus">
    <use xlink:href="#rim" fill="#404040"><set attributeName="fill" to="#808080" begin="zoomplus.mouseover" end="zoomplus.mouseout"/></use>
    <path d="M-4,0h8M0,-4v8" fill="none" stroke="white" stroke-width="1.5" pointer-events="none"/>
  </g>
  <g id="zoomMin">
    <use xlink:href="#rim" fill="#404040"><set attributeName="fill" to="#808080" begin="zoomminus.mouseover" end="zoomminus.mouseout"/></use>
    <path d="M-4,0h8" fill="none" stroke="white" stroke-width="1.5" pointer-events="none"/>
  </g>
  <g id="arrowUp" transform="translate(30 24)">
    <use xlink:href="#rim"/>
    <path pointer-events="none" fill="none" stroke="white" stroke-width="1.5" d="M0,-3.0v7 M-2.5,-0.5L0,-3.0L2.5,-0.5"/>
  </g>
  <g id="arrowRight" transform="rotate(90) translate(36 -43)">
    <use xlink:href="#rim"/>
    <path pointer-events="none" fill="none" stroke="white" stroke-width="1.5" d="M0,-3.0v7 M-2.5,-0.5L0,-3.0L2.5,-0.5"/>
  </g>
  <g id="arrowDown" transform="rotate(180) translate(-30 -48)">
    <use xlink:href="#rim"/>
    <path pointer-events="none" fill="none" stroke="white" stroke-width="1.5" d="M0,-3.0v7 M-2.5,-0.5L0,-3.0L2.5,-0.5"/>
  </g>
  <g id="arrowLeft" transform="rotate(270) translate(-36 17)">
    <use xlink:href="#rim"/>
    <path pointer-events="none" fill="none" stroke="white" stroke-width="1.5" d="M0,-3.0v7 M-2.5,-0.5L0,-3.0L2.5,-0.5"/>
  </g>
  <g id="resetDef">
    <use xlink:href="#rim2" fill="#404040"><set attributeName="fill" to="#808080" begin="reset.mouseover" end="reset.mouseout"/></use>
  </g>
</defs>
<script type="application/ecmascript">
var viewWidth = 677;
var viewHeight = 124;
var sectionId = 'dynsection-19';
</script>
<script type="application/ecmascript" xlink:href="svg.min.js"/>
<svg id="graph" class="graph">
<g id="viewport">
<title>edu.wpi.first.wpilibj.GenericHID.getRawButtonReleased</title>
<!-- Node1 -->
<g id="Node000001" class="node">
<title>Node1</title>
<g id="a_Node000001"><a xlink:title=" ">
<polygon fill="#999999" stroke="#666666" points="140.5,-72.5 0,-72.5 0,-42 140.5,-42 140.5,-72.5"/>
<text text-anchor="start" x="8" y="-59" font-family="Helvetica,sans-Serif" font-size="10.00">edu.wpi.first.wpilibj.Generic</text>
<text text-anchor="middle" x="70.25" y="-47.75" font-family="Helvetica,sans-Serif" font-size="10.00">HID.getRawButtonReleased</text>
</a>
</g>
</g>
<!-- Node2 -->
<g id="Node000002" class="node">
<title>Node2</title>
<g id="a_Node000002"><a xlink:href="classedu_1_1wpi_1_1first_1_1wpilibj_1_1_generic_h_i_d.html#a77f3feaa9b70759aa7e26c20bec4bec2" target="_top" xlink:title=" ">
<polygon fill="white" stroke="#666666" points="322.25,-97.5 186.25,-97.5 186.25,-67 322.25,-67 322.25,-97.5"/>
<text text-anchor="start" x="194.25" y="-84" font-family="Helvetica,sans-Serif" font-size="10.00">edu.wpi.first.wpilibj.Generic</text>
<text text-anchor="middle" x="254.25" y="-72.75" font-family="Helvetica,sans-Serif" font-size="10.00">HID.button</text>
</a>
</g>
</g>
<!-- Node1&#45;&gt;Node2 -->
<g id="edge1_Node000001_Node000002" class="edge">
<title>Node1&#45;&gt;Node2</title>
<g id="a_edge1_Node000001_Node000002"><a xlink:title=" ">
<path fill="none" stroke="#63b8ff" d="M140.84,-66.81C151.9,-68.33 163.41,-69.91 174.66,-71.46"/>
<polygon fill="#63b8ff" stroke="#63b8ff" points="173.92,-74.89 184.31,-72.78 174.87,-67.95 173.92,-74.89"/>
</a>
</g>
</g>
<!-- Node6 -->
<g id="Node000006" class="node">
<title>Node6</title>
<g id="a_Node000006"><a xlink:href="classedu_1_1wpi_1_1first_1_1wpilibj_1_1_driver_station.html#af7d67c20055e6730e05c8ed4483ea79a" target="_top" xlink:title=" ">
<polygon fill="white" stroke="#666666" points="332,-48.5 176.5,-48.5 176.5,-18 332,-18 332,-48.5"/>
<text text-anchor="start" x="184.5" y="-35" font-family="Helvetica,sans-Serif" font-size="10.00">edu.wpi.first.wpilibj.Driver</text>
<text text-anchor="middle" x="254.25" y="-23.75" font-family="Helvetica,sans-Serif" font-size="10.00">Station.getStickButtonReleased</text>
</a>
</g>
</g>
<!-- Node1&#45;&gt;Node6 -->
<g id="edge8_Node000001_Node000006" class="edge">
<title>Node1&#45;&gt;Node6</title>
<g id="a_edge8_Node000001_Node000006"><a xlink:title=" ">
<path fill="none" stroke="#63b8ff" d="M140.84,-48.07C148.68,-47.04 156.75,-45.98 164.79,-44.92"/>
<polygon fill="#63b8ff" stroke="#63b8ff" points="165.16,-48.4 174.62,-43.62 164.24,-41.46 165.16,-48.4"/>
</a>
</g>
</g>
<!-- Node2&#45;&gt;Node2 -->
<g id="edge2_Node000002_Node000002" class="edge">
<title>Node2&#45;&gt;Node2</title>
<g id="a_edge2_Node000002_Node000002"><a xlink:title=" ">
<path fill="none" stroke="#63b8ff" d="M222.04,-97.99C215.47,-107.06 226.21,-115.5 254.25,-115.5 269.59,-115.5 279.75,-112.97 284.73,-109.2"/>
<polygon fill="#63b8ff" stroke="#63b8ff" points="288.16,-109.9 286.23,-99.48 281.25,-108.83 288.16,-109.9"/>
</a>
</g>
</g>
<!-- Node3 -->
<g id="Node000003" class="node">
<title>Node3</title>
<g id="a_Node000003"><a xlink:href="classedu_1_1wpi_1_1first_1_1wpilibj_1_1_generic_h_i_d.html#abdb0245e5cb7f7b92cc1060202821a2d" target="_top" xlink:title=" ">
<polygon fill="white" stroke="#666666" points="504,-97.5 368,-97.5 368,-67 504,-67 504,-97.5"/>
<text text-anchor="start" x="376" y="-84" font-family="Helvetica,sans-Serif" font-size="10.00">edu.wpi.first.wpilibj.Generic</text>
<text text-anchor="middle" x="436" y="-72.75" font-family="Helvetica,sans-Serif" font-size="10.00">HID.getRawButton</text>
</a>
</g>
</g>
<!-- Node2&#45;&gt;Node3 -->
<g id="edge3_Node000002_Node000003" class="edge">
<title>Node2&#45;&gt;Node3</title>
<g id="a_edge3_Node000002_Node000003"><a xlink:title=" ">
<path fill="none" stroke="#63b8ff" d="M322.69,-75.69C333.75,-75.5 345.29,-75.45 356.59,-75.55"/>
<polygon fill="#63b8ff" stroke="#63b8ff" points="356.22,-79.04 366.26,-75.67 356.31,-72.05 356.22,-79.04"/>
</a>
</g>
</g>
<!-- Node5 -->
<g id="Node000005" class="node">
<title>Node5</title>
<g id="a_Node000005"><a xlink:href="classedu_1_1wpi_1_1first_1_1wpilibj_1_1_generic_h_i_d.html#af0b067c76cbb79f54d7f475e88fcfed2" target="_top" xlink:title=" ">
<polygon fill="white" stroke="#666666" points="504,-30.5 368,-30.5 368,0 504,0 504,-30.5"/>
<text text-anchor="start" x="376" y="-17" font-family="Helvetica,sans-Serif" font-size="10.00">edu.wpi.first.wpilibj.Generic</text>
<text text-anchor="middle" x="436" y="-5.75" font-family="Helvetica,sans-Serif" font-size="10.00">HID.pov</text>
</a>
</g>
</g>
<!-- Node2&#45;&gt;Node5 -->
<g id="edge6_Node000002_Node000005" class="edge">
<title>Node2&#45;&gt;Node5</title>
<g id="a_edge6_Node000002_Node000005"><a xlink:title=" ">
<path fill="none" stroke="#63b8ff" d="M304.97,-66.63C314.01,-63.63 323.31,-60.43 332,-57.25 350.47,-50.49 370.55,-42.46 388.03,-35.24"/>
<polygon fill="#63b8ff" stroke="#63b8ff" points="389.26,-38.52 397.15,-31.45 386.57,-32.05 389.26,-38.52"/>
</a>
</g>
</g>
<!-- Node3&#45;&gt;Node2 -->
<g id="edge4_Node000003_Node000002" class="edge">
<title>Node3&#45;&gt;Node2</title>
<g id="a_edge4_Node000003_Node000002"><a xlink:title=" ">
<path fill="none" stroke="#63b8ff" d="M367.78,-88.81C356.72,-89 345.18,-89.05 333.89,-88.95"/>
<polygon fill="#63b8ff" stroke="#63b8ff" points="334.25,-85.46 324.21,-88.83 334.16,-92.46 334.25,-85.46"/>
</a>
</g>
</g>
<!-- Node4 -->
<g id="Node000004" class="node">
<title>Node4</title>
<g id="a_Node000004"><a xlink:href="classedu_1_1wpi_1_1first_1_1wpilibj_1_1_driver_station.html#a3d86d4b8414c05aafe18fc866d99ccab" target="_top" xlink:title=" ">
<polygon fill="white" stroke="#666666" points="668.5,-97.5 540,-97.5 540,-67 668.5,-67 668.5,-97.5"/>
<text text-anchor="start" x="548" y="-84" font-family="Helvetica,sans-Serif" font-size="10.00">edu.wpi.first.wpilibj.Driver</text>
<text text-anchor="middle" x="604.25" y="-72.75" font-family="Helvetica,sans-Serif" font-size="10.00">Station.getStickButton</text>
</a>
</g>
</g>
<!-- Node3&#45;&gt;Node4 -->
<g id="edge5_Node000003_Node000004" class="edge">
<title>Node3&#45;&gt;Node4</title>
<g id="a_edge5_Node000003_Node000004"><a xlink:title=" ">
<path fill="none" stroke="#63b8ff" d="M504.14,-82.25C512.1,-82.25 520.27,-82.25 528.33,-82.25"/>
<polygon fill="#63b8ff" stroke="#63b8ff" points="528.12,-85.75 538.12,-82.25 528.12,-78.75 528.12,-85.75"/>
</a>
</g>
</g>
<!-- Node5&#45;&gt;Node5 -->
<g id="edge7_Node000005_Node000005" class="edge">
<title>Node5&#45;&gt;Node5</title>
<g id="a_edge7_Node000005_Node000005"><a xlink:title=" ">
<path fill="none" stroke="#63b8ff" d="M406.19,-30.99C400.1,-40.06 410.04,-48.5 436,-48.5 450.2,-48.5 459.6,-45.97 464.22,-42.2"/>
<polygon fill="#63b8ff" stroke="#63b8ff" points="467.65,-42.88 465.6,-32.48 460.72,-41.89 467.65,-42.88"/>
</a>
</g>
</g>
</g>
</svg>

<g id="navigator" transform="translate(0 0)" fill="#404254">
  <rect fill="#f2f5e9" fill-opacity="0.5" stroke="#606060" stroke-width=".5" x="0" y="0" width="60" height="60"/>
  <use id="zoomplus" xlink:href="#zoomPlus" x="17" y="9" onmousedown="handleZoom(evt,'in')"/>
  <use id="zoomminus" xlink:href="#zoomMin" x="42" y="9" onmousedown="handleZoom(evt,'out')"/>
  <use id="reset" xlink:href="#resetDef" x="30" y="36" onmousedown="handleReset()"/>
   <use id="arrowup" xlink:href="#arrowUp" x="0" y="0" onmousedown="handlePan(0,-1)"/>
  <use id="arrowright" xlink:href="#arrowRight" x="0" y="0" onmousedown="handlePan(1,0)"/>
  <use id="arrowdown" xlink:href="#arrowDown" x="0" y="0" onmousedown="handlePan(0,1)"/>
  <use id="arrowleft" xlink:href="#arrowLeft" x="0" y="0" onmousedown="handlePan(-1,0)"/>
</g>
<svg viewBox="0 0 15 15" width="100%" height="30px" preserveAspectRatio="xMaxYMin meet">
 <g id="arrow_out" transform="scale(0.3 0.3)">
  <a xlink:href="classedu_1_1wpi_1_1first_1_1wpilibj_1_1_generic_h_i_d_a2087699248ada770e00ea78b91b8fd01_cgraph_org.svg" target="_base">
   <rect id="button" ry="5" rx="5" y="6" x="6" height="38" width="38"
        fill="#f2f5e9" fill-opacity="0.5" stroke="#606060" stroke-width="1.0"/>
   <path id="arrow"
     d="M 11.500037,31.436501 C 11.940474,20.09759 22.043105,11.32322 32.158766,21.979434 L 37.068811,17.246167 C 37.068811,17.246167 37.088388,32 37.088388,32 L 22.160133,31.978069 C 22.160133,31.978069 26.997745,27.140456 26.997745,27.140456 C 18.528582,18.264221 13.291696,25.230495 11.500037,31.436501 z"
     style="fill:#404040;"/>
  </a>
 </g>
</svg>

<style type='text/css'>
<![CDATA[
[data-mouse-over-selected='false'] { opacity: 0.7; }
[data-mouse-over-selected='true']  { opacity: 1.0; }
]]>
</style>
<script type="application/ecmascript"><![CDATA[
document.addEventListener('DOMContentLoaded', (event) => {
  highlightEdges();
  highlightAdjacentNodes();
});
]]></script>
</svg>
