<?xml version="1.0" encoding="UTF-8" standalone="no"?>
<!DOCTYPE svg PUBLIC "-//W3C//DTD SVG 1.1//EN"
 "http://www.w3.org/Graphics/SVG/1.1/DTD/svg11.dtd">
<!-- Generated by graphviz version 9.0.0 (20230911.1827)
 -->
<!-- Title: edu.wpi.first.wpilibj.SensorUtil.getDefaultCTREPCMModule Pages: 1 -->
<!--zoomable 235 -->

<svg id="main" version="1.1" xmlns="http://www.w3.org/2000/svg" xmlns:xlink="http://www.w3.org/1999/xlink" xml:space="preserve" onload="init(evt)">
<style type="text/css"><![CDATA[
.node, .edge {opacity: 0.7;}
.node.selected, .edge.selected {opacity: 1;}
.edge:hover path { stroke: red; }
.edge:hover polygon { stroke: red; fill: red; }
]]></style>

<defs>
  <circle id="rim" cx="0" cy="0" r="7"/>
  <circle id="rim2" cx="0" cy="0" r="3.5"/>
  <g id="zoomPlus">
    <use xlink:href="#rim" fill="#404040"><set attributeName="fill" to="#808080" begin="zoomplus.mouseover" end="zoomplus.mouseout"/></use>
    <path d="M-4,0h8M0,-4v8" fill="none" stroke="white" stroke-width="1.5" pointer-events="none"/>
  </g>
  <g id="zoomMin">
    <use xlink:href="#rim" fill="#404040"><set attributeName="fill" to="#808080" begin="zoomminus.mouseover" end="zoomminus.mouseout"/></use>
    <path d="M-4,0h8" fill="none" stroke="white" stroke-width="1.5" pointer-events="none"/>
  </g>
  <g id="arrowUp" transform="translate(30 24)">
    <use xlink:href="#rim"/>
    <path pointer-events="none" fill="none" stroke="white" stroke-width="1.5" d="M0,-3.0v7 M-2.5,-0.5L0,-3.0L2.5,-0.5"/>
  </g>
  <g id="arrowRight" transform="rotate(90) translate(36 -43)">
    <use xlink:href="#rim"/>
    <path pointer-events="none" fill="none" stroke="white" stroke-width="1.5" d="M0,-3.0v7 M-2.5,-0.5L0,-3.0L2.5,-0.5"/>
  </g>
  <g id="arrowDown" transform="rotate(180) translate(-30 -48)">
    <use xlink:href="#rim"/>
    <path pointer-events="none" fill="none" stroke="white" stroke-width="1.5" d="M0,-3.0v7 M-2.5,-0.5L0,-3.0L2.5,-0.5"/>
  </g>
  <g id="arrowLeft" transform="rotate(270) translate(-36 17)">
    <use xlink:href="#rim"/>
    <path pointer-events="none" fill="none" stroke="white" stroke-width="1.5" d="M0,-3.0v7 M-2.5,-0.5L0,-3.0L2.5,-0.5"/>
  </g>
  <g id="resetDef">
    <use xlink:href="#rim2" fill="#404040"><set attributeName="fill" to="#808080" begin="reset.mouseover" end="reset.mouseout"/></use>
  </g>
</defs>
<script type="application/ecmascript">
var viewWidth = 628;
var viewHeight = 235;
var sectionId = 'dynsection-3';
</script>
<script type="application/ecmascript" xlink:href="svg.min.js"/>
<svg id="graph" class="graph">
<g id="viewport">
<title>edu.wpi.first.wpilibj.SensorUtil.getDefaultCTREPCMModule</title>
<!-- Node1 -->
<g id="Node000001" class="node">
<title>Node1</title>
<g id="a_Node000001"><a xlink:title=" ">
<polygon fill="#999999" stroke="#666666" points="619.5,-128.5 458.75,-128.5 458.75,-98 619.5,-98 619.5,-128.5"/>
<text text-anchor="start" x="466.75" y="-115" font-family="Helvetica,sans-Serif" font-size="10.00">edu.wpi.first.wpilibj.Sensor</text>
<text text-anchor="middle" x="539.12" y="-103.75" font-family="Helvetica,sans-Serif" font-size="10.00">Util.getDefaultCTREPCMModule</text>
</a>
</g>
</g>
<!-- Node2 -->
<g id="Node000002" class="node">
<title>Node2</title>
<g id="a_Node000002"><a xlink:href="classedu_1_1wpi_1_1first_1_1wpilibj_1_1simulation_1_1_c_t_r_e_p_c_m_sim.html#a2fc084a3f6ca619345458eca1a4e3548" target="_top" xlink:title=" ">
<polygon fill="white" stroke="#666666" points="401.38,-177.5 247.38,-177.5 247.38,-147 401.38,-147 401.38,-177.5"/>
<text text-anchor="start" x="255.38" y="-164" font-family="Helvetica,sans-Serif" font-size="10.00">edu.wpi.first.wpilibj.simulation.</text>
<text text-anchor="middle" x="324.38" y="-152.75" font-family="Helvetica,sans-Serif" font-size="10.00">CTREPCMSim.CTREPCMSim</text>
</a>
</g>
</g>
<!-- Node1&#45;&gt;Node2 -->
<g id="edge1_Node000001_Node000002" class="edge">
<title>Node1&#45;&gt;Node2</title>
<g id="a_edge1_Node000001_Node000002"><a xlink:title=" ">
<path fill="none" stroke="#63b8ff" d="M458.87,-131.5C437.4,-136.45 414.35,-141.76 393.55,-146.55"/>
<polygon fill="#63b8ff" stroke="#63b8ff" points="459.5,-134.95 468.46,-129.3 457.93,-128.13 459.5,-134.95"/>
</a>
</g>
</g>
<!-- Node3 -->
<g id="Node000003" class="node">
<title>Node3</title>
<g id="a_Node000003"><a xlink:href="interfaceedu_1_1wpi_1_1first_1_1wpilibj_1_1_pneumatics_base.html#a7f07af9f270e5dbb58336c1b605e6465" target="_top" xlink:title=" ">
<polygon fill="white" stroke="#666666" points="401.38,-128.5 247.38,-128.5 247.38,-98 401.38,-98 401.38,-128.5"/>
<text text-anchor="start" x="255.38" y="-115" font-family="Helvetica,sans-Serif" font-size="10.00">edu.wpi.first.wpilibj.Pneumatics</text>
<text text-anchor="middle" x="324.38" y="-103.75" font-family="Helvetica,sans-Serif" font-size="10.00">Base.getDefaultForType</text>
</a>
</g>
</g>
<!-- Node1&#45;&gt;Node3 -->
<g id="edge2_Node000001_Node000003" class="edge">
<title>Node1&#45;&gt;Node3</title>
<g id="a_edge2_Node000001_Node000003"><a xlink:title=" ">
<path fill="none" stroke="#63b8ff" d="M446.9,-113.25C431.86,-113.25 416.4,-113.25 401.77,-113.25"/>
<polygon fill="#63b8ff" stroke="#63b8ff" points="446.79,-116.75 456.79,-113.25 446.79,-109.75 446.79,-116.75"/>
</a>
</g>
</g>
<!-- Node9 -->
<g id="Node000009" class="node">
<title>Node9</title>
<g id="a_Node000009"><a xlink:href="classedu_1_1wpi_1_1first_1_1wpilibj_1_1_pneumatics_control_module.html#a7578701e18132aa2ef7615edf07ac9f6" target="_top" xlink:title=" ">
<polygon fill="white" stroke="#666666" points="422.75,-79.5 226,-79.5 226,-49 422.75,-49 422.75,-79.5"/>
<text text-anchor="start" x="234" y="-66" font-family="Helvetica,sans-Serif" font-size="10.00">edu.wpi.first.wpilibj.Pneumatics</text>
<text text-anchor="middle" x="324.38" y="-54.75" font-family="Helvetica,sans-Serif" font-size="10.00">ControlModule.PneumaticsControlModule</text>
</a>
</g>
</g>
<!-- Node1&#45;&gt;Node9 -->
<g id="edge8_Node000001_Node000009" class="edge">
<title>Node1&#45;&gt;Node9</title>
<g id="a_edge8_Node000001_Node000009"><a xlink:title=" ">
<path fill="none" stroke="#63b8ff" d="M458.87,-95C437.4,-90.05 414.35,-84.74 393.55,-79.95"/>
<polygon fill="#63b8ff" stroke="#63b8ff" points="457.93,-98.37 468.46,-97.2 459.5,-91.55 457.93,-98.37"/>
</a>
</g>
</g>
<!-- Node4 -->
<g id="Node000004" class="node">
<title>Node4</title>
<g id="a_Node000004"><a xlink:href="classedu_1_1wpi_1_1first_1_1wpilibj_1_1_compressor.html#af0d27dcf99c6132ddbca7c320884bcc9" target="_top" xlink:title=" ">
<polygon fill="white" stroke="#666666" points="173.88,-226.5 16.12,-226.5 16.12,-196 173.88,-196 173.88,-226.5"/>
<text text-anchor="start" x="24.12" y="-213" font-family="Helvetica,sans-Serif" font-size="10.00">edu.wpi.first.wpilibj.Compressor.</text>
<text text-anchor="middle" x="95" y="-201.75" font-family="Helvetica,sans-Serif" font-size="10.00">Compressor</text>
</a>
</g>
</g>
<!-- Node3&#45;&gt;Node4 -->
<g id="edge3_Node000003_Node000004" class="edge">
<title>Node3&#45;&gt;Node4</title>
<g id="a_edge3_Node000003_Node000004"><a xlink:title=" ">
<path fill="none" stroke="#63b8ff" d="M236.82,-131.98C233.06,-133.87 229.43,-135.96 226,-138.25 203.83,-153.07 212.1,-171.33 190,-186.25 184.68,-189.84 178.87,-192.91 172.83,-195.55"/>
<polygon fill="#63b8ff" stroke="#63b8ff" points="237.95,-135.31 245.64,-128.03 235.09,-128.92 237.95,-135.31"/>
</a>
</g>
</g>
<!-- Node5 -->
<g id="Node000005" class="node">
<title>Node5</title>
<g id="a_Node000005"><a xlink:href="classedu_1_1wpi_1_1first_1_1wpilibj_1_1_double_solenoid.html#aa80f7927d5629ad62d5a306627f7325c" target="_top" xlink:title=" ">
<polygon fill="white" stroke="#666666" points="161.5,-177.5 28.5,-177.5 28.5,-147 161.5,-147 161.5,-177.5"/>
<text text-anchor="start" x="36.5" y="-164" font-family="Helvetica,sans-Serif" font-size="10.00">edu.wpi.first.wpilibj.Double</text>
<text text-anchor="middle" x="95" y="-152.75" font-family="Helvetica,sans-Serif" font-size="10.00">Solenoid.DoubleSolenoid</text>
</a>
</g>
</g>
<!-- Node3&#45;&gt;Node5 -->
<g id="edge4_Node000003_Node000005" class="edge">
<title>Node3&#45;&gt;Node5</title>
<g id="a_edge4_Node000003_Node000005"><a xlink:title=" ">
<path fill="none" stroke="#63b8ff" d="M239.32,-131.37C213.78,-136.87 186.09,-142.83 161.93,-148.04"/>
<polygon fill="#63b8ff" stroke="#63b8ff" points="239.98,-134.8 249.01,-129.27 238.5,-127.96 239.98,-134.8"/>
</a>
</g>
</g>
<!-- Node6 -->
<g id="Node000006" class="node">
<title>Node6</title>
<g id="a_Node000006"><a xlink:href="classedu_1_1wpi_1_1first_1_1wpilibj_1_1simulation_1_1_double_solenoid_sim.html#a46a24e037822569ae9d627a5e37cda23" target="_top" xlink:title=" ">
<polygon fill="white" stroke="#666666" points="190,-128.5 0,-128.5 0,-98 190,-98 190,-128.5"/>
<text text-anchor="start" x="8" y="-115" font-family="Helvetica,sans-Serif" font-size="10.00">edu.wpi.first.wpilibj.simulation.</text>
<text text-anchor="middle" x="95" y="-103.75" font-family="Helvetica,sans-Serif" font-size="10.00">DoubleSolenoidSim.DoubleSolenoidSim</text>
</a>
</g>
</g>
<!-- Node3&#45;&gt;Node6 -->
<g id="edge5_Node000003_Node000006" class="edge">
<title>Node3&#45;&gt;Node6</title>
<g id="a_edge5_Node000003_Node000006"><a xlink:title=" ">
<path fill="none" stroke="#63b8ff" d="M235.79,-113.25C220.9,-113.25 205.38,-113.25 190.32,-113.25"/>
<polygon fill="#63b8ff" stroke="#63b8ff" points="235.52,-116.75 245.52,-113.25 235.52,-109.75 235.52,-116.75"/>
</a>
</g>
</g>
<!-- Node7 -->
<g id="Node000007" class="node">
<title>Node7</title>
<g id="a_Node000007"><a xlink:href="classedu_1_1wpi_1_1first_1_1wpilibj_1_1_solenoid.html#a8e37ae613c1811380d9ce3fcbe5b9682" target="_top" xlink:title=" ">
<polygon fill="white" stroke="#666666" points="166.38,-79.5 23.62,-79.5 23.62,-49 166.38,-49 166.38,-79.5"/>
<text text-anchor="start" x="31.62" y="-66" font-family="Helvetica,sans-Serif" font-size="10.00">edu.wpi.first.wpilibj.Solenoid.</text>
<text text-anchor="middle" x="95" y="-54.75" font-family="Helvetica,sans-Serif" font-size="10.00">Solenoid</text>
</a>
</g>
</g>
<!-- Node3&#45;&gt;Node7 -->
<g id="edge6_Node000003_Node000007" class="edge">
<title>Node3&#45;&gt;Node7</title>
<g id="a_edge6_Node000003_Node000007"><a xlink:title=" ">
<path fill="none" stroke="#63b8ff" d="M239.29,-95.13C215.36,-89.97 189.56,-84.41 166.53,-79.45"/>
<polygon fill="#63b8ff" stroke="#63b8ff" points="238.5,-98.54 249.01,-97.23 239.98,-91.7 238.5,-98.54"/>
</a>
</g>
</g>
<!-- Node8 -->
<g id="Node000008" class="node">
<title>Node8</title>
<g id="a_Node000008"><a xlink:href="classedu_1_1wpi_1_1first_1_1wpilibj_1_1simulation_1_1_solenoid_sim.html#aa302bfd31059a6655c1133d0a549a2ce" target="_top" xlink:title=" ">
<polygon fill="white" stroke="#666666" points="169.75,-30.5 20.25,-30.5 20.25,0 169.75,0 169.75,-30.5"/>
<text text-anchor="start" x="28.25" y="-17" font-family="Helvetica,sans-Serif" font-size="10.00">edu.wpi.first.wpilibj.simulation.</text>
<text text-anchor="middle" x="95" y="-5.75" font-family="Helvetica,sans-Serif" font-size="10.00">SolenoidSim.SolenoidSim</text>
</a>
</g>
</g>
<!-- Node3&#45;&gt;Node8 -->
<g id="edge7_Node000003_Node000008" class="edge">
<title>Node3&#45;&gt;Node8</title>
<g id="a_edge7_Node000003_Node000008"><a xlink:title=" ">
<path fill="none" stroke="#63b8ff" d="M236.82,-94.52C233.06,-92.63 229.43,-90.54 226,-88.25 203.83,-73.43 212.1,-55.17 190,-40.25 183.84,-36.09 177.02,-32.63 169.95,-29.74"/>
<polygon fill="#63b8ff" stroke="#63b8ff" points="235.09,-97.58 245.64,-98.47 237.95,-91.19 235.09,-97.58"/>
</a>
</g>
</g>
</g>
</svg>

<g id="navigator" transform="translate(0 0)" fill="#404254">
  <rect fill="#f2f5e9" fill-opacity="0.5" stroke="#606060" stroke-width=".5" x="0" y="0" width="60" height="60"/>
  <use id="zoomplus" xlink:href="#zoomPlus" x="17" y="9" onmousedown="handleZoom(evt,'in')"/>
  <use id="zoomminus" xlink:href="#zoomMin" x="42" y="9" onmousedown="handleZoom(evt,'out')"/>
  <use id="reset" xlink:href="#resetDef" x="30" y="36" onmousedown="handleReset()"/>
   <use id="arrowup" xlink:href="#arrowUp" x="0" y="0" onmousedown="handlePan(0,-1)"/>
  <use id="arrowright" xlink:href="#arrowRight" x="0" y="0" onmousedown="handlePan(1,0)"/>
  <use id="arrowdown" xlink:href="#arrowDown" x="0" y="0" onmousedown="handlePan(0,1)"/>
  <use id="arrowleft" xlink:href="#arrowLeft" x="0" y="0" onmousedown="handlePan(-1,0)"/>
</g>
<svg viewBox="0 0 15 15" width="100%" height="30px" preserveAspectRatio="xMaxYMin meet">
 <g id="arrow_out" transform="scale(0.3 0.3)">
  <a xlink:href="classedu_1_1wpi_1_1first_1_1wpilibj_1_1_sensor_util_a7889ff0082624ed463b5149eb2d4abd6_icgraph_org.svg" target="_base">
   <rect id="button" ry="5" rx="5" y="6" x="6" height="38" width="38"
        fill="#f2f5e9" fill-opacity="0.5" stroke="#606060" stroke-width="1.0"/>
   <path id="arrow"
     d="M 11.500037,31.436501 C 11.940474,20.09759 22.043105,11.32322 32.158766,21.979434 L 37.068811,17.246167 C 37.068811,17.246167 37.088388,32 37.088388,32 L 22.160133,31.978069 C 22.160133,31.978069 26.997745,27.140456 26.997745,27.140456 C 18.528582,18.264221 13.291696,25.230495 11.500037,31.436501 z"
     style="fill:#404040;"/>
  </a>
 </g>
</svg>

<style type='text/css'>
<![CDATA[
[data-mouse-over-selected='false'] { opacity: 0.7; }
[data-mouse-over-selected='true']  { opacity: 1.0; }
]]>
</style>
<script type="application/ecmascript"><![CDATA[
document.addEventListener('DOMContentLoaded', (event) => {
  highlightEdges();
  highlightAdjacentNodes();
});
]]></script>
</svg>
