<?xml version="1.0" encoding="UTF-8" standalone="no"?>
<!DOCTYPE svg PUBLIC "-//W3C//DTD SVG 1.1//EN"
 "http://www.w3.org/Graphics/SVG/1.1/DTD/svg11.dtd">
<!-- Generated by graphviz version 9.0.0 (20230911.1827)
 -->
<!-- Title: edu.wpi.first.wpilibj.DriverStation.reportError Pages: 1 -->
<svg width="326pt" height="382pt"
 viewBox="0.00 0.00 325.75 381.50" xmlns="http://www.w3.org/2000/svg" xmlns:xlink="http://www.w3.org/1999/xlink">

<svg id="main" version="1.1" xmlns="http://www.w3.org/2000/svg" xmlns:xlink="http://www.w3.org/1999/xlink" xml:space="preserve" onload="init(evt)">
<style type="text/css"><![CDATA[
.node, .edge {opacity: 0.7;}
.node.selected, .edge.selected {opacity: 1;}
.edge:hover path { stroke: red; }
.edge:hover polygon { stroke: red; fill: red; }
]]></style>
<script type="application/ecmascript" xlink:href="svg.min.js"/>
<svg id="graph" class="graph">
<g id="graph0" class="graph" transform="scale(1 1) rotate(0) translate(4 377.5)">
<title>edu.wpi.first.wpilibj.DriverStation.reportError</title>
<!-- Node1 -->
<g id="Node000001" class="node">
<title>Node1</title>
<g id="a_Node000001"><a xlink:title=" ">
<polygon fill="#999999" stroke="#666666" points="317.75,-201.5 189.25,-201.5 189.25,-171 317.75,-171 317.75,-201.5"/>
<text text-anchor="start" x="197.25" y="-188" font-family="Helvetica,sans-Serif" font-size="10.00">edu.wpi.first.wpilibj.Driver</text>
<text text-anchor="middle" x="253.5" y="-176.75" font-family="Helvetica,sans-Serif" font-size="10.00">Station.reportError</text>
</a>
</g>
</g>
<!-- Node2 -->
<g id="Node000002" class="node">
<title>Node2</title>
<g id="a_Node000002"><a xlink:href="classedu_1_1wpi_1_1first_1_1wpilibj_1_1_a_d_i_s16470___i_m_u.html#a843e6d9bf9ce30ebdbb3b788252171f5" target="_top" xlink:title=" ">
<polygon fill="white" stroke="#666666" points="152.88,-373.5 0.38,-373.5 0.38,-343 152.88,-343 152.88,-373.5"/>
<text text-anchor="start" x="8.38" y="-360" font-family="Helvetica,sans-Serif" font-size="10.00">edu.wpi.first.wpilibj.ADIS16470</text>
<text text-anchor="middle" x="76.62" y="-348.75" font-family="Helvetica,sans-Serif" font-size="10.00">_IMU.ADIS16470_IMU</text>
</a>
</g>
</g>
<!-- Node1&#45;&gt;Node2 -->
<g id="edge1_Node000001_Node000002" class="edge">
<title>Node1&#45;&gt;Node2</title>
<g id="a_edge1_Node000001_Node000002"><a xlink:title=" ">
<path fill="none" stroke="#63b8ff" d="M241.7,-211.71C226.57,-244.43 196.04,-300.85 153.25,-333.25 148.51,-336.84 143.23,-339.93 137.72,-342.58"/>
<polygon fill="#63b8ff" stroke="#63b8ff" points="244.72,-213.53 245.62,-202.98 238.33,-210.67 244.72,-213.53"/>
</a>
</g>
</g>
<!-- Node3 -->
<g id="Node000003" class="node">
<title>Node3</title>
<g id="a_Node000003"><a xlink:href="classedu_1_1wpi_1_1first_1_1wpilibj_1_1_a_d_x_l362.html#acea2f9c488554c4cca5834f9d8506704" target="_top" xlink:title=" ">
<polygon fill="white" stroke="#666666" points="150.25,-324.5 3,-324.5 3,-294 150.25,-294 150.25,-324.5"/>
<text text-anchor="start" x="11" y="-311" font-family="Helvetica,sans-Serif" font-size="10.00">edu.wpi.first.wpilibj.ADXL362.</text>
<text text-anchor="middle" x="76.62" y="-299.75" font-family="Helvetica,sans-Serif" font-size="10.00">ADXL362</text>
</a>
</g>
</g>
<!-- Node1&#45;&gt;Node3 -->
<g id="edge2_Node000001_Node000003" class="edge">
<title>Node1&#45;&gt;Node3</title>
<g id="a_edge2_Node000001_Node000003"><a xlink:title=" ">
<path fill="none" stroke="#63b8ff" d="M233.56,-210.51C215.18,-232.56 185.42,-264.56 153.25,-284.25 147.47,-287.79 141.13,-290.89 134.66,-293.58"/>
<polygon fill="#63b8ff" stroke="#63b8ff" points="236.15,-212.87 239.76,-202.91 230.73,-208.45 236.15,-212.87"/>
</a>
</g>
</g>
<!-- Node4 -->
<g id="Node000004" class="node">
<title>Node4</title>
<g id="a_Node000004"><a xlink:href="classedu_1_1wpi_1_1first_1_1wpilibj_1_1_a_d_x_r_s450___gyro.html#a1a5a788a8335b5a7c06dff192449c31d" target="_top" xlink:title=" ">
<polygon fill="white" stroke="#666666" points="153.25,-275.5 0,-275.5 0,-245 153.25,-245 153.25,-275.5"/>
<text text-anchor="start" x="8" y="-262" font-family="Helvetica,sans-Serif" font-size="10.00">edu.wpi.first.wpilibj.ADXRS450</text>
<text text-anchor="middle" x="76.62" y="-250.75" font-family="Helvetica,sans-Serif" font-size="10.00">_Gyro.ADXRS450_Gyro</text>
</a>
</g>
</g>
<!-- Node1&#45;&gt;Node4 -->
<g id="edge3_Node000001_Node000004" class="edge">
<title>Node1&#45;&gt;Node4</title>
<g id="a_edge3_Node000001_Node000004"><a xlink:title=" ">
<path fill="none" stroke="#63b8ff" d="M213.33,-207.16C195.3,-216.38 173.47,-226.97 153.25,-235.25 145.32,-238.5 136.79,-241.64 128.42,-244.54"/>
<polygon fill="#63b8ff" stroke="#63b8ff" points="214.84,-210.32 222.12,-202.62 211.63,-204.1 214.84,-210.32"/>
</a>
</g>
</g>
<!-- Node5 -->
<g id="Node000005" class="node">
<title>Node5</title>
<g id="a_Node000005"><a xlink:href="classedu_1_1wpi_1_1first_1_1wpilibj_1_1_a_d_i_s16470___i_m_u.html#a74330aa68ae133823fcb3262a0efebff" target="_top" xlink:title=" ">
<polygon fill="white" stroke="#666666" points="152.88,-226.5 0.38,-226.5 0.38,-196 152.88,-196 152.88,-226.5"/>
<text text-anchor="start" x="8.38" y="-213" font-family="Helvetica,sans-Serif" font-size="10.00">edu.wpi.first.wpilibj.ADIS16470</text>
<text text-anchor="middle" x="76.62" y="-201.75" font-family="Helvetica,sans-Serif" font-size="10.00">_IMU.calibrate</text>
</a>
</g>
</g>
<!-- Node1&#45;&gt;Node5 -->
<g id="edge4_Node000001_Node000005" class="edge">
<title>Node1&#45;&gt;Node5</title>
<g id="a_edge4_Node000001_Node000005"><a xlink:title=" ">
<path fill="none" stroke="#63b8ff" d="M177.55,-196.97C169.45,-198.12 161.2,-199.3 153.1,-200.46"/>
<polygon fill="#63b8ff" stroke="#63b8ff" points="177.97,-200.44 187.37,-195.56 176.98,-193.51 177.97,-200.44"/>
</a>
</g>
</g>
<!-- Node6 -->
<g id="Node000006" class="node">
<title>Node6</title>
<g id="a_Node000006"><a xlink:href="classedu_1_1wpi_1_1first_1_1wpilibj_1_1_motor_safety.html#a378effe2109461036a883da6e4a86675" target="_top" xlink:title=" ">
<polygon fill="white" stroke="#666666" points="140.12,-177.5 13.12,-177.5 13.12,-147 140.12,-147 140.12,-177.5"/>
<text text-anchor="start" x="21.12" y="-164" font-family="Helvetica,sans-Serif" font-size="10.00">edu.wpi.first.wpilibj.Motor</text>
<text text-anchor="middle" x="76.62" y="-152.75" font-family="Helvetica,sans-Serif" font-size="10.00">Safety.check</text>
</a>
</g>
</g>
<!-- Node1&#45;&gt;Node6 -->
<g id="edge5_Node000001_Node000006" class="edge">
<title>Node1&#45;&gt;Node6</title>
<g id="a_edge5_Node000001_Node000006"><a xlink:title=" ">
<path fill="none" stroke="#63b8ff" d="M177.66,-175.98C165.32,-174.29 152.64,-172.54 140.62,-170.9"/>
<polygon fill="#63b8ff" stroke="#63b8ff" points="176.99,-179.42 187.37,-177.31 177.94,-172.48 176.99,-179.42"/>
</a>
</g>
</g>
<!-- Node7 -->
<g id="Node000007" class="node">
<title>Node7</title>
<g id="a_Node000007"><a xlink:href="classedu_1_1wpi_1_1first_1_1wpilibj_1_1_a_d_i_s16470___i_m_u.html#a80412d773dce182d9d763887def3dc72" target="_top" xlink:title=" ">
<polygon fill="white" stroke="#666666" points="152.88,-128.5 0.38,-128.5 0.38,-98 152.88,-98 152.88,-128.5"/>
<text text-anchor="start" x="8.38" y="-115" font-family="Helvetica,sans-Serif" font-size="10.00">edu.wpi.first.wpilibj.ADIS16470</text>
<text text-anchor="middle" x="76.62" y="-103.75" font-family="Helvetica,sans-Serif" font-size="10.00">_IMU.configCalTime</text>
</a>
</g>
</g>
<!-- Node1&#45;&gt;Node7 -->
<g id="edge6_Node000001_Node000007" class="edge">
<title>Node1&#45;&gt;Node7</title>
<g id="a_edge6_Node000001_Node000007"><a xlink:title=" ">
<path fill="none" stroke="#63b8ff" d="M212.89,-165.62C194.93,-156.65 173.27,-146.36 153.25,-138.25 145.18,-134.98 136.5,-131.8 128,-128.88"/>
<polygon fill="#63b8ff" stroke="#63b8ff" points="211.14,-168.65 221.64,-170.04 214.29,-162.41 211.14,-168.65"/>
</a>
</g>
</g>
<!-- Node8 -->
<g id="Node000008" class="node">
<title>Node8</title>
<g id="a_Node000008"><a xlink:href="classedu_1_1wpi_1_1first_1_1wpilibj_1_1_a_d_i_s16448___i_m_u.html#a94e36fb1000b2340c85c087d2b01e4ff" target="_top" xlink:title=" ">
<polygon fill="white" stroke="#666666" points="152.88,-79.5 0.38,-79.5 0.38,-49 152.88,-49 152.88,-79.5"/>
<text text-anchor="start" x="8.38" y="-66" font-family="Helvetica,sans-Serif" font-size="10.00">edu.wpi.first.wpilibj.ADIS16448</text>
<text text-anchor="middle" x="76.62" y="-54.75" font-family="Helvetica,sans-Serif" font-size="10.00">_IMU.configDecRate</text>
</a>
</g>
</g>
<!-- Node1&#45;&gt;Node8 -->
<g id="edge7_Node000001_Node000008" class="edge">
<title>Node1&#45;&gt;Node8</title>
<g id="a_edge7_Node000001_Node000008"><a xlink:title=" ">
<path fill="none" stroke="#63b8ff" d="M233.2,-161.88C214.76,-140.08 185.13,-108.65 153.25,-89.25 147.46,-85.73 141.12,-82.64 134.64,-79.94"/>
<polygon fill="#63b8ff" stroke="#63b8ff" points="230.35,-163.93 239.42,-169.41 235.75,-159.47 230.35,-163.93"/>
</a>
</g>
</g>
<!-- Node9 -->
<g id="Node000009" class="node">
<title>Node9</title>
<g id="a_Node000009"><a xlink:href="classedu_1_1wpi_1_1first_1_1wpilibj_1_1_a_d_i_s16470___i_m_u.html#a4e53e04edf2d92637f88522cd7ef12cb" target="_top" xlink:title=" ">
<polygon fill="white" stroke="#666666" points="152.88,-30.5 0.38,-30.5 0.38,0 152.88,0 152.88,-30.5"/>
<text text-anchor="start" x="8.38" y="-17" font-family="Helvetica,sans-Serif" font-size="10.00">edu.wpi.first.wpilibj.ADIS16470</text>
<text text-anchor="middle" x="76.62" y="-5.75" font-family="Helvetica,sans-Serif" font-size="10.00">_IMU.configDecRate</text>
</a>
</g>
</g>
<!-- Node1&#45;&gt;Node9 -->
<g id="edge8_Node000001_Node000009" class="edge">
<title>Node1&#45;&gt;Node9</title>
<g id="a_edge8_Node000001_Node000009"><a xlink:title=" ">
<path fill="none" stroke="#63b8ff" d="M241.42,-160.46C226.16,-127.89 195.67,-72.27 153.25,-40.25 148.5,-36.67 143.22,-33.58 137.71,-30.93"/>
<polygon fill="#63b8ff" stroke="#63b8ff" points="238.05,-161.52 245.38,-169.17 244.43,-158.62 238.05,-161.52"/>
</a>
</g>
</g>
</g>
</svg>
</svg>

<style type='text/css'>
<![CDATA[
[data-mouse-over-selected='false'] { opacity: 0.7; }
[data-mouse-over-selected='true']  { opacity: 1.0; }
]]>
</style>
<script type="application/ecmascript"><![CDATA[
document.addEventListener('DOMContentLoaded', (event) => {
  highlightEdges();
  highlightAdjacentNodes();
});
]]></script>
</svg>
