<?xml version="1.0" encoding="UTF-8" standalone="no"?>
<!DOCTYPE svg PUBLIC "-//W3C//DTD SVG 1.1//EN"
 "http://www.w3.org/Graphics/SVG/1.1/DTD/svg11.dtd">
<!-- Generated by graphviz version 9.0.0 (20230911.1827)
 -->
<!-- Title: edu.wpi.first.wpilibj.Ultrasonic.setAutomaticMode Pages: 1 -->
<svg width="380pt" height="64pt"
 viewBox="0.00 0.00 379.75 64.25" xmlns="http://www.w3.org/2000/svg" xmlns:xlink="http://www.w3.org/1999/xlink">
<g id="graph0" class="graph" transform="scale(1 1) rotate(0) translate(4 60.25)">
<title>edu.wpi.first.wpilibj.Ultrasonic.setAutomaticMode</title>
<!-- Node1 -->
<g id="Node000001" class="node">
<title>Node1</title>
<g id="a_Node000001"><a xlink:title=" ">
<polygon fill="#999999" stroke="#666666" points="371.75,-42.88 208.75,-42.88 208.75,-12.37 371.75,-12.37 371.75,-42.88"/>
<text text-anchor="start" x="216.75" y="-29.38" font-family="Helvetica,sans-Serif" font-size="10.00">edu.wpi.first.wpilibj.Ultrasonic.set</text>
<text text-anchor="middle" x="290.25" y="-18.12" font-family="Helvetica,sans-Serif" font-size="10.00">AutomaticMode</text>
</a>
</g>
</g>
<!-- Node2 -->
<g id="Node000002" class="node">
<title>Node2</title>
<g id="a_Node000002"><a xlink:href="classedu_1_1wpi_1_1first_1_1wpilibj_1_1_ultrasonic.html#ae4e5817a8b567b56db526053134339b9" target="_top" xlink:title=" ">
<polygon fill="white" stroke="#666666" points="172.75,-56.25 0,-56.25 0,-37 172.75,-37 172.75,-56.25"/>
<text text-anchor="middle" x="86.38" y="-42.75" font-family="Helvetica,sans-Serif" font-size="10.00">edu.wpi.first.wpilibj.Ultrasonic.close</text>
</a>
</g>
</g>
<!-- Node1&#45;&gt;Node2 -->
<g id="edge1_Node000001_Node000002" class="edge">
<title>Node1&#45;&gt;Node2</title>
<g id="a_edge1_Node000001_Node000002"><a xlink:title=" ">
<path fill="none" stroke="#63b8ff" d="M197.04,-36.3C189.02,-37.06 180.93,-37.82 172.97,-38.57"/>
<polygon fill="#63b8ff" stroke="#63b8ff" points="197.17,-39.81 206.8,-35.39 196.51,-32.84 197.17,-39.81"/>
</a>
</g>
</g>
<!-- Node3 -->
<g id="Node000003" class="node">
<title>Node3</title>
<g id="a_Node000003"><a xlink:href="classedu_1_1wpi_1_1first_1_1wpilibj_1_1_ultrasonic.html#ae2574d160f01e3319c677693237c5dbd" target="_top" xlink:title=" ">
<polygon fill="white" stroke="#666666" points="170.12,-19.25 2.62,-19.25 2.62,0 170.12,0 170.12,-19.25"/>
<text text-anchor="middle" x="86.38" y="-5.75" font-family="Helvetica,sans-Serif" font-size="10.00">edu.wpi.first.wpilibj.Ultrasonic.ping</text>
</a>
</g>
</g>
<!-- Node1&#45;&gt;Node3 -->
<g id="edge2_Node000001_Node000003" class="edge">
<title>Node1&#45;&gt;Node3</title>
<g id="a_edge2_Node000001_Node000003"><a xlink:title=" ">
<path fill="none" stroke="#63b8ff" d="M197.07,-19.41C188.15,-18.61 179.14,-17.81 170.32,-17.02"/>
<polygon fill="#63b8ff" stroke="#63b8ff" points="196.52,-22.87 206.8,-20.27 197.15,-15.9 196.52,-22.87"/>
</a>
</g>
</g>
</g>
</svg>
