<?xml version="1.0" encoding="UTF-8" standalone="no"?>
<!DOCTYPE svg PUBLIC "-//W3C//DTD SVG 1.1//EN"
 "http://www.w3.org/Graphics/SVG/1.1/DTD/svg11.dtd">
<!-- Generated by graphviz version 9.0.0 (20230911.1827)
 -->
<!-- Title: edu.wpi.first.wpilibj.AddressableLEDBuffer.forEach Pages: 1 -->
<svg width="384pt" height="235pt"
 viewBox="0.00 0.00 384.25 234.50" xmlns="http://www.w3.org/2000/svg" xmlns:xlink="http://www.w3.org/1999/xlink">

<svg id="main" version="1.1" xmlns="http://www.w3.org/2000/svg" xmlns:xlink="http://www.w3.org/1999/xlink" xml:space="preserve" onload="init(evt)">
<style type="text/css"><![CDATA[
.node, .edge {opacity: 0.7;}
.node.selected, .edge.selected {opacity: 1;}
.edge:hover path { stroke: red; }
.edge:hover polygon { stroke: red; fill: red; }
]]></style>
<script type="application/ecmascript" xlink:href="svg.min.js"/>
<svg id="graph" class="graph">
<g id="graph0" class="graph" transform="scale(1 1) rotate(0) translate(4 230.5)">
<title>edu.wpi.first.wpilibj.AddressableLEDBuffer.forEach</title>
<!-- Node1 -->
<g id="Node000001" class="node">
<title>Node1</title>
<g id="a_Node000001"><a xlink:title=" ">
<polygon fill="#999999" stroke="#666666" points="156.25,-128.5 0,-128.5 0,-98 156.25,-98 156.25,-128.5"/>
<text text-anchor="start" x="8" y="-115" font-family="Helvetica,sans-Serif" font-size="10.00">edu.wpi.first.wpilibj.Addressable</text>
<text text-anchor="middle" x="78.12" y="-103.75" font-family="Helvetica,sans-Serif" font-size="10.00">LEDBuffer.forEach</text>
</a>
</g>
</g>
<!-- Node2 -->
<g id="Node000002" class="node">
<title>Node2</title>
<g id="a_Node000002"><a xlink:href="interfaceedu_1_1wpi_1_1first_1_1wpilibj_1_1_addressable_l_e_d_buffer_1_1_indexed_color_iterator.html#a840d6f5cdd32ed4ed688cea6931e2bff" target="_top" xlink:title=" ">
<polygon fill="white" stroke="#666666" points="376.25,-226.5 192.25,-226.5 192.25,-196 376.25,-196 376.25,-226.5"/>
<text text-anchor="start" x="200.25" y="-213" font-family="Helvetica,sans-Serif" font-size="10.00">edu.wpi.first.wpilibj.Addressable</text>
<text text-anchor="middle" x="284.25" y="-201.75" font-family="Helvetica,sans-Serif" font-size="10.00">LEDBuffer.IndexedColorIterator.accept</text>
</a>
</g>
</g>
<!-- Node1&#45;&gt;Node2 -->
<g id="edge1_Node000001_Node000002" class="edge">
<title>Node1&#45;&gt;Node2</title>
<g id="a_edge1_Node000001_Node000002"><a xlink:title=" ">
<path fill="none" stroke="#63b8ff" d="M99.3,-128.99C121.12,-145.35 157.47,-170.69 192.25,-186.25 196.75,-188.26 201.44,-190.14 206.23,-191.9"/>
<polygon fill="#63b8ff" stroke="#63b8ff" points="204.78,-195.11 215.37,-195.06 207.06,-188.49 204.78,-195.11"/>
</a>
</g>
</g>
<!-- Node3 -->
<g id="Node000003" class="node">
<title>Node3</title>
<g id="a_Node000003"><a xlink:href="classedu_1_1wpi_1_1first_1_1wpilibj_1_1_addressable_l_e_d_buffer.html#af76f17b8d6324bac9fbbe7a7b2622231" target="_top" xlink:title=" ">
<polygon fill="white" stroke="#666666" points="362.38,-177.5 206.12,-177.5 206.12,-147 362.38,-147 362.38,-177.5"/>
<text text-anchor="start" x="214.12" y="-164" font-family="Helvetica,sans-Serif" font-size="10.00">edu.wpi.first.wpilibj.Addressable</text>
<text text-anchor="middle" x="284.25" y="-152.75" font-family="Helvetica,sans-Serif" font-size="10.00">LEDBuffer.getBlue</text>
</a>
</g>
</g>
<!-- Node1&#45;&gt;Node3 -->
<g id="edge2_Node000001_Node000003" class="edge">
<title>Node1&#45;&gt;Node3</title>
<g id="a_edge2_Node000001_Node000003"><a xlink:title=" ">
<path fill="none" stroke="#63b8ff" d="M144.55,-128.96C164.33,-133.7 186.22,-138.96 206.66,-143.86"/>
<polygon fill="#63b8ff" stroke="#63b8ff" points="205.83,-147.26 216.37,-146.2 207.46,-140.46 205.83,-147.26"/>
</a>
</g>
</g>
<!-- Node4 -->
<g id="Node000004" class="node">
<title>Node4</title>
<g id="a_Node000004"><a xlink:href="classedu_1_1wpi_1_1first_1_1wpilibj_1_1_addressable_l_e_d_buffer.html#a18e614b0e237fa2161ef3c8c81d5c6ba" target="_top" xlink:title=" ">
<polygon fill="white" stroke="#666666" points="362.38,-128.5 206.12,-128.5 206.12,-98 362.38,-98 362.38,-128.5"/>
<text text-anchor="start" x="214.12" y="-115" font-family="Helvetica,sans-Serif" font-size="10.00">edu.wpi.first.wpilibj.Addressable</text>
<text text-anchor="middle" x="284.25" y="-103.75" font-family="Helvetica,sans-Serif" font-size="10.00">LEDBuffer.getGreen</text>
</a>
</g>
</g>
<!-- Node1&#45;&gt;Node4 -->
<g id="edge3_Node000001_Node000004" class="edge">
<title>Node1&#45;&gt;Node4</title>
<g id="a_edge3_Node000001_Node000004"><a xlink:title=" ">
<path fill="none" stroke="#63b8ff" d="M156.59,-113.25C168.94,-113.25 181.79,-113.25 194.38,-113.25"/>
<polygon fill="#63b8ff" stroke="#63b8ff" points="194.33,-116.75 204.33,-113.25 194.33,-109.75 194.33,-116.75"/>
</a>
</g>
</g>
<!-- Node5 -->
<g id="Node000005" class="node">
<title>Node5</title>
<g id="a_Node000005"><a xlink:href="classedu_1_1wpi_1_1first_1_1wpilibj_1_1_addressable_l_e_d_buffer.html#abc2c2552c62701631bbed4e74c33d62f" target="_top" xlink:title=" ">
<polygon fill="white" stroke="#666666" points="362.38,-79.5 206.12,-79.5 206.12,-49 362.38,-49 362.38,-79.5"/>
<text text-anchor="start" x="214.12" y="-66" font-family="Helvetica,sans-Serif" font-size="10.00">edu.wpi.first.wpilibj.Addressable</text>
<text text-anchor="middle" x="284.25" y="-54.75" font-family="Helvetica,sans-Serif" font-size="10.00">LEDBuffer.getLength</text>
</a>
</g>
</g>
<!-- Node1&#45;&gt;Node5 -->
<g id="edge4_Node000001_Node000005" class="edge">
<title>Node1&#45;&gt;Node5</title>
<g id="a_edge4_Node000001_Node000005"><a xlink:title=" ">
<path fill="none" stroke="#63b8ff" d="M144.55,-97.54C164.33,-92.8 186.22,-87.54 206.66,-82.64"/>
<polygon fill="#63b8ff" stroke="#63b8ff" points="207.46,-86.04 216.37,-80.3 205.83,-79.24 207.46,-86.04"/>
</a>
</g>
</g>
<!-- Node6 -->
<g id="Node000006" class="node">
<title>Node6</title>
<g id="a_Node000006"><a xlink:href="classedu_1_1wpi_1_1first_1_1wpilibj_1_1_addressable_l_e_d_buffer.html#acad1f3a30c89c16aa452f3f402f3452c" target="_top" xlink:title=" ">
<polygon fill="white" stroke="#666666" points="362.38,-30.5 206.12,-30.5 206.12,0 362.38,0 362.38,-30.5"/>
<text text-anchor="start" x="214.12" y="-17" font-family="Helvetica,sans-Serif" font-size="10.00">edu.wpi.first.wpilibj.Addressable</text>
<text text-anchor="middle" x="284.25" y="-5.75" font-family="Helvetica,sans-Serif" font-size="10.00">LEDBuffer.getRed</text>
</a>
</g>
</g>
<!-- Node1&#45;&gt;Node6 -->
<g id="edge5_Node000001_Node000006" class="edge">
<title>Node1&#45;&gt;Node6</title>
<g id="a_edge5_Node000001_Node000006"><a xlink:title=" ">
<path fill="none" stroke="#63b8ff" d="M99.3,-97.51C121.12,-81.15 157.47,-55.81 192.25,-40.25 196.75,-38.24 201.44,-36.36 206.23,-34.6"/>
<polygon fill="#63b8ff" stroke="#63b8ff" points="207.06,-38.01 215.37,-31.44 204.78,-31.39 207.06,-38.01"/>
</a>
</g>
</g>
</g>
</svg>
</svg>

<style type='text/css'>
<![CDATA[
[data-mouse-over-selected='false'] { opacity: 0.7; }
[data-mouse-over-selected='true']  { opacity: 1.0; }
]]>
</style>
<script type="application/ecmascript"><![CDATA[
document.addEventListener('DOMContentLoaded', (event) => {
  highlightEdges();
  highlightAdjacentNodes();
});
]]></script>
</svg>
