<?xml version="1.0" encoding="UTF-8" standalone="no"?>
<!DOCTYPE svg PUBLIC "-//W3C//DTD SVG 1.1//EN"
 "http://www.w3.org/Graphics/SVG/1.1/DTD/svg11.dtd">
<!-- Generated by graphviz version 9.0.0 (20230911.1827)
 -->
<!-- Title: edu.wpi.first.wpilibj.Solenoid.Solenoid Pages: 1 -->
<svg width="351pt" height="186pt"
 viewBox="0.00 0.00 351.25 185.50" xmlns="http://www.w3.org/2000/svg" xmlns:xlink="http://www.w3.org/1999/xlink">
<g id="graph0" class="graph" transform="scale(1 1) rotate(0) translate(4 181.5)">
<title>edu.wpi.first.wpilibj.Solenoid.Solenoid</title>
<!-- Node1 -->
<g id="Node000001" class="node">
<title>Node1</title>
<g id="a_Node000001"><a xlink:title=" ">
<polygon fill="#999999" stroke="#666666" points="142.75,-103.5 0,-103.5 0,-73 142.75,-73 142.75,-103.5"/>
<text text-anchor="start" x="8" y="-90" font-family="Helvetica,sans-Serif" font-size="10.00">edu.wpi.first.wpilibj.Solenoid.</text>
<text text-anchor="middle" x="71.38" y="-78.75" font-family="Helvetica,sans-Serif" font-size="10.00">Solenoid</text>
</a>
</g>
</g>
<!-- Node2 -->
<g id="Node000002" class="node">
<title>Node2</title>
<g id="a_Node000002"><a xlink:href="interfaceedu_1_1wpi_1_1first_1_1wpilibj_1_1_pneumatics_base.html#acf1a777fa361405063c18076b8406add" target="_top" xlink:title=" ">
<polygon fill="white" stroke="#666666" points="343.25,-177.5 178.75,-177.5 178.75,-147 343.25,-147 343.25,-177.5"/>
<text text-anchor="start" x="186.75" y="-164" font-family="Helvetica,sans-Serif" font-size="10.00">edu.wpi.first.wpilibj.Pneumatics</text>
<text text-anchor="middle" x="261" y="-152.75" font-family="Helvetica,sans-Serif" font-size="10.00">Base.checkAndReserveSolenoids</text>
</a>
</g>
</g>
<!-- Node1&#45;&gt;Node2 -->
<g id="edge1_Node000001_Node000002" class="edge">
<title>Node1&#45;&gt;Node2</title>
<g id="a_edge1_Node000001_Node000002"><a xlink:title=" ">
<path fill="none" stroke="#63b8ff" d="M103.56,-103.95C124.51,-114.17 152.92,-127.38 178.75,-137.25 183.96,-139.24 189.4,-141.19 194.89,-143.06"/>
<polygon fill="#63b8ff" stroke="#63b8ff" points="193.43,-146.27 204.03,-146.09 195.64,-139.62 193.43,-146.27"/>
</a>
</g>
</g>
<!-- Node3 -->
<g id="Node000003" class="node">
<title>Node3</title>
<g id="a_Node000003"><a xlink:href="interfaceedu_1_1wpi_1_1first_1_1wpilibj_1_1_pneumatics_base.html#a41018acbc303cf4186898d1999396d70" target="_top" xlink:title=" ">
<polygon fill="white" stroke="#666666" points="338,-128.5 184,-128.5 184,-98 338,-98 338,-128.5"/>
<text text-anchor="start" x="192" y="-115" font-family="Helvetica,sans-Serif" font-size="10.00">edu.wpi.first.wpilibj.Pneumatics</text>
<text text-anchor="middle" x="261" y="-103.75" font-family="Helvetica,sans-Serif" font-size="10.00">Base.checkSolenoidChannel</text>
</a>
</g>
</g>
<!-- Node1&#45;&gt;Node3 -->
<g id="edge2_Node000001_Node000003" class="edge">
<title>Node1&#45;&gt;Node3</title>
<g id="a_edge2_Node000001_Node000003"><a xlink:title=" ">
<path fill="none" stroke="#63b8ff" d="M143.04,-97.67C152.7,-98.95 162.71,-100.29 172.63,-101.61"/>
<polygon fill="#63b8ff" stroke="#63b8ff" points="171.88,-105.04 182.25,-102.89 172.8,-98.1 171.88,-105.04"/>
</a>
</g>
</g>
<!-- Node4 -->
<g id="Node000004" class="node">
<title>Node4</title>
<g id="a_Node000004"><a xlink:href="interfaceedu_1_1wpi_1_1first_1_1wpilibj_1_1_pneumatics_base.html#a618970029e859a9057aa0133ba7815f9" target="_top" xlink:title=" ">
<polygon fill="white" stroke="#666666" points="338,-79.5 184,-79.5 184,-49 338,-49 338,-79.5"/>
<text text-anchor="start" x="192" y="-66" font-family="Helvetica,sans-Serif" font-size="10.00">edu.wpi.first.wpilibj.Pneumatics</text>
<text text-anchor="middle" x="261" y="-54.75" font-family="Helvetica,sans-Serif" font-size="10.00">Base.getForType</text>
</a>
</g>
</g>
<!-- Node1&#45;&gt;Node4 -->
<g id="edge3_Node000001_Node000004" class="edge">
<title>Node1&#45;&gt;Node4</title>
<g id="a_edge3_Node000001_Node000004"><a xlink:title=" ">
<path fill="none" stroke="#63b8ff" d="M143.04,-79.21C152.7,-77.98 162.71,-76.69 172.63,-75.43"/>
<polygon fill="#63b8ff" stroke="#63b8ff" points="172.78,-78.94 182.25,-74.2 171.89,-71.99 172.78,-78.94"/>
</a>
</g>
</g>
<!-- Node5 -->
<g id="Node000005" class="node">
<title>Node5</title>
<g id="a_Node000005"><a xlink:href="interfaceedu_1_1wpi_1_1first_1_1wpilibj_1_1_pneumatics_base.html#ac43f66c196d81c321956d20dab1ac195" target="_top" xlink:title=" ">
<polygon fill="white" stroke="#666666" points="338,-30.5 184,-30.5 184,0 338,0 338,-30.5"/>
<text text-anchor="start" x="192" y="-17" font-family="Helvetica,sans-Serif" font-size="10.00">edu.wpi.first.wpilibj.Pneumatics</text>
<text text-anchor="middle" x="261" y="-5.75" font-family="Helvetica,sans-Serif" font-size="10.00">Base.getModuleNumber</text>
</a>
</g>
</g>
<!-- Node1&#45;&gt;Node5 -->
<g id="edge4_Node000001_Node000005" class="edge">
<title>Node1&#45;&gt;Node5</title>
<g id="a_edge4_Node000001_Node000005"><a xlink:title=" ">
<path fill="none" stroke="#63b8ff" d="M104.05,-72.7C124.98,-62.74 153.16,-49.92 178.75,-40.25 183.97,-38.28 189.41,-36.35 194.91,-34.48"/>
<polygon fill="#63b8ff" stroke="#63b8ff" points="195.65,-37.92 204.05,-31.46 193.46,-31.28 195.65,-37.92"/>
</a>
</g>
</g>
</g>
</svg>
