<?xml version="1.0" encoding="UTF-8" standalone="no"?>
<!DOCTYPE svg PUBLIC "-//W3C//DTD SVG 1.1//EN"
 "http://www.w3.org/Graphics/SVG/1.1/DTD/svg11.dtd">
<!-- Generated by graphviz version 9.0.0 (20230911.1827)
 -->
<!-- Title: edu.wpi.first.wpilibj.Filesystem.getOperatingDirectory Pages: 1 -->
<svg width="528pt" height="39pt"
 viewBox="0.00 0.00 527.75 38.50" xmlns="http://www.w3.org/2000/svg" xmlns:xlink="http://www.w3.org/1999/xlink">
<g id="graph0" class="graph" transform="scale(1 1) rotate(0) translate(4 34.5)">
<title>edu.wpi.first.wpilibj.Filesystem.getOperatingDirectory</title>
<!-- Node1 -->
<g id="Node000001" class="node">
<title>Node1</title>
<g id="a_Node000001"><a xlink:title=" ">
<polygon fill="#999999" stroke="#666666" points="519.75,-30.5 353,-30.5 353,0 519.75,0 519.75,-30.5"/>
<text text-anchor="start" x="361" y="-17" font-family="Helvetica,sans-Serif" font-size="10.00">edu.wpi.first.wpilibj.Filesystem.get</text>
<text text-anchor="middle" x="436.38" y="-5.75" font-family="Helvetica,sans-Serif" font-size="10.00">OperatingDirectory</text>
</a>
</g>
</g>
<!-- Node2 -->
<g id="Node000002" class="node">
<title>Node2</title>
<g id="a_Node000002"><a xlink:href="classedu_1_1wpi_1_1first_1_1wpilibj_1_1_filesystem.html#adef8c0b7018ff5ad8af3c4e9009db1e7" target="_top" xlink:title=" ">
<polygon fill="white" stroke="#666666" points="317,-30.5 150.25,-30.5 150.25,0 317,0 317,-30.5"/>
<text text-anchor="start" x="158.25" y="-17" font-family="Helvetica,sans-Serif" font-size="10.00">edu.wpi.first.wpilibj.Filesystem.get</text>
<text text-anchor="middle" x="233.62" y="-5.75" font-family="Helvetica,sans-Serif" font-size="10.00">DeployDirectory</text>
</a>
</g>
</g>
<!-- Node1&#45;&gt;Node2 -->
<g id="edge1_Node000001_Node000002" class="edge">
<title>Node1&#45;&gt;Node2</title>
<g id="a_edge1_Node000001_Node000002"><a xlink:title=" ">
<path fill="none" stroke="#63b8ff" d="M341.28,-15.25C333.25,-15.25 325.17,-15.25 317.25,-15.25"/>
<polygon fill="#63b8ff" stroke="#63b8ff" points="341.05,-18.75 351.05,-15.25 341.05,-11.75 341.05,-18.75"/>
</a>
</g>
</g>
<!-- Node3 -->
<g id="Node000003" class="node">
<title>Node3</title>
<g id="a_Node000003"><a xlink:href="classfrc_1_1robot_1_1_robot.html#acdebc9c7e7e31ffccb3c2496b8d33944" target="_top" xlink:title=" ">
<polygon fill="white" stroke="#666666" points="114.25,-24.88 0,-24.88 0,-5.63 114.25,-5.63 114.25,-24.88"/>
<text text-anchor="middle" x="57.13" y="-11.38" font-family="Helvetica,sans-Serif" font-size="10.00">frc.robot.Robot.testInit</text>
</a>
</g>
</g>
<!-- Node2&#45;&gt;Node3 -->
<g id="edge2_Node000002_Node000003" class="edge">
<title>Node2&#45;&gt;Node3</title>
<g id="a_edge2_Node000002_Node000003"><a xlink:title=" ">
<path fill="none" stroke="#63b8ff" d="M138.74,-15.25C130.51,-15.25 122.36,-15.25 114.59,-15.25"/>
<polygon fill="#63b8ff" stroke="#63b8ff" points="138.46,-18.75 148.46,-15.25 138.46,-11.75 138.46,-18.75"/>
</a>
</g>
</g>
</g>
</svg>
