<?xml version="1.0" encoding="UTF-8" standalone="no"?>
<!DOCTYPE svg PUBLIC "-//W3C//DTD SVG 1.1//EN"
 "http://www.w3.org/Graphics/SVG/1.1/DTD/svg11.dtd">
<!-- Generated by graphviz version 9.0.0 (20230911.1827)
 -->
<!-- Title: edu.wpi.first.wpilibj.DriverStation.isDisabled Pages: 1 -->
<svg width="464pt" height="88pt"
 viewBox="0.00 0.00 464.00 87.50" xmlns="http://www.w3.org/2000/svg" xmlns:xlink="http://www.w3.org/1999/xlink">
<g id="graph0" class="graph" transform="scale(1 1) rotate(0) translate(4 83.5)">
<title>edu.wpi.first.wpilibj.DriverStation.isDisabled</title>
<!-- Node1 -->
<g id="Node000001" class="node">
<title>Node1</title>
<g id="a_Node000001"><a xlink:title=" ">
<polygon fill="#999999" stroke="#666666" points="456,-54.5 327.5,-54.5 327.5,-24 456,-24 456,-54.5"/>
<text text-anchor="start" x="335.5" y="-41" font-family="Helvetica,sans-Serif" font-size="10.00">edu.wpi.first.wpilibj.Driver</text>
<text text-anchor="middle" x="391.75" y="-29.75" font-family="Helvetica,sans-Serif" font-size="10.00">Station.isDisabled</text>
</a>
</g>
</g>
<!-- Node2 -->
<g id="Node000002" class="node">
<title>Node2</title>
<g id="a_Node000002"><a xlink:href="classedu_1_1wpi_1_1first_1_1wpilibj_1_1_robot_base.html#a0c11a30cb4d6d0a1c7ab4a369ac3da0f" target="_top" xlink:title=" ">
<polygon fill="white" stroke="#666666" points="291.5,-79.5 163,-79.5 163,-49 291.5,-49 291.5,-79.5"/>
<text text-anchor="start" x="171" y="-66" font-family="Helvetica,sans-Serif" font-size="10.00">edu.wpi.first.wpilibj.Robot</text>
<text text-anchor="middle" x="227.25" y="-54.75" font-family="Helvetica,sans-Serif" font-size="10.00">Base.isDisabled</text>
</a>
</g>
</g>
<!-- Node1&#45;&gt;Node2 -->
<g id="edge1_Node000001_Node000002" class="edge">
<title>Node1&#45;&gt;Node2</title>
<g id="a_edge1_Node000001_Node000002"><a xlink:title=" ">
<path fill="none" stroke="#63b8ff" d="M316.11,-50.73C308.02,-51.98 299.85,-53.24 291.9,-54.46"/>
<polygon fill="#63b8ff" stroke="#63b8ff" points="316.61,-54.2 325.96,-49.22 315.55,-47.28 316.61,-54.2"/>
</a>
</g>
</g>
<!-- Node3 -->
<g id="Node000003" class="node">
<title>Node3</title>
<g id="a_Node000003"><a xlink:href="classedu_1_1wpi_1_1first_1_1wpilibj_1_1_robot_state.html#a5cc47c279569fd01642aa152963f6223" target="_top" xlink:title=" ">
<polygon fill="white" stroke="#666666" points="291.5,-30.5 163,-30.5 163,0 291.5,0 291.5,-30.5"/>
<text text-anchor="start" x="171" y="-17" font-family="Helvetica,sans-Serif" font-size="10.00">edu.wpi.first.wpilibj.Robot</text>
<text text-anchor="middle" x="227.25" y="-5.75" font-family="Helvetica,sans-Serif" font-size="10.00">State.isDisabled</text>
</a>
</g>
</g>
<!-- Node1&#45;&gt;Node3 -->
<g id="edge2_Node000001_Node000003" class="edge">
<title>Node1&#45;&gt;Node3</title>
<g id="a_edge2_Node000001_Node000003"><a xlink:title=" ">
<path fill="none" stroke="#63b8ff" d="M316.11,-28.23C308.02,-27.03 299.85,-25.82 291.9,-24.65"/>
<polygon fill="#63b8ff" stroke="#63b8ff" points="315.56,-31.68 325.96,-29.68 316.58,-24.76 315.56,-31.68"/>
</a>
</g>
</g>
<!-- Node4 -->
<g id="Node000004" class="node">
<title>Node4</title>
<g id="a_Node000004"><a xlink:href="classedu_1_1wpi_1_1first_1_1wpilibj_1_1_motor_safety.html#a378effe2109461036a883da6e4a86675" target="_top" xlink:title=" ">
<polygon fill="white" stroke="#666666" points="127,-30.5 0,-30.5 0,0 127,0 127,-30.5"/>
<text text-anchor="start" x="8" y="-17" font-family="Helvetica,sans-Serif" font-size="10.00">edu.wpi.first.wpilibj.Motor</text>
<text text-anchor="middle" x="63.5" y="-5.75" font-family="Helvetica,sans-Serif" font-size="10.00">Safety.check</text>
</a>
</g>
</g>
<!-- Node3&#45;&gt;Node4 -->
<g id="edge3_Node000003_Node000004" class="edge">
<title>Node3&#45;&gt;Node4</title>
<g id="a_edge3_Node000003_Node000004"><a xlink:title=" ">
<path fill="none" stroke="#63b8ff" d="M151.44,-15.25C143.35,-15.25 135.18,-15.25 127.25,-15.25"/>
<polygon fill="#63b8ff" stroke="#63b8ff" points="151.27,-18.75 161.27,-15.25 151.27,-11.75 151.27,-18.75"/>
</a>
</g>
</g>
</g>
</svg>
