<?xml version="1.0" encoding="UTF-8" standalone="no"?>
<!DOCTYPE svg PUBLIC "-//W3C//DTD SVG 1.1//EN"
 "http://www.w3.org/Graphics/SVG/1.1/DTD/svg11.dtd">
<!-- Generated by graphviz version 9.0.0 (20230911.1827)
 -->
<!-- Title: edu.wpi.first.wpilibj.Joystick.getDirectionDegrees Pages: 1 -->
<svg width="897pt" height="125pt"
 viewBox="0.00 0.00 897.25 124.88" xmlns="http://www.w3.org/2000/svg" xmlns:xlink="http://www.w3.org/1999/xlink">
<g id="graph0" class="graph" transform="scale(1 1) rotate(0) translate(4 120.88)">
<title>edu.wpi.first.wpilibj.Joystick.getDirectionDegrees</title>
<!-- Node1 -->
<g id="Node000001" class="node">
<title>Node1</title>
<g id="a_Node000001"><a xlink:title=" ">
<polygon fill="#999999" stroke="#666666" points="155.5,-30.5 0,-30.5 0,0 155.5,0 155.5,-30.5"/>
<text text-anchor="start" x="8" y="-17" font-family="Helvetica,sans-Serif" font-size="10.00">edu.wpi.first.wpilibj.Joystick.get</text>
<text text-anchor="middle" x="77.75" y="-5.75" font-family="Helvetica,sans-Serif" font-size="10.00">DirectionDegrees</text>
</a>
</g>
</g>
<!-- Node2 -->
<g id="Node000002" class="node">
<title>Node2</title>
<g id="a_Node000002"><a xlink:href="classedu_1_1wpi_1_1first_1_1wpilibj_1_1_joystick.html#a24a5901175338bf04c92cd9502bf9f80" target="_top" xlink:title=" ">
<polygon fill="white" stroke="#666666" points="347,-68.5 191.5,-68.5 191.5,-38 347,-38 347,-68.5"/>
<text text-anchor="start" x="199.5" y="-55" font-family="Helvetica,sans-Serif" font-size="10.00">edu.wpi.first.wpilibj.Joystick.get</text>
<text text-anchor="middle" x="269.25" y="-43.75" font-family="Helvetica,sans-Serif" font-size="10.00">DirectionRadians</text>
</a>
</g>
</g>
<!-- Node1&#45;&gt;Node2 -->
<g id="edge1_Node000001_Node000002" class="edge">
<title>Node1&#45;&gt;Node2</title>
<g id="a_edge1_Node000001_Node000002"><a xlink:title=" ">
<path fill="none" stroke="#63b8ff" d="M155.83,-30.71C163.86,-32.32 172.06,-33.96 180.2,-35.59"/>
<polygon fill="#63b8ff" stroke="#63b8ff" points="179.26,-38.98 189.76,-37.51 180.64,-32.11 179.26,-38.98"/>
</a>
</g>
</g>
<!-- Node6 -->
<g id="Node000006" class="node">
<title>Node6</title>
<g id="a_Node000006"><a xlink:href="classedu_1_1wpi_1_1first_1_1wpilibj_1_1_generic_h_i_d.html#af0b067c76cbb79f54d7f475e88fcfed2" target="_top" xlink:title=" ">
<polygon fill="white" stroke="#666666" points="889.25,-41.5 753.25,-41.5 753.25,-11 889.25,-11 889.25,-41.5"/>
<text text-anchor="start" x="761.25" y="-28" font-family="Helvetica,sans-Serif" font-size="10.00">edu.wpi.first.wpilibj.Generic</text>
<text text-anchor="middle" x="821.25" y="-16.75" font-family="Helvetica,sans-Serif" font-size="10.00">HID.pov</text>
</a>
</g>
</g>
<!-- Node1&#45;&gt;Node6 -->
<g id="edge10_Node000001_Node000006" class="edge">
<title>Node1&#45;&gt;Node6</title>
<g id="a_edge10_Node000001_Node000006"><a xlink:title=" ">
<path fill="none" stroke="#63b8ff" d="M155.66,-16.39C297.42,-18.49 598.48,-22.96 741.56,-25.08"/>
<polygon fill="#63b8ff" stroke="#63b8ff" points="741.27,-28.58 751.32,-25.23 741.37,-21.58 741.27,-28.58"/>
</a>
</g>
</g>
<!-- Node3 -->
<g id="Node000003" class="node">
<title>Node3</title>
<g id="a_Node000003"><a xlink:href="classedu_1_1wpi_1_1first_1_1wpilibj_1_1_joystick.html#a69e35d7f6fe88519ace564bc17775c91" target="_top" xlink:title=" ">
<polygon fill="white" stroke="#666666" points="545.25,-116.88 383,-116.88 383,-97.62 545.25,-97.62 545.25,-116.88"/>
<text text-anchor="middle" x="464.12" y="-103.38" font-family="Helvetica,sans-Serif" font-size="10.00">edu.wpi.first.wpilibj.Joystick.getX</text>
</a>
</g>
</g>
<!-- Node2&#45;&gt;Node3 -->
<g id="edge2_Node000002_Node000003" class="edge">
<title>Node2&#45;&gt;Node3</title>
<g id="a_edge2_Node000002_Node000003"><a xlink:title=" ">
<path fill="none" stroke="#63b8ff" d="M316.33,-68.98C336.65,-75.65 360.89,-83.25 383,-89.25 389.77,-91.09 396.9,-92.88 404,-94.59"/>
<polygon fill="#63b8ff" stroke="#63b8ff" points="403.07,-97.96 413.6,-96.84 404.67,-91.15 403.07,-97.96"/>
</a>
</g>
</g>
<!-- Node2&#45;&gt;Node6 -->
<g id="edge9_Node000002_Node000006" class="edge">
<title>Node2&#45;&gt;Node6</title>
<g id="a_edge9_Node000002_Node000006"><a xlink:title=" ">
<path fill="none" stroke="#63b8ff" d="M347.3,-49.47C451.46,-44.35 636.19,-35.29 741.31,-30.13"/>
<polygon fill="#63b8ff" stroke="#63b8ff" points="741.46,-33.62 751.27,-29.64 741.11,-26.63 741.46,-33.62"/>
</a>
</g>
</g>
<!-- Node7 -->
<g id="Node000007" class="node">
<title>Node7</title>
<g id="a_Node000007"><a xlink:href="classedu_1_1wpi_1_1first_1_1wpilibj_1_1_joystick.html#a297510a717aaf45989f34cda37d84d07" target="_top" xlink:title=" ">
<polygon fill="white" stroke="#666666" points="545.25,-79.88 383,-79.88 383,-60.62 545.25,-60.62 545.25,-79.88"/>
<text text-anchor="middle" x="464.12" y="-66.38" font-family="Helvetica,sans-Serif" font-size="10.00">edu.wpi.first.wpilibj.Joystick.getY</text>
</a>
</g>
</g>
<!-- Node2&#45;&gt;Node7 -->
<g id="edge7_Node000002_Node000007" class="edge">
<title>Node2&#45;&gt;Node7</title>
<g id="a_edge7_Node000002_Node000007"><a xlink:title=" ">
<path fill="none" stroke="#63b8ff" d="M347.31,-60.04C355.23,-60.74 363.33,-61.45 371.38,-62.16"/>
<polygon fill="#63b8ff" stroke="#63b8ff" points="370.94,-65.64 381.21,-63.03 371.55,-58.67 370.94,-65.64"/>
</a>
</g>
</g>
<!-- Node4 -->
<g id="Node000004" class="node">
<title>Node4</title>
<g id="a_Node000004"><a xlink:href="classedu_1_1wpi_1_1first_1_1wpilibj_1_1_generic_h_i_d.html#a561e13532e9305a057a3b02cc655833c" target="_top" xlink:title=" ">
<polygon fill="white" stroke="#666666" points="717.25,-102.5 581.25,-102.5 581.25,-72 717.25,-72 717.25,-102.5"/>
<text text-anchor="start" x="589.25" y="-89" font-family="Helvetica,sans-Serif" font-size="10.00">edu.wpi.first.wpilibj.Generic</text>
<text text-anchor="middle" x="649.25" y="-77.75" font-family="Helvetica,sans-Serif" font-size="10.00">HID.getRawAxis</text>
</a>
</g>
</g>
<!-- Node3&#45;&gt;Node4 -->
<g id="edge3_Node000003_Node000004" class="edge">
<title>Node3&#45;&gt;Node4</title>
<g id="a_edge3_Node000003_Node000004"><a xlink:title=" ">
<path fill="none" stroke="#63b8ff" d="M545.71,-98.45C553.58,-97.59 561.55,-96.72 569.4,-95.86"/>
<polygon fill="#63b8ff" stroke="#63b8ff" points="569.72,-99.35 579.28,-94.78 568.96,-92.39 569.72,-99.35"/>
</a>
</g>
</g>
<!-- Node5 -->
<g id="Node000005" class="node">
<title>Node5</title>
<g id="a_Node000005"><a xlink:href="classedu_1_1wpi_1_1first_1_1wpilibj_1_1_driver_station.html#af9606114345715ee1577c2b0c66a070c" target="_top" xlink:title=" ">
<polygon fill="white" stroke="#666666" points="885.5,-108.5 757,-108.5 757,-78 885.5,-78 885.5,-108.5"/>
<text text-anchor="start" x="765" y="-95" font-family="Helvetica,sans-Serif" font-size="10.00">edu.wpi.first.wpilibj.Driver</text>
<text text-anchor="middle" x="821.25" y="-83.75" font-family="Helvetica,sans-Serif" font-size="10.00">Station.getStickAxis</text>
</a>
</g>
</g>
<!-- Node4&#45;&gt;Node5 -->
<g id="edge4_Node000004_Node000005" class="edge">
<title>Node4&#45;&gt;Node5</title>
<g id="a_edge4_Node000004_Node000005"><a xlink:title=" ">
<path fill="none" stroke="#63b8ff" d="M717.44,-89.62C726.61,-89.95 736.07,-90.28 745.37,-90.61"/>
<polygon fill="#63b8ff" stroke="#63b8ff" points="744.97,-94.1 755.08,-90.95 745.21,-87.1 744.97,-94.1"/>
</a>
</g>
</g>
<!-- Node4&#45;&gt;Node6 -->
<g id="edge5_Node000004_Node000006" class="edge">
<title>Node4&#45;&gt;Node6</title>
<g id="a_edge5_Node000004_Node000006"><a xlink:title=" ">
<path fill="none" stroke="#63b8ff" d="M694.03,-71.54C715.94,-63.68 742.67,-54.09 765.89,-45.76"/>
<polygon fill="#63b8ff" stroke="#63b8ff" points="766.96,-49.09 775.19,-42.42 764.6,-42.5 766.96,-49.09"/>
</a>
</g>
</g>
<!-- Node6&#45;&gt;Node6 -->
<g id="edge6_Node000006_Node000006" class="edge">
<title>Node6&#45;&gt;Node6</title>
<g id="a_edge6_Node000006_Node000006"><a xlink:title=" ">
<path fill="none" stroke="#63b8ff" d="M790.77,-41.99C784.55,-51.06 794.71,-59.5 821.25,-59.5 835.76,-59.5 845.38,-56.97 850.09,-53.2"/>
<polygon fill="#63b8ff" stroke="#63b8ff" points="853.53,-53.88 851.51,-43.48 846.61,-52.87 853.53,-53.88"/>
</a>
</g>
</g>
<!-- Node7&#45;&gt;Node4 -->
<g id="edge8_Node000007_Node000004" class="edge">
<title>Node7&#45;&gt;Node4</title>
<g id="a_edge8_Node000007_Node000004"><a xlink:title=" ">
<path fill="none" stroke="#63b8ff" d="M545.71,-77.73C553.58,-78.46 561.55,-79.2 569.4,-79.93"/>
<polygon fill="#63b8ff" stroke="#63b8ff" points="568.99,-83.41 579.27,-80.85 569.64,-76.44 568.99,-83.41"/>
</a>
</g>
</g>
</g>
</svg>
