<?xml version="1.0" encoding="UTF-8" standalone="no"?>
<!DOCTYPE svg PUBLIC "-//W3C//DTD SVG 1.1//EN"
 "http://www.w3.org/Graphics/SVG/1.1/DTD/svg11.dtd">
<!-- Generated by graphviz version 9.0.0 (20230911.1827)
 -->
<!-- Title: edu.wpi.first.wpilibj.XboxController.getStartButtonPressed Pages: 1 -->
<svg width="862pt" height="124pt"
 viewBox="0.00 0.00 862.00 123.50" xmlns="http://www.w3.org/2000/svg" xmlns:xlink="http://www.w3.org/1999/xlink">
<g id="graph0" class="graph" transform="scale(1 1) rotate(0) translate(4 119.5)">
<title>edu.wpi.first.wpilibj.XboxController.getStartButtonPressed</title>
<!-- Node1 -->
<g id="Node000001" class="node">
<title>Node1</title>
<g id="a_Node000001"><a xlink:title=" ">
<polygon fill="#999999" stroke="#666666" points="159.25,-72.5 0,-72.5 0,-42 159.25,-42 159.25,-72.5"/>
<text text-anchor="start" x="8" y="-59" font-family="Helvetica,sans-Serif" font-size="10.00">edu.wpi.first.wpilibj.Xbox</text>
<text text-anchor="middle" x="79.62" y="-47.75" font-family="Helvetica,sans-Serif" font-size="10.00">Controller.getStartButtonPressed</text>
</a>
</g>
</g>
<!-- Node2 -->
<g id="Node000002" class="node">
<title>Node2</title>
<g id="a_Node000002"><a xlink:href="classedu_1_1wpi_1_1first_1_1wpilibj_1_1_generic_h_i_d.html#a097c775f0ef764796523a65f8f3b688d" target="_top" xlink:title=" ">
<polygon fill="white" stroke="#666666" points="331.25,-72.5 195.25,-72.5 195.25,-42 331.25,-42 331.25,-72.5"/>
<text text-anchor="start" x="203.25" y="-59" font-family="Helvetica,sans-Serif" font-size="10.00">edu.wpi.first.wpilibj.Generic</text>
<text text-anchor="middle" x="263.25" y="-47.75" font-family="Helvetica,sans-Serif" font-size="10.00">HID.getRawButtonPressed</text>
</a>
</g>
</g>
<!-- Node1&#45;&gt;Node2 -->
<g id="edge1_Node000001_Node000002" class="edge">
<title>Node1&#45;&gt;Node2</title>
<g id="a_edge1_Node000001_Node000002"><a xlink:title=" ">
<path fill="none" stroke="#63b8ff" d="M159.5,-57.25C167.41,-57.25 175.44,-57.25 183.35,-57.25"/>
<polygon fill="#63b8ff" stroke="#63b8ff" points="183.32,-60.75 193.32,-57.25 183.32,-53.75 183.32,-60.75"/>
</a>
</g>
</g>
<!-- Node3 -->
<g id="Node000003" class="node">
<title>Node3</title>
<g id="a_Node000003"><a xlink:href="classedu_1_1wpi_1_1first_1_1wpilibj_1_1_generic_h_i_d.html#a77f3feaa9b70759aa7e26c20bec4bec2" target="_top" xlink:title=" ">
<polygon fill="white" stroke="#666666" points="510.38,-97.5 374.38,-97.5 374.38,-67 510.38,-67 510.38,-97.5"/>
<text text-anchor="start" x="382.38" y="-84" font-family="Helvetica,sans-Serif" font-size="10.00">edu.wpi.first.wpilibj.Generic</text>
<text text-anchor="middle" x="442.38" y="-72.75" font-family="Helvetica,sans-Serif" font-size="10.00">HID.button</text>
</a>
</g>
</g>
<!-- Node2&#45;&gt;Node3 -->
<g id="edge2_Node000002_Node000003" class="edge">
<title>Node2&#45;&gt;Node3</title>
<g id="a_edge2_Node000002_Node000003"><a xlink:title=" ">
<path fill="none" stroke="#63b8ff" d="M331.72,-66.77C341.91,-68.21 352.5,-69.71 362.91,-71.17"/>
<polygon fill="#63b8ff" stroke="#63b8ff" points="362.2,-74.61 372.6,-72.54 363.18,-67.68 362.2,-74.61"/>
</a>
</g>
</g>
<!-- Node7 -->
<g id="Node000007" class="node">
<title>Node7</title>
<g id="a_Node000007"><a xlink:href="classedu_1_1wpi_1_1first_1_1wpilibj_1_1_driver_station.html#acb9b90660a171dbd6a9b9717f0213f92" target="_top" xlink:title=" ">
<polygon fill="white" stroke="#666666" points="517.5,-48.5 367.25,-48.5 367.25,-18 517.5,-18 517.5,-48.5"/>
<text text-anchor="start" x="375.25" y="-35" font-family="Helvetica,sans-Serif" font-size="10.00">edu.wpi.first.wpilibj.Driver</text>
<text text-anchor="middle" x="442.38" y="-23.75" font-family="Helvetica,sans-Serif" font-size="10.00">Station.getStickButtonPressed</text>
</a>
</g>
</g>
<!-- Node2&#45;&gt;Node7 -->
<g id="edge9_Node000002_Node000007" class="edge">
<title>Node2&#45;&gt;Node7</title>
<g id="a_edge9_Node000002_Node000007"><a xlink:title=" ">
<path fill="none" stroke="#63b8ff" d="M331.72,-48.11C339.56,-47.05 347.63,-45.95 355.68,-44.86"/>
<polygon fill="#63b8ff" stroke="#63b8ff" points="356.06,-48.34 365.5,-43.53 355.12,-41.41 356.06,-48.34"/>
</a>
</g>
</g>
<!-- Node3&#45;&gt;Node3 -->
<g id="edge3_Node000003_Node000003" class="edge">
<title>Node3&#45;&gt;Node3</title>
<g id="a_edge3_Node000003_Node000003"><a xlink:title=" ">
<path fill="none" stroke="#63b8ff" d="M410.63,-97.99C404.16,-107.06 414.74,-115.5 442.38,-115.5 457.49,-115.5 467.5,-112.97 472.41,-109.2"/>
<polygon fill="#63b8ff" stroke="#63b8ff" points="475.85,-109.89 473.89,-99.48 468.93,-108.84 475.85,-109.89"/>
</a>
</g>
</g>
<!-- Node4 -->
<g id="Node000004" class="node">
<title>Node4</title>
<g id="a_Node000004"><a xlink:href="classedu_1_1wpi_1_1first_1_1wpilibj_1_1_generic_h_i_d.html#abdb0245e5cb7f7b92cc1060202821a2d" target="_top" xlink:title=" ">
<polygon fill="white" stroke="#666666" points="689.5,-97.5 553.5,-97.5 553.5,-67 689.5,-67 689.5,-97.5"/>
<text text-anchor="start" x="561.5" y="-84" font-family="Helvetica,sans-Serif" font-size="10.00">edu.wpi.first.wpilibj.Generic</text>
<text text-anchor="middle" x="621.5" y="-72.75" font-family="Helvetica,sans-Serif" font-size="10.00">HID.getRawButton</text>
</a>
</g>
</g>
<!-- Node3&#45;&gt;Node4 -->
<g id="edge4_Node000003_Node000004" class="edge">
<title>Node3&#45;&gt;Node4</title>
<g id="a_edge4_Node000003_Node000004"><a xlink:title=" ">
<path fill="none" stroke="#63b8ff" d="M510.84,-75.67C521.04,-75.5 531.63,-75.46 542.03,-75.54"/>
<polygon fill="#63b8ff" stroke="#63b8ff" points="541.66,-79.03 551.71,-75.66 541.75,-72.04 541.66,-79.03"/>
</a>
</g>
</g>
<!-- Node6 -->
<g id="Node000006" class="node">
<title>Node6</title>
<g id="a_Node000006"><a xlink:href="classedu_1_1wpi_1_1first_1_1wpilibj_1_1_generic_h_i_d.html#af0b067c76cbb79f54d7f475e88fcfed2" target="_top" xlink:title=" ">
<polygon fill="white" stroke="#666666" points="689.5,-30.5 553.5,-30.5 553.5,0 689.5,0 689.5,-30.5"/>
<text text-anchor="start" x="561.5" y="-17" font-family="Helvetica,sans-Serif" font-size="10.00">edu.wpi.first.wpilibj.Generic</text>
<text text-anchor="middle" x="621.5" y="-5.75" font-family="Helvetica,sans-Serif" font-size="10.00">HID.pov</text>
</a>
</g>
</g>
<!-- Node3&#45;&gt;Node6 -->
<g id="edge7_Node000003_Node000006" class="edge">
<title>Node3&#45;&gt;Node6</title>
<g id="a_edge7_Node000003_Node000006"><a xlink:title=" ">
<path fill="none" stroke="#63b8ff" d="M491.38,-66.54C500.1,-63.55 509.1,-60.38 517.5,-57.25 535.79,-50.45 555.68,-42.47 573.07,-35.31"/>
<polygon fill="#63b8ff" stroke="#63b8ff" points="574.23,-38.61 582.13,-31.55 571.55,-32.15 574.23,-38.61"/>
</a>
</g>
</g>
<!-- Node4&#45;&gt;Node3 -->
<g id="edge5_Node000004_Node000003" class="edge">
<title>Node4&#45;&gt;Node3</title>
<g id="a_edge5_Node000004_Node000003"><a xlink:title=" ">
<path fill="none" stroke="#63b8ff" d="M553.22,-88.82C543.03,-89 532.44,-89.04 522.03,-88.96"/>
<polygon fill="#63b8ff" stroke="#63b8ff" points="522.4,-85.47 512.36,-88.85 522.31,-92.47 522.4,-85.47"/>
</a>
</g>
</g>
<!-- Node5 -->
<g id="Node000005" class="node">
<title>Node5</title>
<g id="a_Node000005"><a xlink:href="classedu_1_1wpi_1_1first_1_1wpilibj_1_1_driver_station.html#a3d86d4b8414c05aafe18fc866d99ccab" target="_top" xlink:title=" ">
<polygon fill="white" stroke="#666666" points="854,-97.5 725.5,-97.5 725.5,-67 854,-67 854,-97.5"/>
<text text-anchor="start" x="733.5" y="-84" font-family="Helvetica,sans-Serif" font-size="10.00">edu.wpi.first.wpilibj.Driver</text>
<text text-anchor="middle" x="789.75" y="-72.75" font-family="Helvetica,sans-Serif" font-size="10.00">Station.getStickButton</text>
</a>
</g>
</g>
<!-- Node4&#45;&gt;Node5 -->
<g id="edge6_Node000004_Node000005" class="edge">
<title>Node4&#45;&gt;Node5</title>
<g id="a_edge6_Node000004_Node000005"><a xlink:title=" ">
<path fill="none" stroke="#63b8ff" d="M689.64,-82.25C697.6,-82.25 705.77,-82.25 713.83,-82.25"/>
<polygon fill="#63b8ff" stroke="#63b8ff" points="713.62,-85.75 723.62,-82.25 713.62,-78.75 713.62,-85.75"/>
</a>
</g>
</g>
<!-- Node6&#45;&gt;Node6 -->
<g id="edge8_Node000006_Node000006" class="edge">
<title>Node6&#45;&gt;Node6</title>
<g id="a_edge8_Node000006_Node000006"><a xlink:title=" ">
<path fill="none" stroke="#63b8ff" d="M591.69,-30.99C585.6,-40.06 595.54,-48.5 621.5,-48.5 635.7,-48.5 645.1,-45.97 649.72,-42.2"/>
<polygon fill="#63b8ff" stroke="#63b8ff" points="653.15,-42.88 651.1,-32.48 646.22,-41.89 653.15,-42.88"/>
</a>
</g>
</g>
</g>
</svg>
