<?xml version="1.0" encoding="UTF-8" standalone="no"?>
<!DOCTYPE svg PUBLIC "-//W3C//DTD SVG 1.1//EN"
 "http://www.w3.org/Graphics/SVG/1.1/DTD/svg11.dtd">
<!-- Generated by graphviz version 9.0.0 (20230911.1827)
 -->
<!-- Title: edu.wpi.first.wpilibj.RobotBase.RobotBase Pages: 1 -->
<svg width="779pt" height="186pt"
 viewBox="0.00 0.00 778.50 185.50" xmlns="http://www.w3.org/2000/svg" xmlns:xlink="http://www.w3.org/1999/xlink">
<g id="graph0" class="graph" transform="scale(1 1) rotate(0) translate(4 181.5)">
<title>edu.wpi.first.wpilibj.RobotBase.RobotBase</title>
<!-- Node1 -->
<g id="Node000001" class="node">
<title>Node1</title>
<g id="a_Node000001"><a xlink:title=" ">
<polygon fill="#999999" stroke="#666666" points="128.5,-79.5 0,-79.5 0,-49 128.5,-49 128.5,-79.5"/>
<text text-anchor="start" x="8" y="-66" font-family="Helvetica,sans-Serif" font-size="10.00">edu.wpi.first.wpilibj.Robot</text>
<text text-anchor="middle" x="64.25" y="-54.75" font-family="Helvetica,sans-Serif" font-size="10.00">Base.RobotBase</text>
</a>
</g>
</g>
<!-- Node2 -->
<g id="Node000002" class="node">
<title>Node2</title>
<g id="a_Node000002"><a xlink:href="classedu_1_1wpi_1_1first_1_1wpilibj_1_1shuffleboard_1_1_shuffleboard.html#a0470a43375c462b3c46186e96f6beea4" target="_top" xlink:title=" ">
<polygon fill="white" stroke="#666666" points="341.75,-128.5 164.5,-128.5 164.5,-98 341.75,-98 341.75,-128.5"/>
<text text-anchor="start" x="172.5" y="-115" font-family="Helvetica,sans-Serif" font-size="10.00">edu.wpi.first.wpilibj.shuffleboard.</text>
<text text-anchor="middle" x="253.12" y="-103.75" font-family="Helvetica,sans-Serif" font-size="10.00">Shuffleboard.disableActuatorWidgets</text>
</a>
</g>
</g>
<!-- Node1&#45;&gt;Node2 -->
<g id="edge1_Node000001_Node000002" class="edge">
<title>Node1&#45;&gt;Node2</title>
<g id="a_edge1_Node000001_Node000002"><a xlink:title=" ">
<path fill="none" stroke="#63b8ff" d="M125.15,-79.96C143,-84.64 162.74,-89.81 181.23,-94.66"/>
<polygon fill="#63b8ff" stroke="#63b8ff" points="180.22,-98.01 190.78,-97.16 181.99,-91.24 180.22,-98.01"/>
</a>
</g>
</g>
<!-- Node6 -->
<g id="Node000006" class="node">
<title>Node6</title>
<g id="a_Node000006"><a xlink:href="classedu_1_1wpi_1_1first_1_1wpilibj_1_1_robot_base.html#a0967199dad51087ce30c24599a132d70" target="_top" xlink:title=" ">
<polygon fill="white" stroke="#666666" points="317.38,-79.5 188.88,-79.5 188.88,-49 317.38,-49 317.38,-79.5"/>
<text text-anchor="start" x="196.88" y="-66" font-family="Helvetica,sans-Serif" font-size="10.00">edu.wpi.first.wpilibj.Robot</text>
<text text-anchor="middle" x="253.12" y="-54.75" font-family="Helvetica,sans-Serif" font-size="10.00">Base.isSimulation</text>
</a>
</g>
</g>
<!-- Node1&#45;&gt;Node6 -->
<g id="edge5_Node000001_Node000006" class="edge">
<title>Node1&#45;&gt;Node6</title>
<g id="a_edge5_Node000001_Node000006"><a xlink:title=" ">
<path fill="none" stroke="#63b8ff" d="M128.78,-64.25C144.27,-64.25 161,-64.25 176.98,-64.25"/>
<polygon fill="#63b8ff" stroke="#63b8ff" points="176.94,-67.75 186.94,-64.25 176.94,-60.75 176.94,-67.75"/>
</a>
</g>
</g>
<!-- Node9 -->
<g id="Node000009" class="node">
<title>Node9</title>
<g id="a_Node000009"><a xlink:href="classedu_1_1wpi_1_1first_1_1wpilibj_1_1livewindow_1_1_live_window.html#a804ed98ff17113fe5fb3189c3be68aad" target="_top" xlink:title=" ">
<polygon fill="white" stroke="#666666" points="329,-30.5 177.25,-30.5 177.25,0 329,0 329,-30.5"/>
<text text-anchor="start" x="185.25" y="-17" font-family="Helvetica,sans-Serif" font-size="10.00">edu.wpi.first.wpilibj.livewindow.</text>
<text text-anchor="middle" x="253.12" y="-5.75" font-family="Helvetica,sans-Serif" font-size="10.00">LiveWindow.setEnabled</text>
</a>
</g>
</g>
<!-- Node1&#45;&gt;Node9 -->
<g id="edge8_Node000001_Node000009" class="edge">
<title>Node1&#45;&gt;Node9</title>
<g id="a_edge8_Node000001_Node000009"><a xlink:title=" ">
<path fill="none" stroke="#63b8ff" d="M125.15,-48.54C143,-43.86 162.74,-38.69 181.23,-33.84"/>
<polygon fill="#63b8ff" stroke="#63b8ff" points="181.99,-37.26 190.78,-31.34 180.22,-30.49 181.99,-37.26"/>
</a>
</g>
</g>
<!-- Node3 -->
<g id="Node000003" class="node">
<title>Node3</title>
<g id="a_Node000003"><a xlink:href="interfaceedu_1_1wpi_1_1first_1_1wpilibj_1_1shuffleboard_1_1_shuffleboard_root.html#a42d5b987a0df476a2d35cc6ef9e7d1b2" target="_top" xlink:title=" ">
<polygon fill="white" stroke="#666666" points="576,-177.5 377.75,-177.5 377.75,-147 576,-147 576,-177.5"/>
<text text-anchor="start" x="385.75" y="-164" font-family="Helvetica,sans-Serif" font-size="10.00">edu.wpi.first.wpilibj.shuffleboard.</text>
<text text-anchor="middle" x="476.88" y="-152.75" font-family="Helvetica,sans-Serif" font-size="10.00">ShuffleboardRoot.disableActuatorWidgets</text>
</a>
</g>
</g>
<!-- Node2&#45;&gt;Node3 -->
<g id="edge2_Node000002_Node000003" class="edge">
<title>Node2&#45;&gt;Node3</title>
<g id="a_edge2_Node000002_Node000003"><a xlink:title=" ">
<path fill="none" stroke="#63b8ff" d="M325.2,-128.96C346.99,-133.77 371.13,-139.1 393.6,-144.07"/>
<polygon fill="#63b8ff" stroke="#63b8ff" points="392.82,-147.48 403.34,-146.22 394.33,-140.65 392.82,-147.48"/>
</a>
</g>
</g>
<!-- Node4 -->
<g id="Node000004" class="node">
<title>Node4</title>
<g id="a_Node000004"><a xlink:href="classedu_1_1wpi_1_1first_1_1wpilibj_1_1shuffleboard_1_1_shuffleboard.html#afa12b3d32fdc3e9930a4223ecdf7669b" target="_top" xlink:title=" ">
<polygon fill="white" stroke="#666666" points="556.12,-128.5 397.62,-128.5 397.62,-98 556.12,-98 556.12,-128.5"/>
<text text-anchor="start" x="405.62" y="-115" font-family="Helvetica,sans-Serif" font-size="10.00">edu.wpi.first.wpilibj.shuffleboard.</text>
<text text-anchor="middle" x="476.88" y="-103.75" font-family="Helvetica,sans-Serif" font-size="10.00">Shuffleboard.update</text>
</a>
</g>
</g>
<!-- Node2&#45;&gt;Node4 -->
<g id="edge3_Node000002_Node000004" class="edge">
<title>Node2&#45;&gt;Node4</title>
<g id="a_edge3_Node000002_Node000004"><a xlink:title=" ">
<path fill="none" stroke="#63b8ff" d="M342.08,-113.25C356.49,-113.25 371.44,-113.25 385.9,-113.25"/>
<polygon fill="#63b8ff" stroke="#63b8ff" points="385.85,-116.75 395.85,-113.25 385.85,-109.75 385.85,-116.75"/>
</a>
</g>
</g>
<!-- Node5 -->
<g id="Node000005" class="node">
<title>Node5</title>
<g id="a_Node000005"><a xlink:href="interfaceedu_1_1wpi_1_1first_1_1wpilibj_1_1shuffleboard_1_1_shuffleboard_root.html#aa46fe78bd790b59cb23734b0fc60a326" target="_top" xlink:title=" ">
<polygon fill="white" stroke="#666666" points="770.5,-128.5 612,-128.5 612,-98 770.5,-98 770.5,-128.5"/>
<text text-anchor="start" x="620" y="-115" font-family="Helvetica,sans-Serif" font-size="10.00">edu.wpi.first.wpilibj.shuffleboard.</text>
<text text-anchor="middle" x="691.25" y="-103.75" font-family="Helvetica,sans-Serif" font-size="10.00">ShuffleboardRoot.update</text>
</a>
</g>
</g>
<!-- Node4&#45;&gt;Node5 -->
<g id="edge4_Node000004_Node000005" class="edge">
<title>Node4&#45;&gt;Node5</title>
<g id="a_edge4_Node000004_Node000005"><a xlink:title=" ">
<path fill="none" stroke="#63b8ff" d="M556.35,-113.25C570.76,-113.25 585.9,-113.25 600.6,-113.25"/>
<polygon fill="#63b8ff" stroke="#63b8ff" points="600.23,-116.75 610.23,-113.25 600.23,-109.75 600.23,-116.75"/>
</a>
</g>
</g>
<!-- Node7 -->
<g id="Node000007" class="node">
<title>Node7</title>
<g id="a_Node000007"><a xlink:href="classedu_1_1wpi_1_1first_1_1wpilibj_1_1_robot_base.html#acb1ab38b3fc42bd9560d2112182e9906" target="_top" xlink:title=" ">
<polygon fill="white" stroke="#666666" points="541.12,-79.5 412.62,-79.5 412.62,-49 541.12,-49 541.12,-79.5"/>
<text text-anchor="start" x="420.62" y="-66" font-family="Helvetica,sans-Serif" font-size="10.00">edu.wpi.first.wpilibj.Robot</text>
<text text-anchor="middle" x="476.88" y="-54.75" font-family="Helvetica,sans-Serif" font-size="10.00">Base.getRuntimeType</text>
</a>
</g>
</g>
<!-- Node6&#45;&gt;Node7 -->
<g id="edge6_Node000006_Node000007" class="edge">
<title>Node6&#45;&gt;Node7</title>
<g id="a_edge6_Node000006_Node000007"><a xlink:title=" ">
<path fill="none" stroke="#63b8ff" d="M317.67,-64.25C343.65,-64.25 373.9,-64.25 400.95,-64.25"/>
<polygon fill="#63b8ff" stroke="#63b8ff" points="400.81,-67.75 410.81,-64.25 400.81,-60.75 400.81,-67.75"/>
</a>
</g>
</g>
<!-- Node8 -->
<g id="Node000008" class="node">
<title>Node8</title>
<g id="a_Node000008"><a xlink:href="enumedu_1_1wpi_1_1first_1_1wpilibj_1_1_runtime_type.html#a0053c02d1b47f237cd57a91da1bcaa47" target="_top" xlink:title=" ">
<polygon fill="white" stroke="#666666" points="760.75,-79.5 621.75,-79.5 621.75,-49 760.75,-49 760.75,-79.5"/>
<text text-anchor="start" x="629.75" y="-66" font-family="Helvetica,sans-Serif" font-size="10.00">edu.wpi.first.wpilibj.Runtime</text>
<text text-anchor="middle" x="691.25" y="-54.75" font-family="Helvetica,sans-Serif" font-size="10.00">Type.getValue</text>
</a>
</g>
</g>
<!-- Node7&#45;&gt;Node8 -->
<g id="edge7_Node000007_Node000008" class="edge">
<title>Node7&#45;&gt;Node8</title>
<g id="a_edge7_Node000007_Node000008"><a xlink:title=" ">
<path fill="none" stroke="#63b8ff" d="M541.59,-64.25C563.13,-64.25 587.45,-64.25 610.09,-64.25"/>
<polygon fill="#63b8ff" stroke="#63b8ff" points="609.88,-67.75 619.88,-64.25 609.88,-60.75 609.88,-67.75"/>
</a>
</g>
</g>
<!-- Node10 -->
<g id="Node000010" class="node">
<title>Node10</title>
<g id="a_Node000010"><a xlink:href="classedu_1_1wpi_1_1first_1_1wpilibj_1_1livewindow_1_1_live_window.html#acd7cb0880778b8670f9748326a10d3e6" target="_top" xlink:title=" ">
<polygon fill="white" stroke="#666666" points="552.75,-30.5 401,-30.5 401,0 552.75,0 552.75,-30.5"/>
<text text-anchor="start" x="409" y="-17" font-family="Helvetica,sans-Serif" font-size="10.00">edu.wpi.first.wpilibj.livewindow.</text>
<text text-anchor="middle" x="476.88" y="-5.75" font-family="Helvetica,sans-Serif" font-size="10.00">LiveWindow.updateValues</text>
</a>
</g>
</g>
<!-- Node9&#45;&gt;Node10 -->
<g id="edge9_Node000009_Node000010" class="edge">
<title>Node9&#45;&gt;Node10</title>
<g id="a_edge9_Node000009_Node000010"><a xlink:title=" ">
<path fill="none" stroke="#63b8ff" d="M329.2,-15.25C348.42,-15.25 369.25,-15.25 389.01,-15.25"/>
<polygon fill="#63b8ff" stroke="#63b8ff" points="388.99,-18.75 398.99,-15.25 388.99,-11.75 388.99,-18.75"/>
</a>
</g>
</g>
</g>
</svg>
