<?xml version="1.0" encoding="UTF-8" standalone="no"?>
<!DOCTYPE svg PUBLIC "-//W3C//DTD SVG 1.1//EN"
 "http://www.w3.org/Graphics/SVG/1.1/DTD/svg11.dtd">
<!-- Generated by graphviz version 9.0.0 (20230911.1827)
 -->
<!-- Title: edu.wpi.first.wpilibj.TimedRobot Pages: 1 -->
<svg width="974pt" height="125pt"
 viewBox="0.00 0.00 974.00 124.88" xmlns="http://www.w3.org/2000/svg" xmlns:xlink="http://www.w3.org/1999/xlink">
<g id="graph0" class="graph" transform="scale(1 1) rotate(0) translate(4 120.88)">
<title>edu.wpi.first.wpilibj.TimedRobot</title>
<!-- Node1 -->
<g id="Node000001" class="node">
<title>Node1</title>
<g id="a_Node000001"><a xlink:title=" ">
<polygon fill="#999999" stroke="#666666" points="605.5,-67.88 476.25,-67.88 476.25,-37.38 605.5,-37.38 605.5,-67.88"/>
<text text-anchor="start" x="484.25" y="-54.38" font-family="Helvetica,sans-Serif" font-size="10.00">edu.wpi.first.wpilibj.Timed</text>
<text text-anchor="middle" x="540.88" y="-43.12" font-family="Helvetica,sans-Serif" font-size="10.00">Robot</text>
</a>
</g>
</g>
<!-- Node5 -->
<g id="Node000005" class="node">
<title>Node5</title>
<g id="a_Node000005"><a xlink:title=" ">
<polygon fill="white" stroke="#bfbfbf" points="778.25,-116.88 649,-116.88 649,-86.38 778.25,-86.38 778.25,-116.88"/>
<text text-anchor="start" x="657" y="-103.38" font-family="Helvetica,sans-Serif" font-size="10.00">edu.wpi.first.wpilibj.Timed</text>
<text text-anchor="middle" x="713.62" y="-92.12" font-family="Helvetica,sans-Serif" font-size="10.00">RobotTest.MockRobot</text>
</a>
</g>
</g>
<!-- Node1&#45;&gt;Node5 -->
<g id="edge4_Node000001_Node000005" class="edge">
<title>Node1&#45;&gt;Node5</title>
<g id="a_edge4_Node000001_Node000005"><a xlink:title=" ">
<path fill="none" stroke="#63b8ff" d="M607.16,-71.36C623.86,-76.15 641.65,-81.26 657.77,-85.88"/>
<polygon fill="#63b8ff" stroke="#63b8ff" points="608.4,-68.08 597.83,-68.68 606.47,-74.8 608.4,-68.08"/>
</a>
</g>
</g>
<!-- Node6 -->
<g id="Node000006" class="node">
<title>Node6</title>
<g id="a_Node000006"><a xlink:href="classedu_1_1wpi_1_1first_1_1wpilibj_1_1_timeslice_robot.html" target="_top" xlink:title=" ">
<polygon fill="white" stroke="#666666" points="785.75,-67.88 641.5,-67.88 641.5,-37.38 785.75,-37.38 785.75,-67.88"/>
<text text-anchor="start" x="649.5" y="-54.38" font-family="Helvetica,sans-Serif" font-size="10.00">edu.wpi.first.wpilibj.Timeslice</text>
<text text-anchor="middle" x="713.62" y="-43.12" font-family="Helvetica,sans-Serif" font-size="10.00">Robot</text>
</a>
</g>
</g>
<!-- Node1&#45;&gt;Node6 -->
<g id="edge5_Node000001_Node000006" class="edge">
<title>Node1&#45;&gt;Node6</title>
<g id="a_edge5_Node000001_Node000006"><a xlink:title=" ">
<path fill="none" stroke="#63b8ff" d="M617.36,-52.62C625.23,-52.62 633.21,-52.62 641.03,-52.62"/>
<polygon fill="#63b8ff" stroke="#63b8ff" points="617.46,-49.13 607.46,-52.63 617.46,-56.13 617.46,-49.13"/>
</a>
</g>
</g>
<!-- Node8 -->
<g id="Node000008" class="node">
<title>Node8</title>
<g id="a_Node000008"><a xlink:href="classfrc_1_1robot_1_1_robot.html" target="_top" xlink:title=" ">
<polygon fill="white" stroke="#666666" points="754.25,-19.25 673,-19.25 673,0 754.25,0 754.25,-19.25"/>
<text text-anchor="middle" x="713.62" y="-5.75" font-family="Helvetica,sans-Serif" font-size="10.00">frc.robot.Robot</text>
</a>
</g>
</g>
<!-- Node1&#45;&gt;Node8 -->
<g id="edge7_Node000001_Node000008" class="edge">
<title>Node1&#45;&gt;Node8</title>
<g id="a_edge7_Node000001_Node000008"><a xlink:title=" ">
<path fill="none" stroke="#63b8ff" d="M615.15,-34.17C634.87,-29.21 655.46,-24.02 672.61,-19.7"/>
<polygon fill="#63b8ff" stroke="#63b8ff" points="614.31,-30.77 605.47,-36.61 616.02,-37.56 614.31,-30.77"/>
</a>
</g>
</g>
<!-- Node2 -->
<g id="Node000002" class="node">
<title>Node2</title>
<g id="a_Node000002"><a xlink:href="classedu_1_1wpi_1_1first_1_1wpilibj_1_1_iterative_robot_base.html" target="_top" xlink:title=" ">
<polygon fill="white" stroke="#666666" points="440.25,-67.88 302.75,-67.88 302.75,-37.38 440.25,-37.38 440.25,-67.88"/>
<text text-anchor="start" x="310.75" y="-54.38" font-family="Helvetica,sans-Serif" font-size="10.00">edu.wpi.first.wpilibj.Iterative</text>
<text text-anchor="middle" x="371.5" y="-43.12" font-family="Helvetica,sans-Serif" font-size="10.00">RobotBase</text>
</a>
</g>
</g>
<!-- Node2&#45;&gt;Node1 -->
<g id="edge1_Node000001_Node000002" class="edge">
<title>Node2&#45;&gt;Node1</title>
<g id="a_edge1_Node000001_Node000002"><a xlink:title=" ">
<path fill="none" stroke="#63b8ff" d="M451.89,-52.62C459.95,-52.62 468.05,-52.62 475.91,-52.62"/>
<polygon fill="#63b8ff" stroke="#63b8ff" points="452.09,-49.13 442.09,-52.63 452.09,-56.13 452.09,-49.13"/>
</a>
</g>
</g>
<!-- Node3 -->
<g id="Node000003" class="node">
<title>Node3</title>
<g id="a_Node000003"><a xlink:href="classedu_1_1wpi_1_1first_1_1wpilibj_1_1_robot_base.html" target="_top" xlink:title=" ">
<polygon fill="white" stroke="#666666" points="266.75,-62.25 115.75,-62.25 115.75,-43 266.75,-43 266.75,-62.25"/>
<text text-anchor="middle" x="191.25" y="-48.75" font-family="Helvetica,sans-Serif" font-size="10.00">edu.wpi.first.wpilibj.RobotBase</text>
</a>
</g>
</g>
<!-- Node3&#45;&gt;Node2 -->
<g id="edge2_Node000002_Node000003" class="edge">
<title>Node3&#45;&gt;Node2</title>
<g id="a_edge2_Node000002_Node000003"><a xlink:title=" ">
<path fill="none" stroke="#63b8ff" d="M278.41,-52.62C286.46,-52.62 294.55,-52.62 302.4,-52.62"/>
<polygon fill="#63b8ff" stroke="#63b8ff" points="278.58,-49.13 268.58,-52.63 278.58,-56.13 278.58,-49.13"/>
</a>
</g>
</g>
<!-- Node4 -->
<g id="Node000004" class="node">
<title>Node4</title>
<g id="a_Node000004"><a xlink:title=" ">
<polygon fill="white" stroke="#bfbfbf" points="79.75,-62.25 0,-62.25 0,-43 79.75,-43 79.75,-62.25"/>
<text text-anchor="middle" x="39.88" y="-48.75" font-family="Helvetica,sans-Serif" font-size="10.00">AutoCloseable</text>
</a>
</g>
</g>
<!-- Node4&#45;&gt;Node3 -->
<g id="edge3_Node000003_Node000004" class="edge">
<title>Node4&#45;&gt;Node3</title>
<g id="a_edge3_Node000003_Node000004"><a xlink:title=" ">
<path fill="none" stroke="#63b8ff" d="M91.49,-52.62C99.21,-52.62 107.31,-52.62 115.42,-52.62"/>
<polygon fill="#63b8ff" stroke="#63b8ff" points="91.64,-49.13 81.64,-52.63 91.64,-56.13 91.64,-49.13"/>
</a>
</g>
</g>
<!-- Node7 -->
<g id="Node000007" class="node">
<title>Node7</title>
<g id="a_Node000007"><a xlink:title=" ">
<polygon fill="white" stroke="#bfbfbf" points="966,-67.88 821.75,-67.88 821.75,-37.38 966,-37.38 966,-67.88"/>
<text text-anchor="start" x="829.75" y="-54.38" font-family="Helvetica,sans-Serif" font-size="10.00">edu.wpi.first.wpilibj.Timeslice</text>
<text text-anchor="middle" x="893.88" y="-43.12" font-family="Helvetica,sans-Serif" font-size="10.00">RobotTest.MockRobot</text>
</a>
</g>
</g>
<!-- Node6&#45;&gt;Node7 -->
<g id="edge6_Node000006_Node000007" class="edge">
<title>Node6&#45;&gt;Node7</title>
<g id="a_edge6_Node000006_Node000007"><a xlink:title=" ">
<path fill="none" stroke="#63b8ff" d="M797.37,-52.62C805.39,-52.62 813.48,-52.62 821.38,-52.62"/>
<polygon fill="#63b8ff" stroke="#63b8ff" points="797.61,-49.13 787.61,-52.63 797.61,-56.13 797.61,-49.13"/>
</a>
</g>
</g>
</g>
</svg>
