<?xml version="1.0" encoding="UTF-8" standalone="no"?>
<!DOCTYPE svg PUBLIC "-//W3C//DTD SVG 1.1//EN"
 "http://www.w3.org/Graphics/SVG/1.1/DTD/svg11.dtd">
<!-- Generated by graphviz version 9.0.0 (20230911.1827)
 -->
<!-- Title: edu.wpi.first.wpilibj.Joystick.getX Pages: 1 -->
<svg width="514pt" height="106pt"
 viewBox="0.00 0.00 514.25 105.50" xmlns="http://www.w3.org/2000/svg" xmlns:xlink="http://www.w3.org/1999/xlink">
<g id="graph0" class="graph" transform="scale(1 1) rotate(0) translate(4 101.5)">
<title>edu.wpi.first.wpilibj.Joystick.getX</title>
<!-- Node1 -->
<g id="Node000001" class="node">
<title>Node1</title>
<g id="a_Node000001"><a xlink:title=" ">
<polygon fill="#999999" stroke="#666666" points="162.25,-57.88 0,-57.88 0,-38.62 162.25,-38.62 162.25,-57.88"/>
<text text-anchor="middle" x="81.12" y="-44.38" font-family="Helvetica,sans-Serif" font-size="10.00">edu.wpi.first.wpilibj.Joystick.getX</text>
</a>
</g>
</g>
<!-- Node2 -->
<g id="Node000002" class="node">
<title>Node2</title>
<g id="a_Node000002"><a xlink:href="classedu_1_1wpi_1_1first_1_1wpilibj_1_1_generic_h_i_d.html#a561e13532e9305a057a3b02cc655833c" target="_top" xlink:title=" ">
<polygon fill="white" stroke="#666666" points="334.25,-63.5 198.25,-63.5 198.25,-33 334.25,-33 334.25,-63.5"/>
<text text-anchor="start" x="206.25" y="-50" font-family="Helvetica,sans-Serif" font-size="10.00">edu.wpi.first.wpilibj.Generic</text>
<text text-anchor="middle" x="266.25" y="-38.75" font-family="Helvetica,sans-Serif" font-size="10.00">HID.getRawAxis</text>
</a>
</g>
</g>
<!-- Node1&#45;&gt;Node2 -->
<g id="edge1_Node000001_Node000002" class="edge">
<title>Node1&#45;&gt;Node2</title>
<g id="a_edge1_Node000001_Node000002"><a xlink:title=" ">
<path fill="none" stroke="#63b8ff" d="M162.71,-48.25C170.58,-48.25 178.55,-48.25 186.4,-48.25"/>
<polygon fill="#63b8ff" stroke="#63b8ff" points="186.27,-51.75 196.27,-48.25 186.27,-44.75 186.27,-51.75"/>
</a>
</g>
</g>
<!-- Node3 -->
<g id="Node000003" class="node">
<title>Node3</title>
<g id="a_Node000003"><a xlink:href="classedu_1_1wpi_1_1first_1_1wpilibj_1_1_driver_station.html#af9606114345715ee1577c2b0c66a070c" target="_top" xlink:title=" ">
<polygon fill="white" stroke="#666666" points="502.5,-97.5 374,-97.5 374,-67 502.5,-67 502.5,-97.5"/>
<text text-anchor="start" x="382" y="-84" font-family="Helvetica,sans-Serif" font-size="10.00">edu.wpi.first.wpilibj.Driver</text>
<text text-anchor="middle" x="438.25" y="-72.75" font-family="Helvetica,sans-Serif" font-size="10.00">Station.getStickAxis</text>
</a>
</g>
</g>
<!-- Node2&#45;&gt;Node3 -->
<g id="edge2_Node000002_Node000003" class="edge">
<title>Node2&#45;&gt;Node3</title>
<g id="a_edge2_Node000002_Node000003"><a xlink:title=" ">
<path fill="none" stroke="#63b8ff" d="M334.44,-61.69C343.61,-63.52 353.07,-65.41 362.37,-67.27"/>
<polygon fill="#63b8ff" stroke="#63b8ff" points="361.62,-70.69 372.11,-69.22 362.99,-63.83 361.62,-70.69"/>
</a>
</g>
</g>
<!-- Node4 -->
<g id="Node000004" class="node">
<title>Node4</title>
<g id="a_Node000004"><a xlink:href="classedu_1_1wpi_1_1first_1_1wpilibj_1_1_generic_h_i_d.html#af0b067c76cbb79f54d7f475e88fcfed2" target="_top" xlink:title=" ">
<polygon fill="white" stroke="#666666" points="506.25,-30.5 370.25,-30.5 370.25,0 506.25,0 506.25,-30.5"/>
<text text-anchor="start" x="378.25" y="-17" font-family="Helvetica,sans-Serif" font-size="10.00">edu.wpi.first.wpilibj.Generic</text>
<text text-anchor="middle" x="438.25" y="-5.75" font-family="Helvetica,sans-Serif" font-size="10.00">HID.pov</text>
</a>
</g>
</g>
<!-- Node2&#45;&gt;Node4 -->
<g id="edge3_Node000002_Node000004" class="edge">
<title>Node2&#45;&gt;Node4</title>
<g id="a_edge3_Node000002_Node000004"><a xlink:title=" ">
<path fill="none" stroke="#63b8ff" d="M334.44,-35.21C342.48,-33.65 350.74,-32.04 358.92,-30.46"/>
<polygon fill="#63b8ff" stroke="#63b8ff" points="359.36,-33.94 368.51,-28.59 358.02,-27.06 359.36,-33.94"/>
</a>
</g>
</g>
<!-- Node4&#45;&gt;Node4 -->
<g id="edge4_Node000004_Node000004" class="edge">
<title>Node4&#45;&gt;Node4</title>
<g id="a_edge4_Node000004_Node000004"><a xlink:title=" ">
<path fill="none" stroke="#63b8ff" d="M407.77,-30.99C401.55,-40.06 411.71,-48.5 438.25,-48.5 452.76,-48.5 462.38,-45.97 467.09,-42.2"/>
<polygon fill="#63b8ff" stroke="#63b8ff" points="470.53,-42.88 468.51,-32.48 463.61,-41.87 470.53,-42.88"/>
</a>
</g>
</g>
</g>
</svg>
