<?xml version="1.0" encoding="UTF-8" standalone="no"?>
<!DOCTYPE svg PUBLIC "-//W3C//DTD SVG 1.1//EN"
 "http://www.w3.org/Graphics/SVG/1.1/DTD/svg11.dtd">
<!-- Generated by graphviz version 9.0.0 (20230911.1827)
 -->
<!-- Title: edu.wpi.first.wpilibj.DriverStation.refreshControlWordFromCache Pages: 1 -->
<svg width="561pt" height="88pt"
 viewBox="0.00 0.00 560.75 87.50" xmlns="http://www.w3.org/2000/svg" xmlns:xlink="http://www.w3.org/1999/xlink">
<g id="graph0" class="graph" transform="scale(1 1) rotate(0) translate(4 83.5)">
<title>edu.wpi.first.wpilibj.DriverStation.refreshControlWordFromCache</title>
<!-- Node1 -->
<g id="Node000001" class="node">
<title>Node1</title>
<g id="a_Node000001"><a xlink:title=" ">
<polygon fill="#999999" stroke="#666666" points="552.75,-54.5 368,-54.5 368,-24 552.75,-24 552.75,-54.5"/>
<text text-anchor="start" x="376" y="-41" font-family="Helvetica,sans-Serif" font-size="10.00">edu.wpi.first.wpilibj.Driver</text>
<text text-anchor="middle" x="460.38" y="-29.75" font-family="Helvetica,sans-Serif" font-size="10.00">Station.refreshControlWordFromCache</text>
</a>
</g>
</g>
<!-- Node2 -->
<g id="Node000002" class="node">
<title>Node2</title>
<g id="a_Node000002"><a xlink:href="classedu_1_1wpi_1_1first_1_1wpilibj_1_1_d_s_control_word.html#a0dd9cdc5e9f868e1649a0573cd83aaef" target="_top" xlink:title=" ">
<polygon fill="white" stroke="#666666" points="332,-54.5 184,-54.5 184,-24 332,-24 332,-54.5"/>
<text text-anchor="start" x="192" y="-41" font-family="Helvetica,sans-Serif" font-size="10.00">edu.wpi.first.wpilibj.DSControl</text>
<text text-anchor="middle" x="258" y="-29.75" font-family="Helvetica,sans-Serif" font-size="10.00">Word.refresh</text>
</a>
</g>
</g>
<!-- Node1&#45;&gt;Node2 -->
<g id="edge1_Node000001_Node000002" class="edge">
<title>Node1&#45;&gt;Node2</title>
<g id="a_edge1_Node000001_Node000002"><a xlink:title=" ">
<path fill="none" stroke="#63b8ff" d="M356.28,-39.25C348.2,-39.25 340.15,-39.25 332.33,-39.25"/>
<polygon fill="#63b8ff" stroke="#63b8ff" points="356.18,-42.75 366.18,-39.25 356.18,-35.75 356.18,-42.75"/>
</a>
</g>
</g>
<!-- Node3 -->
<g id="Node000003" class="node">
<title>Node3</title>
<g id="a_Node000003"><a xlink:href="classedu_1_1wpi_1_1first_1_1wpilibj_1_1_d_s_control_word.html#a14d879d7ca28f0ea4b805c2d29675814" target="_top" xlink:title=" ">
<polygon fill="white" stroke="#666666" points="148,-79.5 0,-79.5 0,-49 148,-49 148,-79.5"/>
<text text-anchor="start" x="8" y="-66" font-family="Helvetica,sans-Serif" font-size="10.00">edu.wpi.first.wpilibj.DSControl</text>
<text text-anchor="middle" x="74" y="-54.75" font-family="Helvetica,sans-Serif" font-size="10.00">Word.DSControlWord</text>
</a>
</g>
</g>
<!-- Node2&#45;&gt;Node3 -->
<g id="edge2_Node000002_Node000003" class="edge">
<title>Node2&#45;&gt;Node3</title>
<g id="a_edge2_Node000002_Node000003"><a xlink:title=" ">
<path fill="none" stroke="#63b8ff" d="M172.46,-50.86C164.42,-51.97 156.31,-53.08 148.39,-54.17"/>
<polygon fill="#63b8ff" stroke="#63b8ff" points="172.83,-54.34 182.26,-49.52 171.88,-47.41 172.83,-54.34"/>
</a>
</g>
</g>
<!-- Node4 -->
<g id="Node000004" class="node">
<title>Node4</title>
<g id="a_Node000004"><a xlink:href="classedu_1_1wpi_1_1first_1_1wpilibj_1_1_iterative_robot_base.html#aac5c45d7130bce188e0f9278075e8891" target="_top" xlink:title=" ">
<polygon fill="white" stroke="#666666" points="142.75,-30.5 5.25,-30.5 5.25,0 142.75,0 142.75,-30.5"/>
<text text-anchor="start" x="13.25" y="-17" font-family="Helvetica,sans-Serif" font-size="10.00">edu.wpi.first.wpilibj.Iterative</text>
<text text-anchor="middle" x="74" y="-5.75" font-family="Helvetica,sans-Serif" font-size="10.00">RobotBase.loopFunc</text>
</a>
</g>
</g>
<!-- Node2&#45;&gt;Node4 -->
<g id="edge3_Node000002_Node000004" class="edge">
<title>Node2&#45;&gt;Node4</title>
<g id="a_edge3_Node000002_Node000004"><a xlink:title=" ">
<path fill="none" stroke="#63b8ff" d="M172.65,-28.13C162.74,-26.82 152.73,-25.5 143.08,-24.23"/>
<polygon fill="#63b8ff" stroke="#63b8ff" points="171.89,-31.56 182.26,-29.39 172.8,-24.62 171.89,-31.56"/>
</a>
</g>
</g>
</g>
</svg>
