<?xml version="1.0" encoding="UTF-8" standalone="no"?>
<!DOCTYPE svg PUBLIC "-//W3C//DTD SVG 1.1//EN"
 "http://www.w3.org/Graphics/SVG/1.1/DTD/svg11.dtd">
<!-- Generated by graphviz version 9.0.0 (20230911.1827)
 -->
<!-- Title: edu.wpi.first.wpilibj.Counter.getPeriod Pages: 1 -->
<svg width="569pt" height="76pt"
 viewBox="0.00 0.00 569.00 75.88" xmlns="http://www.w3.org/2000/svg" xmlns:xlink="http://www.w3.org/1999/xlink">
<g id="graph0" class="graph" transform="scale(1 1) rotate(0) translate(4 71.88)">
<title>edu.wpi.first.wpilibj.Counter.getPeriod</title>
<!-- Node1 -->
<g id="Node000001" class="node">
<title>Node1</title>
<g id="a_Node000001"><a xlink:title=" ">
<polygon fill="#999999" stroke="#666666" points="561,-45.88 408.5,-45.88 408.5,-15.37 561,-15.37 561,-45.88"/>
<text text-anchor="start" x="416.5" y="-32.38" font-family="Helvetica,sans-Serif" font-size="10.00">edu.wpi.first.wpilibj.Counter.get</text>
<text text-anchor="middle" x="484.75" y="-21.12" font-family="Helvetica,sans-Serif" font-size="10.00">Period</text>
</a>
</g>
</g>
<!-- Node2 -->
<g id="Node000002" class="node">
<title>Node2</title>
<g id="a_Node000002"><a xlink:href="classedu_1_1wpi_1_1first_1_1wpilibj_1_1_ultrasonic.html#a9a9aff88f201efda3935717cfa957b0a" target="_top" xlink:title=" ">
<polygon fill="white" stroke="#666666" points="367.25,-67.88 204.25,-67.88 204.25,-37.38 367.25,-37.38 367.25,-67.88"/>
<text text-anchor="start" x="212.25" y="-54.38" font-family="Helvetica,sans-Serif" font-size="10.00">edu.wpi.first.wpilibj.Ultrasonic.get</text>
<text text-anchor="middle" x="285.75" y="-43.12" font-family="Helvetica,sans-Serif" font-size="10.00">RangeInches</text>
</a>
</g>
</g>
<!-- Node1&#45;&gt;Node2 -->
<g id="edge1_Node000001_Node000002" class="edge">
<title>Node1&#45;&gt;Node2</title>
<g id="a_edge1_Node000001_Node000002"><a xlink:title=" ">
<path fill="none" stroke="#63b8ff" d="M396.86,-40.33C387.17,-41.41 377.33,-42.51 367.71,-43.58"/>
<polygon fill="#63b8ff" stroke="#63b8ff" points="397.09,-43.82 406.64,-39.24 396.32,-36.87 397.09,-43.82"/>
</a>
</g>
</g>
<!-- Node4 -->
<g id="Node000004" class="node">
<title>Node4</title>
<g id="a_Node000004"><a xlink:href="classedu_1_1wpi_1_1first_1_1wpilibj_1_1_counter.html#ac4be7072d53ba9c53dd3e360a9531703" target="_top" xlink:title=" ">
<polygon fill="white" stroke="#666666" points="372.5,-19.25 199,-19.25 199,0 372.5,0 372.5,-19.25"/>
<text text-anchor="middle" x="285.75" y="-5.75" font-family="Helvetica,sans-Serif" font-size="10.00">edu.wpi.first.wpilibj.Counter.getRate</text>
</a>
</g>
</g>
<!-- Node1&#45;&gt;Node4 -->
<g id="edge3_Node000001_Node000004" class="edge">
<title>Node1&#45;&gt;Node4</title>
<g id="a_edge3_Node000001_Node000004"><a xlink:title=" ">
<path fill="none" stroke="#63b8ff" d="M396.71,-21.35C388.83,-20.51 380.86,-19.66 373,-18.82"/>
<polygon fill="#63b8ff" stroke="#63b8ff" points="396.33,-24.83 406.64,-22.41 397.07,-17.87 396.33,-24.83"/>
</a>
</g>
</g>
<!-- Node3 -->
<g id="Node000003" class="node">
<title>Node3</title>
<g id="a_Node000003"><a xlink:href="classedu_1_1wpi_1_1first_1_1wpilibj_1_1_ultrasonic.html#a207f300132f4f237d643faf9c3f75658" target="_top" xlink:title=" ">
<polygon fill="white" stroke="#666666" points="163,-67.88 0,-67.88 0,-37.38 163,-37.38 163,-67.88"/>
<text text-anchor="start" x="8" y="-54.38" font-family="Helvetica,sans-Serif" font-size="10.00">edu.wpi.first.wpilibj.Ultrasonic.get</text>
<text text-anchor="middle" x="81.5" y="-43.12" font-family="Helvetica,sans-Serif" font-size="10.00">RangeMM</text>
</a>
</g>
</g>
<!-- Node2&#45;&gt;Node3 -->
<g id="edge2_Node000002_Node000003" class="edge">
<title>Node2&#45;&gt;Node3</title>
<g id="a_edge2_Node000002_Node000003"><a xlink:title=" ">
<path fill="none" stroke="#63b8ff" d="M192.52,-52.62C182.73,-52.62 172.82,-52.62 163.18,-52.62"/>
<polygon fill="#63b8ff" stroke="#63b8ff" points="192.43,-56.13 202.43,-52.63 192.43,-49.13 192.43,-56.13"/>
</a>
</g>
</g>
</g>
</svg>
