<?xml version="1.0" encoding="UTF-8" standalone="no"?>
<!DOCTYPE svg PUBLIC "-//W3C//DTD SVG 1.1//EN"
 "http://www.w3.org/Graphics/SVG/1.1/DTD/svg11.dtd">
<!-- Generated by graphviz version 9.0.0 (20230911.1827)
 -->
<!-- Title: frc.robot.Main.main Pages: 1 -->
<svg width="458pt" height="235pt"
 viewBox="0.00 0.00 458.00 234.50" xmlns="http://www.w3.org/2000/svg" xmlns:xlink="http://www.w3.org/1999/xlink">

<svg id="main" version="1.1" xmlns="http://www.w3.org/2000/svg" xmlns:xlink="http://www.w3.org/1999/xlink" xml:space="preserve" onload="init(evt)">
<style type="text/css"><![CDATA[
.node, .edge {opacity: 0.7;}
.node.selected, .edge.selected {opacity: 1;}
.edge:hover path { stroke: red; }
.edge:hover polygon { stroke: red; fill: red; }
]]></style>
<script type="application/ecmascript" xlink:href="svg.min.js"/>
<svg id="graph" class="graph">
<g id="graph0" class="graph" transform="scale(1 1) rotate(0) translate(4 230.5)">
<title>frc.robot.Main.main</title>
<!-- Node1 -->
<g id="Node000001" class="node">
<title>Node1</title>
<g id="a_Node000001"><a xlink:title=" ">
<polygon fill="#999999" stroke="#666666" points="100,-122.88 0,-122.88 0,-103.62 100,-103.62 100,-122.88"/>
<text text-anchor="middle" x="50" y="-109.38" font-family="Helvetica,sans-Serif" font-size="10.00">frc.robot.Main.main</text>
</a>
</g>
</g>
<!-- Node2 -->
<g id="Node000002" class="node">
<title>Node2</title>
<g id="a_Node000002"><a xlink:href="classedu_1_1wpi_1_1first_1_1wpilibj_1_1_robot_base.html#aca4e3fd628a06764d869dc9ab535fb0d" target="_top" xlink:title=" ">
<polygon fill="white" stroke="#666666" points="264.5,-128.5 136,-128.5 136,-98 264.5,-98 264.5,-128.5"/>
<text text-anchor="start" x="144" y="-115" font-family="Helvetica,sans-Serif" font-size="10.00">edu.wpi.first.wpilibj.Robot</text>
<text text-anchor="middle" x="200.25" y="-103.75" font-family="Helvetica,sans-Serif" font-size="10.00">Base.startRobot</text>
</a>
</g>
</g>
<!-- Node1&#45;&gt;Node2 -->
<g id="edge1_Node000001_Node000002" class="edge">
<title>Node1&#45;&gt;Node2</title>
<g id="a_edge1_Node000001_Node000002"><a xlink:title=" ">
<path fill="none" stroke="#63b8ff" d="M100.37,-113.25C108.04,-113.25 116.11,-113.25 124.19,-113.25"/>
<polygon fill="#63b8ff" stroke="#63b8ff" points="124.08,-116.75 134.08,-113.25 124.08,-109.75 124.08,-116.75"/>
</a>
</g>
</g>
<!-- Node3 -->
<g id="Node000003" class="node">
<title>Node3</title>
<g id="a_Node000003"><a xlink:href="classedu_1_1wpi_1_1first_1_1wpilibj_1_1_robot_base.html#a185282e41bdf96d388fe1d1e03382767" target="_top" xlink:title=" ">
<polygon fill="white" stroke="#666666" points="439.5,-226.5 311,-226.5 311,-196 439.5,-196 439.5,-226.5"/>
<text text-anchor="start" x="319" y="-213" font-family="Helvetica,sans-Serif" font-size="10.00">edu.wpi.first.wpilibj.Robot</text>
<text text-anchor="middle" x="375.25" y="-201.75" font-family="Helvetica,sans-Serif" font-size="10.00">Base.endCompetition</text>
</a>
</g>
</g>
<!-- Node2&#45;&gt;Node3 -->
<g id="edge2_Node000002_Node000003" class="edge">
<title>Node2&#45;&gt;Node3</title>
<g id="a_edge2_Node000002_Node000003"><a xlink:title=" ">
<path fill="none" stroke="#63b8ff" d="M218.79,-128.77C237.8,-144.95 269.58,-170.13 300.5,-186.25 303.9,-188.02 307.45,-189.71 311.08,-191.31"/>
<polygon fill="#63b8ff" stroke="#63b8ff" points="309.47,-194.43 320.04,-195 312.13,-187.95 309.47,-194.43"/>
</a>
</g>
</g>
<!-- Node4 -->
<g id="Node000004" class="node">
<title>Node4</title>
<g id="a_Node000004"><a xlink:href="classedu_1_1wpi_1_1first_1_1wpilibj_1_1_driver_station.html#afe91183377af1135ae1787c8ac29ee3b" target="_top" xlink:title=" ">
<polygon fill="white" stroke="#666666" points="439.5,-177.5 311,-177.5 311,-147 439.5,-147 439.5,-177.5"/>
<text text-anchor="start" x="319" y="-164" font-family="Helvetica,sans-Serif" font-size="10.00">edu.wpi.first.wpilibj.Driver</text>
<text text-anchor="middle" x="375.25" y="-152.75" font-family="Helvetica,sans-Serif" font-size="10.00">Station.refreshData</text>
</a>
</g>
</g>
<!-- Node2&#45;&gt;Node4 -->
<g id="edge3_Node000002_Node000004" class="edge">
<title>Node2&#45;&gt;Node4</title>
<g id="a_edge3_Node000002_Node000004"><a xlink:title=" ">
<path fill="none" stroke="#63b8ff" d="M256.46,-128.89C272.77,-133.51 290.79,-138.61 307.72,-143.41"/>
<polygon fill="#63b8ff" stroke="#63b8ff" points="306.64,-146.74 317.21,-146.1 308.55,-140 306.64,-146.74"/>
</a>
</g>
</g>
<!-- Node5 -->
<g id="Node000005" class="node">
<title>Node5</title>
<g id="a_Node000005"><a xlink:href="classedu_1_1wpi_1_1first_1_1wpilibj_1_1_driver_station.html#a8446c52983088af3fba8adc2b0d3df8c" target="_top" xlink:title=" ">
<polygon fill="white" stroke="#666666" points="439.5,-128.5 311,-128.5 311,-98 439.5,-98 439.5,-128.5"/>
<text text-anchor="start" x="319" y="-115" font-family="Helvetica,sans-Serif" font-size="10.00">edu.wpi.first.wpilibj.Driver</text>
<text text-anchor="middle" x="375.25" y="-103.75" font-family="Helvetica,sans-Serif" font-size="10.00">Station.reportWarning</text>
</a>
</g>
</g>
<!-- Node2&#45;&gt;Node5 -->
<g id="edge4_Node000002_Node000005" class="edge">
<title>Node2&#45;&gt;Node5</title>
<g id="a_edge4_Node000002_Node000005"><a xlink:title=" ">
<path fill="none" stroke="#63b8ff" d="M264.69,-113.25C275.9,-113.25 287.66,-113.25 299.16,-113.25"/>
<polygon fill="#63b8ff" stroke="#63b8ff" points="299.02,-116.75 309.02,-113.25 299.02,-109.75 299.02,-116.75"/>
</a>
</g>
</g>
<!-- Node6 -->
<g id="Node000006" class="node">
<title>Node6</title>
<g id="a_Node000006"><a xlink:href="classedu_1_1wpi_1_1first_1_1wpilibj_1_1_notifier.html#a09d699f923bc38943b30d3c1f859ed7e" target="_top" xlink:title=" ">
<polygon fill="white" stroke="#666666" points="450,-79.5 300.5,-79.5 300.5,-49 450,-49 450,-79.5"/>
<text text-anchor="start" x="308.5" y="-66" font-family="Helvetica,sans-Serif" font-size="10.00">edu.wpi.first.wpilibj.Notifier.set</text>
<text text-anchor="middle" x="375.25" y="-54.75" font-family="Helvetica,sans-Serif" font-size="10.00">HALThreadPriority</text>
</a>
</g>
</g>
<!-- Node2&#45;&gt;Node6 -->
<g id="edge5_Node000002_Node000006" class="edge">
<title>Node2&#45;&gt;Node6</title>
<g id="a_edge5_Node000002_Node000006"><a xlink:title=" ">
<path fill="none" stroke="#63b8ff" d="M256.46,-97.61C272.77,-92.99 290.79,-87.89 307.72,-83.09"/>
<polygon fill="#63b8ff" stroke="#63b8ff" points="308.55,-86.5 317.21,-80.4 306.64,-79.76 308.55,-86.5"/>
</a>
</g>
</g>
<!-- Node7 -->
<g id="Node000007" class="node">
<title>Node7</title>
<g id="a_Node000007"><a xlink:href="classedu_1_1wpi_1_1first_1_1wpilibj_1_1_robot_base.html#a05e4da378675e97c4f0dd4235101fce2" target="_top" xlink:title=" ">
<polygon fill="white" stroke="#666666" points="442.12,-30.5 308.38,-30.5 308.38,0 442.12,0 442.12,-30.5"/>
<text text-anchor="start" x="316.38" y="-17" font-family="Helvetica,sans-Serif" font-size="10.00">edu.wpi.first.wpilibj.Robot</text>
<text text-anchor="middle" x="375.25" y="-5.75" font-family="Helvetica,sans-Serif" font-size="10.00">Base.suppressExitWarning</text>
</a>
</g>
</g>
<!-- Node2&#45;&gt;Node7 -->
<g id="edge6_Node000002_Node000007" class="edge">
<title>Node2&#45;&gt;Node7</title>
<g id="a_edge6_Node000002_Node000007"><a xlink:title=" ">
<path fill="none" stroke="#63b8ff" d="M218.79,-97.73C237.8,-81.55 269.58,-56.37 300.5,-40.25 303.9,-38.48 307.45,-36.79 311.08,-35.19"/>
<polygon fill="#63b8ff" stroke="#63b8ff" points="312.13,-38.55 320.04,-31.5 309.47,-32.07 312.13,-38.55"/>
</a>
</g>
</g>
</g>
</svg>
</svg>

<style type='text/css'>
<![CDATA[
[data-mouse-over-selected='false'] { opacity: 0.7; }
[data-mouse-over-selected='true']  { opacity: 1.0; }
]]>
</style>
<script type="application/ecmascript"><![CDATA[
document.addEventListener('DOMContentLoaded', (event) => {
  highlightEdges();
  highlightAdjacentNodes();
});
]]></script>
</svg>
