<?xml version="1.0" encoding="UTF-8" standalone="no"?>
<!DOCTYPE svg PUBLIC "-//W3C//DTD SVG 1.1//EN"
 "http://www.w3.org/Graphics/SVG/1.1/DTD/svg11.dtd">
<!-- Generated by graphviz version 9.0.0 (20230911.1827)
 -->
<!-- Title: edu.wpi.first.wpilibj.GenericHID.getAxisType Pages: 1 -->
<svg width="321pt" height="106pt"
 viewBox="0.00 0.00 320.50 105.50" xmlns="http://www.w3.org/2000/svg" xmlns:xlink="http://www.w3.org/1999/xlink">
<g id="graph0" class="graph" transform="scale(1 1) rotate(0) translate(4 101.5)">
<title>edu.wpi.first.wpilibj.GenericHID.getAxisType</title>
<!-- Node1 -->
<g id="Node000001" class="node">
<title>Node1</title>
<g id="a_Node000001"><a xlink:title=" ">
<polygon fill="#999999" stroke="#666666" points="136,-63.5 0,-63.5 0,-33 136,-33 136,-63.5"/>
<text text-anchor="start" x="8" y="-50" font-family="Helvetica,sans-Serif" font-size="10.00">edu.wpi.first.wpilibj.Generic</text>
<text text-anchor="middle" x="68" y="-38.75" font-family="Helvetica,sans-Serif" font-size="10.00">HID.getAxisType</text>
</a>
</g>
</g>
<!-- Node2 -->
<g id="Node000002" class="node">
<title>Node2</title>
<g id="a_Node000002"><a xlink:href="classedu_1_1wpi_1_1first_1_1wpilibj_1_1_driver_station.html#a177724d16e1662c826984d67fc6e15bc" target="_top" xlink:title=" ">
<polygon fill="white" stroke="#666666" points="312.5,-97.5 172,-97.5 172,-67 312.5,-67 312.5,-97.5"/>
<text text-anchor="start" x="180" y="-84" font-family="Helvetica,sans-Serif" font-size="10.00">edu.wpi.first.wpilibj.Driver</text>
<text text-anchor="middle" x="242.25" y="-72.75" font-family="Helvetica,sans-Serif" font-size="10.00">Station.getJoystickAxisType</text>
</a>
</g>
</g>
<!-- Node1&#45;&gt;Node2 -->
<g id="edge1_Node000001_Node000002" class="edge">
<title>Node1&#45;&gt;Node2</title>
<g id="a_edge1_Node000001_Node000002"><a xlink:title=" ">
<path fill="none" stroke="#63b8ff" d="M136.09,-61.49C144.08,-63.07 152.3,-64.69 160.45,-66.3"/>
<polygon fill="#63b8ff" stroke="#63b8ff" points="159.53,-69.69 170.02,-68.19 160.88,-62.82 159.53,-69.69"/>
</a>
</g>
</g>
<!-- Node3 -->
<g id="Node000003" class="node">
<title>Node3</title>
<g id="a_Node000003"><a xlink:href="classedu_1_1wpi_1_1first_1_1wpilibj_1_1_generic_h_i_d.html#af0b067c76cbb79f54d7f475e88fcfed2" target="_top" xlink:title=" ">
<polygon fill="white" stroke="#666666" points="310.25,-30.5 174.25,-30.5 174.25,0 310.25,0 310.25,-30.5"/>
<text text-anchor="start" x="182.25" y="-17" font-family="Helvetica,sans-Serif" font-size="10.00">edu.wpi.first.wpilibj.Generic</text>
<text text-anchor="middle" x="242.25" y="-5.75" font-family="Helvetica,sans-Serif" font-size="10.00">HID.pov</text>
</a>
</g>
</g>
<!-- Node1&#45;&gt;Node3 -->
<g id="edge2_Node000001_Node000003" class="edge">
<title>Node1&#45;&gt;Node3</title>
<g id="a_edge2_Node000001_Node000003"><a xlink:title=" ">
<path fill="none" stroke="#63b8ff" d="M136.09,-35.4C144.79,-33.73 153.76,-32.01 162.63,-30.31"/>
<polygon fill="#63b8ff" stroke="#63b8ff" points="163.13,-33.78 172.29,-28.46 161.81,-26.91 163.13,-33.78"/>
</a>
</g>
</g>
<!-- Node3&#45;&gt;Node3 -->
<g id="edge3_Node000003_Node000003" class="edge">
<title>Node3&#45;&gt;Node3</title>
<g id="a_edge3_Node000003_Node000003"><a xlink:title=" ">
<path fill="none" stroke="#63b8ff" d="M211.37,-30.99C205.07,-40.06 215.36,-48.5 242.25,-48.5 256.95,-48.5 266.69,-45.97 271.47,-42.2"/>
<polygon fill="#63b8ff" stroke="#63b8ff" points="274.91,-42.89 272.91,-32.48 267.98,-41.87 274.91,-42.89"/>
</a>
</g>
</g>
</g>
</svg>
