<?xml version="1.0" encoding="UTF-8" standalone="no"?>
<!DOCTYPE svg PUBLIC "-//W3C//DTD SVG 1.1//EN"
 "http://www.w3.org/Graphics/SVG/1.1/DTD/svg11.dtd">
<!-- Generated by graphviz version 9.0.0 (20230911.1827)
 -->
<!-- Title: edu.wpi.first.wpilibj.XboxController.rightTrigger Pages: 1 -->
<svg width="659pt" height="106pt"
 viewBox="0.00 0.00 659.25 105.50" xmlns="http://www.w3.org/2000/svg" xmlns:xlink="http://www.w3.org/1999/xlink">
<g id="graph0" class="graph" transform="scale(1 1) rotate(0) translate(4 101.5)">
<title>edu.wpi.first.wpilibj.XboxController.rightTrigger</title>
<!-- Node1 -->
<g id="Node000001" class="node">
<title>Node1</title>
<g id="a_Node000001"><a xlink:title=" ">
<polygon fill="#999999" stroke="#666666" points="124.75,-51.5 0,-51.5 0,-21 124.75,-21 124.75,-51.5"/>
<text text-anchor="start" x="8" y="-38" font-family="Helvetica,sans-Serif" font-size="10.00">edu.wpi.first.wpilibj.Xbox</text>
<text text-anchor="middle" x="62.38" y="-26.75" font-family="Helvetica,sans-Serif" font-size="10.00">Controller.rightTrigger</text>
</a>
</g>
</g>
<!-- Node2 -->
<g id="Node000002" class="node">
<title>Node2</title>
<g id="a_Node000002"><a xlink:href="classedu_1_1wpi_1_1first_1_1wpilibj_1_1_xbox_controller.html#a3a62824bf5180a83ed6b0f70f15c2490" target="_top" xlink:title=" ">
<polygon fill="white" stroke="#666666" points="307.25,-73.5 160.75,-73.5 160.75,-43 307.25,-43 307.25,-73.5"/>
<text text-anchor="start" x="168.75" y="-60" font-family="Helvetica,sans-Serif" font-size="10.00">edu.wpi.first.wpilibj.Xbox</text>
<text text-anchor="middle" x="234" y="-48.75" font-family="Helvetica,sans-Serif" font-size="10.00">Controller.getRightTriggerAxis</text>
</a>
</g>
</g>
<!-- Node1&#45;&gt;Node2 -->
<g id="edge1_Node000001_Node000002" class="edge">
<title>Node1&#45;&gt;Node2</title>
<g id="a_edge1_Node000001_Node000002"><a xlink:title=" ">
<path fill="none" stroke="#63b8ff" d="M125.09,-44.25C132.88,-45.27 140.96,-46.31 149.02,-47.36"/>
<polygon fill="#63b8ff" stroke="#63b8ff" points="148.51,-50.82 158.88,-48.64 149.41,-43.88 148.51,-50.82"/>
</a>
</g>
</g>
<!-- Node5 -->
<g id="Node000005" class="node">
<title>Node5</title>
<g id="a_Node000005"><a xlink:href="classedu_1_1wpi_1_1first_1_1wpilibj_1_1_generic_h_i_d.html#af0b067c76cbb79f54d7f475e88fcfed2" target="_top" xlink:title=" ">
<polygon fill="white" stroke="#666666" points="651.25,-30.5 515.25,-30.5 515.25,0 651.25,0 651.25,-30.5"/>
<text text-anchor="start" x="523.25" y="-17" font-family="Helvetica,sans-Serif" font-size="10.00">edu.wpi.first.wpilibj.Generic</text>
<text text-anchor="middle" x="583.25" y="-5.75" font-family="Helvetica,sans-Serif" font-size="10.00">HID.pov</text>
</a>
</g>
</g>
<!-- Node1&#45;&gt;Node5 -->
<g id="edge6_Node000001_Node000005" class="edge">
<title>Node1&#45;&gt;Node5</title>
<g id="a_edge6_Node000001_Node000005"><a xlink:title=" ">
<path fill="none" stroke="#63b8ff" d="M125.19,-33.75C219.73,-29.92 400.15,-22.62 503.79,-18.43"/>
<polygon fill="#63b8ff" stroke="#63b8ff" points="503.75,-21.93 513.6,-18.03 503.47,-14.94 503.75,-21.93"/>
</a>
</g>
</g>
<!-- Node3 -->
<g id="Node000003" class="node">
<title>Node3</title>
<g id="a_Node000003"><a xlink:href="classedu_1_1wpi_1_1first_1_1wpilibj_1_1_generic_h_i_d.html#a561e13532e9305a057a3b02cc655833c" target="_top" xlink:title=" ">
<polygon fill="white" stroke="#666666" points="479.25,-73.5 343.25,-73.5 343.25,-43 479.25,-43 479.25,-73.5"/>
<text text-anchor="start" x="351.25" y="-60" font-family="Helvetica,sans-Serif" font-size="10.00">edu.wpi.first.wpilibj.Generic</text>
<text text-anchor="middle" x="411.25" y="-48.75" font-family="Helvetica,sans-Serif" font-size="10.00">HID.getRawAxis</text>
</a>
</g>
</g>
<!-- Node2&#45;&gt;Node3 -->
<g id="edge2_Node000002_Node000003" class="edge">
<title>Node2&#45;&gt;Node3</title>
<g id="a_edge2_Node000002_Node000003"><a xlink:title=" ">
<path fill="none" stroke="#63b8ff" d="M307.55,-58.25C315.39,-58.25 323.4,-58.25 331.32,-58.25"/>
<polygon fill="#63b8ff" stroke="#63b8ff" points="331.3,-61.75 341.3,-58.25 331.3,-54.75 331.3,-61.75"/>
</a>
</g>
</g>
<!-- Node4 -->
<g id="Node000004" class="node">
<title>Node4</title>
<g id="a_Node000004"><a xlink:href="classedu_1_1wpi_1_1first_1_1wpilibj_1_1_driver_station.html#af9606114345715ee1577c2b0c66a070c" target="_top" xlink:title=" ">
<polygon fill="white" stroke="#666666" points="647.5,-97.5 519,-97.5 519,-67 647.5,-67 647.5,-97.5"/>
<text text-anchor="start" x="527" y="-84" font-family="Helvetica,sans-Serif" font-size="10.00">edu.wpi.first.wpilibj.Driver</text>
<text text-anchor="middle" x="583.25" y="-72.75" font-family="Helvetica,sans-Serif" font-size="10.00">Station.getStickAxis</text>
</a>
</g>
</g>
<!-- Node3&#45;&gt;Node4 -->
<g id="edge3_Node000003_Node000004" class="edge">
<title>Node3&#45;&gt;Node4</title>
<g id="a_edge3_Node000003_Node000004"><a xlink:title=" ">
<path fill="none" stroke="#63b8ff" d="M479.44,-67.74C488.61,-69.03 498.07,-70.37 507.37,-71.68"/>
<polygon fill="#63b8ff" stroke="#63b8ff" points="506.71,-75.12 517.1,-73.05 507.69,-68.19 506.71,-75.12"/>
</a>
</g>
</g>
<!-- Node3&#45;&gt;Node5 -->
<g id="edge4_Node000003_Node000005" class="edge">
<title>Node3&#45;&gt;Node5</title>
<g id="a_edge4_Node000003_Node000005"><a xlink:title=" ">
<path fill="none" stroke="#63b8ff" d="M474.1,-42.6C485.47,-39.73 497.44,-36.7 509.1,-33.75"/>
<polygon fill="#63b8ff" stroke="#63b8ff" points="509.85,-37.17 518.69,-31.33 508.14,-30.39 509.85,-37.17"/>
</a>
</g>
</g>
<!-- Node5&#45;&gt;Node5 -->
<g id="edge5_Node000005_Node000005" class="edge">
<title>Node5&#45;&gt;Node5</title>
<g id="a_edge5_Node000005_Node000005"><a xlink:title=" ">
<path fill="none" stroke="#63b8ff" d="M552.77,-30.99C546.55,-40.06 556.71,-48.5 583.25,-48.5 597.76,-48.5 607.38,-45.97 612.09,-42.2"/>
<polygon fill="#63b8ff" stroke="#63b8ff" points="615.53,-42.88 613.51,-32.48 608.61,-41.87 615.53,-42.88"/>
</a>
</g>
</g>
</g>
</svg>
