<?xml version="1.0" encoding="UTF-8" standalone="no"?>
<!DOCTYPE svg PUBLIC "-//W3C//DTD SVG 1.1//EN"
 "http://www.w3.org/Graphics/SVG/1.1/DTD/svg11.dtd">
<!-- Generated by graphviz version 9.0.0 (20230911.1827)
 -->
<!-- Title: edu.wpi.first.wpilibj.Compressor.Compressor Pages: 1 -->
<svg width="553pt" height="88pt"
 viewBox="0.00 0.00 552.50 87.50" xmlns="http://www.w3.org/2000/svg" xmlns:xlink="http://www.w3.org/1999/xlink">
<g id="graph0" class="graph" transform="scale(1 1) rotate(0) translate(4 83.5)">
<title>edu.wpi.first.wpilibj.Compressor.Compressor</title>
<!-- Node1 -->
<g id="Node000001" class="node">
<title>Node1</title>
<g id="a_Node000001"><a xlink:title=" ">
<polygon fill="#999999" stroke="#666666" points="157.75,-54.5 0,-54.5 0,-24 157.75,-24 157.75,-54.5"/>
<text text-anchor="start" x="8" y="-41" font-family="Helvetica,sans-Serif" font-size="10.00">edu.wpi.first.wpilibj.Compressor.</text>
<text text-anchor="middle" x="78.88" y="-29.75" font-family="Helvetica,sans-Serif" font-size="10.00">Compressor</text>
</a>
</g>
</g>
<!-- Node2 -->
<g id="Node000002" class="node">
<title>Node2</title>
<g id="a_Node000002"><a xlink:href="interfaceedu_1_1wpi_1_1first_1_1wpilibj_1_1_pneumatics_base.html#a7f07af9f270e5dbb58336c1b605e6465" target="_top" xlink:title=" ">
<polygon fill="white" stroke="#666666" points="347.75,-54.5 193.75,-54.5 193.75,-24 347.75,-24 347.75,-54.5"/>
<text text-anchor="start" x="201.75" y="-41" font-family="Helvetica,sans-Serif" font-size="10.00">edu.wpi.first.wpilibj.Pneumatics</text>
<text text-anchor="middle" x="270.75" y="-29.75" font-family="Helvetica,sans-Serif" font-size="10.00">Base.getDefaultForType</text>
</a>
</g>
</g>
<!-- Node1&#45;&gt;Node2 -->
<g id="edge1_Node000001_Node000002" class="edge">
<title>Node1&#45;&gt;Node2</title>
<g id="a_edge1_Node000001_Node000002"><a xlink:title=" ">
<path fill="none" stroke="#63b8ff" d="M158.2,-39.25C166.12,-39.25 174.19,-39.25 182.19,-39.25"/>
<polygon fill="#63b8ff" stroke="#63b8ff" points="181.93,-42.75 191.93,-39.25 181.93,-35.75 181.93,-42.75"/>
</a>
</g>
</g>
<!-- Node3 -->
<g id="Node000003" class="node">
<title>Node3</title>
<g id="a_Node000003"><a xlink:href="classedu_1_1wpi_1_1first_1_1wpilibj_1_1_sensor_util.html#a7889ff0082624ed463b5149eb2d4abd6" target="_top" xlink:title=" ">
<polygon fill="white" stroke="#666666" points="544.5,-79.5 383.75,-79.5 383.75,-49 544.5,-49 544.5,-79.5"/>
<text text-anchor="start" x="391.75" y="-66" font-family="Helvetica,sans-Serif" font-size="10.00">edu.wpi.first.wpilibj.Sensor</text>
<text text-anchor="middle" x="464.12" y="-54.75" font-family="Helvetica,sans-Serif" font-size="10.00">Util.getDefaultCTREPCMModule</text>
</a>
</g>
</g>
<!-- Node2&#45;&gt;Node3 -->
<g id="edge2_Node000002_Node000003" class="edge">
<title>Node2&#45;&gt;Node3</title>
<g id="a_edge2_Node000002_Node000003"><a xlink:title=" ">
<path fill="none" stroke="#63b8ff" d="M348.21,-49.24C356.07,-50.26 364.1,-51.31 372.09,-52.36"/>
<polygon fill="#63b8ff" stroke="#63b8ff" points="371.47,-55.81 381.84,-53.63 372.38,-48.87 371.47,-55.81"/>
</a>
</g>
</g>
<!-- Node4 -->
<g id="Node000004" class="node">
<title>Node4</title>
<g id="a_Node000004"><a xlink:href="classedu_1_1wpi_1_1first_1_1wpilibj_1_1_sensor_util.html#a9d29bd9b554cc92650b42adc333681ef" target="_top" xlink:title=" ">
<polygon fill="white" stroke="#666666" points="537,-30.5 391.25,-30.5 391.25,0 537,0 537,-30.5"/>
<text text-anchor="start" x="399.25" y="-17" font-family="Helvetica,sans-Serif" font-size="10.00">edu.wpi.first.wpilibj.Sensor</text>
<text text-anchor="middle" x="464.12" y="-5.75" font-family="Helvetica,sans-Serif" font-size="10.00">Util.getDefaultREVPHModule</text>
</a>
</g>
</g>
<!-- Node2&#45;&gt;Node4 -->
<g id="edge3_Node000002_Node000004" class="edge">
<title>Node2&#45;&gt;Node4</title>
<g id="a_edge3_Node000002_Node000004"><a xlink:title=" ">
<path fill="none" stroke="#63b8ff" d="M348.21,-29.66C358.53,-28.37 369.17,-27.03 379.6,-25.72"/>
<polygon fill="#63b8ff" stroke="#63b8ff" points="379.84,-29.22 389.33,-24.51 378.97,-22.28 379.84,-29.22"/>
</a>
</g>
</g>
</g>
</svg>
