<?xml version="1.0" encoding="UTF-8" standalone="no"?>
<!DOCTYPE svg PUBLIC "-//W3C//DTD SVG 1.1//EN"
 "http://www.w3.org/Graphics/SVG/1.1/DTD/svg11.dtd">
<!-- Generated by graphviz version 9.0.0 (20230911.1827)
 -->
<!-- Title: edu.wpi.first.wpilibj.simulation.JoystickSim.setThrottle Pages: 1 -->
<svg width="548pt" height="88pt"
 viewBox="0.00 0.00 548.00 87.50" xmlns="http://www.w3.org/2000/svg" xmlns:xlink="http://www.w3.org/1999/xlink">
<g id="graph0" class="graph" transform="scale(1 1) rotate(0) translate(4 83.5)">
<title>edu.wpi.first.wpilibj.simulation.JoystickSim.setThrottle</title>
<!-- Node1 -->
<g id="Node000001" class="node">
<title>Node1</title>
<g id="a_Node000001"><a xlink:title=" ">
<polygon fill="#999999" stroke="#666666" points="149.5,-54.5 0,-54.5 0,-24 149.5,-24 149.5,-54.5"/>
<text text-anchor="start" x="8" y="-41" font-family="Helvetica,sans-Serif" font-size="10.00">edu.wpi.first.wpilibj.simulation.</text>
<text text-anchor="middle" x="74.75" y="-29.75" font-family="Helvetica,sans-Serif" font-size="10.00">JoystickSim.setThrottle</text>
</a>
</g>
</g>
<!-- Node2 -->
<g id="Node000002" class="node">
<title>Node2</title>
<g id="a_Node000002"><a xlink:href="classedu_1_1wpi_1_1first_1_1wpilibj_1_1_joystick.html#a7c6771db49c1399d18c2d544a5bb8a1f" target="_top" xlink:title=" ">
<polygon fill="white" stroke="#666666" points="341,-79.5 185.5,-79.5 185.5,-49 341,-49 341,-79.5"/>
<text text-anchor="start" x="193.5" y="-66" font-family="Helvetica,sans-Serif" font-size="10.00">edu.wpi.first.wpilibj.Joystick.get</text>
<text text-anchor="middle" x="263.25" y="-54.75" font-family="Helvetica,sans-Serif" font-size="10.00">ThrottleChannel</text>
</a>
</g>
</g>
<!-- Node1&#45;&gt;Node2 -->
<g id="edge1_Node000001_Node000002" class="edge">
<title>Node1&#45;&gt;Node2</title>
<g id="a_edge1_Node000001_Node000002"><a xlink:title=" ">
<path fill="none" stroke="#63b8ff" d="M150,-49.2C157.87,-50.26 165.93,-51.34 173.94,-52.41"/>
<polygon fill="#63b8ff" stroke="#63b8ff" points="173.33,-55.86 183.7,-53.72 174.26,-48.92 173.33,-55.86"/>
</a>
</g>
</g>
<!-- Node3 -->
<g id="Node000003" class="node">
<title>Node3</title>
<g id="a_Node000003"><a xlink:href="classedu_1_1wpi_1_1first_1_1wpilibj_1_1simulation_1_1_generic_h_i_d_sim.html#ab2de65f92fc4086b735632f62915807a" target="_top" xlink:title=" ">
<polygon fill="white" stroke="#666666" points="338,-30.5 188.5,-30.5 188.5,0 338,0 338,-30.5"/>
<text text-anchor="start" x="196.5" y="-17" font-family="Helvetica,sans-Serif" font-size="10.00">edu.wpi.first.wpilibj.simulation.</text>
<text text-anchor="middle" x="263.25" y="-5.75" font-family="Helvetica,sans-Serif" font-size="10.00">GenericHIDSim.setRawAxis</text>
</a>
</g>
</g>
<!-- Node1&#45;&gt;Node3 -->
<g id="edge2_Node000001_Node000003" class="edge">
<title>Node1&#45;&gt;Node3</title>
<g id="a_edge2_Node000001_Node000003"><a xlink:title=" ">
<path fill="none" stroke="#63b8ff" d="M150,-29.7C158.85,-28.56 167.95,-27.39 176.94,-26.23"/>
<polygon fill="#63b8ff" stroke="#63b8ff" points="177.29,-29.71 186.76,-24.96 176.39,-22.77 177.29,-29.71"/>
</a>
</g>
</g>
<!-- Node4 -->
<g id="Node000004" class="node">
<title>Node4</title>
<g id="a_Node000004"><a xlink:href="classedu_1_1wpi_1_1first_1_1wpilibj_1_1simulation_1_1_driver_station_sim.html#aa37b8fa424a018f4518fa6967deb3199" target="_top" xlink:title=" ">
<polygon fill="white" stroke="#666666" points="540,-30.5 377,-30.5 377,0 540,0 540,-30.5"/>
<text text-anchor="start" x="385" y="-17" font-family="Helvetica,sans-Serif" font-size="10.00">edu.wpi.first.wpilibj.simulation.</text>
<text text-anchor="middle" x="458.5" y="-5.75" font-family="Helvetica,sans-Serif" font-size="10.00">DriverStationSim.setJoystickAxis</text>
</a>
</g>
</g>
<!-- Node3&#45;&gt;Node4 -->
<g id="edge3_Node000003_Node000004" class="edge">
<title>Node3&#45;&gt;Node4</title>
<g id="a_edge3_Node000003_Node000004"><a xlink:title=" ">
<path fill="none" stroke="#63b8ff" d="M338.41,-15.25C347.24,-15.25 356.34,-15.25 365.38,-15.25"/>
<polygon fill="#63b8ff" stroke="#63b8ff" points="365.27,-18.75 375.27,-15.25 365.27,-11.75 365.27,-18.75"/>
</a>
</g>
</g>
</g>
</svg>
