<?xml version="1.0" encoding="UTF-8" standalone="no"?>
<!DOCTYPE svg PUBLIC "-//W3C//DTD SVG 1.1//EN"
 "http://www.w3.org/Graphics/SVG/1.1/DTD/svg11.dtd">
<!-- Generated by graphviz version 9.0.0 (20230911.1827)
 -->
<!-- Title: edu.wpi.first.wpilibj.TimedRobot.startCompetition Pages: 1 -->
<svg width="650pt" height="137pt"
 viewBox="0.00 0.00 650.25 136.50" xmlns="http://www.w3.org/2000/svg" xmlns:xlink="http://www.w3.org/1999/xlink">
<g id="graph0" class="graph" transform="scale(1 1) rotate(0) translate(4 132.5)">
<title>edu.wpi.first.wpilibj.TimedRobot.startCompetition</title>
<!-- Node1 -->
<g id="Node000001" class="node">
<title>Node1</title>
<g id="a_Node000001"><a xlink:title=" ">
<polygon fill="#999999" stroke="#666666" points="129.25,-79.5 0,-79.5 0,-49 129.25,-49 129.25,-79.5"/>
<text text-anchor="start" x="8" y="-66" font-family="Helvetica,sans-Serif" font-size="10.00">edu.wpi.first.wpilibj.Timed</text>
<text text-anchor="middle" x="64.62" y="-54.75" font-family="Helvetica,sans-Serif" font-size="10.00">Robot.startCompetition</text>
</a>
</g>
</g>
<!-- Node2 -->
<g id="Node000002" class="node">
<title>Node2</title>
<g id="a_Node000002"><a xlink:href="classedu_1_1wpi_1_1first_1_1wpilibj_1_1_robot_base.html#a0967199dad51087ce30c24599a132d70" target="_top" xlink:title=" ">
<polygon fill="white" stroke="#666666" points="298.25,-128.5 169.75,-128.5 169.75,-98 298.25,-98 298.25,-128.5"/>
<text text-anchor="start" x="177.75" y="-115" font-family="Helvetica,sans-Serif" font-size="10.00">edu.wpi.first.wpilibj.Robot</text>
<text text-anchor="middle" x="234" y="-103.75" font-family="Helvetica,sans-Serif" font-size="10.00">Base.isSimulation</text>
</a>
</g>
</g>
<!-- Node1&#45;&gt;Node2 -->
<g id="edge1_Node000001_Node000002" class="edge">
<title>Node1&#45;&gt;Node2</title>
<g id="a_edge1_Node000001_Node000002"><a xlink:title=" ">
<path fill="none" stroke="#63b8ff" d="M119.04,-79.89C134.82,-84.51 152.25,-89.61 168.64,-94.41"/>
<polygon fill="#63b8ff" stroke="#63b8ff" points="167.19,-97.63 177.77,-97.08 169.16,-90.91 167.19,-97.63"/>
</a>
</g>
</g>
<!-- Node5 -->
<g id="Node000005" class="node">
<title>Node5</title>
<g id="a_Node000005"><a xlink:href="classedu_1_1wpi_1_1first_1_1wpilibj_1_1_iterative_robot_base.html#a8e40cb99b35f6a835240d84fc2c89042" target="_top" xlink:title=" ">
<polygon fill="white" stroke="#666666" points="302.75,-79.5 165.25,-79.5 165.25,-49 302.75,-49 302.75,-79.5"/>
<text text-anchor="start" x="173.25" y="-66" font-family="Helvetica,sans-Serif" font-size="10.00">edu.wpi.first.wpilibj.Iterative</text>
<text text-anchor="middle" x="234" y="-54.75" font-family="Helvetica,sans-Serif" font-size="10.00">RobotBase.robotInit</text>
</a>
</g>
</g>
<!-- Node1&#45;&gt;Node5 -->
<g id="edge4_Node000001_Node000005" class="edge">
<title>Node1&#45;&gt;Node5</title>
<g id="a_edge4_Node000001_Node000005"><a xlink:title=" ">
<path fill="none" stroke="#63b8ff" d="M129.38,-64.25C137.29,-64.25 145.46,-64.25 153.57,-64.25"/>
<polygon fill="#63b8ff" stroke="#63b8ff" points="153.45,-67.75 163.45,-64.25 153.45,-60.75 153.45,-67.75"/>
</a>
</g>
</g>
<!-- Node6 -->
<g id="Node000006" class="node">
<title>Node6</title>
<g id="a_Node000006"><a xlink:href="classedu_1_1wpi_1_1first_1_1wpilibj_1_1_iterative_robot_base.html#abcaea1b96a1649264513bda012f26517" target="_top" xlink:title=" ">
<polygon fill="white" stroke="#666666" points="302.75,-30.5 165.25,-30.5 165.25,0 302.75,0 302.75,-30.5"/>
<text text-anchor="start" x="173.25" y="-17" font-family="Helvetica,sans-Serif" font-size="10.00">edu.wpi.first.wpilibj.Iterative</text>
<text text-anchor="middle" x="234" y="-5.75" font-family="Helvetica,sans-Serif" font-size="10.00">RobotBase.simulationInit</text>
</a>
</g>
</g>
<!-- Node1&#45;&gt;Node6 -->
<g id="edge5_Node000001_Node000006" class="edge">
<title>Node1&#45;&gt;Node6</title>
<g id="a_edge5_Node000001_Node000006"><a xlink:title=" ">
<path fill="none" stroke="#63b8ff" d="M119.04,-48.61C134.82,-43.99 152.25,-38.89 168.64,-34.09"/>
<polygon fill="#63b8ff" stroke="#63b8ff" points="169.16,-37.59 177.77,-31.42 167.19,-30.87 169.16,-37.59"/>
</a>
</g>
</g>
<!-- Node3 -->
<g id="Node000003" class="node">
<title>Node3</title>
<g id="a_Node000003"><a xlink:href="classedu_1_1wpi_1_1first_1_1wpilibj_1_1_robot_base.html#acb1ab38b3fc42bd9560d2112182e9906" target="_top" xlink:title=" ">
<polygon fill="white" stroke="#666666" points="467.25,-128.5 338.75,-128.5 338.75,-98 467.25,-98 467.25,-128.5"/>
<text text-anchor="start" x="346.75" y="-115" font-family="Helvetica,sans-Serif" font-size="10.00">edu.wpi.first.wpilibj.Robot</text>
<text text-anchor="middle" x="403" y="-103.75" font-family="Helvetica,sans-Serif" font-size="10.00">Base.getRuntimeType</text>
</a>
</g>
</g>
<!-- Node2&#45;&gt;Node3 -->
<g id="edge2_Node000002_Node000003" class="edge">
<title>Node2&#45;&gt;Node3</title>
<g id="a_edge2_Node000002_Node000003"><a xlink:title=" ">
<path fill="none" stroke="#63b8ff" d="M298.61,-113.25C307.85,-113.25 317.44,-113.25 326.88,-113.25"/>
<polygon fill="#63b8ff" stroke="#63b8ff" points="326.77,-116.75 336.77,-113.25 326.77,-109.75 326.77,-116.75"/>
</a>
</g>
</g>
<!-- Node4 -->
<g id="Node000004" class="node">
<title>Node4</title>
<g id="a_Node000004"><a xlink:href="enumedu_1_1wpi_1_1first_1_1wpilibj_1_1_runtime_type.html#a0053c02d1b47f237cd57a91da1bcaa47" target="_top" xlink:title=" ">
<polygon fill="white" stroke="#666666" points="642.25,-128.5 503.25,-128.5 503.25,-98 642.25,-98 642.25,-128.5"/>
<text text-anchor="start" x="511.25" y="-115" font-family="Helvetica,sans-Serif" font-size="10.00">edu.wpi.first.wpilibj.Runtime</text>
<text text-anchor="middle" x="572.75" y="-103.75" font-family="Helvetica,sans-Serif" font-size="10.00">Type.getValue</text>
</a>
</g>
</g>
<!-- Node3&#45;&gt;Node4 -->
<g id="edge3_Node000003_Node000004" class="edge">
<title>Node3&#45;&gt;Node4</title>
<g id="a_edge3_Node000003_Node000004"><a xlink:title=" ">
<path fill="none" stroke="#63b8ff" d="M467.42,-113.25C475.3,-113.25 483.44,-113.25 491.54,-113.25"/>
<polygon fill="#63b8ff" stroke="#63b8ff" points="491.4,-116.75 501.4,-113.25 491.4,-109.75 491.4,-116.75"/>
</a>
</g>
</g>
</g>
</svg>
