<?xml version="1.0" encoding="UTF-8" standalone="no"?>
<!DOCTYPE svg PUBLIC "-//W3C//DTD SVG 1.1//EN"
 "http://www.w3.org/Graphics/SVG/1.1/DTD/svg11.dtd">
<!-- Generated by graphviz version 9.0.0 (20230911.1827)
 -->
<!-- Title: edu.wpi.first.wpilibj.TimedRobot.addPeriodic Pages: 1 -->
<svg width="318pt" height="88pt"
 viewBox="0.00 0.00 317.50 87.50" xmlns="http://www.w3.org/2000/svg" xmlns:xlink="http://www.w3.org/1999/xlink">
<g id="graph0" class="graph" transform="scale(1 1) rotate(0) translate(4 83.5)">
<title>edu.wpi.first.wpilibj.TimedRobot.addPeriodic</title>
<!-- Node1 -->
<g id="Node000001" class="node">
<title>Node1</title>
<g id="a_Node000001"><a xlink:title=" ">
<polygon fill="#999999" stroke="#666666" points="309.5,-54.5 180.25,-54.5 180.25,-24 309.5,-24 309.5,-54.5"/>
<text text-anchor="start" x="188.25" y="-41" font-family="Helvetica,sans-Serif" font-size="10.00">edu.wpi.first.wpilibj.Timed</text>
<text text-anchor="middle" x="244.88" y="-29.75" font-family="Helvetica,sans-Serif" font-size="10.00">Robot.addPeriodic</text>
</a>
</g>
</g>
<!-- Node2 -->
<g id="Node000002" class="node">
<title>Node2</title>
<g id="a_Node000002"><a xlink:href="classedu_1_1wpi_1_1first_1_1wpilibj_1_1_timeslice_robot.html#a397b308ac831432ec18e5ede55c55b1b" target="_top" xlink:title=" ">
<polygon fill="white" stroke="#666666" points="144.25,-79.5 0,-79.5 0,-49 144.25,-49 144.25,-79.5"/>
<text text-anchor="start" x="8" y="-66" font-family="Helvetica,sans-Serif" font-size="10.00">edu.wpi.first.wpilibj.Timeslice</text>
<text text-anchor="middle" x="72.12" y="-54.75" font-family="Helvetica,sans-Serif" font-size="10.00">Robot.schedule</text>
</a>
</g>
</g>
<!-- Node1&#45;&gt;Node2 -->
<g id="edge1_Node000001_Node000002" class="edge">
<title>Node1&#45;&gt;Node2</title>
<g id="a_edge1_Node000001_Node000002"><a xlink:title=" ">
<path fill="none" stroke="#63b8ff" d="M168.67,-50.26C160.71,-51.43 152.63,-52.61 144.72,-53.77"/>
<polygon fill="#63b8ff" stroke="#63b8ff" points="168.92,-53.76 178.31,-48.85 167.91,-46.84 168.92,-53.76"/>
</a>
</g>
</g>
<!-- Node3 -->
<g id="Node000003" class="node">
<title>Node3</title>
<g id="a_Node000003"><a xlink:href="classedu_1_1wpi_1_1first_1_1wpilibj_1_1_timed_robot.html#ad671bcbaca1d342efeb25c34dfdc7782" target="_top" xlink:title=" ">
<polygon fill="white" stroke="#666666" points="136.75,-30.5 7.5,-30.5 7.5,0 136.75,0 136.75,-30.5"/>
<text text-anchor="start" x="15.5" y="-17" font-family="Helvetica,sans-Serif" font-size="10.00">edu.wpi.first.wpilibj.Timed</text>
<text text-anchor="middle" x="72.12" y="-5.75" font-family="Helvetica,sans-Serif" font-size="10.00">Robot.TimedRobot</text>
</a>
</g>
</g>
<!-- Node1&#45;&gt;Node3 -->
<g id="edge2_Node000001_Node000003" class="edge">
<title>Node1&#45;&gt;Node3</title>
<g id="a_edge2_Node000001_Node000003"><a xlink:title=" ">
<path fill="none" stroke="#63b8ff" d="M168.51,-28.66C157.99,-27.18 147.26,-25.67 136.98,-24.23"/>
<polygon fill="#63b8ff" stroke="#63b8ff" points="167.92,-32.11 178.31,-30.03 168.89,-25.18 167.92,-32.11"/>
</a>
</g>
</g>
</g>
</svg>
