<?xml version="1.0" encoding="UTF-8" standalone="no"?>
<!DOCTYPE svg PUBLIC "-//W3C//DTD SVG 1.1//EN"
 "http://www.w3.org/Graphics/SVG/1.1/DTD/svg11.dtd">
<!-- Generated by graphviz version 9.0.0 (20230911.1827)
 -->
<!-- Title: edu.wpi.first.wpilibj.simulation.GenericHIDSim.setPOVCount Pages: 1 -->
<svg width="376pt" height="382pt"
 viewBox="0.00 0.00 376.00 381.50" xmlns="http://www.w3.org/2000/svg" xmlns:xlink="http://www.w3.org/1999/xlink">

<svg id="main" version="1.1" xmlns="http://www.w3.org/2000/svg" xmlns:xlink="http://www.w3.org/1999/xlink" xml:space="preserve" onload="init(evt)">
<style type="text/css"><![CDATA[
.node, .edge {opacity: 0.7;}
.node.selected, .edge.selected {opacity: 1;}
.edge:hover path { stroke: red; }
.edge:hover polygon { stroke: red; fill: red; }
]]></style>
<script type="application/ecmascript" xlink:href="svg.min.js"/>
<svg id="graph" class="graph">
<g id="graph0" class="graph" transform="scale(1 1) rotate(0) translate(4 377.5)">
<title>edu.wpi.first.wpilibj.simulation.GenericHIDSim.setPOVCount</title>
<!-- Node1 -->
<g id="Node000001" class="node">
<title>Node1</title>
<g id="a_Node000001"><a xlink:title=" ">
<polygon fill="#999999" stroke="#666666" points="368,-201.5 218.5,-201.5 218.5,-171 368,-171 368,-201.5"/>
<text text-anchor="start" x="226.5" y="-188" font-family="Helvetica,sans-Serif" font-size="10.00">edu.wpi.first.wpilibj.simulation.</text>
<text text-anchor="middle" x="293.25" y="-176.75" font-family="Helvetica,sans-Serif" font-size="10.00">GenericHIDSim.setPOVCount</text>
</a>
</g>
</g>
<!-- Node2 -->
<g id="Node000002" class="node">
<title>Node2</title>
<g id="a_Node000002"><a xlink:href="classedu_1_1wpi_1_1first_1_1wpilibj_1_1simulation_1_1_joystick_sim.html#af7b5d6a288a37fc8a7c95f5db7d8ad51" target="_top" xlink:title=" ">
<polygon fill="white" stroke="#666666" points="166,-373.5 16.5,-373.5 16.5,-343 166,-343 166,-373.5"/>
<text text-anchor="start" x="24.5" y="-360" font-family="Helvetica,sans-Serif" font-size="10.00">edu.wpi.first.wpilibj.simulation.</text>
<text text-anchor="middle" x="91.25" y="-348.75" font-family="Helvetica,sans-Serif" font-size="10.00">JoystickSim.JoystickSim</text>
</a>
</g>
</g>
<!-- Node1&#45;&gt;Node2 -->
<g id="edge1_Node000001_Node000002" class="edge">
<title>Node1&#45;&gt;Node2</title>
<g id="a_edge1_Node000001_Node000002"><a xlink:title=" ">
<path fill="none" stroke="#63b8ff" d="M279.85,-212.04C262.62,-245.1 228.32,-301.91 182.5,-333.25 177.27,-336.83 171.53,-339.9 165.57,-342.53"/>
<polygon fill="#63b8ff" stroke="#63b8ff" points="282.95,-213.66 284.35,-203.15 276.71,-210.49 282.95,-213.66"/>
</a>
</g>
</g>
<!-- Node3 -->
<g id="Node000003" class="node">
<title>Node3</title>
<g id="a_Node000003"><a xlink:href="classedu_1_1wpi_1_1first_1_1wpilibj_1_1simulation_1_1_joystick_sim.html#a67efee935f2751b33146cfe5db90648f" target="_top" xlink:title=" ">
<polygon fill="white" stroke="#666666" points="166,-324.5 16.5,-324.5 16.5,-294 166,-294 166,-324.5"/>
<text text-anchor="start" x="24.5" y="-311" font-family="Helvetica,sans-Serif" font-size="10.00">edu.wpi.first.wpilibj.simulation.</text>
<text text-anchor="middle" x="91.25" y="-299.75" font-family="Helvetica,sans-Serif" font-size="10.00">JoystickSim.JoystickSim</text>
</a>
</g>
</g>
<!-- Node1&#45;&gt;Node3 -->
<g id="edge2_Node000001_Node000003" class="edge">
<title>Node1&#45;&gt;Node3</title>
<g id="a_edge2_Node000001_Node000003"><a xlink:title=" ">
<path fill="none" stroke="#63b8ff" d="M271.55,-210.2C251.07,-232.47 217.74,-265.02 182.5,-284.25 175.94,-287.83 168.82,-290.94 161.55,-293.61"/>
<polygon fill="#63b8ff" stroke="#63b8ff" points="273.9,-212.83 278,-203.06 268.7,-208.14 273.9,-212.83"/>
</a>
</g>
</g>
<!-- Node4 -->
<g id="Node000004" class="node">
<title>Node4</title>
<g id="a_Node000004"><a xlink:href="classedu_1_1wpi_1_1first_1_1wpilibj_1_1simulation_1_1_p_s4_controller_sim.html#ae4068fb329e73d35cb1cc4287b291109" target="_top" xlink:title=" ">
<polygon fill="white" stroke="#666666" points="178.75,-275.5 3.75,-275.5 3.75,-245 178.75,-245 178.75,-275.5"/>
<text text-anchor="start" x="11.75" y="-262" font-family="Helvetica,sans-Serif" font-size="10.00">edu.wpi.first.wpilibj.simulation.</text>
<text text-anchor="middle" x="91.25" y="-250.75" font-family="Helvetica,sans-Serif" font-size="10.00">PS4ControllerSim.PS4ControllerSim</text>
</a>
</g>
</g>
<!-- Node1&#45;&gt;Node4 -->
<g id="edge3_Node000001_Node000004" class="edge">
<title>Node1&#45;&gt;Node4</title>
<g id="a_edge3_Node000001_Node000004"><a xlink:title=" ">
<path fill="none" stroke="#63b8ff" d="M250.19,-206.81C230,-216.21 205.3,-227.05 182.5,-235.25 173.32,-238.55 163.49,-241.68 153.81,-244.53"/>
<polygon fill="#63b8ff" stroke="#63b8ff" points="251.67,-209.98 259.22,-202.55 248.69,-203.65 251.67,-209.98"/>
</a>
</g>
</g>
<!-- Node5 -->
<g id="Node000005" class="node">
<title>Node5</title>
<g id="a_Node000005"><a xlink:href="classedu_1_1wpi_1_1first_1_1wpilibj_1_1simulation_1_1_p_s4_controller_sim.html#a68d6b639de950b029f0ba0aeb56a5b22" target="_top" xlink:title=" ">
<polygon fill="white" stroke="#666666" points="178.75,-226.5 3.75,-226.5 3.75,-196 178.75,-196 178.75,-226.5"/>
<text text-anchor="start" x="11.75" y="-213" font-family="Helvetica,sans-Serif" font-size="10.00">edu.wpi.first.wpilibj.simulation.</text>
<text text-anchor="middle" x="91.25" y="-201.75" font-family="Helvetica,sans-Serif" font-size="10.00">PS4ControllerSim.PS4ControllerSim</text>
</a>
</g>
</g>
<!-- Node1&#45;&gt;Node5 -->
<g id="edge4_Node000001_Node000005" class="edge">
<title>Node1&#45;&gt;Node5</title>
<g id="a_edge4_Node000001_Node000005"><a xlink:title=" ">
<path fill="none" stroke="#63b8ff" d="M206.64,-196.95C197.54,-198.09 188.27,-199.25 179.15,-200.39"/>
<polygon fill="#63b8ff" stroke="#63b8ff" points="207.07,-200.42 216.56,-195.71 206.2,-193.48 207.07,-200.42"/>
</a>
</g>
</g>
<!-- Node6 -->
<g id="Node000006" class="node">
<title>Node6</title>
<g id="a_Node000006"><a xlink:href="classedu_1_1wpi_1_1first_1_1wpilibj_1_1simulation_1_1_p_s5_controller_sim.html#acc8f674aec65044288906963d9de0877" target="_top" xlink:title=" ">
<polygon fill="white" stroke="#666666" points="178.75,-177.5 3.75,-177.5 3.75,-147 178.75,-147 178.75,-177.5"/>
<text text-anchor="start" x="11.75" y="-164" font-family="Helvetica,sans-Serif" font-size="10.00">edu.wpi.first.wpilibj.simulation.</text>
<text text-anchor="middle" x="91.25" y="-152.75" font-family="Helvetica,sans-Serif" font-size="10.00">PS5ControllerSim.PS5ControllerSim</text>
</a>
</g>
</g>
<!-- Node1&#45;&gt;Node6 -->
<g id="edge5_Node000001_Node000006" class="edge">
<title>Node1&#45;&gt;Node6</title>
<g id="a_edge5_Node000001_Node000006"><a xlink:title=" ">
<path fill="none" stroke="#63b8ff" d="M206.64,-175.98C197.54,-174.88 188.27,-173.77 179.15,-172.68"/>
<polygon fill="#63b8ff" stroke="#63b8ff" points="206.21,-179.45 216.56,-177.17 207.05,-172.5 206.21,-179.45"/>
</a>
</g>
</g>
<!-- Node7 -->
<g id="Node000007" class="node">
<title>Node7</title>
<g id="a_Node000007"><a xlink:href="classedu_1_1wpi_1_1first_1_1wpilibj_1_1simulation_1_1_p_s5_controller_sim.html#acce7c45de82d8ab53466c2a6b14759bf" target="_top" xlink:title=" ">
<polygon fill="white" stroke="#666666" points="178.75,-128.5 3.75,-128.5 3.75,-98 178.75,-98 178.75,-128.5"/>
<text text-anchor="start" x="11.75" y="-115" font-family="Helvetica,sans-Serif" font-size="10.00">edu.wpi.first.wpilibj.simulation.</text>
<text text-anchor="middle" x="91.25" y="-103.75" font-family="Helvetica,sans-Serif" font-size="10.00">PS5ControllerSim.PS5ControllerSim</text>
</a>
</g>
</g>
<!-- Node1&#45;&gt;Node7 -->
<g id="edge6_Node000001_Node000007" class="edge">
<title>Node1&#45;&gt;Node7</title>
<g id="a_edge6_Node000001_Node000007"><a xlink:title=" ">
<path fill="none" stroke="#63b8ff" d="M249.26,-165.76C229.23,-156.65 204.93,-146.21 182.5,-138.25 173.15,-134.93 163.14,-131.77 153.3,-128.89"/>
<polygon fill="#63b8ff" stroke="#63b8ff" points="247.68,-168.88 258.23,-169.88 250.61,-162.52 247.68,-168.88"/>
</a>
</g>
</g>
<!-- Node8 -->
<g id="Node000008" class="node">
<title>Node8</title>
<g id="a_Node000008"><a xlink:href="classedu_1_1wpi_1_1first_1_1wpilibj_1_1simulation_1_1_xbox_controller_sim.html#a659d73bbbab888fc8ac0075f741594a1" target="_top" xlink:title=" ">
<polygon fill="white" stroke="#666666" points="182.5,-79.5 0,-79.5 0,-49 182.5,-49 182.5,-79.5"/>
<text text-anchor="start" x="8" y="-66" font-family="Helvetica,sans-Serif" font-size="10.00">edu.wpi.first.wpilibj.simulation.</text>
<text text-anchor="middle" x="91.25" y="-54.75" font-family="Helvetica,sans-Serif" font-size="10.00">XboxControllerSim.XboxControllerSim</text>
</a>
</g>
</g>
<!-- Node1&#45;&gt;Node8 -->
<g id="edge7_Node000001_Node000008" class="edge">
<title>Node1&#45;&gt;Node8</title>
<g id="a_edge7_Node000001_Node000008"><a xlink:title=" ">
<path fill="none" stroke="#63b8ff" d="M271.23,-162.26C250.69,-140.23 217.47,-108.22 182.5,-89.25 175.93,-85.68 168.8,-82.59 161.53,-79.92"/>
<polygon fill="#63b8ff" stroke="#63b8ff" points="268.62,-164.59 277.95,-169.62 273.79,-159.87 268.62,-164.59"/>
</a>
</g>
</g>
<!-- Node9 -->
<g id="Node000009" class="node">
<title>Node9</title>
<g id="a_Node000009"><a xlink:href="classedu_1_1wpi_1_1first_1_1wpilibj_1_1simulation_1_1_xbox_controller_sim.html#af44f2ef1bd17ec94a74cb324a8a7b46c" target="_top" xlink:title=" ">
<polygon fill="white" stroke="#666666" points="182.5,-30.5 0,-30.5 0,0 182.5,0 182.5,-30.5"/>
<text text-anchor="start" x="8" y="-17" font-family="Helvetica,sans-Serif" font-size="10.00">edu.wpi.first.wpilibj.simulation.</text>
<text text-anchor="middle" x="91.25" y="-5.75" font-family="Helvetica,sans-Serif" font-size="10.00">XboxControllerSim.XboxControllerSim</text>
</a>
</g>
</g>
<!-- Node1&#45;&gt;Node9 -->
<g id="edge8_Node000001_Node000009" class="edge">
<title>Node1&#45;&gt;Node9</title>
<g id="a_edge8_Node000001_Node000009"><a xlink:title=" ">
<path fill="none" stroke="#63b8ff" d="M279.8,-160.64C262.53,-127.8 228.17,-71.38 182.5,-40.25 177.26,-36.68 171.52,-33.62 165.56,-30.99"/>
<polygon fill="#63b8ff" stroke="#63b8ff" points="276.64,-162.15 284.31,-169.46 282.88,-158.96 276.64,-162.15"/>
</a>
</g>
</g>
</g>
</svg>
</svg>

<style type='text/css'>
<![CDATA[
[data-mouse-over-selected='false'] { opacity: 0.7; }
[data-mouse-over-selected='true']  { opacity: 1.0; }
]]>
</style>
<script type="application/ecmascript"><![CDATA[
document.addEventListener('DOMContentLoaded', (event) => {
  highlightEdges();
  highlightAdjacentNodes();
});
]]></script>
</svg>
