<?xml version="1.0" encoding="UTF-8" standalone="no"?>
<!DOCTYPE svg PUBLIC "-//W3C//DTD SVG 1.1//EN"
 "http://www.w3.org/Graphics/SVG/1.1/DTD/svg11.dtd">
<!-- Generated by graphviz version 9.0.0 (20230911.1827)
 -->
<!-- Title: edu.wpi.first.wpilibj.DoubleSolenoid.DoubleSolenoid Pages: 1 -->
<svg width="342pt" height="235pt"
 viewBox="0.00 0.00 341.50 234.50" xmlns="http://www.w3.org/2000/svg" xmlns:xlink="http://www.w3.org/1999/xlink">

<svg id="main" version="1.1" xmlns="http://www.w3.org/2000/svg" xmlns:xlink="http://www.w3.org/1999/xlink" xml:space="preserve" onload="init(evt)">
<style type="text/css"><![CDATA[
.node, .edge {opacity: 0.7;}
.node.selected, .edge.selected {opacity: 1;}
.edge:hover path { stroke: red; }
.edge:hover polygon { stroke: red; fill: red; }
]]></style>
<script type="application/ecmascript" xlink:href="svg.min.js"/>
<svg id="graph" class="graph">
<g id="graph0" class="graph" transform="scale(1 1) rotate(0) translate(4 230.5)">
<title>edu.wpi.first.wpilibj.DoubleSolenoid.DoubleSolenoid</title>
<!-- Node1 -->
<g id="Node000001" class="node">
<title>Node1</title>
<g id="a_Node000001"><a xlink:title=" ">
<polygon fill="#999999" stroke="#666666" points="133,-128.5 0,-128.5 0,-98 133,-98 133,-128.5"/>
<text text-anchor="start" x="8" y="-115" font-family="Helvetica,sans-Serif" font-size="10.00">edu.wpi.first.wpilibj.Double</text>
<text text-anchor="middle" x="66.5" y="-103.75" font-family="Helvetica,sans-Serif" font-size="10.00">Solenoid.DoubleSolenoid</text>
</a>
</g>
</g>
<!-- Node2 -->
<g id="Node000002" class="node">
<title>Node2</title>
<g id="a_Node000002"><a xlink:href="interfaceedu_1_1wpi_1_1first_1_1wpilibj_1_1_pneumatics_base.html#acf1a777fa361405063c18076b8406add" target="_top" xlink:title=" ">
<polygon fill="white" stroke="#666666" points="333.5,-226.5 169,-226.5 169,-196 333.5,-196 333.5,-226.5"/>
<text text-anchor="start" x="177" y="-213" font-family="Helvetica,sans-Serif" font-size="10.00">edu.wpi.first.wpilibj.Pneumatics</text>
<text text-anchor="middle" x="251.25" y="-201.75" font-family="Helvetica,sans-Serif" font-size="10.00">Base.checkAndReserveSolenoids</text>
</a>
</g>
</g>
<!-- Node1&#45;&gt;Node2 -->
<g id="edge1_Node000001_Node000002" class="edge">
<title>Node1&#45;&gt;Node2</title>
<g id="a_edge1_Node000001_Node000002"><a xlink:title=" ">
<path fill="none" stroke="#63b8ff" d="M85.41,-128.92C104.83,-145.22 137.31,-170.51 169,-186.25 172.72,-188.1 176.61,-189.84 180.58,-191.48"/>
<polygon fill="#63b8ff" stroke="#63b8ff" points="179.22,-194.71 189.81,-195.04 181.74,-188.18 179.22,-194.71"/>
</a>
</g>
</g>
<!-- Node3 -->
<g id="Node000003" class="node">
<title>Node3</title>
<g id="a_Node000003"><a xlink:href="interfaceedu_1_1wpi_1_1first_1_1wpilibj_1_1_pneumatics_base.html#a41018acbc303cf4186898d1999396d70" target="_top" xlink:title=" ">
<polygon fill="white" stroke="#666666" points="328.25,-177.5 174.25,-177.5 174.25,-147 328.25,-147 328.25,-177.5"/>
<text text-anchor="start" x="182.25" y="-164" font-family="Helvetica,sans-Serif" font-size="10.00">edu.wpi.first.wpilibj.Pneumatics</text>
<text text-anchor="middle" x="251.25" y="-152.75" font-family="Helvetica,sans-Serif" font-size="10.00">Base.checkSolenoidChannel</text>
</a>
</g>
</g>
<!-- Node1&#45;&gt;Node3 -->
<g id="edge2_Node000001_Node000003" class="edge">
<title>Node1&#45;&gt;Node3</title>
<g id="a_edge2_Node000001_Node000003"><a xlink:title=" ">
<path fill="none" stroke="#63b8ff" d="M126.08,-128.96C143.46,-133.62 162.66,-138.76 180.66,-143.59"/>
<polygon fill="#63b8ff" stroke="#63b8ff" points="179.66,-146.95 190.23,-146.16 181.48,-140.19 179.66,-146.95"/>
</a>
</g>
</g>
<!-- Node4 -->
<g id="Node000004" class="node">
<title>Node4</title>
<g id="a_Node000004"><a xlink:href="interfaceedu_1_1wpi_1_1first_1_1wpilibj_1_1_pneumatics_base.html#a618970029e859a9057aa0133ba7815f9" target="_top" xlink:title=" ">
<polygon fill="white" stroke="#666666" points="328.25,-128.5 174.25,-128.5 174.25,-98 328.25,-98 328.25,-128.5"/>
<text text-anchor="start" x="182.25" y="-115" font-family="Helvetica,sans-Serif" font-size="10.00">edu.wpi.first.wpilibj.Pneumatics</text>
<text text-anchor="middle" x="251.25" y="-103.75" font-family="Helvetica,sans-Serif" font-size="10.00">Base.getForType</text>
</a>
</g>
</g>
<!-- Node1&#45;&gt;Node4 -->
<g id="edge3_Node000001_Node000004" class="edge">
<title>Node1&#45;&gt;Node4</title>
<g id="a_edge3_Node000001_Node000004"><a xlink:title=" ">
<path fill="none" stroke="#63b8ff" d="M133.48,-113.25C142.88,-113.25 152.68,-113.25 162.42,-113.25"/>
<polygon fill="#63b8ff" stroke="#63b8ff" points="162.29,-116.75 172.29,-113.25 162.29,-109.75 162.29,-116.75"/>
</a>
</g>
</g>
<!-- Node5 -->
<g id="Node000005" class="node">
<title>Node5</title>
<g id="a_Node000005"><a xlink:href="interfaceedu_1_1wpi_1_1first_1_1wpilibj_1_1_pneumatics_base.html#ac43f66c196d81c321956d20dab1ac195" target="_top" xlink:title=" ">
<polygon fill="white" stroke="#666666" points="328.25,-79.5 174.25,-79.5 174.25,-49 328.25,-49 328.25,-79.5"/>
<text text-anchor="start" x="182.25" y="-66" font-family="Helvetica,sans-Serif" font-size="10.00">edu.wpi.first.wpilibj.Pneumatics</text>
<text text-anchor="middle" x="251.25" y="-54.75" font-family="Helvetica,sans-Serif" font-size="10.00">Base.getModuleNumber</text>
</a>
</g>
</g>
<!-- Node1&#45;&gt;Node5 -->
<g id="edge4_Node000001_Node000005" class="edge">
<title>Node1&#45;&gt;Node5</title>
<g id="a_edge4_Node000001_Node000005"><a xlink:title=" ">
<path fill="none" stroke="#63b8ff" d="M126.08,-97.54C143.46,-92.88 162.66,-87.74 180.66,-82.91"/>
<polygon fill="#63b8ff" stroke="#63b8ff" points="181.48,-86.31 190.23,-80.34 179.66,-79.55 181.48,-86.31"/>
</a>
</g>
</g>
<!-- Node6 -->
<g id="Node000006" class="node">
<title>Node6</title>
<g id="a_Node000006"><a xlink:href="interfaceedu_1_1wpi_1_1first_1_1wpilibj_1_1_pneumatics_base.html#a6a0a472c64e9cb72d102a2d975a0a75c" target="_top" xlink:title=" ">
<polygon fill="white" stroke="#666666" points="328.25,-30.5 174.25,-30.5 174.25,0 328.25,0 328.25,-30.5"/>
<text text-anchor="start" x="182.25" y="-17" font-family="Helvetica,sans-Serif" font-size="10.00">edu.wpi.first.wpilibj.Pneumatics</text>
<text text-anchor="middle" x="251.25" y="-5.75" font-family="Helvetica,sans-Serif" font-size="10.00">Base.unreserveSolenoids</text>
</a>
</g>
</g>
<!-- Node1&#45;&gt;Node6 -->
<g id="edge5_Node000001_Node000006" class="edge">
<title>Node1&#45;&gt;Node6</title>
<g id="a_edge5_Node000001_Node000006"><a xlink:title=" ">
<path fill="none" stroke="#63b8ff" d="M85.41,-97.58C104.83,-81.28 137.31,-55.99 169,-40.25 172.72,-38.4 176.61,-36.66 180.58,-35.02"/>
<polygon fill="#63b8ff" stroke="#63b8ff" points="181.74,-38.32 189.81,-31.46 179.22,-31.79 181.74,-38.32"/>
</a>
</g>
</g>
</g>
</svg>
</svg>

<style type='text/css'>
<![CDATA[
[data-mouse-over-selected='false'] { opacity: 0.7; }
[data-mouse-over-selected='true']  { opacity: 1.0; }
]]>
</style>
<script type="application/ecmascript"><![CDATA[
document.addEventListener('DOMContentLoaded', (event) => {
  highlightEdges();
  highlightAdjacentNodes();
});
]]></script>
</svg>
