<?xml version="1.0" encoding="UTF-8" standalone="no"?>
<!DOCTYPE svg PUBLIC "-//W3C//DTD SVG 1.1//EN"
 "http://www.w3.org/Graphics/SVG/1.1/DTD/svg11.dtd">
<!-- Generated by graphviz version 9.0.0 (20230911.1827)
 -->
<!-- Title: frc.robot.Robot.testInit Pages: 1 -->
<svg width="1070pt" height="88pt"
 viewBox="0.00 0.00 1070.00 87.50" xmlns="http://www.w3.org/2000/svg" xmlns:xlink="http://www.w3.org/1999/xlink">
<g id="graph0" class="graph" transform="scale(1 1) rotate(0) translate(4 83.5)">
<title>frc.robot.Robot.testInit</title>
<!-- Node1 -->
<g id="Node000001" class="node">
<title>Node1</title>
<g id="a_Node000001"><a xlink:title=" ">
<polygon fill="#999999" stroke="#666666" points="114.25,-45.88 0,-45.88 0,-26.62 114.25,-26.62 114.25,-45.88"/>
<text text-anchor="middle" x="57.12" y="-32.38" font-family="Helvetica,sans-Serif" font-size="10.00">frc.robot.Robot.testInit</text>
</a>
</g>
</g>
<!-- Node2 -->
<g id="Node000002" class="node">
<title>Node2</title>
<g id="a_Node000002"><a xlink:href="classedu_1_1wpi_1_1first_1_1wpilibj_1_1_filesystem.html#adef8c0b7018ff5ad8af3c4e9009db1e7" target="_top" xlink:title=" ">
<polygon fill="white" stroke="#666666" points="317,-51.5 150.25,-51.5 150.25,-21 317,-21 317,-51.5"/>
<text text-anchor="start" x="158.25" y="-38" font-family="Helvetica,sans-Serif" font-size="10.00">edu.wpi.first.wpilibj.Filesystem.get</text>
<text text-anchor="middle" x="233.62" y="-26.75" font-family="Helvetica,sans-Serif" font-size="10.00">DeployDirectory</text>
</a>
</g>
</g>
<!-- Node1&#45;&gt;Node2 -->
<g id="edge1_Node000001_Node000002" class="edge">
<title>Node1&#45;&gt;Node2</title>
<g id="a_edge1_Node000001_Node000002"><a xlink:title=" ">
<path fill="none" stroke="#63b8ff" d="M114.3,-36.25C122.11,-36.25 130.3,-36.25 138.57,-36.25"/>
<polygon fill="#63b8ff" stroke="#63b8ff" points="138.36,-39.75 148.36,-36.25 138.36,-32.75 138.36,-39.75"/>
</a>
</g>
</g>
<!-- Node3 -->
<g id="Node000003" class="node">
<title>Node3</title>
<g id="a_Node000003"><a xlink:href="classedu_1_1wpi_1_1first_1_1wpilibj_1_1_filesystem.html#ab0db0771adc04fb283e8191a4002d0ee" target="_top" xlink:title=" ">
<polygon fill="white" stroke="#666666" points="519.75,-73.5 353,-73.5 353,-43 519.75,-43 519.75,-73.5"/>
<text text-anchor="start" x="361" y="-60" font-family="Helvetica,sans-Serif" font-size="10.00">edu.wpi.first.wpilibj.Filesystem.get</text>
<text text-anchor="middle" x="436.38" y="-48.75" font-family="Helvetica,sans-Serif" font-size="10.00">OperatingDirectory</text>
</a>
</g>
</g>
<!-- Node2&#45;&gt;Node3 -->
<g id="edge2_Node000002_Node000003" class="edge">
<title>Node2&#45;&gt;Node3</title>
<g id="a_edge2_Node000002_Node000003"><a xlink:title=" ">
<path fill="none" stroke="#63b8ff" d="M317.44,-45.33C325.37,-46.19 333.44,-47.08 341.47,-47.96"/>
<polygon fill="#63b8ff" stroke="#63b8ff" points="340.93,-51.42 351.25,-49.03 341.69,-44.46 340.93,-51.42"/>
</a>
</g>
</g>
<!-- Node5 -->
<g id="Node000005" class="node">
<title>Node5</title>
<g id="a_Node000005"><a xlink:href="classedu_1_1wpi_1_1first_1_1wpilibj_1_1_robot_base.html#a0967199dad51087ce30c24599a132d70" target="_top" xlink:title=" ">
<polygon fill="white" stroke="#666666" points="703.38,-30.5 574.88,-30.5 574.88,0 703.38,0 703.38,-30.5"/>
<text text-anchor="start" x="582.88" y="-17" font-family="Helvetica,sans-Serif" font-size="10.00">edu.wpi.first.wpilibj.Robot</text>
<text text-anchor="middle" x="639.12" y="-5.75" font-family="Helvetica,sans-Serif" font-size="10.00">Base.isSimulation</text>
</a>
</g>
</g>
<!-- Node2&#45;&gt;Node5 -->
<g id="edge7_Node000002_Node000005" class="edge">
<title>Node2&#45;&gt;Node5</title>
<g id="a_edge7_Node000002_Node000005"><a xlink:title=" ">
<path fill="none" stroke="#63b8ff" d="M317.25,-31.95C389.44,-28.19 493.32,-22.79 563.14,-19.15"/>
<polygon fill="#63b8ff" stroke="#63b8ff" points="563.16,-22.66 572.96,-18.64 562.79,-15.67 563.16,-22.66"/>
</a>
</g>
</g>
<!-- Node4 -->
<g id="Node000004" class="node">
<title>Node4</title>
<g id="a_Node000004"><a xlink:href="classedu_1_1wpi_1_1first_1_1wpilibj_1_1_filesystem.html#a1b1eaa0766869a09f785cdd1ddcfc5ca" target="_top" xlink:title=" ">
<polygon fill="white" stroke="#666666" points="722.5,-79.5 555.75,-79.5 555.75,-49 722.5,-49 722.5,-79.5"/>
<text text-anchor="start" x="563.75" y="-66" font-family="Helvetica,sans-Serif" font-size="10.00">edu.wpi.first.wpilibj.Filesystem.get</text>
<text text-anchor="middle" x="639.12" y="-54.75" font-family="Helvetica,sans-Serif" font-size="10.00">LaunchDirectory</text>
</a>
</g>
</g>
<!-- Node3&#45;&gt;Node4 -->
<g id="edge3_Node000003_Node000004" class="edge">
<title>Node3&#45;&gt;Node4</title>
<g id="a_edge3_Node000003_Node000004"><a xlink:title=" ">
<path fill="none" stroke="#63b8ff" d="M520.19,-60.73C528.12,-60.96 536.19,-61.2 544.22,-61.44"/>
<polygon fill="#63b8ff" stroke="#63b8ff" points="543.89,-64.93 553.99,-61.74 544.1,-57.94 543.89,-64.93"/>
</a>
</g>
</g>
<!-- Node3&#45;&gt;Node5 -->
<g id="edge4_Node000003_Node000005" class="edge">
<title>Node3&#45;&gt;Node5</title>
<g id="a_edge4_Node000003_Node000005"><a xlink:title=" ">
<path fill="none" stroke="#63b8ff" d="M510.7,-42.54C527.88,-38.86 546.21,-34.94 563.45,-31.25"/>
<polygon fill="#63b8ff" stroke="#63b8ff" points="564.07,-34.69 573.12,-29.17 562.61,-27.85 564.07,-34.69"/>
</a>
</g>
</g>
<!-- Node6 -->
<g id="Node000006" class="node">
<title>Node6</title>
<g id="a_Node000006"><a xlink:href="classedu_1_1wpi_1_1first_1_1wpilibj_1_1_robot_base.html#acb1ab38b3fc42bd9560d2112182e9906" target="_top" xlink:title=" ">
<polygon fill="white" stroke="#666666" points="887,-30.5 758.5,-30.5 758.5,0 887,0 887,-30.5"/>
<text text-anchor="start" x="766.5" y="-17" font-family="Helvetica,sans-Serif" font-size="10.00">edu.wpi.first.wpilibj.Robot</text>
<text text-anchor="middle" x="822.75" y="-5.75" font-family="Helvetica,sans-Serif" font-size="10.00">Base.getRuntimeType</text>
</a>
</g>
</g>
<!-- Node5&#45;&gt;Node6 -->
<g id="edge5_Node000005_Node000006" class="edge">
<title>Node5&#45;&gt;Node6</title>
<g id="a_edge5_Node000005_Node000006"><a xlink:title=" ">
<path fill="none" stroke="#63b8ff" d="M703.65,-15.25C717.61,-15.25 732.53,-15.25 746.89,-15.25"/>
<polygon fill="#63b8ff" stroke="#63b8ff" points="746.75,-18.75 756.75,-15.25 746.75,-11.75 746.75,-18.75"/>
</a>
</g>
</g>
<!-- Node7 -->
<g id="Node000007" class="node">
<title>Node7</title>
<g id="a_Node000007"><a xlink:href="enumedu_1_1wpi_1_1first_1_1wpilibj_1_1_runtime_type.html#a0053c02d1b47f237cd57a91da1bcaa47" target="_top" xlink:title=" ">
<polygon fill="white" stroke="#666666" points="1062,-30.5 923,-30.5 923,0 1062,0 1062,-30.5"/>
<text text-anchor="start" x="931" y="-17" font-family="Helvetica,sans-Serif" font-size="10.00">edu.wpi.first.wpilibj.Runtime</text>
<text text-anchor="middle" x="992.5" y="-5.75" font-family="Helvetica,sans-Serif" font-size="10.00">Type.getValue</text>
</a>
</g>
</g>
<!-- Node6&#45;&gt;Node7 -->
<g id="edge6_Node000006_Node000007" class="edge">
<title>Node6&#45;&gt;Node7</title>
<g id="a_edge6_Node000006_Node000007"><a xlink:title=" ">
<path fill="none" stroke="#63b8ff" d="M887.17,-15.25C895.05,-15.25 903.19,-15.25 911.29,-15.25"/>
<polygon fill="#63b8ff" stroke="#63b8ff" points="911.15,-18.75 921.15,-15.25 911.15,-11.75 911.15,-18.75"/>
</a>
</g>
</g>
</g>
</svg>
