<?xml version="1.0" encoding="UTF-8" standalone="no"?>
<!DOCTYPE svg PUBLIC "-//W3C//DTD SVG 1.1//EN"
 "http://www.w3.org/Graphics/SVG/1.1/DTD/svg11.dtd">
<!-- Generated by graphviz version 9.0.0 (20230911.1827)
 -->
<!-- Title: edu.wpi.first.wpilibj.DriverStation.reportWarning Pages: 1 -->
<svg width="702pt" height="351pt"
 viewBox="0.00 0.00 702.00 350.50" xmlns="http://www.w3.org/2000/svg" xmlns:xlink="http://www.w3.org/1999/xlink">
<g id="graph0" class="graph" transform="scale(1 1) rotate(0) translate(4 346.5)">
<title>edu.wpi.first.wpilibj.DriverStation.reportWarning</title>
<!-- Node1 -->
<g id="Node000001" class="node">
<title>Node1</title>
<g id="a_Node000001"><a xlink:title=" ">
<polygon fill="#999999" stroke="#666666" points="694,-195.5 565.5,-195.5 565.5,-165 694,-165 694,-195.5"/>
<text text-anchor="start" x="573.5" y="-182" font-family="Helvetica,sans-Serif" font-size="10.00">edu.wpi.first.wpilibj.Driver</text>
<text text-anchor="middle" x="629.75" y="-170.75" font-family="Helvetica,sans-Serif" font-size="10.00">Station.reportWarning</text>
</a>
</g>
</g>
<!-- Node2 -->
<g id="Node000002" class="node">
<title>Node2</title>
<g id="a_Node000002"><a xlink:href="classedu_1_1wpi_1_1first_1_1wpilibj_1_1_a_d_i_s16448___i_m_u.html#a1095de4392b3de89ca34121213696b42" target="_top" xlink:title=" ">
<polygon fill="white" stroke="#666666" points="529.5,-342.5 377,-342.5 377,-312 529.5,-312 529.5,-342.5"/>
<text text-anchor="start" x="385" y="-329" font-family="Helvetica,sans-Serif" font-size="10.00">edu.wpi.first.wpilibj.ADIS16448</text>
<text text-anchor="middle" x="453.25" y="-317.75" font-family="Helvetica,sans-Serif" font-size="10.00">_IMU.ADIS16448_IMU</text>
</a>
</g>
</g>
<!-- Node1&#45;&gt;Node2 -->
<g id="edge1_Node000001_Node000002" class="edge">
<title>Node1&#45;&gt;Node2</title>
<g id="a_edge1_Node000001_Node000002"><a xlink:title=" ">
<path fill="none" stroke="#63b8ff" d="M614.35,-205.43C597.39,-232.94 566.76,-276.53 529.5,-302.25 524.29,-305.85 518.52,-308.96 512.56,-311.65"/>
<polygon fill="#63b8ff" stroke="#63b8ff" points="617.24,-207.41 619.38,-197.04 611.24,-203.81 617.24,-207.41"/>
</a>
</g>
</g>
<!-- Node3 -->
<g id="Node000003" class="node">
<title>Node3</title>
<g id="a_Node000003"><a xlink:href="classedu_1_1wpi_1_1first_1_1wpilibj_1_1_a_d_i_s16470___i_m_u.html#a843e6d9bf9ce30ebdbb3b788252171f5" target="_top" xlink:title=" ">
<polygon fill="white" stroke="#666666" points="529.5,-293.5 377,-293.5 377,-263 529.5,-263 529.5,-293.5"/>
<text text-anchor="start" x="385" y="-280" font-family="Helvetica,sans-Serif" font-size="10.00">edu.wpi.first.wpilibj.ADIS16470</text>
<text text-anchor="middle" x="453.25" y="-268.75" font-family="Helvetica,sans-Serif" font-size="10.00">_IMU.ADIS16470_IMU</text>
</a>
</g>
</g>
<!-- Node1&#45;&gt;Node3 -->
<g id="edge2_Node000001_Node000003" class="edge">
<title>Node1&#45;&gt;Node3</title>
<g id="a_edge2_Node000001_Node000003"><a xlink:title=" ">
<path fill="none" stroke="#63b8ff" d="M602.5,-203.13C583.32,-218.92 556.11,-239.48 529.5,-253.25 522.78,-256.73 515.47,-259.87 508.14,-262.65"/>
<polygon fill="#63b8ff" stroke="#63b8ff" points="604.66,-205.89 610.07,-196.78 600.16,-200.52 604.66,-205.89"/>
</a>
</g>
</g>
<!-- Node4 -->
<g id="Node000004" class="node">
<title>Node4</title>
<g id="a_Node000004"><a xlink:href="classedu_1_1wpi_1_1first_1_1wpilibj_1_1_analog_encoder.html#a8c16e04be49753f6ac9f2a8283885a95" target="_top" xlink:title=" ">
<polygon fill="white" stroke="#666666" points="519.38,-244.5 387.12,-244.5 387.12,-214 519.38,-214 519.38,-244.5"/>
<text text-anchor="start" x="395.12" y="-231" font-family="Helvetica,sans-Serif" font-size="10.00">edu.wpi.first.wpilibj.Analog</text>
<text text-anchor="middle" x="453.25" y="-219.75" font-family="Helvetica,sans-Serif" font-size="10.00">Encoder.get</text>
</a>
</g>
</g>
<!-- Node1&#45;&gt;Node4 -->
<g id="edge3_Node000001_Node000004" class="edge">
<title>Node1&#45;&gt;Node4</title>
<g id="a_edge3_Node000001_Node000004"><a xlink:title=" ">
<path fill="none" stroke="#63b8ff" d="M562.03,-198.98C544.96,-203.78 526.78,-208.88 510.31,-213.51"/>
<polygon fill="#63b8ff" stroke="#63b8ff" points="562.92,-202.37 571.6,-196.3 561.03,-195.63 562.92,-202.37"/>
</a>
</g>
</g>
<!-- Node5 -->
<g id="Node000005" class="node">
<title>Node5</title>
<g id="a_Node000005"><a xlink:href="classedu_1_1wpi_1_1first_1_1wpilibj_1_1_duty_cycle_encoder.html#ab24797f370bd529bc495a0cb9de23596" target="_top" xlink:title=" ">
<polygon fill="white" stroke="#666666" points="514.88,-195.5 391.62,-195.5 391.62,-165 514.88,-165 514.88,-195.5"/>
<text text-anchor="start" x="399.62" y="-182" font-family="Helvetica,sans-Serif" font-size="10.00">edu.wpi.first.wpilibj.Duty</text>
<text text-anchor="middle" x="453.25" y="-170.75" font-family="Helvetica,sans-Serif" font-size="10.00">CycleEncoder.get</text>
</a>
</g>
</g>
<!-- Node1&#45;&gt;Node5 -->
<g id="edge4_Node000001_Node000005" class="edge">
<title>Node1&#45;&gt;Node5</title>
<g id="a_edge4_Node000001_Node000005"><a xlink:title=" ">
<path fill="none" stroke="#63b8ff" d="M554.04,-180.25C541.14,-180.25 527.86,-180.25 515.36,-180.25"/>
<polygon fill="#63b8ff" stroke="#63b8ff" points="553.74,-183.75 563.74,-180.25 553.74,-176.75 553.74,-183.75"/>
</a>
</g>
</g>
<!-- Node6 -->
<g id="Node000006" class="node">
<title>Node6</title>
<g id="a_Node000006"><a xlink:href="classedu_1_1wpi_1_1first_1_1wpilibj_1_1_i2_c.html#a93be9556d7ef078d1c01dc13f99b8753" target="_top" xlink:title=" ">
<polygon fill="white" stroke="#666666" points="508.5,-146.5 398,-146.5 398,-116 508.5,-116 508.5,-146.5"/>
<text text-anchor="start" x="406" y="-133" font-family="Helvetica,sans-Serif" font-size="10.00">edu.wpi.first.wpilibj.I2</text>
<text text-anchor="middle" x="453.25" y="-121.75" font-family="Helvetica,sans-Serif" font-size="10.00">C.I2C</text>
</a>
</g>
</g>
<!-- Node1&#45;&gt;Node6 -->
<g id="edge5_Node000001_Node000006" class="edge">
<title>Node1&#45;&gt;Node6</title>
<g id="a_edge5_Node000001_Node000006"><a xlink:title=" ">
<path fill="none" stroke="#63b8ff" d="M562.25,-161.58C544.6,-156.62 525.75,-151.33 508.82,-146.57"/>
<polygon fill="#63b8ff" stroke="#63b8ff" points="561.03,-164.87 571.6,-164.2 562.92,-158.13 561.03,-164.87"/>
</a>
</g>
</g>
<!-- Node7 -->
<g id="Node000007" class="node">
<title>Node7</title>
<g id="a_Node000007"><a xlink:href="classedu_1_1wpi_1_1first_1_1wpilibj_1_1_tracer.html#a3949db6cbd88bbf06f7e9fc70194c1b1" target="_top" xlink:title=" ">
<polygon fill="white" stroke="#666666" points="528.75,-79.5 377.75,-79.5 377.75,-49 528.75,-49 528.75,-79.5"/>
<text text-anchor="start" x="385.75" y="-66" font-family="Helvetica,sans-Serif" font-size="10.00">edu.wpi.first.wpilibj.Tracer.print</text>
<text text-anchor="middle" x="453.25" y="-54.75" font-family="Helvetica,sans-Serif" font-size="10.00">Epochs</text>
</a>
</g>
</g>
<!-- Node1&#45;&gt;Node7 -->
<g id="edge6_Node000001_Node000007" class="edge">
<title>Node1&#45;&gt;Node7</title>
<g id="a_edge6_Node000001_Node000007"><a xlink:title=" ">
<path fill="none" stroke="#63b8ff" d="M600.12,-157.83C580.62,-142.91 554,-123.19 529.5,-107.25 514.62,-97.57 497.47,-87.68 483.3,-79.83"/>
<polygon fill="#63b8ff" stroke="#63b8ff" points="597.82,-160.48 607.88,-163.81 602.1,-154.94 597.82,-160.48"/>
</a>
</g>
</g>
<!-- Node10 -->
<g id="Node000010" class="node">
<title>Node10</title>
<g id="a_Node000010"><a xlink:href="classedu_1_1wpi_1_1first_1_1wpilibj_1_1_robot_base.html#aca4e3fd628a06764d869dc9ab535fb0d" target="_top" xlink:title=" ">
<polygon fill="white" stroke="#666666" points="517.5,-30.5 389,-30.5 389,0 517.5,0 517.5,-30.5"/>
<text text-anchor="start" x="397" y="-17" font-family="Helvetica,sans-Serif" font-size="10.00">edu.wpi.first.wpilibj.Robot</text>
<text text-anchor="middle" x="453.25" y="-5.75" font-family="Helvetica,sans-Serif" font-size="10.00">Base.startRobot</text>
</a>
</g>
</g>
<!-- Node1&#45;&gt;Node10 -->
<g id="edge10_Node000001_Node000010" class="edge">
<title>Node1&#45;&gt;Node10</title>
<g id="a_edge10_Node000001_Node000010"><a xlink:title=" ">
<path fill="none" stroke="#63b8ff" d="M616.94,-154.64C601.24,-123.31 570.62,-70.7 529.5,-40.25 524.63,-36.65 519.21,-33.54 513.58,-30.87"/>
<polygon fill="#63b8ff" stroke="#63b8ff" points="613.68,-155.94 621.2,-163.4 619.97,-152.87 613.68,-155.94"/>
</a>
</g>
</g>
<!-- Node7&#45;&gt;Node7 -->
<g id="edge7_Node000007_Node000007" class="edge">
<title>Node7&#45;&gt;Node7</title>
<g id="a_edge7_Node000007_Node000007"><a xlink:title=" ">
<path fill="none" stroke="#63b8ff" d="M482.85,-91.2C478.01,-94.97 468.14,-97.5 453.25,-97.5 426.02,-97.5 415.59,-89.06 421.97,-79.99"/>
<polygon fill="#63b8ff" stroke="#63b8ff" points="486.29,-91.89 484.3,-81.48 479.36,-90.86 486.29,-91.89"/>
</a>
</g>
</g>
<!-- Node8 -->
<g id="Node000008" class="node">
<title>Node8</title>
<g id="a_Node000008"><a xlink:href="classedu_1_1wpi_1_1first_1_1wpilibj_1_1_watchdog.html#a2576eb19306b2ba1468902b48818e6ad" target="_top" xlink:title=" ">
<polygon fill="white" stroke="#666666" points="341,-79.5 173.5,-79.5 173.5,-49 341,-49 341,-79.5"/>
<text text-anchor="start" x="181.5" y="-66" font-family="Helvetica,sans-Serif" font-size="10.00">edu.wpi.first.wpilibj.Watchdog.print</text>
<text text-anchor="middle" x="257.25" y="-54.75" font-family="Helvetica,sans-Serif" font-size="10.00">Epochs</text>
</a>
</g>
</g>
<!-- Node7&#45;&gt;Node8 -->
<g id="edge8_Node000007_Node000008" class="edge">
<title>Node7&#45;&gt;Node8</title>
<g id="a_edge8_Node000007_Node000008"><a xlink:title=" ">
<path fill="none" stroke="#63b8ff" d="M366.02,-64.25C357.81,-64.25 349.51,-64.25 341.33,-64.25"/>
<polygon fill="#63b8ff" stroke="#63b8ff" points="366.01,-67.75 376.01,-64.25 366.01,-60.75 366.01,-67.75"/>
</a>
</g>
</g>
<!-- Node9 -->
<g id="Node000009" class="node">
<title>Node9</title>
<g id="a_Node000009"><a xlink:href="classedu_1_1wpi_1_1first_1_1wpilibj_1_1_iterative_robot_base.html#aac5c45d7130bce188e0f9278075e8891" target="_top" xlink:title=" ">
<polygon fill="white" stroke="#666666" points="137.5,-79.5 0,-79.5 0,-49 137.5,-49 137.5,-79.5"/>
<text text-anchor="start" x="8" y="-66" font-family="Helvetica,sans-Serif" font-size="10.00">edu.wpi.first.wpilibj.Iterative</text>
<text text-anchor="middle" x="68.75" y="-54.75" font-family="Helvetica,sans-Serif" font-size="10.00">RobotBase.loopFunc</text>
</a>
</g>
</g>
<!-- Node8&#45;&gt;Node9 -->
<g id="edge9_Node000008_Node000009" class="edge">
<title>Node8&#45;&gt;Node9</title>
<g id="a_edge9_Node000008_Node000009"><a xlink:title=" ">
<path fill="none" stroke="#63b8ff" d="M161.75,-64.25C153.72,-64.25 145.71,-64.25 137.94,-64.25"/>
<polygon fill="#63b8ff" stroke="#63b8ff" points="161.58,-67.75 171.58,-64.25 161.58,-60.75 161.58,-67.75"/>
</a>
</g>
</g>
<!-- Node11 -->
<g id="Node000011" class="node">
<title>Node11</title>
<g id="a_Node000011"><a xlink:href="classfrc_1_1robot_1_1_main.html#ae60066a646cefc16d3e7d57b8fa22097" target="_top" xlink:title=" ">
<polygon fill="white" stroke="#666666" points="307.25,-24.88 207.25,-24.88 207.25,-5.62 307.25,-5.62 307.25,-24.88"/>
<text text-anchor="middle" x="257.25" y="-11.38" font-family="Helvetica,sans-Serif" font-size="10.00">frc.robot.Main.main</text>
</a>
</g>
</g>
<!-- Node10&#45;&gt;Node11 -->
<g id="edge11_Node000010_Node000011" class="edge">
<title>Node10&#45;&gt;Node11</title>
<g id="a_edge11_Node000010_Node000011"><a xlink:title=" ">
<path fill="none" stroke="#63b8ff" d="M377.39,-15.25C353.94,-15.25 328.66,-15.25 307.45,-15.25"/>
<polygon fill="#63b8ff" stroke="#63b8ff" points="377.21,-18.75 387.21,-15.25 377.21,-11.75 377.21,-18.75"/>
</a>
</g>
</g>
</g>
</svg>
