<?xml version="1.0" encoding="UTF-8" standalone="no"?>
<!DOCTYPE svg PUBLIC "-//W3C//DTD SVG 1.1//EN"
 "http://www.w3.org/Graphics/SVG/1.1/DTD/svg11.dtd">
<!-- Generated by graphviz version 9.0.0 (20230911.1827)
 -->
<!-- Title: edu.wpi.first.wpilibj.Timer.getFPGATimestamp Pages: 1 -->
<svg width="769pt" height="389pt"
 viewBox="0.00 0.00 768.75 388.50" xmlns="http://www.w3.org/2000/svg" xmlns:xlink="http://www.w3.org/1999/xlink">
<g id="graph0" class="graph" transform="scale(1 1) rotate(0) translate(4 384.5)">
<title>edu.wpi.first.wpilibj.Timer.getFPGATimestamp</title>
<!-- Node1 -->
<g id="Node000001" class="node">
<title>Node1</title>
<g id="a_Node000001"><a xlink:title=" ">
<polygon fill="#999999" stroke="#666666" points="760.75,-192.5 618,-192.5 618,-162 760.75,-162 760.75,-192.5"/>
<text text-anchor="start" x="626" y="-179" font-family="Helvetica,sans-Serif" font-size="10.00">edu.wpi.first.wpilibj.Timer.get</text>
<text text-anchor="middle" x="689.38" y="-167.75" font-family="Helvetica,sans-Serif" font-size="10.00">FPGATimestamp</text>
</a>
</g>
</g>
<!-- Node2 -->
<g id="Node000002" class="node">
<title>Node2</title>
<g id="a_Node000002"><a xlink:href="classfrc_1_1robot_1_1subsystems_1_1swervedrive_1_1_swerve_subsystem.html#a2f34b22b3166e26ae9b4a98024d4f0a1" target="_top" xlink:title=" ">
<polygon fill="white" stroke="#666666" points="582,-349.5 380,-349.5 380,-319 582,-319 582,-349.5"/>
<text text-anchor="start" x="388" y="-336" font-family="Helvetica,sans-Serif" font-size="10.00">frc.robot.subsystems.swervedrive.</text>
<text text-anchor="middle" x="481" y="-324.75" font-family="Helvetica,sans-Serif" font-size="10.00">SwerveSubsystem.addFakeVisionReading</text>
</a>
</g>
</g>
<!-- Node1&#45;&gt;Node2 -->
<g id="edge1_Node000001_Node000002" class="edge">
<title>Node1&#45;&gt;Node2</title>
<g id="a_edge1_Node000001_Node000002"><a xlink:title=" ">
<path fill="none" stroke="#63b8ff" d="M674.96,-202.35C657.57,-232.44 624.37,-282.17 582,-309.25 576.35,-312.86 570.2,-315.96 563.83,-318.6"/>
<polygon fill="#63b8ff" stroke="#63b8ff" points="677.85,-204.35 679.7,-193.92 671.75,-200.92 677.85,-204.35"/>
</a>
</g>
</g>
<!-- Node3 -->
<g id="Node000003" class="node">
<title>Node3</title>
<g id="a_Node000003"><a xlink:href="classedu_1_1wpi_1_1first_1_1wpilibj_1_1_motor_safety.html#a378effe2109461036a883da6e4a86675" target="_top" xlink:title=" ">
<polygon fill="white" stroke="#666666" points="544.5,-300.5 417.5,-300.5 417.5,-270 544.5,-270 544.5,-300.5"/>
<text text-anchor="start" x="425.5" y="-287" font-family="Helvetica,sans-Serif" font-size="10.00">edu.wpi.first.wpilibj.Motor</text>
<text text-anchor="middle" x="481" y="-275.75" font-family="Helvetica,sans-Serif" font-size="10.00">Safety.check</text>
</a>
</g>
</g>
<!-- Node1&#45;&gt;Node3 -->
<g id="edge2_Node000001_Node000003" class="edge">
<title>Node1&#45;&gt;Node3</title>
<g id="a_edge2_Node000001_Node000003"><a xlink:title=" ">
<path fill="none" stroke="#63b8ff" d="M665.03,-200.66C644.75,-219.7 613.72,-245.85 582,-261.25 570.44,-266.86 557.47,-271.22 544.8,-274.58"/>
<polygon fill="#63b8ff" stroke="#63b8ff" points="667.41,-203.23 672.2,-193.78 662.56,-198.18 667.41,-203.23"/>
</a>
</g>
</g>
<!-- Node4 -->
<g id="Node000004" class="node">
<title>Node4</title>
<g id="a_Node000004"><a xlink:href="classedu_1_1wpi_1_1first_1_1wpilibj_1_1_watchdog.html#aacdc6efc6b79902319f7b07344298c49" target="_top" xlink:title=" ">
<polygon fill="white" stroke="#666666" points="569.62,-251.88 392.38,-251.88 392.38,-232.62 569.62,-232.62 569.62,-251.88"/>
<text text-anchor="middle" x="481" y="-238.38" font-family="Helvetica,sans-Serif" font-size="10.00">edu.wpi.first.wpilibj.Watchdog.enable</text>
</a>
</g>
</g>
<!-- Node1&#45;&gt;Node4 -->
<g id="edge3_Node000001_Node000004" class="edge">
<title>Node1&#45;&gt;Node4</title>
<g id="a_edge3_Node000001_Node000004"><a xlink:title=" ">
<path fill="none" stroke="#63b8ff" d="M647.12,-197.62C627.73,-206.53 604.07,-216.47 582,-223.25 570.68,-226.73 558.44,-229.68 546.53,-232.16"/>
<polygon fill="#63b8ff" stroke="#63b8ff" points="648.47,-200.85 656.04,-193.44 645.5,-194.51 648.47,-200.85"/>
</a>
</g>
</g>
<!-- Node7 -->
<g id="Node000007" class="node">
<title>Node7</title>
<g id="a_Node000007"><a xlink:href="classedu_1_1wpi_1_1first_1_1wpilibj_1_1_motor_safety.html#a1cf5b3c42e8b01f45af0004135ce0ef3" target="_top" xlink:title=" ">
<polygon fill="white" stroke="#666666" points="544.5,-214.5 417.5,-214.5 417.5,-184 544.5,-184 544.5,-214.5"/>
<text text-anchor="start" x="425.5" y="-201" font-family="Helvetica,sans-Serif" font-size="10.00">edu.wpi.first.wpilibj.Motor</text>
<text text-anchor="middle" x="481" y="-189.75" font-family="Helvetica,sans-Serif" font-size="10.00">Safety.feed</text>
</a>
</g>
</g>
<!-- Node1&#45;&gt;Node7 -->
<g id="edge6_Node000001_Node000007" class="edge">
<title>Node1&#45;&gt;Node7</title>
<g id="a_edge6_Node000001_Node000007"><a xlink:title=" ">
<path fill="none" stroke="#63b8ff" d="M606.37,-185.99C585.84,-188.18 564.13,-190.49 544.7,-192.57"/>
<polygon fill="#63b8ff" stroke="#63b8ff" points="606.56,-189.49 616.14,-184.95 605.82,-182.53 606.56,-189.49"/>
</a>
</g>
</g>
<!-- Node15 -->
<g id="Node000015" class="node">
<title>Node15</title>
<g id="a_Node000015"><a xlink:href="classedu_1_1wpi_1_1first_1_1wpilibj_1_1_watchdog.html#a651b0d80df35d997e47df83c15bc6b1b" target="_top" xlink:title=" ">
<polygon fill="white" stroke="#666666" points="573,-165.88 389,-165.88 389,-146.62 573,-146.62 573,-165.88"/>
<text text-anchor="middle" x="481" y="-152.38" font-family="Helvetica,sans-Serif" font-size="10.00">edu.wpi.first.wpilibj.Watchdog.getTime</text>
</a>
</g>
</g>
<!-- Node1&#45;&gt;Node15 -->
<g id="edge14_Node000001_Node000015" class="edge">
<title>Node1&#45;&gt;Node15</title>
<g id="a_edge14_Node000001_Node000015"><a xlink:title=" ">
<path fill="none" stroke="#63b8ff" d="M606.47,-168.92C595.61,-167.81 584.43,-166.67 573.43,-165.55"/>
<polygon fill="#63b8ff" stroke="#63b8ff" points="605.83,-172.37 616.14,-169.9 606.54,-165.4 605.83,-172.37"/>
</a>
</g>
</g>
<!-- Node16 -->
<g id="Node000016" class="node">
<title>Node16</title>
<g id="a_Node000016"><a xlink:href="classedu_1_1wpi_1_1first_1_1wpilibj_1_1_motor_safety.html#a846ee424c635e266f91aca1fdcef760f" target="_top" xlink:title=" ">
<polygon fill="white" stroke="#666666" points="544.5,-128.5 417.5,-128.5 417.5,-98 544.5,-98 544.5,-128.5"/>
<text text-anchor="start" x="425.5" y="-115" font-family="Helvetica,sans-Serif" font-size="10.00">edu.wpi.first.wpilibj.Motor</text>
<text text-anchor="middle" x="481" y="-103.75" font-family="Helvetica,sans-Serif" font-size="10.00">Safety.isAlive</text>
</a>
</g>
</g>
<!-- Node1&#45;&gt;Node16 -->
<g id="edge15_Node000001_Node000016" class="edge">
<title>Node1&#45;&gt;Node16</title>
<g id="a_edge15_Node000001_Node000016"><a xlink:title=" ">
<path fill="none" stroke="#63b8ff" d="M639.83,-157.55C621.84,-150.63 601.15,-143.12 582,-137.25 570.05,-133.59 557.16,-130.13 544.74,-127.04"/>
<polygon fill="#63b8ff" stroke="#63b8ff" points="638.37,-160.73 648.96,-161.1 640.91,-154.21 638.37,-160.73"/>
</a>
</g>
</g>
<!-- Node17 -->
<g id="Node000017" class="node">
<title>Node17</title>
<g id="a_Node000017"><a xlink:href="classedu_1_1wpi_1_1first_1_1wpilibj_1_1_watchdog.html#a721d8b1a9ebc2ab5d11b1b3fddc2fd96" target="_top" xlink:title=" ">
<polygon fill="white" stroke="#666666" points="562.12,-79.5 399.88,-79.5 399.88,-49 562.12,-49 562.12,-79.5"/>
<text text-anchor="start" x="407.88" y="-66" font-family="Helvetica,sans-Serif" font-size="10.00">edu.wpi.first.wpilibj.Watchdog.set</text>
<text text-anchor="middle" x="481" y="-54.75" font-family="Helvetica,sans-Serif" font-size="10.00">Timeout</text>
</a>
</g>
</g>
<!-- Node1&#45;&gt;Node17 -->
<g id="edge16_Node000001_Node000017" class="edge">
<title>Node1&#45;&gt;Node17</title>
<g id="a_edge16_Node000001_Node000017"><a xlink:title=" ">
<path fill="none" stroke="#63b8ff" d="M666.17,-153.72C646.02,-133.72 614.57,-105.71 582,-89.25 574.97,-85.7 567.41,-82.63 559.7,-79.98"/>
<polygon fill="#63b8ff" stroke="#63b8ff" points="663.5,-156 673.02,-160.66 668.49,-151.08 663.5,-156"/>
</a>
</g>
</g>
<!-- Node18 -->
<g id="Node000018" class="node">
<title>Node18</title>
<g id="a_Node000018"><a xlink:href="classedu_1_1wpi_1_1first_1_1wpilibj_1_1_timed_robot.html#ad671bcbaca1d342efeb25c34dfdc7782" target="_top" xlink:title=" ">
<polygon fill="white" stroke="#666666" points="545.62,-30.5 416.38,-30.5 416.38,0 545.62,0 545.62,-30.5"/>
<text text-anchor="start" x="424.38" y="-17" font-family="Helvetica,sans-Serif" font-size="10.00">edu.wpi.first.wpilibj.Timed</text>
<text text-anchor="middle" x="481" y="-5.75" font-family="Helvetica,sans-Serif" font-size="10.00">Robot.TimedRobot</text>
</a>
</g>
</g>
<!-- Node1&#45;&gt;Node18 -->
<g id="edge17_Node000001_Node000018" class="edge">
<title>Node1&#45;&gt;Node18</title>
<g id="a_edge17_Node000001_Node000018"><a xlink:title=" ">
<path fill="none" stroke="#63b8ff" d="M675.47,-151.68C658.4,-120.51 625.32,-68.5 582,-40.25 571.21,-33.21 558.57,-28.16 545.99,-24.52"/>
<polygon fill="#63b8ff" stroke="#63b8ff" points="672.34,-153.24 680.12,-160.43 678.52,-149.96 672.34,-153.24"/>
</a>
</g>
</g>
<!-- Node5 -->
<g id="Node000005" class="node">
<title>Node5</title>
<g id="a_Node000005"><a xlink:href="classedu_1_1wpi_1_1first_1_1wpilibj_1_1_watchdog.html#afbebfdef0304b43e207e20d43cfba7bb" target="_top" xlink:title=" ">
<polygon fill="white" stroke="#666666" points="344,-374.88 173.5,-374.88 173.5,-355.62 344,-355.62 344,-374.88"/>
<text text-anchor="middle" x="258.75" y="-361.38" font-family="Helvetica,sans-Serif" font-size="10.00">edu.wpi.first.wpilibj.Watchdog.reset</text>
</a>
</g>
</g>
<!-- Node4&#45;&gt;Node5 -->
<g id="edge4_Node000004_Node000005" class="edge">
<title>Node4&#45;&gt;Node5</title>
<g id="a_edge4_Node000004_Node000005"><a xlink:title=" ">
<path fill="none" stroke="#63b8ff" d="M384.69,-257.79C383.08,-258.88 381.51,-260.03 380,-261.25 348.07,-287.01 375.48,-319.95 344,-346.25 339.74,-349.81 334.96,-352.73 329.88,-355.14"/>
<polygon fill="#63b8ff" stroke="#63b8ff" points="386.12,-261.01 393.09,-253.02 382.67,-254.92 386.12,-261.01"/>
</a>
</g>
</g>
<!-- Node6 -->
<g id="Node000006" class="node">
<title>Node6</title>
<g id="a_Node000006"><a xlink:href="classedu_1_1wpi_1_1first_1_1wpilibj_1_1_iterative_robot_base.html#aac5c45d7130bce188e0f9278075e8891" target="_top" xlink:title=" ">
<polygon fill="white" stroke="#666666" points="137.5,-380.5 0,-380.5 0,-350 137.5,-350 137.5,-380.5"/>
<text text-anchor="start" x="8" y="-367" font-family="Helvetica,sans-Serif" font-size="10.00">edu.wpi.first.wpilibj.Iterative</text>
<text text-anchor="middle" x="68.75" y="-355.75" font-family="Helvetica,sans-Serif" font-size="10.00">RobotBase.loopFunc</text>
</a>
</g>
</g>
<!-- Node5&#45;&gt;Node6 -->
<g id="edge5_Node000005_Node000006" class="edge">
<title>Node5&#45;&gt;Node6</title>
<g id="a_edge5_Node000005_Node000006"><a xlink:title=" ">
<path fill="none" stroke="#63b8ff" d="M161.73,-365.25C153.68,-365.25 145.65,-365.25 137.88,-365.25"/>
<polygon fill="#63b8ff" stroke="#63b8ff" points="161.59,-368.75 171.59,-365.25 161.59,-361.75 161.59,-368.75"/>
</a>
</g>
</g>
<!-- Node8 -->
<g id="Node000008" class="node">
<title>Node8</title>
<g id="a_Node000008"><a xlink:href="classedu_1_1wpi_1_1first_1_1wpilibj_1_1drive_1_1_differential_drive.html#ac127c082834f02d435b1da69e221221e" target="_top" xlink:title=" ">
<polygon fill="white" stroke="#666666" points="329.75,-337.5 187.75,-337.5 187.75,-307 329.75,-307 329.75,-337.5"/>
<text text-anchor="start" x="195.75" y="-324" font-family="Helvetica,sans-Serif" font-size="10.00">edu.wpi.first.wpilibj.drive.</text>
<text text-anchor="middle" x="258.75" y="-312.75" font-family="Helvetica,sans-Serif" font-size="10.00">DifferentialDrive.arcadeDrive</text>
</a>
</g>
</g>
<!-- Node7&#45;&gt;Node8 -->
<g id="edge7_Node000007_Node000008" class="edge">
<title>Node7&#45;&gt;Node8</title>
<g id="a_edge7_Node000007_Node000008"><a xlink:title=" ">
<path fill="none" stroke="#63b8ff" d="M406.32,-208.92C396.83,-212.39 387.74,-217.03 380,-223.25 351.49,-246.16 371.9,-273.6 344,-297.25 339.69,-300.9 334.87,-304.02 329.78,-306.68"/>
<polygon fill="#63b8ff" stroke="#63b8ff" points="407.24,-212.3 415.71,-205.94 405.12,-205.63 407.24,-212.3"/>
</a>
</g>
</g>
<!-- Node9 -->
<g id="Node000009" class="node">
<title>Node9</title>
<g id="a_Node000009"><a xlink:href="classedu_1_1wpi_1_1first_1_1wpilibj_1_1drive_1_1_differential_drive.html#aa26c304f5d903f8a042548e4b339dbd9" target="_top" xlink:title=" ">
<polygon fill="white" stroke="#666666" points="335.38,-288.5 182.12,-288.5 182.12,-258 335.38,-258 335.38,-288.5"/>
<text text-anchor="start" x="190.12" y="-275" font-family="Helvetica,sans-Serif" font-size="10.00">edu.wpi.first.wpilibj.drive.</text>
<text text-anchor="middle" x="258.75" y="-263.75" font-family="Helvetica,sans-Serif" font-size="10.00">DifferentialDrive.curvatureDrive</text>
</a>
</g>
</g>
<!-- Node7&#45;&gt;Node9 -->
<g id="edge8_Node000007_Node000009" class="edge">
<title>Node7&#45;&gt;Node9</title>
<g id="a_edge8_Node000007_Node000009"><a xlink:title=" ">
<path fill="none" stroke="#63b8ff" d="M406.22,-213.64C397.22,-216.36 388.28,-219.54 380,-223.25 362.22,-231.22 361.56,-239.82 344,-248.25 336.71,-251.75 328.83,-254.87 320.91,-257.62"/>
<polygon fill="#63b8ff" stroke="#63b8ff" points="407.06,-217.03 415.74,-210.96 405.17,-210.3 407.06,-217.03"/>
</a>
</g>
</g>
<!-- Node10 -->
<g id="Node000010" class="node">
<title>Node10</title>
<g id="a_Node000010"><a xlink:href="classedu_1_1wpi_1_1first_1_1wpilibj_1_1drive_1_1_mecanum_drive.html#a346448c6268f5e7eac322b055d9544d4" target="_top" xlink:title=" ">
<polygon fill="white" stroke="#666666" points="332.75,-239.5 184.75,-239.5 184.75,-209 332.75,-209 332.75,-239.5"/>
<text text-anchor="start" x="192.75" y="-226" font-family="Helvetica,sans-Serif" font-size="10.00">edu.wpi.first.wpilibj.drive.</text>
<text text-anchor="middle" x="258.75" y="-214.75" font-family="Helvetica,sans-Serif" font-size="10.00">MecanumDrive.driveCartesian</text>
</a>
</g>
</g>
<!-- Node7&#45;&gt;Node10 -->
<g id="edge9_Node000007_Node000010" class="edge">
<title>Node7&#45;&gt;Node10</title>
<g id="a_edge9_Node000007_Node000010"><a xlink:title=" ">
<path fill="none" stroke="#63b8ff" d="M405.89,-207.66C382.45,-210.32 356.56,-213.26 333.17,-215.92"/>
<polygon fill="#63b8ff" stroke="#63b8ff" points="406.13,-211.16 415.68,-206.55 405.35,-204.2 406.13,-211.16"/>
</a>
</g>
</g>
<!-- Node11 -->
<g id="Node000011" class="node">
<title>Node11</title>
<g id="a_Node000011"><a xlink:href="classedu_1_1wpi_1_1first_1_1wpilibj_1_1drive_1_1_robot_drive_base.html#a1ec69d1094ba16beb8fa50383608b969" target="_top" xlink:title=" ">
<polygon fill="white" stroke="#666666" points="335.38,-190.5 182.12,-190.5 182.12,-160 335.38,-160 335.38,-190.5"/>
<text text-anchor="start" x="190.12" y="-177" font-family="Helvetica,sans-Serif" font-size="10.00">edu.wpi.first.wpilibj.drive.</text>
<text text-anchor="middle" x="258.75" y="-165.75" font-family="Helvetica,sans-Serif" font-size="10.00">RobotDriveBase.feedWatchdog</text>
</a>
</g>
</g>
<!-- Node7&#45;&gt;Node11 -->
<g id="edge10_Node000007_Node000011" class="edge">
<title>Node7&#45;&gt;Node11</title>
<g id="a_edge10_Node000007_Node000011"><a xlink:title=" ">
<path fill="none" stroke="#63b8ff" d="M405.91,-191.18C383.26,-188.71 358.32,-185.99 335.55,-183.51"/>
<polygon fill="#63b8ff" stroke="#63b8ff" points="405.35,-194.64 415.68,-192.24 406.11,-187.68 405.35,-194.64"/>
</a>
</g>
</g>
<!-- Node12 -->
<g id="Node000012" class="node">
<title>Node12</title>
<g id="a_Node000012"><a xlink:href="classedu_1_1wpi_1_1first_1_1wpilibj_1_1drive_1_1_differential_drive.html#ae0a416b71c085dccbe717fb72164b6bf" target="_top" xlink:title=" ">
<polygon fill="white" stroke="#666666" points="325.25,-141.5 192.25,-141.5 192.25,-111 325.25,-111 325.25,-141.5"/>
<text text-anchor="start" x="200.25" y="-128" font-family="Helvetica,sans-Serif" font-size="10.00">edu.wpi.first.wpilibj.drive.</text>
<text text-anchor="middle" x="258.75" y="-116.75" font-family="Helvetica,sans-Serif" font-size="10.00">DifferentialDrive.stopMotor</text>
</a>
</g>
</g>
<!-- Node7&#45;&gt;Node12 -->
<g id="edge11_Node000007_Node000012" class="edge">
<title>Node7&#45;&gt;Node12</title>
<g id="a_edge11_Node000007_Node000012"><a xlink:title=" ">
<path fill="none" stroke="#63b8ff" d="M406.1,-184.66C397.15,-181.97 388.26,-178.86 380,-175.25 362.38,-167.55 361.41,-159.41 344,-151.25 336.54,-147.75 328.48,-144.62 320.4,-141.85"/>
<polygon fill="#63b8ff" stroke="#63b8ff" points="404.98,-187.98 415.55,-187.3 406.87,-181.24 404.98,-187.98"/>
</a>
</g>
</g>
<!-- Node13 -->
<g id="Node000013" class="node">
<title>Node13</title>
<g id="a_Node000013"><a xlink:href="classedu_1_1wpi_1_1first_1_1wpilibj_1_1drive_1_1_mecanum_drive.html#a705384b17e708185aaff6f931f68c8ff" target="_top" xlink:title=" ">
<polygon fill="white" stroke="#666666" points="323,-92.5 194.5,-92.5 194.5,-62 323,-62 323,-92.5"/>
<text text-anchor="start" x="202.5" y="-79" font-family="Helvetica,sans-Serif" font-size="10.00">edu.wpi.first.wpilibj.drive.</text>
<text text-anchor="middle" x="258.75" y="-67.75" font-family="Helvetica,sans-Serif" font-size="10.00">MecanumDrive.stopMotor</text>
</a>
</g>
</g>
<!-- Node7&#45;&gt;Node13 -->
<g id="edge12_Node000007_Node000013" class="edge">
<title>Node7&#45;&gt;Node13</title>
<g id="a_edge12_Node000007_Node000013"><a xlink:title=" ">
<path fill="none" stroke="#63b8ff" d="M406.35,-189.54C396.85,-186.08 387.75,-181.44 380,-175.25 351.74,-152.67 371.66,-125.57 344,-102.25 337.93,-97.14 330.86,-93.07 323.43,-89.83"/>
<polygon fill="#63b8ff" stroke="#63b8ff" points="405.16,-192.84 415.75,-192.52 407.27,-186.16 405.16,-192.84"/>
</a>
</g>
</g>
<!-- Node14 -->
<g id="Node000014" class="node">
<title>Node14</title>
<g id="a_Node000014"><a xlink:href="classedu_1_1wpi_1_1first_1_1wpilibj_1_1drive_1_1_differential_drive.html#a9de9fe4f7b51d1e79f93cfc326391917" target="_top" xlink:title=" ">
<polygon fill="white" stroke="#666666" points="324.5,-43.5 193,-43.5 193,-13 324.5,-13 324.5,-43.5"/>
<text text-anchor="start" x="201" y="-30" font-family="Helvetica,sans-Serif" font-size="10.00">edu.wpi.first.wpilibj.drive.</text>
<text text-anchor="middle" x="258.75" y="-18.75" font-family="Helvetica,sans-Serif" font-size="10.00">DifferentialDrive.tankDrive</text>
</a>
</g>
</g>
<!-- Node7&#45;&gt;Node14 -->
<g id="edge13_Node000007_Node000014" class="edge">
<title>Node7&#45;&gt;Node14</title>
<g id="a_edge13_Node000007_Node000014"><a xlink:title=" ">
<path fill="none" stroke="#63b8ff" d="M406.37,-191.12C396.64,-187.45 387.46,-182.34 380,-175.25 339.01,-136.32 383.94,-93.26 344,-53.25 338.5,-47.74 331.85,-43.44 324.72,-40.08"/>
<polygon fill="#63b8ff" stroke="#63b8ff" points="405.07,-194.38 415.66,-194.1 407.2,-187.71 405.07,-194.38"/>
</a>
</g>
</g>
</g>
</svg>
