<?xml version="1.0" encoding="UTF-8" standalone="no"?>
<!DOCTYPE svg PUBLIC "-//W3C//DTD SVG 1.1//EN"
 "http://www.w3.org/Graphics/SVG/1.1/DTD/svg11.dtd">
<!-- Generated by graphviz version 9.0.0 (20230911.1827)
 -->
<!-- Title: edu.wpi.first.wpilibj.Tracer.resetTimer Pages: 1 -->
<svg width="945pt" height="109pt"
 viewBox="0.00 0.00 944.50 108.50" xmlns="http://www.w3.org/2000/svg" xmlns:xlink="http://www.w3.org/1999/xlink">
<g id="graph0" class="graph" transform="scale(1 1) rotate(0) translate(4 104.5)">
<title>edu.wpi.first.wpilibj.Tracer.resetTimer</title>
<!-- Node1 -->
<g id="Node000001" class="node">
<title>Node1</title>
<g id="a_Node000001"><a xlink:title=" ">
<polygon fill="#999999" stroke="#666666" points="936.5,-54.5 782.5,-54.5 782.5,-24 936.5,-24 936.5,-54.5"/>
<text text-anchor="start" x="790.5" y="-41" font-family="Helvetica,sans-Serif" font-size="10.00">edu.wpi.first.wpilibj.Tracer.reset</text>
<text text-anchor="middle" x="859.5" y="-29.75" font-family="Helvetica,sans-Serif" font-size="10.00">Timer</text>
</a>
</g>
</g>
<!-- Node2 -->
<g id="Node000002" class="node">
<title>Node2</title>
<g id="a_Node000002"><a xlink:href="classedu_1_1wpi_1_1first_1_1wpilibj_1_1_tracer.html#a7af804d6dc75797c90b3701efe9917fb" target="_top" xlink:title=" ">
<polygon fill="white" stroke="#666666" points="746.5,-79.5 593.25,-79.5 593.25,-49 746.5,-49 746.5,-79.5"/>
<text text-anchor="start" x="601.25" y="-66" font-family="Helvetica,sans-Serif" font-size="10.00">edu.wpi.first.wpilibj.Tracer.clear</text>
<text text-anchor="middle" x="669.88" y="-54.75" font-family="Helvetica,sans-Serif" font-size="10.00">Epochs</text>
</a>
</g>
</g>
<!-- Node1&#45;&gt;Node2 -->
<g id="edge1_Node000001_Node000002" class="edge">
<title>Node1&#45;&gt;Node2</title>
<g id="a_edge1_Node000001_Node000002"><a xlink:title=" ">
<path fill="none" stroke="#63b8ff" d="M770.88,-50.92C762.84,-52 754.74,-53.08 746.82,-54.13"/>
<polygon fill="#63b8ff" stroke="#63b8ff" points="771.24,-54.41 780.69,-49.62 770.31,-47.47 771.24,-54.41"/>
</a>
</g>
</g>
<!-- Node7 -->
<g id="Node000007" class="node">
<title>Node7</title>
<g id="a_Node000007"><a xlink:href="classedu_1_1wpi_1_1first_1_1wpilibj_1_1_tracer.html#a7e961486be4734200ce7f9517c9aee26" target="_top" xlink:title=" ">
<polygon fill="white" stroke="#666666" points="736,-30.5 603.75,-30.5 603.75,0 736,0 736,-30.5"/>
<text text-anchor="start" x="611.75" y="-17" font-family="Helvetica,sans-Serif" font-size="10.00">edu.wpi.first.wpilibj.Tracer.</text>
<text text-anchor="middle" x="669.88" y="-5.75" font-family="Helvetica,sans-Serif" font-size="10.00">Tracer</text>
</a>
</g>
</g>
<!-- Node1&#45;&gt;Node7 -->
<g id="edge6_Node000001_Node000007" class="edge">
<title>Node1&#45;&gt;Node7</title>
<g id="a_edge6_Node000001_Node000007"><a xlink:title=" ">
<path fill="none" stroke="#63b8ff" d="M771.04,-28.06C759.35,-26.57 747.52,-25.05 736.3,-23.62"/>
<polygon fill="#63b8ff" stroke="#63b8ff" points="770.32,-31.5 780.68,-29.3 771.21,-24.56 770.32,-31.5"/>
</a>
</g>
</g>
<!-- Node3 -->
<g id="Node000003" class="node">
<title>Node3</title>
<g id="a_Node000003"><a xlink:href="classedu_1_1wpi_1_1first_1_1wpilibj_1_1_watchdog.html#aacdc6efc6b79902319f7b07344298c49" target="_top" xlink:title=" ">
<polygon fill="white" stroke="#666666" points="557.25,-94.88 380,-94.88 380,-75.62 557.25,-75.62 557.25,-94.88"/>
<text text-anchor="middle" x="468.62" y="-81.38" font-family="Helvetica,sans-Serif" font-size="10.00">edu.wpi.first.wpilibj.Watchdog.enable</text>
</a>
</g>
</g>
<!-- Node2&#45;&gt;Node3 -->
<g id="edge2_Node000002_Node000003" class="edge">
<title>Node2&#45;&gt;Node3</title>
<g id="a_edge2_Node000002_Node000003"><a xlink:title=" ">
<path fill="none" stroke="#63b8ff" d="M581.77,-73.43C573.77,-74.27 565.66,-75.13 557.65,-75.97"/>
<polygon fill="#63b8ff" stroke="#63b8ff" points="581.9,-76.94 591.47,-72.41 581.16,-69.98 581.9,-76.94"/>
</a>
</g>
</g>
<!-- Node6 -->
<g id="Node000006" class="node">
<title>Node6</title>
<g id="a_Node000006"><a xlink:href="classedu_1_1wpi_1_1first_1_1wpilibj_1_1_watchdog.html#a721d8b1a9ebc2ab5d11b1b3fddc2fd96" target="_top" xlink:title=" ">
<polygon fill="white" stroke="#666666" points="549.75,-57.5 387.5,-57.5 387.5,-27 549.75,-27 549.75,-57.5"/>
<text text-anchor="start" x="395.5" y="-44" font-family="Helvetica,sans-Serif" font-size="10.00">edu.wpi.first.wpilibj.Watchdog.set</text>
<text text-anchor="middle" x="468.62" y="-32.75" font-family="Helvetica,sans-Serif" font-size="10.00">Timeout</text>
</a>
</g>
</g>
<!-- Node2&#45;&gt;Node6 -->
<g id="edge5_Node000002_Node000006" class="edge">
<title>Node2&#45;&gt;Node6</title>
<g id="a_edge5_Node000002_Node000006"><a xlink:title=" ">
<path fill="none" stroke="#63b8ff" d="M581.64,-54.62C571.11,-53.45 560.38,-52.27 549.95,-51.12"/>
<polygon fill="#63b8ff" stroke="#63b8ff" points="581.15,-58.09 591.47,-55.7 581.92,-51.13 581.15,-58.09"/>
</a>
</g>
</g>
<!-- Node4 -->
<g id="Node000004" class="node">
<title>Node4</title>
<g id="a_Node000004"><a xlink:href="classedu_1_1wpi_1_1first_1_1wpilibj_1_1_watchdog.html#afbebfdef0304b43e207e20d43cfba7bb" target="_top" xlink:title=" ">
<polygon fill="white" stroke="#666666" points="344,-94.88 173.5,-94.88 173.5,-75.62 344,-75.62 344,-94.88"/>
<text text-anchor="middle" x="258.75" y="-81.38" font-family="Helvetica,sans-Serif" font-size="10.00">edu.wpi.first.wpilibj.Watchdog.reset</text>
</a>
</g>
</g>
<!-- Node3&#45;&gt;Node4 -->
<g id="edge3_Node000003_Node000004" class="edge">
<title>Node3&#45;&gt;Node4</title>
<g id="a_edge3_Node000003_Node000004"><a xlink:title=" ">
<path fill="none" stroke="#63b8ff" d="M368.42,-85.25C360.35,-85.25 352.25,-85.25 344.31,-85.25"/>
<polygon fill="#63b8ff" stroke="#63b8ff" points="368.26,-88.75 378.26,-85.25 368.26,-81.75 368.26,-88.75"/>
</a>
</g>
</g>
<!-- Node5 -->
<g id="Node000005" class="node">
<title>Node5</title>
<g id="a_Node000005"><a xlink:href="classedu_1_1wpi_1_1first_1_1wpilibj_1_1_iterative_robot_base.html#aac5c45d7130bce188e0f9278075e8891" target="_top" xlink:title=" ">
<polygon fill="white" stroke="#666666" points="137.5,-100.5 0,-100.5 0,-70 137.5,-70 137.5,-100.5"/>
<text text-anchor="start" x="8" y="-87" font-family="Helvetica,sans-Serif" font-size="10.00">edu.wpi.first.wpilibj.Iterative</text>
<text text-anchor="middle" x="68.75" y="-75.75" font-family="Helvetica,sans-Serif" font-size="10.00">RobotBase.loopFunc</text>
</a>
</g>
</g>
<!-- Node4&#45;&gt;Node5 -->
<g id="edge4_Node000004_Node000005" class="edge">
<title>Node4&#45;&gt;Node5</title>
<g id="a_edge4_Node000004_Node000005"><a xlink:title=" ">
<path fill="none" stroke="#63b8ff" d="M161.73,-85.25C153.68,-85.25 145.65,-85.25 137.88,-85.25"/>
<polygon fill="#63b8ff" stroke="#63b8ff" points="161.59,-88.75 171.59,-85.25 161.59,-81.75 161.59,-88.75"/>
</a>
</g>
</g>
</g>
</svg>
