<?xml version="1.0" encoding="UTF-8" standalone="no"?>
<!DOCTYPE svg PUBLIC "-//W3C//DTD SVG 1.1//EN"
 "http://www.w3.org/Graphics/SVG/1.1/DTD/svg11.dtd">
<!-- Generated by graphviz version 9.0.0 (20230911.1827)
 -->
<!-- Title: edu.wpi.first.wpilibj.sysid.SysIdRoutineLog.MotorLog.angularPosition Pages: 1 -->
<svg width="692pt" height="62pt"
 viewBox="0.00 0.00 692.25 62.12" xmlns="http://www.w3.org/2000/svg" xmlns:xlink="http://www.w3.org/1999/xlink">
<g id="graph0" class="graph" transform="scale(1 1) rotate(0) translate(4 58.12)">
<title>edu.wpi.first.wpilibj.sysid.SysIdRoutineLog.MotorLog.angularPosition</title>
<!-- Node1 -->
<g id="Node000001" class="node">
<title>Node1</title>
<g id="a_Node000001"><a xlink:title=" ">
<polygon fill="#999999" stroke="#666666" points="169,-41.75 0,-41.75 0,0 169,0 169,-41.75"/>
<text text-anchor="start" x="8" y="-28.25" font-family="Helvetica,sans-Serif" font-size="10.00">edu.wpi.first.wpilibj.sysid.</text>
<text text-anchor="start" x="8" y="-17" font-family="Helvetica,sans-Serif" font-size="10.00">SysIdRoutineLog.MotorLog.angular</text>
<text text-anchor="middle" x="84.5" y="-5.75" font-family="Helvetica,sans-Serif" font-size="10.00">Position</text>
</a>
</g>
</g>
<!-- Node2 -->
<g id="Node000002" class="node">
<title>Node2</title>
<g id="a_Node000002"><a xlink:href="classedu_1_1wpi_1_1first_1_1wpilibj_1_1sysid_1_1_sys_id_routine_log_1_1_motor_log.html#ad94eb9190fc67490eccef94c66e57796" target="_top" xlink:title=" ">
<polygon fill="white" stroke="#666666" points="365.75,-36.12 205,-36.12 205,-5.62 365.75,-5.62 365.75,-36.12"/>
<text text-anchor="start" x="213" y="-22.62" font-family="Helvetica,sans-Serif" font-size="10.00">edu.wpi.first.wpilibj.sysid.</text>
<text text-anchor="middle" x="285.38" y="-11.38" font-family="Helvetica,sans-Serif" font-size="10.00">SysIdRoutineLog.MotorLog.value</text>
</a>
</g>
</g>
<!-- Node1&#45;&gt;Node2 -->
<g id="edge1_Node000001_Node000002" class="edge">
<title>Node1&#45;&gt;Node2</title>
<g id="a_edge1_Node000001_Node000002"><a xlink:title=" ">
<path fill="none" stroke="#63b8ff" d="M169.26,-20.88C177.2,-20.88 185.27,-20.88 193.28,-20.88"/>
<polygon fill="#63b8ff" stroke="#63b8ff" points="193,-24.38 203,-20.88 193,-17.38 193,-24.38"/>
</a>
</g>
</g>
<!-- Node2&#45;&gt;Node2 -->
<g id="edge5_Node000002_Node000002" class="edge">
<title>Node2&#45;&gt;Node2</title>
<g id="a_edge5_Node000002_Node000002"><a xlink:title=" ">
<path fill="none" stroke="#63b8ff" d="M253.83,-36.61C247.4,-45.68 257.91,-54.12 285.38,-54.12 300.39,-54.12 310.35,-51.6 315.23,-47.83"/>
<polygon fill="#63b8ff" stroke="#63b8ff" points="318.66,-48.52 316.69,-38.11 311.74,-47.47 318.66,-48.52"/>
</a>
</g>
</g>
<!-- Node3 -->
<g id="Node000003" class="node">
<title>Node3</title>
<g id="a_Node000003"><a xlink:href="classedu_1_1wpi_1_1first_1_1wpilibj_1_1_data_log_manager.html#a4a1da47a520115917eaad1cb82a6e667" target="_top" xlink:title=" ">
<polygon fill="white" stroke="#666666" points="525,-36.12 401.75,-36.12 401.75,-5.62 525,-5.62 525,-36.12"/>
<text text-anchor="start" x="409.75" y="-22.62" font-family="Helvetica,sans-Serif" font-size="10.00">edu.wpi.first.wpilibj.Data</text>
<text text-anchor="middle" x="463.38" y="-11.38" font-family="Helvetica,sans-Serif" font-size="10.00">LogManager.getLog</text>
</a>
</g>
</g>
<!-- Node2&#45;&gt;Node3 -->
<g id="edge2_Node000002_Node000003" class="edge">
<title>Node2&#45;&gt;Node3</title>
<g id="a_edge2_Node000002_Node000003"><a xlink:title=" ">
<path fill="none" stroke="#63b8ff" d="M366.14,-20.88C374.08,-20.88 382.11,-20.88 389.98,-20.88"/>
<polygon fill="#63b8ff" stroke="#63b8ff" points="389.83,-24.38 399.83,-20.88 389.83,-17.38 389.83,-24.38"/>
</a>
</g>
</g>
<!-- Node4 -->
<g id="Node000004" class="node">
<title>Node4</title>
<g id="a_Node000004"><a xlink:href="classedu_1_1wpi_1_1first_1_1wpilibj_1_1_data_log_manager.html#abc3578ab5f29ed2c259cc53b594f39c6" target="_top" xlink:title=" ">
<polygon fill="white" stroke="#666666" points="684.25,-36.12 561,-36.12 561,-5.62 684.25,-5.62 684.25,-36.12"/>
<text text-anchor="start" x="569" y="-22.62" font-family="Helvetica,sans-Serif" font-size="10.00">edu.wpi.first.wpilibj.Data</text>
<text text-anchor="middle" x="622.62" y="-11.38" font-family="Helvetica,sans-Serif" font-size="10.00">LogManager.start</text>
</a>
</g>
</g>
<!-- Node3&#45;&gt;Node4 -->
<g id="edge3_Node000003_Node000004" class="edge">
<title>Node3&#45;&gt;Node4</title>
<g id="a_edge3_Node000003_Node000004"><a xlink:title=" ">
<path fill="none" stroke="#63b8ff" d="M525.17,-20.88C533.1,-20.88 541.29,-20.88 549.38,-20.88"/>
<polygon fill="#63b8ff" stroke="#63b8ff" points="549.22,-24.38 559.22,-20.88 549.22,-17.38 549.22,-24.38"/>
</a>
</g>
</g>
<!-- Node4&#45;&gt;Node4 -->
<g id="edge4_Node000004_Node000004" class="edge">
<title>Node4&#45;&gt;Node4</title>
<g id="a_edge4_Node000004_Node000004"><a xlink:title=" ">
<path fill="none" stroke="#63b8ff" d="M594.41,-36.61C588.65,-45.68 598.05,-54.12 622.62,-54.12 636.06,-54.12 644.96,-51.6 649.33,-47.83"/>
<polygon fill="#63b8ff" stroke="#63b8ff" points="652.77,-48.49 650.64,-38.11 645.84,-47.55 652.77,-48.49"/>
</a>
</g>
</g>
</g>
</svg>
