<?xml version="1.0" encoding="UTF-8" standalone="no"?>
<!DOCTYPE svg PUBLIC "-//W3C//DTD SVG 1.1//EN"
 "http://www.w3.org/Graphics/SVG/1.1/DTD/svg11.dtd">
<!-- Generated by graphviz version 9.0.0 (20230911.1827)
 -->
<!-- Title: edu.wpi.first.wpilibj.ADXRS450_Gyro.calibrate Pages: 1 -->
<svg width="350pt" height="174pt"
 viewBox="0.00 0.00 349.75 173.88" xmlns="http://www.w3.org/2000/svg" xmlns:xlink="http://www.w3.org/1999/xlink">

<svg id="main" version="1.1" xmlns="http://www.w3.org/2000/svg" xmlns:xlink="http://www.w3.org/1999/xlink" xml:space="preserve" onload="init(evt)">
<style type="text/css"><![CDATA[
.node, .edge {opacity: 0.7;}
.node.selected, .edge.selected {opacity: 1;}
.edge:hover path { stroke: red; }
.edge:hover polygon { stroke: red; fill: red; }
]]></style>
<script type="application/ecmascript" xlink:href="svg.min.js"/>
<svg id="graph" class="graph">
<g id="graph0" class="graph" transform="scale(1 1) rotate(0) translate(4 169.88)">
<title>edu.wpi.first.wpilibj.ADXRS450_Gyro.calibrate</title>
<!-- Node1 -->
<g id="Node000001" class="node">
<title>Node1</title>
<g id="a_Node000001"><a xlink:title=" ">
<polygon fill="#999999" stroke="#666666" points="153.25,-103.5 0,-103.5 0,-73 153.25,-73 153.25,-103.5"/>
<text text-anchor="start" x="8" y="-90" font-family="Helvetica,sans-Serif" font-size="10.00">edu.wpi.first.wpilibj.ADXRS450</text>
<text text-anchor="middle" x="76.62" y="-78.75" font-family="Helvetica,sans-Serif" font-size="10.00">_Gyro.calibrate</text>
</a>
</g>
</g>
<!-- Node2 -->
<g id="Node000002" class="node">
<title>Node2</title>
<g id="a_Node000002"><a xlink:href="classedu_1_1wpi_1_1first_1_1wpilibj_1_1_timer.html#a7ffa861556c640f9de9aa09d796bad6d" target="_top" xlink:title=" ">
<polygon fill="white" stroke="#666666" points="341.75,-165.88 189.25,-165.88 189.25,-146.62 341.75,-146.62 341.75,-165.88"/>
<text text-anchor="middle" x="265.5" y="-152.38" font-family="Helvetica,sans-Serif" font-size="10.00">edu.wpi.first.wpilibj.Timer.delay</text>
</a>
</g>
</g>
<!-- Node1&#45;&gt;Node2 -->
<g id="edge1_Node000001_Node000002" class="edge">
<title>Node1&#45;&gt;Node2</title>
<g id="a_edge1_Node000001_Node000002"><a xlink:title=" ">
<path fill="none" stroke="#63b8ff" d="M109.3,-103.84C131.35,-114.27 161.62,-127.77 189.25,-137.25 195.46,-139.38 202.02,-141.39 208.59,-143.24"/>
<polygon fill="#63b8ff" stroke="#63b8ff" points="207.55,-146.58 218.11,-145.81 209.37,-139.83 207.55,-146.58"/>
</a>
</g>
</g>
<!-- Node3 -->
<g id="Node000003" class="node">
<title>Node3</title>
<g id="a_Node000003"><a xlink:href="classedu_1_1wpi_1_1first_1_1wpilibj_1_1_s_p_i.html#a0016ef47388799c0e2ddd594d358488f" target="_top" xlink:title=" ">
<polygon fill="white" stroke="#666666" points="340.62,-128.5 190.38,-128.5 190.38,-98 340.62,-98 340.62,-128.5"/>
<text text-anchor="start" x="198.38" y="-115" font-family="Helvetica,sans-Serif" font-size="10.00">edu.wpi.first.wpilibj.SPI.get</text>
<text text-anchor="middle" x="265.5" y="-103.75" font-family="Helvetica,sans-Serif" font-size="10.00">AccumulatorIntegratedAverage</text>
</a>
</g>
</g>
<!-- Node1&#45;&gt;Node3 -->
<g id="edge2_Node000001_Node000003" class="edge">
<title>Node1&#45;&gt;Node3</title>
<g id="a_edge2_Node000001_Node000003"><a xlink:title=" ">
<path fill="none" stroke="#63b8ff" d="M153.63,-98.42C161.9,-99.52 170.36,-100.66 178.73,-101.78"/>
<polygon fill="#63b8ff" stroke="#63b8ff" points="178.2,-105.24 188.57,-103.09 179.12,-98.3 178.2,-105.24"/>
</a>
</g>
</g>
<!-- Node4 -->
<g id="Node000004" class="node">
<title>Node4</title>
<g id="a_Node000004"><a xlink:href="classedu_1_1wpi_1_1first_1_1wpilibj_1_1_s_p_i.html#aa3c3d775eb001556ef487bcef224a4f8" target="_top" xlink:title=" ">
<polygon fill="white" stroke="#666666" points="337.25,-79.5 193.75,-79.5 193.75,-49 337.25,-49 337.25,-79.5"/>
<text text-anchor="start" x="201.75" y="-66" font-family="Helvetica,sans-Serif" font-size="10.00">edu.wpi.first.wpilibj.SPI.reset</text>
<text text-anchor="middle" x="265.5" y="-54.75" font-family="Helvetica,sans-Serif" font-size="10.00">Accumulator</text>
</a>
</g>
</g>
<!-- Node1&#45;&gt;Node4 -->
<g id="edge3_Node000001_Node000004" class="edge">
<title>Node1&#45;&gt;Node4</title>
<g id="a_edge3_Node000001_Node000004"><a xlink:title=" ">
<path fill="none" stroke="#63b8ff" d="M153.63,-78.49C162.97,-77.29 172.55,-76.06 181.98,-74.85"/>
<polygon fill="#63b8ff" stroke="#63b8ff" points="182.41,-78.32 191.88,-73.58 181.52,-71.38 182.41,-78.32"/>
</a>
</g>
</g>
<!-- Node5 -->
<g id="Node000005" class="node">
<title>Node5</title>
<g id="a_Node000005"><a xlink:href="classedu_1_1wpi_1_1first_1_1wpilibj_1_1_s_p_i.html#ae4b7587e15afe4ab8159b502f0aa8210" target="_top" xlink:title=" ">
<polygon fill="white" stroke="#666666" points="337.25,-30.5 193.75,-30.5 193.75,0 337.25,0 337.25,-30.5"/>
<text text-anchor="start" x="201.75" y="-17" font-family="Helvetica,sans-Serif" font-size="10.00">edu.wpi.first.wpilibj.SPI.set</text>
<text text-anchor="middle" x="265.5" y="-5.75" font-family="Helvetica,sans-Serif" font-size="10.00">AccumulatorIntegratedCenter</text>
</a>
</g>
</g>
<!-- Node1&#45;&gt;Node5 -->
<g id="edge4_Node000001_Node000005" class="edge">
<title>Node1&#45;&gt;Node5</title>
<g id="a_edge4_Node000001_Node000005"><a xlink:title=" ">
<path fill="none" stroke="#63b8ff" d="M112.01,-72.56C133.92,-62.79 163.03,-50.22 189.25,-40.25 194.22,-38.36 199.39,-36.47 204.61,-34.63"/>
<polygon fill="#63b8ff" stroke="#63b8ff" points="205.58,-38 213.88,-31.42 203.28,-31.39 205.58,-38"/>
</a>
</g>
</g>
</g>
</svg>
</svg>

<style type='text/css'>
<![CDATA[
[data-mouse-over-selected='false'] { opacity: 0.7; }
[data-mouse-over-selected='true']  { opacity: 1.0; }
]]>
</style>
<script type="application/ecmascript"><![CDATA[
document.addEventListener('DOMContentLoaded', (event) => {
  highlightEdges();
  highlightAdjacentNodes();
});
]]></script>
</svg>
