<?xml version="1.0" encoding="UTF-8" standalone="no"?>
<!DOCTYPE svg PUBLIC "-//W3C//DTD SVG 1.1//EN"
 "http://www.w3.org/Graphics/SVG/1.1/DTD/svg11.dtd">
<!-- Generated by graphviz version 9.0.0 (20230911.1827)
 -->
<!-- Title: edu.wpi.first.wpilibj.Relay Pages: 1 -->
<svg width="307pt" height="94pt"
 viewBox="0.00 0.00 307.38 93.75" xmlns="http://www.w3.org/2000/svg" xmlns:xlink="http://www.w3.org/1999/xlink">
<g id="graph0" class="graph" transform="scale(1 1) rotate(0) translate(4 89.75)">
<title>edu.wpi.first.wpilibj.Relay</title>
<!-- Node1 -->
<g id="Node000001" class="node">
<title>Node1</title>
<g id="a_Node000001"><a xlink:title=" ">
<polygon fill="#999999" stroke="#666666" points="237.38,-19.25 109.62,-19.25 109.62,0 237.38,0 237.38,-19.25"/>
<text text-anchor="middle" x="173.5" y="-5.75" font-family="Helvetica,sans-Serif" font-size="10.00">edu.wpi.first.wpilibj.Relay</text>
</a>
</g>
</g>
<!-- Node2 -->
<g id="Node000002" class="node">
<title>Node2</title>
<g id="a_Node000002"><a xlink:href="classedu_1_1wpi_1_1first_1_1wpilibj_1_1_motor_safety.html" target="_top" xlink:title=" ">
<polygon fill="white" stroke="#666666" points="127,-85.75 0,-85.75 0,-55.25 127,-55.25 127,-85.75"/>
<text text-anchor="start" x="8" y="-72.25" font-family="Helvetica,sans-Serif" font-size="10.00">edu.wpi.first.wpilibj.Motor</text>
<text text-anchor="middle" x="63.5" y="-61" font-family="Helvetica,sans-Serif" font-size="10.00">Safety</text>
</a>
</g>
</g>
<!-- Node2&#45;&gt;Node1 -->
<g id="edge1_Node000001_Node000002" class="edge">
<title>Node2&#45;&gt;Node1</title>
<g id="a_edge1_Node000001_Node000002"><a xlink:title=" ">
<path fill="none" stroke="#63b8ff" d="M101.08,-49.38C119.96,-39.28 141.89,-27.54 156.63,-19.65"/>
<polygon fill="#63b8ff" stroke="#63b8ff" points="99.47,-46.28 92.31,-54.08 102.78,-52.45 99.47,-46.28"/>
</a>
</g>
</g>
<!-- Node3 -->
<g id="Node000003" class="node">
<title>Node3</title>
<g id="a_Node000003"><a xlink:title=" ">
<polygon fill="white" stroke="#bfbfbf" points="201.75,-80.12 145.25,-80.12 145.25,-60.88 201.75,-60.88 201.75,-80.12"/>
<text text-anchor="middle" x="173.5" y="-66.62" font-family="Helvetica,sans-Serif" font-size="10.00">Sendable</text>
</a>
</g>
</g>
<!-- Node3&#45;&gt;Node1 -->
<g id="edge2_Node000001_Node000003" class="edge">
<title>Node3&#45;&gt;Node1</title>
<g id="a_edge2_Node000001_Node000003"><a xlink:title=" ">
<path fill="none" stroke="#63b8ff" d="M173.5,-49.07C173.5,-39.04 173.5,-27.46 173.5,-19.65"/>
<polygon fill="#63b8ff" stroke="#63b8ff" points="170,-49.04 173.5,-59.04 177,-49.04 170,-49.04"/>
</a>
</g>
</g>
<!-- Node4 -->
<g id="Node000004" class="node">
<title>Node4</title>
<g id="a_Node000004"><a xlink:title=" ">
<polygon fill="white" stroke="#bfbfbf" points="299.38,-80.12 219.62,-80.12 219.62,-60.88 299.38,-60.88 299.38,-80.12"/>
<text text-anchor="middle" x="259.5" y="-66.62" font-family="Helvetica,sans-Serif" font-size="10.00">AutoCloseable</text>
</a>
</g>
</g>
<!-- Node4&#45;&gt;Node1 -->
<g id="edge3_Node000001_Node000004" class="edge">
<title>Node4&#45;&gt;Node1</title>
<g id="a_edge3_Node000001_Node000004"><a xlink:title=" ">
<path fill="none" stroke="#63b8ff" d="M237.22,-54.25C221.2,-43.28 200.12,-28.85 186.68,-19.65"/>
<polygon fill="#63b8ff" stroke="#63b8ff" points="234.96,-56.94 245.19,-59.7 238.92,-51.17 234.96,-56.94"/>
</a>
</g>
</g>
</g>
</svg>
