<?xml version="1.0" encoding="UTF-8" standalone="no"?>
<!DOCTYPE svg PUBLIC "-//W3C//DTD SVG 1.1//EN"
 "http://www.w3.org/Graphics/SVG/1.1/DTD/svg11.dtd">
<!-- Generated by graphviz version 9.0.0 (20230911.1827)
 -->
<!-- Title: edu.wpi.first.wpilibj.simulation.ADXL345Sim.ADXL345Sim Pages: 1 -->
<svg width="338pt" height="88pt"
 viewBox="0.00 0.00 337.75 87.50" xmlns="http://www.w3.org/2000/svg" xmlns:xlink="http://www.w3.org/1999/xlink">
<g id="graph0" class="graph" transform="scale(1 1) rotate(0) translate(4 83.5)">
<title>edu.wpi.first.wpilibj.simulation.ADXL345Sim.ADXL345Sim</title>
<!-- Node1 -->
<g id="Node000001" class="node">
<title>Node1</title>
<g id="a_Node000001"><a xlink:title=" ">
<polygon fill="#999999" stroke="#666666" points="149.5,-54.5 0,-54.5 0,-24 149.5,-24 149.5,-54.5"/>
<text text-anchor="start" x="8" y="-41" font-family="Helvetica,sans-Serif" font-size="10.00">edu.wpi.first.wpilibj.simulation.</text>
<text text-anchor="middle" x="74.75" y="-29.75" font-family="Helvetica,sans-Serif" font-size="10.00">ADXL345Sim.ADXL345Sim</text>
</a>
</g>
</g>
<!-- Node2 -->
<g id="Node000002" class="node">
<title>Node2</title>
<g id="a_Node000002"><a xlink:href="classedu_1_1wpi_1_1first_1_1wpilibj_1_1_a_d_x_l345___i2_c.html#a10008e3c4a6efb1aa8a4fee37e377949" target="_top" xlink:title=" ">
<polygon fill="white" stroke="#666666" points="329.75,-79.5 185.5,-79.5 185.5,-49 329.75,-49 329.75,-79.5"/>
<text text-anchor="start" x="193.5" y="-66" font-family="Helvetica,sans-Serif" font-size="10.00">edu.wpi.first.wpilibj.ADXL345</text>
<text text-anchor="middle" x="257.62" y="-54.75" font-family="Helvetica,sans-Serif" font-size="10.00">_I2C.getDeviceAddress</text>
</a>
</g>
</g>
<!-- Node1&#45;&gt;Node2 -->
<g id="edge1_Node000001_Node000002" class="edge">
<title>Node1&#45;&gt;Node2</title>
<g id="a_edge1_Node000001_Node000002"><a xlink:title=" ">
<path fill="none" stroke="#63b8ff" d="M149.84,-49.49C157.8,-50.59 165.93,-51.71 173.98,-52.83"/>
<polygon fill="#63b8ff" stroke="#63b8ff" points="173.39,-56.28 183.78,-54.18 174.35,-49.34 173.39,-56.28"/>
</a>
</g>
</g>
<!-- Node3 -->
<g id="Node000003" class="node">
<title>Node3</title>
<g id="a_Node000003"><a xlink:href="classedu_1_1wpi_1_1first_1_1wpilibj_1_1_a_d_x_l345___i2_c.html#a78b75294459f334c18e43b5d489172bd" target="_top" xlink:title=" ">
<polygon fill="white" stroke="#666666" points="329.75,-30.5 185.5,-30.5 185.5,0 329.75,0 329.75,-30.5"/>
<text text-anchor="start" x="193.5" y="-17" font-family="Helvetica,sans-Serif" font-size="10.00">edu.wpi.first.wpilibj.ADXL345</text>
<text text-anchor="middle" x="257.62" y="-5.75" font-family="Helvetica,sans-Serif" font-size="10.00">_I2C.getPort</text>
</a>
</g>
</g>
<!-- Node1&#45;&gt;Node3 -->
<g id="edge2_Node000001_Node000003" class="edge">
<title>Node1&#45;&gt;Node3</title>
<g id="a_edge2_Node000001_Node000003"><a xlink:title=" ">
<path fill="none" stroke="#63b8ff" d="M149.84,-29.42C157.8,-28.36 165.93,-27.28 173.98,-26.22"/>
<polygon fill="#63b8ff" stroke="#63b8ff" points="174.32,-29.7 183.78,-24.92 173.4,-22.76 174.32,-29.7"/>
</a>
</g>
</g>
</g>
</svg>
