<?xml version="1.0" encoding="UTF-8" standalone="no"?>
<!DOCTYPE svg PUBLIC "-//W3C//DTD SVG 1.1//EN"
 "http://www.w3.org/Graphics/SVG/1.1/DTD/svg11.dtd">
<!-- Generated by graphviz version 9.0.0 (20230911.1827)
 -->
<!-- Title: edu.wpi.first.wpilibj.RobotController.getVoltage5V Pages: 1 -->
<svg width="314pt" height="186pt"
 viewBox="0.00 0.00 313.75 185.50" xmlns="http://www.w3.org/2000/svg" xmlns:xlink="http://www.w3.org/1999/xlink">

<svg id="main" version="1.1" xmlns="http://www.w3.org/2000/svg" xmlns:xlink="http://www.w3.org/1999/xlink" xml:space="preserve" onload="init(evt)">
<style type="text/css"><![CDATA[
.node, .edge {opacity: 0.7;}
.node.selected, .edge.selected {opacity: 1;}
.edge:hover path { stroke: red; }
.edge:hover polygon { stroke: red; fill: red; }
]]></style>
<script type="application/ecmascript" xlink:href="svg.min.js"/>
<svg id="graph" class="graph">
<g id="graph0" class="graph" transform="scale(1 1) rotate(0) translate(4 181.5)">
<title>edu.wpi.first.wpilibj.RobotController.getVoltage5V</title>
<!-- Node1 -->
<g id="Node000001" class="node">
<title>Node1</title>
<g id="a_Node000001"><a xlink:title=" ">
<polygon fill="#999999" stroke="#666666" points="305.75,-103.5 177.25,-103.5 177.25,-73 305.75,-73 305.75,-103.5"/>
<text text-anchor="start" x="185.25" y="-90" font-family="Helvetica,sans-Serif" font-size="10.00">edu.wpi.first.wpilibj.Robot</text>
<text text-anchor="middle" x="241.5" y="-78.75" font-family="Helvetica,sans-Serif" font-size="10.00">Controller.getVoltage5V</text>
</a>
</g>
</g>
<!-- Node2 -->
<g id="Node000002" class="node">
<title>Node2</title>
<g id="a_Node000002"><a xlink:href="classedu_1_1wpi_1_1first_1_1wpilibj_1_1_analog_encoder.html#a8c16e04be49753f6ac9f2a8283885a95" target="_top" xlink:title=" ">
<polygon fill="white" stroke="#666666" points="136.75,-177.5 4.5,-177.5 4.5,-147 136.75,-147 136.75,-177.5"/>
<text text-anchor="start" x="12.5" y="-164" font-family="Helvetica,sans-Serif" font-size="10.00">edu.wpi.first.wpilibj.Analog</text>
<text text-anchor="middle" x="70.62" y="-152.75" font-family="Helvetica,sans-Serif" font-size="10.00">Encoder.get</text>
</a>
</g>
</g>
<!-- Node1&#45;&gt;Node2 -->
<g id="edge1_Node000001_Node000002" class="edge">
<title>Node1&#45;&gt;Node2</title>
<g id="a_edge1_Node000001_Node000002"><a xlink:title=" ">
<path fill="none" stroke="#63b8ff" d="M200.83,-109.13C182.86,-118.25 161.21,-128.77 141.25,-137.25 133.68,-140.46 125.55,-143.63 117.6,-146.58"/>
<polygon fill="#63b8ff" stroke="#63b8ff" points="202.29,-112.31 209.6,-104.63 199.1,-106.08 202.29,-112.31"/>
</a>
</g>
</g>
<!-- Node3 -->
<g id="Node000003" class="node">
<title>Node3</title>
<g id="a_Node000003"><a xlink:href="classedu_1_1wpi_1_1first_1_1wpilibj_1_1_analog_potentiometer.html#ab76a641b3c2f3f800a6c3c9f45065972" target="_top" xlink:title=" ">
<polygon fill="white" stroke="#666666" points="136.75,-128.5 4.5,-128.5 4.5,-98 136.75,-98 136.75,-128.5"/>
<text text-anchor="start" x="12.5" y="-115" font-family="Helvetica,sans-Serif" font-size="10.00">edu.wpi.first.wpilibj.Analog</text>
<text text-anchor="middle" x="70.62" y="-103.75" font-family="Helvetica,sans-Serif" font-size="10.00">Potentiometer.get</text>
</a>
</g>
</g>
<!-- Node1&#45;&gt;Node3 -->
<g id="edge2_Node000001_Node000003" class="edge">
<title>Node1&#45;&gt;Node3</title>
<g id="a_edge2_Node000001_Node000003"><a xlink:title=" ">
<path fill="none" stroke="#63b8ff" d="M165.94,-99.29C156.31,-100.71 146.5,-102.17 137.03,-103.57"/>
<polygon fill="#63b8ff" stroke="#63b8ff" points="166.26,-102.78 175.64,-97.85 165.23,-95.85 166.26,-102.78"/>
</a>
</g>
</g>
<!-- Node4 -->
<g id="Node000004" class="node">
<title>Node4</title>
<g id="a_Node000004"><a xlink:href="classedu_1_1wpi_1_1first_1_1wpilibj_1_1_analog_encoder.html#a9bfae2e8af5683d68b9c3a91139f4105" target="_top" xlink:title=" ">
<polygon fill="white" stroke="#666666" points="141.25,-79.5 0,-79.5 0,-49 141.25,-49 141.25,-79.5"/>
<text text-anchor="start" x="8" y="-66" font-family="Helvetica,sans-Serif" font-size="10.00">edu.wpi.first.wpilibj.Analog</text>
<text text-anchor="middle" x="70.62" y="-54.75" font-family="Helvetica,sans-Serif" font-size="10.00">Encoder.getAbsolutePosition</text>
</a>
</g>
</g>
<!-- Node1&#45;&gt;Node4 -->
<g id="edge3_Node000001_Node000004" class="edge">
<title>Node1&#45;&gt;Node4</title>
<g id="a_edge3_Node000001_Node000004"><a xlink:title=" ">
<path fill="none" stroke="#63b8ff" d="M165.84,-77.64C157.77,-76.49 149.58,-75.33 141.57,-74.19"/>
<polygon fill="#63b8ff" stroke="#63b8ff" points="165.25,-81.09 175.64,-79.03 166.23,-74.16 165.25,-81.09"/>
</a>
</g>
</g>
<!-- Node5 -->
<g id="Node000005" class="node">
<title>Node5</title>
<g id="a_Node000005"><a xlink:href="classedu_1_1wpi_1_1first_1_1wpilibj_1_1_analog_encoder.html#a8ae829c6dad385e6954fcfeae6f8b119" target="_top" xlink:title=" ">
<polygon fill="white" stroke="#666666" points="136.75,-30.5 4.5,-30.5 4.5,0 136.75,0 136.75,-30.5"/>
<text text-anchor="start" x="12.5" y="-17" font-family="Helvetica,sans-Serif" font-size="10.00">edu.wpi.first.wpilibj.Analog</text>
<text text-anchor="middle" x="70.62" y="-5.75" font-family="Helvetica,sans-Serif" font-size="10.00">Encoder.reset</text>
</a>
</g>
</g>
<!-- Node1&#45;&gt;Node5 -->
<g id="edge4_Node000001_Node000005" class="edge">
<title>Node1&#45;&gt;Node5</title>
<g id="a_edge4_Node000001_Node000005"><a xlink:title=" ">
<path fill="none" stroke="#63b8ff" d="M200.39,-67.66C182.49,-58.78 161.02,-48.55 141.25,-40.25 133.67,-37.07 125.53,-33.91 117.58,-30.97"/>
<polygon fill="#63b8ff" stroke="#63b8ff" points="198.61,-70.68 209.12,-72.03 201.74,-64.42 198.61,-70.68"/>
</a>
</g>
</g>
</g>
</svg>
</svg>

<style type='text/css'>
<![CDATA[
[data-mouse-over-selected='false'] { opacity: 0.7; }
[data-mouse-over-selected='true']  { opacity: 1.0; }
]]>
</style>
<script type="application/ecmascript"><![CDATA[
document.addEventListener('DOMContentLoaded', (event) => {
  highlightEdges();
  highlightAdjacentNodes();
});
]]></script>
</svg>
