<?xml version="1.0" encoding="UTF-8" standalone="no"?>
<!DOCTYPE svg PUBLIC "-//W3C//DTD SVG 1.1//EN"
 "http://www.w3.org/Graphics/SVG/1.1/DTD/svg11.dtd">
<!-- Generated by graphviz version 9.0.0 (20230911.1827)
 -->
<!-- Title: edu.wpi.first.wpilibj.simulation.SingleJointedArmSim.wouldHitUpperLimit Pages: 1 -->
<svg width="431pt" height="88pt"
 viewBox="0.00 0.00 430.75 87.50" xmlns="http://www.w3.org/2000/svg" xmlns:xlink="http://www.w3.org/1999/xlink">
<g id="graph0" class="graph" transform="scale(1 1) rotate(0) translate(4 83.5)">
<title>edu.wpi.first.wpilibj.simulation.SingleJointedArmSim.wouldHitUpperLimit</title>
<!-- Node1 -->
<g id="Node000001" class="node">
<title>Node1</title>
<g id="a_Node000001"><a xlink:title=" ">
<polygon fill="#999999" stroke="#666666" points="422.75,-54.5 224.5,-54.5 224.5,-24 422.75,-24 422.75,-54.5"/>
<text text-anchor="start" x="232.5" y="-41" font-family="Helvetica,sans-Serif" font-size="10.00">edu.wpi.first.wpilibj.simulation.</text>
<text text-anchor="middle" x="323.62" y="-29.75" font-family="Helvetica,sans-Serif" font-size="10.00">SingleJointedArmSim.wouldHitUpperLimit</text>
</a>
</g>
</g>
<!-- Node2 -->
<g id="Node000002" class="node">
<title>Node2</title>
<g id="a_Node000002"><a xlink:href="classedu_1_1wpi_1_1first_1_1wpilibj_1_1simulation_1_1_single_jointed_arm_sim.html#aabc01fe5350000d46b805a998c5149b5" target="_top" xlink:title=" ">
<polygon fill="white" stroke="#666666" points="188.5,-79.5 0,-79.5 0,-49 188.5,-49 188.5,-79.5"/>
<text text-anchor="start" x="8" y="-66" font-family="Helvetica,sans-Serif" font-size="10.00">edu.wpi.first.wpilibj.simulation.</text>
<text text-anchor="middle" x="94.25" y="-54.75" font-family="Helvetica,sans-Serif" font-size="10.00">SingleJointedArmSim.hasHitUpperLimit</text>
</a>
</g>
</g>
<!-- Node1&#45;&gt;Node2 -->
<g id="edge1_Node000001_Node000002" class="edge">
<title>Node1&#45;&gt;Node2</title>
<g id="a_edge1_Node000001_Node000002"><a xlink:title=" ">
<path fill="none" stroke="#63b8ff" d="M212.86,-51.32C204.81,-52.2 196.73,-53.09 188.78,-53.97"/>
<polygon fill="#63b8ff" stroke="#63b8ff" points="213.16,-54.81 222.71,-50.24 212.39,-47.85 213.16,-54.81"/>
</a>
</g>
</g>
<!-- Node3 -->
<g id="Node000003" class="node">
<title>Node3</title>
<g id="a_Node000003"><a xlink:href="classedu_1_1wpi_1_1first_1_1wpilibj_1_1simulation_1_1_single_jointed_arm_sim.html#ac20d79a03171f071d519f7d2a486749e" target="_top" xlink:title=" ">
<polygon fill="white" stroke="#666666" points="169,-30.5 19.5,-30.5 19.5,0 169,0 169,-30.5"/>
<text text-anchor="start" x="27.5" y="-17" font-family="Helvetica,sans-Serif" font-size="10.00">edu.wpi.first.wpilibj.simulation.</text>
<text text-anchor="middle" x="94.25" y="-5.75" font-family="Helvetica,sans-Serif" font-size="10.00">SingleJointedArmSim.updateX</text>
</a>
</g>
</g>
<!-- Node1&#45;&gt;Node3 -->
<g id="edge2_Node000001_Node000003" class="edge">
<title>Node1&#45;&gt;Node3</title>
<g id="a_edge2_Node000001_Node000003"><a xlink:title=" ">
<path fill="none" stroke="#63b8ff" d="M212.98,-27.68C198.23,-26.12 183.4,-24.55 169.47,-23.08"/>
<polygon fill="#63b8ff" stroke="#63b8ff" points="212.4,-31.13 222.71,-28.7 213.13,-24.17 212.4,-31.13"/>
</a>
</g>
</g>
</g>
</svg>
