<?xml version="1.0" encoding="UTF-8" standalone="no"?>
<!DOCTYPE svg PUBLIC "-//W3C//DTD SVG 1.1//EN"
 "http://www.w3.org/Graphics/SVG/1.1/DTD/svg11.dtd">
<!-- Generated by graphviz version 9.0.0 (20230911.1827)
 -->
<!-- Title: frc.robot.RobotContainer Pages: 1 -->
<!--zoomable 207 -->

<svg id="main" version="1.1" xmlns="http://www.w3.org/2000/svg" xmlns:xlink="http://www.w3.org/1999/xlink" xml:space="preserve" onload="init(evt)">
<style type="text/css"><![CDATA[
.node, .edge {opacity: 0.7;}
.node.selected, .edge.selected {opacity: 1;}
.edge:hover path { stroke: red; }
.edge:hover polygon { stroke: red; fill: red; }
]]></style>

<defs>
  <circle id="rim" cx="0" cy="0" r="7"/>
  <circle id="rim2" cx="0" cy="0" r="3.5"/>
  <g id="zoomPlus">
    <use xlink:href="#rim" fill="#404040"><set attributeName="fill" to="#808080" begin="zoomplus.mouseover" end="zoomplus.mouseout"/></use>
    <path d="M-4,0h8M0,-4v8" fill="none" stroke="white" stroke-width="1.5" pointer-events="none"/>
  </g>
  <g id="zoomMin">
    <use xlink:href="#rim" fill="#404040"><set attributeName="fill" to="#808080" begin="zoomminus.mouseover" end="zoomminus.mouseout"/></use>
    <path d="M-4,0h8" fill="none" stroke="white" stroke-width="1.5" pointer-events="none"/>
  </g>
  <g id="arrowUp" transform="translate(30 24)">
    <use xlink:href="#rim"/>
    <path pointer-events="none" fill="none" stroke="white" stroke-width="1.5" d="M0,-3.0v7 M-2.5,-0.5L0,-3.0L2.5,-0.5"/>
  </g>
  <g id="arrowRight" transform="rotate(90) translate(36 -43)">
    <use xlink:href="#rim"/>
    <path pointer-events="none" fill="none" stroke="white" stroke-width="1.5" d="M0,-3.0v7 M-2.5,-0.5L0,-3.0L2.5,-0.5"/>
  </g>
  <g id="arrowDown" transform="rotate(180) translate(-30 -48)">
    <use xlink:href="#rim"/>
    <path pointer-events="none" fill="none" stroke="white" stroke-width="1.5" d="M0,-3.0v7 M-2.5,-0.5L0,-3.0L2.5,-0.5"/>
  </g>
  <g id="arrowLeft" transform="rotate(270) translate(-36 17)">
    <use xlink:href="#rim"/>
    <path pointer-events="none" fill="none" stroke="white" stroke-width="1.5" d="M0,-3.0v7 M-2.5,-0.5L0,-3.0L2.5,-0.5"/>
  </g>
  <g id="resetDef">
    <use xlink:href="#rim2" fill="#404040"><set attributeName="fill" to="#808080" begin="reset.mouseover" end="reset.mouseout"/></use>
  </g>
</defs>
<script type="application/ecmascript">
var viewWidth = 809;
var viewHeight = 207;
var sectionId = 'dynsection-0';
</script>
<script type="application/ecmascript" xlink:href="svg.min.js"/>
<svg id="graph" class="graph">
<g id="viewport">
<title>frc.robot.RobotContainer</title>
<!-- Node1 -->
<g id="Node000001" class="node">
<title>Node1</title>
<g id="a_Node000001"><a xlink:title=" ">
<polygon fill="#999999" stroke="#666666" points="801.25,-146.25 678,-146.25 678,-127 801.25,-127 801.25,-146.25"/>
<text text-anchor="middle" x="739.62" y="-132.75" font-family="Helvetica,sans-Serif" font-size="10.00">frc.robot.RobotContainer</text>
</a>
</g>
</g>
<!-- Node2 -->
<g id="Node000002" class="node">
<title>Node2</title>
<g id="a_Node000002"><a xlink:href="classfrc_1_1robot_1_1my_number_inator.html" target="_top" xlink:title=" ">
<polygon fill="white" stroke="#bfbfbf" points="314.75,-199.25 187,-199.25 187,-180 314.75,-180 314.75,-199.25"/>
<text text-anchor="middle" x="250.88" y="-185.75" font-family="Helvetica,sans-Serif" font-size="10.00">frc.robot.myNumberInator</text>
</a>
</g>
</g>
<!-- Node2&#45;&gt;Node1 -->
<g id="edge1_Node000001_Node000002" class="edge">
<title>Node2&#45;&gt;Node1</title>
<g id="a_edge1_Node000001_Node000002"><a xlink:title=" ">
<path fill="none" stroke="#9a32cd" stroke-dasharray="5,2" d="M326.56,-185.55C356.08,-183.73 390.29,-181.38 421.25,-178.62 527.62,-169.16 554.42,-167.64 660,-151.62 669.34,-150.21 679.27,-148.48 688.81,-146.72"/>
<polygon fill="#9a32cd" stroke="#9a32cd" points="326.35,-182.05 316.58,-186.15 326.77,-189.04 326.35,-182.05"/>
</a>
</g>
<text text-anchor="middle" x="503.5" y="-178.38" font-family="Helvetica,sans-Serif" font-size="10.00" fill="grey"> genNumInator</text>
</g>
<!-- Node5 -->
<g id="Node000005" class="node">
<title>Node5</title>
<g id="a_Node000005"><a xlink:href="classfrc_1_1robot_1_1_debug_command.html" target="_top" xlink:title=" ">
<polygon fill="white" stroke="#bfbfbf" points="567.75,-113.25 439.25,-113.25 439.25,-94 567.75,-94 567.75,-113.25"/>
<text text-anchor="middle" x="503.5" y="-99.75" font-family="Helvetica,sans-Serif" font-size="10.00">frc.robot.DebugCommand</text>
</a>
</g>
</g>
<!-- Node2&#45;&gt;Node5 -->
<g id="edge9_Node000005_Node000002" class="edge">
<title>Node2&#45;&gt;Node5</title>
<g id="a_edge9_Node000005_Node000002"><a xlink:title=" ">
<path fill="none" stroke="#9a32cd" stroke-dasharray="5,2" d="M307.53,-176.71C341.22,-167.96 384.6,-155.01 421.25,-138.62 429.81,-134.8 430.83,-131.75 439.25,-127.62 449.8,-122.46 461.76,-117.66 472.41,-113.74"/>
<polygon fill="#9a32cd" stroke="#9a32cd" points="306.8,-173.29 297.97,-179.14 308.53,-180.07 306.8,-173.29"/>
</a>
</g>
<text text-anchor="middle" x="386.75" y="-165.38" font-family="Helvetica,sans-Serif" font-size="10.00" fill="grey"> genNumInator</text>
</g>
<!-- Node3 -->
<g id="Node000003" class="node">
<title>Node3</title>
<g id="a_Node000003"><a xlink:title=" ">
<polygon fill="white" stroke="#bfbfbf" points="85,-176.25 3,-176.25 3,-157 85,-157 85,-176.25"/>
<text text-anchor="middle" x="44" y="-162.75" font-family="Helvetica,sans-Serif" font-size="10.00">DoubleSupplier</text>
</a>
</g>
</g>
<!-- Node3&#45;&gt;Node2 -->
<g id="edge2_Node000002_Node000003" class="edge">
<title>Node3&#45;&gt;Node2</title>
<g id="a_edge2_Node000002_Node000003"><a xlink:title=" ">
<path fill="none" stroke="#9a32cd" stroke-dasharray="5,2" d="M96.78,-172.44C124.17,-175.51 158,-179.31 186.89,-182.55"/>
<polygon fill="#9a32cd" stroke="#9a32cd" points="97.31,-168.98 86.98,-171.34 96.53,-175.93 97.31,-168.98"/>
</a>
</g>
<text text-anchor="middle" x="127.75" y="-179.38" font-family="Helvetica,sans-Serif" font-size="10.00" fill="grey"> supplier</text>
</g>
<!-- Node4 -->
<g id="Node000004" class="node">
<title>Node4</title>
<g id="a_Node000004"><a xlink:href="classfrc_1_1robot_1_1my_circle_inator.html" target="_top" xlink:title=" ">
<polygon fill="white" stroke="#bfbfbf" points="310.25,-153.25 191.5,-153.25 191.5,-134 310.25,-134 310.25,-153.25"/>
<text text-anchor="middle" x="250.88" y="-139.75" font-family="Helvetica,sans-Serif" font-size="10.00">frc.robot.myCircleInator</text>
</a>
</g>
</g>
<!-- Node3&#45;&gt;Node4 -->
<g id="edge4_Node000004_Node000003" class="edge">
<title>Node3&#45;&gt;Node4</title>
<g id="a_edge4_Node000004_Node000003"><a xlink:title=" ">
<path fill="none" stroke="#9a32cd" stroke-dasharray="5,2" d="M81.77,-153.02C89.66,-150.62 98.03,-148.47 106,-147.12 133.72,-142.46 164.86,-141.22 191.06,-141.29"/>
<polygon fill="#9a32cd" stroke="#9a32cd" points="80.89,-149.62 72.46,-156.04 83.05,-156.28 80.89,-149.62"/>
</a>
</g>
<text text-anchor="middle" x="127.75" y="-159.62" font-family="Helvetica,sans-Serif" font-size="10.00" fill="grey"> xSupplier</text>
<text text-anchor="middle" x="127.75" y="-148.38" font-family="Helvetica,sans-Serif" font-size="10.00" fill="grey">ySupplier</text>
</g>
<!-- Node4&#45;&gt;Node1 -->
<g id="edge3_Node000001_Node000004" class="edge">
<title>Node4&#45;&gt;Node1</title>
<g id="a_edge3_Node000001_Node000004"><a xlink:title=" ">
<path fill="none" stroke="#9a32cd" stroke-dasharray="5,2" d="M321.87,-142.62C417.45,-141.24 587.24,-138.8 677.79,-137.5"/>
<polygon fill="#9a32cd" stroke="#9a32cd" points="322.05,-139.12 312.1,-142.76 322.15,-146.11 322.05,-139.12"/>
</a>
</g>
<text text-anchor="middle" x="503.5" y="-142.38" font-family="Helvetica,sans-Serif" font-size="10.00" fill="grey"> genCircleInator</text>
</g>
<!-- Node4&#45;&gt;Node5 -->
<g id="edge10_Node000005_Node000004" class="edge">
<title>Node4&#45;&gt;Node5</title>
<g id="a_edge10_Node000005_Node000004"><a xlink:title=" ">
<path fill="none" stroke="#9a32cd" stroke-dasharray="5,2" d="M312.99,-131.38C325.93,-128.93 339.52,-126.47 352.25,-124.38 380.57,-119.71 412.01,-115.25 438.78,-111.68"/>
<polygon fill="#9a32cd" stroke="#9a32cd" points="312.47,-127.91 303.3,-133.23 313.78,-134.79 312.47,-127.91"/>
</a>
</g>
<text text-anchor="middle" x="386.75" y="-125.38" font-family="Helvetica,sans-Serif" font-size="10.00" fill="grey"> genCircleInator</text>
</g>
<!-- Node5&#45;&gt;Node1 -->
<g id="edge5_Node000001_Node000005" class="edge">
<title>Node5&#45;&gt;Node1</title>
<g id="a_edge5_Node000001_Node000005"><a xlink:title=" ">
<path fill="none" stroke="#9a32cd" stroke-dasharray="5,2" d="M579.24,-113.26C604.86,-116.65 633.7,-120.57 660,-124.38 665.74,-125.21 671.72,-126.09 677.69,-127"/>
<polygon fill="#9a32cd" stroke="#9a32cd" points="579.97,-109.83 569.6,-111.99 579.05,-116.77 579.97,-109.83"/>
</a>
</g>
<text text-anchor="middle" x="622.88" y="-125.38" font-family="Helvetica,sans-Serif" font-size="10.00" fill="grey"> debugCommand</text>
</g>
<!-- Node6 -->
<g id="Node000006" class="node">
<title>Node6</title>
<g id="a_Node000006"><a xlink:title=" ">
<polygon fill="white" stroke="#bfbfbf" points="281.38,-105.25 220.38,-105.25 220.38,-86 281.38,-86 281.38,-105.25"/>
<text text-anchor="middle" x="250.88" y="-91.75" font-family="Helvetica,sans-Serif" font-size="10.00">Command</text>
</a>
</g>
</g>
<!-- Node6&#45;&gt;Node5 -->
<g id="edge6_Node000005_Node000006" class="edge">
<title>Node6&#45;&gt;Node5</title>
<g id="a_edge6_Node000005_Node000006"><a xlink:title=" ">
<path fill="none" stroke="#63b8ff" d="M292.95,-96.94C332.58,-98.2 393.14,-100.13 438.99,-101.6"/>
<polygon fill="#63b8ff" stroke="#63b8ff" points="293.23,-93.44 283.12,-96.62 293.01,-100.44 293.23,-93.44"/>
</a>
</g>
</g>
<!-- Node7 -->
<g id="Node000007" class="node">
<title>Node7</title>
<g id="a_Node000007"><a xlink:href="classfrc_1_1robot_1_1subsystems_1_1swervedrive_1_1_swerve_subsystem.html" target="_top" xlink:title=" ">
<polygon fill="white" stroke="#bfbfbf" points="334.25,-67.88 167.5,-67.88 167.5,-37.38 334.25,-37.38 334.25,-67.88"/>
<text text-anchor="start" x="175.5" y="-54.38" font-family="Helvetica,sans-Serif" font-size="10.00">frc.robot.subsystems.swervedrive.</text>
<text text-anchor="middle" x="250.88" y="-43.12" font-family="Helvetica,sans-Serif" font-size="10.00">SwerveSubsystem</text>
</a>
</g>
</g>
<!-- Node7&#45;&gt;Node5 -->
<g id="edge7_Node000005_Node000007" class="edge">
<title>Node7&#45;&gt;Node5</title>
<g id="a_edge7_Node000005_Node000007"><a xlink:title=" ">
<path fill="none" stroke="#9a32cd" stroke-dasharray="5,2" d="M345.55,-68.52C370.24,-73.01 396.8,-78.11 421.25,-83.38 435.32,-86.4 450.66,-90.12 464.18,-93.53"/>
<polygon fill="#9a32cd" stroke="#9a32cd" points="346.31,-65.1 335.85,-66.77 345.07,-71.98 346.31,-65.1"/>
</a>
</g>
<text text-anchor="middle" x="386.75" y="-84.38" font-family="Helvetica,sans-Serif" font-size="10.00" fill="grey"> swerve</text>
</g>
<!-- Node8 -->
<g id="Node000008" class="node">
<title>Node8</title>
<g id="a_Node000008"><a xlink:title=" ">
<polygon fill="white" stroke="#bfbfbf" points="88,-62.25 0,-62.25 0,-43 88,-43 88,-62.25"/>
<text text-anchor="middle" x="44" y="-48.75" font-family="Helvetica,sans-Serif" font-size="10.00">SubsystemBase</text>
</a>
</g>
</g>
<!-- Node8&#45;&gt;Node7 -->
<g id="edge8_Node000007_Node000008" class="edge">
<title>Node8&#45;&gt;Node7</title>
<g id="a_edge8_Node000007_Node000008"><a xlink:title=" ">
<path fill="none" stroke="#63b8ff" d="M99.88,-52.62C120.55,-52.62 144.55,-52.62 167.2,-52.62"/>
<polygon fill="#63b8ff" stroke="#63b8ff" points="99.96,-49.13 89.96,-52.63 99.96,-56.13 99.96,-49.13"/>
</a>
</g>
</g>
<!-- Node9 -->
<g id="Node000009" class="node">
<title>Node9</title>
<g id="a_Node000009"><a xlink:href="classedu_1_1wpi_1_1first_1_1wpilibj_1_1_xbox_controller.html" target="_top" xlink:title=" ">
<polygon fill="white" stroke="#666666" points="565.88,-56.88 441.12,-56.88 441.12,-26.38 565.88,-26.38 565.88,-56.88"/>
<text text-anchor="start" x="449.12" y="-43.38" font-family="Helvetica,sans-Serif" font-size="10.00">edu.wpi.first.wpilibj.Xbox</text>
<text text-anchor="middle" x="503.5" y="-32.12" font-family="Helvetica,sans-Serif" font-size="10.00">Controller</text>
</a>
</g>
</g>
<!-- Node9&#45;&gt;Node1 -->
<g id="edge11_Node000001_Node000009" class="edge">
<title>Node9&#45;&gt;Node1</title>
<g id="a_edge11_Node000001_Node000009"><a xlink:title=" ">
<path fill="none" stroke="#9a32cd" stroke-dasharray="5,2" d="M561.82,-60.96C591.42,-71.34 627.96,-84.78 660,-98.38 680.68,-107.15 703.73,-118.56 719.49,-126.63"/>
<polygon fill="#9a32cd" stroke="#9a32cd" points="563.28,-57.76 552.68,-57.78 560.98,-64.37 563.28,-57.76"/>
</a>
</g>
<text text-anchor="middle" x="622.88" y="-99.38" font-family="Helvetica,sans-Serif" font-size="10.00" fill="grey"> driverXbox</text>
</g>
<!-- Node10 -->
<g id="Node000010" class="node">
<title>Node10</title>
<g id="a_Node000010"><a xlink:href="classedu_1_1wpi_1_1first_1_1wpilibj_1_1_generic_h_i_d.html" target="_top" xlink:title=" ">
<polygon fill="white" stroke="#666666" points="327.88,-19.25 173.88,-19.25 173.88,0 327.88,0 327.88,-19.25"/>
<text text-anchor="middle" x="250.88" y="-5.75" font-family="Helvetica,sans-Serif" font-size="10.00">edu.wpi.first.wpilibj.GenericHID</text>
</a>
</g>
</g>
<!-- Node10&#45;&gt;Node9 -->
<g id="edge12_Node000009_Node000010" class="edge">
<title>Node10&#45;&gt;Node9</title>
<g id="a_edge12_Node000009_Node000010"><a xlink:title=" ">
<path fill="none" stroke="#63b8ff" d="M339.29,-20.79C372.81,-25.07 410.32,-29.86 440.92,-33.76"/>
<polygon fill="#63b8ff" stroke="#63b8ff" points="339.96,-17.34 329.59,-19.55 339.07,-24.29 339.96,-17.34"/>
</a>
</g>
</g>
</g>
</svg>

<g id="navigator" transform="translate(0 0)" fill="#404254">
  <rect fill="#f2f5e9" fill-opacity="0.5" stroke="#606060" stroke-width=".5" x="0" y="0" width="60" height="60"/>
  <use id="zoomplus" xlink:href="#zoomPlus" x="17" y="9" onmousedown="handleZoom(evt,'in')"/>
  <use id="zoomminus" xlink:href="#zoomMin" x="42" y="9" onmousedown="handleZoom(evt,'out')"/>
  <use id="reset" xlink:href="#resetDef" x="30" y="36" onmousedown="handleReset()"/>
   <use id="arrowup" xlink:href="#arrowUp" x="0" y="0" onmousedown="handlePan(0,-1)"/>
  <use id="arrowright" xlink:href="#arrowRight" x="0" y="0" onmousedown="handlePan(1,0)"/>
  <use id="arrowdown" xlink:href="#arrowDown" x="0" y="0" onmousedown="handlePan(0,1)"/>
  <use id="arrowleft" xlink:href="#arrowLeft" x="0" y="0" onmousedown="handlePan(-1,0)"/>
</g>
<svg viewBox="0 0 15 15" width="100%" height="30px" preserveAspectRatio="xMaxYMin meet">
 <g id="arrow_out" transform="scale(0.3 0.3)">
  <a xlink:href="classfrc_1_1robot_1_1_robot_container__coll__graph_org.svg" target="_base">
   <rect id="button" ry="5" rx="5" y="6" x="6" height="38" width="38"
        fill="#f2f5e9" fill-opacity="0.5" stroke="#606060" stroke-width="1.0"/>
   <path id="arrow"
     d="M 11.500037,31.436501 C 11.940474,20.09759 22.043105,11.32322 32.158766,21.979434 L 37.068811,17.246167 C 37.068811,17.246167 37.088388,32 37.088388,32 L 22.160133,31.978069 C 22.160133,31.978069 26.997745,27.140456 26.997745,27.140456 C 18.528582,18.264221 13.291696,25.230495 11.500037,31.436501 z"
     style="fill:#404040;"/>
  </a>
 </g>
</svg>

<style type='text/css'>
<![CDATA[
[data-mouse-over-selected='false'] { opacity: 0.7; }
[data-mouse-over-selected='true']  { opacity: 1.0; }
]]>
</style>
<script type="application/ecmascript"><![CDATA[
document.addEventListener('DOMContentLoaded', (event) => {
  highlightEdges();
  highlightAdjacentNodes();
});
]]></script>
</svg>
