<?xml version="1.0" encoding="UTF-8" standalone="no"?>
<!DOCTYPE svg PUBLIC "-//W3C//DTD SVG 1.1//EN"
 "http://www.w3.org/Graphics/SVG/1.1/DTD/svg11.dtd">
<!-- Generated by graphviz version 9.0.0 (20230911.1827)
 -->
<!-- Title: edu.wpi.first.wpilibj.MotorSafety.check Pages: 1 -->
<svg width="643pt" height="284pt"
 viewBox="0.00 0.00 642.75 283.50" xmlns="http://www.w3.org/2000/svg" xmlns:xlink="http://www.w3.org/1999/xlink">
<g id="graph0" class="graph" transform="scale(1 1) rotate(0) translate(4 279.5)">
<title>edu.wpi.first.wpilibj.MotorSafety.check</title>
<!-- Node1 -->
<g id="Node000001" class="node">
<title>Node1</title>
<g id="a_Node000001"><a xlink:title=" ">
<polygon fill="#999999" stroke="#666666" points="127,-152.5 0,-152.5 0,-122 127,-122 127,-152.5"/>
<text text-anchor="start" x="8" y="-139" font-family="Helvetica,sans-Serif" font-size="10.00">edu.wpi.first.wpilibj.Motor</text>
<text text-anchor="middle" x="63.5" y="-127.75" font-family="Helvetica,sans-Serif" font-size="10.00">Safety.check</text>
</a>
</g>
</g>
<!-- Node2 -->
<g id="Node000002" class="node">
<title>Node2</title>
<g id="a_Node000002"><a xlink:href="classedu_1_1wpi_1_1first_1_1wpilibj_1_1_motor_safety.html#ad7bfb51409082440a7b445db94c76f10" target="_top" xlink:title=" ">
<polygon fill="white" stroke="#666666" points="297.88,-275.5 170.88,-275.5 170.88,-245 297.88,-245 297.88,-275.5"/>
<text text-anchor="start" x="178.88" y="-262" font-family="Helvetica,sans-Serif" font-size="10.00">edu.wpi.first.wpilibj.Motor</text>
<text text-anchor="middle" x="234.38" y="-250.75" font-family="Helvetica,sans-Serif" font-size="10.00">Safety.getDescription</text>
</a>
</g>
</g>
<!-- Node1&#45;&gt;Node2 -->
<g id="edge1_Node000001_Node000002" class="edge">
<title>Node1&#45;&gt;Node2</title>
<g id="a_edge1_Node000001_Node000002"><a xlink:title=" ">
<path fill="none" stroke="#63b8ff" d="M76.53,-152.99C93.62,-174.36 126.87,-212.49 163,-235.25 165.54,-236.85 168.19,-238.36 170.91,-239.79"/>
<polygon fill="#63b8ff" stroke="#63b8ff" points="169.13,-242.82 179.66,-243.96 172.14,-236.5 169.13,-242.82"/>
</a>
</g>
</g>
<!-- Node3 -->
<g id="Node000003" class="node">
<title>Node3</title>
<g id="a_Node000003"><a xlink:href="classedu_1_1wpi_1_1first_1_1wpilibj_1_1_timer.html#a554f331c3b4645ee279bab8974cf21af" target="_top" xlink:title=" ">
<polygon fill="white" stroke="#666666" points="305.75,-226.5 163,-226.5 163,-196 305.75,-196 305.75,-226.5"/>
<text text-anchor="start" x="171" y="-213" font-family="Helvetica,sans-Serif" font-size="10.00">edu.wpi.first.wpilibj.Timer.get</text>
<text text-anchor="middle" x="234.38" y="-201.75" font-family="Helvetica,sans-Serif" font-size="10.00">FPGATimestamp</text>
</a>
</g>
</g>
<!-- Node1&#45;&gt;Node3 -->
<g id="edge2_Node000001_Node000003" class="edge">
<title>Node1&#45;&gt;Node3</title>
<g id="a_edge2_Node000001_Node000003"><a xlink:title=" ">
<path fill="none" stroke="#63b8ff" d="M93.81,-152.99C113.17,-163.1 139.27,-176.17 163,-186.25 167.3,-188.07 171.78,-189.88 176.3,-191.64"/>
<polygon fill="#63b8ff" stroke="#63b8ff" points="174.88,-194.84 185.47,-195.09 177.35,-188.29 174.88,-194.84"/>
</a>
</g>
</g>
<!-- Node5 -->
<g id="Node000005" class="node">
<title>Node5</title>
<g id="a_Node000005"><a xlink:href="classedu_1_1wpi_1_1first_1_1wpilibj_1_1_robot_state.html#a5cc47c279569fd01642aa152963f6223" target="_top" xlink:title=" ">
<polygon fill="white" stroke="#666666" points="298.62,-177.5 170.12,-177.5 170.12,-147 298.62,-147 298.62,-177.5"/>
<text text-anchor="start" x="178.12" y="-164" font-family="Helvetica,sans-Serif" font-size="10.00">edu.wpi.first.wpilibj.Robot</text>
<text text-anchor="middle" x="234.38" y="-152.75" font-family="Helvetica,sans-Serif" font-size="10.00">State.isDisabled</text>
</a>
</g>
</g>
<!-- Node1&#45;&gt;Node5 -->
<g id="edge4_Node000001_Node000005" class="edge">
<title>Node1&#45;&gt;Node5</title>
<g id="a_edge4_Node000001_Node000005"><a xlink:title=" ">
<path fill="none" stroke="#63b8ff" d="M127.38,-146.56C137.58,-148.07 148.22,-149.64 158.66,-151.19"/>
<polygon fill="#63b8ff" stroke="#63b8ff" points="157.97,-154.63 168.38,-152.63 159,-147.7 157.97,-154.63"/>
</a>
</g>
</g>
<!-- Node8 -->
<g id="Node000008" class="node">
<title>Node8</title>
<g id="a_Node000008"><a xlink:href="classedu_1_1wpi_1_1first_1_1wpilibj_1_1_robot_state.html#a1b390185aef075a2fcb778dbfa58034a" target="_top" xlink:title=" ">
<polygon fill="white" stroke="#666666" points="298.62,-128.5 170.12,-128.5 170.12,-98 298.62,-98 298.62,-128.5"/>
<text text-anchor="start" x="178.12" y="-115" font-family="Helvetica,sans-Serif" font-size="10.00">edu.wpi.first.wpilibj.Robot</text>
<text text-anchor="middle" x="234.38" y="-103.75" font-family="Helvetica,sans-Serif" font-size="10.00">State.isTest</text>
</a>
</g>
</g>
<!-- Node1&#45;&gt;Node8 -->
<g id="edge7_Node000001_Node000008" class="edge">
<title>Node1&#45;&gt;Node8</title>
<g id="a_edge7_Node000001_Node000008"><a xlink:title=" ">
<path fill="none" stroke="#63b8ff" d="M127.38,-128.31C137.58,-126.86 148.22,-125.35 158.66,-123.87"/>
<polygon fill="#63b8ff" stroke="#63b8ff" points="158.97,-127.36 168.38,-122.49 157.98,-120.43 158.97,-127.36"/>
</a>
</g>
</g>
<!-- Node10 -->
<g id="Node000010" class="node">
<title>Node10</title>
<g id="a_Node000010"><a xlink:href="classedu_1_1wpi_1_1first_1_1wpilibj_1_1_driver_station.html#a40fcb0dd08778d829076cf9fcc8ab402" target="_top" xlink:title=" ">
<polygon fill="white" stroke="#666666" points="298.62,-79.5 170.12,-79.5 170.12,-49 298.62,-49 298.62,-79.5"/>
<text text-anchor="start" x="178.12" y="-66" font-family="Helvetica,sans-Serif" font-size="10.00">edu.wpi.first.wpilibj.Driver</text>
<text text-anchor="middle" x="234.38" y="-54.75" font-family="Helvetica,sans-Serif" font-size="10.00">Station.reportError</text>
</a>
</g>
</g>
<!-- Node1&#45;&gt;Node10 -->
<g id="edge9_Node000001_Node000010" class="edge">
<title>Node1&#45;&gt;Node10</title>
<g id="a_edge9_Node000001_Node000010"><a xlink:title=" ">
<path fill="none" stroke="#63b8ff" d="M94.28,-121.66C113.61,-111.8 139.5,-99.12 163,-89.25 167.3,-87.44 171.79,-85.65 176.32,-83.9"/>
<polygon fill="#63b8ff" stroke="#63b8ff" points="177.36,-87.25 185.49,-80.46 174.9,-80.7 177.36,-87.25"/>
</a>
</g>
</g>
<!-- Node11 -->
<g id="Node000011" class="node">
<title>Node11</title>
<g id="a_Node000011"><a xlink:href="classedu_1_1wpi_1_1first_1_1wpilibj_1_1_motor_safety.html#ae90c58f47c0049c779bf98da895de846" target="_top" xlink:title=" ">
<polygon fill="white" stroke="#666666" points="297.88,-30.5 170.88,-30.5 170.88,0 297.88,0 297.88,-30.5"/>
<text text-anchor="start" x="178.88" y="-17" font-family="Helvetica,sans-Serif" font-size="10.00">edu.wpi.first.wpilibj.Motor</text>
<text text-anchor="middle" x="234.38" y="-5.75" font-family="Helvetica,sans-Serif" font-size="10.00">Safety.stopMotor</text>
</a>
</g>
</g>
<!-- Node1&#45;&gt;Node11 -->
<g id="edge10_Node000001_Node000011" class="edge">
<title>Node1&#45;&gt;Node11</title>
<g id="a_edge10_Node000001_Node000011"><a xlink:title=" ">
<path fill="none" stroke="#63b8ff" d="M76.57,-121.68C93.69,-100.54 127,-62.8 163,-40.25 165.54,-38.66 168.19,-37.15 170.92,-35.73"/>
<polygon fill="#63b8ff" stroke="#63b8ff" points="172.15,-39.02 179.68,-31.57 169.15,-32.7 172.15,-39.02"/>
</a>
</g>
</g>
<!-- Node4 -->
<g id="Node000004" class="node">
<title>Node4</title>
<g id="a_Node000004"><a xlink:href="classedu_1_1wpi_1_1first_1_1wpilibj_1_1_robot_controller.html#a0768221aed0858ad185f14c8218300e0" target="_top" xlink:title=" ">
<polygon fill="white" stroke="#666666" points="470.25,-226.5 341.75,-226.5 341.75,-196 470.25,-196 470.25,-226.5"/>
<text text-anchor="start" x="349.75" y="-213" font-family="Helvetica,sans-Serif" font-size="10.00">edu.wpi.first.wpilibj.Robot</text>
<text text-anchor="middle" x="406" y="-201.75" font-family="Helvetica,sans-Serif" font-size="10.00">Controller.getFPGATime</text>
</a>
</g>
</g>
<!-- Node3&#45;&gt;Node4 -->
<g id="edge3_Node000003_Node000004" class="edge">
<title>Node3&#45;&gt;Node4</title>
<g id="a_edge3_Node000003_Node000004"><a xlink:title=" ">
<path fill="none" stroke="#63b8ff" d="M305.84,-211.25C313.82,-211.25 321.97,-211.25 330.01,-211.25"/>
<polygon fill="#63b8ff" stroke="#63b8ff" points="329.75,-214.75 339.75,-211.25 329.75,-207.75 329.75,-214.75"/>
</a>
</g>
</g>
<!-- Node6 -->
<g id="Node000006" class="node">
<title>Node6</title>
<g id="a_Node000006"><a xlink:href="classedu_1_1wpi_1_1first_1_1wpilibj_1_1_driver_station.html#ad7ae784e0490d0ef0ff101f6a714d53e" target="_top" xlink:title=" ">
<polygon fill="white" stroke="#666666" points="470.25,-177.5 341.75,-177.5 341.75,-147 470.25,-147 470.25,-177.5"/>
<text text-anchor="start" x="349.75" y="-164" font-family="Helvetica,sans-Serif" font-size="10.00">edu.wpi.first.wpilibj.Driver</text>
<text text-anchor="middle" x="406" y="-152.75" font-family="Helvetica,sans-Serif" font-size="10.00">Station.isDisabled</text>
</a>
</g>
</g>
<!-- Node5&#45;&gt;Node6 -->
<g id="edge5_Node000005_Node000006" class="edge">
<title>Node5&#45;&gt;Node6</title>
<g id="a_edge5_Node000005_Node000006"><a xlink:title=" ">
<path fill="none" stroke="#63b8ff" d="M299.02,-162.25C309.06,-162.25 319.52,-162.25 329.8,-162.25"/>
<polygon fill="#63b8ff" stroke="#63b8ff" points="329.77,-165.75 339.77,-162.25 329.77,-158.75 329.77,-165.75"/>
</a>
</g>
</g>
<!-- Node7 -->
<g id="Node000007" class="node">
<title>Node7</title>
<g id="a_Node000007"><a xlink:href="classedu_1_1wpi_1_1first_1_1wpilibj_1_1_driver_station.html#a044f245fea60eee064a80747499f63c8" target="_top" xlink:title=" ">
<polygon fill="white" stroke="#666666" points="634.75,-177.5 506.25,-177.5 506.25,-147 634.75,-147 634.75,-177.5"/>
<text text-anchor="start" x="514.25" y="-164" font-family="Helvetica,sans-Serif" font-size="10.00">edu.wpi.first.wpilibj.Driver</text>
<text text-anchor="middle" x="570.5" y="-152.75" font-family="Helvetica,sans-Serif" font-size="10.00">Station.isEnabled</text>
</a>
</g>
</g>
<!-- Node6&#45;&gt;Node7 -->
<g id="edge6_Node000006_Node000007" class="edge">
<title>Node6&#45;&gt;Node7</title>
<g id="a_edge6_Node000006_Node000007"><a xlink:title=" ">
<path fill="none" stroke="#63b8ff" d="M470.29,-162.25C478.23,-162.25 486.4,-162.25 494.49,-162.25"/>
<polygon fill="#63b8ff" stroke="#63b8ff" points="494.33,-165.75 504.33,-162.25 494.33,-158.75 494.33,-165.75"/>
</a>
</g>
</g>
<!-- Node9 -->
<g id="Node000009" class="node">
<title>Node9</title>
<g id="a_Node000009"><a xlink:href="classedu_1_1wpi_1_1first_1_1wpilibj_1_1_driver_station.html#a88bf3e48132744d9b49164cce3ee830a" target="_top" xlink:title=" ">
<polygon fill="white" stroke="#666666" points="470.25,-128.5 341.75,-128.5 341.75,-98 470.25,-98 470.25,-128.5"/>
<text text-anchor="start" x="349.75" y="-115" font-family="Helvetica,sans-Serif" font-size="10.00">edu.wpi.first.wpilibj.Driver</text>
<text text-anchor="middle" x="406" y="-103.75" font-family="Helvetica,sans-Serif" font-size="10.00">Station.isTest</text>
</a>
</g>
</g>
<!-- Node8&#45;&gt;Node9 -->
<g id="edge8_Node000008_Node000009" class="edge">
<title>Node8&#45;&gt;Node9</title>
<g id="a_edge8_Node000008_Node000009"><a xlink:title=" ">
<path fill="none" stroke="#63b8ff" d="M299.02,-113.25C309.06,-113.25 319.52,-113.25 329.8,-113.25"/>
<polygon fill="#63b8ff" stroke="#63b8ff" points="329.77,-116.75 339.77,-113.25 329.77,-109.75 329.77,-116.75"/>
</a>
</g>
</g>
</g>
</svg>
