<?xml version="1.0" encoding="UTF-8" standalone="no"?>
<!DOCTYPE svg PUBLIC "-//W3C//DTD SVG 1.1//EN"
 "http://www.w3.org/Graphics/SVG/1.1/DTD/svg11.dtd">
<!-- Generated by graphviz version 9.0.0 (20230911.1827)
 -->
<!-- Title: edu.wpi.first.wpilibj.simulation.DutyCycleEncoderSim.DutyCycleEncoderSim Pages: 1 -->
<svg width="749pt" height="39pt"
 viewBox="0.00 0.00 749.25 38.50" xmlns="http://www.w3.org/2000/svg" xmlns:xlink="http://www.w3.org/1999/xlink">
<g id="graph0" class="graph" transform="scale(1 1) rotate(0) translate(4 34.5)">
<title>edu.wpi.first.wpilibj.simulation.DutyCycleEncoderSim.DutyCycleEncoderSim</title>
<!-- Node1 -->
<g id="Node000001" class="node">
<title>Node1</title>
<g id="a_Node000001"><a xlink:title=" ">
<polygon fill="#999999" stroke="#666666" points="218.5,-30.5 0,-30.5 0,0 218.5,0 218.5,-30.5"/>
<text text-anchor="start" x="8" y="-17" font-family="Helvetica,sans-Serif" font-size="10.00">edu.wpi.first.wpilibj.simulation.</text>
<text text-anchor="middle" x="109.25" y="-5.75" font-family="Helvetica,sans-Serif" font-size="10.00">DutyCycleEncoderSim.DutyCycleEncoderSim</text>
</a>
</g>
</g>
<!-- Node2 -->
<g id="Node000002" class="node">
<title>Node2</title>
<g id="a_Node000002"><a xlink:href="classedu_1_1wpi_1_1first_1_1wpilibj_1_1_duty_cycle_encoder.html#a0562bb5ef470d64d95299c87054e00c4" target="_top" xlink:title=" ">
<polygon fill="white" stroke="#666666" points="414.5,-30.5 254.5,-30.5 254.5,0 414.5,0 414.5,-30.5"/>
<text text-anchor="start" x="262.5" y="-17" font-family="Helvetica,sans-Serif" font-size="10.00">edu.wpi.first.wpilibj.Duty</text>
<text text-anchor="middle" x="334.5" y="-5.75" font-family="Helvetica,sans-Serif" font-size="10.00">CycleEncoder.getSourceChannel</text>
</a>
</g>
</g>
<!-- Node1&#45;&gt;Node2 -->
<g id="edge1_Node000001_Node000002" class="edge">
<title>Node1&#45;&gt;Node2</title>
<g id="a_edge1_Node000001_Node000002"><a xlink:title=" ">
<path fill="none" stroke="#63b8ff" d="M218.93,-15.25C226.9,-15.25 234.9,-15.25 242.75,-15.25"/>
<polygon fill="#63b8ff" stroke="#63b8ff" points="242.61,-18.75 252.61,-15.25 242.61,-11.75 242.61,-18.75"/>
</a>
</g>
</g>
<!-- Node3 -->
<g id="Node000003" class="node">
<title>Node3</title>
<g id="a_Node000003"><a xlink:href="classedu_1_1wpi_1_1first_1_1wpilibj_1_1_duty_cycle.html#a9f30ad89146e7021a3208706d6593ce2" target="_top" xlink:title=" ">
<polygon fill="white" stroke="#666666" points="575.25,-30.5 450.5,-30.5 450.5,0 575.25,0 575.25,-30.5"/>
<text text-anchor="start" x="458.5" y="-17" font-family="Helvetica,sans-Serif" font-size="10.00">edu.wpi.first.wpilibj.Duty</text>
<text text-anchor="middle" x="512.88" y="-5.75" font-family="Helvetica,sans-Serif" font-size="10.00">Cycle.getSourceChannel</text>
</a>
</g>
</g>
<!-- Node2&#45;&gt;Node3 -->
<g id="edge2_Node000002_Node000003" class="edge">
<title>Node2&#45;&gt;Node3</title>
<g id="a_edge2_Node000002_Node000003"><a xlink:title=" ">
<path fill="none" stroke="#63b8ff" d="M414.92,-15.25C422.84,-15.25 430.86,-15.25 438.72,-15.25"/>
<polygon fill="#63b8ff" stroke="#63b8ff" points="438.57,-18.75 448.57,-15.25 438.57,-11.75 438.57,-18.75"/>
</a>
</g>
</g>
<!-- Node4 -->
<g id="Node000004" class="node">
<title>Node4</title>
<g id="a_Node000004"><a xlink:href="classedu_1_1wpi_1_1first_1_1wpilibj_1_1_digital_source.html#a2d26a0eab8d0d105fc0fd78459c73ab7" target="_top" xlink:title=" ">
<polygon fill="white" stroke="#666666" points="741.25,-30.5 611.25,-30.5 611.25,0 741.25,0 741.25,-30.5"/>
<text text-anchor="start" x="619.25" y="-17" font-family="Helvetica,sans-Serif" font-size="10.00">edu.wpi.first.wpilibj.Digital</text>
<text text-anchor="middle" x="676.25" y="-5.75" font-family="Helvetica,sans-Serif" font-size="10.00">Source.getChannel</text>
</a>
</g>
</g>
<!-- Node3&#45;&gt;Node4 -->
<g id="edge3_Node000003_Node000004" class="edge">
<title>Node3&#45;&gt;Node4</title>
<g id="a_edge3_Node000003_Node000004"><a xlink:title=" ">
<path fill="none" stroke="#63b8ff" d="M575.34,-15.25C583.28,-15.25 591.47,-15.25 599.59,-15.25"/>
<polygon fill="#63b8ff" stroke="#63b8ff" points="599.49,-18.75 609.49,-15.25 599.49,-11.75 599.49,-18.75"/>
</a>
</g>
</g>
</g>
</svg>
