<?xml version="1.0" encoding="UTF-8" standalone="no"?>
<!DOCTYPE svg PUBLIC "-//W3C//DTD SVG 1.1//EN"
 "http://www.w3.org/Graphics/SVG/1.1/DTD/svg11.dtd">
<!-- Generated by graphviz version 9.0.0 (20230911.1827)
 -->
<!-- Title: edu.wpi.first.wpilibj.simulation.ElevatorSim.getPositionMeters Pages: 1 -->
<svg width="345pt" height="88pt"
 viewBox="0.00 0.00 344.50 87.50" xmlns="http://www.w3.org/2000/svg" xmlns:xlink="http://www.w3.org/1999/xlink">
<g id="graph0" class="graph" transform="scale(1 1) rotate(0) translate(4 83.5)">
<title>edu.wpi.first.wpilibj.simulation.ElevatorSim.getPositionMeters</title>
<!-- Node1 -->
<g id="Node000001" class="node">
<title>Node1</title>
<g id="a_Node000001"><a xlink:title=" ">
<polygon fill="#999999" stroke="#666666" points="336.5,-54.5 185.5,-54.5 185.5,-24 336.5,-24 336.5,-54.5"/>
<text text-anchor="start" x="193.5" y="-41" font-family="Helvetica,sans-Serif" font-size="10.00">edu.wpi.first.wpilibj.simulation.</text>
<text text-anchor="middle" x="261" y="-29.75" font-family="Helvetica,sans-Serif" font-size="10.00">ElevatorSim.getPositionMeters</text>
</a>
</g>
</g>
<!-- Node2 -->
<g id="Node000002" class="node">
<title>Node2</title>
<g id="a_Node000002"><a xlink:href="classedu_1_1wpi_1_1first_1_1wpilibj_1_1simulation_1_1_elevator_sim.html#a3e74945e3a1d87ae0ced8adbd6fa1ffb" target="_top" xlink:title=" ">
<polygon fill="white" stroke="#666666" points="149.5,-79.5 0,-79.5 0,-49 149.5,-49 149.5,-79.5"/>
<text text-anchor="start" x="8" y="-66" font-family="Helvetica,sans-Serif" font-size="10.00">edu.wpi.first.wpilibj.simulation.</text>
<text text-anchor="middle" x="74.75" y="-54.75" font-family="Helvetica,sans-Serif" font-size="10.00">ElevatorSim.hasHitLowerLimit</text>
</a>
</g>
</g>
<!-- Node1&#45;&gt;Node2 -->
<g id="edge1_Node000001_Node000002" class="edge">
<title>Node1&#45;&gt;Node2</title>
<g id="a_edge1_Node000001_Node000002"><a xlink:title=" ">
<path fill="none" stroke="#63b8ff" d="M173.77,-50.95C165.73,-52.04 157.64,-53.14 149.73,-54.21"/>
<polygon fill="#63b8ff" stroke="#63b8ff" points="174.12,-54.43 183.56,-49.62 173.18,-47.5 174.12,-54.43"/>
</a>
</g>
</g>
<!-- Node3 -->
<g id="Node000003" class="node">
<title>Node3</title>
<g id="a_Node000003"><a xlink:href="classedu_1_1wpi_1_1first_1_1wpilibj_1_1simulation_1_1_elevator_sim.html#a380f70f06448484f8160b420b859e76d" target="_top" xlink:title=" ">
<polygon fill="white" stroke="#666666" points="149.5,-30.5 0,-30.5 0,0 149.5,0 149.5,-30.5"/>
<text text-anchor="start" x="8" y="-17" font-family="Helvetica,sans-Serif" font-size="10.00">edu.wpi.first.wpilibj.simulation.</text>
<text text-anchor="middle" x="74.75" y="-5.75" font-family="Helvetica,sans-Serif" font-size="10.00">ElevatorSim.hasHitUpperLimit</text>
</a>
</g>
</g>
<!-- Node1&#45;&gt;Node3 -->
<g id="edge2_Node000001_Node000003" class="edge">
<title>Node1&#45;&gt;Node3</title>
<g id="a_edge2_Node000001_Node000003"><a xlink:title=" ">
<path fill="none" stroke="#63b8ff" d="M173.77,-28.02C165.73,-26.97 157.64,-25.92 149.73,-24.89"/>
<polygon fill="#63b8ff" stroke="#63b8ff" points="173.19,-31.47 183.56,-29.29 174.09,-24.53 173.19,-31.47"/>
</a>
</g>
</g>
</g>
</svg>
