<?xml version="1.0" encoding="UTF-8" standalone="no"?>
<!DOCTYPE svg PUBLIC "-//W3C//DTD SVG 1.1//EN"
 "http://www.w3.org/Graphics/SVG/1.1/DTD/svg11.dtd">
<!-- Generated by graphviz version 9.0.0 (20230911.1827)
 -->
<!-- Title: edu.wpi.first.wpilibj.motorcontrol.NidecBrushless Pages: 1 -->
<svg width="363pt" height="162pt"
 viewBox="0.00 0.00 362.50 161.88" xmlns="http://www.w3.org/2000/svg" xmlns:xlink="http://www.w3.org/1999/xlink">

<svg id="main" version="1.1" xmlns="http://www.w3.org/2000/svg" xmlns:xlink="http://www.w3.org/1999/xlink" xml:space="preserve" onload="init(evt)">
<style type="text/css"><![CDATA[
.node, .edge {opacity: 0.7;}
.node.selected, .edge.selected {opacity: 1;}
.edge:hover path { stroke: red; }
.edge:hover polygon { stroke: red; fill: red; }
]]></style>
<script type="application/ecmascript" xlink:href="svg.min.js"/>
<svg id="graph" class="graph">
<g id="graph0" class="graph" transform="scale(1 1) rotate(0) translate(4 157.88)">
<title>edu.wpi.first.wpilibj.motorcontrol.NidecBrushless</title>
<!-- Node1 -->
<g id="Node000001" class="node">
<title>Node1</title>
<g id="a_Node000001"><a xlink:title=" ">
<polygon fill="#999999" stroke="#666666" points="354.5,-82.88 195.25,-82.88 195.25,-52.38 354.5,-52.38 354.5,-82.88"/>
<text text-anchor="start" x="203.25" y="-69.38" font-family="Helvetica,sans-Serif" font-size="10.00">edu.wpi.first.wpilibj.motorcontrol.</text>
<text text-anchor="middle" x="274.88" y="-58.12" font-family="Helvetica,sans-Serif" font-size="10.00">NidecBrushless</text>
</a>
</g>
</g>
<!-- Node2 -->
<g id="Node000002" class="node">
<title>Node2</title>
<g id="a_Node000002"><a xlink:href="classedu_1_1wpi_1_1first_1_1wpilibj_1_1_motor_safety.html" target="_top" xlink:title=" ">
<polygon fill="white" stroke="#666666" points="143.12,-153.88 16.12,-153.88 16.12,-123.38 143.12,-123.38 143.12,-153.88"/>
<text text-anchor="start" x="24.12" y="-140.38" font-family="Helvetica,sans-Serif" font-size="10.00">edu.wpi.first.wpilibj.Motor</text>
<text text-anchor="middle" x="79.62" y="-129.12" font-family="Helvetica,sans-Serif" font-size="10.00">Safety</text>
</a>
</g>
</g>
<!-- Node2&#45;&gt;Node1 -->
<g id="edge1_Node000001_Node000002" class="edge">
<title>Node2&#45;&gt;Node1</title>
<g id="a_edge1_Node000001_Node000002"><a xlink:title=" ">
<path fill="none" stroke="#63b8ff" d="M142.74,-119.35C148.34,-117.46 153.91,-115.54 159.25,-113.62 185.38,-104.24 214.41,-92.58 236.71,-83.35"/>
<polygon fill="#63b8ff" stroke="#63b8ff" points="141.82,-115.96 133.42,-122.42 144.01,-122.61 141.82,-115.96"/>
</a>
</g>
</g>
<!-- Node3 -->
<g id="Node000003" class="node">
<title>Node3</title>
<g id="a_Node000003"><a xlink:href="interfaceedu_1_1wpi_1_1first_1_1wpilibj_1_1motorcontrol_1_1_motor_controller.html" target="_top" xlink:title=" ">
<polygon fill="white" stroke="#666666" points="159.25,-104.88 0,-104.88 0,-74.38 159.25,-74.38 159.25,-104.88"/>
<text text-anchor="start" x="8" y="-91.38" font-family="Helvetica,sans-Serif" font-size="10.00">edu.wpi.first.wpilibj.motorcontrol.</text>
<text text-anchor="middle" x="79.62" y="-80.12" font-family="Helvetica,sans-Serif" font-size="10.00">MotorController</text>
</a>
</g>
</g>
<!-- Node3&#45;&gt;Node1 -->
<g id="edge2_Node000001_Node000003" class="edge">
<title>Node3&#45;&gt;Node1</title>
<g id="a_edge2_Node000001_Node000003"><a xlink:title=" ">
<path fill="none" stroke="#63b8ff" d="M170.83,-79.36C178.88,-78.44 186.99,-77.52 194.93,-76.61"/>
<polygon fill="#63b8ff" stroke="#63b8ff" points="170.55,-75.87 161.01,-80.47 171.34,-82.82 170.55,-75.87"/>
</a>
</g>
</g>
<!-- Node4 -->
<g id="Node000004" class="node">
<title>Node4</title>
<g id="a_Node000004"><a xlink:title=" ">
<polygon fill="white" stroke="#bfbfbf" points="107.88,-56.25 51.38,-56.25 51.38,-37 107.88,-37 107.88,-56.25"/>
<text text-anchor="middle" x="79.62" y="-42.75" font-family="Helvetica,sans-Serif" font-size="10.00">Sendable</text>
</a>
</g>
</g>
<!-- Node4&#45;&gt;Node1 -->
<g id="edge3_Node000001_Node000004" class="edge">
<title>Node4&#45;&gt;Node1</title>
<g id="a_edge3_Node000001_Node000004"><a xlink:title=" ">
<path fill="none" stroke="#63b8ff" d="M119.65,-50.87C141.27,-53.22 168.95,-56.22 194.88,-59.04"/>
<polygon fill="#63b8ff" stroke="#63b8ff" points="120.14,-47.4 109.82,-49.8 119.38,-54.36 120.14,-47.4"/>
</a>
</g>
</g>
<!-- Node5 -->
<g id="Node000005" class="node">
<title>Node5</title>
<g id="a_Node000005"><a xlink:title=" ">
<polygon fill="white" stroke="#bfbfbf" points="119.5,-19.25 39.75,-19.25 39.75,0 119.5,0 119.5,-19.25"/>
<text text-anchor="middle" x="79.62" y="-5.75" font-family="Helvetica,sans-Serif" font-size="10.00">AutoCloseable</text>
</a>
</g>
</g>
<!-- Node5&#45;&gt;Node1 -->
<g id="edge4_Node000001_Node000005" class="edge">
<title>Node5&#45;&gt;Node1</title>
<g id="a_edge4_Node000001_Node000005"><a xlink:title=" ">
<path fill="none" stroke="#63b8ff" d="M130.63,-20.2C140.18,-22.46 150.06,-24.98 159.25,-27.62 183.86,-34.71 210.93,-44.08 232.58,-51.97"/>
<polygon fill="#63b8ff" stroke="#63b8ff" points="131.64,-16.84 121.11,-18 130.07,-23.66 131.64,-16.84"/>
</a>
</g>
</g>
</g>
</svg>
</svg>

<style type='text/css'>
<![CDATA[
[data-mouse-over-selected='false'] { opacity: 0.7; }
[data-mouse-over-selected='true']  { opacity: 1.0; }
]]>
</style>
<script type="application/ecmascript"><![CDATA[
document.addEventListener('DOMContentLoaded', (event) => {
  highlightEdges();
  highlightAdjacentNodes();
});
]]></script>
</svg>
