<?xml version="1.0" encoding="UTF-8" standalone="no"?>
<!DOCTYPE svg PUBLIC "-//W3C//DTD SVG 1.1//EN"
 "http://www.w3.org/Graphics/SVG/1.1/DTD/svg11.dtd">
<!-- Generated by graphviz version 9.0.0 (20230911.1827)
 -->
<!-- Title: edu.wpi.first.wpilibj.DigitalSource.getAnalogTriggerTypeForRouting Pages: 1 -->
<svg width="396pt" height="284pt"
 viewBox="0.00 0.00 395.50 283.50" xmlns="http://www.w3.org/2000/svg" xmlns:xlink="http://www.w3.org/1999/xlink">

<svg id="main" version="1.1" xmlns="http://www.w3.org/2000/svg" xmlns:xlink="http://www.w3.org/1999/xlink" xml:space="preserve" onload="init(evt)">
<style type="text/css"><![CDATA[
.node, .edge {opacity: 0.7;}
.node.selected, .edge.selected {opacity: 1;}
.edge:hover path { stroke: red; }
.edge:hover polygon { stroke: red; fill: red; }
]]></style>
<script type="application/ecmascript" xlink:href="svg.min.js"/>
<svg id="graph" class="graph">
<g id="graph0" class="graph" transform="scale(1 1) rotate(0) translate(4 279.5)">
<title>edu.wpi.first.wpilibj.DigitalSource.getAnalogTriggerTypeForRouting</title>
<!-- Node1 -->
<g id="Node000001" class="node">
<title>Node1</title>
<g id="a_Node000001"><a xlink:title=" ">
<polygon fill="#999999" stroke="#666666" points="387.5,-152.5 195.25,-152.5 195.25,-122 387.5,-122 387.5,-152.5"/>
<text text-anchor="start" x="203.25" y="-139" font-family="Helvetica,sans-Serif" font-size="10.00">edu.wpi.first.wpilibj.Digital</text>
<text text-anchor="middle" x="291.38" y="-127.75" font-family="Helvetica,sans-Serif" font-size="10.00">Source.getAnalogTriggerTypeForRouting</text>
</a>
</g>
</g>
<!-- Node2 -->
<g id="Node000002" class="node">
<title>Node2</title>
<g id="a_Node000002"><a xlink:href="classedu_1_1wpi_1_1first_1_1wpilibj_1_1_counter.html#a3ce037c671f43c48dd6d83f594848fb0" target="_top" xlink:title=" ">
<polygon fill="white" stroke="#666666" points="155.88,-275.5 3.38,-275.5 3.38,-245 155.88,-245 155.88,-275.5"/>
<text text-anchor="start" x="11.38" y="-262" font-family="Helvetica,sans-Serif" font-size="10.00">edu.wpi.first.wpilibj.Counter.set</text>
<text text-anchor="middle" x="79.62" y="-250.75" font-family="Helvetica,sans-Serif" font-size="10.00">DownSource</text>
</a>
</g>
</g>
<!-- Node1&#45;&gt;Node2 -->
<g id="edge1_Node000001_Node000002" class="edge">
<title>Node1&#45;&gt;Node2</title>
<g id="a_edge1_Node000001_Node000002"><a xlink:title=" ">
<path fill="none" stroke="#63b8ff" d="M264.82,-160.46C239.59,-182.35 199.1,-214.77 159.25,-235.25 152.5,-238.72 145.17,-241.83 137.8,-244.57"/>
<polygon fill="#63b8ff" stroke="#63b8ff" points="267.07,-163.15 272.27,-153.92 262.45,-157.89 267.07,-163.15"/>
</a>
</g>
</g>
<!-- Node3 -->
<g id="Node000003" class="node">
<title>Node3</title>
<g id="a_Node000003"><a xlink:href="classedu_1_1wpi_1_1first_1_1wpilibj_1_1_d_m_a.html#ac6abd6ecf13e6ab66c86b1cf25a40c24" target="_top" xlink:title=" ">
<polygon fill="white" stroke="#666666" points="150.25,-226.5 9,-226.5 9,-196 150.25,-196 150.25,-226.5"/>
<text text-anchor="start" x="17" y="-213" font-family="Helvetica,sans-Serif" font-size="10.00">edu.wpi.first.wpilibj.DMA.set</text>
<text text-anchor="middle" x="79.62" y="-201.75" font-family="Helvetica,sans-Serif" font-size="10.00">ExternalTrigger</text>
</a>
</g>
</g>
<!-- Node1&#45;&gt;Node3 -->
<g id="edge2_Node000001_Node000003" class="edge">
<title>Node1&#45;&gt;Node3</title>
<g id="a_edge2_Node000001_Node000003"><a xlink:title=" ">
<path fill="none" stroke="#63b8ff" d="M239.38,-156.98C215.2,-166.16 185.84,-177.06 159.25,-186.25 150.18,-189.38 140.47,-192.59 131.08,-195.62"/>
<polygon fill="#63b8ff" stroke="#63b8ff" points="240.59,-160.26 248.69,-153.43 238.09,-153.72 240.59,-160.26"/>
</a>
</g>
</g>
<!-- Node4 -->
<g id="Node000004" class="node">
<title>Node4</title>
<g id="a_Node000004"><a xlink:href="classedu_1_1wpi_1_1first_1_1wpilibj_1_1_encoder.html#a3a51f9827ccd6f88e57966d2b8df3fb7" target="_top" xlink:title=" ">
<polygon fill="white" stroke="#666666" points="156.62,-177.5 2.62,-177.5 2.62,-147 156.62,-147 156.62,-177.5"/>
<text text-anchor="start" x="10.62" y="-164" font-family="Helvetica,sans-Serif" font-size="10.00">edu.wpi.first.wpilibj.Encoder.set</text>
<text text-anchor="middle" x="79.62" y="-152.75" font-family="Helvetica,sans-Serif" font-size="10.00">IndexSource</text>
</a>
</g>
</g>
<!-- Node1&#45;&gt;Node4 -->
<g id="edge3_Node000001_Node000004" class="edge">
<title>Node1&#45;&gt;Node4</title>
<g id="a_edge3_Node000001_Node000004"><a xlink:title=" ">
<path fill="none" stroke="#63b8ff" d="M183.61,-149.98C174.6,-151.05 165.61,-152.12 156.9,-153.16"/>
<polygon fill="#63b8ff" stroke="#63b8ff" points="183.99,-153.45 193.51,-148.8 183.17,-146.5 183.99,-153.45"/>
</a>
</g>
</g>
<!-- Node5 -->
<g id="Node000005" class="node">
<title>Node5</title>
<g id="a_Node000005"><a xlink:href="classedu_1_1wpi_1_1first_1_1wpilibj_1_1_counter.html#ae63099da0d855dc72efd64c7579730c7" target="_top" xlink:title=" ">
<polygon fill="white" stroke="#666666" points="155.88,-128.5 3.38,-128.5 3.38,-98 155.88,-98 155.88,-128.5"/>
<text text-anchor="start" x="11.38" y="-115" font-family="Helvetica,sans-Serif" font-size="10.00">edu.wpi.first.wpilibj.Counter.set</text>
<text text-anchor="middle" x="79.62" y="-103.75" font-family="Helvetica,sans-Serif" font-size="10.00">UpSource</text>
</a>
</g>
</g>
<!-- Node1&#45;&gt;Node5 -->
<g id="edge4_Node000001_Node000005" class="edge">
<title>Node1&#45;&gt;Node5</title>
<g id="a_edge4_Node000001_Node000005"><a xlink:title=" ">
<path fill="none" stroke="#63b8ff" d="M183.72,-125.05C174.46,-123.99 165.21,-122.93 156.27,-121.91"/>
<polygon fill="#63b8ff" stroke="#63b8ff" points="183.18,-128.51 193.51,-126.17 183.97,-121.55 183.18,-128.51"/>
</a>
</g>
</g>
<!-- Node6 -->
<g id="Node000006" class="node">
<title>Node6</title>
<g id="a_Node000006"><a xlink:href="classedu_1_1wpi_1_1first_1_1wpilibj_1_1_s_p_i.html#a2a400b38911a94aa2eb7aefbeb4f7162" target="_top" xlink:title=" ">
<polygon fill="white" stroke="#666666" points="150.25,-79.5 9,-79.5 9,-49 150.25,-49 150.25,-79.5"/>
<text text-anchor="start" x="17" y="-66" font-family="Helvetica,sans-Serif" font-size="10.00">edu.wpi.first.wpilibj.SPI.start</text>
<text text-anchor="middle" x="79.62" y="-54.75" font-family="Helvetica,sans-Serif" font-size="10.00">AutoTrigger</text>
</a>
</g>
</g>
<!-- Node1&#45;&gt;Node6 -->
<g id="edge5_Node000001_Node000006" class="edge">
<title>Node1&#45;&gt;Node6</title>
<g id="a_edge5_Node000001_Node000006"><a xlink:title=" ">
<path fill="none" stroke="#63b8ff" d="M238.26,-117.59C214.28,-108.69 185.41,-98.19 159.25,-89.25 150.17,-86.15 140.46,-82.95 131.06,-79.93"/>
<polygon fill="#63b8ff" stroke="#63b8ff" points="236.89,-120.81 247.49,-121.02 239.34,-114.25 236.89,-120.81"/>
</a>
</g>
</g>
<!-- Node7 -->
<g id="Node000007" class="node">
<title>Node7</title>
<g id="a_Node000007"><a xlink:href="classedu_1_1wpi_1_1first_1_1wpilibj_1_1_synchronous_interrupt.html#a80059d1bb8f4bca30ac1c01a491d5232" target="_top" xlink:title=" ">
<polygon fill="white" stroke="#666666" points="159.25,-30.5 0,-30.5 0,0 159.25,0 159.25,-30.5"/>
<text text-anchor="start" x="8" y="-17" font-family="Helvetica,sans-Serif" font-size="10.00">edu.wpi.first.wpilibj.Synchronous</text>
<text text-anchor="middle" x="79.62" y="-5.75" font-family="Helvetica,sans-Serif" font-size="10.00">Interrupt.SynchronousInterrupt</text>
</a>
</g>
</g>
<!-- Node1&#45;&gt;Node7 -->
<g id="edge6_Node000001_Node000007" class="edge">
<title>Node1&#45;&gt;Node7</title>
<g id="a_edge6_Node000001_Node000007"><a xlink:title=" ">
<path fill="none" stroke="#63b8ff" d="M264.78,-114.29C239.52,-92.64 199,-60.56 159.25,-40.25 152.49,-36.8 145.16,-33.7 137.78,-30.96"/>
<polygon fill="#63b8ff" stroke="#63b8ff" points="262.39,-116.84 272.23,-120.76 266.98,-111.56 262.39,-116.84"/>
</a>
</g>
</g>
</g>
</svg>
</svg>

<style type='text/css'>
<![CDATA[
[data-mouse-over-selected='false'] { opacity: 0.7; }
[data-mouse-over-selected='true']  { opacity: 1.0; }
]]>
</style>
<script type="application/ecmascript"><![CDATA[
document.addEventListener('DOMContentLoaded', (event) => {
  highlightEdges();
  highlightAdjacentNodes();
});
]]></script>
</svg>
