<?xml version="1.0" encoding="UTF-8" standalone="no"?>
<!DOCTYPE svg PUBLIC "-//W3C//DTD SVG 1.1//EN"
 "http://www.w3.org/Graphics/SVG/1.1/DTD/svg11.dtd">
<!-- Generated by graphviz version 9.0.0 (20230911.1827)
 -->
<!-- Title: edu.wpi.first.wpilibj.RobotBase.isTeleop Pages: 1 -->
<svg width="466pt" height="88pt"
 viewBox="0.00 0.00 465.50 87.50" xmlns="http://www.w3.org/2000/svg" xmlns:xlink="http://www.w3.org/1999/xlink">
<g id="graph0" class="graph" transform="scale(1 1) rotate(0) translate(4 83.5)">
<title>edu.wpi.first.wpilibj.RobotBase.isTeleop</title>
<!-- Node1 -->
<g id="Node000001" class="node">
<title>Node1</title>
<g id="a_Node000001"><a xlink:title=" ">
<polygon fill="#999999" stroke="#666666" points="128.5,-54.5 0,-54.5 0,-24 128.5,-24 128.5,-54.5"/>
<text text-anchor="start" x="8" y="-41" font-family="Helvetica,sans-Serif" font-size="10.00">edu.wpi.first.wpilibj.Robot</text>
<text text-anchor="middle" x="64.25" y="-29.75" font-family="Helvetica,sans-Serif" font-size="10.00">Base.isTeleop</text>
</a>
</g>
</g>
<!-- Node2 -->
<g id="Node000002" class="node">
<title>Node2</title>
<g id="a_Node000002"><a xlink:href="classedu_1_1wpi_1_1first_1_1wpilibj_1_1_driver_station.html#a10f02d92c84e969b02bcbbeca9071afc" target="_top" xlink:title=" ">
<polygon fill="white" stroke="#666666" points="293,-54.5 164.5,-54.5 164.5,-24 293,-24 293,-54.5"/>
<text text-anchor="start" x="172.5" y="-41" font-family="Helvetica,sans-Serif" font-size="10.00">edu.wpi.first.wpilibj.Driver</text>
<text text-anchor="middle" x="228.75" y="-29.75" font-family="Helvetica,sans-Serif" font-size="10.00">Station.isTeleop</text>
</a>
</g>
</g>
<!-- Node1&#45;&gt;Node2 -->
<g id="edge1_Node000001_Node000002" class="edge">
<title>Node1&#45;&gt;Node2</title>
<g id="a_edge1_Node000001_Node000002"><a xlink:title=" ">
<path fill="none" stroke="#63b8ff" d="M128.54,-39.25C136.48,-39.25 144.65,-39.25 152.74,-39.25"/>
<polygon fill="#63b8ff" stroke="#63b8ff" points="152.58,-42.75 162.58,-39.25 152.58,-35.75 152.58,-42.75"/>
</a>
</g>
</g>
<!-- Node3 -->
<g id="Node000003" class="node">
<title>Node3</title>
<g id="a_Node000003"><a xlink:href="classedu_1_1wpi_1_1first_1_1wpilibj_1_1_driver_station.html#ab39bc2ade4db023e99a5495f3c6d6a81" target="_top" xlink:title=" ">
<polygon fill="white" stroke="#666666" points="457.5,-79.5 329,-79.5 329,-49 457.5,-49 457.5,-79.5"/>
<text text-anchor="start" x="337" y="-66" font-family="Helvetica,sans-Serif" font-size="10.00">edu.wpi.first.wpilibj.Driver</text>
<text text-anchor="middle" x="393.25" y="-54.75" font-family="Helvetica,sans-Serif" font-size="10.00">Station.isAutonomous</text>
</a>
</g>
</g>
<!-- Node2&#45;&gt;Node3 -->
<g id="edge2_Node000002_Node000003" class="edge">
<title>Node2&#45;&gt;Node3</title>
<g id="a_edge2_Node000002_Node000003"><a xlink:title=" ">
<path fill="none" stroke="#63b8ff" d="M293.04,-48.99C300.98,-50.21 309.15,-51.47 317.24,-52.71"/>
<polygon fill="#63b8ff" stroke="#63b8ff" points="316.68,-56.17 327.1,-54.23 317.75,-49.25 316.68,-56.17"/>
</a>
</g>
</g>
<!-- Node4 -->
<g id="Node000004" class="node">
<title>Node4</title>
<g id="a_Node000004"><a xlink:href="classedu_1_1wpi_1_1first_1_1wpilibj_1_1_driver_station.html#a88bf3e48132744d9b49164cce3ee830a" target="_top" xlink:title=" ">
<polygon fill="white" stroke="#666666" points="457.5,-30.5 329,-30.5 329,0 457.5,0 457.5,-30.5"/>
<text text-anchor="start" x="337" y="-17" font-family="Helvetica,sans-Serif" font-size="10.00">edu.wpi.first.wpilibj.Driver</text>
<text text-anchor="middle" x="393.25" y="-5.75" font-family="Helvetica,sans-Serif" font-size="10.00">Station.isTest</text>
</a>
</g>
</g>
<!-- Node2&#45;&gt;Node4 -->
<g id="edge3_Node000002_Node000004" class="edge">
<title>Node2&#45;&gt;Node4</title>
<g id="a_edge3_Node000002_Node000004"><a xlink:title=" ">
<path fill="none" stroke="#63b8ff" d="M293.04,-29.9C300.98,-28.73 309.15,-27.52 317.24,-26.33"/>
<polygon fill="#63b8ff" stroke="#63b8ff" points="317.72,-29.8 327.1,-24.87 316.69,-22.87 317.72,-29.8"/>
</a>
</g>
</g>
</g>
</svg>
