<?xml version="1.0" encoding="UTF-8" standalone="no"?>
<!DOCTYPE svg PUBLIC "-//W3C//DTD SVG 1.1//EN"
 "http://www.w3.org/Graphics/SVG/1.1/DTD/svg11.dtd">
<!-- Generated by graphviz version 9.0.0 (20230911.1827)
 -->
<!-- Title: edu.wpi.first.wpilibj.drive.DifferentialDrive.arcadeDrive Pages: 1 -->
<svg width="681pt" height="88pt"
 viewBox="0.00 0.00 681.00 87.50" xmlns="http://www.w3.org/2000/svg" xmlns:xlink="http://www.w3.org/1999/xlink">
<g id="graph0" class="graph" transform="scale(1 1) rotate(0) translate(4 83.5)">
<title>edu.wpi.first.wpilibj.drive.DifferentialDrive.arcadeDrive</title>
<!-- Node1 -->
<g id="Node000001" class="node">
<title>Node1</title>
<g id="a_Node000001"><a xlink:title=" ">
<polygon fill="#999999" stroke="#666666" points="142,-54.5 0,-54.5 0,-24 142,-24 142,-54.5"/>
<text text-anchor="start" x="8" y="-41" font-family="Helvetica,sans-Serif" font-size="10.00">edu.wpi.first.wpilibj.drive.</text>
<text text-anchor="middle" x="71" y="-29.75" font-family="Helvetica,sans-Serif" font-size="10.00">DifferentialDrive.arcadeDrive</text>
</a>
</g>
</g>
<!-- Node2 -->
<g id="Node000002" class="node">
<title>Node2</title>
<g id="a_Node000002"><a xlink:href="classedu_1_1wpi_1_1first_1_1wpilibj_1_1drive_1_1_differential_drive.html#acbcf8b6c3724f24c53aa127528ce57c8" target="_top" xlink:title=" ">
<polygon fill="white" stroke="#666666" points="329.75,-79.5 178,-79.5 178,-49 329.75,-49 329.75,-79.5"/>
<text text-anchor="start" x="186" y="-66" font-family="Helvetica,sans-Serif" font-size="10.00">edu.wpi.first.wpilibj.drive.</text>
<text text-anchor="middle" x="253.88" y="-54.75" font-family="Helvetica,sans-Serif" font-size="10.00">DifferentialDrive.arcadeDriveIK</text>
</a>
</g>
</g>
<!-- Node1&#45;&gt;Node2 -->
<g id="edge1_Node000001_Node000002" class="edge">
<title>Node1&#45;&gt;Node2</title>
<g id="a_edge1_Node000001_Node000002"><a xlink:title=" ">
<path fill="none" stroke="#63b8ff" d="M142.45,-48.99C150.27,-50.07 158.3,-51.18 166.29,-52.28"/>
<polygon fill="#63b8ff" stroke="#63b8ff" points="165.65,-55.73 176.04,-53.63 166.61,-48.79 165.65,-55.73"/>
</a>
</g>
</g>
<!-- Node3 -->
<g id="Node000003" class="node">
<title>Node3</title>
<g id="a_Node000003"><a xlink:href="classedu_1_1wpi_1_1first_1_1wpilibj_1_1_motor_safety.html#a1cf5b3c42e8b01f45af0004135ce0ef3" target="_top" xlink:title=" ">
<polygon fill="white" stroke="#666666" points="317.38,-30.5 190.38,-30.5 190.38,0 317.38,0 317.38,-30.5"/>
<text text-anchor="start" x="198.38" y="-17" font-family="Helvetica,sans-Serif" font-size="10.00">edu.wpi.first.wpilibj.Motor</text>
<text text-anchor="middle" x="253.88" y="-5.75" font-family="Helvetica,sans-Serif" font-size="10.00">Safety.feed</text>
</a>
</g>
</g>
<!-- Node1&#45;&gt;Node3 -->
<g id="edge2_Node000001_Node000003" class="edge">
<title>Node1&#45;&gt;Node3</title>
<g id="a_edge2_Node000001_Node000003"><a xlink:title=" ">
<path fill="none" stroke="#63b8ff" d="M142.45,-29.9C154.33,-28.33 166.69,-26.69 178.66,-25.1"/>
<polygon fill="#63b8ff" stroke="#63b8ff" points="179.03,-28.58 188.48,-23.79 178.11,-21.64 179.03,-28.58"/>
</a>
</g>
</g>
<!-- Node4 -->
<g id="Node000004" class="node">
<title>Node4</title>
<g id="a_Node000004"><a xlink:href="classedu_1_1wpi_1_1first_1_1wpilibj_1_1_timer.html#a554f331c3b4645ee279bab8974cf21af" target="_top" xlink:title=" ">
<polygon fill="white" stroke="#666666" points="508.5,-30.5 365.75,-30.5 365.75,0 508.5,0 508.5,-30.5"/>
<text text-anchor="start" x="373.75" y="-17" font-family="Helvetica,sans-Serif" font-size="10.00">edu.wpi.first.wpilibj.Timer.get</text>
<text text-anchor="middle" x="437.12" y="-5.75" font-family="Helvetica,sans-Serif" font-size="10.00">FPGATimestamp</text>
</a>
</g>
</g>
<!-- Node3&#45;&gt;Node4 -->
<g id="edge3_Node000003_Node000004" class="edge">
<title>Node3&#45;&gt;Node4</title>
<g id="a_edge3_Node000003_Node000004"><a xlink:title=" ">
<path fill="none" stroke="#63b8ff" d="M317.76,-15.25C329.38,-15.25 341.68,-15.25 353.77,-15.25"/>
<polygon fill="#63b8ff" stroke="#63b8ff" points="353.77,-18.75 363.77,-15.25 353.77,-11.75 353.77,-18.75"/>
</a>
</g>
</g>
<!-- Node5 -->
<g id="Node000005" class="node">
<title>Node5</title>
<g id="a_Node000005"><a xlink:href="classedu_1_1wpi_1_1first_1_1wpilibj_1_1_robot_controller.html#a0768221aed0858ad185f14c8218300e0" target="_top" xlink:title=" ">
<polygon fill="white" stroke="#666666" points="673,-30.5 544.5,-30.5 544.5,0 673,0 673,-30.5"/>
<text text-anchor="start" x="552.5" y="-17" font-family="Helvetica,sans-Serif" font-size="10.00">edu.wpi.first.wpilibj.Robot</text>
<text text-anchor="middle" x="608.75" y="-5.75" font-family="Helvetica,sans-Serif" font-size="10.00">Controller.getFPGATime</text>
</a>
</g>
</g>
<!-- Node4&#45;&gt;Node5 -->
<g id="edge4_Node000004_Node000005" class="edge">
<title>Node4&#45;&gt;Node5</title>
<g id="a_edge4_Node000004_Node000005"><a xlink:title=" ">
<path fill="none" stroke="#63b8ff" d="M508.59,-15.25C516.57,-15.25 524.72,-15.25 532.76,-15.25"/>
<polygon fill="#63b8ff" stroke="#63b8ff" points="532.5,-18.75 542.5,-15.25 532.5,-11.75 532.5,-18.75"/>
</a>
</g>
</g>
</g>
</svg>
