<?xml version="1.0" encoding="UTF-8" standalone="no"?>
<!DOCTYPE svg PUBLIC "-//W3C//DTD SVG 1.1//EN"
 "http://www.w3.org/Graphics/SVG/1.1/DTD/svg11.dtd">
<!-- Generated by graphviz version 9.0.0 (20230911.1827)
 -->
<!-- Title: edu.wpi.first.wpilibj.MotorSafety Pages: 1 -->
<!--zoomable 725 -->

<svg id="main" version="1.1" xmlns="http://www.w3.org/2000/svg" xmlns:xlink="http://www.w3.org/1999/xlink" xml:space="preserve" onload="init(evt)">
<style type="text/css"><![CDATA[
.node, .edge {opacity: 0.7;}
.node.selected, .edge.selected {opacity: 1;}
.edge:hover path { stroke: red; }
.edge:hover polygon { stroke: red; fill: red; }
]]></style>

<defs>
  <circle id="rim" cx="0" cy="0" r="7"/>
  <circle id="rim2" cx="0" cy="0" r="3.5"/>
  <g id="zoomPlus">
    <use xlink:href="#rim" fill="#404040"><set attributeName="fill" to="#808080" begin="zoomplus.mouseover" end="zoomplus.mouseout"/></use>
    <path d="M-4,0h8M0,-4v8" fill="none" stroke="white" stroke-width="1.5" pointer-events="none"/>
  </g>
  <g id="zoomMin">
    <use xlink:href="#rim" fill="#404040"><set attributeName="fill" to="#808080" begin="zoomminus.mouseover" end="zoomminus.mouseout"/></use>
    <path d="M-4,0h8" fill="none" stroke="white" stroke-width="1.5" pointer-events="none"/>
  </g>
  <g id="arrowUp" transform="translate(30 24)">
    <use xlink:href="#rim"/>
    <path pointer-events="none" fill="none" stroke="white" stroke-width="1.5" d="M0,-3.0v7 M-2.5,-0.5L0,-3.0L2.5,-0.5"/>
  </g>
  <g id="arrowRight" transform="rotate(90) translate(36 -43)">
    <use xlink:href="#rim"/>
    <path pointer-events="none" fill="none" stroke="white" stroke-width="1.5" d="M0,-3.0v7 M-2.5,-0.5L0,-3.0L2.5,-0.5"/>
  </g>
  <g id="arrowDown" transform="rotate(180) translate(-30 -48)">
    <use xlink:href="#rim"/>
    <path pointer-events="none" fill="none" stroke="white" stroke-width="1.5" d="M0,-3.0v7 M-2.5,-0.5L0,-3.0L2.5,-0.5"/>
  </g>
  <g id="arrowLeft" transform="rotate(270) translate(-36 17)">
    <use xlink:href="#rim"/>
    <path pointer-events="none" fill="none" stroke="white" stroke-width="1.5" d="M0,-3.0v7 M-2.5,-0.5L0,-3.0L2.5,-0.5"/>
  </g>
  <g id="resetDef">
    <use xlink:href="#rim2" fill="#404040"><set attributeName="fill" to="#808080" begin="reset.mouseover" end="reset.mouseout"/></use>
  </g>
</defs>
<script type="application/ecmascript">
var viewWidth = 526;
var viewHeight = 725;
var sectionId = 'dynsection-0';
</script>
<script type="application/ecmascript" xlink:href="svg.min.js"/>
<svg id="graph" class="graph">
<g id="viewport">
<title>edu.wpi.first.wpilibj.MotorSafety</title>
<!-- Node1 -->
<g id="Node000001" class="node">
<title>Node1</title>
<g id="a_Node000001"><a xlink:title=" ">
<polygon fill="#999999" stroke="#666666" points="127,-642.5 0,-642.5 0,-612 127,-612 127,-642.5"/>
<text text-anchor="start" x="8" y="-629" font-family="Helvetica,sans-Serif" font-size="10.00">edu.wpi.first.wpilibj.Motor</text>
<text text-anchor="middle" x="63.5" y="-617.75" font-family="Helvetica,sans-Serif" font-size="10.00">Safety</text>
</a>
</g>
</g>
<!-- Node2 -->
<g id="Node000002" class="node">
<title>Node2</title>
<g id="a_Node000002"><a xlink:href="classedu_1_1wpi_1_1first_1_1wpilibj_1_1_relay.html" target="_top" xlink:title=" ">
<polygon fill="white" stroke="#666666" points="306.5,-704.88 178.75,-704.88 178.75,-685.62 306.5,-685.62 306.5,-704.88"/>
<text text-anchor="middle" x="242.62" y="-691.38" font-family="Helvetica,sans-Serif" font-size="10.00">edu.wpi.first.wpilibj.Relay</text>
</a>
</g>
</g>
<!-- Node1&#45;&gt;Node2 -->
<g id="edge1_Node000001_Node000002" class="edge">
<title>Node1&#45;&gt;Node2</title>
<g id="a_edge1_Node000001_Node000002"><a xlink:title=" ">
<path fill="none" stroke="#63b8ff" d="M101.89,-648.33C119.93,-657.86 142.15,-668.65 163,-676.25 172.37,-679.66 182.59,-682.64 192.47,-685.17"/>
<polygon fill="#63b8ff" stroke="#63b8ff" points="103.58,-645.27 93.12,-643.62 100.27,-651.44 103.58,-645.27"/>
</a>
</g>
</g>
<!-- Node3 -->
<g id="Node000003" class="node">
<title>Node3</title>
<g id="a_Node000003"><a xlink:href="classedu_1_1wpi_1_1first_1_1wpilibj_1_1drive_1_1_robot_drive_base.html" target="_top" xlink:title=" ">
<polygon fill="white" stroke="#666666" points="305.75,-667.5 179.5,-667.5 179.5,-637 305.75,-637 305.75,-667.5"/>
<text text-anchor="start" x="187.5" y="-654" font-family="Helvetica,sans-Serif" font-size="10.00">edu.wpi.first.wpilibj.drive.</text>
<text text-anchor="middle" x="242.62" y="-642.75" font-family="Helvetica,sans-Serif" font-size="10.00">RobotDriveBase</text>
</a>
</g>
</g>
<!-- Node1&#45;&gt;Node3 -->
<g id="edge2_Node000001_Node000003" class="edge">
<title>Node1&#45;&gt;Node3</title>
<g id="a_edge2_Node000001_Node000003"><a xlink:title=" ">
<path fill="none" stroke="#63b8ff" d="M138.64,-637.71C152.13,-639.62 166.07,-641.59 179.18,-643.44"/>
<polygon fill="#63b8ff" stroke="#63b8ff" points="139.34,-634.28 128.95,-636.35 138.36,-641.21 139.34,-634.28"/>
</a>
</g>
</g>
<!-- Node6 -->
<g id="Node000006" class="node">
<title>Node6</title>
<g id="a_Node000006"><a xlink:href="classedu_1_1wpi_1_1first_1_1wpilibj_1_1motorcontrol_1_1_nidec_brushless.html" target="_top" xlink:title=" ">
<polygon fill="white" stroke="#666666" points="322.25,-618.5 163,-618.5 163,-588 322.25,-588 322.25,-618.5"/>
<text text-anchor="start" x="171" y="-605" font-family="Helvetica,sans-Serif" font-size="10.00">edu.wpi.first.wpilibj.motorcontrol.</text>
<text text-anchor="middle" x="242.62" y="-593.75" font-family="Helvetica,sans-Serif" font-size="10.00">NidecBrushless</text>
</a>
</g>
</g>
<!-- Node1&#45;&gt;Node6 -->
<g id="edge5_Node000001_Node000006" class="edge">
<title>Node1&#45;&gt;Node6</title>
<g id="a_edge5_Node000001_Node000006"><a xlink:title=" ">
<path fill="none" stroke="#63b8ff" d="M138.6,-617.21C146.58,-616.13 154.73,-615.02 162.76,-613.94"/>
<polygon fill="#63b8ff" stroke="#63b8ff" points="138.39,-613.71 128.95,-618.52 139.33,-620.64 138.39,-613.71"/>
</a>
</g>
</g>
<!-- Node7 -->
<g id="Node000007" class="node">
<title>Node7</title>
<g id="a_Node000007"><a xlink:href="classedu_1_1wpi_1_1first_1_1wpilibj_1_1motorcontrol_1_1_p_w_m_motor_controller.html" target="_top" xlink:title=" ">
<polygon fill="white" stroke="#666666" points="322.25,-349.5 163,-349.5 163,-319 322.25,-319 322.25,-349.5"/>
<text text-anchor="start" x="171" y="-336" font-family="Helvetica,sans-Serif" font-size="10.00">edu.wpi.first.wpilibj.motorcontrol.</text>
<text text-anchor="middle" x="242.62" y="-324.75" font-family="Helvetica,sans-Serif" font-size="10.00">PWMMotorController</text>
</a>
</g>
</g>
<!-- Node1&#45;&gt;Node7 -->
<g id="edge6_Node000001_Node000007" class="edge">
<title>Node1&#45;&gt;Node7</title>
<g id="a_edge6_Node000001_Node000007"><a xlink:title=" ">
<path fill="none" stroke="#63b8ff" d="M79.58,-602.3C115.11,-543.53 203.26,-397.72 232.23,-349.79"/>
<polygon fill="#63b8ff" stroke="#63b8ff" points="76.73,-600.25 74.56,-610.61 82.73,-603.87 76.73,-600.25"/>
</a>
</g>
</g>
<!-- Node4 -->
<g id="Node000004" class="node">
<title>Node4</title>
<g id="a_Node000004"><a xlink:href="classedu_1_1wpi_1_1first_1_1wpilibj_1_1drive_1_1_differential_drive.html" target="_top" xlink:title=" ">
<polygon fill="white" stroke="#666666" points="501,-716.5 374.75,-716.5 374.75,-686 501,-686 501,-716.5"/>
<text text-anchor="start" x="382.75" y="-703" font-family="Helvetica,sans-Serif" font-size="10.00">edu.wpi.first.wpilibj.drive.</text>
<text text-anchor="middle" x="437.88" y="-691.75" font-family="Helvetica,sans-Serif" font-size="10.00">DifferentialDrive</text>
</a>
</g>
</g>
<!-- Node3&#45;&gt;Node4 -->
<g id="edge3_Node000003_Node000004" class="edge">
<title>Node3&#45;&gt;Node4</title>
<g id="a_edge3_Node000003_Node000004"><a xlink:title=" ">
<path fill="none" stroke="#63b8ff" d="M316.69,-670.78C335.89,-675.64 356.4,-680.85 374.95,-685.55"/>
<polygon fill="#63b8ff" stroke="#63b8ff" points="317.59,-667.39 307.04,-668.33 315.87,-674.18 317.59,-667.39"/>
</a>
</g>
</g>
<!-- Node5 -->
<g id="Node000005" class="node">
<title>Node5</title>
<g id="a_Node000005"><a xlink:href="classedu_1_1wpi_1_1first_1_1wpilibj_1_1drive_1_1_mecanum_drive.html" target="_top" xlink:title=" ">
<polygon fill="white" stroke="#666666" points="501,-667.5 374.75,-667.5 374.75,-637 501,-637 501,-667.5"/>
<text text-anchor="start" x="382.75" y="-654" font-family="Helvetica,sans-Serif" font-size="10.00">edu.wpi.first.wpilibj.drive.</text>
<text text-anchor="middle" x="437.88" y="-642.75" font-family="Helvetica,sans-Serif" font-size="10.00">MecanumDrive</text>
</a>
</g>
</g>
<!-- Node3&#45;&gt;Node5 -->
<g id="edge4_Node000003_Node000005" class="edge">
<title>Node3&#45;&gt;Node5</title>
<g id="a_edge4_Node000003_Node000005"><a xlink:title=" ">
<path fill="none" stroke="#63b8ff" d="M317.57,-652.25C336.28,-652.25 356.19,-652.25 374.28,-652.25"/>
<polygon fill="#63b8ff" stroke="#63b8ff" points="317.61,-648.75 307.61,-652.25 317.61,-655.75 317.61,-648.75"/>
</a>
</g>
</g>
<!-- Node8 -->
<g id="Node000008" class="node">
<title>Node8</title>
<g id="a_Node000008"><a xlink:href="classedu_1_1wpi_1_1first_1_1wpilibj_1_1motorcontrol_1_1_d_m_c60.html" target="_top" xlink:title=" ">
<polygon fill="white" stroke="#666666" points="517.5,-618.5 358.25,-618.5 358.25,-588 517.5,-588 517.5,-618.5"/>
<text text-anchor="start" x="366.25" y="-605" font-family="Helvetica,sans-Serif" font-size="10.00">edu.wpi.first.wpilibj.motorcontrol.</text>
<text text-anchor="middle" x="437.88" y="-593.75" font-family="Helvetica,sans-Serif" font-size="10.00">DMC60</text>
</a>
</g>
</g>
<!-- Node7&#45;&gt;Node8 -->
<g id="edge7_Node000007_Node000008" class="edge">
<title>Node7&#45;&gt;Node8</title>
<g id="a_edge7_Node000007_Node000008"><a xlink:title=" ">
<path fill="none" stroke="#63b8ff" d="M248.84,-361.15C259.94,-411.21 290.62,-518.97 358.25,-578.25 362.34,-581.84 366.95,-584.91 371.84,-587.54"/>
<polygon fill="#63b8ff" stroke="#63b8ff" points="252.29,-360.54 246.8,-351.48 245.44,-361.99 252.29,-360.54"/>
</a>
</g>
</g>
<!-- Node9 -->
<g id="Node000009" class="node">
<title>Node9</title>
<g id="a_Node000009"><a xlink:href="classedu_1_1wpi_1_1first_1_1wpilibj_1_1motorcontrol_1_1_jaguar.html" target="_top" xlink:title=" ">
<polygon fill="white" stroke="#666666" points="517.5,-569.5 358.25,-569.5 358.25,-539 517.5,-539 517.5,-569.5"/>
<text text-anchor="start" x="366.25" y="-556" font-family="Helvetica,sans-Serif" font-size="10.00">edu.wpi.first.wpilibj.motorcontrol.</text>
<text text-anchor="middle" x="437.88" y="-544.75" font-family="Helvetica,sans-Serif" font-size="10.00">Jaguar</text>
</a>
</g>
</g>
<!-- Node7&#45;&gt;Node9 -->
<g id="edge8_Node000007_Node000009" class="edge">
<title>Node7&#45;&gt;Node9</title>
<g id="a_edge8_Node000007_Node000009"><a xlink:title=" ">
<path fill="none" stroke="#63b8ff" d="M252.06,-360.4C266.86,-402.19 301.44,-483.91 358.25,-529.25 362.73,-532.82 367.73,-535.89 372.97,-538.52"/>
<polygon fill="#63b8ff" stroke="#63b8ff" points="255.45,-359.5 248.9,-351.17 248.83,-361.77 255.45,-359.5"/>
</a>
</g>
</g>
<!-- Node10 -->
<g id="Node000010" class="node">
<title>Node10</title>
<g id="a_Node000010"><a xlink:href="classedu_1_1wpi_1_1first_1_1wpilibj_1_1motorcontrol_1_1_p_w_m_spark_flex.html" target="_top" xlink:title=" ">
<polygon fill="white" stroke="#666666" points="517.5,-520.5 358.25,-520.5 358.25,-490 517.5,-490 517.5,-520.5"/>
<text text-anchor="start" x="366.25" y="-507" font-family="Helvetica,sans-Serif" font-size="10.00">edu.wpi.first.wpilibj.motorcontrol.</text>
<text text-anchor="middle" x="437.88" y="-495.75" font-family="Helvetica,sans-Serif" font-size="10.00">PWMSparkFlex</text>
</a>
</g>
</g>
<!-- Node7&#45;&gt;Node10 -->
<g id="edge9_Node000007_Node000010" class="edge">
<title>Node7&#45;&gt;Node10</title>
<g id="a_edge9_Node000007_Node000010"><a xlink:title=" ">
<path fill="none" stroke="#63b8ff" d="M257.14,-359.67C275.72,-392.23 312.14,-448.26 358.25,-480.25 363.43,-483.84 369.15,-486.94 375.07,-489.6"/>
<polygon fill="#63b8ff" stroke="#63b8ff" points="260.41,-358.34 252.49,-351.31 254.29,-361.74 260.41,-358.34"/>
</a>
</g>
</g>
<!-- Node11 -->
<g id="Node000011" class="node">
<title>Node11</title>
<g id="a_Node000011"><a xlink:href="classedu_1_1wpi_1_1first_1_1wpilibj_1_1motorcontrol_1_1_p_w_m_spark_max.html" target="_top" xlink:title=" ">
<polygon fill="white" stroke="#666666" points="517.5,-471.5 358.25,-471.5 358.25,-441 517.5,-441 517.5,-471.5"/>
<text text-anchor="start" x="366.25" y="-458" font-family="Helvetica,sans-Serif" font-size="10.00">edu.wpi.first.wpilibj.motorcontrol.</text>
<text text-anchor="middle" x="437.88" y="-446.75" font-family="Helvetica,sans-Serif" font-size="10.00">PWMSparkMax</text>
</a>
</g>
</g>
<!-- Node7&#45;&gt;Node11 -->
<g id="edge10_Node000007_Node000011" class="edge">
<title>Node7&#45;&gt;Node11</title>
<g id="a_edge10_Node000007_Node000011"><a xlink:title=" ">
<path fill="none" stroke="#63b8ff" d="M266.03,-357.97C287.77,-379.75 322.6,-411.54 358.25,-431.25 364.64,-434.78 371.61,-437.9 378.67,-440.63"/>
<polygon fill="#63b8ff" stroke="#63b8ff" points="268.66,-355.65 259.16,-350.96 263.66,-360.55 268.66,-355.65"/>
</a>
</g>
</g>
<!-- Node12 -->
<g id="Node000012" class="node">
<title>Node12</title>
<g id="a_Node000012"><a xlink:href="classedu_1_1wpi_1_1first_1_1wpilibj_1_1motorcontrol_1_1_p_w_m_talon_f_x.html" target="_top" xlink:title=" ">
<polygon fill="white" stroke="#666666" points="517.5,-422.5 358.25,-422.5 358.25,-392 517.5,-392 517.5,-422.5"/>
<text text-anchor="start" x="366.25" y="-409" font-family="Helvetica,sans-Serif" font-size="10.00">edu.wpi.first.wpilibj.motorcontrol.</text>
<text text-anchor="middle" x="437.88" y="-397.75" font-family="Helvetica,sans-Serif" font-size="10.00">PWMTalonFX</text>
</a>
</g>
</g>
<!-- Node7&#45;&gt;Node12 -->
<g id="edge11_Node000007_Node000012" class="edge">
<title>Node7&#45;&gt;Node12</title>
<g id="a_edge11_Node000007_Node000012"><a xlink:title=" ">
<path fill="none" stroke="#63b8ff" d="M289.4,-354.52C310.24,-363.45 335.32,-373.82 358.25,-382.25 366.99,-385.46 376.36,-388.65 385.48,-391.63"/>
<polygon fill="#63b8ff" stroke="#63b8ff" points="290.89,-351.34 280.32,-350.59 288.11,-357.77 290.89,-351.34"/>
</a>
</g>
</g>
<!-- Node13 -->
<g id="Node000013" class="node">
<title>Node13</title>
<g id="a_Node000013"><a xlink:href="classedu_1_1wpi_1_1first_1_1wpilibj_1_1motorcontrol_1_1_p_w_m_talon_s_r_x.html" target="_top" xlink:title=" ">
<polygon fill="white" stroke="#666666" points="517.5,-373.5 358.25,-373.5 358.25,-343 517.5,-343 517.5,-373.5"/>
<text text-anchor="start" x="366.25" y="-360" font-family="Helvetica,sans-Serif" font-size="10.00">edu.wpi.first.wpilibj.motorcontrol.</text>
<text text-anchor="middle" x="437.88" y="-348.75" font-family="Helvetica,sans-Serif" font-size="10.00">PWMTalonSRX</text>
</a>
</g>
</g>
<!-- Node7&#45;&gt;Node13 -->
<g id="edge12_Node000007_Node000013" class="edge">
<title>Node7&#45;&gt;Node13</title>
<g id="a_edge12_Node000007_Node000013"><a xlink:title=" ">
<path fill="none" stroke="#63b8ff" d="M333.83,-345.45C341.88,-346.45 349.99,-347.46 357.93,-348.45"/>
<polygon fill="#63b8ff" stroke="#63b8ff" points="334.36,-341.99 324.01,-344.23 333.5,-348.94 334.36,-341.99"/>
</a>
</g>
</g>
<!-- Node14 -->
<g id="Node000014" class="node">
<title>Node14</title>
<g id="a_Node000014"><a xlink:href="classedu_1_1wpi_1_1first_1_1wpilibj_1_1motorcontrol_1_1_p_w_m_venom.html" target="_top" xlink:title=" ">
<polygon fill="white" stroke="#666666" points="517.5,-324.5 358.25,-324.5 358.25,-294 517.5,-294 517.5,-324.5"/>
<text text-anchor="start" x="366.25" y="-311" font-family="Helvetica,sans-Serif" font-size="10.00">edu.wpi.first.wpilibj.motorcontrol.</text>
<text text-anchor="middle" x="437.88" y="-299.75" font-family="Helvetica,sans-Serif" font-size="10.00">PWMVenom</text>
</a>
</g>
</g>
<!-- Node7&#45;&gt;Node14 -->
<g id="edge13_Node000007_Node000014" class="edge">
<title>Node7&#45;&gt;Node14</title>
<g id="a_edge13_Node000007_Node000014"><a xlink:title=" ">
<path fill="none" stroke="#63b8ff" d="M333.83,-322.58C341.88,-321.54 349.99,-320.49 357.93,-319.46"/>
<polygon fill="#63b8ff" stroke="#63b8ff" points="333.48,-319.1 324.01,-323.85 334.37,-326.04 333.48,-319.1"/>
</a>
</g>
</g>
<!-- Node15 -->
<g id="Node000015" class="node">
<title>Node15</title>
<g id="a_Node000015"><a xlink:href="classedu_1_1wpi_1_1first_1_1wpilibj_1_1motorcontrol_1_1_p_w_m_victor_s_p_x.html" target="_top" xlink:title=" ">
<polygon fill="white" stroke="#666666" points="517.5,-275.5 358.25,-275.5 358.25,-245 517.5,-245 517.5,-275.5"/>
<text text-anchor="start" x="366.25" y="-262" font-family="Helvetica,sans-Serif" font-size="10.00">edu.wpi.first.wpilibj.motorcontrol.</text>
<text text-anchor="middle" x="437.88" y="-250.75" font-family="Helvetica,sans-Serif" font-size="10.00">PWMVictorSPX</text>
</a>
</g>
</g>
<!-- Node7&#45;&gt;Node15 -->
<g id="edge14_Node000007_Node000015" class="edge">
<title>Node7&#45;&gt;Node15</title>
<g id="a_edge14_Node000007_Node000015"><a xlink:title=" ">
<path fill="none" stroke="#63b8ff" d="M288.14,-314.04C309.2,-304.78 334.82,-293.96 358.25,-285.25 366.84,-282.06 376.05,-278.9 385.04,-275.95"/>
<polygon fill="#63b8ff" stroke="#63b8ff" points="287,-310.72 279.27,-317.97 289.83,-317.12 287,-310.72"/>
</a>
</g>
</g>
<!-- Node16 -->
<g id="Node000016" class="node">
<title>Node16</title>
<g id="a_Node000016"><a xlink:href="classedu_1_1wpi_1_1first_1_1wpilibj_1_1motorcontrol_1_1_s_d540.html" target="_top" xlink:title=" ">
<polygon fill="white" stroke="#666666" points="517.5,-226.5 358.25,-226.5 358.25,-196 517.5,-196 517.5,-226.5"/>
<text text-anchor="start" x="366.25" y="-213" font-family="Helvetica,sans-Serif" font-size="10.00">edu.wpi.first.wpilibj.motorcontrol.</text>
<text text-anchor="middle" x="437.88" y="-201.75" font-family="Helvetica,sans-Serif" font-size="10.00">SD540</text>
</a>
</g>
</g>
<!-- Node7&#45;&gt;Node16 -->
<g id="edge15_Node000007_Node000016" class="edge">
<title>Node7&#45;&gt;Node16</title>
<g id="a_edge15_Node000007_Node000016"><a xlink:title=" ">
<path fill="none" stroke="#63b8ff" d="M265.62,-310.64C287.29,-288.62 322.3,-256.25 358.25,-236.25 364.51,-232.77 371.32,-229.69 378.23,-227"/>
<polygon fill="#63b8ff" stroke="#63b8ff" points="263.21,-308.1 258.77,-317.72 268.24,-312.96 263.21,-308.1"/>
</a>
</g>
</g>
<!-- Node17 -->
<g id="Node000017" class="node">
<title>Node17</title>
<g id="a_Node000017"><a xlink:href="classedu_1_1wpi_1_1first_1_1wpilibj_1_1motorcontrol_1_1_spark.html" target="_top" xlink:title=" ">
<polygon fill="white" stroke="#666666" points="517.5,-177.5 358.25,-177.5 358.25,-147 517.5,-147 517.5,-177.5"/>
<text text-anchor="start" x="366.25" y="-164" font-family="Helvetica,sans-Serif" font-size="10.00">edu.wpi.first.wpilibj.motorcontrol.</text>
<text text-anchor="middle" x="437.88" y="-152.75" font-family="Helvetica,sans-Serif" font-size="10.00">Spark</text>
</a>
</g>
</g>
<!-- Node7&#45;&gt;Node17 -->
<g id="edge16_Node000007_Node000017" class="edge">
<title>Node7&#45;&gt;Node17</title>
<g id="a_edge16_Node000007_Node000017"><a xlink:title=" ">
<path fill="none" stroke="#63b8ff" d="M256.81,-309.16C275.25,-276.46 311.76,-219.62 358.25,-187.25 363.42,-183.65 369.14,-180.55 375.06,-177.88"/>
<polygon fill="#63b8ff" stroke="#63b8ff" points="253.95,-307.1 252.2,-317.55 260.09,-310.47 253.95,-307.1"/>
</a>
</g>
</g>
<!-- Node18 -->
<g id="Node000018" class="node">
<title>Node18</title>
<g id="a_Node000018"><a xlink:href="classedu_1_1wpi_1_1first_1_1wpilibj_1_1motorcontrol_1_1_talon.html" target="_top" xlink:title=" ">
<polygon fill="white" stroke="#666666" points="517.5,-128.5 358.25,-128.5 358.25,-98 517.5,-98 517.5,-128.5"/>
<text text-anchor="start" x="366.25" y="-115" font-family="Helvetica,sans-Serif" font-size="10.00">edu.wpi.first.wpilibj.motorcontrol.</text>
<text text-anchor="middle" x="437.88" y="-103.75" font-family="Helvetica,sans-Serif" font-size="10.00">Talon</text>
</a>
</g>
</g>
<!-- Node7&#45;&gt;Node18 -->
<g id="edge17_Node000007_Node000018" class="edge">
<title>Node7&#45;&gt;Node18</title>
<g id="a_edge17_Node000007_Node000018"><a xlink:title=" ">
<path fill="none" stroke="#63b8ff" d="M252.02,-307.96C266.77,-265.96 301.27,-183.83 358.25,-138.25 362.72,-134.67 367.72,-131.6 372.96,-128.97"/>
<polygon fill="#63b8ff" stroke="#63b8ff" points="248.77,-306.65 248.87,-317.25 255.4,-308.9 248.77,-306.65"/>
</a>
</g>
</g>
<!-- Node19 -->
<g id="Node000019" class="node">
<title>Node19</title>
<g id="a_Node000019"><a xlink:href="classedu_1_1wpi_1_1first_1_1wpilibj_1_1motorcontrol_1_1_victor.html" target="_top" xlink:title=" ">
<polygon fill="white" stroke="#666666" points="517.5,-79.5 358.25,-79.5 358.25,-49 517.5,-49 517.5,-79.5"/>
<text text-anchor="start" x="366.25" y="-66" font-family="Helvetica,sans-Serif" font-size="10.00">edu.wpi.first.wpilibj.motorcontrol.</text>
<text text-anchor="middle" x="437.88" y="-54.75" font-family="Helvetica,sans-Serif" font-size="10.00">Victor</text>
</a>
</g>
</g>
<!-- Node7&#45;&gt;Node19 -->
<g id="edge18_Node000007_Node000019" class="edge">
<title>Node7&#45;&gt;Node19</title>
<g id="a_edge18_Node000007_Node000019"><a xlink:title=" ">
<path fill="none" stroke="#63b8ff" d="M248.73,-307.61C259.7,-257.5 290.28,-148.93 358.25,-89.25 362.34,-85.66 366.95,-82.58 371.83,-79.95"/>
<polygon fill="#63b8ff" stroke="#63b8ff" points="245.33,-306.76 246.71,-317.27 252.18,-308.19 245.33,-306.76"/>
</a>
</g>
</g>
<!-- Node20 -->
<g id="Node000020" class="node">
<title>Node20</title>
<g id="a_Node000020"><a xlink:href="classedu_1_1wpi_1_1first_1_1wpilibj_1_1motorcontrol_1_1_victor_s_p.html" target="_top" xlink:title=" ">
<polygon fill="white" stroke="#666666" points="517.5,-30.5 358.25,-30.5 358.25,0 517.5,0 517.5,-30.5"/>
<text text-anchor="start" x="366.25" y="-17" font-family="Helvetica,sans-Serif" font-size="10.00">edu.wpi.first.wpilibj.motorcontrol.</text>
<text text-anchor="middle" x="437.88" y="-5.75" font-family="Helvetica,sans-Serif" font-size="10.00">VictorSP</text>
</a>
</g>
</g>
<!-- Node7&#45;&gt;Node20 -->
<g id="edge19_Node000007_Node000020" class="edge">
<title>Node7&#45;&gt;Node20</title>
<g id="a_edge19_Node000007_Node000020"><a xlink:title=" ">
<path fill="none" stroke="#63b8ff" d="M246.43,-307.22C253.84,-249.71 279.15,-114.45 358.25,-40.25 362.12,-36.62 366.51,-33.52 371.19,-30.87"/>
<polygon fill="#63b8ff" stroke="#63b8ff" points="242.97,-306.72 245.25,-317.06 249.92,-307.55 242.97,-306.72"/>
</a>
</g>
</g>
</g>
</svg>

<g id="navigator" transform="translate(0 0)" fill="#404254">
  <rect fill="#f2f5e9" fill-opacity="0.5" stroke="#606060" stroke-width=".5" x="0" y="0" width="60" height="60"/>
  <use id="zoomplus" xlink:href="#zoomPlus" x="17" y="9" onmousedown="handleZoom(evt,'in')"/>
  <use id="zoomminus" xlink:href="#zoomMin" x="42" y="9" onmousedown="handleZoom(evt,'out')"/>
  <use id="reset" xlink:href="#resetDef" x="30" y="36" onmousedown="handleReset()"/>
   <use id="arrowup" xlink:href="#arrowUp" x="0" y="0" onmousedown="handlePan(0,-1)"/>
  <use id="arrowright" xlink:href="#arrowRight" x="0" y="0" onmousedown="handlePan(1,0)"/>
  <use id="arrowdown" xlink:href="#arrowDown" x="0" y="0" onmousedown="handlePan(0,1)"/>
  <use id="arrowleft" xlink:href="#arrowLeft" x="0" y="0" onmousedown="handlePan(-1,0)"/>
</g>
<svg viewBox="0 0 15 15" width="100%" height="30px" preserveAspectRatio="xMaxYMin meet">
 <g id="arrow_out" transform="scale(0.3 0.3)">
  <a xlink:href="classedu_1_1wpi_1_1first_1_1wpilibj_1_1_motor_safety__inherit__graph_org.svg" target="_base">
   <rect id="button" ry="5" rx="5" y="6" x="6" height="38" width="38"
        fill="#f2f5e9" fill-opacity="0.5" stroke="#606060" stroke-width="1.0"/>
   <path id="arrow"
     d="M 11.500037,31.436501 C 11.940474,20.09759 22.043105,11.32322 32.158766,21.979434 L 37.068811,17.246167 C 37.068811,17.246167 37.088388,32 37.088388,32 L 22.160133,31.978069 C 22.160133,31.978069 26.997745,27.140456 26.997745,27.140456 C 18.528582,18.264221 13.291696,25.230495 11.500037,31.436501 z"
     style="fill:#404040;"/>
  </a>
 </g>
</svg>

<style type='text/css'>
<![CDATA[
[data-mouse-over-selected='false'] { opacity: 0.7; }
[data-mouse-over-selected='true']  { opacity: 1.0; }
]]>
</style>
<script type="application/ecmascript"><![CDATA[
document.addEventListener('DOMContentLoaded', (event) => {
  highlightEdges();
  highlightAdjacentNodes();
});
]]></script>
</svg>
