<?xml version="1.0" encoding="UTF-8" standalone="no"?>
<!DOCTYPE svg PUBLIC "-//W3C//DTD SVG 1.1//EN"
 "http://www.w3.org/Graphics/SVG/1.1/DTD/svg11.dtd">
<!-- Generated by graphviz version 9.0.0 (20230911.1827)
 -->
<!-- Title: edu.wpi.first.wpilibj.DutyCycleEncoder.isConnected Pages: 1 -->
<svg width="477pt" height="39pt"
 viewBox="0.00 0.00 476.75 38.50" xmlns="http://www.w3.org/2000/svg" xmlns:xlink="http://www.w3.org/1999/xlink">
<g id="graph0" class="graph" transform="scale(1 1) rotate(0) translate(4 34.5)">
<title>edu.wpi.first.wpilibj.DutyCycleEncoder.isConnected</title>
<!-- Node1 -->
<g id="Node000001" class="node">
<title>Node1</title>
<g id="a_Node000001"><a xlink:title=" ">
<polygon fill="#999999" stroke="#666666" points="134.5,-30.5 0,-30.5 0,0 134.5,0 134.5,-30.5"/>
<text text-anchor="start" x="8" y="-17" font-family="Helvetica,sans-Serif" font-size="10.00">edu.wpi.first.wpilibj.Duty</text>
<text text-anchor="middle" x="67.25" y="-5.75" font-family="Helvetica,sans-Serif" font-size="10.00">CycleEncoder.isConnected</text>
</a>
</g>
</g>
<!-- Node2 -->
<g id="Node000002" class="node">
<title>Node2</title>
<g id="a_Node000002"><a xlink:href="classedu_1_1wpi_1_1first_1_1wpilibj_1_1_duty_cycle_encoder.html#a3c0533b913d358fe896f5b191466428e" target="_top" xlink:title=" ">
<polygon fill="white" stroke="#666666" points="309.5,-30.5 170.5,-30.5 170.5,0 309.5,0 309.5,-30.5"/>
<text text-anchor="start" x="178.5" y="-17" font-family="Helvetica,sans-Serif" font-size="10.00">edu.wpi.first.wpilibj.Duty</text>
<text text-anchor="middle" x="240" y="-5.75" font-family="Helvetica,sans-Serif" font-size="10.00">CycleEncoder.getFrequency</text>
</a>
</g>
</g>
<!-- Node1&#45;&gt;Node2 -->
<g id="edge1_Node000001_Node000002" class="edge">
<title>Node1&#45;&gt;Node2</title>
<g id="a_edge1_Node000001_Node000002"><a xlink:title=" ">
<path fill="none" stroke="#63b8ff" d="M134.76,-15.25C142.65,-15.25 150.77,-15.25 158.82,-15.25"/>
<polygon fill="#63b8ff" stroke="#63b8ff" points="158.63,-18.75 168.63,-15.25 158.63,-11.75 158.63,-18.75"/>
</a>
</g>
</g>
<!-- Node3 -->
<g id="Node000003" class="node">
<title>Node3</title>
<g id="a_Node000003"><a xlink:href="classedu_1_1wpi_1_1first_1_1wpilibj_1_1_duty_cycle.html#a3a87a5e12f2f31a1ca753f719047d372" target="_top" xlink:title=" ">
<polygon fill="white" stroke="#666666" points="468.75,-30.5 345.5,-30.5 345.5,0 468.75,0 468.75,-30.5"/>
<text text-anchor="start" x="353.5" y="-17" font-family="Helvetica,sans-Serif" font-size="10.00">edu.wpi.first.wpilibj.Duty</text>
<text text-anchor="middle" x="407.12" y="-5.75" font-family="Helvetica,sans-Serif" font-size="10.00">Cycle.getFrequency</text>
</a>
</g>
</g>
<!-- Node2&#45;&gt;Node3 -->
<g id="edge2_Node000002_Node000003" class="edge">
<title>Node2&#45;&gt;Node3</title>
<g id="a_edge2_Node000002_Node000003"><a xlink:title=" ">
<path fill="none" stroke="#63b8ff" d="M309.59,-15.25C317.6,-15.25 325.79,-15.25 333.85,-15.25"/>
<polygon fill="#63b8ff" stroke="#63b8ff" points="333.61,-18.75 343.61,-15.25 333.61,-11.75 333.61,-18.75"/>
</a>
</g>
</g>
</g>
</svg>
