<?xml version="1.0" encoding="UTF-8" standalone="no"?>
<!DOCTYPE svg PUBLIC "-//W3C//DTD SVG 1.1//EN"
 "http://www.w3.org/Graphics/SVG/1.1/DTD/svg11.dtd">
<!-- Generated by graphviz version 9.0.0 (20230911.1827)
 -->
<!-- Title: edu.wpi.first.wpilibj.simulation.LinearSystemSim&lt; States extends Num, Inputs extends Num, Outputs extends Num &gt; Pages: 1 -->
<svg width="450pt" height="157pt"
 viewBox="0.00 0.00 449.50 156.88" xmlns="http://www.w3.org/2000/svg" xmlns:xlink="http://www.w3.org/1999/xlink">

<svg id="main" version="1.1" xmlns="http://www.w3.org/2000/svg" xmlns:xlink="http://www.w3.org/1999/xlink" xml:space="preserve" onload="init(evt)">
<style type="text/css"><![CDATA[
.node, .edge {opacity: 0.7;}
.node.selected, .edge.selected {opacity: 1;}
.edge:hover path { stroke: red; }
.edge:hover polygon { stroke: red; fill: red; }
]]></style>
<script type="application/ecmascript" xlink:href="svg.min.js"/>
<svg id="graph" class="graph">
<g id="graph0" class="graph" transform="scale(1 1) rotate(0) translate(4 152.88)">
<title>edu.wpi.first.wpilibj.simulation.LinearSystemSim&lt; States extends Num, Inputs extends Num, Outputs extends Num &gt;</title>
<!-- Node1 -->
<g id="Node000001" class="node">
<title>Node1</title>
<g id="a_Node000001"><a xlink:title=" ">
<polygon fill="#999999" stroke="#666666" points="441.5,-99.12 266.5,-99.12 266.5,-46.12 441.5,-46.12 441.5,-99.12"/>
<text text-anchor="start" x="274.5" y="-85.62" font-family="Helvetica,sans-Serif" font-size="10.00">edu.wpi.first.wpilibj.simulation.</text>
<text text-anchor="start" x="274.5" y="-74.38" font-family="Helvetica,sans-Serif" font-size="10.00">LinearSystemSim&lt; States extends</text>
<text text-anchor="start" x="274.5" y="-63.12" font-family="Helvetica,sans-Serif" font-size="10.00"> Num, Inputs extends Num, Outputs</text>
<text text-anchor="middle" x="354" y="-51.88" font-family="Helvetica,sans-Serif" font-size="10.00"> extends Num &gt;</text>
</a>
</g>
</g>
<!-- Node2 -->
<g id="Node000002" class="node">
<title>Node2</title>
<g id="a_Node000002"><a xlink:title=" ">
<polygon fill="white" stroke="#bfbfbf" points="116.5,-148.88 0,-148.88 0,-118.38 116.5,-118.38 116.5,-148.88"/>
<text text-anchor="start" x="8" y="-135.38" font-family="Helvetica,sans-Serif" font-size="10.00">LinearSystem&lt; States,</text>
<text text-anchor="middle" x="58.25" y="-124.12" font-family="Helvetica,sans-Serif" font-size="10.00"> Inputs, Outputs &gt;</text>
</a>
</g>
</g>
<!-- Node2&#45;&gt;Node1 -->
<g id="edge1_Node000001_Node000002" class="edge">
<title>Node2&#45;&gt;Node1</title>
<g id="a_edge1_Node000001_Node000002"><a xlink:title=" ">
<path fill="none" stroke="#9a32cd" stroke-dasharray="5,2" d="M127.56,-123.22C163.67,-117.34 208.66,-109.42 248.5,-100.62 254.28,-99.35 260.22,-97.96 266.19,-96.52"/>
<polygon fill="#9a32cd" stroke="#9a32cd" points="127.46,-119.69 118.15,-124.74 128.58,-126.6 127.46,-119.69"/>
</a>
</g>
<text text-anchor="middle" x="191.5" y="-123.38" font-family="Helvetica,sans-Serif" font-size="10.00" fill="grey"> m_plant</text>
</g>
<!-- Node3 -->
<g id="Node000003" class="node">
<title>Node3</title>
<g id="a_Node000003"><a xlink:title=" ">
<polygon fill="white" stroke="#bfbfbf" points="112.38,-100.25 4.12,-100.25 4.12,-81 112.38,-81 112.38,-100.25"/>
<text text-anchor="middle" x="58.25" y="-86.75" font-family="Helvetica,sans-Serif" font-size="10.00">Matrix&lt; States, N1 &gt;</text>
</a>
</g>
</g>
<!-- Node3&#45;&gt;Node1 -->
<g id="edge2_Node000001_Node000003" class="edge">
<title>Node3&#45;&gt;Node1</title>
<g id="a_edge2_Node000001_Node000003"><a xlink:title=" ">
<path fill="none" stroke="#9a32cd" stroke-dasharray="5,2" d="M124.2,-86.65C165.93,-84.09 220.65,-80.73 266.11,-77.95"/>
<polygon fill="#9a32cd" stroke="#9a32cd" points="124.06,-83.15 114.3,-87.25 124.49,-90.13 124.06,-83.15"/>
</a>
</g>
<text text-anchor="middle" x="191.5" y="-87.38" font-family="Helvetica,sans-Serif" font-size="10.00" fill="grey"> m_x</text>
</g>
<!-- Node4 -->
<g id="Node000004" class="node">
<title>Node4</title>
<g id="a_Node000004"><a xlink:title=" ">
<polygon fill="white" stroke="#bfbfbf" points="111.62,-63.25 4.88,-63.25 4.88,-44 111.62,-44 111.62,-63.25"/>
<text text-anchor="middle" x="58.25" y="-49.75" font-family="Helvetica,sans-Serif" font-size="10.00">Matrix&lt; Inputs, N1 &gt;</text>
</a>
</g>
</g>
<!-- Node4&#45;&gt;Node1 -->
<g id="edge3_Node000001_Node000004" class="edge">
<title>Node4&#45;&gt;Node1</title>
<g id="a_edge3_Node000001_Node000004"><a xlink:title=" ">
<path fill="none" stroke="#9a32cd" stroke-dasharray="5,2" d="M122.95,-56.32C159.68,-58.02 206.71,-60.45 248.5,-63.38 254.22,-63.78 260.12,-64.22 266.06,-64.68"/>
<polygon fill="#9a32cd" stroke="#9a32cd" points="123.56,-52.85 113.41,-55.89 123.24,-59.84 123.56,-52.85"/>
</a>
</g>
<text text-anchor="middle" x="191.5" y="-64.38" font-family="Helvetica,sans-Serif" font-size="10.00" fill="grey"> m_u</text>
</g>
<!-- Node5 -->
<g id="Node000005" class="node">
<title>Node5</title>
<g id="a_Node000005"><a xlink:title=" ">
<polygon fill="white" stroke="#bfbfbf" points="115.38,-19.25 1.12,-19.25 1.12,0 115.38,0 115.38,-19.25"/>
<text text-anchor="middle" x="58.25" y="-5.75" font-family="Helvetica,sans-Serif" font-size="10.00">Matrix&lt; Outputs, N1 &gt;</text>
</a>
</g>
</g>
<!-- Node5&#45;&gt;Node1 -->
<g id="edge4_Node000001_Node000005" class="edge">
<title>Node5&#45;&gt;Node1</title>
<g id="a_edge4_Node000001_Node000005"><a xlink:title=" ">
<path fill="none" stroke="#9a32cd" stroke-dasharray="5,2" d="M127.35,-12.41C163.73,-15.05 209.03,-20.17 248.5,-30.12 263.88,-34.01 279.99,-39.68 294.83,-45.64"/>
<polygon fill="#9a32cd" stroke="#9a32cd" points="127.59,-8.92 117.38,-11.74 127.12,-15.91 127.59,-8.92"/>
</a>
</g>
<text text-anchor="middle" x="191.5" y="-43.62" font-family="Helvetica,sans-Serif" font-size="10.00" fill="grey"> m_measurementStdDevs</text>
<text text-anchor="middle" x="191.5" y="-32.38" font-family="Helvetica,sans-Serif" font-size="10.00" fill="grey">m_y</text>
</g>
</g>
</svg>
</svg>

<style type='text/css'>
<![CDATA[
[data-mouse-over-selected='false'] { opacity: 0.7; }
[data-mouse-over-selected='true']  { opacity: 1.0; }
]]>
</style>
<script type="application/ecmascript"><![CDATA[
document.addEventListener('DOMContentLoaded', (event) => {
  highlightEdges();
  highlightAdjacentNodes();
});
]]></script>
</svg>
