<?xml version="1.0" encoding="UTF-8" standalone="no"?>
<!DOCTYPE svg PUBLIC "-//W3C//DTD SVG 1.1//EN"
 "http://www.w3.org/Graphics/SVG/1.1/DTD/svg11.dtd">
<!-- Generated by graphviz version 9.0.0 (20230911.1827)
 -->
<!-- Title: edu.wpi.first.wpilibj.ADIS16448_IMU.ADIS16448_IMU Pages: 1 -->
<svg width="349pt" height="76pt"
 viewBox="0.00 0.00 349.00 75.88" xmlns="http://www.w3.org/2000/svg" xmlns:xlink="http://www.w3.org/1999/xlink">
<g id="graph0" class="graph" transform="scale(1 1) rotate(0) translate(4 71.88)">
<title>edu.wpi.first.wpilibj.ADIS16448_IMU.ADIS16448_IMU</title>
<!-- Node1 -->
<g id="Node000001" class="node">
<title>Node1</title>
<g id="a_Node000001"><a xlink:title=" ">
<polygon fill="#999999" stroke="#666666" points="152.5,-51.5 0,-51.5 0,-21 152.5,-21 152.5,-51.5"/>
<text text-anchor="start" x="8" y="-38" font-family="Helvetica,sans-Serif" font-size="10.00">edu.wpi.first.wpilibj.ADIS16448</text>
<text text-anchor="middle" x="76.25" y="-26.75" font-family="Helvetica,sans-Serif" font-size="10.00">_IMU.ADIS16448_IMU</text>
</a>
</g>
</g>
<!-- Node2 -->
<g id="Node000002" class="node">
<title>Node2</title>
<g id="a_Node000002"><a xlink:href="classedu_1_1wpi_1_1first_1_1wpilibj_1_1_timer.html#a7ffa861556c640f9de9aa09d796bad6d" target="_top" xlink:title=" ">
<polygon fill="white" stroke="#666666" points="341,-67.88 188.5,-67.88 188.5,-48.62 341,-48.62 341,-67.88"/>
<text text-anchor="middle" x="264.75" y="-54.38" font-family="Helvetica,sans-Serif" font-size="10.00">edu.wpi.first.wpilibj.Timer.delay</text>
</a>
</g>
</g>
<!-- Node1&#45;&gt;Node2 -->
<g id="edge1_Node000001_Node000002" class="edge">
<title>Node1&#45;&gt;Node2</title>
<g id="a_edge1_Node000001_Node000002"><a xlink:title=" ">
<path fill="none" stroke="#63b8ff" d="M152.84,-45.17C160.73,-46.1 168.8,-47.05 176.8,-47.99"/>
<polygon fill="#63b8ff" stroke="#63b8ff" points="176.21,-51.45 186.55,-49.14 177.03,-44.5 176.21,-51.45"/>
</a>
</g>
</g>
<!-- Node3 -->
<g id="Node000003" class="node">
<title>Node3</title>
<g id="a_Node000003"><a xlink:href="classedu_1_1wpi_1_1first_1_1wpilibj_1_1_driver_station.html#a8446c52983088af3fba8adc2b0d3df8c" target="_top" xlink:title=" ">
<polygon fill="white" stroke="#666666" points="329,-30.5 200.5,-30.5 200.5,0 329,0 329,-30.5"/>
<text text-anchor="start" x="208.5" y="-17" font-family="Helvetica,sans-Serif" font-size="10.00">edu.wpi.first.wpilibj.Driver</text>
<text text-anchor="middle" x="264.75" y="-5.75" font-family="Helvetica,sans-Serif" font-size="10.00">Station.reportWarning</text>
</a>
</g>
</g>
<!-- Node1&#45;&gt;Node3 -->
<g id="edge2_Node000001_Node000003" class="edge">
<title>Node1&#45;&gt;Node3</title>
<g id="a_edge2_Node000001_Node000003"><a xlink:title=" ">
<path fill="none" stroke="#63b8ff" d="M152.84,-27.74C164.7,-26.4 176.95,-25.02 188.8,-23.69"/>
<polygon fill="#63b8ff" stroke="#63b8ff" points="188.96,-27.19 198.5,-22.6 188.17,-20.24 188.96,-27.19"/>
</a>
</g>
</g>
</g>
</svg>
