<?xml version="1.0" encoding="UTF-8" standalone="no"?>
<!DOCTYPE svg PUBLIC "-//W3C//DTD SVG 1.1//EN"
 "http://www.w3.org/Graphics/SVG/1.1/DTD/svg11.dtd">
<!-- Generated by graphviz version 9.0.0 (20230911.1827)
 -->
<!-- Title: edu.wpi.first.wpilibj.PS4Controller.getL2ButtonReleased Pages: 1 -->
<svg width="867pt" height="124pt"
 viewBox="0.00 0.00 866.50 123.50" xmlns="http://www.w3.org/2000/svg" xmlns:xlink="http://www.w3.org/1999/xlink">
<g id="graph0" class="graph" transform="scale(1 1) rotate(0) translate(4 119.5)">
<title>edu.wpi.first.wpilibj.PS4Controller.getL2ButtonReleased</title>
<!-- Node1 -->
<g id="Node000001" class="node">
<title>Node1</title>
<g id="a_Node000001"><a xlink:title=" ">
<polygon fill="#999999" stroke="#666666" points="154,-72.5 0,-72.5 0,-42 154,-42 154,-72.5"/>
<text text-anchor="start" x="8" y="-59" font-family="Helvetica,sans-Serif" font-size="10.00">edu.wpi.first.wpilibj.PS4</text>
<text text-anchor="middle" x="77" y="-47.75" font-family="Helvetica,sans-Serif" font-size="10.00">Controller.getL2ButtonReleased</text>
</a>
</g>
</g>
<!-- Node2 -->
<g id="Node000002" class="node">
<title>Node2</title>
<g id="a_Node000002"><a xlink:href="classedu_1_1wpi_1_1first_1_1wpilibj_1_1_generic_h_i_d.html#a2087699248ada770e00ea78b91b8fd01" target="_top" xlink:title=" ">
<polygon fill="white" stroke="#666666" points="330.5,-72.5 190,-72.5 190,-42 330.5,-42 330.5,-72.5"/>
<text text-anchor="start" x="198" y="-59" font-family="Helvetica,sans-Serif" font-size="10.00">edu.wpi.first.wpilibj.Generic</text>
<text text-anchor="middle" x="260.25" y="-47.75" font-family="Helvetica,sans-Serif" font-size="10.00">HID.getRawButtonReleased</text>
</a>
</g>
</g>
<!-- Node1&#45;&gt;Node2 -->
<g id="edge1_Node000001_Node000002" class="edge">
<title>Node1&#45;&gt;Node2</title>
<g id="a_edge1_Node000001_Node000002"><a xlink:title=" ">
<path fill="none" stroke="#63b8ff" d="M154.34,-57.25C162.21,-57.25 170.22,-57.25 178.13,-57.25"/>
<polygon fill="#63b8ff" stroke="#63b8ff" points="178.12,-60.75 188.12,-57.25 178.12,-53.75 178.12,-60.75"/>
</a>
</g>
</g>
<!-- Node3 -->
<g id="Node000003" class="node">
<title>Node3</title>
<g id="a_Node000003"><a xlink:href="classedu_1_1wpi_1_1first_1_1wpilibj_1_1_generic_h_i_d.html#a77f3feaa9b70759aa7e26c20bec4bec2" target="_top" xlink:title=" ">
<polygon fill="white" stroke="#666666" points="512.25,-97.5 376.25,-97.5 376.25,-67 512.25,-67 512.25,-97.5"/>
<text text-anchor="start" x="384.25" y="-84" font-family="Helvetica,sans-Serif" font-size="10.00">edu.wpi.first.wpilibj.Generic</text>
<text text-anchor="middle" x="444.25" y="-72.75" font-family="Helvetica,sans-Serif" font-size="10.00">HID.button</text>
</a>
</g>
</g>
<!-- Node2&#45;&gt;Node3 -->
<g id="edge2_Node000002_Node000003" class="edge">
<title>Node2&#45;&gt;Node3</title>
<g id="a_edge2_Node000002_Node000003"><a xlink:title=" ">
<path fill="none" stroke="#63b8ff" d="M330.84,-66.81C341.9,-68.33 353.41,-69.91 364.66,-71.46"/>
<polygon fill="#63b8ff" stroke="#63b8ff" points="363.92,-74.89 374.31,-72.78 364.87,-67.95 363.92,-74.89"/>
</a>
</g>
</g>
<!-- Node7 -->
<g id="Node000007" class="node">
<title>Node7</title>
<g id="a_Node000007"><a xlink:href="classedu_1_1wpi_1_1first_1_1wpilibj_1_1_driver_station.html#af7d67c20055e6730e05c8ed4483ea79a" target="_top" xlink:title=" ">
<polygon fill="white" stroke="#666666" points="522,-48.5 366.5,-48.5 366.5,-18 522,-18 522,-48.5"/>
<text text-anchor="start" x="374.5" y="-35" font-family="Helvetica,sans-Serif" font-size="10.00">edu.wpi.first.wpilibj.Driver</text>
<text text-anchor="middle" x="444.25" y="-23.75" font-family="Helvetica,sans-Serif" font-size="10.00">Station.getStickButtonReleased</text>
</a>
</g>
</g>
<!-- Node2&#45;&gt;Node7 -->
<g id="edge9_Node000002_Node000007" class="edge">
<title>Node2&#45;&gt;Node7</title>
<g id="a_edge9_Node000002_Node000007"><a xlink:title=" ">
<path fill="none" stroke="#63b8ff" d="M330.84,-48.07C338.68,-47.04 346.75,-45.98 354.79,-44.92"/>
<polygon fill="#63b8ff" stroke="#63b8ff" points="355.16,-48.4 364.62,-43.62 354.24,-41.46 355.16,-48.4"/>
</a>
</g>
</g>
<!-- Node3&#45;&gt;Node3 -->
<g id="edge3_Node000003_Node000003" class="edge">
<title>Node3&#45;&gt;Node3</title>
<g id="a_edge3_Node000003_Node000003"><a xlink:title=" ">
<path fill="none" stroke="#63b8ff" d="M412.04,-97.99C405.47,-107.06 416.21,-115.5 444.25,-115.5 459.59,-115.5 469.75,-112.97 474.73,-109.2"/>
<polygon fill="#63b8ff" stroke="#63b8ff" points="478.16,-109.9 476.23,-99.48 471.25,-108.83 478.16,-109.9"/>
</a>
</g>
</g>
<!-- Node4 -->
<g id="Node000004" class="node">
<title>Node4</title>
<g id="a_Node000004"><a xlink:href="classedu_1_1wpi_1_1first_1_1wpilibj_1_1_generic_h_i_d.html#abdb0245e5cb7f7b92cc1060202821a2d" target="_top" xlink:title=" ">
<polygon fill="white" stroke="#666666" points="694,-97.5 558,-97.5 558,-67 694,-67 694,-97.5"/>
<text text-anchor="start" x="566" y="-84" font-family="Helvetica,sans-Serif" font-size="10.00">edu.wpi.first.wpilibj.Generic</text>
<text text-anchor="middle" x="626" y="-72.75" font-family="Helvetica,sans-Serif" font-size="10.00">HID.getRawButton</text>
</a>
</g>
</g>
<!-- Node3&#45;&gt;Node4 -->
<g id="edge4_Node000003_Node000004" class="edge">
<title>Node3&#45;&gt;Node4</title>
<g id="a_edge4_Node000003_Node000004"><a xlink:title=" ">
<path fill="none" stroke="#63b8ff" d="M512.69,-75.69C523.75,-75.5 535.29,-75.45 546.59,-75.55"/>
<polygon fill="#63b8ff" stroke="#63b8ff" points="546.22,-79.04 556.26,-75.67 546.31,-72.05 546.22,-79.04"/>
</a>
</g>
</g>
<!-- Node6 -->
<g id="Node000006" class="node">
<title>Node6</title>
<g id="a_Node000006"><a xlink:href="classedu_1_1wpi_1_1first_1_1wpilibj_1_1_generic_h_i_d.html#af0b067c76cbb79f54d7f475e88fcfed2" target="_top" xlink:title=" ">
<polygon fill="white" stroke="#666666" points="694,-30.5 558,-30.5 558,0 694,0 694,-30.5"/>
<text text-anchor="start" x="566" y="-17" font-family="Helvetica,sans-Serif" font-size="10.00">edu.wpi.first.wpilibj.Generic</text>
<text text-anchor="middle" x="626" y="-5.75" font-family="Helvetica,sans-Serif" font-size="10.00">HID.pov</text>
</a>
</g>
</g>
<!-- Node3&#45;&gt;Node6 -->
<g id="edge7_Node000003_Node000006" class="edge">
<title>Node3&#45;&gt;Node6</title>
<g id="a_edge7_Node000003_Node000006"><a xlink:title=" ">
<path fill="none" stroke="#63b8ff" d="M494.97,-66.63C504.01,-63.63 513.31,-60.43 522,-57.25 540.47,-50.49 560.55,-42.46 578.03,-35.24"/>
<polygon fill="#63b8ff" stroke="#63b8ff" points="579.26,-38.52 587.15,-31.45 576.57,-32.05 579.26,-38.52"/>
</a>
</g>
</g>
<!-- Node4&#45;&gt;Node3 -->
<g id="edge5_Node000004_Node000003" class="edge">
<title>Node4&#45;&gt;Node3</title>
<g id="a_edge5_Node000004_Node000003"><a xlink:title=" ">
<path fill="none" stroke="#63b8ff" d="M557.78,-88.81C546.72,-89 535.18,-89.05 523.89,-88.95"/>
<polygon fill="#63b8ff" stroke="#63b8ff" points="524.25,-85.46 514.21,-88.83 524.16,-92.46 524.25,-85.46"/>
</a>
</g>
</g>
<!-- Node5 -->
<g id="Node000005" class="node">
<title>Node5</title>
<g id="a_Node000005"><a xlink:href="classedu_1_1wpi_1_1first_1_1wpilibj_1_1_driver_station.html#a3d86d4b8414c05aafe18fc866d99ccab" target="_top" xlink:title=" ">
<polygon fill="white" stroke="#666666" points="858.5,-97.5 730,-97.5 730,-67 858.5,-67 858.5,-97.5"/>
<text text-anchor="start" x="738" y="-84" font-family="Helvetica,sans-Serif" font-size="10.00">edu.wpi.first.wpilibj.Driver</text>
<text text-anchor="middle" x="794.25" y="-72.75" font-family="Helvetica,sans-Serif" font-size="10.00">Station.getStickButton</text>
</a>
</g>
</g>
<!-- Node4&#45;&gt;Node5 -->
<g id="edge6_Node000004_Node000005" class="edge">
<title>Node4&#45;&gt;Node5</title>
<g id="a_edge6_Node000004_Node000005"><a xlink:title=" ">
<path fill="none" stroke="#63b8ff" d="M694.14,-82.25C702.1,-82.25 710.27,-82.25 718.33,-82.25"/>
<polygon fill="#63b8ff" stroke="#63b8ff" points="718.12,-85.75 728.12,-82.25 718.12,-78.75 718.12,-85.75"/>
</a>
</g>
</g>
<!-- Node6&#45;&gt;Node6 -->
<g id="edge8_Node000006_Node000006" class="edge">
<title>Node6&#45;&gt;Node6</title>
<g id="a_edge8_Node000006_Node000006"><a xlink:title=" ">
<path fill="none" stroke="#63b8ff" d="M596.19,-30.99C590.1,-40.06 600.04,-48.5 626,-48.5 640.2,-48.5 649.6,-45.97 654.22,-42.2"/>
<polygon fill="#63b8ff" stroke="#63b8ff" points="657.65,-42.88 655.6,-32.48 650.72,-41.89 657.65,-42.88"/>
</a>
</g>
</g>
</g>
</svg>
