<?xml version="1.0" encoding="UTF-8" standalone="no"?>
<!DOCTYPE svg PUBLIC "-//W3C//DTD SVG 1.1//EN"
 "http://www.w3.org/Graphics/SVG/1.1/DTD/svg11.dtd">
<!-- Generated by graphviz version 9.0.0 (20230911.1827)
 -->
<!-- Title: edu.wpi.first.wpilibj.simulation.PS4ControllerSim.setSquareButton Pages: 1 -->
<svg width="572pt" height="39pt"
 viewBox="0.00 0.00 572.00 38.50" xmlns="http://www.w3.org/2000/svg" xmlns:xlink="http://www.w3.org/1999/xlink">
<g id="graph0" class="graph" transform="scale(1 1) rotate(0) translate(4 34.5)">
<title>edu.wpi.first.wpilibj.simulation.PS4ControllerSim.setSquareButton</title>
<!-- Node1 -->
<g id="Node000001" class="node">
<title>Node1</title>
<g id="a_Node000001"><a xlink:title=" ">
<polygon fill="#999999" stroke="#666666" points="169.75,-30.5 0,-30.5 0,0 169.75,0 169.75,-30.5"/>
<text text-anchor="start" x="8" y="-17" font-family="Helvetica,sans-Serif" font-size="10.00">edu.wpi.first.wpilibj.simulation.</text>
<text text-anchor="middle" x="84.88" y="-5.75" font-family="Helvetica,sans-Serif" font-size="10.00">PS4ControllerSim.setSquareButton</text>
</a>
</g>
</g>
<!-- Node2 -->
<g id="Node000002" class="node">
<title>Node2</title>
<g id="a_Node000002"><a xlink:href="classedu_1_1wpi_1_1first_1_1wpilibj_1_1simulation_1_1_generic_h_i_d_sim.html#a59a64957c20d3ce400fa84e9957b4252" target="_top" xlink:title=" ">
<polygon fill="white" stroke="#666666" points="356,-30.5 205.75,-30.5 205.75,0 356,0 356,-30.5"/>
<text text-anchor="start" x="213.75" y="-17" font-family="Helvetica,sans-Serif" font-size="10.00">edu.wpi.first.wpilibj.simulation.</text>
<text text-anchor="middle" x="280.88" y="-5.75" font-family="Helvetica,sans-Serif" font-size="10.00">GenericHIDSim.setRawButton</text>
</a>
</g>
</g>
<!-- Node1&#45;&gt;Node2 -->
<g id="edge1_Node000001_Node000002" class="edge">
<title>Node1&#45;&gt;Node2</title>
<g id="a_edge1_Node000001_Node000002"><a xlink:title=" ">
<path fill="none" stroke="#63b8ff" d="M170.12,-15.25C178.02,-15.25 186.04,-15.25 193.95,-15.25"/>
<polygon fill="#63b8ff" stroke="#63b8ff" points="193.94,-18.75 203.94,-15.25 193.94,-11.75 193.94,-18.75"/>
</a>
</g>
</g>
<!-- Node3 -->
<g id="Node000003" class="node">
<title>Node3</title>
<g id="a_Node000003"><a xlink:href="classedu_1_1wpi_1_1first_1_1wpilibj_1_1simulation_1_1_driver_station_sim.html#a37f2d3995518ba4d1ca2f6656bc8c687" target="_top" xlink:title=" ">
<polygon fill="white" stroke="#666666" points="564,-30.5 392,-30.5 392,0 564,0 564,-30.5"/>
<text text-anchor="start" x="400" y="-17" font-family="Helvetica,sans-Serif" font-size="10.00">edu.wpi.first.wpilibj.simulation.</text>
<text text-anchor="middle" x="478" y="-5.75" font-family="Helvetica,sans-Serif" font-size="10.00">DriverStationSim.setJoystickButton</text>
</a>
</g>
</g>
<!-- Node2&#45;&gt;Node3 -->
<g id="edge2_Node000002_Node000003" class="edge">
<title>Node2&#45;&gt;Node3</title>
<g id="a_edge2_Node000002_Node000003"><a xlink:title=" ">
<path fill="none" stroke="#63b8ff" d="M356.48,-15.25C364.3,-15.25 372.34,-15.25 380.36,-15.25"/>
<polygon fill="#63b8ff" stroke="#63b8ff" points="380.17,-18.75 390.17,-15.25 380.17,-11.75 380.17,-18.75"/>
</a>
</g>
</g>
</g>
</svg>
