<?xml version="1.0" encoding="UTF-8" standalone="no"?>
<!DOCTYPE svg PUBLIC "-//W3C//DTD SVG 1.1//EN"
 "http://www.w3.org/Graphics/SVG/1.1/DTD/svg11.dtd">
<!-- Generated by graphviz version 9.0.0 (20230911.1827)
 -->
<!-- Title: edu.wpi.first.wpilibj.motorcontrol.NidecBrushless.NidecBrushless Pages: 1 -->
<svg width="333pt" height="88pt"
 viewBox="0.00 0.00 333.25 87.50" xmlns="http://www.w3.org/2000/svg" xmlns:xlink="http://www.w3.org/1999/xlink">
<g id="graph0" class="graph" transform="scale(1 1) rotate(0) translate(4 83.5)">
<title>edu.wpi.first.wpilibj.motorcontrol.NidecBrushless.NidecBrushless</title>
<!-- Node1 -->
<g id="Node000001" class="node">
<title>Node1</title>
<g id="a_Node000001"><a xlink:title=" ">
<polygon fill="#999999" stroke="#666666" points="159.25,-54.5 0,-54.5 0,-24 159.25,-24 159.25,-54.5"/>
<text text-anchor="start" x="8" y="-41" font-family="Helvetica,sans-Serif" font-size="10.00">edu.wpi.first.wpilibj.motorcontrol.</text>
<text text-anchor="middle" x="79.62" y="-29.75" font-family="Helvetica,sans-Serif" font-size="10.00">NidecBrushless.NidecBrushless</text>
</a>
</g>
</g>
<!-- Node2 -->
<g id="Node000002" class="node">
<title>Node2</title>
<g id="a_Node000002"><a xlink:href="classedu_1_1wpi_1_1first_1_1wpilibj_1_1_digital_output.html#ae2b14f9e2bf1fa76e454c75f0936ce9c" target="_top" xlink:title=" ">
<polygon fill="white" stroke="#666666" points="325.25,-79.5 195.25,-79.5 195.25,-49 325.25,-49 325.25,-79.5"/>
<text text-anchor="start" x="203.25" y="-66" font-family="Helvetica,sans-Serif" font-size="10.00">edu.wpi.first.wpilibj.Digital</text>
<text text-anchor="middle" x="260.25" y="-54.75" font-family="Helvetica,sans-Serif" font-size="10.00">Output.enablePWM</text>
</a>
</g>
</g>
<!-- Node1&#45;&gt;Node2 -->
<g id="edge1_Node000001_Node000002" class="edge">
<title>Node1&#45;&gt;Node2</title>
<g id="a_edge1_Node000001_Node000002"><a xlink:title=" ">
<path fill="none" stroke="#63b8ff" d="M159.49,-50.29C167.56,-51.42 175.74,-52.56 183.77,-53.69"/>
<polygon fill="#63b8ff" stroke="#63b8ff" points="183.11,-57.13 193.5,-55.05 184.08,-50.19 183.11,-57.13"/>
</a>
</g>
</g>
<!-- Node3 -->
<g id="Node000003" class="node">
<title>Node3</title>
<g id="a_Node000003"><a xlink:href="classedu_1_1wpi_1_1first_1_1wpilibj_1_1_digital_output.html#a3464818eaa5c5d02f4e4aab985133c41" target="_top" xlink:title=" ">
<polygon fill="white" stroke="#666666" points="325.25,-30.5 195.25,-30.5 195.25,0 325.25,0 325.25,-30.5"/>
<text text-anchor="start" x="203.25" y="-17" font-family="Helvetica,sans-Serif" font-size="10.00">edu.wpi.first.wpilibj.Digital</text>
<text text-anchor="middle" x="260.25" y="-5.75" font-family="Helvetica,sans-Serif" font-size="10.00">Output.setPWMRate</text>
</a>
</g>
</g>
<!-- Node1&#45;&gt;Node3 -->
<g id="edge2_Node000001_Node000003" class="edge">
<title>Node1&#45;&gt;Node3</title>
<g id="a_edge2_Node000001_Node000003"><a xlink:title=" ">
<path fill="none" stroke="#63b8ff" d="M159.49,-28.65C167.56,-27.57 175.74,-26.47 183.77,-25.39"/>
<polygon fill="#63b8ff" stroke="#63b8ff" points="184.05,-28.89 193.49,-24.08 183.12,-21.95 184.05,-28.89"/>
</a>
</g>
</g>
</g>
</svg>
