<?xml version="1.0" encoding="UTF-8" standalone="no"?>
<!DOCTYPE svg PUBLIC "-//W3C//DTD SVG 1.1//EN"
 "http://www.w3.org/Graphics/SVG/1.1/DTD/svg11.dtd">
<!-- Generated by graphviz version 9.0.0 (20230911.1827)
 -->
<!-- Title: edu.wpi.first.wpilibj.DutyCycleEncoder.get Pages: 1 -->
<svg width="320pt" height="125pt"
 viewBox="0.00 0.00 319.75 124.88" xmlns="http://www.w3.org/2000/svg" xmlns:xlink="http://www.w3.org/1999/xlink">
<g id="graph0" class="graph" transform="scale(1 1) rotate(0) translate(4 120.88)">
<title>edu.wpi.first.wpilibj.DutyCycleEncoder.get</title>
<!-- Node1 -->
<g id="Node000001" class="node">
<title>Node1</title>
<g id="a_Node000001"><a xlink:title=" ">
<polygon fill="#999999" stroke="#666666" points="123.25,-79.5 0,-79.5 0,-49 123.25,-49 123.25,-79.5"/>
<text text-anchor="start" x="8" y="-66" font-family="Helvetica,sans-Serif" font-size="10.00">edu.wpi.first.wpilibj.Duty</text>
<text text-anchor="middle" x="61.62" y="-54.75" font-family="Helvetica,sans-Serif" font-size="10.00">CycleEncoder.get</text>
</a>
</g>
</g>
<!-- Node2 -->
<g id="Node000002" class="node">
<title>Node2</title>
<g id="a_Node000002"><a xlink:href="classedu_1_1wpi_1_1first_1_1wpilibj_1_1_counter.html#aa2e326e246a1f4dba1ff168b798996fd" target="_top" xlink:title=" ">
<polygon fill="white" stroke="#666666" points="311.75,-116.88 159.25,-116.88 159.25,-97.62 311.75,-97.62 311.75,-116.88"/>
<text text-anchor="middle" x="235.5" y="-103.38" font-family="Helvetica,sans-Serif" font-size="10.00">edu.wpi.first.wpilibj.Counter.get</text>
</a>
</g>
</g>
<!-- Node1&#45;&gt;Node2 -->
<g id="edge1_Node000001_Node000002" class="edge">
<title>Node1&#45;&gt;Node2</title>
<g id="a_edge1_Node000001_Node000002"><a xlink:title=" ">
<path fill="none" stroke="#63b8ff" d="M123.71,-79.53C143.13,-84.39 164.42,-89.72 183.09,-94.39"/>
<polygon fill="#63b8ff" stroke="#63b8ff" points="182.02,-97.73 192.58,-96.76 183.72,-90.94 182.02,-97.73"/>
</a>
</g>
</g>
<!-- Node3 -->
<g id="Node000003" class="node">
<title>Node3</title>
<g id="a_Node000003"><a xlink:href="classedu_1_1wpi_1_1first_1_1wpilibj_1_1_duty_cycle.html#a979edd0343d9d2012211184c31f64c0f" target="_top" xlink:title=" ">
<polygon fill="white" stroke="#666666" points="297.12,-79.5 173.88,-79.5 173.88,-49 297.12,-49 297.12,-79.5"/>
<text text-anchor="start" x="181.88" y="-66" font-family="Helvetica,sans-Serif" font-size="10.00">edu.wpi.first.wpilibj.Duty</text>
<text text-anchor="middle" x="235.5" y="-54.75" font-family="Helvetica,sans-Serif" font-size="10.00">Cycle.getOutput</text>
</a>
</g>
</g>
<!-- Node1&#45;&gt;Node3 -->
<g id="edge2_Node000001_Node000003" class="edge">
<title>Node1&#45;&gt;Node3</title>
<g id="a_edge2_Node000001_Node000003"><a xlink:title=" ">
<path fill="none" stroke="#63b8ff" d="M123.71,-64.25C136.24,-64.25 149.55,-64.25 162.44,-64.25"/>
<polygon fill="#63b8ff" stroke="#63b8ff" points="162.1,-67.75 172.1,-64.25 162.1,-60.75 162.1,-67.75"/>
</a>
</g>
</g>
<!-- Node4 -->
<g id="Node000004" class="node">
<title>Node4</title>
<g id="a_Node000004"><a xlink:href="classedu_1_1wpi_1_1first_1_1wpilibj_1_1_driver_station.html#a8446c52983088af3fba8adc2b0d3df8c" target="_top" xlink:title=" ">
<polygon fill="white" stroke="#666666" points="299.75,-30.5 171.25,-30.5 171.25,0 299.75,0 299.75,-30.5"/>
<text text-anchor="start" x="179.25" y="-17" font-family="Helvetica,sans-Serif" font-size="10.00">edu.wpi.first.wpilibj.Driver</text>
<text text-anchor="middle" x="235.5" y="-5.75" font-family="Helvetica,sans-Serif" font-size="10.00">Station.reportWarning</text>
</a>
</g>
</g>
<!-- Node1&#45;&gt;Node4 -->
<g id="edge3_Node000001_Node000004" class="edge">
<title>Node1&#45;&gt;Node4</title>
<g id="a_edge3_Node000001_Node000004"><a xlink:title=" ">
<path fill="none" stroke="#63b8ff" d="M117.48,-48.61C133.68,-43.99 151.58,-38.89 168.41,-34.09"/>
<polygon fill="#63b8ff" stroke="#63b8ff" points="169.17,-37.51 177.83,-31.41 167.25,-30.78 169.17,-37.51"/>
</a>
</g>
</g>
</g>
</svg>
