<?xml version="1.0" encoding="UTF-8" standalone="no"?>
<!DOCTYPE svg PUBLIC "-//W3C//DTD SVG 1.1//EN"
 "http://www.w3.org/Graphics/SVG/1.1/DTD/svg11.dtd">
<!-- Generated by graphviz version 9.0.0 (20230911.1827)
 -->
<!-- Title: edu.wpi.first.wpilibj.shuffleboard.Shuffleboard.disableActuatorWidgets Pages: 1 -->
<svg width="614pt" height="88pt"
 viewBox="0.00 0.00 614.00 87.50" xmlns="http://www.w3.org/2000/svg" xmlns:xlink="http://www.w3.org/1999/xlink">
<g id="graph0" class="graph" transform="scale(1 1) rotate(0) translate(4 83.5)">
<title>edu.wpi.first.wpilibj.shuffleboard.Shuffleboard.disableActuatorWidgets</title>
<!-- Node1 -->
<g id="Node000001" class="node">
<title>Node1</title>
<g id="a_Node000001"><a xlink:title=" ">
<polygon fill="#999999" stroke="#666666" points="177.25,-54.5 0,-54.5 0,-24 177.25,-24 177.25,-54.5"/>
<text text-anchor="start" x="8" y="-41" font-family="Helvetica,sans-Serif" font-size="10.00">edu.wpi.first.wpilibj.shuffleboard.</text>
<text text-anchor="middle" x="88.62" y="-29.75" font-family="Helvetica,sans-Serif" font-size="10.00">Shuffleboard.disableActuatorWidgets</text>
</a>
</g>
</g>
<!-- Node2 -->
<g id="Node000002" class="node">
<title>Node2</title>
<g id="a_Node000002"><a xlink:href="interfaceedu_1_1wpi_1_1first_1_1wpilibj_1_1shuffleboard_1_1_shuffleboard_root.html#a42d5b987a0df476a2d35cc6ef9e7d1b2" target="_top" xlink:title=" ">
<polygon fill="white" stroke="#666666" points="411.5,-79.5 213.25,-79.5 213.25,-49 411.5,-49 411.5,-79.5"/>
<text text-anchor="start" x="221.25" y="-66" font-family="Helvetica,sans-Serif" font-size="10.00">edu.wpi.first.wpilibj.shuffleboard.</text>
<text text-anchor="middle" x="312.38" y="-54.75" font-family="Helvetica,sans-Serif" font-size="10.00">ShuffleboardRoot.disableActuatorWidgets</text>
</a>
</g>
</g>
<!-- Node1&#45;&gt;Node2 -->
<g id="edge1_Node000001_Node000002" class="edge">
<title>Node1&#45;&gt;Node2</title>
<g id="a_edge1_Node000001_Node000002"><a xlink:title=" ">
<path fill="none" stroke="#63b8ff" d="M177.58,-49.17C185.48,-50.06 193.53,-50.96 201.57,-51.87"/>
<polygon fill="#63b8ff" stroke="#63b8ff" points="201.09,-55.34 211.42,-52.98 201.87,-48.38 201.09,-55.34"/>
</a>
</g>
</g>
<!-- Node3 -->
<g id="Node000003" class="node">
<title>Node3</title>
<g id="a_Node000003"><a xlink:href="classedu_1_1wpi_1_1first_1_1wpilibj_1_1shuffleboard_1_1_shuffleboard.html#afa12b3d32fdc3e9930a4223ecdf7669b" target="_top" xlink:title=" ">
<polygon fill="white" stroke="#666666" points="391.62,-30.5 233.12,-30.5 233.12,0 391.62,0 391.62,-30.5"/>
<text text-anchor="start" x="241.12" y="-17" font-family="Helvetica,sans-Serif" font-size="10.00">edu.wpi.first.wpilibj.shuffleboard.</text>
<text text-anchor="middle" x="312.38" y="-5.75" font-family="Helvetica,sans-Serif" font-size="10.00">Shuffleboard.update</text>
</a>
</g>
</g>
<!-- Node1&#45;&gt;Node3 -->
<g id="edge2_Node000001_Node000003" class="edge">
<title>Node1&#45;&gt;Node3</title>
<g id="a_edge2_Node000001_Node000003"><a xlink:title=" ">
<path fill="none" stroke="#63b8ff" d="M177.58,-29.73C192.14,-28.16 207.24,-26.52 221.82,-24.94"/>
<polygon fill="#63b8ff" stroke="#63b8ff" points="221.79,-28.47 231.36,-23.91 221.04,-21.51 221.79,-28.47"/>
</a>
</g>
</g>
<!-- Node4 -->
<g id="Node000004" class="node">
<title>Node4</title>
<g id="a_Node000004"><a xlink:href="interfaceedu_1_1wpi_1_1first_1_1wpilibj_1_1shuffleboard_1_1_shuffleboard_root.html#aa46fe78bd790b59cb23734b0fc60a326" target="_top" xlink:title=" ">
<polygon fill="white" stroke="#666666" points="606,-30.5 447.5,-30.5 447.5,0 606,0 606,-30.5"/>
<text text-anchor="start" x="455.5" y="-17" font-family="Helvetica,sans-Serif" font-size="10.00">edu.wpi.first.wpilibj.shuffleboard.</text>
<text text-anchor="middle" x="526.75" y="-5.75" font-family="Helvetica,sans-Serif" font-size="10.00">ShuffleboardRoot.update</text>
</a>
</g>
</g>
<!-- Node3&#45;&gt;Node4 -->
<g id="edge3_Node000003_Node000004" class="edge">
<title>Node3&#45;&gt;Node4</title>
<g id="a_edge3_Node000003_Node000004"><a xlink:title=" ">
<path fill="none" stroke="#63b8ff" d="M391.85,-15.25C406.26,-15.25 421.4,-15.25 436.1,-15.25"/>
<polygon fill="#63b8ff" stroke="#63b8ff" points="435.73,-18.75 445.73,-15.25 435.73,-11.75 435.73,-18.75"/>
</a>
</g>
</g>
</g>
</svg>
