<?xml version="1.0" encoding="UTF-8" standalone="no"?>
<!DOCTYPE svg PUBLIC "-//W3C//DTD SVG 1.1//EN"
 "http://www.w3.org/Graphics/SVG/1.1/DTD/svg11.dtd">
<!-- Generated by graphviz version 9.0.0 (20230911.1827)
 -->
<!-- Title: edu.wpi.first.wpilibj.simulation.PS4ControllerSim.setCrossButton Pages: 1 -->
<svg width="568pt" height="39pt"
 viewBox="0.00 0.00 567.50 38.50" xmlns="http://www.w3.org/2000/svg" xmlns:xlink="http://www.w3.org/1999/xlink">
<g id="graph0" class="graph" transform="scale(1 1) rotate(0) translate(4 34.5)">
<title>edu.wpi.first.wpilibj.simulation.PS4ControllerSim.setCrossButton</title>
<!-- Node1 -->
<g id="Node000001" class="node">
<title>Node1</title>
<g id="a_Node000001"><a xlink:title=" ">
<polygon fill="#999999" stroke="#666666" points="165.25,-30.5 0,-30.5 0,0 165.25,0 165.25,-30.5"/>
<text text-anchor="start" x="8" y="-17" font-family="Helvetica,sans-Serif" font-size="10.00">edu.wpi.first.wpilibj.simulation.</text>
<text text-anchor="middle" x="82.62" y="-5.75" font-family="Helvetica,sans-Serif" font-size="10.00">PS4ControllerSim.setCrossButton</text>
</a>
</g>
</g>
<!-- Node2 -->
<g id="Node000002" class="node">
<title>Node2</title>
<g id="a_Node000002"><a xlink:href="classedu_1_1wpi_1_1first_1_1wpilibj_1_1simulation_1_1_generic_h_i_d_sim.html#a59a64957c20d3ce400fa84e9957b4252" target="_top" xlink:title=" ">
<polygon fill="white" stroke="#666666" points="351.5,-30.5 201.25,-30.5 201.25,0 351.5,0 351.5,-30.5"/>
<text text-anchor="start" x="209.25" y="-17" font-family="Helvetica,sans-Serif" font-size="10.00">edu.wpi.first.wpilibj.simulation.</text>
<text text-anchor="middle" x="276.38" y="-5.75" font-family="Helvetica,sans-Serif" font-size="10.00">GenericHIDSim.setRawButton</text>
</a>
</g>
</g>
<!-- Node1&#45;&gt;Node2 -->
<g id="edge1_Node000001_Node000002" class="edge">
<title>Node1&#45;&gt;Node2</title>
<g id="a_edge1_Node000001_Node000002"><a xlink:title=" ">
<path fill="none" stroke="#63b8ff" d="M165.5,-15.25C173.37,-15.25 181.36,-15.25 189.26,-15.25"/>
<polygon fill="#63b8ff" stroke="#63b8ff" points="189.24,-18.75 199.24,-15.25 189.24,-11.75 189.24,-18.75"/>
</a>
</g>
</g>
<!-- Node3 -->
<g id="Node000003" class="node">
<title>Node3</title>
<g id="a_Node000003"><a xlink:href="classedu_1_1wpi_1_1first_1_1wpilibj_1_1simulation_1_1_driver_station_sim.html#a37f2d3995518ba4d1ca2f6656bc8c687" target="_top" xlink:title=" ">
<polygon fill="white" stroke="#666666" points="559.5,-30.5 387.5,-30.5 387.5,0 559.5,0 559.5,-30.5"/>
<text text-anchor="start" x="395.5" y="-17" font-family="Helvetica,sans-Serif" font-size="10.00">edu.wpi.first.wpilibj.simulation.</text>
<text text-anchor="middle" x="473.5" y="-5.75" font-family="Helvetica,sans-Serif" font-size="10.00">DriverStationSim.setJoystickButton</text>
</a>
</g>
</g>
<!-- Node2&#45;&gt;Node3 -->
<g id="edge2_Node000002_Node000003" class="edge">
<title>Node2&#45;&gt;Node3</title>
<g id="a_edge2_Node000002_Node000003"><a xlink:title=" ">
<path fill="none" stroke="#63b8ff" d="M351.98,-15.25C359.8,-15.25 367.84,-15.25 375.86,-15.25"/>
<polygon fill="#63b8ff" stroke="#63b8ff" points="375.67,-18.75 385.67,-15.25 375.67,-11.75 375.67,-18.75"/>
</a>
</g>
</g>
</g>
</svg>
