<?xml version="1.0" encoding="UTF-8" standalone="no"?>
<!DOCTYPE svg PUBLIC "-//W3C//DTD SVG 1.1//EN"
 "http://www.w3.org/Graphics/SVG/1.1/DTD/svg11.dtd">
<!-- Generated by graphviz version 9.0.0 (20230911.1827)
 -->
<!-- Title: edu.wpi.first.wpilibj.StadiaController.getLeftTriggerButtonReleased Pages: 1 -->
<!--zoomable 124 -->

<svg id="main" version="1.1" xmlns="http://www.w3.org/2000/svg" xmlns:xlink="http://www.w3.org/1999/xlink" xml:space="preserve" onload="init(evt)">
<style type="text/css"><![CDATA[
.node, .edge {opacity: 0.7;}
.node.selected, .edge.selected {opacity: 1;}
.edge:hover path { stroke: red; }
.edge:hover polygon { stroke: red; fill: red; }
]]></style>

<defs>
  <circle id="rim" cx="0" cy="0" r="7"/>
  <circle id="rim2" cx="0" cy="0" r="3.5"/>
  <g id="zoomPlus">
    <use xlink:href="#rim" fill="#404040"><set attributeName="fill" to="#808080" begin="zoomplus.mouseover" end="zoomplus.mouseout"/></use>
    <path d="M-4,0h8M0,-4v8" fill="none" stroke="white" stroke-width="1.5" pointer-events="none"/>
  </g>
  <g id="zoomMin">
    <use xlink:href="#rim" fill="#404040"><set attributeName="fill" to="#808080" begin="zoomminus.mouseover" end="zoomminus.mouseout"/></use>
    <path d="M-4,0h8" fill="none" stroke="white" stroke-width="1.5" pointer-events="none"/>
  </g>
  <g id="arrowUp" transform="translate(30 24)">
    <use xlink:href="#rim"/>
    <path pointer-events="none" fill="none" stroke="white" stroke-width="1.5" d="M0,-3.0v7 M-2.5,-0.5L0,-3.0L2.5,-0.5"/>
  </g>
  <g id="arrowRight" transform="rotate(90) translate(36 -43)">
    <use xlink:href="#rim"/>
    <path pointer-events="none" fill="none" stroke="white" stroke-width="1.5" d="M0,-3.0v7 M-2.5,-0.5L0,-3.0L2.5,-0.5"/>
  </g>
  <g id="arrowDown" transform="rotate(180) translate(-30 -48)">
    <use xlink:href="#rim"/>
    <path pointer-events="none" fill="none" stroke="white" stroke-width="1.5" d="M0,-3.0v7 M-2.5,-0.5L0,-3.0L2.5,-0.5"/>
  </g>
  <g id="arrowLeft" transform="rotate(270) translate(-36 17)">
    <use xlink:href="#rim"/>
    <path pointer-events="none" fill="none" stroke="white" stroke-width="1.5" d="M0,-3.0v7 M-2.5,-0.5L0,-3.0L2.5,-0.5"/>
  </g>
  <g id="resetDef">
    <use xlink:href="#rim2" fill="#404040"><set attributeName="fill" to="#808080" begin="reset.mouseover" end="reset.mouseout"/></use>
  </g>
</defs>
<script type="application/ecmascript">
var viewWidth = 861;
var viewHeight = 124;
var sectionId = 'dynsection-33';
</script>
<script type="application/ecmascript" xlink:href="svg.min.js"/>
<svg id="graph" class="graph">
<g id="viewport">
<title>edu.wpi.first.wpilibj.StadiaController.getLeftTriggerButtonReleased</title>
<!-- Node1 -->
<g id="Node000001" class="node">
<title>Node1</title>
<g id="a_Node000001"><a xlink:title=" ">
<polygon fill="#999999" stroke="#666666" points="148.75,-78.12 0,-78.12 0,-36.38 148.75,-36.38 148.75,-78.12"/>
<text text-anchor="start" x="8" y="-64.62" font-family="Helvetica,sans-Serif" font-size="10.00">edu.wpi.first.wpilibj.Stadia</text>
<text text-anchor="start" x="8" y="-53.38" font-family="Helvetica,sans-Serif" font-size="10.00">Controller.getLeftTriggerButton</text>
<text text-anchor="middle" x="74.38" y="-42.12" font-family="Helvetica,sans-Serif" font-size="10.00">Released</text>
</a>
</g>
</g>
<!-- Node2 -->
<g id="Node000002" class="node">
<title>Node2</title>
<g id="a_Node000002"><a xlink:href="classedu_1_1wpi_1_1first_1_1wpilibj_1_1_generic_h_i_d.html#a2087699248ada770e00ea78b91b8fd01" target="_top" xlink:title=" ">
<polygon fill="white" stroke="#666666" points="325.25,-72.5 184.75,-72.5 184.75,-42 325.25,-42 325.25,-72.5"/>
<text text-anchor="start" x="192.75" y="-59" font-family="Helvetica,sans-Serif" font-size="10.00">edu.wpi.first.wpilibj.Generic</text>
<text text-anchor="middle" x="255" y="-47.75" font-family="Helvetica,sans-Serif" font-size="10.00">HID.getRawButtonReleased</text>
</a>
</g>
</g>
<!-- Node1&#45;&gt;Node2 -->
<g id="edge1_Node000001_Node000002" class="edge">
<title>Node1&#45;&gt;Node2</title>
<g id="a_edge1_Node000001_Node000002"><a xlink:title=" ">
<path fill="none" stroke="#63b8ff" d="M149.06,-57.25C157.03,-57.25 165.17,-57.25 173.22,-57.25"/>
<polygon fill="#63b8ff" stroke="#63b8ff" points="172.99,-60.75 182.99,-57.25 172.99,-53.75 172.99,-60.75"/>
</a>
</g>
</g>
<!-- Node3 -->
<g id="Node000003" class="node">
<title>Node3</title>
<g id="a_Node000003"><a xlink:href="classedu_1_1wpi_1_1first_1_1wpilibj_1_1_generic_h_i_d.html#a77f3feaa9b70759aa7e26c20bec4bec2" target="_top" xlink:title=" ">
<polygon fill="white" stroke="#666666" points="507,-97.5 371,-97.5 371,-67 507,-67 507,-97.5"/>
<text text-anchor="start" x="379" y="-84" font-family="Helvetica,sans-Serif" font-size="10.00">edu.wpi.first.wpilibj.Generic</text>
<text text-anchor="middle" x="439" y="-72.75" font-family="Helvetica,sans-Serif" font-size="10.00">HID.button</text>
</a>
</g>
</g>
<!-- Node2&#45;&gt;Node3 -->
<g id="edge2_Node000002_Node000003" class="edge">
<title>Node2&#45;&gt;Node3</title>
<g id="a_edge2_Node000002_Node000003"><a xlink:title=" ">
<path fill="none" stroke="#63b8ff" d="M325.59,-66.81C336.65,-68.33 348.16,-69.91 359.41,-71.46"/>
<polygon fill="#63b8ff" stroke="#63b8ff" points="358.67,-74.89 369.06,-72.78 359.62,-67.95 358.67,-74.89"/>
</a>
</g>
</g>
<!-- Node7 -->
<g id="Node000007" class="node">
<title>Node7</title>
<g id="a_Node000007"><a xlink:href="classedu_1_1wpi_1_1first_1_1wpilibj_1_1_driver_station.html#af7d67c20055e6730e05c8ed4483ea79a" target="_top" xlink:title=" ">
<polygon fill="white" stroke="#666666" points="516.75,-48.5 361.25,-48.5 361.25,-18 516.75,-18 516.75,-48.5"/>
<text text-anchor="start" x="369.25" y="-35" font-family="Helvetica,sans-Serif" font-size="10.00">edu.wpi.first.wpilibj.Driver</text>
<text text-anchor="middle" x="439" y="-23.75" font-family="Helvetica,sans-Serif" font-size="10.00">Station.getStickButtonReleased</text>
</a>
</g>
</g>
<!-- Node2&#45;&gt;Node7 -->
<g id="edge9_Node000002_Node000007" class="edge">
<title>Node2&#45;&gt;Node7</title>
<g id="a_edge9_Node000002_Node000007"><a xlink:title=" ">
<path fill="none" stroke="#63b8ff" d="M325.59,-48.07C333.43,-47.04 341.5,-45.98 349.54,-44.92"/>
<polygon fill="#63b8ff" stroke="#63b8ff" points="349.91,-48.4 359.37,-43.62 348.99,-41.46 349.91,-48.4"/>
</a>
</g>
</g>
<!-- Node3&#45;&gt;Node3 -->
<g id="edge3_Node000003_Node000003" class="edge">
<title>Node3&#45;&gt;Node3</title>
<g id="a_edge3_Node000003_Node000003"><a xlink:title=" ">
<path fill="none" stroke="#63b8ff" d="M406.79,-97.99C400.22,-107.06 410.96,-115.5 439,-115.5 454.34,-115.5 464.5,-112.97 469.48,-109.2"/>
<polygon fill="#63b8ff" stroke="#63b8ff" points="472.91,-109.9 470.98,-99.48 466,-108.83 472.91,-109.9"/>
</a>
</g>
</g>
<!-- Node4 -->
<g id="Node000004" class="node">
<title>Node4</title>
<g id="a_Node000004"><a xlink:href="classedu_1_1wpi_1_1first_1_1wpilibj_1_1_generic_h_i_d.html#abdb0245e5cb7f7b92cc1060202821a2d" target="_top" xlink:title=" ">
<polygon fill="white" stroke="#666666" points="688.75,-97.5 552.75,-97.5 552.75,-67 688.75,-67 688.75,-97.5"/>
<text text-anchor="start" x="560.75" y="-84" font-family="Helvetica,sans-Serif" font-size="10.00">edu.wpi.first.wpilibj.Generic</text>
<text text-anchor="middle" x="620.75" y="-72.75" font-family="Helvetica,sans-Serif" font-size="10.00">HID.getRawButton</text>
</a>
</g>
</g>
<!-- Node3&#45;&gt;Node4 -->
<g id="edge4_Node000003_Node000004" class="edge">
<title>Node3&#45;&gt;Node4</title>
<g id="a_edge4_Node000003_Node000004"><a xlink:title=" ">
<path fill="none" stroke="#63b8ff" d="M507.44,-75.69C518.5,-75.5 530.04,-75.45 541.34,-75.55"/>
<polygon fill="#63b8ff" stroke="#63b8ff" points="540.97,-79.04 551.01,-75.67 541.06,-72.05 540.97,-79.04"/>
</a>
</g>
</g>
<!-- Node6 -->
<g id="Node000006" class="node">
<title>Node6</title>
<g id="a_Node000006"><a xlink:href="classedu_1_1wpi_1_1first_1_1wpilibj_1_1_generic_h_i_d.html#af0b067c76cbb79f54d7f475e88fcfed2" target="_top" xlink:title=" ">
<polygon fill="white" stroke="#666666" points="688.75,-30.5 552.75,-30.5 552.75,0 688.75,0 688.75,-30.5"/>
<text text-anchor="start" x="560.75" y="-17" font-family="Helvetica,sans-Serif" font-size="10.00">edu.wpi.first.wpilibj.Generic</text>
<text text-anchor="middle" x="620.75" y="-5.75" font-family="Helvetica,sans-Serif" font-size="10.00">HID.pov</text>
</a>
</g>
</g>
<!-- Node3&#45;&gt;Node6 -->
<g id="edge7_Node000003_Node000006" class="edge">
<title>Node3&#45;&gt;Node6</title>
<g id="a_edge7_Node000003_Node000006"><a xlink:title=" ">
<path fill="none" stroke="#63b8ff" d="M489.72,-66.63C498.76,-63.63 508.06,-60.43 516.75,-57.25 535.22,-50.49 555.3,-42.46 572.78,-35.24"/>
<polygon fill="#63b8ff" stroke="#63b8ff" points="574.01,-38.52 581.9,-31.45 571.32,-32.05 574.01,-38.52"/>
</a>
</g>
</g>
<!-- Node4&#45;&gt;Node3 -->
<g id="edge5_Node000004_Node000003" class="edge">
<title>Node4&#45;&gt;Node3</title>
<g id="a_edge5_Node000004_Node000003"><a xlink:title=" ">
<path fill="none" stroke="#63b8ff" d="M552.53,-88.81C541.47,-89 529.93,-89.05 518.64,-88.95"/>
<polygon fill="#63b8ff" stroke="#63b8ff" points="519,-85.46 508.96,-88.83 518.91,-92.46 519,-85.46"/>
</a>
</g>
</g>
<!-- Node5 -->
<g id="Node000005" class="node">
<title>Node5</title>
<g id="a_Node000005"><a xlink:href="classedu_1_1wpi_1_1first_1_1wpilibj_1_1_driver_station.html#a3d86d4b8414c05aafe18fc866d99ccab" target="_top" xlink:title=" ">
<polygon fill="white" stroke="#666666" points="853.25,-97.5 724.75,-97.5 724.75,-67 853.25,-67 853.25,-97.5"/>
<text text-anchor="start" x="732.75" y="-84" font-family="Helvetica,sans-Serif" font-size="10.00">edu.wpi.first.wpilibj.Driver</text>
<text text-anchor="middle" x="789" y="-72.75" font-family="Helvetica,sans-Serif" font-size="10.00">Station.getStickButton</text>
</a>
</g>
</g>
<!-- Node4&#45;&gt;Node5 -->
<g id="edge6_Node000004_Node000005" class="edge">
<title>Node4&#45;&gt;Node5</title>
<g id="a_edge6_Node000004_Node000005"><a xlink:title=" ">
<path fill="none" stroke="#63b8ff" d="M688.89,-82.25C696.85,-82.25 705.02,-82.25 713.08,-82.25"/>
<polygon fill="#63b8ff" stroke="#63b8ff" points="712.87,-85.75 722.87,-82.25 712.87,-78.75 712.87,-85.75"/>
</a>
</g>
</g>
<!-- Node6&#45;&gt;Node6 -->
<g id="edge8_Node000006_Node000006" class="edge">
<title>Node6&#45;&gt;Node6</title>
<g id="a_edge8_Node000006_Node000006"><a xlink:title=" ">
<path fill="none" stroke="#63b8ff" d="M590.94,-30.99C584.85,-40.06 594.79,-48.5 620.75,-48.5 634.95,-48.5 644.35,-45.97 648.97,-42.2"/>
<polygon fill="#63b8ff" stroke="#63b8ff" points="652.4,-42.88 650.35,-32.48 645.47,-41.89 652.4,-42.88"/>
</a>
</g>
</g>
</g>
</svg>

<g id="navigator" transform="translate(0 0)" fill="#404254">
  <rect fill="#f2f5e9" fill-opacity="0.5" stroke="#606060" stroke-width=".5" x="0" y="0" width="60" height="60"/>
  <use id="zoomplus" xlink:href="#zoomPlus" x="17" y="9" onmousedown="handleZoom(evt,'in')"/>
  <use id="zoomminus" xlink:href="#zoomMin" x="42" y="9" onmousedown="handleZoom(evt,'out')"/>
  <use id="reset" xlink:href="#resetDef" x="30" y="36" onmousedown="handleReset()"/>
   <use id="arrowup" xlink:href="#arrowUp" x="0" y="0" onmousedown="handlePan(0,-1)"/>
  <use id="arrowright" xlink:href="#arrowRight" x="0" y="0" onmousedown="handlePan(1,0)"/>
  <use id="arrowdown" xlink:href="#arrowDown" x="0" y="0" onmousedown="handlePan(0,1)"/>
  <use id="arrowleft" xlink:href="#arrowLeft" x="0" y="0" onmousedown="handlePan(-1,0)"/>
</g>
<svg viewBox="0 0 15 15" width="100%" height="30px" preserveAspectRatio="xMaxYMin meet">
 <g id="arrow_out" transform="scale(0.3 0.3)">
  <a xlink:href="classedu_1_1wpi_1_1first_1_1wpilibj_1_1_stadia_controller_a68398e1a664639f7f94319a099f2457b_cgraph_org.svg" target="_base">
   <rect id="button" ry="5" rx="5" y="6" x="6" height="38" width="38"
        fill="#f2f5e9" fill-opacity="0.5" stroke="#606060" stroke-width="1.0"/>
   <path id="arrow"
     d="M 11.500037,31.436501 C 11.940474,20.09759 22.043105,11.32322 32.158766,21.979434 L 37.068811,17.246167 C 37.068811,17.246167 37.088388,32 37.088388,32 L 22.160133,31.978069 C 22.160133,31.978069 26.997745,27.140456 26.997745,27.140456 C 18.528582,18.264221 13.291696,25.230495 11.500037,31.436501 z"
     style="fill:#404040;"/>
  </a>
 </g>
</svg>

<style type='text/css'>
<![CDATA[
[data-mouse-over-selected='false'] { opacity: 0.7; }
[data-mouse-over-selected='true']  { opacity: 1.0; }
]]>
</style>
<script type="application/ecmascript"><![CDATA[
document.addEventListener('DOMContentLoaded', (event) => {
  highlightEdges();
  highlightAdjacentNodes();
});
]]></script>
</svg>
