<?xml version="1.0" encoding="UTF-8" standalone="no"?>
<!DOCTYPE svg PUBLIC "-//W3C//DTD SVG 1.1//EN"
 "http://www.w3.org/Graphics/SVG/1.1/DTD/svg11.dtd">
<!-- Generated by graphviz version 9.0.0 (20230911.1827)
 -->
<!-- Title: edu.wpi.first.wpilibj.PS5Controller.getCreateButtonReleased Pages: 1 -->
<svg width="885pt" height="124pt"
 viewBox="0.00 0.00 885.25 123.50" xmlns="http://www.w3.org/2000/svg" xmlns:xlink="http://www.w3.org/1999/xlink">
<g id="graph0" class="graph" transform="scale(1 1) rotate(0) translate(4 119.5)">
<title>edu.wpi.first.wpilibj.PS5Controller.getCreateButtonReleased</title>
<!-- Node1 -->
<g id="Node000001" class="node">
<title>Node1</title>
<g id="a_Node000001"><a xlink:title=" ">
<polygon fill="#999999" stroke="#666666" points="172.75,-72.5 0,-72.5 0,-42 172.75,-42 172.75,-72.5"/>
<text text-anchor="start" x="8" y="-59" font-family="Helvetica,sans-Serif" font-size="10.00">edu.wpi.first.wpilibj.PS5</text>
<text text-anchor="middle" x="86.38" y="-47.75" font-family="Helvetica,sans-Serif" font-size="10.00">Controller.getCreateButtonReleased</text>
</a>
</g>
</g>
<!-- Node2 -->
<g id="Node000002" class="node">
<title>Node2</title>
<g id="a_Node000002"><a xlink:href="classedu_1_1wpi_1_1first_1_1wpilibj_1_1_generic_h_i_d.html#a2087699248ada770e00ea78b91b8fd01" target="_top" xlink:title=" ">
<polygon fill="white" stroke="#666666" points="349.25,-72.5 208.75,-72.5 208.75,-42 349.25,-42 349.25,-72.5"/>
<text text-anchor="start" x="216.75" y="-59" font-family="Helvetica,sans-Serif" font-size="10.00">edu.wpi.first.wpilibj.Generic</text>
<text text-anchor="middle" x="279" y="-47.75" font-family="Helvetica,sans-Serif" font-size="10.00">HID.getRawButtonReleased</text>
</a>
</g>
</g>
<!-- Node1&#45;&gt;Node2 -->
<g id="edge1_Node000001_Node000002" class="edge">
<title>Node1&#45;&gt;Node2</title>
<g id="a_edge1_Node000001_Node000002"><a xlink:title=" ">
<path fill="none" stroke="#63b8ff" d="M173.21,-57.25C181.11,-57.25 189.1,-57.25 196.95,-57.25"/>
<polygon fill="#63b8ff" stroke="#63b8ff" points="196.83,-60.75 206.83,-57.25 196.83,-53.75 196.83,-60.75"/>
</a>
</g>
</g>
<!-- Node3 -->
<g id="Node000003" class="node">
<title>Node3</title>
<g id="a_Node000003"><a xlink:href="classedu_1_1wpi_1_1first_1_1wpilibj_1_1_generic_h_i_d.html#a77f3feaa9b70759aa7e26c20bec4bec2" target="_top" xlink:title=" ">
<polygon fill="white" stroke="#666666" points="531,-97.5 395,-97.5 395,-67 531,-67 531,-97.5"/>
<text text-anchor="start" x="403" y="-84" font-family="Helvetica,sans-Serif" font-size="10.00">edu.wpi.first.wpilibj.Generic</text>
<text text-anchor="middle" x="463" y="-72.75" font-family="Helvetica,sans-Serif" font-size="10.00">HID.button</text>
</a>
</g>
</g>
<!-- Node2&#45;&gt;Node3 -->
<g id="edge2_Node000002_Node000003" class="edge">
<title>Node2&#45;&gt;Node3</title>
<g id="a_edge2_Node000002_Node000003"><a xlink:title=" ">
<path fill="none" stroke="#63b8ff" d="M349.59,-66.81C360.65,-68.33 372.16,-69.91 383.41,-71.46"/>
<polygon fill="#63b8ff" stroke="#63b8ff" points="382.67,-74.89 393.06,-72.78 383.62,-67.95 382.67,-74.89"/>
</a>
</g>
</g>
<!-- Node7 -->
<g id="Node000007" class="node">
<title>Node7</title>
<g id="a_Node000007"><a xlink:href="classedu_1_1wpi_1_1first_1_1wpilibj_1_1_driver_station.html#af7d67c20055e6730e05c8ed4483ea79a" target="_top" xlink:title=" ">
<polygon fill="white" stroke="#666666" points="540.75,-48.5 385.25,-48.5 385.25,-18 540.75,-18 540.75,-48.5"/>
<text text-anchor="start" x="393.25" y="-35" font-family="Helvetica,sans-Serif" font-size="10.00">edu.wpi.first.wpilibj.Driver</text>
<text text-anchor="middle" x="463" y="-23.75" font-family="Helvetica,sans-Serif" font-size="10.00">Station.getStickButtonReleased</text>
</a>
</g>
</g>
<!-- Node2&#45;&gt;Node7 -->
<g id="edge9_Node000002_Node000007" class="edge">
<title>Node2&#45;&gt;Node7</title>
<g id="a_edge9_Node000002_Node000007"><a xlink:title=" ">
<path fill="none" stroke="#63b8ff" d="M349.59,-48.07C357.43,-47.04 365.5,-45.98 373.54,-44.92"/>
<polygon fill="#63b8ff" stroke="#63b8ff" points="373.91,-48.4 383.37,-43.62 372.99,-41.46 373.91,-48.4"/>
</a>
</g>
</g>
<!-- Node3&#45;&gt;Node3 -->
<g id="edge3_Node000003_Node000003" class="edge">
<title>Node3&#45;&gt;Node3</title>
<g id="a_edge3_Node000003_Node000003"><a xlink:title=" ">
<path fill="none" stroke="#63b8ff" d="M430.79,-97.99C424.22,-107.06 434.96,-115.5 463,-115.5 478.34,-115.5 488.5,-112.97 493.48,-109.2"/>
<polygon fill="#63b8ff" stroke="#63b8ff" points="496.91,-109.9 494.98,-99.48 490,-108.83 496.91,-109.9"/>
</a>
</g>
</g>
<!-- Node4 -->
<g id="Node000004" class="node">
<title>Node4</title>
<g id="a_Node000004"><a xlink:href="classedu_1_1wpi_1_1first_1_1wpilibj_1_1_generic_h_i_d.html#abdb0245e5cb7f7b92cc1060202821a2d" target="_top" xlink:title=" ">
<polygon fill="white" stroke="#666666" points="712.75,-97.5 576.75,-97.5 576.75,-67 712.75,-67 712.75,-97.5"/>
<text text-anchor="start" x="584.75" y="-84" font-family="Helvetica,sans-Serif" font-size="10.00">edu.wpi.first.wpilibj.Generic</text>
<text text-anchor="middle" x="644.75" y="-72.75" font-family="Helvetica,sans-Serif" font-size="10.00">HID.getRawButton</text>
</a>
</g>
</g>
<!-- Node3&#45;&gt;Node4 -->
<g id="edge4_Node000003_Node000004" class="edge">
<title>Node3&#45;&gt;Node4</title>
<g id="a_edge4_Node000003_Node000004"><a xlink:title=" ">
<path fill="none" stroke="#63b8ff" d="M531.44,-75.69C542.5,-75.5 554.04,-75.45 565.34,-75.55"/>
<polygon fill="#63b8ff" stroke="#63b8ff" points="564.97,-79.04 575.01,-75.67 565.06,-72.05 564.97,-79.04"/>
</a>
</g>
</g>
<!-- Node6 -->
<g id="Node000006" class="node">
<title>Node6</title>
<g id="a_Node000006"><a xlink:href="classedu_1_1wpi_1_1first_1_1wpilibj_1_1_generic_h_i_d.html#af0b067c76cbb79f54d7f475e88fcfed2" target="_top" xlink:title=" ">
<polygon fill="white" stroke="#666666" points="712.75,-30.5 576.75,-30.5 576.75,0 712.75,0 712.75,-30.5"/>
<text text-anchor="start" x="584.75" y="-17" font-family="Helvetica,sans-Serif" font-size="10.00">edu.wpi.first.wpilibj.Generic</text>
<text text-anchor="middle" x="644.75" y="-5.75" font-family="Helvetica,sans-Serif" font-size="10.00">HID.pov</text>
</a>
</g>
</g>
<!-- Node3&#45;&gt;Node6 -->
<g id="edge7_Node000003_Node000006" class="edge">
<title>Node3&#45;&gt;Node6</title>
<g id="a_edge7_Node000003_Node000006"><a xlink:title=" ">
<path fill="none" stroke="#63b8ff" d="M513.72,-66.63C522.76,-63.63 532.06,-60.43 540.75,-57.25 559.22,-50.49 579.3,-42.46 596.78,-35.24"/>
<polygon fill="#63b8ff" stroke="#63b8ff" points="598.01,-38.52 605.9,-31.45 595.32,-32.05 598.01,-38.52"/>
</a>
</g>
</g>
<!-- Node4&#45;&gt;Node3 -->
<g id="edge5_Node000004_Node000003" class="edge">
<title>Node4&#45;&gt;Node3</title>
<g id="a_edge5_Node000004_Node000003"><a xlink:title=" ">
<path fill="none" stroke="#63b8ff" d="M576.53,-88.81C565.47,-89 553.93,-89.05 542.64,-88.95"/>
<polygon fill="#63b8ff" stroke="#63b8ff" points="543,-85.46 532.96,-88.83 542.91,-92.46 543,-85.46"/>
</a>
</g>
</g>
<!-- Node5 -->
<g id="Node000005" class="node">
<title>Node5</title>
<g id="a_Node000005"><a xlink:href="classedu_1_1wpi_1_1first_1_1wpilibj_1_1_driver_station.html#a3d86d4b8414c05aafe18fc866d99ccab" target="_top" xlink:title=" ">
<polygon fill="white" stroke="#666666" points="877.25,-97.5 748.75,-97.5 748.75,-67 877.25,-67 877.25,-97.5"/>
<text text-anchor="start" x="756.75" y="-84" font-family="Helvetica,sans-Serif" font-size="10.00">edu.wpi.first.wpilibj.Driver</text>
<text text-anchor="middle" x="813" y="-72.75" font-family="Helvetica,sans-Serif" font-size="10.00">Station.getStickButton</text>
</a>
</g>
</g>
<!-- Node4&#45;&gt;Node5 -->
<g id="edge6_Node000004_Node000005" class="edge">
<title>Node4&#45;&gt;Node5</title>
<g id="a_edge6_Node000004_Node000005"><a xlink:title=" ">
<path fill="none" stroke="#63b8ff" d="M712.89,-82.25C720.85,-82.25 729.02,-82.25 737.08,-82.25"/>
<polygon fill="#63b8ff" stroke="#63b8ff" points="736.87,-85.75 746.87,-82.25 736.87,-78.75 736.87,-85.75"/>
</a>
</g>
</g>
<!-- Node6&#45;&gt;Node6 -->
<g id="edge8_Node000006_Node000006" class="edge">
<title>Node6&#45;&gt;Node6</title>
<g id="a_edge8_Node000006_Node000006"><a xlink:title=" ">
<path fill="none" stroke="#63b8ff" d="M614.94,-30.99C608.85,-40.06 618.79,-48.5 644.75,-48.5 658.95,-48.5 668.35,-45.97 672.97,-42.2"/>
<polygon fill="#63b8ff" stroke="#63b8ff" points="676.4,-42.88 674.35,-32.48 669.47,-41.89 676.4,-42.88"/>
</a>
</g>
</g>
</g>
</svg>
