<?xml version="1.0" encoding="UTF-8" standalone="no"?>
<!DOCTYPE svg PUBLIC "-//W3C//DTD SVG 1.1//EN"
 "http://www.w3.org/Graphics/SVG/1.1/DTD/svg11.dtd">
<!-- Generated by graphviz version 9.0.0 (20230911.1827)
 -->
<!-- Title: edu.wpi.first.wpilibj.simulation.AnalogTriggerSim.createForIndex Pages: 1 -->
<svg width="547pt" height="39pt"
 viewBox="0.00 0.00 547.25 38.50" xmlns="http://www.w3.org/2000/svg" xmlns:xlink="http://www.w3.org/1999/xlink">
<g id="graph0" class="graph" transform="scale(1 1) rotate(0) translate(4 34.5)">
<title>edu.wpi.first.wpilibj.simulation.AnalogTriggerSim.createForIndex</title>
<!-- Node1 -->
<g id="Node000001" class="node">
<title>Node1</title>
<g id="a_Node000001"><a xlink:title=" ">
<polygon fill="#999999" stroke="#666666" points="161.5,-30.5 0,-30.5 0,0 161.5,0 161.5,-30.5"/>
<text text-anchor="start" x="8" y="-17" font-family="Helvetica,sans-Serif" font-size="10.00">edu.wpi.first.wpilibj.simulation.</text>
<text text-anchor="middle" x="80.75" y="-5.75" font-family="Helvetica,sans-Serif" font-size="10.00">AnalogTriggerSim.createForIndex</text>
</a>
</g>
</g>
<!-- Node2 -->
<g id="Node000002" class="node">
<title>Node2</title>
<g id="a_Node000002"><a xlink:href="classedu_1_1wpi_1_1first_1_1wpilibj_1_1simulation_1_1_analog_trigger_sim.html#a33f4ad28e82a16e3267857a0fa8d33c6" target="_top" xlink:title=" ">
<polygon fill="white" stroke="#666666" points="371,-30.5 197.5,-30.5 197.5,0 371,0 371,-30.5"/>
<text text-anchor="start" x="205.5" y="-17" font-family="Helvetica,sans-Serif" font-size="10.00">edu.wpi.first.wpilibj.simulation.</text>
<text text-anchor="middle" x="284.25" y="-5.75" font-family="Helvetica,sans-Serif" font-size="10.00">AnalogTriggerSim.AnalogTriggerSim</text>
</a>
</g>
</g>
<!-- Node1&#45;&gt;Node2 -->
<g id="edge1_Node000001_Node000002" class="edge">
<title>Node1&#45;&gt;Node2</title>
<g id="a_edge1_Node000001_Node000002"><a xlink:title=" ">
<path fill="none" stroke="#63b8ff" d="M161.97,-15.25C169.8,-15.25 177.81,-15.25 185.78,-15.25"/>
<polygon fill="#63b8ff" stroke="#63b8ff" points="185.51,-18.75 195.51,-15.25 185.51,-11.75 185.51,-18.75"/>
</a>
</g>
</g>
<!-- Node3 -->
<g id="Node000003" class="node">
<title>Node3</title>
<g id="a_Node000003"><a xlink:href="classedu_1_1wpi_1_1first_1_1wpilibj_1_1_analog_trigger.html#a86ef1ddd17d825d1731fca37077061a8" target="_top" xlink:title=" ">
<polygon fill="white" stroke="#666666" points="539.25,-30.5 407,-30.5 407,0 539.25,0 539.25,-30.5"/>
<text text-anchor="start" x="415" y="-17" font-family="Helvetica,sans-Serif" font-size="10.00">edu.wpi.first.wpilibj.Analog</text>
<text text-anchor="middle" x="473.12" y="-5.75" font-family="Helvetica,sans-Serif" font-size="10.00">Trigger.getIndex</text>
</a>
</g>
</g>
<!-- Node2&#45;&gt;Node3 -->
<g id="edge2_Node000002_Node000003" class="edge">
<title>Node2&#45;&gt;Node3</title>
<g id="a_edge2_Node000002_Node000003"><a xlink:title=" ">
<path fill="none" stroke="#63b8ff" d="M371.3,-15.25C379.28,-15.25 387.34,-15.25 395.23,-15.25"/>
<polygon fill="#63b8ff" stroke="#63b8ff" points="395.13,-18.75 405.13,-15.25 395.13,-11.75 395.13,-18.75"/>
</a>
</g>
</g>
</g>
</svg>
