<?xml version="1.0" encoding="UTF-8" standalone="no"?>
<!DOCTYPE svg PUBLIC "-//W3C//DTD SVG 1.1//EN"
 "http://www.w3.org/Graphics/SVG/1.1/DTD/svg11.dtd">
<!-- Generated by graphviz version 9.0.0 (20230911.1827)
 -->
<!-- Title: frc.robot.Robot.disabledInit Pages: 1 -->
<svg width="329pt" height="64pt"
 viewBox="0.00 0.00 328.75 64.25" xmlns="http://www.w3.org/2000/svg" xmlns:xlink="http://www.w3.org/1999/xlink">
<g id="graph0" class="graph" transform="scale(1 1) rotate(0) translate(4 60.25)">
<title>frc.robot.Robot.disabledInit</title>
<!-- Node1 -->
<g id="Node000001" class="node">
<title>Node1</title>
<g id="a_Node000001"><a xlink:title=" ">
<polygon fill="#999999" stroke="#666666" points="133.75,-37.25 0,-37.25 0,-18 133.75,-18 133.75,-37.25"/>
<text text-anchor="middle" x="66.88" y="-23.75" font-family="Helvetica,sans-Serif" font-size="10.00">frc.robot.Robot.disabledInit</text>
</a>
</g>
</g>
<!-- Node2 -->
<g id="Node000002" class="node">
<title>Node2</title>
<g id="a_Node000002"><a xlink:href="classedu_1_1wpi_1_1first_1_1wpilibj_1_1_timer.html#a5fff66810d51de926562f656f5a7adb4" target="_top" xlink:title=" ">
<polygon fill="white" stroke="#666666" points="320.75,-56.25 169.75,-56.25 169.75,-37 320.75,-37 320.75,-56.25"/>
<text text-anchor="middle" x="245.25" y="-42.75" font-family="Helvetica,sans-Serif" font-size="10.00">edu.wpi.first.wpilibj.Timer.reset</text>
</a>
</g>
</g>
<!-- Node1&#45;&gt;Node2 -->
<g id="edge1_Node000001_Node000002" class="edge">
<title>Node1&#45;&gt;Node2</title>
<g id="a_edge1_Node000001_Node000002"><a xlink:title=" ">
<path fill="none" stroke="#63b8ff" d="M134.05,-34.75C141.89,-35.6 149.98,-36.47 158.05,-37.34"/>
<polygon fill="#63b8ff" stroke="#63b8ff" points="157.58,-40.81 167.9,-38.4 158.33,-33.85 157.58,-40.81"/>
</a>
</g>
</g>
<!-- Node3 -->
<g id="Node000003" class="node">
<title>Node3</title>
<g id="a_Node000003"><a xlink:href="classedu_1_1wpi_1_1first_1_1wpilibj_1_1_timer.html#aacd54f1b7b8730971bf8c904424e0bf4" target="_top" xlink:title=" ">
<polygon fill="white" stroke="#666666" points="319.62,-19.25 170.88,-19.25 170.88,0 319.62,0 319.62,-19.25"/>
<text text-anchor="middle" x="245.25" y="-5.75" font-family="Helvetica,sans-Serif" font-size="10.00">edu.wpi.first.wpilibj.Timer.start</text>
</a>
</g>
</g>
<!-- Node1&#45;&gt;Node3 -->
<g id="edge2_Node000001_Node000003" class="edge">
<title>Node1&#45;&gt;Node3</title>
<g id="a_edge2_Node000001_Node000003"><a xlink:title=" ">
<path fill="none" stroke="#63b8ff" d="M134.05,-20.87C142.25,-20.03 150.72,-19.17 159.15,-18.31"/>
<polygon fill="#63b8ff" stroke="#63b8ff" points="159.5,-21.79 169.09,-17.3 158.79,-14.83 159.5,-21.79"/>
</a>
</g>
</g>
</g>
</svg>
