<?xml version="1.0" encoding="UTF-8" standalone="no"?>
<!DOCTYPE svg PUBLIC "-//W3C//DTD SVG 1.1//EN"
 "http://www.w3.org/Graphics/SVG/1.1/DTD/svg11.dtd">
<!-- Generated by graphviz version 9.0.0 (20230911.1827)
 -->
<!-- Title: edu.wpi.first.wpilibj.TimesliceRobot Pages: 1 -->
<svg width="159pt" height="349pt"
 viewBox="0.00 0.00 159.00 348.50" xmlns="http://www.w3.org/2000/svg" xmlns:xlink="http://www.w3.org/1999/xlink">
<g id="graph0" class="graph" transform="scale(1 1) rotate(0) translate(4 344.5)">
<title>edu.wpi.first.wpilibj.TimesliceRobot</title>
<!-- Node1 -->
<g id="Node000001" class="node">
<title>Node1</title>
<g id="a_Node000001"><a xlink:title=" ">
<polygon fill="#999999" stroke="#666666" points="147.62,-97 3.38,-97 3.38,-66.5 147.62,-66.5 147.62,-97"/>
<text text-anchor="start" x="11.38" y="-83.5" font-family="Helvetica,sans-Serif" font-size="10.00">edu.wpi.first.wpilibj.Timeslice</text>
<text text-anchor="middle" x="75.5" y="-72.25" font-family="Helvetica,sans-Serif" font-size="10.00">Robot</text>
</a>
</g>
</g>
<!-- Node6 -->
<g id="Node000006" class="node">
<title>Node6</title>
<g id="a_Node000006"><a xlink:title=" ">
<polygon fill="white" stroke="#bfbfbf" points="147.62,-30.5 3.38,-30.5 3.38,0 147.62,0 147.62,-30.5"/>
<text text-anchor="start" x="11.38" y="-17" font-family="Helvetica,sans-Serif" font-size="10.00">edu.wpi.first.wpilibj.Timeslice</text>
<text text-anchor="middle" x="75.5" y="-5.75" font-family="Helvetica,sans-Serif" font-size="10.00">RobotTest.MockRobot</text>
</a>
</g>
</g>
<!-- Node1&#45;&gt;Node6 -->
<g id="edge5_Node000001_Node000006" class="edge">
<title>Node1&#45;&gt;Node6</title>
<g id="a_edge5_Node000001_Node000006"><a xlink:title=" ">
<path fill="none" stroke="#63b8ff" d="M75.5,-54.81C75.5,-46.64 75.5,-37.91 75.5,-30.83"/>
<polygon fill="#63b8ff" stroke="#63b8ff" points="72,-54.6 75.5,-64.6 79,-54.6 72,-54.6"/>
</a>
</g>
</g>
<!-- Node2 -->
<g id="Node000002" class="node">
<title>Node2</title>
<g id="a_Node000002"><a xlink:href="classedu_1_1wpi_1_1first_1_1wpilibj_1_1_timed_robot.html" target="_top" xlink:title=" ">
<polygon fill="white" stroke="#666666" points="140.12,-163.5 10.88,-163.5 10.88,-133 140.12,-133 140.12,-163.5"/>
<text text-anchor="start" x="18.88" y="-150" font-family="Helvetica,sans-Serif" font-size="10.00">edu.wpi.first.wpilibj.Timed</text>
<text text-anchor="middle" x="75.5" y="-138.75" font-family="Helvetica,sans-Serif" font-size="10.00">Robot</text>
</a>
</g>
</g>
<!-- Node2&#45;&gt;Node1 -->
<g id="edge1_Node000001_Node000002" class="edge">
<title>Node2&#45;&gt;Node1</title>
<g id="a_edge1_Node000001_Node000002"><a xlink:title=" ">
<path fill="none" stroke="#63b8ff" d="M75.5,-121.31C75.5,-113.14 75.5,-104.41 75.5,-97.33"/>
<polygon fill="#63b8ff" stroke="#63b8ff" points="72,-121.1 75.5,-131.1 79,-121.1 72,-121.1"/>
</a>
</g>
</g>
<!-- Node3 -->
<g id="Node000003" class="node">
<title>Node3</title>
<g id="a_Node000003"><a xlink:href="classedu_1_1wpi_1_1first_1_1wpilibj_1_1_iterative_robot_base.html" target="_top" xlink:title=" ">
<polygon fill="white" stroke="#666666" points="144.25,-230 6.75,-230 6.75,-199.5 144.25,-199.5 144.25,-230"/>
<text text-anchor="start" x="14.75" y="-216.5" font-family="Helvetica,sans-Serif" font-size="10.00">edu.wpi.first.wpilibj.Iterative</text>
<text text-anchor="middle" x="75.5" y="-205.25" font-family="Helvetica,sans-Serif" font-size="10.00">RobotBase</text>
</a>
</g>
</g>
<!-- Node3&#45;&gt;Node2 -->
<g id="edge2_Node000002_Node000003" class="edge">
<title>Node3&#45;&gt;Node2</title>
<g id="a_edge2_Node000002_Node000003"><a xlink:title=" ">
<path fill="none" stroke="#63b8ff" d="M75.5,-187.81C75.5,-179.64 75.5,-170.91 75.5,-163.83"/>
<polygon fill="#63b8ff" stroke="#63b8ff" points="72,-187.6 75.5,-197.6 79,-187.6 72,-187.6"/>
</a>
</g>
</g>
<!-- Node4 -->
<g id="Node000004" class="node">
<title>Node4</title>
<g id="a_Node000004"><a xlink:href="classedu_1_1wpi_1_1first_1_1wpilibj_1_1_robot_base.html" target="_top" xlink:title=" ">
<polygon fill="white" stroke="#666666" points="151,-285.25 0,-285.25 0,-266 151,-266 151,-285.25"/>
<text text-anchor="middle" x="75.5" y="-271.75" font-family="Helvetica,sans-Serif" font-size="10.00">edu.wpi.first.wpilibj.RobotBase</text>
</a>
</g>
</g>
<!-- Node4&#45;&gt;Node3 -->
<g id="edge3_Node000003_Node000004" class="edge">
<title>Node4&#45;&gt;Node3</title>
<g id="a_edge3_Node000003_Node000004"><a xlink:title=" ">
<path fill="none" stroke="#63b8ff" d="M75.5,-254.42C75.5,-246.49 75.5,-237.56 75.5,-230.28"/>
<polygon fill="#63b8ff" stroke="#63b8ff" points="72,-254.17 75.5,-264.17 79,-254.17 72,-254.17"/>
</a>
</g>
</g>
<!-- Node5 -->
<g id="Node000005" class="node">
<title>Node5</title>
<g id="a_Node000005"><a xlink:title=" ">
<polygon fill="white" stroke="#bfbfbf" points="115.38,-340.5 35.62,-340.5 35.62,-321.25 115.38,-321.25 115.38,-340.5"/>
<text text-anchor="middle" x="75.5" y="-327" font-family="Helvetica,sans-Serif" font-size="10.00">AutoCloseable</text>
</a>
</g>
</g>
<!-- Node5&#45;&gt;Node4 -->
<g id="edge4_Node000004_Node000005" class="edge">
<title>Node5&#45;&gt;Node4</title>
<g id="a_edge4_Node000004_Node000005"><a xlink:title=" ">
<path fill="none" stroke="#63b8ff" d="M75.5,-309.63C75.5,-301.34 75.5,-292.17 75.5,-285.61"/>
<polygon fill="#63b8ff" stroke="#63b8ff" points="72,-309.57 75.5,-319.57 79,-309.57 72,-309.57"/>
</a>
</g>
</g>
</g>
</svg>
