<?xml version="1.0" encoding="UTF-8" standalone="no"?>
<!DOCTYPE svg PUBLIC "-//W3C//DTD SVG 1.1//EN"
 "http://www.w3.org/Graphics/SVG/1.1/DTD/svg11.dtd">
<!-- Generated by graphviz version 9.0.0 (20230911.1827)
 -->
<!-- Title: edu.wpi.first.wpilibj.motorcontrol.PWMVictorSPX.PWMVictorSPX Pages: 1 -->
<svg width="543pt" height="235pt"
 viewBox="0.00 0.00 542.75 234.50" xmlns="http://www.w3.org/2000/svg" xmlns:xlink="http://www.w3.org/1999/xlink">
<g id="graph0" class="graph" transform="scale(1 1) rotate(0) translate(4 230.5)">
<title>edu.wpi.first.wpilibj.motorcontrol.PWMVictorSPX.PWMVictorSPX</title>
<!-- Node1 -->
<g id="Node000001" class="node">
<title>Node1</title>
<g id="a_Node000001"><a xlink:title=" ">
<polygon fill="#999999" stroke="#666666" points="160,-128.5 0,-128.5 0,-98 160,-98 160,-128.5"/>
<text text-anchor="start" x="8" y="-115" font-family="Helvetica,sans-Serif" font-size="10.00">edu.wpi.first.wpilibj.motorcontrol.</text>
<text text-anchor="middle" x="80" y="-103.75" font-family="Helvetica,sans-Serif" font-size="10.00">PWMVictorSPX.PWMVictorSPX</text>
</a>
</g>
</g>
<!-- Node2 -->
<g id="Node000002" class="node">
<title>Node2</title>
<g id="a_Node000002"><a xlink:href="classedu_1_1wpi_1_1first_1_1wpilibj_1_1motorcontrol_1_1_p_w_m_motor_controller.html#ad3239e59cd2d8d8c95ff34126311bc76" target="_top" xlink:title=" ">
<polygon fill="white" stroke="#666666" points="355.25,-226.5 196,-226.5 196,-196 355.25,-196 355.25,-226.5"/>
<text text-anchor="start" x="204" y="-213" font-family="Helvetica,sans-Serif" font-size="10.00">edu.wpi.first.wpilibj.motorcontrol.</text>
<text text-anchor="middle" x="275.62" y="-201.75" font-family="Helvetica,sans-Serif" font-size="10.00">PWMMotorController.getChannel</text>
</a>
</g>
</g>
<!-- Node1&#45;&gt;Node2 -->
<g id="edge1_Node000001_Node000002" class="edge">
<title>Node1&#45;&gt;Node2</title>
<g id="a_edge1_Node000001_Node000002"><a xlink:title=" ">
<path fill="none" stroke="#63b8ff" d="M102.09,-128.99C124.45,-145.12 161.29,-170.05 196,-186.25 199.97,-188.11 204.12,-189.87 208.35,-191.55"/>
<polygon fill="#63b8ff" stroke="#63b8ff" points="206.94,-194.76 217.53,-195 209.4,-188.21 206.94,-194.76"/>
</a>
</g>
</g>
<!-- Node4 -->
<g id="Node000004" class="node">
<title>Node4</title>
<g id="a_Node000004"><a xlink:href="classedu_1_1wpi_1_1first_1_1wpilibj_1_1_p_w_m.html#a9f540c857b04d827341ef78e5b1124fe" target="_top" xlink:title=" ">
<polygon fill="white" stroke="#666666" points="347.38,-177.5 203.88,-177.5 203.88,-147 347.38,-147 347.38,-177.5"/>
<text text-anchor="start" x="211.88" y="-164" font-family="Helvetica,sans-Serif" font-size="10.00">edu.wpi.first.wpilibj.PWM.set</text>
<text text-anchor="middle" x="275.62" y="-152.75" font-family="Helvetica,sans-Serif" font-size="10.00">BoundsMicroseconds</text>
</a>
</g>
</g>
<!-- Node1&#45;&gt;Node4 -->
<g id="edge3_Node000001_Node000004" class="edge">
<title>Node1&#45;&gt;Node4</title>
<g id="a_edge3_Node000001_Node000004"><a xlink:title=" ">
<path fill="none" stroke="#63b8ff" d="M143.06,-128.96C161.65,-133.66 182.2,-138.86 201.44,-143.73"/>
<polygon fill="#63b8ff" stroke="#63b8ff" points="200.56,-147.12 211.11,-146.18 202.28,-140.33 200.56,-147.12"/>
</a>
</g>
</g>
<!-- Node5 -->
<g id="Node000005" class="node">
<title>Node5</title>
<g id="a_Node000005"><a xlink:href="classedu_1_1wpi_1_1first_1_1wpilibj_1_1_p_w_m.html#ab167b1170302bc64d8b4d53da6814931" target="_top" xlink:title=" ">
<polygon fill="white" stroke="#666666" points="347.38,-128.5 203.88,-128.5 203.88,-98 347.38,-98 347.38,-128.5"/>
<text text-anchor="start" x="211.88" y="-115" font-family="Helvetica,sans-Serif" font-size="10.00">edu.wpi.first.wpilibj.PWM.set</text>
<text text-anchor="middle" x="275.62" y="-103.75" font-family="Helvetica,sans-Serif" font-size="10.00">PeriodMultiplier</text>
</a>
</g>
</g>
<!-- Node1&#45;&gt;Node5 -->
<g id="edge4_Node000001_Node000005" class="edge">
<title>Node1&#45;&gt;Node5</title>
<g id="a_edge4_Node000001_Node000005"><a xlink:title=" ">
<path fill="none" stroke="#63b8ff" d="M160.31,-113.25C170.82,-113.25 181.61,-113.25 192.17,-113.25"/>
<polygon fill="#63b8ff" stroke="#63b8ff" points="192,-116.75 202,-113.25 192,-109.75 192,-116.75"/>
</a>
</g>
</g>
<!-- Node6 -->
<g id="Node000006" class="node">
<title>Node6</title>
<g id="a_Node000006"><a xlink:href="classedu_1_1wpi_1_1first_1_1wpilibj_1_1_p_w_m.html#ae75066ad7c5a0f0ad8c71211026479dc" target="_top" xlink:title=" ">
<polygon fill="white" stroke="#666666" points="347.38,-79.5 203.88,-79.5 203.88,-49 347.38,-49 347.38,-79.5"/>
<text text-anchor="start" x="211.88" y="-66" font-family="Helvetica,sans-Serif" font-size="10.00">edu.wpi.first.wpilibj.PWM.set</text>
<text text-anchor="middle" x="275.62" y="-54.75" font-family="Helvetica,sans-Serif" font-size="10.00">Speed</text>
</a>
</g>
</g>
<!-- Node1&#45;&gt;Node6 -->
<g id="edge5_Node000001_Node000006" class="edge">
<title>Node1&#45;&gt;Node6</title>
<g id="a_edge5_Node000001_Node000006"><a xlink:title=" ">
<path fill="none" stroke="#63b8ff" d="M143.06,-97.54C161.65,-92.84 182.2,-87.64 201.44,-82.77"/>
<polygon fill="#63b8ff" stroke="#63b8ff" points="202.28,-86.17 211.11,-80.32 200.56,-79.38 202.28,-86.17"/>
</a>
</g>
</g>
<!-- Node7 -->
<g id="Node000007" class="node">
<title>Node7</title>
<g id="a_Node000007"><a xlink:href="classedu_1_1wpi_1_1first_1_1wpilibj_1_1_p_w_m.html#aed7b74e2db9a607f466c45dc605751c5" target="_top" xlink:title=" ">
<polygon fill="white" stroke="#666666" points="347.38,-30.5 203.88,-30.5 203.88,0 347.38,0 347.38,-30.5"/>
<text text-anchor="start" x="211.88" y="-17" font-family="Helvetica,sans-Serif" font-size="10.00">edu.wpi.first.wpilibj.PWM.set</text>
<text text-anchor="middle" x="275.62" y="-5.75" font-family="Helvetica,sans-Serif" font-size="10.00">ZeroLatch</text>
</a>
</g>
</g>
<!-- Node1&#45;&gt;Node7 -->
<g id="edge6_Node000001_Node000007" class="edge">
<title>Node1&#45;&gt;Node7</title>
<g id="a_edge6_Node000001_Node000007"><a xlink:title=" ">
<path fill="none" stroke="#63b8ff" d="M102.09,-97.51C124.45,-81.38 161.29,-56.45 196,-40.25 199.97,-38.39 204.12,-36.63 208.35,-34.95"/>
<polygon fill="#63b8ff" stroke="#63b8ff" points="209.4,-38.29 217.53,-31.5 206.94,-31.74 209.4,-38.29"/>
</a>
</g>
</g>
<!-- Node3 -->
<g id="Node000003" class="node">
<title>Node3</title>
<g id="a_Node000003"><a xlink:href="classedu_1_1wpi_1_1first_1_1wpilibj_1_1_p_w_m.html#ad77506085116c8e7ec1b168438a9f573" target="_top" xlink:title=" ">
<polygon fill="white" stroke="#666666" points="534.75,-226.5 391.25,-226.5 391.25,-196 534.75,-196 534.75,-226.5"/>
<text text-anchor="start" x="399.25" y="-213" font-family="Helvetica,sans-Serif" font-size="10.00">edu.wpi.first.wpilibj.PWM.get</text>
<text text-anchor="middle" x="463" y="-201.75" font-family="Helvetica,sans-Serif" font-size="10.00">Channel</text>
</a>
</g>
</g>
<!-- Node2&#45;&gt;Node3 -->
<g id="edge2_Node000002_Node000003" class="edge">
<title>Node2&#45;&gt;Node3</title>
<g id="a_edge2_Node000002_Node000003"><a xlink:title=" ">
<path fill="none" stroke="#63b8ff" d="M355.51,-211.25C363.39,-211.25 371.4,-211.25 379.32,-211.25"/>
<polygon fill="#63b8ff" stroke="#63b8ff" points="379.31,-214.75 389.31,-211.25 379.31,-207.75 379.31,-214.75"/>
</a>
</g>
</g>
</g>
</svg>
