<?xml version="1.0" encoding="UTF-8" standalone="no"?>
<!DOCTYPE svg PUBLIC "-//W3C//DTD SVG 1.1//EN"
 "http://www.w3.org/Graphics/SVG/1.1/DTD/svg11.dtd">
<!-- Generated by graphviz version 9.0.0 (20230911.1827)
 -->
<!-- Title: edu.wpi.first.wpilibj.motorcontrol.PWMMotorController.getChannel Pages: 1 -->
<!--zoomable 676 -->

<svg id="main" version="1.1" xmlns="http://www.w3.org/2000/svg" xmlns:xlink="http://www.w3.org/1999/xlink" xml:space="preserve" onload="init(evt)">
<style type="text/css"><![CDATA[
.node, .edge {opacity: 0.7;}
.node.selected, .edge.selected {opacity: 1;}
.edge:hover path { stroke: red; }
.edge:hover polygon { stroke: red; fill: red; }
]]></style>

<defs>
  <circle id="rim" cx="0" cy="0" r="7"/>
  <circle id="rim2" cx="0" cy="0" r="3.5"/>
  <g id="zoomPlus">
    <use xlink:href="#rim" fill="#404040"><set attributeName="fill" to="#808080" begin="zoomplus.mouseover" end="zoomplus.mouseout"/></use>
    <path d="M-4,0h8M0,-4v8" fill="none" stroke="white" stroke-width="1.5" pointer-events="none"/>
  </g>
  <g id="zoomMin">
    <use xlink:href="#rim" fill="#404040"><set attributeName="fill" to="#808080" begin="zoomminus.mouseover" end="zoomminus.mouseout"/></use>
    <path d="M-4,0h8" fill="none" stroke="white" stroke-width="1.5" pointer-events="none"/>
  </g>
  <g id="arrowUp" transform="translate(30 24)">
    <use xlink:href="#rim"/>
    <path pointer-events="none" fill="none" stroke="white" stroke-width="1.5" d="M0,-3.0v7 M-2.5,-0.5L0,-3.0L2.5,-0.5"/>
  </g>
  <g id="arrowRight" transform="rotate(90) translate(36 -43)">
    <use xlink:href="#rim"/>
    <path pointer-events="none" fill="none" stroke="white" stroke-width="1.5" d="M0,-3.0v7 M-2.5,-0.5L0,-3.0L2.5,-0.5"/>
  </g>
  <g id="arrowDown" transform="rotate(180) translate(-30 -48)">
    <use xlink:href="#rim"/>
    <path pointer-events="none" fill="none" stroke="white" stroke-width="1.5" d="M0,-3.0v7 M-2.5,-0.5L0,-3.0L2.5,-0.5"/>
  </g>
  <g id="arrowLeft" transform="rotate(270) translate(-36 17)">
    <use xlink:href="#rim"/>
    <path pointer-events="none" fill="none" stroke="white" stroke-width="1.5" d="M0,-3.0v7 M-2.5,-0.5L0,-3.0L2.5,-0.5"/>
  </g>
  <g id="resetDef">
    <use xlink:href="#rim2" fill="#404040"><set attributeName="fill" to="#808080" begin="reset.mouseover" end="reset.mouseout"/></use>
  </g>
</defs>
<script type="application/ecmascript">
var viewWidth = 363;
var viewHeight = 676;
var sectionId = 'dynsection-7';
</script>
<script type="application/ecmascript" xlink:href="svg.min.js"/>
<svg id="graph" class="graph">
<g id="viewport">
<title>edu.wpi.first.wpilibj.motorcontrol.PWMMotorController.getChannel</title>
<!-- Node1 -->
<g id="Node000001" class="node">
<title>Node1</title>
<g id="a_Node000001"><a xlink:title=" ">
<polygon fill="#999999" stroke="#666666" points="355.25,-348.5 196,-348.5 196,-318 355.25,-318 355.25,-348.5"/>
<text text-anchor="start" x="204" y="-335" font-family="Helvetica,sans-Serif" font-size="10.00">edu.wpi.first.wpilibj.motorcontrol.</text>
<text text-anchor="middle" x="275.62" y="-323.75" font-family="Helvetica,sans-Serif" font-size="10.00">PWMMotorController.getChannel</text>
</a>
</g>
</g>
<!-- Node2 -->
<g id="Node000002" class="node">
<title>Node2</title>
<g id="a_Node000002"><a xlink:href="classedu_1_1wpi_1_1first_1_1wpilibj_1_1motorcontrol_1_1_d_m_c60.html#a9a1de23861320905e0a0fe3c8e6fe47a" target="_top" xlink:title=" ">
<polygon fill="white" stroke="#666666" points="159.62,-667.5 0.38,-667.5 0.38,-637 159.62,-637 159.62,-667.5"/>
<text text-anchor="start" x="8.38" y="-654" font-family="Helvetica,sans-Serif" font-size="10.00">edu.wpi.first.wpilibj.motorcontrol.</text>
<text text-anchor="middle" x="80" y="-642.75" font-family="Helvetica,sans-Serif" font-size="10.00">DMC60.DMC60</text>
</a>
</g>
</g>
<!-- Node1&#45;&gt;Node2 -->
<g id="edge1_Node000001_Node000002" class="edge">
<title>Node1&#45;&gt;Node2</title>
<g id="a_edge1_Node000001_Node000002"><a xlink:title=" ">
<path fill="none" stroke="#63b8ff" d="M271.83,-360.29C264.43,-417.81 239.15,-553.1 160,-627.25 156.12,-630.89 151.7,-634 147,-636.65"/>
<polygon fill="#63b8ff" stroke="#63b8ff" points="275.29,-360.78 273,-350.44 268.34,-359.96 275.29,-360.78"/>
</a>
</g>
</g>
<!-- Node3 -->
<g id="Node000003" class="node">
<title>Node3</title>
<g id="a_Node000003"><a xlink:href="classedu_1_1wpi_1_1first_1_1wpilibj_1_1motorcontrol_1_1_jaguar.html#a6f0588860cf77ad3721b9a016427c392" target="_top" xlink:title=" ">
<polygon fill="white" stroke="#666666" points="159.62,-618.5 0.38,-618.5 0.38,-588 159.62,-588 159.62,-618.5"/>
<text text-anchor="start" x="8.38" y="-605" font-family="Helvetica,sans-Serif" font-size="10.00">edu.wpi.first.wpilibj.motorcontrol.</text>
<text text-anchor="middle" x="80" y="-593.75" font-family="Helvetica,sans-Serif" font-size="10.00">Jaguar.Jaguar</text>
</a>
</g>
</g>
<!-- Node1&#45;&gt;Node3 -->
<g id="edge2_Node000001_Node000003" class="edge">
<title>Node1&#45;&gt;Node3</title>
<g id="a_edge2_Node000001_Node000003"><a xlink:title=" ">
<path fill="none" stroke="#63b8ff" d="M269.53,-359.9C258.57,-410.02 228.01,-518.62 160,-578.25 155.89,-581.85 151.26,-584.94 146.35,-587.58"/>
<polygon fill="#63b8ff" stroke="#63b8ff" points="272.93,-360.74 271.55,-350.24 266.08,-359.31 272.93,-360.74"/>
</a>
</g>
</g>
<!-- Node4 -->
<g id="Node000004" class="node">
<title>Node4</title>
<g id="a_Node000004"><a xlink:href="classedu_1_1wpi_1_1first_1_1wpilibj_1_1simulation_1_1_p_w_m_sim.html#aaa490f63bb57a27eee26cc4ba68ff0f1" target="_top" xlink:title=" ">
<polygon fill="white" stroke="#666666" points="154.75,-569.5 5.25,-569.5 5.25,-539 154.75,-539 154.75,-569.5"/>
<text text-anchor="start" x="13.25" y="-556" font-family="Helvetica,sans-Serif" font-size="10.00">edu.wpi.first.wpilibj.simulation.</text>
<text text-anchor="middle" x="80" y="-544.75" font-family="Helvetica,sans-Serif" font-size="10.00">PWMSim.PWMSim</text>
</a>
</g>
</g>
<!-- Node1&#45;&gt;Node4 -->
<g id="edge3_Node000001_Node000004" class="edge">
<title>Node1&#45;&gt;Node4</title>
<g id="a_edge3_Node000001_Node000004"><a xlink:title=" ">
<path fill="none" stroke="#63b8ff" d="M266.24,-359.55C251.5,-401.56 217.01,-483.71 160,-529.25 155.5,-532.84 150.48,-535.92 145.21,-538.56"/>
<polygon fill="#63b8ff" stroke="#63b8ff" points="269.49,-360.85 269.38,-350.26 262.86,-358.61 269.49,-360.85"/>
</a>
</g>
</g>
<!-- Node5 -->
<g id="Node000005" class="node">
<title>Node5</title>
<g id="a_Node000005"><a xlink:href="classedu_1_1wpi_1_1first_1_1wpilibj_1_1motorcontrol_1_1_p_w_m_spark_flex.html#a20063b0b6d262f18cf29ae24284007a4" target="_top" xlink:title=" ">
<polygon fill="white" stroke="#666666" points="159.62,-520.5 0.38,-520.5 0.38,-490 159.62,-490 159.62,-520.5"/>
<text text-anchor="start" x="8.38" y="-507" font-family="Helvetica,sans-Serif" font-size="10.00">edu.wpi.first.wpilibj.motorcontrol.</text>
<text text-anchor="middle" x="80" y="-495.75" font-family="Helvetica,sans-Serif" font-size="10.00">PWMSparkFlex.PWMSparkFlex</text>
</a>
</g>
</g>
<!-- Node1&#45;&gt;Node5 -->
<g id="edge4_Node000001_Node000005" class="edge">
<title>Node1&#45;&gt;Node5</title>
<g id="a_edge4_Node000001_Node000005"><a xlink:title=" ">
<path fill="none" stroke="#63b8ff" d="M261.44,-358.35C243.01,-391.06 206.52,-447.91 160,-480.25 154.8,-483.86 149.06,-486.97 143.11,-489.65"/>
<polygon fill="#63b8ff" stroke="#63b8ff" points="264.3,-360.41 266.05,-349.96 258.17,-357.04 264.3,-360.41"/>
</a>
</g>
</g>
<!-- Node6 -->
<g id="Node000006" class="node">
<title>Node6</title>
<g id="a_Node000006"><a xlink:href="classedu_1_1wpi_1_1first_1_1wpilibj_1_1motorcontrol_1_1_p_w_m_spark_max.html#ac0dea231aee0e670d804c346b990dd78" target="_top" xlink:title=" ">
<polygon fill="white" stroke="#666666" points="159.62,-471.5 0.38,-471.5 0.38,-441 159.62,-441 159.62,-471.5"/>
<text text-anchor="start" x="8.38" y="-458" font-family="Helvetica,sans-Serif" font-size="10.00">edu.wpi.first.wpilibj.motorcontrol.</text>
<text text-anchor="middle" x="80" y="-446.75" font-family="Helvetica,sans-Serif" font-size="10.00">PWMSparkMax.PWMSparkMax</text>
</a>
</g>
</g>
<!-- Node1&#45;&gt;Node6 -->
<g id="edge5_Node000001_Node000006" class="edge">
<title>Node1&#45;&gt;Node6</title>
<g id="a_edge5_Node000001_Node000006"><a xlink:title=" ">
<path fill="none" stroke="#63b8ff" d="M252.64,-356.87C230.97,-378.9 195.97,-411.28 160,-431.25 153.71,-434.74 146.87,-437.82 139.92,-440.52"/>
<polygon fill="#63b8ff" stroke="#63b8ff" points="255.05,-359.41 259.48,-349.79 250.02,-354.55 255.05,-359.41"/>
</a>
</g>
</g>
<!-- Node7 -->
<g id="Node000007" class="node">
<title>Node7</title>
<g id="a_Node000007"><a xlink:href="classedu_1_1wpi_1_1first_1_1wpilibj_1_1motorcontrol_1_1_p_w_m_talon_f_x.html#ae924f656191b05953864907f8241d2fa" target="_top" xlink:title=" ">
<polygon fill="white" stroke="#666666" points="159.62,-422.5 0.38,-422.5 0.38,-392 159.62,-392 159.62,-422.5"/>
<text text-anchor="start" x="8.38" y="-409" font-family="Helvetica,sans-Serif" font-size="10.00">edu.wpi.first.wpilibj.motorcontrol.</text>
<text text-anchor="middle" x="80" y="-397.75" font-family="Helvetica,sans-Serif" font-size="10.00">PWMTalonFX.PWMTalonFX</text>
</a>
</g>
</g>
<!-- Node1&#45;&gt;Node7 -->
<g id="edge6_Node000001_Node000007" class="edge">
<title>Node1&#45;&gt;Node7</title>
<g id="a_edge6_Node000001_Node000007"><a xlink:title=" ">
<path fill="none" stroke="#63b8ff" d="M230.12,-353.47C209.05,-362.73 183.43,-373.56 160,-382.25 151.37,-385.45 142.11,-388.62 133.09,-391.56"/>
<polygon fill="#63b8ff" stroke="#63b8ff" points="231.26,-356.8 238.98,-349.54 228.42,-350.4 231.26,-356.8"/>
</a>
</g>
</g>
<!-- Node8 -->
<g id="Node000008" class="node">
<title>Node8</title>
<g id="a_Node000008"><a xlink:href="classedu_1_1wpi_1_1first_1_1wpilibj_1_1motorcontrol_1_1_p_w_m_talon_s_r_x.html#ad3980f8d0fb4456e4a7177d631fbabdb" target="_top" xlink:title=" ">
<polygon fill="white" stroke="#666666" points="159.62,-373.5 0.38,-373.5 0.38,-343 159.62,-343 159.62,-373.5"/>
<text text-anchor="start" x="8.38" y="-360" font-family="Helvetica,sans-Serif" font-size="10.00">edu.wpi.first.wpilibj.motorcontrol.</text>
<text text-anchor="middle" x="80" y="-348.75" font-family="Helvetica,sans-Serif" font-size="10.00">PWMTalonSRX.PWMTalonSRX</text>
</a>
</g>
</g>
<!-- Node1&#45;&gt;Node8 -->
<g id="edge7_Node000001_Node000008" class="edge">
<title>Node1&#45;&gt;Node8</title>
<g id="a_edge7_Node000001_Node000008"><a xlink:title=" ">
<path fill="none" stroke="#63b8ff" d="M184.25,-344.92C176.18,-345.96 168.06,-347.01 160.1,-348.04"/>
<polygon fill="#63b8ff" stroke="#63b8ff" points="184.62,-348.4 194.09,-343.65 183.72,-341.46 184.62,-348.4"/>
</a>
</g>
</g>
<!-- Node9 -->
<g id="Node000009" class="node">
<title>Node9</title>
<g id="a_Node000009"><a xlink:href="classedu_1_1wpi_1_1first_1_1wpilibj_1_1motorcontrol_1_1_p_w_m_venom.html#a0121603978921ac1581f6a2b04c69d87" target="_top" xlink:title=" ">
<polygon fill="white" stroke="#666666" points="159.62,-324.5 0.38,-324.5 0.38,-294 159.62,-294 159.62,-324.5"/>
<text text-anchor="start" x="8.38" y="-311" font-family="Helvetica,sans-Serif" font-size="10.00">edu.wpi.first.wpilibj.motorcontrol.</text>
<text text-anchor="middle" x="80" y="-299.75" font-family="Helvetica,sans-Serif" font-size="10.00">PWMVenom.PWMVenom</text>
</a>
</g>
</g>
<!-- Node1&#45;&gt;Node9 -->
<g id="edge8_Node000001_Node000009" class="edge">
<title>Node1&#45;&gt;Node9</title>
<g id="a_edge8_Node000001_Node000009"><a xlink:title=" ">
<path fill="none" stroke="#63b8ff" d="M184.25,-322.05C176.18,-321.05 168.06,-320.04 160.1,-319.05"/>
<polygon fill="#63b8ff" stroke="#63b8ff" points="183.73,-325.51 194.09,-323.27 184.6,-318.56 183.73,-325.51"/>
</a>
</g>
</g>
<!-- Node10 -->
<g id="Node000010" class="node">
<title>Node10</title>
<g id="a_Node000010"><a xlink:href="classedu_1_1wpi_1_1first_1_1wpilibj_1_1motorcontrol_1_1_p_w_m_victor_s_p_x.html#a776cb8880ae04d3e3c5f2b83b46ba780" target="_top" xlink:title=" ">
<polygon fill="white" stroke="#666666" points="160,-275.5 0,-275.5 0,-245 160,-245 160,-275.5"/>
<text text-anchor="start" x="8" y="-262" font-family="Helvetica,sans-Serif" font-size="10.00">edu.wpi.first.wpilibj.motorcontrol.</text>
<text text-anchor="middle" x="80" y="-250.75" font-family="Helvetica,sans-Serif" font-size="10.00">PWMVictorSPX.PWMVictorSPX</text>
</a>
</g>
</g>
<!-- Node1&#45;&gt;Node10 -->
<g id="edge9_Node000001_Node000010" class="edge">
<title>Node1&#45;&gt;Node10</title>
<g id="a_edge9_Node000001_Node000010"><a xlink:title=" ">
<path fill="none" stroke="#63b8ff" d="M229.09,-313.07C208.21,-304.11 183.03,-293.7 160,-285.25 151.36,-282.08 142.1,-278.93 133.07,-275.99"/>
<polygon fill="#63b8ff" stroke="#63b8ff" points="227.62,-316.25 238.19,-317.01 230.4,-309.83 227.62,-316.25"/>
</a>
</g>
</g>
<!-- Node11 -->
<g id="Node000011" class="node">
<title>Node11</title>
<g id="a_Node000011"><a xlink:href="classedu_1_1wpi_1_1first_1_1wpilibj_1_1motorcontrol_1_1_s_d540.html#a4941de5e2a0cba493ea3af12a7eae00b" target="_top" xlink:title=" ">
<polygon fill="white" stroke="#666666" points="159.62,-226.5 0.38,-226.5 0.38,-196 159.62,-196 159.62,-226.5"/>
<text text-anchor="start" x="8.38" y="-213" font-family="Helvetica,sans-Serif" font-size="10.00">edu.wpi.first.wpilibj.motorcontrol.</text>
<text text-anchor="middle" x="80" y="-201.75" font-family="Helvetica,sans-Serif" font-size="10.00">SD540.SD540</text>
</a>
</g>
</g>
<!-- Node1&#45;&gt;Node11 -->
<g id="edge10_Node000001_Node000011" class="edge">
<title>Node1&#45;&gt;Node11</title>
<g id="a_edge10_Node000001_Node000011"><a xlink:title=" ">
<path fill="none" stroke="#63b8ff" d="M252.22,-309.52C230.49,-287.73 195.66,-255.94 160,-236.25 153.58,-232.7 146.58,-229.58 139.49,-226.85"/>
<polygon fill="#63b8ff" stroke="#63b8ff" points="249.6,-311.84 259.1,-316.53 254.6,-306.94 249.6,-311.84"/>
</a>
</g>
</g>
<!-- Node12 -->
<g id="Node000012" class="node">
<title>Node12</title>
<g id="a_Node000012"><a xlink:href="classedu_1_1wpi_1_1first_1_1wpilibj_1_1motorcontrol_1_1_spark.html#aab46d8b2428e12dfe4cd4b729d0bb7ac" target="_top" xlink:title=" ">
<polygon fill="white" stroke="#666666" points="159.62,-177.5 0.38,-177.5 0.38,-147 159.62,-147 159.62,-177.5"/>
<text text-anchor="start" x="8.38" y="-164" font-family="Helvetica,sans-Serif" font-size="10.00">edu.wpi.first.wpilibj.motorcontrol.</text>
<text text-anchor="middle" x="80" y="-152.75" font-family="Helvetica,sans-Serif" font-size="10.00">Spark.Spark</text>
</a>
</g>
</g>
<!-- Node1&#45;&gt;Node12 -->
<g id="edge11_Node000001_Node000012" class="edge">
<title>Node1&#45;&gt;Node12</title>
<g id="a_edge11_Node000001_Node000012"><a xlink:title=" ">
<path fill="none" stroke="#63b8ff" d="M261.11,-307.82C242.55,-275.25 206.13,-219.21 160,-187.25 154.8,-183.65 149.05,-180.54 143.1,-177.87"/>
<polygon fill="#63b8ff" stroke="#63b8ff" points="257.85,-309.15 265.77,-316.19 263.97,-305.75 257.85,-309.15"/>
</a>
</g>
</g>
<!-- Node13 -->
<g id="Node000013" class="node">
<title>Node13</title>
<g id="a_Node000013"><a xlink:href="classedu_1_1wpi_1_1first_1_1wpilibj_1_1motorcontrol_1_1_talon.html#ac7bb4c74ea62cf264dba580b6460d08b" target="_top" xlink:title=" ">
<polygon fill="white" stroke="#666666" points="159.62,-128.5 0.38,-128.5 0.38,-98 159.62,-98 159.62,-128.5"/>
<text text-anchor="start" x="8.38" y="-115" font-family="Helvetica,sans-Serif" font-size="10.00">edu.wpi.first.wpilibj.motorcontrol.</text>
<text text-anchor="middle" x="80" y="-103.75" font-family="Helvetica,sans-Serif" font-size="10.00">Talon.Talon</text>
</a>
</g>
</g>
<!-- Node1&#45;&gt;Node13 -->
<g id="edge12_Node000001_Node000013" class="edge">
<title>Node1&#45;&gt;Node13</title>
<g id="a_edge12_Node000001_Node000013"><a xlink:title=" ">
<path fill="none" stroke="#63b8ff" d="M266.2,-307.09C251.41,-265.29 216.84,-183.55 160,-138.25 155.5,-134.66 150.48,-131.59 145.21,-128.95"/>
<polygon fill="#63b8ff" stroke="#63b8ff" points="262.81,-307.99 269.36,-316.32 269.43,-305.73 262.81,-307.99"/>
</a>
</g>
</g>
<!-- Node14 -->
<g id="Node000014" class="node">
<title>Node14</title>
<g id="a_Node000014"><a xlink:href="classedu_1_1wpi_1_1first_1_1wpilibj_1_1motorcontrol_1_1_victor.html#a0d74f33a24b20cd1a2dbfac22ca51bc9" target="_top" xlink:title=" ">
<polygon fill="white" stroke="#666666" points="159.62,-79.5 0.38,-79.5 0.38,-49 159.62,-49 159.62,-79.5"/>
<text text-anchor="start" x="8.38" y="-66" font-family="Helvetica,sans-Serif" font-size="10.00">edu.wpi.first.wpilibj.motorcontrol.</text>
<text text-anchor="middle" x="80" y="-54.75" font-family="Helvetica,sans-Serif" font-size="10.00">Victor.Victor</text>
</a>
</g>
</g>
<!-- Node1&#45;&gt;Node14 -->
<g id="edge13_Node000001_Node000014" class="edge">
<title>Node1&#45;&gt;Node14</title>
<g id="a_edge13_Node000001_Node000014"><a xlink:title=" ">
<path fill="none" stroke="#63b8ff" d="M269.5,-306.71C258.48,-256.79 227.83,-148.63 160,-89.25 155.89,-85.65 151.25,-82.57 146.35,-79.93"/>
<polygon fill="#63b8ff" stroke="#63b8ff" points="266.04,-307.26 271.52,-316.32 272.89,-305.82 266.04,-307.26"/>
</a>
</g>
</g>
<!-- Node15 -->
<g id="Node000015" class="node">
<title>Node15</title>
<g id="a_Node000015"><a xlink:href="classedu_1_1wpi_1_1first_1_1wpilibj_1_1motorcontrol_1_1_victor_s_p.html#a9824d01b4d1eecd1a15539bb1bb0102d" target="_top" xlink:title=" ">
<polygon fill="white" stroke="#666666" points="159.62,-30.5 0.38,-30.5 0.38,0 159.62,0 159.62,-30.5"/>
<text text-anchor="start" x="8.38" y="-17" font-family="Helvetica,sans-Serif" font-size="10.00">edu.wpi.first.wpilibj.motorcontrol.</text>
<text text-anchor="middle" x="80" y="-5.75" font-family="Helvetica,sans-Serif" font-size="10.00">VictorSP.VictorSP</text>
</a>
</g>
</g>
<!-- Node1&#45;&gt;Node15 -->
<g id="edge14_Node000001_Node000015" class="edge">
<title>Node1&#45;&gt;Node15</title>
<g id="a_edge14_Node000001_Node000015"><a xlink:title=" ">
<path fill="none" stroke="#63b8ff" d="M271.8,-306.3C264.35,-248.97 238.96,-114.13 160,-40.25 156.11,-36.61 151.7,-33.51 146.99,-30.85"/>
<polygon fill="#63b8ff" stroke="#63b8ff" points="268.31,-306.6 272.98,-316.11 275.26,-305.76 268.31,-306.6"/>
</a>
</g>
</g>
</g>
</svg>

<g id="navigator" transform="translate(0 0)" fill="#404254">
  <rect fill="#f2f5e9" fill-opacity="0.5" stroke="#606060" stroke-width=".5" x="0" y="0" width="60" height="60"/>
  <use id="zoomplus" xlink:href="#zoomPlus" x="17" y="9" onmousedown="handleZoom(evt,'in')"/>
  <use id="zoomminus" xlink:href="#zoomMin" x="42" y="9" onmousedown="handleZoom(evt,'out')"/>
  <use id="reset" xlink:href="#resetDef" x="30" y="36" onmousedown="handleReset()"/>
   <use id="arrowup" xlink:href="#arrowUp" x="0" y="0" onmousedown="handlePan(0,-1)"/>
  <use id="arrowright" xlink:href="#arrowRight" x="0" y="0" onmousedown="handlePan(1,0)"/>
  <use id="arrowdown" xlink:href="#arrowDown" x="0" y="0" onmousedown="handlePan(0,1)"/>
  <use id="arrowleft" xlink:href="#arrowLeft" x="0" y="0" onmousedown="handlePan(-1,0)"/>
</g>
<svg viewBox="0 0 15 15" width="100%" height="30px" preserveAspectRatio="xMaxYMin meet">
 <g id="arrow_out" transform="scale(0.3 0.3)">
  <a xlink:href="classedu_1_1wpi_1_1first_1_1wpilibj_1_1motorcontrol_1_1_p_w_m_motor_controller_ad3239e59cd2d8d8c95ff34126311bc76_icgraph_org.svg" target="_base">
   <rect id="button" ry="5" rx="5" y="6" x="6" height="38" width="38"
        fill="#f2f5e9" fill-opacity="0.5" stroke="#606060" stroke-width="1.0"/>
   <path id="arrow"
     d="M 11.500037,31.436501 C 11.940474,20.09759 22.043105,11.32322 32.158766,21.979434 L 37.068811,17.246167 C 37.068811,17.246167 37.088388,32 37.088388,32 L 22.160133,31.978069 C 22.160133,31.978069 26.997745,27.140456 26.997745,27.140456 C 18.528582,18.264221 13.291696,25.230495 11.500037,31.436501 z"
     style="fill:#404040;"/>
  </a>
 </g>
</svg>

<style type='text/css'>
<![CDATA[
[data-mouse-over-selected='false'] { opacity: 0.7; }
[data-mouse-over-selected='true']  { opacity: 1.0; }
]]>
</style>
<script type="application/ecmascript"><![CDATA[
document.addEventListener('DOMContentLoaded', (event) => {
  highlightEdges();
  highlightAdjacentNodes();
});
]]></script>
</svg>
