<?xml version="1.0" encoding="UTF-8" standalone="no"?>
<!DOCTYPE svg PUBLIC "-//W3C//DTD SVG 1.1//EN"
 "http://www.w3.org/Graphics/SVG/1.1/DTD/svg11.dtd">
<!-- Generated by graphviz version 9.0.0 (20230911.1827)
 -->
<!-- Title: edu.wpi.first.wpilibj.Joystick.getDirectionRadians Pages: 1 -->
<svg width="706pt" height="108pt"
 viewBox="0.00 0.00 705.75 107.88" xmlns="http://www.w3.org/2000/svg" xmlns:xlink="http://www.w3.org/1999/xlink">
<g id="graph0" class="graph" transform="scale(1 1) rotate(0) translate(4 103.88)">
<title>edu.wpi.first.wpilibj.Joystick.getDirectionRadians</title>
<!-- Node1 -->
<g id="Node000001" class="node">
<title>Node1</title>
<g id="a_Node000001"><a xlink:title=" ">
<polygon fill="#999999" stroke="#666666" points="155.5,-68.5 0,-68.5 0,-38 155.5,-38 155.5,-68.5"/>
<text text-anchor="start" x="8" y="-55" font-family="Helvetica,sans-Serif" font-size="10.00">edu.wpi.first.wpilibj.Joystick.get</text>
<text text-anchor="middle" x="77.75" y="-43.75" font-family="Helvetica,sans-Serif" font-size="10.00">DirectionRadians</text>
</a>
</g>
</g>
<!-- Node2 -->
<g id="Node000002" class="node">
<title>Node2</title>
<g id="a_Node000002"><a xlink:href="classedu_1_1wpi_1_1first_1_1wpilibj_1_1_joystick.html#a69e35d7f6fe88519ace564bc17775c91" target="_top" xlink:title=" ">
<polygon fill="white" stroke="#666666" points="353.75,-99.88 191.5,-99.88 191.5,-80.62 353.75,-80.62 353.75,-99.88"/>
<text text-anchor="middle" x="272.62" y="-86.38" font-family="Helvetica,sans-Serif" font-size="10.00">edu.wpi.first.wpilibj.Joystick.getX</text>
</a>
</g>
</g>
<!-- Node1&#45;&gt;Node2 -->
<g id="edge1_Node000001_Node000002" class="edge">
<title>Node1&#45;&gt;Node2</title>
<g id="a_edge1_Node000001_Node000002"><a xlink:title=" ">
<path fill="none" stroke="#63b8ff" d="M155.81,-68.03C173.03,-71.34 191.11,-74.81 207.73,-77.99"/>
<polygon fill="#63b8ff" stroke="#63b8ff" points="207.01,-81.42 217.49,-79.87 208.33,-74.54 207.01,-81.42"/>
</a>
</g>
</g>
<!-- Node5 -->
<g id="Node000005" class="node">
<title>Node5</title>
<g id="a_Node000005"><a xlink:href="classedu_1_1wpi_1_1first_1_1wpilibj_1_1_generic_h_i_d.html#af0b067c76cbb79f54d7f475e88fcfed2" target="_top" xlink:title=" ">
<polygon fill="white" stroke="#666666" points="697.75,-30.5 561.75,-30.5 561.75,0 697.75,0 697.75,-30.5"/>
<text text-anchor="start" x="569.75" y="-17" font-family="Helvetica,sans-Serif" font-size="10.00">edu.wpi.first.wpilibj.Generic</text>
<text text-anchor="middle" x="629.75" y="-5.75" font-family="Helvetica,sans-Serif" font-size="10.00">HID.pov</text>
</a>
</g>
</g>
<!-- Node1&#45;&gt;Node5 -->
<g id="edge8_Node000001_Node000005" class="edge">
<title>Node1&#45;&gt;Node5</title>
<g id="a_edge8_Node000001_Node000005"><a xlink:title=" ">
<path fill="none" stroke="#63b8ff" d="M155.91,-38.95C167.79,-37.12 179.95,-35.47 191.5,-34.25 316.43,-21.06 462.36,-16.98 550.06,-15.75"/>
<polygon fill="#63b8ff" stroke="#63b8ff" points="550.05,-19.25 560,-15.62 549.96,-12.25 550.05,-19.25"/>
</a>
</g>
</g>
<!-- Node6 -->
<g id="Node000006" class="node">
<title>Node6</title>
<g id="a_Node000006"><a xlink:href="classedu_1_1wpi_1_1first_1_1wpilibj_1_1_joystick.html#a297510a717aaf45989f34cda37d84d07" target="_top" xlink:title=" ">
<polygon fill="white" stroke="#666666" points="353.75,-62.88 191.5,-62.88 191.5,-43.62 353.75,-43.62 353.75,-62.88"/>
<text text-anchor="middle" x="272.62" y="-49.38" font-family="Helvetica,sans-Serif" font-size="10.00">edu.wpi.first.wpilibj.Joystick.getY</text>
</a>
</g>
</g>
<!-- Node1&#45;&gt;Node6 -->
<g id="edge6_Node000001_Node000006" class="edge">
<title>Node1&#45;&gt;Node6</title>
<g id="a_edge6_Node000001_Node000006"><a xlink:title=" ">
<path fill="none" stroke="#63b8ff" d="M155.81,-53.25C163.73,-53.25 171.83,-53.25 179.88,-53.25"/>
<polygon fill="#63b8ff" stroke="#63b8ff" points="179.7,-56.75 189.7,-53.25 179.7,-49.75 179.7,-56.75"/>
</a>
</g>
</g>
<!-- Node3 -->
<g id="Node000003" class="node">
<title>Node3</title>
<g id="a_Node000003"><a xlink:href="classedu_1_1wpi_1_1first_1_1wpilibj_1_1_generic_h_i_d.html#a561e13532e9305a057a3b02cc655833c" target="_top" xlink:title=" ">
<polygon fill="white" stroke="#666666" points="525.75,-85.5 389.75,-85.5 389.75,-55 525.75,-55 525.75,-85.5"/>
<text text-anchor="start" x="397.75" y="-72" font-family="Helvetica,sans-Serif" font-size="10.00">edu.wpi.first.wpilibj.Generic</text>
<text text-anchor="middle" x="457.75" y="-60.75" font-family="Helvetica,sans-Serif" font-size="10.00">HID.getRawAxis</text>
</a>
</g>
</g>
<!-- Node2&#45;&gt;Node3 -->
<g id="edge2_Node000002_Node000003" class="edge">
<title>Node2&#45;&gt;Node3</title>
<g id="a_edge2_Node000002_Node000003"><a xlink:title=" ">
<path fill="none" stroke="#63b8ff" d="M354.21,-81.45C362.08,-80.59 370.05,-79.72 377.9,-78.86"/>
<polygon fill="#63b8ff" stroke="#63b8ff" points="378.22,-82.35 387.78,-77.78 377.46,-75.39 378.22,-82.35"/>
</a>
</g>
</g>
<!-- Node4 -->
<g id="Node000004" class="node">
<title>Node4</title>
<g id="a_Node000004"><a xlink:href="classedu_1_1wpi_1_1first_1_1wpilibj_1_1_driver_station.html#af9606114345715ee1577c2b0c66a070c" target="_top" xlink:title=" ">
<polygon fill="white" stroke="#666666" points="694,-97.5 565.5,-97.5 565.5,-67 694,-67 694,-97.5"/>
<text text-anchor="start" x="573.5" y="-84" font-family="Helvetica,sans-Serif" font-size="10.00">edu.wpi.first.wpilibj.Driver</text>
<text text-anchor="middle" x="629.75" y="-72.75" font-family="Helvetica,sans-Serif" font-size="10.00">Station.getStickAxis</text>
</a>
</g>
</g>
<!-- Node3&#45;&gt;Node4 -->
<g id="edge3_Node000003_Node000004" class="edge">
<title>Node3&#45;&gt;Node4</title>
<g id="a_edge3_Node000003_Node000004"><a xlink:title=" ">
<path fill="none" stroke="#63b8ff" d="M525.94,-74.99C535.11,-75.64 544.57,-76.31 553.87,-76.96"/>
<polygon fill="#63b8ff" stroke="#63b8ff" points="553.37,-80.44 563.59,-77.65 553.86,-73.45 553.37,-80.44"/>
</a>
</g>
</g>
<!-- Node3&#45;&gt;Node5 -->
<g id="edge4_Node000003_Node000005" class="edge">
<title>Node3&#45;&gt;Node5</title>
<g id="a_edge4_Node000003_Node000005"><a xlink:title=" ">
<path fill="none" stroke="#63b8ff" d="M507.01,-54.64C526.4,-48.36 548.94,-41.07 569.33,-34.48"/>
<polygon fill="#63b8ff" stroke="#63b8ff" points="570.2,-37.87 578.63,-31.46 568.04,-31.21 570.2,-37.87"/>
</a>
</g>
</g>
<!-- Node5&#45;&gt;Node5 -->
<g id="edge5_Node000005_Node000005" class="edge">
<title>Node5&#45;&gt;Node5</title>
<g id="a_edge5_Node000005_Node000005"><a xlink:title=" ">
<path fill="none" stroke="#63b8ff" d="M599.27,-30.99C593.05,-40.06 603.21,-48.5 629.75,-48.5 644.26,-48.5 653.88,-45.97 658.59,-42.2"/>
<polygon fill="#63b8ff" stroke="#63b8ff" points="662.03,-42.88 660.01,-32.48 655.11,-41.87 662.03,-42.88"/>
</a>
</g>
</g>
<!-- Node6&#45;&gt;Node3 -->
<g id="edge7_Node000006_Node000003" class="edge">
<title>Node6&#45;&gt;Node3</title>
<g id="a_edge7_Node000006_Node000003"><a xlink:title=" ">
<path fill="none" stroke="#63b8ff" d="M354.21,-60.73C362.08,-61.46 370.05,-62.2 377.9,-62.93"/>
<polygon fill="#63b8ff" stroke="#63b8ff" points="377.49,-66.41 387.77,-63.85 378.14,-59.44 377.49,-66.41"/>
</a>
</g>
</g>
</g>
</svg>
