<?xml version="1.0" encoding="UTF-8" standalone="no"?>
<!DOCTYPE svg PUBLIC "-//W3C//DTD SVG 1.1//EN"
 "http://www.w3.org/Graphics/SVG/1.1/DTD/svg11.dtd">
<!-- Generated by graphviz version 9.0.0 (20230911.1827)
 -->
<!-- Title: frc.robot.Robot.autonomousInit Pages: 1 -->
<svg width="545pt" height="39pt"
 viewBox="0.00 0.00 545.00 38.50" xmlns="http://www.w3.org/2000/svg" xmlns:xlink="http://www.w3.org/1999/xlink">
<g id="graph0" class="graph" transform="scale(1 1) rotate(0) translate(4 34.5)">
<title>frc.robot.Robot.autonomousInit</title>
<!-- Node1 -->
<g id="Node000001" class="node">
<title>Node1</title>
<g id="a_Node000001"><a xlink:title=" ">
<polygon fill="#999999" stroke="#666666" points="151,-24.88 0,-24.88 0,-5.63 151,-5.63 151,-24.88"/>
<text text-anchor="middle" x="75.5" y="-11.38" font-family="Helvetica,sans-Serif" font-size="10.00">frc.robot.Robot.autonomousInit</text>
</a>
</g>
</g>
<!-- Node2 -->
<g id="Node000002" class="node">
<title>Node2</title>
<g id="a_Node000002"><a xlink:href="classfrc_1_1robot_1_1_robot_container.html#ac61d2476e65873e263f844c1c721a82e" target="_top" xlink:title=" ">
<polygon fill="white" stroke="#666666" points="326,-30.5 187,-30.5 187,0 326,0 326,-30.5"/>
<text text-anchor="start" x="195" y="-17" font-family="Helvetica,sans-Serif" font-size="10.00">frc.robot.RobotContainer.get</text>
<text text-anchor="middle" x="256.5" y="-5.75" font-family="Helvetica,sans-Serif" font-size="10.00">AutonomousCommand</text>
</a>
</g>
</g>
<!-- Node1&#45;&gt;Node2 -->
<g id="edge1_Node000001_Node000002" class="edge">
<title>Node1&#45;&gt;Node2</title>
<g id="a_edge1_Node000001_Node000002"><a xlink:title=" ">
<path fill="none" stroke="#63b8ff" d="M151.37,-15.25C159.23,-15.25 167.23,-15.25 175.15,-15.25"/>
<polygon fill="#63b8ff" stroke="#63b8ff" points="175.12,-18.75 185.12,-15.25 175.12,-11.75 175.12,-18.75"/>
</a>
</g>
</g>
<!-- Node3 -->
<g id="Node000003" class="node">
<title>Node3</title>
<g id="a_Node000003"><a xlink:href="classedu_1_1wpi_1_1first_1_1wpilibj_1_1smartdashboard_1_1_sendable_chooser.html#a85449e96cf4f0dc703c75013d221c5f8" target="_top" xlink:title=" ">
<polygon fill="white" stroke="#666666" points="537,-30.5 362,-30.5 362,0 537,0 537,-30.5"/>
<text text-anchor="start" x="370" y="-17" font-family="Helvetica,sans-Serif" font-size="10.00">edu.wpi.first.wpilibj.smartdashboard.</text>
<text text-anchor="middle" x="449.5" y="-5.75" font-family="Helvetica,sans-Serif" font-size="10.00">SendableChooser.getSelected</text>
</a>
</g>
</g>
<!-- Node2&#45;&gt;Node3 -->
<g id="edge2_Node000002_Node000003" class="edge">
<title>Node2&#45;&gt;Node3</title>
<g id="a_edge2_Node000002_Node000003"><a xlink:title=" ">
<path fill="none" stroke="#63b8ff" d="M326.46,-15.25C334.23,-15.25 342.25,-15.25 350.3,-15.25"/>
<polygon fill="#63b8ff" stroke="#63b8ff" points="350.17,-18.75 360.17,-15.25 350.17,-11.75 350.17,-18.75"/>
</a>
</g>
</g>
</g>
</svg>
