<?xml version="1.0" encoding="UTF-8" standalone="no"?>
<!DOCTYPE svg PUBLIC "-//W3C//DTD SVG 1.1//EN"
 "http://www.w3.org/Graphics/SVG/1.1/DTD/svg11.dtd">
<!-- Generated by graphviz version 9.0.0 (20230911.1827)
 -->
<!-- Title: edu.wpi.first.wpilibj.RobotBase.startRobot Pages: 1 -->
<svg width="322pt" height="235pt"
 viewBox="0.00 0.00 322.00 234.50" xmlns="http://www.w3.org/2000/svg" xmlns:xlink="http://www.w3.org/1999/xlink">
<g id="graph0" class="graph" transform="scale(1 1) rotate(0) translate(4 230.5)">
<title>edu.wpi.first.wpilibj.RobotBase.startRobot</title>
<!-- Node1 -->
<g id="Node000001" class="node">
<title>Node1</title>
<g id="a_Node000001"><a xlink:title=" ">
<polygon fill="#999999" stroke="#666666" points="128.5,-128.5 0,-128.5 0,-98 128.5,-98 128.5,-128.5"/>
<text text-anchor="start" x="8" y="-115" font-family="Helvetica,sans-Serif" font-size="10.00">edu.wpi.first.wpilibj.Robot</text>
<text text-anchor="middle" x="64.25" y="-103.75" font-family="Helvetica,sans-Serif" font-size="10.00">Base.startRobot</text>
</a>
</g>
</g>
<!-- Node2 -->
<g id="Node000002" class="node">
<title>Node2</title>
<g id="a_Node000002"><a xlink:href="classedu_1_1wpi_1_1first_1_1wpilibj_1_1_robot_base.html#a185282e41bdf96d388fe1d1e03382767" target="_top" xlink:title=" ">
<polygon fill="white" stroke="#666666" points="303.5,-226.5 175,-226.5 175,-196 303.5,-196 303.5,-226.5"/>
<text text-anchor="start" x="183" y="-213" font-family="Helvetica,sans-Serif" font-size="10.00">edu.wpi.first.wpilibj.Robot</text>
<text text-anchor="middle" x="239.25" y="-201.75" font-family="Helvetica,sans-Serif" font-size="10.00">Base.endCompetition</text>
</a>
</g>
</g>
<!-- Node1&#45;&gt;Node2 -->
<g id="edge1_Node000001_Node000002" class="edge">
<title>Node1&#45;&gt;Node2</title>
<g id="a_edge1_Node000001_Node000002"><a xlink:title=" ">
<path fill="none" stroke="#63b8ff" d="M82.79,-128.77C101.8,-144.95 133.58,-170.13 164.5,-186.25 167.9,-188.02 171.45,-189.71 175.08,-191.31"/>
<polygon fill="#63b8ff" stroke="#63b8ff" points="173.47,-194.43 184.04,-195 176.13,-187.95 173.47,-194.43"/>
</a>
</g>
</g>
<!-- Node3 -->
<g id="Node000003" class="node">
<title>Node3</title>
<g id="a_Node000003"><a xlink:href="classedu_1_1wpi_1_1first_1_1wpilibj_1_1_driver_station.html#afe91183377af1135ae1787c8ac29ee3b" target="_top" xlink:title=" ">
<polygon fill="white" stroke="#666666" points="303.5,-177.5 175,-177.5 175,-147 303.5,-147 303.5,-177.5"/>
<text text-anchor="start" x="183" y="-164" font-family="Helvetica,sans-Serif" font-size="10.00">edu.wpi.first.wpilibj.Driver</text>
<text text-anchor="middle" x="239.25" y="-152.75" font-family="Helvetica,sans-Serif" font-size="10.00">Station.refreshData</text>
</a>
</g>
</g>
<!-- Node1&#45;&gt;Node3 -->
<g id="edge2_Node000001_Node000003" class="edge">
<title>Node1&#45;&gt;Node3</title>
<g id="a_edge2_Node000001_Node000003"><a xlink:title=" ">
<path fill="none" stroke="#63b8ff" d="M120.46,-128.89C136.77,-133.51 154.79,-138.61 171.72,-143.41"/>
<polygon fill="#63b8ff" stroke="#63b8ff" points="170.64,-146.74 181.21,-146.1 172.55,-140 170.64,-146.74"/>
</a>
</g>
</g>
<!-- Node4 -->
<g id="Node000004" class="node">
<title>Node4</title>
<g id="a_Node000004"><a xlink:href="classedu_1_1wpi_1_1first_1_1wpilibj_1_1_driver_station.html#a8446c52983088af3fba8adc2b0d3df8c" target="_top" xlink:title=" ">
<polygon fill="white" stroke="#666666" points="303.5,-128.5 175,-128.5 175,-98 303.5,-98 303.5,-128.5"/>
<text text-anchor="start" x="183" y="-115" font-family="Helvetica,sans-Serif" font-size="10.00">edu.wpi.first.wpilibj.Driver</text>
<text text-anchor="middle" x="239.25" y="-103.75" font-family="Helvetica,sans-Serif" font-size="10.00">Station.reportWarning</text>
</a>
</g>
</g>
<!-- Node1&#45;&gt;Node4 -->
<g id="edge3_Node000001_Node000004" class="edge">
<title>Node1&#45;&gt;Node4</title>
<g id="a_edge3_Node000001_Node000004"><a xlink:title=" ">
<path fill="none" stroke="#63b8ff" d="M128.69,-113.25C139.9,-113.25 151.66,-113.25 163.16,-113.25"/>
<polygon fill="#63b8ff" stroke="#63b8ff" points="163.02,-116.75 173.02,-113.25 163.02,-109.75 163.02,-116.75"/>
</a>
</g>
</g>
<!-- Node5 -->
<g id="Node000005" class="node">
<title>Node5</title>
<g id="a_Node000005"><a xlink:href="classedu_1_1wpi_1_1first_1_1wpilibj_1_1_notifier.html#a09d699f923bc38943b30d3c1f859ed7e" target="_top" xlink:title=" ">
<polygon fill="white" stroke="#666666" points="314,-79.5 164.5,-79.5 164.5,-49 314,-49 314,-79.5"/>
<text text-anchor="start" x="172.5" y="-66" font-family="Helvetica,sans-Serif" font-size="10.00">edu.wpi.first.wpilibj.Notifier.set</text>
<text text-anchor="middle" x="239.25" y="-54.75" font-family="Helvetica,sans-Serif" font-size="10.00">HALThreadPriority</text>
</a>
</g>
</g>
<!-- Node1&#45;&gt;Node5 -->
<g id="edge4_Node000001_Node000005" class="edge">
<title>Node1&#45;&gt;Node5</title>
<g id="a_edge4_Node000001_Node000005"><a xlink:title=" ">
<path fill="none" stroke="#63b8ff" d="M120.46,-97.61C136.77,-92.99 154.79,-87.89 171.72,-83.09"/>
<polygon fill="#63b8ff" stroke="#63b8ff" points="172.55,-86.5 181.21,-80.4 170.64,-79.76 172.55,-86.5"/>
</a>
</g>
</g>
<!-- Node6 -->
<g id="Node000006" class="node">
<title>Node6</title>
<g id="a_Node000006"><a xlink:href="classedu_1_1wpi_1_1first_1_1wpilibj_1_1_robot_base.html#a05e4da378675e97c4f0dd4235101fce2" target="_top" xlink:title=" ">
<polygon fill="white" stroke="#666666" points="306.12,-30.5 172.38,-30.5 172.38,0 306.12,0 306.12,-30.5"/>
<text text-anchor="start" x="180.38" y="-17" font-family="Helvetica,sans-Serif" font-size="10.00">edu.wpi.first.wpilibj.Robot</text>
<text text-anchor="middle" x="239.25" y="-5.75" font-family="Helvetica,sans-Serif" font-size="10.00">Base.suppressExitWarning</text>
</a>
</g>
</g>
<!-- Node1&#45;&gt;Node6 -->
<g id="edge5_Node000001_Node000006" class="edge">
<title>Node1&#45;&gt;Node6</title>
<g id="a_edge5_Node000001_Node000006"><a xlink:title=" ">
<path fill="none" stroke="#63b8ff" d="M82.79,-97.73C101.8,-81.55 133.58,-56.37 164.5,-40.25 167.9,-38.48 171.45,-36.79 175.08,-35.19"/>
<polygon fill="#63b8ff" stroke="#63b8ff" points="176.13,-38.55 184.04,-31.5 173.47,-32.07 176.13,-38.55"/>
</a>
</g>
</g>
</g>
</svg>
