<?xml version="1.0" encoding="UTF-8" standalone="no"?>
<!DOCTYPE svg PUBLIC "-//W3C//DTD SVG 1.1//EN"
 "http://www.w3.org/Graphics/SVG/1.1/DTD/svg11.dtd">
<!-- Generated by graphviz version 9.0.0 (20230911.1827)
 -->
<!-- Title: edu.wpi.first.wpilibj.simulation.DutyCycleSim.DutyCycleSim Pages: 1 -->
<svg width="354pt" height="88pt"
 viewBox="0.00 0.00 353.50 87.50" xmlns="http://www.w3.org/2000/svg" xmlns:xlink="http://www.w3.org/1999/xlink">
<g id="graph0" class="graph" transform="scale(1 1) rotate(0) translate(4 83.5)">
<title>edu.wpi.first.wpilibj.simulation.DutyCycleSim.DutyCycleSim</title>
<!-- Node1 -->
<g id="Node000001" class="node">
<title>Node1</title>
<g id="a_Node000001"><a xlink:title=" ">
<polygon fill="#999999" stroke="#666666" points="345.5,-54.5 196,-54.5 196,-24 345.5,-24 345.5,-54.5"/>
<text text-anchor="start" x="204" y="-41" font-family="Helvetica,sans-Serif" font-size="10.00">edu.wpi.first.wpilibj.simulation.</text>
<text text-anchor="middle" x="270.75" y="-29.75" font-family="Helvetica,sans-Serif" font-size="10.00">DutyCycleSim.DutyCycleSim</text>
</a>
</g>
</g>
<!-- Node2 -->
<g id="Node000002" class="node">
<title>Node2</title>
<g id="a_Node000002"><a xlink:href="classedu_1_1wpi_1_1first_1_1wpilibj_1_1simulation_1_1_duty_cycle_sim.html#a6e47635847cd23d08395fd5299f15716" target="_top" xlink:title=" ">
<polygon fill="white" stroke="#666666" points="160,-79.5 0,-79.5 0,-49 160,-49 160,-79.5"/>
<text text-anchor="start" x="8" y="-66" font-family="Helvetica,sans-Serif" font-size="10.00">edu.wpi.first.wpilibj.simulation.</text>
<text text-anchor="middle" x="80" y="-54.75" font-family="Helvetica,sans-Serif" font-size="10.00">DutyCycleSim.createForChannel</text>
</a>
</g>
</g>
<!-- Node1&#45;&gt;Node2 -->
<g id="edge1_Node000001_Node000002" class="edge">
<title>Node1&#45;&gt;Node2</title>
<g id="a_edge1_Node000001_Node000002"><a xlink:title=" ">
<path fill="none" stroke="#63b8ff" d="M184.47,-50.55C176.47,-51.6 168.39,-52.68 160.45,-53.73"/>
<polygon fill="#63b8ff" stroke="#63b8ff" points="184.74,-54.04 194.19,-49.26 183.82,-47.1 184.74,-54.04"/>
</a>
</g>
</g>
<!-- Node3 -->
<g id="Node000003" class="node">
<title>Node3</title>
<g id="a_Node000003"><a xlink:href="classedu_1_1wpi_1_1first_1_1wpilibj_1_1simulation_1_1_duty_cycle_sim.html#a32e7a257be01dad1052eadd726fb8596" target="_top" xlink:title=" ">
<polygon fill="white" stroke="#666666" points="154.75,-30.5 5.25,-30.5 5.25,0 154.75,0 154.75,-30.5"/>
<text text-anchor="start" x="13.25" y="-17" font-family="Helvetica,sans-Serif" font-size="10.00">edu.wpi.first.wpilibj.simulation.</text>
<text text-anchor="middle" x="80" y="-5.75" font-family="Helvetica,sans-Serif" font-size="10.00">DutyCycleSim.createForIndex</text>
</a>
</g>
</g>
<!-- Node1&#45;&gt;Node3 -->
<g id="edge2_Node000001_Node000003" class="edge">
<title>Node1&#45;&gt;Node3</title>
<g id="a_edge2_Node000001_Node000003"><a xlink:title=" ">
<path fill="none" stroke="#63b8ff" d="M184.34,-28.39C174.6,-27.15 164.73,-25.9 155.15,-24.68"/>
<polygon fill="#63b8ff" stroke="#63b8ff" points="183.83,-31.85 194.19,-29.64 184.71,-24.91 183.83,-31.85"/>
</a>
</g>
</g>
</g>
</svg>
