<?xml version="1.0" encoding="UTF-8" standalone="no"?>
<!DOCTYPE svg PUBLIC "-//W3C//DTD SVG 1.1//EN"
 "http://www.w3.org/Graphics/SVG/1.1/DTD/svg11.dtd">
<!-- Generated by graphviz version 9.0.0 (20230911.1827)
 -->
<!-- Title: edu.wpi.first.wpilibj.SensorUtil.getDefaultCTREPCMModule Pages: 1 -->
<svg width="628pt" height="235pt"
 viewBox="0.00 0.00 627.50 234.50" xmlns="http://www.w3.org/2000/svg" xmlns:xlink="http://www.w3.org/1999/xlink">
<g id="graph0" class="graph" transform="scale(1 1) rotate(0) translate(4 230.5)">
<title>edu.wpi.first.wpilibj.SensorUtil.getDefaultCTREPCMModule</title>
<!-- Node1 -->
<g id="Node000001" class="node">
<title>Node1</title>
<g id="a_Node000001"><a xlink:title=" ">
<polygon fill="#999999" stroke="#666666" points="619.5,-128.5 458.75,-128.5 458.75,-98 619.5,-98 619.5,-128.5"/>
<text text-anchor="start" x="466.75" y="-115" font-family="Helvetica,sans-Serif" font-size="10.00">edu.wpi.first.wpilibj.Sensor</text>
<text text-anchor="middle" x="539.12" y="-103.75" font-family="Helvetica,sans-Serif" font-size="10.00">Util.getDefaultCTREPCMModule</text>
</a>
</g>
</g>
<!-- Node2 -->
<g id="Node000002" class="node">
<title>Node2</title>
<g id="a_Node000002"><a xlink:href="classedu_1_1wpi_1_1first_1_1wpilibj_1_1simulation_1_1_c_t_r_e_p_c_m_sim.html#a2fc084a3f6ca619345458eca1a4e3548" target="_top" xlink:title=" ">
<polygon fill="white" stroke="#666666" points="401.38,-177.5 247.38,-177.5 247.38,-147 401.38,-147 401.38,-177.5"/>
<text text-anchor="start" x="255.38" y="-164" font-family="Helvetica,sans-Serif" font-size="10.00">edu.wpi.first.wpilibj.simulation.</text>
<text text-anchor="middle" x="324.38" y="-152.75" font-family="Helvetica,sans-Serif" font-size="10.00">CTREPCMSim.CTREPCMSim</text>
</a>
</g>
</g>
<!-- Node1&#45;&gt;Node2 -->
<g id="edge1_Node000001_Node000002" class="edge">
<title>Node1&#45;&gt;Node2</title>
<g id="a_edge1_Node000001_Node000002"><a xlink:title=" ">
<path fill="none" stroke="#63b8ff" d="M458.87,-131.5C437.4,-136.45 414.35,-141.76 393.55,-146.55"/>
<polygon fill="#63b8ff" stroke="#63b8ff" points="459.5,-134.95 468.46,-129.3 457.93,-128.13 459.5,-134.95"/>
</a>
</g>
</g>
<!-- Node3 -->
<g id="Node000003" class="node">
<title>Node3</title>
<g id="a_Node000003"><a xlink:href="interfaceedu_1_1wpi_1_1first_1_1wpilibj_1_1_pneumatics_base.html#a7f07af9f270e5dbb58336c1b605e6465" target="_top" xlink:title=" ">
<polygon fill="white" stroke="#666666" points="401.38,-128.5 247.38,-128.5 247.38,-98 401.38,-98 401.38,-128.5"/>
<text text-anchor="start" x="255.38" y="-115" font-family="Helvetica,sans-Serif" font-size="10.00">edu.wpi.first.wpilibj.Pneumatics</text>
<text text-anchor="middle" x="324.38" y="-103.75" font-family="Helvetica,sans-Serif" font-size="10.00">Base.getDefaultForType</text>
</a>
</g>
</g>
<!-- Node1&#45;&gt;Node3 -->
<g id="edge2_Node000001_Node000003" class="edge">
<title>Node1&#45;&gt;Node3</title>
<g id="a_edge2_Node000001_Node000003"><a xlink:title=" ">
<path fill="none" stroke="#63b8ff" d="M446.9,-113.25C431.86,-113.25 416.4,-113.25 401.77,-113.25"/>
<polygon fill="#63b8ff" stroke="#63b8ff" points="446.79,-116.75 456.79,-113.25 446.79,-109.75 446.79,-116.75"/>
</a>
</g>
</g>
<!-- Node9 -->
<g id="Node000009" class="node">
<title>Node9</title>
<g id="a_Node000009"><a xlink:href="classedu_1_1wpi_1_1first_1_1wpilibj_1_1_pneumatics_control_module.html#a7578701e18132aa2ef7615edf07ac9f6" target="_top" xlink:title=" ">
<polygon fill="white" stroke="#666666" points="422.75,-79.5 226,-79.5 226,-49 422.75,-49 422.75,-79.5"/>
<text text-anchor="start" x="234" y="-66" font-family="Helvetica,sans-Serif" font-size="10.00">edu.wpi.first.wpilibj.Pneumatics</text>
<text text-anchor="middle" x="324.38" y="-54.75" font-family="Helvetica,sans-Serif" font-size="10.00">ControlModule.PneumaticsControlModule</text>
</a>
</g>
</g>
<!-- Node1&#45;&gt;Node9 -->
<g id="edge8_Node000001_Node000009" class="edge">
<title>Node1&#45;&gt;Node9</title>
<g id="a_edge8_Node000001_Node000009"><a xlink:title=" ">
<path fill="none" stroke="#63b8ff" d="M458.87,-95C437.4,-90.05 414.35,-84.74 393.55,-79.95"/>
<polygon fill="#63b8ff" stroke="#63b8ff" points="457.93,-98.37 468.46,-97.2 459.5,-91.55 457.93,-98.37"/>
</a>
</g>
</g>
<!-- Node4 -->
<g id="Node000004" class="node">
<title>Node4</title>
<g id="a_Node000004"><a xlink:href="classedu_1_1wpi_1_1first_1_1wpilibj_1_1_compressor.html#af0d27dcf99c6132ddbca7c320884bcc9" target="_top" xlink:title=" ">
<polygon fill="white" stroke="#666666" points="173.88,-226.5 16.12,-226.5 16.12,-196 173.88,-196 173.88,-226.5"/>
<text text-anchor="start" x="24.12" y="-213" font-family="Helvetica,sans-Serif" font-size="10.00">edu.wpi.first.wpilibj.Compressor.</text>
<text text-anchor="middle" x="95" y="-201.75" font-family="Helvetica,sans-Serif" font-size="10.00">Compressor</text>
</a>
</g>
</g>
<!-- Node3&#45;&gt;Node4 -->
<g id="edge3_Node000003_Node000004" class="edge">
<title>Node3&#45;&gt;Node4</title>
<g id="a_edge3_Node000003_Node000004"><a xlink:title=" ">
<path fill="none" stroke="#63b8ff" d="M236.82,-131.98C233.06,-133.87 229.43,-135.96 226,-138.25 203.83,-153.07 212.1,-171.33 190,-186.25 184.68,-189.84 178.87,-192.91 172.83,-195.55"/>
<polygon fill="#63b8ff" stroke="#63b8ff" points="237.95,-135.31 245.64,-128.03 235.09,-128.92 237.95,-135.31"/>
</a>
</g>
</g>
<!-- Node5 -->
<g id="Node000005" class="node">
<title>Node5</title>
<g id="a_Node000005"><a xlink:href="classedu_1_1wpi_1_1first_1_1wpilibj_1_1_double_solenoid.html#aa80f7927d5629ad62d5a306627f7325c" target="_top" xlink:title=" ">
<polygon fill="white" stroke="#666666" points="161.5,-177.5 28.5,-177.5 28.5,-147 161.5,-147 161.5,-177.5"/>
<text text-anchor="start" x="36.5" y="-164" font-family="Helvetica,sans-Serif" font-size="10.00">edu.wpi.first.wpilibj.Double</text>
<text text-anchor="middle" x="95" y="-152.75" font-family="Helvetica,sans-Serif" font-size="10.00">Solenoid.DoubleSolenoid</text>
</a>
</g>
</g>
<!-- Node3&#45;&gt;Node5 -->
<g id="edge4_Node000003_Node000005" class="edge">
<title>Node3&#45;&gt;Node5</title>
<g id="a_edge4_Node000003_Node000005"><a xlink:title=" ">
<path fill="none" stroke="#63b8ff" d="M239.32,-131.37C213.78,-136.87 186.09,-142.83 161.93,-148.04"/>
<polygon fill="#63b8ff" stroke="#63b8ff" points="239.98,-134.8 249.01,-129.27 238.5,-127.96 239.98,-134.8"/>
</a>
</g>
</g>
<!-- Node6 -->
<g id="Node000006" class="node">
<title>Node6</title>
<g id="a_Node000006"><a xlink:href="classedu_1_1wpi_1_1first_1_1wpilibj_1_1simulation_1_1_double_solenoid_sim.html#a46a24e037822569ae9d627a5e37cda23" target="_top" xlink:title=" ">
<polygon fill="white" stroke="#666666" points="190,-128.5 0,-128.5 0,-98 190,-98 190,-128.5"/>
<text text-anchor="start" x="8" y="-115" font-family="Helvetica,sans-Serif" font-size="10.00">edu.wpi.first.wpilibj.simulation.</text>
<text text-anchor="middle" x="95" y="-103.75" font-family="Helvetica,sans-Serif" font-size="10.00">DoubleSolenoidSim.DoubleSolenoidSim</text>
</a>
</g>
</g>
<!-- Node3&#45;&gt;Node6 -->
<g id="edge5_Node000003_Node000006" class="edge">
<title>Node3&#45;&gt;Node6</title>
<g id="a_edge5_Node000003_Node000006"><a xlink:title=" ">
<path fill="none" stroke="#63b8ff" d="M235.79,-113.25C220.9,-113.25 205.38,-113.25 190.32,-113.25"/>
<polygon fill="#63b8ff" stroke="#63b8ff" points="235.52,-116.75 245.52,-113.25 235.52,-109.75 235.52,-116.75"/>
</a>
</g>
</g>
<!-- Node7 -->
<g id="Node000007" class="node">
<title>Node7</title>
<g id="a_Node000007"><a xlink:href="classedu_1_1wpi_1_1first_1_1wpilibj_1_1_solenoid.html#a8e37ae613c1811380d9ce3fcbe5b9682" target="_top" xlink:title=" ">
<polygon fill="white" stroke="#666666" points="166.38,-79.5 23.62,-79.5 23.62,-49 166.38,-49 166.38,-79.5"/>
<text text-anchor="start" x="31.62" y="-66" font-family="Helvetica,sans-Serif" font-size="10.00">edu.wpi.first.wpilibj.Solenoid.</text>
<text text-anchor="middle" x="95" y="-54.75" font-family="Helvetica,sans-Serif" font-size="10.00">Solenoid</text>
</a>
</g>
</g>
<!-- Node3&#45;&gt;Node7 -->
<g id="edge6_Node000003_Node000007" class="edge">
<title>Node3&#45;&gt;Node7</title>
<g id="a_edge6_Node000003_Node000007"><a xlink:title=" ">
<path fill="none" stroke="#63b8ff" d="M239.29,-95.13C215.36,-89.97 189.56,-84.41 166.53,-79.45"/>
<polygon fill="#63b8ff" stroke="#63b8ff" points="238.5,-98.54 249.01,-97.23 239.98,-91.7 238.5,-98.54"/>
</a>
</g>
</g>
<!-- Node8 -->
<g id="Node000008" class="node">
<title>Node8</title>
<g id="a_Node000008"><a xlink:href="classedu_1_1wpi_1_1first_1_1wpilibj_1_1simulation_1_1_solenoid_sim.html#aa302bfd31059a6655c1133d0a549a2ce" target="_top" xlink:title=" ">
<polygon fill="white" stroke="#666666" points="169.75,-30.5 20.25,-30.5 20.25,0 169.75,0 169.75,-30.5"/>
<text text-anchor="start" x="28.25" y="-17" font-family="Helvetica,sans-Serif" font-size="10.00">edu.wpi.first.wpilibj.simulation.</text>
<text text-anchor="middle" x="95" y="-5.75" font-family="Helvetica,sans-Serif" font-size="10.00">SolenoidSim.SolenoidSim</text>
</a>
</g>
</g>
<!-- Node3&#45;&gt;Node8 -->
<g id="edge7_Node000003_Node000008" class="edge">
<title>Node3&#45;&gt;Node8</title>
<g id="a_edge7_Node000003_Node000008"><a xlink:title=" ">
<path fill="none" stroke="#63b8ff" d="M236.82,-94.52C233.06,-92.63 229.43,-90.54 226,-88.25 203.83,-73.43 212.1,-55.17 190,-40.25 183.84,-36.09 177.02,-32.63 169.95,-29.74"/>
<polygon fill="#63b8ff" stroke="#63b8ff" points="235.09,-97.58 245.64,-98.47 237.95,-91.19 235.09,-97.58"/>
</a>
</g>
</g>
</g>
</svg>
