<?xml version="1.0" encoding="UTF-8" standalone="no"?>
<!DOCTYPE svg PUBLIC "-//W3C//DTD SVG 1.1//EN"
 "http://www.w3.org/Graphics/SVG/1.1/DTD/svg11.dtd">
<!-- Generated by graphviz version 9.0.0 (20230911.1827)
 -->
<!-- Title: edu.wpi.first.wpilibj.AnalogInput.getChannel Pages: 1 -->
<svg width="555pt" height="137pt"
 viewBox="0.00 0.00 554.75 136.50" xmlns="http://www.w3.org/2000/svg" xmlns:xlink="http://www.w3.org/1999/xlink">
<g id="graph0" class="graph" transform="scale(1 1) rotate(0) translate(4 132.5)">
<title>edu.wpi.first.wpilibj.AnalogInput.getChannel</title>
<!-- Node1 -->
<g id="Node000001" class="node">
<title>Node1</title>
<g id="a_Node000001"><a xlink:title=" ">
<polygon fill="#999999" stroke="#666666" points="546.75,-79.5 414.5,-79.5 414.5,-49 546.75,-49 546.75,-79.5"/>
<text text-anchor="start" x="422.5" y="-66" font-family="Helvetica,sans-Serif" font-size="10.00">edu.wpi.first.wpilibj.Analog</text>
<text text-anchor="middle" x="480.62" y="-54.75" font-family="Helvetica,sans-Serif" font-size="10.00">Input.getChannel</text>
</a>
</g>
</g>
<!-- Node2 -->
<g id="Node000002" class="node">
<title>Node2</title>
<g id="a_Node000002"><a xlink:href="classedu_1_1wpi_1_1first_1_1wpilibj_1_1simulation_1_1_analog_gyro_sim.html#a40b90331fea15fbdaf0463536a78dcbf" target="_top" xlink:title=" ">
<polygon fill="white" stroke="#666666" points="377.75,-128.5 222.25,-128.5 222.25,-98 377.75,-98 377.75,-128.5"/>
<text text-anchor="start" x="230.25" y="-115" font-family="Helvetica,sans-Serif" font-size="10.00">edu.wpi.first.wpilibj.simulation.</text>
<text text-anchor="middle" x="300" y="-103.75" font-family="Helvetica,sans-Serif" font-size="10.00">AnalogGyroSim.AnalogGyroSim</text>
</a>
</g>
</g>
<!-- Node1&#45;&gt;Node2 -->
<g id="edge1_Node000001_Node000002" class="edge">
<title>Node1&#45;&gt;Node2</title>
<g id="a_edge1_Node000001_Node000002"><a xlink:title=" ">
<path fill="none" stroke="#63b8ff" d="M411.83,-82.85C394.21,-87.68 375.41,-92.84 358.39,-97.51"/>
<polygon fill="#63b8ff" stroke="#63b8ff" points="412.44,-86.31 421.16,-80.29 410.59,-79.56 412.44,-86.31"/>
</a>
</g>
</g>
<!-- Node3 -->
<g id="Node000003" class="node">
<title>Node3</title>
<g id="a_Node000003"><a xlink:href="classedu_1_1wpi_1_1first_1_1wpilibj_1_1simulation_1_1_analog_input_sim.html#ae25b18e40a6b10281fe1d322df5671d9" target="_top" xlink:title=" ">
<polygon fill="white" stroke="#666666" points="378.5,-79.5 221.5,-79.5 221.5,-49 378.5,-49 378.5,-79.5"/>
<text text-anchor="start" x="229.5" y="-66" font-family="Helvetica,sans-Serif" font-size="10.00">edu.wpi.first.wpilibj.simulation.</text>
<text text-anchor="middle" x="300" y="-54.75" font-family="Helvetica,sans-Serif" font-size="10.00">AnalogInputSim.AnalogInputSim</text>
</a>
</g>
</g>
<!-- Node1&#45;&gt;Node3 -->
<g id="edge2_Node000001_Node000003" class="edge">
<title>Node1&#45;&gt;Node3</title>
<g id="a_edge2_Node000001_Node000003"><a xlink:title=" ">
<path fill="none" stroke="#63b8ff" d="M402.7,-64.25C394.82,-64.25 386.81,-64.25 378.92,-64.25"/>
<polygon fill="#63b8ff" stroke="#63b8ff" points="402.61,-67.75 412.61,-64.25 402.61,-60.75 402.61,-67.75"/>
</a>
</g>
</g>
<!-- Node4 -->
<g id="Node000004" class="node">
<title>Node4</title>
<g id="a_Node000004"><a xlink:href="classedu_1_1wpi_1_1first_1_1wpilibj_1_1_analog_encoder.html#a56a08d6a579fe09f679dea306f8a0b30" target="_top" xlink:title=" ">
<polygon fill="white" stroke="#666666" points="366.12,-30.5 233.88,-30.5 233.88,0 366.12,0 366.12,-30.5"/>
<text text-anchor="start" x="241.88" y="-17" font-family="Helvetica,sans-Serif" font-size="10.00">edu.wpi.first.wpilibj.Analog</text>
<text text-anchor="middle" x="300" y="-5.75" font-family="Helvetica,sans-Serif" font-size="10.00">Encoder.getChannel</text>
</a>
</g>
</g>
<!-- Node1&#45;&gt;Node4 -->
<g id="edge3_Node000001_Node000004" class="edge">
<title>Node1&#45;&gt;Node4</title>
<g id="a_edge3_Node000001_Node000004"><a xlink:title=" ">
<path fill="none" stroke="#63b8ff" d="M411.83,-45.65C394.21,-40.82 375.41,-35.66 358.39,-30.99"/>
<polygon fill="#63b8ff" stroke="#63b8ff" points="410.59,-48.94 421.16,-48.21 412.44,-42.19 410.59,-48.94"/>
</a>
</g>
</g>
<!-- Node5 -->
<g id="Node000005" class="node">
<title>Node5</title>
<g id="a_Node000005"><a xlink:href="classedu_1_1wpi_1_1first_1_1wpilibj_1_1simulation_1_1_analog_encoder_sim.html#a889064bea7fa4f436cd744cad2bc60b7" target="_top" xlink:title=" ">
<polygon fill="white" stroke="#666666" points="185.5,-30.5 0,-30.5 0,0 185.5,0 185.5,-30.5"/>
<text text-anchor="start" x="8" y="-17" font-family="Helvetica,sans-Serif" font-size="10.00">edu.wpi.first.wpilibj.simulation.</text>
<text text-anchor="middle" x="92.75" y="-5.75" font-family="Helvetica,sans-Serif" font-size="10.00">AnalogEncoderSim.AnalogEncoderSim</text>
</a>
</g>
</g>
<!-- Node4&#45;&gt;Node5 -->
<g id="edge4_Node000004_Node000005" class="edge">
<title>Node4&#45;&gt;Node5</title>
<g id="a_edge4_Node000004_Node000005"><a xlink:title=" ">
<path fill="none" stroke="#63b8ff" d="M222.3,-15.25C210.45,-15.25 198.1,-15.25 185.94,-15.25"/>
<polygon fill="#63b8ff" stroke="#63b8ff" points="221.98,-18.75 231.98,-15.25 221.98,-11.75 221.98,-18.75"/>
</a>
</g>
</g>
</g>
</svg>
