<?xml version="1.0" encoding="UTF-8" standalone="no"?>
<!DOCTYPE svg PUBLIC "-//W3C//DTD SVG 1.1//EN"
 "http://www.w3.org/Graphics/SVG/1.1/DTD/svg11.dtd">
<!-- Generated by graphviz version 9.0.0 (20230911.1827)
 -->
<!-- Title: edu.wpi.first.wpilibj.RobotController.getFPGATime Pages: 1 -->
<!--zoomable 544 -->

<svg id="main" version="1.1" xmlns="http://www.w3.org/2000/svg" xmlns:xlink="http://www.w3.org/1999/xlink" xml:space="preserve" onload="init(evt)">
<style type="text/css"><![CDATA[
.node, .edge {opacity: 0.7;}
.node.selected, .edge.selected {opacity: 1;}
.edge:hover path { stroke: red; }
.edge:hover polygon { stroke: red; fill: red; }
]]></style>

<defs>
  <circle id="rim" cx="0" cy="0" r="7"/>
  <circle id="rim2" cx="0" cy="0" r="3.5"/>
  <g id="zoomPlus">
    <use xlink:href="#rim" fill="#404040"><set attributeName="fill" to="#808080" begin="zoomplus.mouseover" end="zoomplus.mouseout"/></use>
    <path d="M-4,0h8M0,-4v8" fill="none" stroke="white" stroke-width="1.5" pointer-events="none"/>
  </g>
  <g id="zoomMin">
    <use xlink:href="#rim" fill="#404040"><set attributeName="fill" to="#808080" begin="zoomminus.mouseover" end="zoomminus.mouseout"/></use>
    <path d="M-4,0h8" fill="none" stroke="white" stroke-width="1.5" pointer-events="none"/>
  </g>
  <g id="arrowUp" transform="translate(30 24)">
    <use xlink:href="#rim"/>
    <path pointer-events="none" fill="none" stroke="white" stroke-width="1.5" d="M0,-3.0v7 M-2.5,-0.5L0,-3.0L2.5,-0.5"/>
  </g>
  <g id="arrowRight" transform="rotate(90) translate(36 -43)">
    <use xlink:href="#rim"/>
    <path pointer-events="none" fill="none" stroke="white" stroke-width="1.5" d="M0,-3.0v7 M-2.5,-0.5L0,-3.0L2.5,-0.5"/>
  </g>
  <g id="arrowDown" transform="rotate(180) translate(-30 -48)">
    <use xlink:href="#rim"/>
    <path pointer-events="none" fill="none" stroke="white" stroke-width="1.5" d="M0,-3.0v7 M-2.5,-0.5L0,-3.0L2.5,-0.5"/>
  </g>
  <g id="arrowLeft" transform="rotate(270) translate(-36 17)">
    <use xlink:href="#rim"/>
    <path pointer-events="none" fill="none" stroke="white" stroke-width="1.5" d="M0,-3.0v7 M-2.5,-0.5L0,-3.0L2.5,-0.5"/>
  </g>
  <g id="resetDef">
    <use xlink:href="#rim2" fill="#404040"><set attributeName="fill" to="#808080" begin="reset.mouseover" end="reset.mouseout"/></use>
  </g>
</defs>
<script type="application/ecmascript">
var viewWidth = 1147;
var viewHeight = 544;
var sectionId = 'dynsection-1';
</script>
<script type="application/ecmascript" xlink:href="svg.min.js"/>
<svg id="graph" class="graph">
<g id="viewport">
<title>edu.wpi.first.wpilibj.RobotController.getFPGATime</title>
<!-- Node1 -->
<g id="Node000001" class="node">
<title>Node1</title>
<g id="a_Node000001"><a xlink:title=" ">
<polygon fill="#999999" stroke="#666666" points="1138.5,-152.5 1010,-152.5 1010,-122 1138.5,-122 1138.5,-152.5"/>
<text text-anchor="start" x="1018" y="-139" font-family="Helvetica,sans-Serif" font-size="10.00">edu.wpi.first.wpilibj.Robot</text>
<text text-anchor="middle" x="1074.25" y="-127.75" font-family="Helvetica,sans-Serif" font-size="10.00">Controller.getFPGATime</text>
</a>
</g>
</g>
<!-- Node2 -->
<g id="Node000002" class="node">
<title>Node2</title>
<g id="a_Node000002"><a xlink:href="classedu_1_1wpi_1_1first_1_1wpilibj_1_1_tracer.html#ad576a460dd3e7246210c773616a92fe6" target="_top" xlink:title=" ">
<polygon fill="white" stroke="#666666" points="970.25,-177.5 822.25,-177.5 822.25,-147 970.25,-147 970.25,-177.5"/>
<text text-anchor="start" x="830.25" y="-164" font-family="Helvetica,sans-Serif" font-size="10.00">edu.wpi.first.wpilibj.Tracer.add</text>
<text text-anchor="middle" x="896.25" y="-152.75" font-family="Helvetica,sans-Serif" font-size="10.00">Epoch</text>
</a>
</g>
</g>
<!-- Node1&#45;&gt;Node2 -->
<g id="edge1_Node000001_Node000002" class="edge">
<title>Node1&#45;&gt;Node2</title>
<g id="a_edge1_Node000001_Node000002"><a xlink:title=" ">
<path fill="none" stroke="#63b8ff" d="M998.54,-147.86C989.27,-149.18 979.81,-150.52 970.57,-151.84"/>
<polygon fill="#63b8ff" stroke="#63b8ff" points="998.8,-151.36 1008.21,-146.49 997.82,-144.43 998.8,-151.36"/>
</a>
</g>
</g>
<!-- Node5 -->
<g id="Node000005" class="node">
<title>Node5</title>
<g id="a_Node000005"><a xlink:href="classedu_1_1wpi_1_1first_1_1wpilibj_1_1_timer.html#a554f331c3b4645ee279bab8974cf21af" target="_top" xlink:title=" ">
<polygon fill="white" stroke="#666666" points="771.62,-351.5 628.88,-351.5 628.88,-321 771.62,-321 771.62,-351.5"/>
<text text-anchor="start" x="636.88" y="-338" font-family="Helvetica,sans-Serif" font-size="10.00">edu.wpi.first.wpilibj.Timer.get</text>
<text text-anchor="middle" x="700.25" y="-326.75" font-family="Helvetica,sans-Serif" font-size="10.00">FPGATimestamp</text>
</a>
</g>
</g>
<!-- Node1&#45;&gt;Node5 -->
<g id="edge4_Node000001_Node000005" class="edge">
<title>Node1&#45;&gt;Node5</title>
<g id="a_edge4_Node000001_Node000005"><a xlink:title=" ">
<path fill="none" stroke="#63b8ff" d="M1053.83,-161.62C1035.32,-183.47 1005.64,-215.11 974,-235.25 908.83,-276.74 824.13,-304.71 766.53,-320.5"/>
<polygon fill="#63b8ff" stroke="#63b8ff" points="1056.4,-164.01 1060.09,-154.08 1051.01,-159.54 1056.4,-164.01"/>
</a>
</g>
</g>
<!-- Node22 -->
<g id="Node000022" class="node">
<title>Node22</title>
<g id="a_Node000022"><a xlink:href="classedu_1_1wpi_1_1first_1_1wpilibj_1_1_tracer.html#a4a011b877482ea73e966ad62e7b5e04d" target="_top" xlink:title=" ">
<polygon fill="white" stroke="#666666" points="971.75,-128.5 820.75,-128.5 820.75,-98 971.75,-98 971.75,-128.5"/>
<text text-anchor="start" x="828.75" y="-115" font-family="Helvetica,sans-Serif" font-size="10.00">edu.wpi.first.wpilibj.Tracer.print</text>
<text text-anchor="middle" x="896.25" y="-103.75" font-family="Helvetica,sans-Serif" font-size="10.00">Epochs</text>
</a>
</g>
</g>
<!-- Node1&#45;&gt;Node22 -->
<g id="edge22_Node000001_Node000022" class="edge">
<title>Node1&#45;&gt;Node22</title>
<g id="a_edge22_Node000001_Node000022"><a xlink:title=" ">
<path fill="none" stroke="#63b8ff" d="M998.39,-127.04C989.68,-125.85 980.79,-124.64 972.08,-123.45"/>
<polygon fill="#63b8ff" stroke="#63b8ff" points="997.83,-130.5 1008.21,-128.38 998.77,-123.56 997.83,-130.5"/>
</a>
</g>
</g>
<!-- Node23 -->
<g id="Node000023" class="node">
<title>Node23</title>
<g id="a_Node000023"><a xlink:href="classedu_1_1wpi_1_1first_1_1wpilibj_1_1_tracer.html#a8ec8917a1e56d3d57363532d1d6fd4bd" target="_top" xlink:title=" ">
<polygon fill="white" stroke="#666666" points="973.25,-226.5 819.25,-226.5 819.25,-196 973.25,-196 973.25,-226.5"/>
<text text-anchor="start" x="827.25" y="-213" font-family="Helvetica,sans-Serif" font-size="10.00">edu.wpi.first.wpilibj.Tracer.reset</text>
<text text-anchor="middle" x="896.25" y="-201.75" font-family="Helvetica,sans-Serif" font-size="10.00">Timer</text>
</a>
</g>
</g>
<!-- Node1&#45;&gt;Node23 -->
<g id="edge23_Node000001_Node000023" class="edge">
<title>Node1&#45;&gt;Node23</title>
<g id="a_edge23_Node000001_Node000023"><a xlink:title=" ">
<path fill="none" stroke="#63b8ff" d="M1034.09,-158.2C1016.07,-167.42 994.23,-178.01 974,-186.25 965.95,-189.53 957.3,-192.68 948.81,-195.58"/>
<polygon fill="#63b8ff" stroke="#63b8ff" points="1035.61,-161.36 1042.88,-153.65 1032.39,-155.14 1035.61,-161.36"/>
</a>
</g>
</g>
<!-- Node26 -->
<g id="Node000026" class="node">
<title>Node26</title>
<g id="a_Node000026"><a xlink:href="classedu_1_1wpi_1_1first_1_1wpilibj_1_1_notifier.html#a23369a5ec31e3d9632747d60deb0abee" target="_top" xlink:title=" ">
<polygon fill="white" stroke="#666666" points="974,-79.5 818.5,-79.5 818.5,-49 974,-49 974,-79.5"/>
<text text-anchor="start" x="826.5" y="-66" font-family="Helvetica,sans-Serif" font-size="10.00">edu.wpi.first.wpilibj.Notifier.start</text>
<text text-anchor="middle" x="896.25" y="-54.75" font-family="Helvetica,sans-Serif" font-size="10.00">Periodic</text>
</a>
</g>
</g>
<!-- Node1&#45;&gt;Node26 -->
<g id="edge28_Node000001_Node000026" class="edge">
<title>Node1&#45;&gt;Node26</title>
<g id="a_edge28_Node000001_Node000026"><a xlink:title=" ">
<path fill="none" stroke="#63b8ff" d="M1033.65,-116.58C1015.7,-107.6 994.04,-97.32 974,-89.25 965.94,-86.01 957.28,-82.87 948.79,-79.97"/>
<polygon fill="#63b8ff" stroke="#63b8ff" points="1031.9,-119.61 1042.41,-121 1035.06,-113.37 1031.9,-119.61"/>
</a>
</g>
</g>
<!-- Node27 -->
<g id="Node000027" class="node">
<title>Node27</title>
<g id="a_Node000027"><a xlink:href="classedu_1_1wpi_1_1first_1_1wpilibj_1_1_notifier.html#a12172b4efc6e7efa70352c24aae52b9e" target="_top" xlink:title=" ">
<polygon fill="white" stroke="#666666" points="974,-30.5 818.5,-30.5 818.5,0 974,0 974,-30.5"/>
<text text-anchor="start" x="826.5" y="-17" font-family="Helvetica,sans-Serif" font-size="10.00">edu.wpi.first.wpilibj.Notifier.start</text>
<text text-anchor="middle" x="896.25" y="-5.75" font-family="Helvetica,sans-Serif" font-size="10.00">Single</text>
</a>
</g>
</g>
<!-- Node1&#45;&gt;Node27 -->
<g id="edge29_Node000001_Node000027" class="edge">
<title>Node1&#45;&gt;Node27</title>
<g id="a_edge29_Node000001_Node000027"><a xlink:title=" ">
<path fill="none" stroke="#63b8ff" d="M1053.97,-112.85C1035.54,-91.02 1005.92,-59.58 974,-40.25 968.13,-36.69 961.69,-33.58 955.12,-30.88"/>
<polygon fill="#63b8ff" stroke="#63b8ff" points="1051.12,-114.9 1060.19,-120.38 1056.52,-110.44 1051.12,-114.9"/>
</a>
</g>
</g>
<!-- Node3 -->
<g id="Node000003" class="node">
<title>Node3</title>
<g id="a_Node000003"><a xlink:href="classedu_1_1wpi_1_1first_1_1wpilibj_1_1_watchdog.html#a58c47852598d27597f0d4307262af029" target="_top" xlink:title=" ">
<polygon fill="white" stroke="#666666" points="782.5,-133.5 618,-133.5 618,-103 782.5,-103 782.5,-133.5"/>
<text text-anchor="start" x="626" y="-120" font-family="Helvetica,sans-Serif" font-size="10.00">edu.wpi.first.wpilibj.Watchdog.add</text>
<text text-anchor="middle" x="700.25" y="-108.75" font-family="Helvetica,sans-Serif" font-size="10.00">Epoch</text>
</a>
</g>
</g>
<!-- Node2&#45;&gt;Node3 -->
<g id="edge2_Node000002_Node000003" class="edge">
<title>Node2&#45;&gt;Node3</title>
<g id="a_edge2_Node000002_Node000003"><a xlink:title=" ">
<path fill="none" stroke="#63b8ff" d="M814.88,-144.02C800.12,-140.67 784.83,-137.21 770.44,-133.94"/>
<polygon fill="#63b8ff" stroke="#63b8ff" points="814.03,-147.42 824.56,-146.22 815.58,-140.59 814.03,-147.42"/>
</a>
</g>
</g>
<!-- Node4 -->
<g id="Node000004" class="node">
<title>Node4</title>
<g id="a_Node000004"><a xlink:href="classedu_1_1wpi_1_1first_1_1wpilibj_1_1_iterative_robot_base.html#aac5c45d7130bce188e0f9278075e8891" target="_top" xlink:title=" ">
<polygon fill="white" stroke="#666666" points="137.5,-142.5 0,-142.5 0,-112 137.5,-112 137.5,-142.5"/>
<text text-anchor="start" x="8" y="-129" font-family="Helvetica,sans-Serif" font-size="10.00">edu.wpi.first.wpilibj.Iterative</text>
<text text-anchor="middle" x="68.75" y="-117.75" font-family="Helvetica,sans-Serif" font-size="10.00">RobotBase.loopFunc</text>
</a>
</g>
</g>
<!-- Node3&#45;&gt;Node4 -->
<g id="edge3_Node000003_Node000004" class="edge">
<title>Node3&#45;&gt;Node4</title>
<g id="a_edge3_Node000003_Node000004"><a xlink:title=" ">
<path fill="none" stroke="#63b8ff" d="M606.29,-119.58C478.36,-121.41 251.01,-124.66 137.77,-126.28"/>
<polygon fill="#63b8ff" stroke="#63b8ff" points="606.14,-123.08 616.09,-119.44 606.04,-116.08 606.14,-123.08"/>
</a>
</g>
</g>
<!-- Node6 -->
<g id="Node000006" class="node">
<title>Node6</title>
<g id="a_Node000006"><a xlink:href="classfrc_1_1robot_1_1subsystems_1_1swervedrive_1_1_swerve_subsystem.html#a2f34b22b3166e26ae9b4a98024d4f0a1" target="_top" xlink:title=" ">
<polygon fill="white" stroke="#666666" points="582,-400.5 380,-400.5 380,-370 582,-370 582,-400.5"/>
<text text-anchor="start" x="388" y="-387" font-family="Helvetica,sans-Serif" font-size="10.00">frc.robot.subsystems.swervedrive.</text>
<text text-anchor="middle" x="481" y="-375.75" font-family="Helvetica,sans-Serif" font-size="10.00">SwerveSubsystem.addFakeVisionReading</text>
</a>
</g>
</g>
<!-- Node5&#45;&gt;Node6 -->
<g id="edge5_Node000005_Node000006" class="edge">
<title>Node5&#45;&gt;Node6</title>
<g id="a_edge5_Node000005_Node000006"><a xlink:title=" ">
<path fill="none" stroke="#63b8ff" d="M618.62,-354.44C596.61,-359.4 572.95,-364.74 551.61,-369.55"/>
<polygon fill="#63b8ff" stroke="#63b8ff" points="619.15,-357.9 628.14,-352.29 617.61,-351.08 619.15,-357.9"/>
</a>
</g>
</g>
<!-- Node7 -->
<g id="Node000007" class="node">
<title>Node7</title>
<g id="a_Node000007"><a xlink:href="classedu_1_1wpi_1_1first_1_1wpilibj_1_1_motor_safety.html#a378effe2109461036a883da6e4a86675" target="_top" xlink:title=" ">
<polygon fill="white" stroke="#666666" points="544.5,-351.5 417.5,-351.5 417.5,-321 544.5,-321 544.5,-351.5"/>
<text text-anchor="start" x="425.5" y="-338" font-family="Helvetica,sans-Serif" font-size="10.00">edu.wpi.first.wpilibj.Motor</text>
<text text-anchor="middle" x="481" y="-326.75" font-family="Helvetica,sans-Serif" font-size="10.00">Safety.check</text>
</a>
</g>
</g>
<!-- Node5&#45;&gt;Node7 -->
<g id="edge6_Node000005_Node000007" class="edge">
<title>Node5&#45;&gt;Node7</title>
<g id="a_edge6_Node000005_Node000007"><a xlink:title=" ">
<path fill="none" stroke="#63b8ff" d="M617.16,-336.25C593.15,-336.25 567.29,-336.25 544.69,-336.25"/>
<polygon fill="#63b8ff" stroke="#63b8ff" points="616.9,-339.75 626.9,-336.25 616.9,-332.75 616.9,-339.75"/>
</a>
</g>
</g>
<!-- Node8 -->
<g id="Node000008" class="node">
<title>Node8</title>
<g id="a_Node000008"><a xlink:href="classedu_1_1wpi_1_1first_1_1wpilibj_1_1_watchdog.html#aacdc6efc6b79902319f7b07344298c49" target="_top" xlink:title=" ">
<polygon fill="white" stroke="#666666" points="569.62,-253.88 392.38,-253.88 392.38,-234.62 569.62,-234.62 569.62,-253.88"/>
<text text-anchor="middle" x="481" y="-240.38" font-family="Helvetica,sans-Serif" font-size="10.00">edu.wpi.first.wpilibj.Watchdog.enable</text>
</a>
</g>
</g>
<!-- Node5&#45;&gt;Node8 -->
<g id="edge7_Node000005_Node000008" class="edge">
<title>Node5&#45;&gt;Node8</title>
<g id="a_edge7_Node000005_Node000008"><a xlink:title=" ">
<path fill="none" stroke="#63b8ff" d="M670.21,-313.9C647.41,-297.45 614.25,-275.84 582,-263.25 572.78,-259.65 562.81,-256.72 552.86,-254.33"/>
<polygon fill="#63b8ff" stroke="#63b8ff" points="667.96,-316.59 678.09,-319.69 672.11,-310.95 667.96,-316.59"/>
</a>
</g>
</g>
<!-- Node10 -->
<g id="Node000010" class="node">
<title>Node10</title>
<g id="a_Node000010"><a xlink:href="classedu_1_1wpi_1_1first_1_1wpilibj_1_1_motor_safety.html#a1cf5b3c42e8b01f45af0004135ce0ef3" target="_top" xlink:title=" ">
<polygon fill="white" stroke="#666666" points="544.5,-302.5 417.5,-302.5 417.5,-272 544.5,-272 544.5,-302.5"/>
<text text-anchor="start" x="425.5" y="-289" font-family="Helvetica,sans-Serif" font-size="10.00">edu.wpi.first.wpilibj.Motor</text>
<text text-anchor="middle" x="481" y="-277.75" font-family="Helvetica,sans-Serif" font-size="10.00">Safety.feed</text>
</a>
</g>
</g>
<!-- Node5&#45;&gt;Node10 -->
<g id="edge10_Node000005_Node000010" class="edge">
<title>Node5&#45;&gt;Node10</title>
<g id="a_edge10_Node000005_Node000010"><a xlink:title=" ">
<path fill="none" stroke="#63b8ff" d="M618.61,-318.06C594.29,-312.58 567.98,-306.64 544.99,-301.46"/>
<polygon fill="#63b8ff" stroke="#63b8ff" points="617.61,-321.42 628.14,-320.21 619.15,-314.6 617.61,-321.42"/>
</a>
</g>
</g>
<!-- Node18 -->
<g id="Node000018" class="node">
<title>Node18</title>
<g id="a_Node000018"><a xlink:href="classedu_1_1wpi_1_1first_1_1wpilibj_1_1_watchdog.html#a651b0d80df35d997e47df83c15bc6b1b" target="_top" xlink:title=" ">
<polygon fill="white" stroke="#666666" points="573,-535.88 389,-535.88 389,-516.62 573,-516.62 573,-535.88"/>
<text text-anchor="middle" x="481" y="-522.38" font-family="Helvetica,sans-Serif" font-size="10.00">edu.wpi.first.wpilibj.Watchdog.getTime</text>
</a>
</g>
</g>
<!-- Node5&#45;&gt;Node18 -->
<g id="edge18_Node000005_Node000018" class="edge">
<title>Node5&#45;&gt;Node18</title>
<g id="a_edge18_Node000005_Node000018"><a xlink:title=" ">
<path fill="none" stroke="#63b8ff" d="M689.16,-362.14C672.8,-400.44 636.72,-471.5 582,-507.25 576.53,-510.83 570.55,-513.77 564.32,-516.18"/>
<polygon fill="#63b8ff" stroke="#63b8ff" points="692.26,-363.8 692.84,-353.22 685.79,-361.12 692.26,-363.8"/>
</a>
</g>
</g>
<!-- Node19 -->
<g id="Node000019" class="node">
<title>Node19</title>
<g id="a_Node000019"><a xlink:href="classedu_1_1wpi_1_1first_1_1wpilibj_1_1_motor_safety.html#a846ee424c635e266f91aca1fdcef760f" target="_top" xlink:title=" ">
<polygon fill="white" stroke="#666666" points="544.5,-498.5 417.5,-498.5 417.5,-468 544.5,-468 544.5,-498.5"/>
<text text-anchor="start" x="425.5" y="-485" font-family="Helvetica,sans-Serif" font-size="10.00">edu.wpi.first.wpilibj.Motor</text>
<text text-anchor="middle" x="481" y="-473.75" font-family="Helvetica,sans-Serif" font-size="10.00">Safety.isAlive</text>
</a>
</g>
</g>
<!-- Node5&#45;&gt;Node19 -->
<g id="edge19_Node000005_Node000019" class="edge">
<title>Node5&#45;&gt;Node19</title>
<g id="a_edge19_Node000005_Node000019"><a xlink:title=" ">
<path fill="none" stroke="#63b8ff" d="M682.41,-360.73C661.93,-388.61 624.75,-433.48 582,-458.25 570.7,-464.8 557.71,-469.65 544.91,-473.23"/>
<polygon fill="#63b8ff" stroke="#63b8ff" points="685.07,-363.03 688.06,-352.87 679.38,-358.95 685.07,-363.03"/>
</a>
</g>
</g>
<!-- Node20 -->
<g id="Node000020" class="node">
<title>Node20</title>
<g id="a_Node000020"><a xlink:href="classedu_1_1wpi_1_1first_1_1wpilibj_1_1_watchdog.html#a721d8b1a9ebc2ab5d11b1b3fddc2fd96" target="_top" xlink:title=" ">
<polygon fill="white" stroke="#666666" points="562.12,-216.5 399.88,-216.5 399.88,-186 562.12,-186 562.12,-216.5"/>
<text text-anchor="start" x="407.88" y="-203" font-family="Helvetica,sans-Serif" font-size="10.00">edu.wpi.first.wpilibj.Watchdog.set</text>
<text text-anchor="middle" x="481" y="-191.75" font-family="Helvetica,sans-Serif" font-size="10.00">Timeout</text>
</a>
</g>
</g>
<!-- Node5&#45;&gt;Node20 -->
<g id="edge20_Node000005_Node000020" class="edge">
<title>Node5&#45;&gt;Node20</title>
<g id="a_edge20_Node000005_Node000020"><a xlink:title=" ">
<path fill="none" stroke="#63b8ff" d="M674.87,-313.13C640.61,-280.66 582.35,-225.44 582,-225.25 575.88,-221.93 569.3,-219.07 562.55,-216.6"/>
<polygon fill="#63b8ff" stroke="#63b8ff" points="672.25,-315.47 681.91,-319.81 677.06,-310.39 672.25,-315.47"/>
</a>
</g>
</g>
<!-- Node21 -->
<g id="Node000021" class="node">
<title>Node21</title>
<g id="a_Node000021"><a xlink:href="classedu_1_1wpi_1_1first_1_1wpilibj_1_1_timed_robot.html#ad671bcbaca1d342efeb25c34dfdc7782" target="_top" xlink:title=" ">
<polygon fill="white" stroke="#666666" points="545.62,-449.5 416.38,-449.5 416.38,-419 545.62,-419 545.62,-449.5"/>
<text text-anchor="start" x="424.38" y="-436" font-family="Helvetica,sans-Serif" font-size="10.00">edu.wpi.first.wpilibj.Timed</text>
<text text-anchor="middle" x="481" y="-424.75" font-family="Helvetica,sans-Serif" font-size="10.00">Robot.TimedRobot</text>
</a>
</g>
</g>
<!-- Node5&#45;&gt;Node21 -->
<g id="edge21_Node000005_Node000021" class="edge">
<title>Node5&#45;&gt;Node21</title>
<g id="a_edge21_Node000005_Node000021"><a xlink:title=" ">
<path fill="none" stroke="#63b8ff" d="M669.58,-358.37C646.69,-374.51 613.68,-395.82 582,-409.25 570.63,-414.07 558.13,-418.11 545.92,-421.43"/>
<polygon fill="#63b8ff" stroke="#63b8ff" points="671.41,-361.36 677.5,-352.69 667.34,-355.67 671.41,-361.36"/>
</a>
</g>
</g>
<!-- Node9 -->
<g id="Node000009" class="node">
<title>Node9</title>
<g id="a_Node000009"><a xlink:href="classedu_1_1wpi_1_1first_1_1wpilibj_1_1_watchdog.html#afbebfdef0304b43e207e20d43cfba7bb" target="_top" xlink:title=" ">
<polygon fill="white" stroke="#666666" points="344,-155.88 173.5,-155.88 173.5,-136.62 344,-136.62 344,-155.88"/>
<text text-anchor="middle" x="258.75" y="-142.38" font-family="Helvetica,sans-Serif" font-size="10.00">edu.wpi.first.wpilibj.Watchdog.reset</text>
</a>
</g>
</g>
<!-- Node8&#45;&gt;Node9 -->
<g id="edge8_Node000008_Node000009" class="edge">
<title>Node8&#45;&gt;Node9</title>
<g id="a_edge8_Node000008_Node000009"><a xlink:title=" ">
<path fill="none" stroke="#63b8ff" d="M386.15,-229.12C384.04,-227.92 381.98,-226.63 380,-225.25 354.49,-207.46 369.2,-183.47 344,-165.25 339.02,-161.65 333.47,-158.71 327.67,-156.32"/>
<polygon fill="#63b8ff" stroke="#63b8ff" points="384.55,-232.24 395.08,-233.47 387.62,-225.94 384.55,-232.24"/>
</a>
</g>
</g>
<!-- Node9&#45;&gt;Node4 -->
<g id="edge9_Node000009_Node000004" class="edge">
<title>Node9&#45;&gt;Node4</title>
<g id="a_edge9_Node000009_Node000004"><a xlink:title=" ">
<path fill="none" stroke="#63b8ff" d="M161.73,-136.55C153.68,-135.73 145.65,-134.92 137.88,-134.14"/>
<polygon fill="#63b8ff" stroke="#63b8ff" points="161.29,-140.02 171.59,-137.54 162,-133.05 161.29,-140.02"/>
</a>
</g>
</g>
<!-- Node11 -->
<g id="Node000011" class="node">
<title>Node11</title>
<g id="a_Node000011"><a xlink:href="classedu_1_1wpi_1_1first_1_1wpilibj_1_1drive_1_1_differential_drive.html#ac127c082834f02d435b1da69e221221e" target="_top" xlink:title=" ">
<polygon fill="white" stroke="#666666" points="329.75,-204.5 187.75,-204.5 187.75,-174 329.75,-174 329.75,-204.5"/>
<text text-anchor="start" x="195.75" y="-191" font-family="Helvetica,sans-Serif" font-size="10.00">edu.wpi.first.wpilibj.drive.</text>
<text text-anchor="middle" x="258.75" y="-179.75" font-family="Helvetica,sans-Serif" font-size="10.00">DifferentialDrive.arcadeDrive</text>
</a>
</g>
</g>
<!-- Node10&#45;&gt;Node11 -->
<g id="edge11_Node000010_Node000011" class="edge">
<title>Node10&#45;&gt;Node11</title>
<g id="a_edge11_Node000010_Node000011"><a xlink:title=" ">
<path fill="none" stroke="#63b8ff" d="M406.24,-275.89C396.97,-272.67 387.96,-268.54 380,-263.25 357.49,-248.3 366.11,-229.79 344,-214.25 338.88,-210.65 333.24,-207.57 327.38,-204.92"/>
<polygon fill="#63b8ff" stroke="#63b8ff" points="405.15,-279.21 415.74,-278.82 407.21,-272.53 405.15,-279.21"/>
</a>
</g>
</g>
<!-- Node12 -->
<g id="Node000012" class="node">
<title>Node12</title>
<g id="a_Node000012"><a xlink:href="classedu_1_1wpi_1_1first_1_1wpilibj_1_1drive_1_1_differential_drive.html#aa26c304f5d903f8a042548e4b339dbd9" target="_top" xlink:title=" ">
<polygon fill="white" stroke="#666666" points="335.38,-498.5 182.12,-498.5 182.12,-468 335.38,-468 335.38,-498.5"/>
<text text-anchor="start" x="190.12" y="-485" font-family="Helvetica,sans-Serif" font-size="10.00">edu.wpi.first.wpilibj.drive.</text>
<text text-anchor="middle" x="258.75" y="-473.75" font-family="Helvetica,sans-Serif" font-size="10.00">DifferentialDrive.curvatureDrive</text>
</a>
</g>
</g>
<!-- Node10&#45;&gt;Node12 -->
<g id="edge12_Node000010_Node000012" class="edge">
<title>Node10&#45;&gt;Node12</title>
<g id="a_edge12_Node000010_Node000012"><a xlink:title=" ">
<path fill="none" stroke="#63b8ff" d="M406.23,-295.79C396.47,-299.59 387.33,-304.9 380,-312.25 332.82,-359.58 390.14,-409.9 344,-458.25 340.52,-461.89 336.54,-465.01 332.25,-467.68"/>
<polygon fill="#63b8ff" stroke="#63b8ff" points="407.18,-299.16 415.57,-292.69 404.97,-292.52 407.18,-299.16"/>
</a>
</g>
</g>
<!-- Node13 -->
<g id="Node000013" class="node">
<title>Node13</title>
<g id="a_Node000013"><a xlink:href="classedu_1_1wpi_1_1first_1_1wpilibj_1_1drive_1_1_mecanum_drive.html#a346448c6268f5e7eac322b055d9544d4" target="_top" xlink:title=" ">
<polygon fill="white" stroke="#666666" points="332.75,-449.5 184.75,-449.5 184.75,-419 332.75,-419 332.75,-449.5"/>
<text text-anchor="start" x="192.75" y="-436" font-family="Helvetica,sans-Serif" font-size="10.00">edu.wpi.first.wpilibj.drive.</text>
<text text-anchor="middle" x="258.75" y="-424.75" font-family="Helvetica,sans-Serif" font-size="10.00">MecanumDrive.driveCartesian</text>
</a>
</g>
</g>
<!-- Node10&#45;&gt;Node13 -->
<g id="edge13_Node000010_Node000013" class="edge">
<title>Node10&#45;&gt;Node13</title>
<g id="a_edge13_Node000010_Node000013"><a xlink:title=" ">
<path fill="none" stroke="#63b8ff" d="M406.09,-296.88C396.55,-300.55 387.51,-305.53 380,-312.25 345.74,-342.92 377.59,-377.84 344,-409.25 340.1,-412.9 335.69,-416.01 330.99,-418.68"/>
<polygon fill="#63b8ff" stroke="#63b8ff" points="407.18,-300.21 415.58,-293.75 404.99,-293.56 407.18,-300.21"/>
</a>
</g>
</g>
<!-- Node14 -->
<g id="Node000014" class="node">
<title>Node14</title>
<g id="a_Node000014"><a xlink:href="classedu_1_1wpi_1_1first_1_1wpilibj_1_1drive_1_1_robot_drive_base.html#a1ec69d1094ba16beb8fa50383608b969" target="_top" xlink:title=" ">
<polygon fill="white" stroke="#666666" points="335.38,-400.5 182.12,-400.5 182.12,-370 335.38,-370 335.38,-400.5"/>
<text text-anchor="start" x="190.12" y="-387" font-family="Helvetica,sans-Serif" font-size="10.00">edu.wpi.first.wpilibj.drive.</text>
<text text-anchor="middle" x="258.75" y="-375.75" font-family="Helvetica,sans-Serif" font-size="10.00">RobotDriveBase.feedWatchdog</text>
</a>
</g>
</g>
<!-- Node10&#45;&gt;Node14 -->
<g id="edge14_Node000010_Node000014" class="edge">
<title>Node10&#45;&gt;Node14</title>
<g id="a_edge14_Node000010_Node000014"><a xlink:title=" ">
<path fill="none" stroke="#63b8ff" d="M406.27,-299.48C397,-302.77 387.98,-306.95 380,-312.25 357.78,-327 365.89,-345.02 344,-360.25 338.87,-363.82 333.21,-366.89 327.34,-369.53"/>
<polygon fill="#63b8ff" stroke="#63b8ff" points="407.31,-302.82 415.78,-296.47 405.19,-296.15 407.31,-302.82"/>
</a>
</g>
</g>
<!-- Node15 -->
<g id="Node000015" class="node">
<title>Node15</title>
<g id="a_Node000015"><a xlink:href="classedu_1_1wpi_1_1first_1_1wpilibj_1_1drive_1_1_differential_drive.html#ae0a416b71c085dccbe717fb72164b6bf" target="_top" xlink:title=" ">
<polygon fill="white" stroke="#666666" points="325.25,-351.5 192.25,-351.5 192.25,-321 325.25,-321 325.25,-351.5"/>
<text text-anchor="start" x="200.25" y="-338" font-family="Helvetica,sans-Serif" font-size="10.00">edu.wpi.first.wpilibj.drive.</text>
<text text-anchor="middle" x="258.75" y="-326.75" font-family="Helvetica,sans-Serif" font-size="10.00">DifferentialDrive.stopMotor</text>
</a>
</g>
</g>
<!-- Node10&#45;&gt;Node15 -->
<g id="edge15_Node000010_Node000015" class="edge">
<title>Node10&#45;&gt;Node15</title>
<g id="a_edge15_Node000010_Node000015"><a xlink:title=" ">
<path fill="none" stroke="#63b8ff" d="M406.23,-303.66C380.18,-309.46 351.08,-315.93 325.73,-321.57"/>
<polygon fill="#63b8ff" stroke="#63b8ff" points="406.7,-307.14 415.7,-301.55 405.18,-300.31 406.7,-307.14"/>
</a>
</g>
</g>
<!-- Node16 -->
<g id="Node000016" class="node">
<title>Node16</title>
<g id="a_Node000016"><a xlink:href="classedu_1_1wpi_1_1first_1_1wpilibj_1_1drive_1_1_mecanum_drive.html#a705384b17e708185aaff6f931f68c8ff" target="_top" xlink:title=" ">
<polygon fill="white" stroke="#666666" points="323,-302.5 194.5,-302.5 194.5,-272 323,-272 323,-302.5"/>
<text text-anchor="start" x="202.5" y="-289" font-family="Helvetica,sans-Serif" font-size="10.00">edu.wpi.first.wpilibj.drive.</text>
<text text-anchor="middle" x="258.75" y="-277.75" font-family="Helvetica,sans-Serif" font-size="10.00">MecanumDrive.stopMotor</text>
</a>
</g>
</g>
<!-- Node10&#45;&gt;Node16 -->
<g id="edge16_Node000010_Node000016" class="edge">
<title>Node10&#45;&gt;Node16</title>
<g id="a_edge16_Node000010_Node000016"><a xlink:title=" ">
<path fill="none" stroke="#63b8ff" d="M405.93,-287.25C379.17,-287.25 349.21,-287.25 323.42,-287.25"/>
<polygon fill="#63b8ff" stroke="#63b8ff" points="405.67,-290.75 415.67,-287.25 405.67,-283.75 405.67,-290.75"/>
</a>
</g>
</g>
<!-- Node17 -->
<g id="Node000017" class="node">
<title>Node17</title>
<g id="a_Node000017"><a xlink:href="classedu_1_1wpi_1_1first_1_1wpilibj_1_1drive_1_1_differential_drive.html#a9de9fe4f7b51d1e79f93cfc326391917" target="_top" xlink:title=" ">
<polygon fill="white" stroke="#666666" points="324.5,-253.5 193,-253.5 193,-223 324.5,-223 324.5,-253.5"/>
<text text-anchor="start" x="201" y="-240" font-family="Helvetica,sans-Serif" font-size="10.00">edu.wpi.first.wpilibj.drive.</text>
<text text-anchor="middle" x="258.75" y="-228.75" font-family="Helvetica,sans-Serif" font-size="10.00">DifferentialDrive.tankDrive</text>
</a>
</g>
</g>
<!-- Node10&#45;&gt;Node17 -->
<g id="edge17_Node000010_Node000017" class="edge">
<title>Node10&#45;&gt;Node17</title>
<g id="a_edge17_Node000010_Node000017"><a xlink:title=" ">
<path fill="none" stroke="#63b8ff" d="M406.13,-270.81C379.84,-264.97 350.46,-258.43 324.95,-252.76"/>
<polygon fill="#63b8ff" stroke="#63b8ff" points="405.18,-274.19 415.7,-272.95 406.7,-267.36 405.18,-274.19"/>
</a>
</g>
</g>
<!-- Node24 -->
<g id="Node000024" class="node">
<title>Node24</title>
<g id="a_Node000024"><a xlink:href="classedu_1_1wpi_1_1first_1_1wpilibj_1_1_tracer.html#a7af804d6dc75797c90b3701efe9917fb" target="_top" xlink:title=" ">
<polygon fill="white" stroke="#666666" points="776.88,-250.5 623.62,-250.5 623.62,-220 776.88,-220 776.88,-250.5"/>
<text text-anchor="start" x="631.62" y="-237" font-family="Helvetica,sans-Serif" font-size="10.00">edu.wpi.first.wpilibj.Tracer.clear</text>
<text text-anchor="middle" x="700.25" y="-225.75" font-family="Helvetica,sans-Serif" font-size="10.00">Epochs</text>
</a>
</g>
</g>
<!-- Node23&#45;&gt;Node24 -->
<g id="edge24_Node000023_Node000024" class="edge">
<title>Node23&#45;&gt;Node24</title>
<g id="a_edge24_Node000023_Node000024"><a xlink:title=" ">
<path fill="none" stroke="#63b8ff" d="M807.53,-222.1C797.43,-223.35 787.19,-224.62 777.26,-225.85"/>
<polygon fill="#63b8ff" stroke="#63b8ff" points="807.86,-225.59 817.35,-220.89 807,-218.64 807.86,-225.59"/>
</a>
</g>
</g>
<!-- Node25 -->
<g id="Node000025" class="node">
<title>Node25</title>
<g id="a_Node000025"><a xlink:href="classedu_1_1wpi_1_1first_1_1wpilibj_1_1_tracer.html#a7e961486be4734200ce7f9517c9aee26" target="_top" xlink:title=" ">
<polygon fill="white" stroke="#666666" points="766.38,-201.5 634.12,-201.5 634.12,-171 766.38,-171 766.38,-201.5"/>
<text text-anchor="start" x="642.12" y="-188" font-family="Helvetica,sans-Serif" font-size="10.00">edu.wpi.first.wpilibj.Tracer.</text>
<text text-anchor="middle" x="700.25" y="-176.75" font-family="Helvetica,sans-Serif" font-size="10.00">Tracer</text>
</a>
</g>
</g>
<!-- Node23&#45;&gt;Node25 -->
<g id="edge27_Node000023_Node000025" class="edge">
<title>Node23&#45;&gt;Node25</title>
<g id="a_edge27_Node000023_Node000025"><a xlink:title=" ">
<path fill="none" stroke="#63b8ff" d="M807.82,-199.98C793.96,-198.2 779.83,-196.38 766.59,-194.67"/>
<polygon fill="#63b8ff" stroke="#63b8ff" points="806.99,-203.4 817.35,-201.21 807.88,-196.46 806.99,-203.4"/>
</a>
</g>
</g>
<!-- Node24&#45;&gt;Node8 -->
<g id="edge25_Node000024_Node000008" class="edge">
<title>Node24&#45;&gt;Node8</title>
<g id="a_edge25_Node000024_Node000008"><a xlink:title=" ">
<path fill="none" stroke="#63b8ff" d="M611.79,-238.87C597.97,-239.45 583.68,-240.04 569.85,-240.61"/>
<polygon fill="#63b8ff" stroke="#63b8ff" points="611.91,-242.37 621.75,-238.46 611.62,-235.38 611.91,-242.37"/>
</a>
</g>
</g>
<!-- Node24&#45;&gt;Node20 -->
<g id="edge26_Node000024_Node000020" class="edge">
<title>Node24&#45;&gt;Node20</title>
<g id="a_edge26_Node000024_Node000020"><a xlink:title=" ">
<path fill="none" stroke="#63b8ff" d="M612.04,-221.6C595.63,-219.03 578.55,-216.36 562.37,-213.83"/>
<polygon fill="#63b8ff" stroke="#63b8ff" points="611.35,-225.04 621.77,-223.12 612.43,-218.12 611.35,-225.04"/>
</a>
</g>
</g>
</g>
</svg>

<g id="navigator" transform="translate(0 0)" fill="#404254">
  <rect fill="#f2f5e9" fill-opacity="0.5" stroke="#606060" stroke-width=".5" x="0" y="0" width="60" height="60"/>
  <use id="zoomplus" xlink:href="#zoomPlus" x="17" y="9" onmousedown="handleZoom(evt,'in')"/>
  <use id="zoomminus" xlink:href="#zoomMin" x="42" y="9" onmousedown="handleZoom(evt,'out')"/>
  <use id="reset" xlink:href="#resetDef" x="30" y="36" onmousedown="handleReset()"/>
   <use id="arrowup" xlink:href="#arrowUp" x="0" y="0" onmousedown="handlePan(0,-1)"/>
  <use id="arrowright" xlink:href="#arrowRight" x="0" y="0" onmousedown="handlePan(1,0)"/>
  <use id="arrowdown" xlink:href="#arrowDown" x="0" y="0" onmousedown="handlePan(0,1)"/>
  <use id="arrowleft" xlink:href="#arrowLeft" x="0" y="0" onmousedown="handlePan(-1,0)"/>
</g>
<svg viewBox="0 0 15 15" width="100%" height="30px" preserveAspectRatio="xMaxYMin meet">
 <g id="arrow_out" transform="scale(0.3 0.3)">
  <a xlink:href="classedu_1_1wpi_1_1first_1_1wpilibj_1_1_robot_controller_a0768221aed0858ad185f14c8218300e0_icgraph_org.svg" target="_base">
   <rect id="button" ry="5" rx="5" y="6" x="6" height="38" width="38"
        fill="#f2f5e9" fill-opacity="0.5" stroke="#606060" stroke-width="1.0"/>
   <path id="arrow"
     d="M 11.500037,31.436501 C 11.940474,20.09759 22.043105,11.32322 32.158766,21.979434 L 37.068811,17.246167 C 37.068811,17.246167 37.088388,32 37.088388,32 L 22.160133,31.978069 C 22.160133,31.978069 26.997745,27.140456 26.997745,27.140456 C 18.528582,18.264221 13.291696,25.230495 11.500037,31.436501 z"
     style="fill:#404040;"/>
  </a>
 </g>
</svg>

<style type='text/css'>
<![CDATA[
[data-mouse-over-selected='false'] { opacity: 0.7; }
[data-mouse-over-selected='true']  { opacity: 1.0; }
]]>
</style>
<script type="application/ecmascript"><![CDATA[
document.addEventListener('DOMContentLoaded', (event) => {
  highlightEdges();
  highlightAdjacentNodes();
});
]]></script>
</svg>
