<?xml version="1.0" encoding="UTF-8" standalone="no"?>
<!DOCTYPE svg PUBLIC "-//W3C//DTD SVG 1.1//EN"
 "http://www.w3.org/Graphics/SVG/1.1/DTD/svg11.dtd">
<!-- Generated by graphviz version 9.0.0 (20230911.1827)
 -->
<!-- Title: edu.wpi.first.wpilibj.Tracer.printEpochs Pages: 1 -->
<svg width="536pt" height="57pt"
 viewBox="0.00 0.00 536.00 56.50" xmlns="http://www.w3.org/2000/svg" xmlns:xlink="http://www.w3.org/1999/xlink">
<g id="graph0" class="graph" transform="scale(1 1) rotate(0) translate(4 52.5)">
<title>edu.wpi.first.wpilibj.Tracer.printEpochs</title>
<!-- Node1 -->
<g id="Node000001" class="node">
<title>Node1</title>
<g id="a_Node000001"><a xlink:title=" ">
<polygon fill="#999999" stroke="#666666" points="528,-30.5 377,-30.5 377,0 528,0 528,-30.5"/>
<text text-anchor="start" x="385" y="-17" font-family="Helvetica,sans-Serif" font-size="10.00">edu.wpi.first.wpilibj.Tracer.print</text>
<text text-anchor="middle" x="452.5" y="-5.75" font-family="Helvetica,sans-Serif" font-size="10.00">Epochs</text>
</a>
</g>
</g>
<!-- Node1&#45;&gt;Node1 -->
<g id="edge1_Node000001_Node000001" class="edge">
<title>Node1&#45;&gt;Node1</title>
<g id="a_edge1_Node000001_Node000001"><a xlink:title=" ">
<path fill="none" stroke="#63b8ff" d="M485.24,-42.2C479.89,-45.97 468.98,-48.5 452.5,-48.5 422.37,-48.5 410.84,-40.06 417.9,-30.99"/>
<polygon fill="#63b8ff" stroke="#63b8ff" points="488.67,-42.92 486.85,-32.48 481.77,-41.77 488.67,-42.92"/>
</a>
</g>
</g>
<!-- Node2 -->
<g id="Node000002" class="node">
<title>Node2</title>
<g id="a_Node000002"><a xlink:href="classedu_1_1wpi_1_1first_1_1wpilibj_1_1_watchdog.html#a2576eb19306b2ba1468902b48818e6ad" target="_top" xlink:title=" ">
<polygon fill="white" stroke="#666666" points="341,-30.5 173.5,-30.5 173.5,0 341,0 341,-30.5"/>
<text text-anchor="start" x="181.5" y="-17" font-family="Helvetica,sans-Serif" font-size="10.00">edu.wpi.first.wpilibj.Watchdog.print</text>
<text text-anchor="middle" x="257.25" y="-5.75" font-family="Helvetica,sans-Serif" font-size="10.00">Epochs</text>
</a>
</g>
</g>
<!-- Node1&#45;&gt;Node2 -->
<g id="edge2_Node000001_Node000002" class="edge">
<title>Node1&#45;&gt;Node2</title>
<g id="a_edge2_Node000001_Node000002"><a xlink:title=" ">
<path fill="none" stroke="#63b8ff" d="M365.01,-15.25C357.1,-15.25 349.1,-15.25 341.22,-15.25"/>
<polygon fill="#63b8ff" stroke="#63b8ff" points="364.99,-18.75 374.99,-15.25 364.99,-11.75 364.99,-18.75"/>
</a>
</g>
</g>
<!-- Node3 -->
<g id="Node000003" class="node">
<title>Node3</title>
<g id="a_Node000003"><a xlink:href="classedu_1_1wpi_1_1first_1_1wpilibj_1_1_iterative_robot_base.html#aac5c45d7130bce188e0f9278075e8891" target="_top" xlink:title=" ">
<polygon fill="white" stroke="#666666" points="137.5,-30.5 0,-30.5 0,0 137.5,0 137.5,-30.5"/>
<text text-anchor="start" x="8" y="-17" font-family="Helvetica,sans-Serif" font-size="10.00">edu.wpi.first.wpilibj.Iterative</text>
<text text-anchor="middle" x="68.75" y="-5.75" font-family="Helvetica,sans-Serif" font-size="10.00">RobotBase.loopFunc</text>
</a>
</g>
</g>
<!-- Node2&#45;&gt;Node3 -->
<g id="edge3_Node000002_Node000003" class="edge">
<title>Node2&#45;&gt;Node3</title>
<g id="a_edge3_Node000002_Node000003"><a xlink:title=" ">
<path fill="none" stroke="#63b8ff" d="M161.75,-15.25C153.72,-15.25 145.71,-15.25 137.94,-15.25"/>
<polygon fill="#63b8ff" stroke="#63b8ff" points="161.58,-18.75 171.58,-15.25 161.58,-11.75 161.58,-18.75"/>
</a>
</g>
</g>
</g>
</svg>
