<?xml version="1.0" encoding="UTF-8" standalone="no"?>
<!DOCTYPE svg PUBLIC "-//W3C//DTD SVG 1.1//EN"
 "http://www.w3.org/Graphics/SVG/1.1/DTD/svg11.dtd">
<!-- Generated by graphviz version 9.0.0 (20230911.1827)
 -->
<!-- Title: edu.wpi.first.wpilibj.simulation.XboxControllerSim.XboxControllerSim Pages: 1 -->
<svg width="617pt" height="137pt"
 viewBox="0.00 0.00 617.00 136.50" xmlns="http://www.w3.org/2000/svg" xmlns:xlink="http://www.w3.org/1999/xlink">
<g id="graph0" class="graph" transform="scale(1 1) rotate(0) translate(4 132.5)">
<title>edu.wpi.first.wpilibj.simulation.XboxControllerSim.XboxControllerSim</title>
<!-- Node1 -->
<g id="Node000001" class="node">
<title>Node1</title>
<g id="a_Node000001"><a xlink:title=" ">
<polygon fill="#999999" stroke="#666666" points="182.5,-79.5 0,-79.5 0,-49 182.5,-49 182.5,-79.5"/>
<text text-anchor="start" x="8" y="-66" font-family="Helvetica,sans-Serif" font-size="10.00">edu.wpi.first.wpilibj.simulation.</text>
<text text-anchor="middle" x="91.25" y="-54.75" font-family="Helvetica,sans-Serif" font-size="10.00">XboxControllerSim.XboxControllerSim</text>
</a>
</g>
</g>
<!-- Node2 -->
<g id="Node000002" class="node">
<title>Node2</title>
<g id="a_Node000002"><a xlink:href="classedu_1_1wpi_1_1first_1_1wpilibj_1_1simulation_1_1_generic_h_i_d_sim.html#aab17783b48637e3746245ae4eb2dfc9c" target="_top" xlink:title=" ">
<polygon fill="white" stroke="#666666" points="371.38,-128.5 221.88,-128.5 221.88,-98 371.38,-98 371.38,-128.5"/>
<text text-anchor="start" x="229.88" y="-115" font-family="Helvetica,sans-Serif" font-size="10.00">edu.wpi.first.wpilibj.simulation.</text>
<text text-anchor="middle" x="296.62" y="-103.75" font-family="Helvetica,sans-Serif" font-size="10.00">GenericHIDSim.setAxisCount</text>
</a>
</g>
</g>
<!-- Node1&#45;&gt;Node2 -->
<g id="edge1_Node000001_Node000002" class="edge">
<title>Node1&#45;&gt;Node2</title>
<g id="a_edge1_Node000001_Node000002"><a xlink:title=" ">
<path fill="none" stroke="#63b8ff" d="M157.44,-79.96C177.14,-84.7 198.95,-89.96 219.32,-94.86"/>
<polygon fill="#63b8ff" stroke="#63b8ff" points="218.44,-98.25 228.99,-97.19 220.08,-91.45 218.44,-98.25"/>
</a>
</g>
</g>
<!-- Node4 -->
<g id="Node000004" class="node">
<title>Node4</title>
<g id="a_Node000004"><a xlink:href="classedu_1_1wpi_1_1first_1_1wpilibj_1_1simulation_1_1_generic_h_i_d_sim.html#a4ba868164c051e136c5cf8072afe5f7b" target="_top" xlink:title=" ">
<polygon fill="white" stroke="#666666" points="374.75,-79.5 218.5,-79.5 218.5,-49 374.75,-49 374.75,-79.5"/>
<text text-anchor="start" x="226.5" y="-66" font-family="Helvetica,sans-Serif" font-size="10.00">edu.wpi.first.wpilibj.simulation.</text>
<text text-anchor="middle" x="296.62" y="-54.75" font-family="Helvetica,sans-Serif" font-size="10.00">GenericHIDSim.setButtonCount</text>
</a>
</g>
</g>
<!-- Node1&#45;&gt;Node4 -->
<g id="edge3_Node000001_Node000004" class="edge">
<title>Node1&#45;&gt;Node4</title>
<g id="a_edge3_Node000001_Node000004"><a xlink:title=" ">
<path fill="none" stroke="#63b8ff" d="M182.93,-64.25C190.83,-64.25 198.82,-64.25 206.71,-64.25"/>
<polygon fill="#63b8ff" stroke="#63b8ff" points="206.65,-67.75 216.65,-64.25 206.65,-60.75 206.65,-67.75"/>
</a>
</g>
</g>
<!-- Node6 -->
<g id="Node000006" class="node">
<title>Node6</title>
<g id="a_Node000006"><a xlink:href="classedu_1_1wpi_1_1first_1_1wpilibj_1_1simulation_1_1_generic_h_i_d_sim.html#ad1e15d8e4e3a01b203cbe3330dcf5115" target="_top" xlink:title=" ">
<polygon fill="white" stroke="#666666" points="371.38,-30.5 221.88,-30.5 221.88,0 371.38,0 371.38,-30.5"/>
<text text-anchor="start" x="229.88" y="-17" font-family="Helvetica,sans-Serif" font-size="10.00">edu.wpi.first.wpilibj.simulation.</text>
<text text-anchor="middle" x="296.62" y="-5.75" font-family="Helvetica,sans-Serif" font-size="10.00">GenericHIDSim.setPOVCount</text>
</a>
</g>
</g>
<!-- Node1&#45;&gt;Node6 -->
<g id="edge5_Node000001_Node000006" class="edge">
<title>Node1&#45;&gt;Node6</title>
<g id="a_edge5_Node000001_Node000006"><a xlink:title=" ">
<path fill="none" stroke="#63b8ff" d="M157.44,-48.54C177.14,-43.8 198.95,-38.54 219.32,-33.64"/>
<polygon fill="#63b8ff" stroke="#63b8ff" points="220.08,-37.05 228.99,-31.31 218.44,-30.25 220.08,-37.05"/>
</a>
</g>
</g>
<!-- Node3 -->
<g id="Node000003" class="node">
<title>Node3</title>
<g id="a_Node000003"><a xlink:href="classedu_1_1wpi_1_1first_1_1wpilibj_1_1simulation_1_1_driver_station_sim.html#a720454ecaa1181fd774b867b1ec95980" target="_top" xlink:title=" ">
<polygon fill="white" stroke="#666666" points="604.5,-128.5 415.25,-128.5 415.25,-98 604.5,-98 604.5,-128.5"/>
<text text-anchor="start" x="423.25" y="-115" font-family="Helvetica,sans-Serif" font-size="10.00">edu.wpi.first.wpilibj.simulation.</text>
<text text-anchor="middle" x="509.88" y="-103.75" font-family="Helvetica,sans-Serif" font-size="10.00">DriverStationSim.setJoystickAxisCount</text>
</a>
</g>
</g>
<!-- Node2&#45;&gt;Node3 -->
<g id="edge2_Node000002_Node000003" class="edge">
<title>Node2&#45;&gt;Node3</title>
<g id="a_edge2_Node000002_Node000003"><a xlink:title=" ">
<path fill="none" stroke="#63b8ff" d="M371.81,-113.25C382.13,-113.25 392.89,-113.25 403.65,-113.25"/>
<polygon fill="#63b8ff" stroke="#63b8ff" points="403.33,-116.75 413.33,-113.25 403.33,-109.75 403.33,-116.75"/>
</a>
</g>
</g>
<!-- Node5 -->
<g id="Node000005" class="node">
<title>Node5</title>
<g id="a_Node000005"><a xlink:href="classedu_1_1wpi_1_1first_1_1wpilibj_1_1simulation_1_1_driver_station_sim.html#a925bf3aad49f44502c25143d97dba3ea" target="_top" xlink:title=" ">
<polygon fill="white" stroke="#666666" points="609,-79.5 410.75,-79.5 410.75,-49 609,-49 609,-79.5"/>
<text text-anchor="start" x="418.75" y="-66" font-family="Helvetica,sans-Serif" font-size="10.00">edu.wpi.first.wpilibj.simulation.</text>
<text text-anchor="middle" x="509.88" y="-54.75" font-family="Helvetica,sans-Serif" font-size="10.00">DriverStationSim.setJoystickButtonCount</text>
</a>
</g>
</g>
<!-- Node4&#45;&gt;Node5 -->
<g id="edge4_Node000004_Node000005" class="edge">
<title>Node4&#45;&gt;Node5</title>
<g id="a_edge4_Node000004_Node000005"><a xlink:title=" ">
<path fill="none" stroke="#63b8ff" d="M375.09,-64.25C382.93,-64.25 391,-64.25 399.1,-64.25"/>
<polygon fill="#63b8ff" stroke="#63b8ff" points="399.04,-67.75 409.04,-64.25 399.04,-60.75 399.04,-67.75"/>
</a>
</g>
</g>
<!-- Node7 -->
<g id="Node000007" class="node">
<title>Node7</title>
<g id="a_Node000007"><a xlink:href="classedu_1_1wpi_1_1first_1_1wpilibj_1_1simulation_1_1_driver_station_sim.html#a8ac77b1ed78b72282664eeb29407d880" target="_top" xlink:title=" ">
<polygon fill="white" stroke="#666666" points="605.25,-30.5 414.5,-30.5 414.5,0 605.25,0 605.25,-30.5"/>
<text text-anchor="start" x="422.5" y="-17" font-family="Helvetica,sans-Serif" font-size="10.00">edu.wpi.first.wpilibj.simulation.</text>
<text text-anchor="middle" x="509.88" y="-5.75" font-family="Helvetica,sans-Serif" font-size="10.00">DriverStationSim.setJoystickPOVCount</text>
</a>
</g>
</g>
<!-- Node6&#45;&gt;Node7 -->
<g id="edge6_Node000006_Node000007" class="edge">
<title>Node6&#45;&gt;Node7</title>
<g id="a_edge6_Node000006_Node000007"><a xlink:title=" ">
<path fill="none" stroke="#63b8ff" d="M371.81,-15.25C381.85,-15.25 392.3,-15.25 402.77,-15.25"/>
<polygon fill="#63b8ff" stroke="#63b8ff" points="402.59,-18.75 412.59,-15.25 402.59,-11.75 402.59,-18.75"/>
</a>
</g>
</g>
</g>
</svg>
