<?xml version="1.0" encoding="UTF-8" standalone="no"?>
<!DOCTYPE svg PUBLIC "-//W3C//DTD SVG 1.1//EN"
 "http://www.w3.org/Graphics/SVG/1.1/DTD/svg11.dtd">
<!-- Generated by graphviz version 9.0.0 (20230911.1827)
 -->
<!-- Title: edu.wpi.first.wpilibj.simulation.PneumaticsBaseSim.setSolenoidOutput Pages: 1 -->
<svg width="384pt" height="88pt"
 viewBox="0.00 0.00 384.25 87.50" xmlns="http://www.w3.org/2000/svg" xmlns:xlink="http://www.w3.org/1999/xlink">
<g id="graph0" class="graph" transform="scale(1 1) rotate(0) translate(4 83.5)">
<title>edu.wpi.first.wpilibj.simulation.PneumaticsBaseSim.setSolenoidOutput</title>
<!-- Node1 -->
<g id="Node000001" class="node">
<title>Node1</title>
<g id="a_Node000001"><a xlink:title=" ">
<polygon fill="#999999" stroke="#666666" points="376.25,-54.5 185.5,-54.5 185.5,-24 376.25,-24 376.25,-54.5"/>
<text text-anchor="start" x="193.5" y="-41" font-family="Helvetica,sans-Serif" font-size="10.00">edu.wpi.first.wpilibj.simulation.</text>
<text text-anchor="middle" x="280.88" y="-29.75" font-family="Helvetica,sans-Serif" font-size="10.00">PneumaticsBaseSim.setSolenoidOutput</text>
</a>
</g>
</g>
<!-- Node2 -->
<g id="Node000002" class="node">
<title>Node2</title>
<g id="a_Node000002"><a xlink:href="classedu_1_1wpi_1_1first_1_1wpilibj_1_1simulation_1_1_double_solenoid_sim.html#ac917225ccc1bb11ea62f1003911c13c0" target="_top" xlink:title=" ">
<polygon fill="white" stroke="#666666" points="149.5,-79.5 0,-79.5 0,-49 149.5,-49 149.5,-79.5"/>
<text text-anchor="start" x="8" y="-66" font-family="Helvetica,sans-Serif" font-size="10.00">edu.wpi.first.wpilibj.simulation.</text>
<text text-anchor="middle" x="74.75" y="-54.75" font-family="Helvetica,sans-Serif" font-size="10.00">DoubleSolenoidSim.set</text>
</a>
</g>
</g>
<!-- Node1&#45;&gt;Node2 -->
<g id="edge1_Node000001_Node000002" class="edge">
<title>Node1&#45;&gt;Node2</title>
<g id="a_edge1_Node000001_Node000002"><a xlink:title=" ">
<path fill="none" stroke="#63b8ff" d="M174.12,-52.2C165.93,-53.21 157.77,-54.2 149.86,-55.17"/>
<polygon fill="#63b8ff" stroke="#63b8ff" points="174.28,-55.71 183.78,-51.02 173.43,-48.76 174.28,-55.71"/>
</a>
</g>
</g>
<!-- Node3 -->
<g id="Node000003" class="node">
<title>Node3</title>
<g id="a_Node000003"><a xlink:href="classedu_1_1wpi_1_1first_1_1wpilibj_1_1simulation_1_1_solenoid_sim.html#a777a38be6cce2ccf13b58e43d1af9dd5" target="_top" xlink:title=" ">
<polygon fill="white" stroke="#666666" points="149.5,-30.5 0,-30.5 0,0 149.5,0 149.5,-30.5"/>
<text text-anchor="start" x="8" y="-17" font-family="Helvetica,sans-Serif" font-size="10.00">edu.wpi.first.wpilibj.simulation.</text>
<text text-anchor="middle" x="74.75" y="-5.75" font-family="Helvetica,sans-Serif" font-size="10.00">SolenoidSim.setOutput</text>
</a>
</g>
</g>
<!-- Node1&#45;&gt;Node3 -->
<g id="edge2_Node000001_Node000003" class="edge">
<title>Node1&#45;&gt;Node3</title>
<g id="a_edge2_Node000001_Node000003"><a xlink:title=" ">
<path fill="none" stroke="#63b8ff" d="M174.12,-26.82C165.93,-25.85 157.77,-24.89 149.86,-23.96"/>
<polygon fill="#63b8ff" stroke="#63b8ff" points="173.44,-30.26 183.78,-27.95 174.26,-23.31 173.44,-30.26"/>
</a>
</g>
</g>
</g>
</svg>
