<?xml version="1.0" encoding="UTF-8" standalone="no"?>
<!DOCTYPE svg PUBLIC "-//W3C//DTD SVG 1.1//EN"
 "http://www.w3.org/Graphics/SVG/1.1/DTD/svg11.dtd">
<!-- Generated by graphviz version 9.0.0 (20230911.1827)
 -->
<!-- Title: edu.wpi.first.wpilibj.Counter Pages: 1 -->
<svg width="527pt" height="151pt"
 viewBox="0.00 0.00 527.25 150.88" xmlns="http://www.w3.org/2000/svg" xmlns:xlink="http://www.w3.org/1999/xlink">
<g id="graph0" class="graph" transform="scale(1 1) rotate(0) translate(4 146.88)">
<title>edu.wpi.first.wpilibj.Counter</title>
<!-- Node1 -->
<g id="Node000001" class="node">
<title>Node1</title>
<g id="a_Node000001"><a xlink:title=" ">
<polygon fill="#999999" stroke="#666666" points="519.25,-86.88 382.5,-86.88 382.5,-67.62 519.25,-67.62 519.25,-86.88"/>
<text text-anchor="middle" x="450.88" y="-73.38" font-family="Helvetica,sans-Serif" font-size="10.00">edu.wpi.first.wpilibj.Counter</text>
</a>
</g>
</g>
<!-- Node2 -->
<g id="Node000002" class="node">
<title>Node2</title>
<g id="a_Node000002"><a xlink:href="interfaceedu_1_1wpi_1_1first_1_1wpilibj_1_1_counter_base.html" target="_top" xlink:title=" ">
<polygon fill="white" stroke="#666666" points="276,-142.88 116.75,-142.88 116.75,-123.62 276,-123.62 276,-142.88"/>
<text text-anchor="middle" x="196.38" y="-129.38" font-family="Helvetica,sans-Serif" font-size="10.00">edu.wpi.first.wpilibj.CounterBase</text>
</a>
</g>
</g>
<!-- Node2&#45;&gt;Node1 -->
<g id="edge1_Node000001_Node000002" class="edge">
<title>Node2&#45;&gt;Node1</title>
<g id="a_edge1_Node000001_Node000002"><a xlink:title=" ">
<path fill="none" stroke="#63b8ff" d="M261.73,-120.96C292.86,-114.81 330.71,-107.04 364.5,-99.25 380.31,-95.61 397.67,-91.21 412.57,-87.31"/>
<polygon fill="#63b8ff" stroke="#63b8ff" points="261.21,-117.5 252.07,-122.86 262.56,-124.37 261.21,-117.5"/>
</a>
</g>
</g>
<!-- Node3 -->
<g id="Node000003" class="node">
<title>Node3</title>
<g id="a_Node000003"><a xlink:title=" ">
<polygon fill="white" stroke="#bfbfbf" points="224.62,-105.88 168.12,-105.88 168.12,-86.62 224.62,-86.62 224.62,-105.88"/>
<text text-anchor="middle" x="196.38" y="-92.38" font-family="Helvetica,sans-Serif" font-size="10.00">Sendable</text>
</a>
</g>
</g>
<!-- Node3&#45;&gt;Node1 -->
<g id="edge2_Node000001_Node000003" class="edge">
<title>Node3&#45;&gt;Node1</title>
<g id="a_edge2_Node000001_Node000003"><a xlink:title=" ">
<path fill="none" stroke="#63b8ff" d="M236.18,-93.33C274.98,-90.41 335.43,-85.86 382.15,-82.35"/>
<polygon fill="#63b8ff" stroke="#63b8ff" points="236.1,-89.83 226.39,-94.07 236.62,-96.81 236.1,-89.83"/>
</a>
</g>
</g>
<!-- Node4 -->
<g id="Node000004" class="node">
<title>Node4</title>
<g id="a_Node000004"><a xlink:title=" ">
<polygon fill="white" stroke="#bfbfbf" points="79.75,-45.88 0,-45.88 0,-26.62 79.75,-26.62 79.75,-45.88"/>
<text text-anchor="middle" x="39.88" y="-32.38" font-family="Helvetica,sans-Serif" font-size="10.00">AutoCloseable</text>
</a>
</g>
</g>
<!-- Node4&#45;&gt;Node1 -->
<g id="edge3_Node000001_Node000004" class="edge">
<title>Node4&#45;&gt;Node1</title>
<g id="a_edge3_Node000001_Node000004"><a xlink:title=" ">
<path fill="none" stroke="#63b8ff" d="M91.19,-42.51C93.4,-42.77 95.6,-43.01 97.75,-43.25 196.65,-54.11 311.39,-64.84 382.32,-71.26"/>
<polygon fill="#63b8ff" stroke="#63b8ff" points="91.86,-39.07 81.52,-41.38 91.05,-46.02 91.86,-39.07"/>
</a>
</g>
</g>
<!-- Node5 -->
<g id="Node000005" class="node">
<title>Node5</title>
<g id="a_Node000005"><a xlink:href="classedu_1_1wpi_1_1first_1_1wpilibj_1_1_digital_source.html" target="_top" xlink:title=" ">
<polygon fill="white" stroke="#666666" points="261.38,-30.5 131.38,-30.5 131.38,0 261.38,0 261.38,-30.5"/>
<text text-anchor="start" x="139.38" y="-17" font-family="Helvetica,sans-Serif" font-size="10.00">edu.wpi.first.wpilibj.Digital</text>
<text text-anchor="middle" x="196.38" y="-5.75" font-family="Helvetica,sans-Serif" font-size="10.00">Source</text>
</a>
</g>
</g>
<!-- Node4&#45;&gt;Node5 -->
<g id="edge5_Node000005_Node000004" class="edge">
<title>Node4&#45;&gt;Node5</title>
<g id="a_edge5_Node000005_Node000004"><a xlink:title=" ">
<path fill="none" stroke="#63b8ff" d="M91.21,-29.41C103.96,-27.68 117.82,-25.79 131.15,-23.98"/>
<polygon fill="#63b8ff" stroke="#63b8ff" points="90.8,-25.93 81.36,-30.75 91.74,-32.87 90.8,-25.93"/>
</a>
</g>
</g>
<!-- Node5&#45;&gt;Node1 -->
<g id="edge4_Node000001_Node000005" class="edge">
<title>Node5&#45;&gt;Node1</title>
<g id="a_edge4_Node000001_Node000005"><a xlink:title=" ">
<path fill="none" stroke="#9a32cd" stroke-dasharray="5,2" d="M273.21,-9.73C302.35,-9.79 335.55,-12.55 364.5,-21.75 394.15,-31.17 423.39,-53.87 438.76,-67.14"/>
<polygon fill="#9a32cd" stroke="#9a32cd" points="273.32,-6.23 263.36,-9.83 273.39,-13.23 273.32,-6.23"/>
</a>
</g>
<text text-anchor="middle" x="329.25" y="-35.25" font-family="Helvetica,sans-Serif" font-size="10.00" fill="grey"> m_downSource</text>
<text text-anchor="middle" x="329.25" y="-24" font-family="Helvetica,sans-Serif" font-size="10.00" fill="grey">m_upSource</text>
</g>
</g>
</svg>
