<?xml version="1.0" encoding="UTF-8" standalone="no"?>
<!DOCTYPE svg PUBLIC "-//W3C//DTD SVG 1.1//EN"
 "http://www.w3.org/Graphics/SVG/1.1/DTD/svg11.dtd">
<!-- Generated by graphviz version 9.0.0 (20230911.1827)
 -->
<!-- Title: edu.wpi.first.wpilibj.XboxController.rightTrigger Pages: 1 -->
<svg width="820pt" height="106pt"
 viewBox="0.00 0.00 820.00 105.50" xmlns="http://www.w3.org/2000/svg" xmlns:xlink="http://www.w3.org/1999/xlink">
<g id="graph0" class="graph" transform="scale(1 1) rotate(0) translate(4 101.5)">
<title>edu.wpi.first.wpilibj.XboxController.rightTrigger</title>
<!-- Node1 -->
<g id="Node000001" class="node">
<title>Node1</title>
<g id="a_Node000001"><a xlink:title=" ">
<polygon fill="#999999" stroke="#666666" points="124.75,-92.5 0,-92.5 0,-62 124.75,-62 124.75,-92.5"/>
<text text-anchor="start" x="8" y="-79" font-family="Helvetica,sans-Serif" font-size="10.00">edu.wpi.first.wpilibj.Xbox</text>
<text text-anchor="middle" x="62.38" y="-67.75" font-family="Helvetica,sans-Serif" font-size="10.00">Controller.rightTrigger</text>
</a>
</g>
</g>
<!-- Node2 -->
<g id="Node000002" class="node">
<title>Node2</title>
<g id="a_Node000002"><a xlink:href="classedu_1_1wpi_1_1first_1_1wpilibj_1_1_generic_h_i_d.html#af0b067c76cbb79f54d7f475e88fcfed2" target="_top" xlink:title=" ">
<polygon fill="white" stroke="#666666" points="812,-79.5 676,-79.5 676,-49 812,-49 812,-79.5"/>
<text text-anchor="start" x="684" y="-66" font-family="Helvetica,sans-Serif" font-size="10.00">edu.wpi.first.wpilibj.Generic</text>
<text text-anchor="middle" x="744" y="-54.75" font-family="Helvetica,sans-Serif" font-size="10.00">HID.pov</text>
</a>
</g>
</g>
<!-- Node1&#45;&gt;Node2 -->
<g id="edge1_Node000001_Node000002" class="edge">
<title>Node1&#45;&gt;Node2</title>
<g id="a_edge1_Node000001_Node000002"><a xlink:title=" ">
<path fill="none" stroke="#63b8ff" d="M124.89,-79.32C230.41,-82.37 452.64,-86.55 640,-75.25 647.96,-74.77 656.25,-74.13 664.52,-73.39"/>
<polygon fill="#63b8ff" stroke="#63b8ff" points="664.62,-76.9 674.25,-72.48 663.97,-69.93 664.62,-76.9"/>
</a>
</g>
</g>
<!-- Node3 -->
<g id="Node000003" class="node">
<title>Node3</title>
<g id="a_Node000003"><a xlink:href="classedu_1_1wpi_1_1first_1_1wpilibj_1_1_xbox_controller.html#ab595c6ad0ca954070de647a49e46941e" target="_top" xlink:title=" ">
<polygon fill="white" stroke="#666666" points="285.5,-71.5 160.75,-71.5 160.75,-41 285.5,-41 285.5,-71.5"/>
<text text-anchor="start" x="168.75" y="-58" font-family="Helvetica,sans-Serif" font-size="10.00">edu.wpi.first.wpilibj.Xbox</text>
<text text-anchor="middle" x="223.12" y="-46.75" font-family="Helvetica,sans-Serif" font-size="10.00">Controller.rightTrigger</text>
</a>
</g>
</g>
<!-- Node1&#45;&gt;Node3 -->
<g id="edge3_Node000001_Node000003" class="edge">
<title>Node1&#45;&gt;Node3</title>
<g id="a_edge3_Node000001_Node000003"><a xlink:title=" ">
<path fill="none" stroke="#63b8ff" d="M125.21,-69.07C133.08,-68.03 141.19,-66.96 149.21,-65.9"/>
<polygon fill="#63b8ff" stroke="#63b8ff" points="149.51,-69.39 158.96,-64.61 148.59,-62.45 149.51,-69.39"/>
</a>
</g>
</g>
<!-- Node2&#45;&gt;Node2 -->
<g id="edge2_Node000002_Node000002" class="edge">
<title>Node2&#45;&gt;Node2</title>
<g id="a_edge2_Node000002_Node000002"><a xlink:title=" ">
<path fill="none" stroke="#63b8ff" d="M713.52,-79.99C707.3,-89.06 717.46,-97.5 744,-97.5 758.51,-97.5 768.13,-94.97 772.84,-91.2"/>
<polygon fill="#63b8ff" stroke="#63b8ff" points="776.28,-91.88 774.26,-81.48 769.36,-90.87 776.28,-91.88"/>
</a>
</g>
</g>
<!-- Node3&#45;&gt;Node2 -->
<g id="edge8_Node000003_Node000002" class="edge">
<title>Node3&#45;&gt;Node2</title>
<g id="a_edge8_Node000003_Node000002"><a xlink:title=" ">
<path fill="none" stroke="#63b8ff" d="M285.94,-57.2C380.48,-58.66 560.9,-61.44 664.54,-63.04"/>
<polygon fill="#63b8ff" stroke="#63b8ff" points="664.3,-66.54 674.35,-63.19 664.4,-59.54 664.3,-66.54"/>
</a>
</g>
</g>
<!-- Node4 -->
<g id="Node000004" class="node">
<title>Node4</title>
<g id="a_Node000004"><a xlink:href="classedu_1_1wpi_1_1first_1_1wpilibj_1_1_xbox_controller.html#a3a62824bf5180a83ed6b0f70f15c2490" target="_top" xlink:title=" ">
<polygon fill="white" stroke="#666666" points="468,-33.5 321.5,-33.5 321.5,-3 468,-3 468,-33.5"/>
<text text-anchor="start" x="329.5" y="-20" font-family="Helvetica,sans-Serif" font-size="10.00">edu.wpi.first.wpilibj.Xbox</text>
<text text-anchor="middle" x="394.75" y="-8.75" font-family="Helvetica,sans-Serif" font-size="10.00">Controller.getRightTriggerAxis</text>
</a>
</g>
</g>
<!-- Node3&#45;&gt;Node4 -->
<g id="edge4_Node000003_Node000004" class="edge">
<title>Node3&#45;&gt;Node4</title>
<g id="a_edge4_Node000003_Node000004"><a xlink:title=" ">
<path fill="none" stroke="#63b8ff" d="M285.84,-42.42C294.44,-40.5 303.37,-38.5 312.26,-36.51"/>
<polygon fill="#63b8ff" stroke="#63b8ff" points="312.99,-39.93 321.98,-34.33 311.45,-33.1 312.99,-39.93"/>
</a>
</g>
</g>
<!-- Node5 -->
<g id="Node000005" class="node">
<title>Node5</title>
<g id="a_Node000005"><a xlink:href="classedu_1_1wpi_1_1first_1_1wpilibj_1_1_generic_h_i_d.html#a561e13532e9305a057a3b02cc655833c" target="_top" xlink:title=" ">
<polygon fill="white" stroke="#666666" points="640,-33.5 504,-33.5 504,-3 640,-3 640,-33.5"/>
<text text-anchor="start" x="512" y="-20" font-family="Helvetica,sans-Serif" font-size="10.00">edu.wpi.first.wpilibj.Generic</text>
<text text-anchor="middle" x="572" y="-8.75" font-family="Helvetica,sans-Serif" font-size="10.00">HID.getRawAxis</text>
</a>
</g>
</g>
<!-- Node4&#45;&gt;Node5 -->
<g id="edge5_Node000004_Node000005" class="edge">
<title>Node4&#45;&gt;Node5</title>
<g id="a_edge5_Node000004_Node000005"><a xlink:title=" ">
<path fill="none" stroke="#63b8ff" d="M468.3,-18.25C476.14,-18.25 484.15,-18.25 492.07,-18.25"/>
<polygon fill="#63b8ff" stroke="#63b8ff" points="492.05,-21.75 502.05,-18.25 492.05,-14.75 492.05,-21.75"/>
</a>
</g>
</g>
<!-- Node5&#45;&gt;Node2 -->
<g id="edge7_Node000005_Node000002" class="edge">
<title>Node5&#45;&gt;Node2</title>
<g id="a_edge7_Node000005_Node000002"><a xlink:title=" ">
<path fill="none" stroke="#63b8ff" d="M631.03,-33.95C644.9,-37.71 659.85,-41.75 674.15,-45.62"/>
<polygon fill="#63b8ff" stroke="#63b8ff" points="672.92,-48.91 683.48,-48.15 674.74,-42.15 672.92,-48.91"/>
</a>
</g>
</g>
<!-- Node6 -->
<g id="Node000006" class="node">
<title>Node6</title>
<g id="a_Node000006"><a xlink:href="classedu_1_1wpi_1_1first_1_1wpilibj_1_1_driver_station.html#af9606114345715ee1577c2b0c66a070c" target="_top" xlink:title=" ">
<polygon fill="white" stroke="#666666" points="808.25,-30.5 679.75,-30.5 679.75,0 808.25,0 808.25,-30.5"/>
<text text-anchor="start" x="687.75" y="-17" font-family="Helvetica,sans-Serif" font-size="10.00">edu.wpi.first.wpilibj.Driver</text>
<text text-anchor="middle" x="744" y="-5.75" font-family="Helvetica,sans-Serif" font-size="10.00">Station.getStickAxis</text>
</a>
</g>
</g>
<!-- Node5&#45;&gt;Node6 -->
<g id="edge6_Node000005_Node000006" class="edge">
<title>Node5&#45;&gt;Node6</title>
<g id="a_edge6_Node000005_Node000006"><a xlink:title=" ">
<path fill="none" stroke="#63b8ff" d="M640.19,-17.06C649.36,-16.9 658.82,-16.74 668.12,-16.57"/>
<polygon fill="#63b8ff" stroke="#63b8ff" points="667.9,-20.08 677.83,-16.4 667.77,-13.08 667.9,-20.08"/>
</a>
</g>
</g>
</g>
</svg>
