<?xml version="1.0" encoding="UTF-8" standalone="no"?>
<!DOCTYPE svg PUBLIC "-//W3C//DTD SVG 1.1//EN"
 "http://www.w3.org/Graphics/SVG/1.1/DTD/svg11.dtd">
<!-- Generated by graphviz version 9.0.0 (20230911.1827)
 -->
<!-- Title: edu.wpi.first.wpilibj.simulation.SingleJointedArmSim.hasHitLowerLimit Pages: 1 -->
<svg width="431pt" height="88pt"
 viewBox="0.00 0.00 430.75 87.50" xmlns="http://www.w3.org/2000/svg" xmlns:xlink="http://www.w3.org/1999/xlink">
<g id="graph0" class="graph" transform="scale(1 1) rotate(0) translate(4 83.5)">
<title>edu.wpi.first.wpilibj.simulation.SingleJointedArmSim.hasHitLowerLimit</title>
<!-- Node1 -->
<g id="Node000001" class="node">
<title>Node1</title>
<g id="a_Node000001"><a xlink:title=" ">
<polygon fill="#999999" stroke="#666666" points="188.5,-54.5 0,-54.5 0,-24 188.5,-24 188.5,-54.5"/>
<text text-anchor="start" x="8" y="-41" font-family="Helvetica,sans-Serif" font-size="10.00">edu.wpi.first.wpilibj.simulation.</text>
<text text-anchor="middle" x="94.25" y="-29.75" font-family="Helvetica,sans-Serif" font-size="10.00">SingleJointedArmSim.hasHitLowerLimit</text>
</a>
</g>
</g>
<!-- Node2 -->
<g id="Node000002" class="node">
<title>Node2</title>
<g id="a_Node000002"><a xlink:href="classedu_1_1wpi_1_1first_1_1wpilibj_1_1simulation_1_1_single_jointed_arm_sim.html#ac68425ce72dd4ddcdb1169650164b618" target="_top" xlink:title=" ">
<polygon fill="white" stroke="#666666" points="410.75,-79.5 236.5,-79.5 236.5,-49 410.75,-49 410.75,-79.5"/>
<text text-anchor="start" x="244.5" y="-66" font-family="Helvetica,sans-Serif" font-size="10.00">edu.wpi.first.wpilibj.simulation.</text>
<text text-anchor="middle" x="323.62" y="-54.75" font-family="Helvetica,sans-Serif" font-size="10.00">SingleJointedArmSim.getAngleRads</text>
</a>
</g>
</g>
<!-- Node1&#45;&gt;Node2 -->
<g id="edge1_Node000001_Node000002" class="edge">
<title>Node1&#45;&gt;Node2</title>
<g id="a_edge1_Node000001_Node000002"><a xlink:title=" ">
<path fill="none" stroke="#63b8ff" d="M188.72,-49.53C200.6,-50.83 212.78,-52.17 224.73,-53.49"/>
<polygon fill="#63b8ff" stroke="#63b8ff" points="224.27,-56.96 234.59,-54.57 225.03,-50 224.27,-56.96"/>
</a>
</g>
</g>
<!-- Node3 -->
<g id="Node000003" class="node">
<title>Node3</title>
<g id="a_Node000003"><a xlink:href="classedu_1_1wpi_1_1first_1_1wpilibj_1_1simulation_1_1_single_jointed_arm_sim.html#ac7fb15aab36eb12f9a9ac09141373113" target="_top" xlink:title=" ">
<polygon fill="white" stroke="#666666" points="422.75,-30.5 224.5,-30.5 224.5,0 422.75,0 422.75,-30.5"/>
<text text-anchor="start" x="232.5" y="-17" font-family="Helvetica,sans-Serif" font-size="10.00">edu.wpi.first.wpilibj.simulation.</text>
<text text-anchor="middle" x="323.62" y="-5.75" font-family="Helvetica,sans-Serif" font-size="10.00">SingleJointedArmSim.wouldHitLowerLimit</text>
</a>
</g>
</g>
<!-- Node1&#45;&gt;Node3 -->
<g id="edge2_Node000001_Node000003" class="edge">
<title>Node1&#45;&gt;Node3</title>
<g id="a_edge2_Node000001_Node000003"><a xlink:title=" ">
<path fill="none" stroke="#63b8ff" d="M188.72,-29.38C196.71,-28.54 204.84,-27.68 212.94,-26.83"/>
<polygon fill="#63b8ff" stroke="#63b8ff" points="213.28,-30.31 222.86,-25.78 212.54,-23.35 213.28,-30.31"/>
</a>
</g>
</g>
</g>
</svg>
