<?xml version="1.0" encoding="UTF-8" standalone="no"?>
<!DOCTYPE svg PUBLIC "-//W3C//DTD SVG 1.1//EN"
 "http://www.w3.org/Graphics/SVG/1.1/DTD/svg11.dtd">
<!-- Generated by graphviz version 9.0.0 (20230911.1827)
 -->
<!-- Title: edu.wpi.first.wpilibj.Encoder.setIndexSource Pages: 1 -->
<svg width="352pt" height="186pt"
 viewBox="0.00 0.00 352.00 185.50" xmlns="http://www.w3.org/2000/svg" xmlns:xlink="http://www.w3.org/1999/xlink">
<g id="graph0" class="graph" transform="scale(1 1) rotate(0) translate(4 181.5)">
<title>edu.wpi.first.wpilibj.Encoder.setIndexSource</title>
<!-- Node1 -->
<g id="Node000001" class="node">
<title>Node1</title>
<g id="a_Node000001"><a xlink:title=" ">
<polygon fill="#999999" stroke="#666666" points="344,-103.5 190,-103.5 190,-73 344,-73 344,-103.5"/>
<text text-anchor="start" x="198" y="-90" font-family="Helvetica,sans-Serif" font-size="10.00">edu.wpi.first.wpilibj.Encoder.set</text>
<text text-anchor="middle" x="267" y="-78.75" font-family="Helvetica,sans-Serif" font-size="10.00">IndexSource</text>
</a>
</g>
</g>
<!-- Node1&#45;&gt;Node1 -->
<g id="edge4_Node000001_Node000001" class="edge">
<title>Node1&#45;&gt;Node1</title>
<g id="a_edge4_Node000001_Node000001"><a xlink:title=" ">
<path fill="none" stroke="#63b8ff" d="M298.86,-115.2C293.65,-118.97 283.03,-121.5 267,-121.5 237.68,-121.5 226.46,-113.06 233.33,-103.99"/>
<polygon fill="#63b8ff" stroke="#63b8ff" points="302.29,-115.91 300.43,-105.48 295.38,-114.8 302.29,-115.91"/>
</a>
</g>
</g>
<!-- Node2 -->
<g id="Node000002" class="node">
<title>Node2</title>
<g id="a_Node000002"><a xlink:href="classedu_1_1wpi_1_1first_1_1wpilibj_1_1_encoder.html#a156ec38577242a5d805b9e35562429b2" target="_top" xlink:title=" ">
<polygon fill="white" stroke="#666666" points="147.25,-177.5 6.75,-177.5 6.75,-147 147.25,-147 147.25,-177.5"/>
<text text-anchor="start" x="14.75" y="-164" font-family="Helvetica,sans-Serif" font-size="10.00">edu.wpi.first.wpilibj.Encoder.</text>
<text text-anchor="middle" x="77" y="-152.75" font-family="Helvetica,sans-Serif" font-size="10.00">Encoder</text>
</a>
</g>
</g>
<!-- Node1&#45;&gt;Node2 -->
<g id="edge1_Node000001_Node000002" class="edge">
<title>Node1&#45;&gt;Node2</title>
<g id="a_edge1_Node000001_Node000002"><a xlink:title=" ">
<path fill="none" stroke="#63b8ff" d="M222.23,-108.55C201.7,-117.77 176.79,-128.54 154,-137.25 145.7,-140.42 136.79,-143.57 128.11,-146.51"/>
<polygon fill="#63b8ff" stroke="#63b8ff" points="223.48,-111.82 231.15,-104.51 220.59,-105.44 223.48,-111.82"/>
</a>
</g>
</g>
<!-- Node3 -->
<g id="Node000003" class="node">
<title>Node3</title>
<g id="a_Node000003"><a xlink:href="classedu_1_1wpi_1_1first_1_1wpilibj_1_1_encoder.html#a3030552032da2b6283980fcf0d225f19" target="_top" xlink:title=" ">
<polygon fill="white" stroke="#666666" points="147.25,-128.5 6.75,-128.5 6.75,-98 147.25,-98 147.25,-128.5"/>
<text text-anchor="start" x="14.75" y="-115" font-family="Helvetica,sans-Serif" font-size="10.00">edu.wpi.first.wpilibj.Encoder.</text>
<text text-anchor="middle" x="77" y="-103.75" font-family="Helvetica,sans-Serif" font-size="10.00">Encoder</text>
</a>
</g>
</g>
<!-- Node1&#45;&gt;Node3 -->
<g id="edge2_Node000001_Node000003" class="edge">
<title>Node1&#45;&gt;Node3</title>
<g id="a_edge2_Node000001_Node000003"><a xlink:title=" ">
<path fill="none" stroke="#63b8ff" d="M178.43,-99.9C168.14,-101.26 157.74,-102.65 147.74,-103.98"/>
<polygon fill="#63b8ff" stroke="#63b8ff" points="178.58,-103.41 188.03,-98.62 177.66,-96.47 178.58,-103.41"/>
</a>
</g>
</g>
<!-- Node4 -->
<g id="Node000004" class="node">
<title>Node4</title>
<g id="a_Node000004"><a xlink:href="classedu_1_1wpi_1_1first_1_1wpilibj_1_1_encoder.html#a76d5cdf182168bfb594311ec9045bd8a" target="_top" xlink:title=" ">
<polygon fill="white" stroke="#666666" points="154,-79.5 0,-79.5 0,-49 154,-49 154,-79.5"/>
<text text-anchor="start" x="8" y="-66" font-family="Helvetica,sans-Serif" font-size="10.00">edu.wpi.first.wpilibj.Encoder.set</text>
<text text-anchor="middle" x="77" y="-54.75" font-family="Helvetica,sans-Serif" font-size="10.00">IndexSource</text>
</a>
</g>
</g>
<!-- Node1&#45;&gt;Node4 -->
<g id="edge3_Node000001_Node000004" class="edge">
<title>Node1&#45;&gt;Node4</title>
<g id="a_edge3_Node000001_Node000004"><a xlink:title=" ">
<path fill="none" stroke="#63b8ff" d="M178.31,-77.06C170.32,-76.04 162.27,-75.01 154.4,-74"/>
<polygon fill="#63b8ff" stroke="#63b8ff" points="177.67,-80.5 188.03,-78.3 178.56,-73.56 177.67,-80.5"/>
</a>
</g>
</g>
<!-- Node5 -->
<g id="Node000005" class="node">
<title>Node5</title>
<g id="a_Node000005"><a xlink:href="classedu_1_1wpi_1_1first_1_1wpilibj_1_1_encoder.html#adbad61f15e8afcfd1447c9b4625ecbbc" target="_top" xlink:title=" ">
<polygon fill="white" stroke="#666666" points="154,-30.5 0,-30.5 0,0 154,0 154,-30.5"/>
<text text-anchor="start" x="8" y="-17" font-family="Helvetica,sans-Serif" font-size="10.00">edu.wpi.first.wpilibj.Encoder.set</text>
<text text-anchor="middle" x="77" y="-5.75" font-family="Helvetica,sans-Serif" font-size="10.00">IndexSource</text>
</a>
</g>
</g>
<!-- Node1&#45;&gt;Node5 -->
<g id="edge5_Node000001_Node000005" class="edge">
<title>Node1&#45;&gt;Node5</title>
<g id="a_edge5_Node000001_Node000005"><a xlink:title=" ">
<path fill="none" stroke="#63b8ff" d="M220.99,-67.9C200.69,-59 176.31,-48.68 154,-40.25 145.55,-37.06 136.5,-33.88 127.69,-30.9"/>
<polygon fill="#63b8ff" stroke="#63b8ff" points="219.56,-71.09 230.12,-71.93 222.39,-64.69 219.56,-71.09"/>
</a>
</g>
</g>
</g>
</svg>
