<?xml version="1.0" encoding="UTF-8" standalone="no"?>
<!DOCTYPE svg PUBLIC "-//W3C//DTD SVG 1.1//EN"
 "http://www.w3.org/Graphics/SVG/1.1/DTD/svg11.dtd">
<!-- Generated by graphviz version 9.0.0 (20230911.1827)
 -->
<!-- Title: edu.wpi.first.wpilibj.Ultrasonic.ping Pages: 1 -->
<svg width="375pt" height="125pt"
 viewBox="0.00 0.00 374.50 124.50" xmlns="http://www.w3.org/2000/svg" xmlns:xlink="http://www.w3.org/1999/xlink">
<g id="graph0" class="graph" transform="scale(1 1) rotate(0) translate(4 120.5)">
<title>edu.wpi.first.wpilibj.Ultrasonic.ping</title>
<!-- Node1 -->
<g id="Node000001" class="node">
<title>Node1</title>
<g id="a_Node000001"><a xlink:title=" ">
<polygon fill="#999999" stroke="#666666" points="167.5,-67.88 0,-67.88 0,-48.62 167.5,-48.62 167.5,-67.88"/>
<text text-anchor="middle" x="83.75" y="-54.38" font-family="Helvetica,sans-Serif" font-size="10.00">edu.wpi.first.wpilibj.Ultrasonic.ping</text>
</a>
</g>
</g>
<!-- Node2 -->
<g id="Node000002" class="node">
<title>Node2</title>
<g id="a_Node000002"><a xlink:href="classedu_1_1wpi_1_1first_1_1wpilibj_1_1_digital_output.html#a08f52c141526a4d646584e269296e018" target="_top" xlink:title=" ">
<polygon fill="white" stroke="#666666" points="350,-116.5 220,-116.5 220,-86 350,-86 350,-116.5"/>
<text text-anchor="start" x="228" y="-103" font-family="Helvetica,sans-Serif" font-size="10.00">edu.wpi.first.wpilibj.Digital</text>
<text text-anchor="middle" x="285" y="-91.75" font-family="Helvetica,sans-Serif" font-size="10.00">Output.pulse</text>
</a>
</g>
</g>
<!-- Node1&#45;&gt;Node2 -->
<g id="edge1_Node000001_Node000002" class="edge">
<title>Node1&#45;&gt;Node2</title>
<g id="a_edge1_Node000001_Node000002"><a xlink:title=" ">
<path fill="none" stroke="#63b8ff" d="M131.47,-68.33C154.51,-73.31 182.88,-79.43 208.88,-85.04"/>
<polygon fill="#63b8ff" stroke="#63b8ff" points="207.86,-88.4 218.37,-87.09 209.34,-81.56 207.86,-88.4"/>
</a>
</g>
</g>
<!-- Node3 -->
<g id="Node000003" class="node">
<title>Node3</title>
<g id="a_Node000003"><a xlink:href="classedu_1_1wpi_1_1first_1_1wpilibj_1_1_counter.html#ac1e11fcde483c69b5142b29b581982c4" target="_top" xlink:title=" ">
<polygon fill="white" stroke="#666666" points="365.38,-67.88 204.62,-67.88 204.62,-48.62 365.38,-48.62 365.38,-67.88"/>
<text text-anchor="middle" x="285" y="-54.38" font-family="Helvetica,sans-Serif" font-size="10.00">edu.wpi.first.wpilibj.Counter.reset</text>
</a>
</g>
</g>
<!-- Node1&#45;&gt;Node3 -->
<g id="edge2_Node000001_Node000003" class="edge">
<title>Node1&#45;&gt;Node3</title>
<g id="a_edge2_Node000001_Node000003"><a xlink:title=" ">
<path fill="none" stroke="#63b8ff" d="M167.81,-58.25C176.1,-58.25 184.56,-58.25 192.93,-58.25"/>
<polygon fill="#63b8ff" stroke="#63b8ff" points="192.76,-61.75 202.76,-58.25 192.76,-54.75 192.76,-61.75"/>
</a>
</g>
</g>
<!-- Node4 -->
<g id="Node000004" class="node">
<title>Node4</title>
<g id="a_Node000004"><a xlink:href="classedu_1_1wpi_1_1first_1_1wpilibj_1_1_ultrasonic.html#ac0d57e4ba34d024e470b15463e72e193" target="_top" xlink:title=" ">
<polygon fill="white" stroke="#666666" points="366.5,-30.5 203.5,-30.5 203.5,0 366.5,0 366.5,-30.5"/>
<text text-anchor="start" x="211.5" y="-17" font-family="Helvetica,sans-Serif" font-size="10.00">edu.wpi.first.wpilibj.Ultrasonic.set</text>
<text text-anchor="middle" x="285" y="-5.75" font-family="Helvetica,sans-Serif" font-size="10.00">AutomaticMode</text>
</a>
</g>
</g>
<!-- Node1&#45;&gt;Node4 -->
<g id="edge3_Node000001_Node000004" class="edge">
<title>Node1&#45;&gt;Node4</title>
<g id="a_edge3_Node000001_Node000004"><a xlink:title=" ">
<path fill="none" stroke="#63b8ff" d="M131.47,-48.17C151.92,-43.75 176.57,-38.43 200.03,-33.37"/>
<polygon fill="#63b8ff" stroke="#63b8ff" points="200.55,-36.84 209.58,-31.31 199.07,-30 200.55,-36.84"/>
</a>
</g>
</g>
</g>
</svg>
