<?xml version="1.0" encoding="UTF-8" standalone="no"?>
<!DOCTYPE svg PUBLIC "-//W3C//DTD SVG 1.1//EN"
 "http://www.w3.org/Graphics/SVG/1.1/DTD/svg11.dtd">
<!-- Generated by graphviz version 9.0.0 (20230911.1827)
 -->
<!-- Title: edu.wpi.first.wpilibj.XboxController.getLeftStickButtonPressed Pages: 1 -->
<svg width="880pt" height="124pt"
 viewBox="0.00 0.00 880.00 123.50" xmlns="http://www.w3.org/2000/svg" xmlns:xlink="http://www.w3.org/1999/xlink">
<g id="graph0" class="graph" transform="scale(1 1) rotate(0) translate(4 119.5)">
<title>edu.wpi.first.wpilibj.XboxController.getLeftStickButtonPressed</title>
<!-- Node1 -->
<g id="Node000001" class="node">
<title>Node1</title>
<g id="a_Node000001"><a xlink:title=" ">
<polygon fill="#999999" stroke="#666666" points="177.25,-72.5 0,-72.5 0,-42 177.25,-42 177.25,-72.5"/>
<text text-anchor="start" x="8" y="-59" font-family="Helvetica,sans-Serif" font-size="10.00">edu.wpi.first.wpilibj.Xbox</text>
<text text-anchor="middle" x="88.62" y="-47.75" font-family="Helvetica,sans-Serif" font-size="10.00">Controller.getLeftStickButtonPressed</text>
</a>
</g>
</g>
<!-- Node2 -->
<g id="Node000002" class="node">
<title>Node2</title>
<g id="a_Node000002"><a xlink:href="classedu_1_1wpi_1_1first_1_1wpilibj_1_1_generic_h_i_d.html#a097c775f0ef764796523a65f8f3b688d" target="_top" xlink:title=" ">
<polygon fill="white" stroke="#666666" points="349.25,-72.5 213.25,-72.5 213.25,-42 349.25,-42 349.25,-72.5"/>
<text text-anchor="start" x="221.25" y="-59" font-family="Helvetica,sans-Serif" font-size="10.00">edu.wpi.first.wpilibj.Generic</text>
<text text-anchor="middle" x="281.25" y="-47.75" font-family="Helvetica,sans-Serif" font-size="10.00">HID.getRawButtonPressed</text>
</a>
</g>
</g>
<!-- Node1&#45;&gt;Node2 -->
<g id="edge1_Node000001_Node000002" class="edge">
<title>Node1&#45;&gt;Node2</title>
<g id="a_edge1_Node000001_Node000002"><a xlink:title=" ">
<path fill="none" stroke="#63b8ff" d="M177.68,-57.25C185.61,-57.25 193.61,-57.25 201.46,-57.25"/>
<polygon fill="#63b8ff" stroke="#63b8ff" points="201.3,-60.75 211.3,-57.25 201.3,-53.75 201.3,-60.75"/>
</a>
</g>
</g>
<!-- Node3 -->
<g id="Node000003" class="node">
<title>Node3</title>
<g id="a_Node000003"><a xlink:href="classedu_1_1wpi_1_1first_1_1wpilibj_1_1_generic_h_i_d.html#a77f3feaa9b70759aa7e26c20bec4bec2" target="_top" xlink:title=" ">
<polygon fill="white" stroke="#666666" points="528.38,-97.5 392.38,-97.5 392.38,-67 528.38,-67 528.38,-97.5"/>
<text text-anchor="start" x="400.38" y="-84" font-family="Helvetica,sans-Serif" font-size="10.00">edu.wpi.first.wpilibj.Generic</text>
<text text-anchor="middle" x="460.38" y="-72.75" font-family="Helvetica,sans-Serif" font-size="10.00">HID.button</text>
</a>
</g>
</g>
<!-- Node2&#45;&gt;Node3 -->
<g id="edge2_Node000002_Node000003" class="edge">
<title>Node2&#45;&gt;Node3</title>
<g id="a_edge2_Node000002_Node000003"><a xlink:title=" ">
<path fill="none" stroke="#63b8ff" d="M349.72,-66.77C359.91,-68.21 370.5,-69.71 380.91,-71.17"/>
<polygon fill="#63b8ff" stroke="#63b8ff" points="380.2,-74.61 390.6,-72.54 381.18,-67.68 380.2,-74.61"/>
</a>
</g>
</g>
<!-- Node7 -->
<g id="Node000007" class="node">
<title>Node7</title>
<g id="a_Node000007"><a xlink:href="classedu_1_1wpi_1_1first_1_1wpilibj_1_1_driver_station.html#acb9b90660a171dbd6a9b9717f0213f92" target="_top" xlink:title=" ">
<polygon fill="white" stroke="#666666" points="535.5,-48.5 385.25,-48.5 385.25,-18 535.5,-18 535.5,-48.5"/>
<text text-anchor="start" x="393.25" y="-35" font-family="Helvetica,sans-Serif" font-size="10.00">edu.wpi.first.wpilibj.Driver</text>
<text text-anchor="middle" x="460.38" y="-23.75" font-family="Helvetica,sans-Serif" font-size="10.00">Station.getStickButtonPressed</text>
</a>
</g>
</g>
<!-- Node2&#45;&gt;Node7 -->
<g id="edge9_Node000002_Node000007" class="edge">
<title>Node2&#45;&gt;Node7</title>
<g id="a_edge9_Node000002_Node000007"><a xlink:title=" ">
<path fill="none" stroke="#63b8ff" d="M349.72,-48.11C357.56,-47.05 365.63,-45.95 373.68,-44.86"/>
<polygon fill="#63b8ff" stroke="#63b8ff" points="374.06,-48.34 383.5,-43.53 373.12,-41.41 374.06,-48.34"/>
</a>
</g>
</g>
<!-- Node3&#45;&gt;Node3 -->
<g id="edge3_Node000003_Node000003" class="edge">
<title>Node3&#45;&gt;Node3</title>
<g id="a_edge3_Node000003_Node000003"><a xlink:title=" ">
<path fill="none" stroke="#63b8ff" d="M428.63,-97.99C422.16,-107.06 432.74,-115.5 460.38,-115.5 475.49,-115.5 485.5,-112.97 490.41,-109.2"/>
<polygon fill="#63b8ff" stroke="#63b8ff" points="493.85,-109.89 491.89,-99.48 486.93,-108.84 493.85,-109.89"/>
</a>
</g>
</g>
<!-- Node4 -->
<g id="Node000004" class="node">
<title>Node4</title>
<g id="a_Node000004"><a xlink:href="classedu_1_1wpi_1_1first_1_1wpilibj_1_1_generic_h_i_d.html#abdb0245e5cb7f7b92cc1060202821a2d" target="_top" xlink:title=" ">
<polygon fill="white" stroke="#666666" points="707.5,-97.5 571.5,-97.5 571.5,-67 707.5,-67 707.5,-97.5"/>
<text text-anchor="start" x="579.5" y="-84" font-family="Helvetica,sans-Serif" font-size="10.00">edu.wpi.first.wpilibj.Generic</text>
<text text-anchor="middle" x="639.5" y="-72.75" font-family="Helvetica,sans-Serif" font-size="10.00">HID.getRawButton</text>
</a>
</g>
</g>
<!-- Node3&#45;&gt;Node4 -->
<g id="edge4_Node000003_Node000004" class="edge">
<title>Node3&#45;&gt;Node4</title>
<g id="a_edge4_Node000003_Node000004"><a xlink:title=" ">
<path fill="none" stroke="#63b8ff" d="M528.84,-75.67C539.04,-75.5 549.63,-75.46 560.03,-75.54"/>
<polygon fill="#63b8ff" stroke="#63b8ff" points="559.66,-79.03 569.71,-75.66 559.75,-72.04 559.66,-79.03"/>
</a>
</g>
</g>
<!-- Node6 -->
<g id="Node000006" class="node">
<title>Node6</title>
<g id="a_Node000006"><a xlink:href="classedu_1_1wpi_1_1first_1_1wpilibj_1_1_generic_h_i_d.html#af0b067c76cbb79f54d7f475e88fcfed2" target="_top" xlink:title=" ">
<polygon fill="white" stroke="#666666" points="707.5,-30.5 571.5,-30.5 571.5,0 707.5,0 707.5,-30.5"/>
<text text-anchor="start" x="579.5" y="-17" font-family="Helvetica,sans-Serif" font-size="10.00">edu.wpi.first.wpilibj.Generic</text>
<text text-anchor="middle" x="639.5" y="-5.75" font-family="Helvetica,sans-Serif" font-size="10.00">HID.pov</text>
</a>
</g>
</g>
<!-- Node3&#45;&gt;Node6 -->
<g id="edge7_Node000003_Node000006" class="edge">
<title>Node3&#45;&gt;Node6</title>
<g id="a_edge7_Node000003_Node000006"><a xlink:title=" ">
<path fill="none" stroke="#63b8ff" d="M509.38,-66.54C518.1,-63.55 527.1,-60.38 535.5,-57.25 553.79,-50.45 573.68,-42.47 591.07,-35.31"/>
<polygon fill="#63b8ff" stroke="#63b8ff" points="592.23,-38.61 600.13,-31.55 589.55,-32.15 592.23,-38.61"/>
</a>
</g>
</g>
<!-- Node4&#45;&gt;Node3 -->
<g id="edge5_Node000004_Node000003" class="edge">
<title>Node4&#45;&gt;Node3</title>
<g id="a_edge5_Node000004_Node000003"><a xlink:title=" ">
<path fill="none" stroke="#63b8ff" d="M571.22,-88.82C561.03,-89 550.44,-89.04 540.03,-88.96"/>
<polygon fill="#63b8ff" stroke="#63b8ff" points="540.4,-85.47 530.36,-88.85 540.31,-92.47 540.4,-85.47"/>
</a>
</g>
</g>
<!-- Node5 -->
<g id="Node000005" class="node">
<title>Node5</title>
<g id="a_Node000005"><a xlink:href="classedu_1_1wpi_1_1first_1_1wpilibj_1_1_driver_station.html#a3d86d4b8414c05aafe18fc866d99ccab" target="_top" xlink:title=" ">
<polygon fill="white" stroke="#666666" points="872,-97.5 743.5,-97.5 743.5,-67 872,-67 872,-97.5"/>
<text text-anchor="start" x="751.5" y="-84" font-family="Helvetica,sans-Serif" font-size="10.00">edu.wpi.first.wpilibj.Driver</text>
<text text-anchor="middle" x="807.75" y="-72.75" font-family="Helvetica,sans-Serif" font-size="10.00">Station.getStickButton</text>
</a>
</g>
</g>
<!-- Node4&#45;&gt;Node5 -->
<g id="edge6_Node000004_Node000005" class="edge">
<title>Node4&#45;&gt;Node5</title>
<g id="a_edge6_Node000004_Node000005"><a xlink:title=" ">
<path fill="none" stroke="#63b8ff" d="M707.64,-82.25C715.6,-82.25 723.77,-82.25 731.83,-82.25"/>
<polygon fill="#63b8ff" stroke="#63b8ff" points="731.62,-85.75 741.62,-82.25 731.62,-78.75 731.62,-85.75"/>
</a>
</g>
</g>
<!-- Node6&#45;&gt;Node6 -->
<g id="edge8_Node000006_Node000006" class="edge">
<title>Node6&#45;&gt;Node6</title>
<g id="a_edge8_Node000006_Node000006"><a xlink:title=" ">
<path fill="none" stroke="#63b8ff" d="M609.69,-30.99C603.6,-40.06 613.54,-48.5 639.5,-48.5 653.7,-48.5 663.1,-45.97 667.72,-42.2"/>
<polygon fill="#63b8ff" stroke="#63b8ff" points="671.15,-42.88 669.1,-32.48 664.22,-41.89 671.15,-42.88"/>
</a>
</g>
</g>
</g>
</svg>
