<?xml version="1.0" encoding="UTF-8" standalone="no"?>
<!DOCTYPE svg PUBLIC "-//W3C//DTD SVG 1.1//EN"
 "http://www.w3.org/Graphics/SVG/1.1/DTD/svg11.dtd">
<!-- Generated by graphviz version 9.0.0 (20230911.1827)
 -->
<!-- Title: frc.robot.Robot.disabledPeriodic Pages: 1 -->
<svg width="312pt" height="76pt"
 viewBox="0.00 0.00 312.25 75.88" xmlns="http://www.w3.org/2000/svg" xmlns:xlink="http://www.w3.org/1999/xlink">
<g id="graph0" class="graph" transform="scale(1 1) rotate(0) translate(4 71.88)">
<title>frc.robot.Robot.disabledPeriodic</title>
<!-- Node1 -->
<g id="Node000001" class="node">
<title>Node1</title>
<g id="a_Node000001"><a xlink:title=" ">
<polygon fill="#999999" stroke="#666666" points="120.25,-45.88 0,-45.88 0,-15.37 120.25,-15.37 120.25,-45.88"/>
<text text-anchor="start" x="8" y="-32.38" font-family="Helvetica,sans-Serif" font-size="10.00">frc.robot.Robot.disabled</text>
<text text-anchor="middle" x="60.12" y="-21.12" font-family="Helvetica,sans-Serif" font-size="10.00">Periodic</text>
</a>
</g>
</g>
<!-- Node2 -->
<g id="Node000002" class="node">
<title>Node2</title>
<g id="a_Node000002"><a xlink:href="classedu_1_1wpi_1_1first_1_1wpilibj_1_1_timer.html#abd0738fa00bbd5fd749def604f54944b" target="_top" xlink:title=" ">
<polygon fill="white" stroke="#666666" points="302.75,-67.88 157.75,-67.88 157.75,-37.38 302.75,-37.38 302.75,-67.88"/>
<text text-anchor="start" x="165.75" y="-54.38" font-family="Helvetica,sans-Serif" font-size="10.00">edu.wpi.first.wpilibj.Timer.has</text>
<text text-anchor="middle" x="230.25" y="-43.12" font-family="Helvetica,sans-Serif" font-size="10.00">Elapsed</text>
</a>
</g>
</g>
<!-- Node1&#45;&gt;Node2 -->
<g id="edge1_Node000001_Node000002" class="edge">
<title>Node1&#45;&gt;Node2</title>
<g id="a_edge1_Node000001_Node000002"><a xlink:title=" ">
<path fill="none" stroke="#63b8ff" d="M120.4,-38.38C128.75,-39.47 137.45,-40.61 146.15,-41.75"/>
<polygon fill="#63b8ff" stroke="#63b8ff" points="145.67,-45.22 156.03,-43.04 146.57,-38.28 145.67,-45.22"/>
</a>
</g>
</g>
<!-- Node3 -->
<g id="Node000003" class="node">
<title>Node3</title>
<g id="a_Node000003"><a xlink:href="classedu_1_1wpi_1_1first_1_1wpilibj_1_1_timer.html#a3b1779beeb80aea14c23dc3250c856e7" target="_top" xlink:title=" ">
<polygon fill="white" stroke="#666666" points="304.25,-19.25 156.25,-19.25 156.25,0 304.25,0 304.25,-19.25"/>
<text text-anchor="middle" x="230.25" y="-5.75" font-family="Helvetica,sans-Serif" font-size="10.00">edu.wpi.first.wpilibj.Timer.stop</text>
</a>
</g>
</g>
<!-- Node1&#45;&gt;Node3 -->
<g id="edge2_Node000001_Node000003" class="edge">
<title>Node1&#45;&gt;Node3</title>
<g id="a_edge2_Node000001_Node000003"><a xlink:title=" ">
<path fill="none" stroke="#63b8ff" d="M120.4,-23.22C128.17,-22.25 136.26,-21.24 144.36,-20.23"/>
<polygon fill="#63b8ff" stroke="#63b8ff" points="144.79,-23.7 154.28,-18.99 143.92,-16.76 144.79,-23.7"/>
</a>
</g>
</g>
</g>
</svg>
