<?xml version="1.0" encoding="UTF-8" standalone="no"?>
<!DOCTYPE svg PUBLIC "-//W3C//DTD SVG 1.1//EN"
 "http://www.w3.org/Graphics/SVG/1.1/DTD/svg11.dtd">
<!-- Generated by graphviz version 9.0.0 (20230911.1827)
 -->
<!-- Title: edu.wpi.first.wpilibj.Timer.start Pages: 1 -->
<svg width="350pt" height="64pt"
 viewBox="0.00 0.00 349.75 64.25" xmlns="http://www.w3.org/2000/svg" xmlns:xlink="http://www.w3.org/1999/xlink">
<g id="graph0" class="graph" transform="scale(1 1) rotate(0) translate(4 60.25)">
<title>edu.wpi.first.wpilibj.Timer.start</title>
<!-- Node1 -->
<g id="Node000001" class="node">
<title>Node1</title>
<g id="a_Node000001"><a xlink:title=" ">
<polygon fill="#999999" stroke="#666666" points="341.75,-37.25 193,-37.25 193,-18 341.75,-18 341.75,-37.25"/>
<text text-anchor="middle" x="267.38" y="-23.75" font-family="Helvetica,sans-Serif" font-size="10.00">edu.wpi.first.wpilibj.Timer.start</text>
</a>
</g>
</g>
<!-- Node2 -->
<g id="Node000002" class="node">
<title>Node2</title>
<g id="a_Node000002"><a xlink:href="classfrc_1_1robot_1_1_robot.html#ac19810fbf26efd4cd47cbd7568b4ad2a" target="_top" xlink:title=" ">
<polygon fill="white" stroke="#666666" points="145.38,-56.25 11.62,-56.25 11.62,-37 145.38,-37 145.38,-56.25"/>
<text text-anchor="middle" x="78.5" y="-42.75" font-family="Helvetica,sans-Serif" font-size="10.00">frc.robot.Robot.disabledInit</text>
</a>
</g>
</g>
<!-- Node1&#45;&gt;Node2 -->
<g id="edge1_Node000001_Node000002" class="edge">
<title>Node1&#45;&gt;Node2</title>
<g id="a_edge1_Node000001_Node000002"><a xlink:title=" ">
<path fill="none" stroke="#63b8ff" d="M181.22,-36.28C169.35,-37.49 157.3,-38.71 145.85,-39.88"/>
<polygon fill="#63b8ff" stroke="#63b8ff" points="181.42,-39.78 191.01,-35.29 180.71,-32.82 181.42,-39.78"/>
</a>
</g>
</g>
<!-- Node3 -->
<g id="Node000003" class="node">
<title>Node3</title>
<g id="a_Node000003"><a xlink:href="classedu_1_1wpi_1_1first_1_1wpilibj_1_1_timer.html#abb732423d7a0a6219fe2edceef3f290e" target="_top" xlink:title=" ">
<polygon fill="white" stroke="#666666" points="157,-19.25 0,-19.25 0,0 157,0 157,-19.25"/>
<text text-anchor="middle" x="78.5" y="-5.75" font-family="Helvetica,sans-Serif" font-size="10.00">edu.wpi.first.wpilibj.Timer.restart</text>
</a>
</g>
</g>
<!-- Node1&#45;&gt;Node3 -->
<g id="edge2_Node000001_Node000003" class="edge">
<title>Node1&#45;&gt;Node3</title>
<g id="a_edge2_Node000001_Node000003"><a xlink:title=" ">
<path fill="none" stroke="#63b8ff" d="M181.06,-19.41C173.19,-18.65 165.23,-17.88 157.43,-17.13"/>
<polygon fill="#63b8ff" stroke="#63b8ff" points="180.72,-22.89 191.01,-20.37 181.39,-15.92 180.72,-22.89"/>
</a>
</g>
</g>
</g>
</svg>
