<?xml version="1.0" encoding="UTF-8" standalone="no"?>
<!DOCTYPE svg PUBLIC "-//W3C//DTD SVG 1.1//EN"
 "http://www.w3.org/Graphics/SVG/1.1/DTD/svg11.dtd">
<!-- Generated by graphviz version 9.0.0 (20230911.1827)
 -->
<!-- Title: edu.wpi.first.wpilibj.DSControlWord.isTeleop Pages: 1 -->
<svg width="340pt" height="88pt"
 viewBox="0.00 0.00 340.00 87.50" xmlns="http://www.w3.org/2000/svg" xmlns:xlink="http://www.w3.org/1999/xlink">
<g id="graph0" class="graph" transform="scale(1 1) rotate(0) translate(4 83.5)">
<title>edu.wpi.first.wpilibj.DSControlWord.isTeleop</title>
<!-- Node1 -->
<g id="Node000001" class="node">
<title>Node1</title>
<g id="a_Node000001"><a xlink:title=" ">
<polygon fill="#999999" stroke="#666666" points="148,-54.5 0,-54.5 0,-24 148,-24 148,-54.5"/>
<text text-anchor="start" x="8" y="-41" font-family="Helvetica,sans-Serif" font-size="10.00">edu.wpi.first.wpilibj.DSControl</text>
<text text-anchor="middle" x="74" y="-29.75" font-family="Helvetica,sans-Serif" font-size="10.00">Word.isTeleop</text>
</a>
</g>
</g>
<!-- Node2 -->
<g id="Node000002" class="node">
<title>Node2</title>
<g id="a_Node000002"><a xlink:href="classedu_1_1wpi_1_1first_1_1wpilibj_1_1_d_s_control_word.html#ad8f538ae546774d3226b69653638121a" target="_top" xlink:title=" ">
<polygon fill="white" stroke="#666666" points="332,-79.5 184,-79.5 184,-49 332,-49 332,-79.5"/>
<text text-anchor="start" x="192" y="-66" font-family="Helvetica,sans-Serif" font-size="10.00">edu.wpi.first.wpilibj.DSControl</text>
<text text-anchor="middle" x="258" y="-54.75" font-family="Helvetica,sans-Serif" font-size="10.00">Word.isAutonomous</text>
</a>
</g>
</g>
<!-- Node1&#45;&gt;Node2 -->
<g id="edge1_Node000001_Node000002" class="edge">
<title>Node1&#45;&gt;Node2</title>
<g id="a_edge1_Node000001_Node000002"><a xlink:title=" ">
<path fill="none" stroke="#63b8ff" d="M148.24,-49.31C156.16,-50.4 164.27,-51.51 172.31,-52.62"/>
<polygon fill="#63b8ff" stroke="#63b8ff" points="171.73,-56.07 182.11,-53.96 172.68,-49.14 171.73,-56.07"/>
</a>
</g>
</g>
<!-- Node3 -->
<g id="Node000003" class="node">
<title>Node3</title>
<g id="a_Node000003"><a xlink:href="classedu_1_1wpi_1_1first_1_1wpilibj_1_1_d_s_control_word.html#a188a70c88839015e08fa79a62de19cc9" target="_top" xlink:title=" ">
<polygon fill="white" stroke="#666666" points="332,-30.5 184,-30.5 184,0 332,0 332,-30.5"/>
<text text-anchor="start" x="192" y="-17" font-family="Helvetica,sans-Serif" font-size="10.00">edu.wpi.first.wpilibj.DSControl</text>
<text text-anchor="middle" x="258" y="-5.75" font-family="Helvetica,sans-Serif" font-size="10.00">Word.isTest</text>
</a>
</g>
</g>
<!-- Node1&#45;&gt;Node3 -->
<g id="edge2_Node000001_Node000003" class="edge">
<title>Node1&#45;&gt;Node3</title>
<g id="a_edge2_Node000001_Node000003"><a xlink:title=" ">
<path fill="none" stroke="#63b8ff" d="M148.24,-29.59C156.16,-28.55 164.27,-27.48 172.31,-26.42"/>
<polygon fill="#63b8ff" stroke="#63b8ff" points="172.66,-29.9 182.11,-25.13 171.74,-22.96 172.66,-29.9"/>
</a>
</g>
</g>
</g>
</svg>
