<?xml version="1.0" encoding="UTF-8" standalone="no"?>
<!DOCTYPE svg PUBLIC "-//W3C//DTD SVG 1.1//EN"
 "http://www.w3.org/Graphics/SVG/1.1/DTD/svg11.dtd">
<!-- Generated by graphviz version 9.0.0 (20230911.1827)
 -->
<!-- Title: edu.wpi.first.wpilibj.simulation.GenericHIDSim Pages: 1 -->
<svg width="343pt" height="186pt"
 viewBox="0.00 0.00 343.00 185.50" xmlns="http://www.w3.org/2000/svg" xmlns:xlink="http://www.w3.org/1999/xlink">
<g id="graph0" class="graph" transform="scale(1 1) rotate(0) translate(4 181.5)">
<title>edu.wpi.first.wpilibj.simulation.GenericHIDSim</title>
<!-- Node1 -->
<g id="Node000001" class="node">
<title>Node1</title>
<g id="a_Node000001"><a xlink:title=" ">
<polygon fill="#999999" stroke="#666666" points="149.5,-103.5 0,-103.5 0,-73 149.5,-73 149.5,-103.5"/>
<text text-anchor="start" x="8" y="-90" font-family="Helvetica,sans-Serif" font-size="10.00">edu.wpi.first.wpilibj.simulation.</text>
<text text-anchor="middle" x="74.75" y="-78.75" font-family="Helvetica,sans-Serif" font-size="10.00">GenericHIDSim</text>
</a>
</g>
</g>
<!-- Node2 -->
<g id="Node000002" class="node">
<title>Node2</title>
<g id="a_Node000002"><a xlink:href="classedu_1_1wpi_1_1first_1_1wpilibj_1_1simulation_1_1_joystick_sim.html" target="_top" xlink:title=" ">
<polygon fill="white" stroke="#666666" points="335,-177.5 185.5,-177.5 185.5,-147 335,-147 335,-177.5"/>
<text text-anchor="start" x="193.5" y="-164" font-family="Helvetica,sans-Serif" font-size="10.00">edu.wpi.first.wpilibj.simulation.</text>
<text text-anchor="middle" x="260.25" y="-152.75" font-family="Helvetica,sans-Serif" font-size="10.00">JoystickSim</text>
</a>
</g>
</g>
<!-- Node1&#45;&gt;Node2 -->
<g id="edge1_Node000001_Node000002" class="edge">
<title>Node1&#45;&gt;Node2</title>
<g id="a_edge1_Node000001_Node000002"><a xlink:title=" ">
<path fill="none" stroke="#63b8ff" d="M118.92,-108.64C138.98,-117.83 163.27,-128.54 185.5,-137.25 193.68,-140.46 202.46,-143.64 211.01,-146.62"/>
<polygon fill="#63b8ff" stroke="#63b8ff" points="120.47,-105.5 109.92,-104.49 117.54,-111.86 120.47,-105.5"/>
</a>
</g>
</g>
<!-- Node3 -->
<g id="Node000003" class="node">
<title>Node3</title>
<g id="a_Node000003"><a xlink:href="classedu_1_1wpi_1_1first_1_1wpilibj_1_1simulation_1_1_p_s4_controller_sim.html" target="_top" xlink:title=" ">
<polygon fill="white" stroke="#666666" points="335,-128.5 185.5,-128.5 185.5,-98 335,-98 335,-128.5"/>
<text text-anchor="start" x="193.5" y="-115" font-family="Helvetica,sans-Serif" font-size="10.00">edu.wpi.first.wpilibj.simulation.</text>
<text text-anchor="middle" x="260.25" y="-103.75" font-family="Helvetica,sans-Serif" font-size="10.00">PS4ControllerSim</text>
</a>
</g>
</g>
<!-- Node1&#45;&gt;Node3 -->
<g id="edge2_Node000001_Node000003" class="edge">
<title>Node1&#45;&gt;Node3</title>
<g id="a_edge2_Node000001_Node000003"><a xlink:title=" ">
<path fill="none" stroke="#63b8ff" d="M161.14,-99.88C169.16,-100.98 177.25,-102.08 185.16,-103.16"/>
<polygon fill="#63b8ff" stroke="#63b8ff" points="161.74,-96.43 151.36,-98.55 160.79,-103.37 161.74,-96.43"/>
</a>
</g>
</g>
<!-- Node4 -->
<g id="Node000004" class="node">
<title>Node4</title>
<g id="a_Node000004"><a xlink:href="classedu_1_1wpi_1_1first_1_1wpilibj_1_1simulation_1_1_p_s5_controller_sim.html" target="_top" xlink:title=" ">
<polygon fill="white" stroke="#666666" points="335,-79.5 185.5,-79.5 185.5,-49 335,-49 335,-79.5"/>
<text text-anchor="start" x="193.5" y="-66" font-family="Helvetica,sans-Serif" font-size="10.00">edu.wpi.first.wpilibj.simulation.</text>
<text text-anchor="middle" x="260.25" y="-54.75" font-family="Helvetica,sans-Serif" font-size="10.00">PS5ControllerSim</text>
</a>
</g>
</g>
<!-- Node1&#45;&gt;Node4 -->
<g id="edge3_Node000001_Node000004" class="edge">
<title>Node1&#45;&gt;Node4</title>
<g id="a_edge3_Node000001_Node000004"><a xlink:title=" ">
<path fill="none" stroke="#63b8ff" d="M161.14,-77.08C169.16,-76.03 177.25,-74.97 185.16,-73.94"/>
<polygon fill="#63b8ff" stroke="#63b8ff" points="160.82,-73.59 151.36,-78.36 161.73,-80.53 160.82,-73.59"/>
</a>
</g>
</g>
<!-- Node5 -->
<g id="Node000005" class="node">
<title>Node5</title>
<g id="a_Node000005"><a xlink:href="classedu_1_1wpi_1_1first_1_1wpilibj_1_1simulation_1_1_xbox_controller_sim.html" target="_top" xlink:title=" ">
<polygon fill="white" stroke="#666666" points="335,-30.5 185.5,-30.5 185.5,0 335,0 335,-30.5"/>
<text text-anchor="start" x="193.5" y="-17" font-family="Helvetica,sans-Serif" font-size="10.00">edu.wpi.first.wpilibj.simulation.</text>
<text text-anchor="middle" x="260.25" y="-5.75" font-family="Helvetica,sans-Serif" font-size="10.00">XboxControllerSim</text>
</a>
</g>
</g>
<!-- Node1&#45;&gt;Node5 -->
<g id="edge4_Node000001_Node000005" class="edge">
<title>Node1&#45;&gt;Node5</title>
<g id="a_edge4_Node000001_Node000005"><a xlink:title=" ">
<path fill="none" stroke="#63b8ff" d="M119.85,-67.93C139.75,-59.04 163.64,-48.72 185.5,-40.25 193.69,-37.08 202.48,-33.9 211.03,-30.93"/>
<polygon fill="#63b8ff" stroke="#63b8ff" points="118.61,-64.66 110.93,-71.95 121.48,-71.04 118.61,-64.66"/>
</a>
</g>
</g>
</g>
</svg>
