<?xml version="1.0" encoding="UTF-8" standalone="no"?>
<!DOCTYPE svg PUBLIC "-//W3C//DTD SVG 1.1//EN"
 "http://www.w3.org/Graphics/SVG/1.1/DTD/svg11.dtd">
<!-- Generated by graphviz version 9.0.0 (20230911.1827)
 -->
<!-- Title: edu.wpi.first.wpilibj.Counter.setDownSource Pages: 1 -->
<svg width="349pt" height="88pt"
 viewBox="0.00 0.00 349.00 87.50" xmlns="http://www.w3.org/2000/svg" xmlns:xlink="http://www.w3.org/1999/xlink">
<g id="graph0" class="graph" transform="scale(1 1) rotate(0) translate(4 83.5)">
<title>edu.wpi.first.wpilibj.Counter.setDownSource</title>
<!-- Node1 -->
<g id="Node000001" class="node">
<title>Node1</title>
<g id="a_Node000001"><a xlink:title=" ">
<polygon fill="#999999" stroke="#666666" points="341,-54.5 188.5,-54.5 188.5,-24 341,-24 341,-54.5"/>
<text text-anchor="start" x="196.5" y="-41" font-family="Helvetica,sans-Serif" font-size="10.00">edu.wpi.first.wpilibj.Counter.set</text>
<text text-anchor="middle" x="264.75" y="-29.75" font-family="Helvetica,sans-Serif" font-size="10.00">DownSource</text>
</a>
</g>
</g>
<!-- Node1&#45;&gt;Node1 -->
<g id="edge3_Node000001_Node000001" class="edge">
<title>Node1&#45;&gt;Node1</title>
<g id="a_edge3_Node000001_Node000001"><a xlink:title=" ">
<path fill="none" stroke="#63b8ff" d="M296.36,-66.2C291.19,-69.97 280.66,-72.5 264.75,-72.5 235.67,-72.5 224.53,-64.06 231.35,-54.99"/>
<polygon fill="#63b8ff" stroke="#63b8ff" points="299.79,-66.91 297.91,-56.48 292.88,-65.8 299.79,-66.91"/>
</a>
</g>
</g>
<!-- Node2 -->
<g id="Node000002" class="node">
<title>Node2</title>
<g id="a_Node000002"><a xlink:href="classedu_1_1wpi_1_1first_1_1wpilibj_1_1_counter.html#a19e811112cb6a0e65fb081ab5f2299a4" target="_top" xlink:title=" ">
<polygon fill="white" stroke="#666666" points="145.75,-79.5 6.75,-79.5 6.75,-49 145.75,-49 145.75,-79.5"/>
<text text-anchor="start" x="14.75" y="-66" font-family="Helvetica,sans-Serif" font-size="10.00">edu.wpi.first.wpilibj.Counter.</text>
<text text-anchor="middle" x="76.25" y="-54.75" font-family="Helvetica,sans-Serif" font-size="10.00">Counter</text>
</a>
</g>
</g>
<!-- Node1&#45;&gt;Node2 -->
<g id="edge1_Node000001_Node000002" class="edge">
<title>Node1&#45;&gt;Node2</title>
<g id="a_edge1_Node000001_Node000002"><a xlink:title=" ">
<path fill="none" stroke="#63b8ff" d="M176.97,-50.88C166.59,-52.27 156.1,-53.68 146.03,-55.03"/>
<polygon fill="#63b8ff" stroke="#63b8ff" points="177.22,-54.38 186.66,-49.58 176.29,-47.44 177.22,-54.38"/>
</a>
</g>
</g>
<!-- Node3 -->
<g id="Node000003" class="node">
<title>Node3</title>
<g id="a_Node000003"><a xlink:href="classedu_1_1wpi_1_1first_1_1wpilibj_1_1_counter.html#a8f51ef89dc136365810b30fd4c191ebd" target="_top" xlink:title=" ">
<polygon fill="white" stroke="#666666" points="152.5,-30.5 0,-30.5 0,0 152.5,0 152.5,-30.5"/>
<text text-anchor="start" x="8" y="-17" font-family="Helvetica,sans-Serif" font-size="10.00">edu.wpi.first.wpilibj.Counter.set</text>
<text text-anchor="middle" x="76.25" y="-5.75" font-family="Helvetica,sans-Serif" font-size="10.00">DownSource</text>
</a>
</g>
</g>
<!-- Node1&#45;&gt;Node3 -->
<g id="edge2_Node000001_Node000003" class="edge">
<title>Node1&#45;&gt;Node3</title>
<g id="a_edge2_Node000001_Node000003"><a xlink:title=" ">
<path fill="none" stroke="#63b8ff" d="M176.91,-28.08C168.91,-27.05 160.84,-26.01 152.95,-24.99"/>
<polygon fill="#63b8ff" stroke="#63b8ff" points="176.3,-31.52 186.66,-29.33 177.19,-24.58 176.3,-31.52"/>
</a>
</g>
</g>
</g>
</svg>
