<?xml version="1.0" encoding="UTF-8" standalone="no"?>
<!DOCTYPE svg PUBLIC "-//W3C//DTD SVG 1.1//EN"
 "http://www.w3.org/Graphics/SVG/1.1/DTD/svg11.dtd">
<!-- Generated by graphviz version 9.0.0 (20230911.1827)
 -->
<!-- Title: edu.wpi.first.wpilibj.SynchronousInterrupt.wakeupWaitingInterrupt Pages: 1 -->
<svg width="568pt" height="39pt"
 viewBox="0.00 0.00 568.25 38.50" xmlns="http://www.w3.org/2000/svg" xmlns:xlink="http://www.w3.org/1999/xlink">
<g id="graph0" class="graph" transform="scale(1 1) rotate(0) translate(4 34.5)">
<title>edu.wpi.first.wpilibj.SynchronousInterrupt.wakeupWaitingInterrupt</title>
<!-- Node1 -->
<g id="Node000001" class="node">
<title>Node1</title>
<g id="a_Node000001"><a xlink:title=" ">
<polygon fill="#999999" stroke="#666666" points="560.25,-30.5 401,-30.5 401,0 560.25,0 560.25,-30.5"/>
<text text-anchor="start" x="409" y="-17" font-family="Helvetica,sans-Serif" font-size="10.00">edu.wpi.first.wpilibj.Synchronous</text>
<text text-anchor="middle" x="480.62" y="-5.75" font-family="Helvetica,sans-Serif" font-size="10.00">Interrupt.wakeupWaitingInterrupt</text>
</a>
</g>
</g>
<!-- Node2 -->
<g id="Node000002" class="node">
<title>Node2</title>
<g id="a_Node000002"><a xlink:href="classedu_1_1wpi_1_1first_1_1wpilibj_1_1_asynchronous_interrupt.html#a5226bc21e1e18d7f5d59cf924d990672" target="_top" xlink:title=" ">
<polygon fill="white" stroke="#666666" points="365,-30.5 200.5,-30.5 200.5,0 365,0 365,-30.5"/>
<text text-anchor="start" x="208.5" y="-17" font-family="Helvetica,sans-Serif" font-size="10.00">edu.wpi.first.wpilibj.Asynchronous</text>
<text text-anchor="middle" x="282.75" y="-5.75" font-family="Helvetica,sans-Serif" font-size="10.00">Interrupt.disable</text>
</a>
</g>
</g>
<!-- Node1&#45;&gt;Node2 -->
<g id="edge1_Node000001_Node000002" class="edge">
<title>Node1&#45;&gt;Node2</title>
<g id="a_edge1_Node000001_Node000002"><a xlink:title=" ">
<path fill="none" stroke="#63b8ff" d="M389.03,-15.25C381.15,-15.25 373.19,-15.25 365.39,-15.25"/>
<polygon fill="#63b8ff" stroke="#63b8ff" points="389.01,-18.75 399.01,-15.25 389.01,-11.75 389.01,-18.75"/>
</a>
</g>
</g>
<!-- Node3 -->
<g id="Node000003" class="node">
<title>Node3</title>
<g id="a_Node000003"><a xlink:href="classedu_1_1wpi_1_1first_1_1wpilibj_1_1_asynchronous_interrupt.html#ad117b9684f0a1a59a55696bc399219cb" target="_top" xlink:title=" ">
<polygon fill="white" stroke="#666666" points="164.5,-30.5 0,-30.5 0,0 164.5,0 164.5,-30.5"/>
<text text-anchor="start" x="8" y="-17" font-family="Helvetica,sans-Serif" font-size="10.00">edu.wpi.first.wpilibj.Asynchronous</text>
<text text-anchor="middle" x="82.25" y="-5.75" font-family="Helvetica,sans-Serif" font-size="10.00">Interrupt.close</text>
</a>
</g>
</g>
<!-- Node2&#45;&gt;Node3 -->
<g id="edge2_Node000002_Node000003" class="edge">
<title>Node2&#45;&gt;Node3</title>
<g id="a_edge2_Node000002_Node000003"><a xlink:title=" ">
<path fill="none" stroke="#63b8ff" d="M188.87,-15.25C180.85,-15.25 172.77,-15.25 164.85,-15.25"/>
<polygon fill="#63b8ff" stroke="#63b8ff" points="188.64,-18.75 198.64,-15.25 188.64,-11.75 188.64,-18.75"/>
</a>
</g>
</g>
</g>
</svg>
