<?xml version="1.0" encoding="UTF-8" standalone="no"?>
<!DOCTYPE svg PUBLIC "-//W3C//DTD SVG 1.1//EN"
 "http://www.w3.org/Graphics/SVG/1.1/DTD/svg11.dtd">
<!-- Generated by graphviz version 9.0.0 (20230911.1827)
 -->
<!-- Title: edu.wpi.first.wpilibj.sysid.SysIdRoutineLog.recordState Pages: 1 -->
<svg width="471pt" height="57pt"
 viewBox="0.00 0.00 470.75 56.50" xmlns="http://www.w3.org/2000/svg" xmlns:xlink="http://www.w3.org/1999/xlink">
<g id="graph0" class="graph" transform="scale(1 1) rotate(0) translate(4 52.5)">
<title>edu.wpi.first.wpilibj.sysid.SysIdRoutineLog.recordState</title>
<!-- Node1 -->
<g id="Node000001" class="node">
<title>Node1</title>
<g id="a_Node000001"><a xlink:title=" ">
<polygon fill="#999999" stroke="#666666" points="144.25,-30.5 0,-30.5 0,0 144.25,0 144.25,-30.5"/>
<text text-anchor="start" x="8" y="-17" font-family="Helvetica,sans-Serif" font-size="10.00">edu.wpi.first.wpilibj.sysid.</text>
<text text-anchor="middle" x="72.12" y="-5.75" font-family="Helvetica,sans-Serif" font-size="10.00">SysIdRoutineLog.recordState</text>
</a>
</g>
</g>
<!-- Node2 -->
<g id="Node000002" class="node">
<title>Node2</title>
<g id="a_Node000002"><a xlink:href="classedu_1_1wpi_1_1first_1_1wpilibj_1_1_data_log_manager.html#a4a1da47a520115917eaad1cb82a6e667" target="_top" xlink:title=" ">
<polygon fill="white" stroke="#666666" points="303.5,-30.5 180.25,-30.5 180.25,0 303.5,0 303.5,-30.5"/>
<text text-anchor="start" x="188.25" y="-17" font-family="Helvetica,sans-Serif" font-size="10.00">edu.wpi.first.wpilibj.Data</text>
<text text-anchor="middle" x="241.88" y="-5.75" font-family="Helvetica,sans-Serif" font-size="10.00">LogManager.getLog</text>
</a>
</g>
</g>
<!-- Node1&#45;&gt;Node2 -->
<g id="edge1_Node000001_Node000002" class="edge">
<title>Node1&#45;&gt;Node2</title>
<g id="a_edge1_Node000001_Node000002"><a xlink:title=" ">
<path fill="none" stroke="#63b8ff" d="M144.27,-15.25C152.34,-15.25 160.57,-15.25 168.66,-15.25"/>
<polygon fill="#63b8ff" stroke="#63b8ff" points="168.45,-18.75 178.45,-15.25 168.45,-11.75 168.45,-18.75"/>
</a>
</g>
</g>
<!-- Node3 -->
<g id="Node000003" class="node">
<title>Node3</title>
<g id="a_Node000003"><a xlink:href="classedu_1_1wpi_1_1first_1_1wpilibj_1_1_data_log_manager.html#abc3578ab5f29ed2c259cc53b594f39c6" target="_top" xlink:title=" ">
<polygon fill="white" stroke="#666666" points="462.75,-30.5 339.5,-30.5 339.5,0 462.75,0 462.75,-30.5"/>
<text text-anchor="start" x="347.5" y="-17" font-family="Helvetica,sans-Serif" font-size="10.00">edu.wpi.first.wpilibj.Data</text>
<text text-anchor="middle" x="401.12" y="-5.75" font-family="Helvetica,sans-Serif" font-size="10.00">LogManager.start</text>
</a>
</g>
</g>
<!-- Node2&#45;&gt;Node3 -->
<g id="edge2_Node000002_Node000003" class="edge">
<title>Node2&#45;&gt;Node3</title>
<g id="a_edge2_Node000002_Node000003"><a xlink:title=" ">
<path fill="none" stroke="#63b8ff" d="M303.67,-15.25C311.6,-15.25 319.79,-15.25 327.88,-15.25"/>
<polygon fill="#63b8ff" stroke="#63b8ff" points="327.72,-18.75 337.72,-15.25 327.72,-11.75 327.72,-18.75"/>
</a>
</g>
</g>
<!-- Node3&#45;&gt;Node3 -->
<g id="edge3_Node000003_Node000003" class="edge">
<title>Node3&#45;&gt;Node3</title>
<g id="a_edge3_Node000003_Node000003"><a xlink:title=" ">
<path fill="none" stroke="#63b8ff" d="M372.91,-30.99C367.15,-40.06 376.55,-48.5 401.12,-48.5 414.56,-48.5 423.46,-45.97 427.83,-42.2"/>
<polygon fill="#63b8ff" stroke="#63b8ff" points="431.27,-42.86 429.14,-32.49 424.34,-41.93 431.27,-42.86"/>
</a>
</g>
</g>
</g>
</svg>
