<?xml version="1.0" encoding="UTF-8" standalone="no"?>
<!DOCTYPE svg PUBLIC "-//W3C//DTD SVG 1.1//EN"
 "http://www.w3.org/Graphics/SVG/1.1/DTD/svg11.dtd">
<!-- Generated by graphviz version 9.0.0 (20230911.1827)
 -->
<!-- Title: edu.wpi.first.wpilibj.Timer.delay Pages: 1 -->
<svg width="350pt" height="186pt"
 viewBox="0.00 0.00 349.75 185.50" xmlns="http://www.w3.org/2000/svg" xmlns:xlink="http://www.w3.org/1999/xlink">
<g id="graph0" class="graph" transform="scale(1 1) rotate(0) translate(4 181.5)">
<title>edu.wpi.first.wpilibj.Timer.delay</title>
<!-- Node1 -->
<g id="Node000001" class="node">
<title>Node1</title>
<g id="a_Node000001"><a xlink:title=" ">
<polygon fill="#999999" stroke="#666666" points="341.75,-97.88 189.25,-97.88 189.25,-78.62 341.75,-78.62 341.75,-97.88"/>
<text text-anchor="middle" x="265.5" y="-84.38" font-family="Helvetica,sans-Serif" font-size="10.00">edu.wpi.first.wpilibj.Timer.delay</text>
</a>
</g>
</g>
<!-- Node2 -->
<g id="Node000002" class="node">
<title>Node2</title>
<g id="a_Node000002"><a xlink:href="classedu_1_1wpi_1_1first_1_1wpilibj_1_1_a_d_i_s16448___i_m_u.html#a1095de4392b3de89ca34121213696b42" target="_top" xlink:title=" ">
<polygon fill="white" stroke="#666666" points="152.88,-177.5 0.38,-177.5 0.38,-147 152.88,-147 152.88,-177.5"/>
<text text-anchor="start" x="8.38" y="-164" font-family="Helvetica,sans-Serif" font-size="10.00">edu.wpi.first.wpilibj.ADIS16448</text>
<text text-anchor="middle" x="76.62" y="-152.75" font-family="Helvetica,sans-Serif" font-size="10.00">_IMU.ADIS16448_IMU</text>
</a>
</g>
</g>
<!-- Node1&#45;&gt;Node2 -->
<g id="edge1_Node000001_Node000002" class="edge">
<title>Node1&#45;&gt;Node2</title>
<g id="a_edge1_Node000001_Node000002"><a xlink:title=" ">
<path fill="none" stroke="#63b8ff" d="M232.99,-103.09C210.89,-113.26 180.55,-126.75 153.25,-137.25 144.99,-140.43 136.13,-143.58 127.49,-146.52"/>
<polygon fill="#63b8ff" stroke="#63b8ff" points="234.45,-106.27 242.05,-98.89 231.51,-99.92 234.45,-106.27"/>
</a>
</g>
</g>
<!-- Node3 -->
<g id="Node000003" class="node">
<title>Node3</title>
<g id="a_Node000003"><a xlink:href="classedu_1_1wpi_1_1first_1_1wpilibj_1_1_a_d_i_s16470___i_m_u.html#a843e6d9bf9ce30ebdbb3b788252171f5" target="_top" xlink:title=" ">
<polygon fill="white" stroke="#666666" points="152.88,-128.5 0.38,-128.5 0.38,-98 152.88,-98 152.88,-128.5"/>
<text text-anchor="start" x="8.38" y="-115" font-family="Helvetica,sans-Serif" font-size="10.00">edu.wpi.first.wpilibj.ADIS16470</text>
<text text-anchor="middle" x="76.62" y="-103.75" font-family="Helvetica,sans-Serif" font-size="10.00">_IMU.ADIS16470_IMU</text>
</a>
</g>
</g>
<!-- Node1&#45;&gt;Node3 -->
<g id="edge2_Node000001_Node000003" class="edge">
<title>Node1&#45;&gt;Node3</title>
<g id="a_edge2_Node000001_Node000003"><a xlink:title=" ">
<path fill="none" stroke="#63b8ff" d="M177.83,-99.85C169.56,-100.95 161.22,-102.07 153.07,-103.16"/>
<polygon fill="#63b8ff" stroke="#63b8ff" points="178.08,-103.34 187.53,-98.55 177.15,-96.4 178.08,-103.34"/>
</a>
</g>
</g>
<!-- Node4 -->
<g id="Node000004" class="node">
<title>Node4</title>
<g id="a_Node000004"><a xlink:href="classedu_1_1wpi_1_1first_1_1wpilibj_1_1_a_d_x_r_s450___gyro.html#a21dcccd88c52d06fc02d1b6c7fa95120" target="_top" xlink:title=" ">
<polygon fill="white" stroke="#666666" points="153.25,-79.5 0,-79.5 0,-49 153.25,-49 153.25,-79.5"/>
<text text-anchor="start" x="8" y="-66" font-family="Helvetica,sans-Serif" font-size="10.00">edu.wpi.first.wpilibj.ADXRS450</text>
<text text-anchor="middle" x="76.62" y="-54.75" font-family="Helvetica,sans-Serif" font-size="10.00">_Gyro.calibrate</text>
</a>
</g>
</g>
<!-- Node1&#45;&gt;Node4 -->
<g id="edge3_Node000001_Node000004" class="edge">
<title>Node1&#45;&gt;Node4</title>
<g id="a_edge3_Node000001_Node000004"><a xlink:title=" ">
<path fill="none" stroke="#63b8ff" d="M177.49,-77.08C169.47,-76.05 161.38,-75.01 153.47,-73.99"/>
<polygon fill="#63b8ff" stroke="#63b8ff" points="176.89,-80.53 187.26,-78.33 177.79,-73.58 176.89,-80.53"/>
</a>
</g>
</g>
<!-- Node5 -->
<g id="Node000005" class="node">
<title>Node5</title>
<g id="a_Node000005"><a xlink:href="classedu_1_1wpi_1_1first_1_1wpilibj_1_1_analog_input.html#a7ff9442765cce00d4414a7b757463d6a" target="_top" xlink:title=" ">
<polygon fill="white" stroke="#666666" points="142.75,-30.5 10.5,-30.5 10.5,0 142.75,0 142.75,-30.5"/>
<text text-anchor="start" x="18.5" y="-17" font-family="Helvetica,sans-Serif" font-size="10.00">edu.wpi.first.wpilibj.Analog</text>
<text text-anchor="middle" x="76.62" y="-5.75" font-family="Helvetica,sans-Serif" font-size="10.00">Input.resetAccumulator</text>
</a>
</g>
</g>
<!-- Node1&#45;&gt;Node5 -->
<g id="edge4_Node000001_Node000005" class="edge">
<title>Node1&#45;&gt;Node5</title>
<g id="a_edge4_Node000001_Node000005"><a xlink:title=" ">
<path fill="none" stroke="#63b8ff" d="M232.55,-73.57C210.47,-63.66 180.33,-50.55 153.25,-40.25 144.85,-37.06 135.84,-33.87 127.07,-30.9"/>
<polygon fill="#63b8ff" stroke="#63b8ff" points="231.06,-76.74 241.61,-77.67 233.94,-70.36 231.06,-76.74"/>
</a>
</g>
</g>
</g>
</svg>
