<?xml version="1.0" encoding="UTF-8" standalone="no"?>
<!DOCTYPE svg PUBLIC "-//W3C//DTD SVG 1.1//EN"
 "http://www.w3.org/Graphics/SVG/1.1/DTD/svg11.dtd">
<!-- Generated by graphviz version 9.0.0 (20230911.1827)
 -->
<!-- Title: edu.wpi.first.wpilibj.StadiaController.getRightBumperReleased Pages: 1 -->
<svg width="885pt" height="124pt"
 viewBox="0.00 0.00 884.50 123.50" xmlns="http://www.w3.org/2000/svg" xmlns:xlink="http://www.w3.org/1999/xlink">
<g id="graph0" class="graph" transform="scale(1 1) rotate(0) translate(4 119.5)">
<title>edu.wpi.first.wpilibj.StadiaController.getRightBumperReleased</title>
<!-- Node1 -->
<g id="Node000001" class="node">
<title>Node1</title>
<g id="a_Node000001"><a xlink:title=" ">
<polygon fill="#999999" stroke="#666666" points="172,-72.5 0,-72.5 0,-42 172,-42 172,-72.5"/>
<text text-anchor="start" x="8" y="-59" font-family="Helvetica,sans-Serif" font-size="10.00">edu.wpi.first.wpilibj.Stadia</text>
<text text-anchor="middle" x="86" y="-47.75" font-family="Helvetica,sans-Serif" font-size="10.00">Controller.getRightBumperReleased</text>
</a>
</g>
</g>
<!-- Node2 -->
<g id="Node000002" class="node">
<title>Node2</title>
<g id="a_Node000002"><a xlink:href="classedu_1_1wpi_1_1first_1_1wpilibj_1_1_generic_h_i_d.html#a2087699248ada770e00ea78b91b8fd01" target="_top" xlink:title=" ">
<polygon fill="white" stroke="#666666" points="348.5,-72.5 208,-72.5 208,-42 348.5,-42 348.5,-72.5"/>
<text text-anchor="start" x="216" y="-59" font-family="Helvetica,sans-Serif" font-size="10.00">edu.wpi.first.wpilibj.Generic</text>
<text text-anchor="middle" x="278.25" y="-47.75" font-family="Helvetica,sans-Serif" font-size="10.00">HID.getRawButtonReleased</text>
</a>
</g>
</g>
<!-- Node1&#45;&gt;Node2 -->
<g id="edge1_Node000001_Node000002" class="edge">
<title>Node1&#45;&gt;Node2</title>
<g id="a_edge1_Node000001_Node000002"><a xlink:title=" ">
<path fill="none" stroke="#63b8ff" d="M172.39,-57.25C180.28,-57.25 188.27,-57.25 196.13,-57.25"/>
<polygon fill="#63b8ff" stroke="#63b8ff" points="196.01,-60.75 206.01,-57.25 196.01,-53.75 196.01,-60.75"/>
</a>
</g>
</g>
<!-- Node3 -->
<g id="Node000003" class="node">
<title>Node3</title>
<g id="a_Node000003"><a xlink:href="classedu_1_1wpi_1_1first_1_1wpilibj_1_1_generic_h_i_d.html#a77f3feaa9b70759aa7e26c20bec4bec2" target="_top" xlink:title=" ">
<polygon fill="white" stroke="#666666" points="530.25,-97.5 394.25,-97.5 394.25,-67 530.25,-67 530.25,-97.5"/>
<text text-anchor="start" x="402.25" y="-84" font-family="Helvetica,sans-Serif" font-size="10.00">edu.wpi.first.wpilibj.Generic</text>
<text text-anchor="middle" x="462.25" y="-72.75" font-family="Helvetica,sans-Serif" font-size="10.00">HID.button</text>
</a>
</g>
</g>
<!-- Node2&#45;&gt;Node3 -->
<g id="edge2_Node000002_Node000003" class="edge">
<title>Node2&#45;&gt;Node3</title>
<g id="a_edge2_Node000002_Node000003"><a xlink:title=" ">
<path fill="none" stroke="#63b8ff" d="M348.84,-66.81C359.9,-68.33 371.41,-69.91 382.66,-71.46"/>
<polygon fill="#63b8ff" stroke="#63b8ff" points="381.92,-74.89 392.31,-72.78 382.87,-67.95 381.92,-74.89"/>
</a>
</g>
</g>
<!-- Node7 -->
<g id="Node000007" class="node">
<title>Node7</title>
<g id="a_Node000007"><a xlink:href="classedu_1_1wpi_1_1first_1_1wpilibj_1_1_driver_station.html#af7d67c20055e6730e05c8ed4483ea79a" target="_top" xlink:title=" ">
<polygon fill="white" stroke="#666666" points="540,-48.5 384.5,-48.5 384.5,-18 540,-18 540,-48.5"/>
<text text-anchor="start" x="392.5" y="-35" font-family="Helvetica,sans-Serif" font-size="10.00">edu.wpi.first.wpilibj.Driver</text>
<text text-anchor="middle" x="462.25" y="-23.75" font-family="Helvetica,sans-Serif" font-size="10.00">Station.getStickButtonReleased</text>
</a>
</g>
</g>
<!-- Node2&#45;&gt;Node7 -->
<g id="edge9_Node000002_Node000007" class="edge">
<title>Node2&#45;&gt;Node7</title>
<g id="a_edge9_Node000002_Node000007"><a xlink:title=" ">
<path fill="none" stroke="#63b8ff" d="M348.84,-48.07C356.68,-47.04 364.75,-45.98 372.79,-44.92"/>
<polygon fill="#63b8ff" stroke="#63b8ff" points="373.16,-48.4 382.62,-43.62 372.24,-41.46 373.16,-48.4"/>
</a>
</g>
</g>
<!-- Node3&#45;&gt;Node3 -->
<g id="edge3_Node000003_Node000003" class="edge">
<title>Node3&#45;&gt;Node3</title>
<g id="a_edge3_Node000003_Node000003"><a xlink:title=" ">
<path fill="none" stroke="#63b8ff" d="M430.04,-97.99C423.47,-107.06 434.21,-115.5 462.25,-115.5 477.59,-115.5 487.75,-112.97 492.73,-109.2"/>
<polygon fill="#63b8ff" stroke="#63b8ff" points="496.16,-109.9 494.23,-99.48 489.25,-108.83 496.16,-109.9"/>
</a>
</g>
</g>
<!-- Node4 -->
<g id="Node000004" class="node">
<title>Node4</title>
<g id="a_Node000004"><a xlink:href="classedu_1_1wpi_1_1first_1_1wpilibj_1_1_generic_h_i_d.html#abdb0245e5cb7f7b92cc1060202821a2d" target="_top" xlink:title=" ">
<polygon fill="white" stroke="#666666" points="712,-97.5 576,-97.5 576,-67 712,-67 712,-97.5"/>
<text text-anchor="start" x="584" y="-84" font-family="Helvetica,sans-Serif" font-size="10.00">edu.wpi.first.wpilibj.Generic</text>
<text text-anchor="middle" x="644" y="-72.75" font-family="Helvetica,sans-Serif" font-size="10.00">HID.getRawButton</text>
</a>
</g>
</g>
<!-- Node3&#45;&gt;Node4 -->
<g id="edge4_Node000003_Node000004" class="edge">
<title>Node3&#45;&gt;Node4</title>
<g id="a_edge4_Node000003_Node000004"><a xlink:title=" ">
<path fill="none" stroke="#63b8ff" d="M530.69,-75.69C541.75,-75.5 553.29,-75.45 564.59,-75.55"/>
<polygon fill="#63b8ff" stroke="#63b8ff" points="564.22,-79.04 574.26,-75.67 564.31,-72.05 564.22,-79.04"/>
</a>
</g>
</g>
<!-- Node6 -->
<g id="Node000006" class="node">
<title>Node6</title>
<g id="a_Node000006"><a xlink:href="classedu_1_1wpi_1_1first_1_1wpilibj_1_1_generic_h_i_d.html#af0b067c76cbb79f54d7f475e88fcfed2" target="_top" xlink:title=" ">
<polygon fill="white" stroke="#666666" points="712,-30.5 576,-30.5 576,0 712,0 712,-30.5"/>
<text text-anchor="start" x="584" y="-17" font-family="Helvetica,sans-Serif" font-size="10.00">edu.wpi.first.wpilibj.Generic</text>
<text text-anchor="middle" x="644" y="-5.75" font-family="Helvetica,sans-Serif" font-size="10.00">HID.pov</text>
</a>
</g>
</g>
<!-- Node3&#45;&gt;Node6 -->
<g id="edge7_Node000003_Node000006" class="edge">
<title>Node3&#45;&gt;Node6</title>
<g id="a_edge7_Node000003_Node000006"><a xlink:title=" ">
<path fill="none" stroke="#63b8ff" d="M512.97,-66.63C522.01,-63.63 531.31,-60.43 540,-57.25 558.47,-50.49 578.55,-42.46 596.03,-35.24"/>
<polygon fill="#63b8ff" stroke="#63b8ff" points="597.26,-38.52 605.15,-31.45 594.57,-32.05 597.26,-38.52"/>
</a>
</g>
</g>
<!-- Node4&#45;&gt;Node3 -->
<g id="edge5_Node000004_Node000003" class="edge">
<title>Node4&#45;&gt;Node3</title>
<g id="a_edge5_Node000004_Node000003"><a xlink:title=" ">
<path fill="none" stroke="#63b8ff" d="M575.78,-88.81C564.72,-89 553.18,-89.05 541.89,-88.95"/>
<polygon fill="#63b8ff" stroke="#63b8ff" points="542.25,-85.46 532.21,-88.83 542.16,-92.46 542.25,-85.46"/>
</a>
</g>
</g>
<!-- Node5 -->
<g id="Node000005" class="node">
<title>Node5</title>
<g id="a_Node000005"><a xlink:href="classedu_1_1wpi_1_1first_1_1wpilibj_1_1_driver_station.html#a3d86d4b8414c05aafe18fc866d99ccab" target="_top" xlink:title=" ">
<polygon fill="white" stroke="#666666" points="876.5,-97.5 748,-97.5 748,-67 876.5,-67 876.5,-97.5"/>
<text text-anchor="start" x="756" y="-84" font-family="Helvetica,sans-Serif" font-size="10.00">edu.wpi.first.wpilibj.Driver</text>
<text text-anchor="middle" x="812.25" y="-72.75" font-family="Helvetica,sans-Serif" font-size="10.00">Station.getStickButton</text>
</a>
</g>
</g>
<!-- Node4&#45;&gt;Node5 -->
<g id="edge6_Node000004_Node000005" class="edge">
<title>Node4&#45;&gt;Node5</title>
<g id="a_edge6_Node000004_Node000005"><a xlink:title=" ">
<path fill="none" stroke="#63b8ff" d="M712.14,-82.25C720.1,-82.25 728.27,-82.25 736.33,-82.25"/>
<polygon fill="#63b8ff" stroke="#63b8ff" points="736.12,-85.75 746.12,-82.25 736.12,-78.75 736.12,-85.75"/>
</a>
</g>
</g>
<!-- Node6&#45;&gt;Node6 -->
<g id="edge8_Node000006_Node000006" class="edge">
<title>Node6&#45;&gt;Node6</title>
<g id="a_edge8_Node000006_Node000006"><a xlink:title=" ">
<path fill="none" stroke="#63b8ff" d="M614.19,-30.99C608.1,-40.06 618.04,-48.5 644,-48.5 658.2,-48.5 667.6,-45.97 672.22,-42.2"/>
<polygon fill="#63b8ff" stroke="#63b8ff" points="675.65,-42.88 673.6,-32.48 668.72,-41.89 675.65,-42.88"/>
</a>
</g>
</g>
</g>
</svg>
