<?xml version="1.0" encoding="UTF-8" standalone="no"?>
<!DOCTYPE svg PUBLIC "-//W3C//DTD SVG 1.1//EN"
 "http://www.w3.org/Graphics/SVG/1.1/DTD/svg11.dtd">
<!-- Generated by graphviz version 9.0.0 (20230911.1827)
 -->
<!-- Title: edu.wpi.first.wpilibj.AsynchronousInterrupt.close Pages: 1 -->
<svg width="568pt" height="88pt"
 viewBox="0.00 0.00 568.25 87.50" xmlns="http://www.w3.org/2000/svg" xmlns:xlink="http://www.w3.org/1999/xlink">
<g id="graph0" class="graph" transform="scale(1 1) rotate(0) translate(4 83.5)">
<title>edu.wpi.first.wpilibj.AsynchronousInterrupt.close</title>
<!-- Node1 -->
<g id="Node000001" class="node">
<title>Node1</title>
<g id="a_Node000001"><a xlink:title=" ">
<polygon fill="#999999" stroke="#666666" points="164.5,-54.5 0,-54.5 0,-24 164.5,-24 164.5,-54.5"/>
<text text-anchor="start" x="8" y="-41" font-family="Helvetica,sans-Serif" font-size="10.00">edu.wpi.first.wpilibj.Asynchronous</text>
<text text-anchor="middle" x="82.25" y="-29.75" font-family="Helvetica,sans-Serif" font-size="10.00">Interrupt.close</text>
</a>
</g>
</g>
<!-- Node2 -->
<g id="Node000002" class="node">
<title>Node2</title>
<g id="a_Node000002"><a xlink:href="classedu_1_1wpi_1_1first_1_1wpilibj_1_1_synchronous_interrupt.html#a34fe92b12ce9515516781c4bec9839d7" target="_top" xlink:title=" ">
<polygon fill="white" stroke="#666666" points="362.38,-79.5 203.12,-79.5 203.12,-49 362.38,-49 362.38,-79.5"/>
<text text-anchor="start" x="211.12" y="-66" font-family="Helvetica,sans-Serif" font-size="10.00">edu.wpi.first.wpilibj.Synchronous</text>
<text text-anchor="middle" x="282.75" y="-54.75" font-family="Helvetica,sans-Serif" font-size="10.00">Interrupt.close</text>
</a>
</g>
</g>
<!-- Node1&#45;&gt;Node2 -->
<g id="edge1_Node000001_Node000002" class="edge">
<title>Node1&#45;&gt;Node2</title>
<g id="a_edge1_Node000001_Node000002"><a xlink:title=" ">
<path fill="none" stroke="#63b8ff" d="M164.85,-49.53C173.64,-50.63 182.63,-51.77 191.52,-52.89"/>
<polygon fill="#63b8ff" stroke="#63b8ff" points="190.85,-56.33 201.21,-54.11 191.72,-49.38 190.85,-56.33"/>
</a>
</g>
</g>
<!-- Node3 -->
<g id="Node000003" class="node">
<title>Node3</title>
<g id="a_Node000003"><a xlink:href="classedu_1_1wpi_1_1first_1_1wpilibj_1_1_asynchronous_interrupt.html#a5226bc21e1e18d7f5d59cf924d990672" target="_top" xlink:title=" ">
<polygon fill="white" stroke="#666666" points="365,-30.5 200.5,-30.5 200.5,0 365,0 365,-30.5"/>
<text text-anchor="start" x="208.5" y="-17" font-family="Helvetica,sans-Serif" font-size="10.00">edu.wpi.first.wpilibj.Asynchronous</text>
<text text-anchor="middle" x="282.75" y="-5.75" font-family="Helvetica,sans-Serif" font-size="10.00">Interrupt.disable</text>
</a>
</g>
</g>
<!-- Node1&#45;&gt;Node3 -->
<g id="edge2_Node000001_Node000003" class="edge">
<title>Node1&#45;&gt;Node3</title>
<g id="a_edge2_Node000001_Node000003"><a xlink:title=" ">
<path fill="none" stroke="#63b8ff" d="M164.85,-29.38C172.77,-28.43 180.85,-27.45 188.87,-26.48"/>
<polygon fill="#63b8ff" stroke="#63b8ff" points="189.14,-29.97 198.65,-25.3 188.3,-23.02 189.14,-29.97"/>
</a>
</g>
</g>
<!-- Node4 -->
<g id="Node000004" class="node">
<title>Node4</title>
<g id="a_Node000004"><a xlink:href="classedu_1_1wpi_1_1first_1_1wpilibj_1_1_synchronous_interrupt.html#ad0541e111aa0723d44e7ec14b0ca5630" target="_top" xlink:title=" ">
<polygon fill="white" stroke="#666666" points="560.25,-30.5 401,-30.5 401,0 560.25,0 560.25,-30.5"/>
<text text-anchor="start" x="409" y="-17" font-family="Helvetica,sans-Serif" font-size="10.00">edu.wpi.first.wpilibj.Synchronous</text>
<text text-anchor="middle" x="480.62" y="-5.75" font-family="Helvetica,sans-Serif" font-size="10.00">Interrupt.wakeupWaitingInterrupt</text>
</a>
</g>
</g>
<!-- Node3&#45;&gt;Node4 -->
<g id="edge3_Node000003_Node000004" class="edge">
<title>Node3&#45;&gt;Node4</title>
<g id="a_edge3_Node000003_Node000004"><a xlink:title=" ">
<path fill="none" stroke="#63b8ff" d="M365.4,-15.25C373.23,-15.25 381.2,-15.25 389.11,-15.25"/>
<polygon fill="#63b8ff" stroke="#63b8ff" points="389.11,-18.75 399.11,-15.25 389.11,-11.75 389.11,-18.75"/>
</a>
</g>
</g>
</g>
</svg>
