<?xml version="1.0" encoding="UTF-8" standalone="no"?>
<!DOCTYPE svg PUBLIC "-//W3C//DTD SVG 1.1//EN"
 "http://www.w3.org/Graphics/SVG/1.1/DTD/svg11.dtd">
<!-- Generated by graphviz version 9.0.0 (20230911.1827)
 -->
<!-- Title: edu.wpi.first.wpilibj.livewindow.LiveWindow.setEnabled Pages: 1 -->
<svg width="333pt" height="88pt"
 viewBox="0.00 0.00 333.25 87.50" xmlns="http://www.w3.org/2000/svg" xmlns:xlink="http://www.w3.org/1999/xlink">
<g id="graph0" class="graph" transform="scale(1 1) rotate(0) translate(4 83.5)">
<title>edu.wpi.first.wpilibj.livewindow.LiveWindow.setEnabled</title>
<!-- Node1 -->
<g id="Node000001" class="node">
<title>Node1</title>
<g id="a_Node000001"><a xlink:title=" ">
<polygon fill="#999999" stroke="#666666" points="325.25,-54.5 173.5,-54.5 173.5,-24 325.25,-24 325.25,-54.5"/>
<text text-anchor="start" x="181.5" y="-41" font-family="Helvetica,sans-Serif" font-size="10.00">edu.wpi.first.wpilibj.livewindow.</text>
<text text-anchor="middle" x="249.38" y="-29.75" font-family="Helvetica,sans-Serif" font-size="10.00">LiveWindow.setEnabled</text>
</a>
</g>
</g>
<!-- Node2 -->
<g id="Node000002" class="node">
<title>Node2</title>
<g id="a_Node000002"><a xlink:href="classedu_1_1wpi_1_1first_1_1wpilibj_1_1_iterative_robot_base.html#aac5c45d7130bce188e0f9278075e8891" target="_top" xlink:title=" ">
<polygon fill="white" stroke="#666666" points="137.5,-79.5 0,-79.5 0,-49 137.5,-49 137.5,-79.5"/>
<text text-anchor="start" x="8" y="-66" font-family="Helvetica,sans-Serif" font-size="10.00">edu.wpi.first.wpilibj.Iterative</text>
<text text-anchor="middle" x="68.75" y="-54.75" font-family="Helvetica,sans-Serif" font-size="10.00">RobotBase.loopFunc</text>
</a>
</g>
</g>
<!-- Node1&#45;&gt;Node2 -->
<g id="edge1_Node000001_Node000002" class="edge">
<title>Node1&#45;&gt;Node2</title>
<g id="a_edge1_Node000001_Node000002"><a xlink:title=" ">
<path fill="none" stroke="#63b8ff" d="M161.8,-51.37C153.74,-52.5 145.65,-53.63 137.8,-54.73"/>
<polygon fill="#63b8ff" stroke="#63b8ff" points="162.22,-54.84 171.64,-49.99 161.25,-47.91 162.22,-54.84"/>
</a>
</g>
</g>
<!-- Node3 -->
<g id="Node000003" class="node">
<title>Node3</title>
<g id="a_Node000003"><a xlink:href="classedu_1_1wpi_1_1first_1_1wpilibj_1_1_robot_base.html#aaa94c56bb5bb24b2ec7c526c0c1eac62" target="_top" xlink:title=" ">
<polygon fill="white" stroke="#666666" points="133,-30.5 4.5,-30.5 4.5,0 133,0 133,-30.5"/>
<text text-anchor="start" x="12.5" y="-17" font-family="Helvetica,sans-Serif" font-size="10.00">edu.wpi.first.wpilibj.Robot</text>
<text text-anchor="middle" x="68.75" y="-5.75" font-family="Helvetica,sans-Serif" font-size="10.00">Base.RobotBase</text>
</a>
</g>
</g>
<!-- Node1&#45;&gt;Node3 -->
<g id="edge2_Node000001_Node000003" class="edge">
<title>Node1&#45;&gt;Node3</title>
<g id="a_edge2_Node000001_Node000003"><a xlink:title=" ">
<path fill="none" stroke="#63b8ff" d="M161.88,-27.63C152.26,-26.34 142.58,-25.04 133.31,-23.79"/>
<polygon fill="#63b8ff" stroke="#63b8ff" points="161.26,-31.08 171.64,-28.94 162.19,-24.14 161.26,-31.08"/>
</a>
</g>
</g>
</g>
</svg>
