<?xml version="1.0" encoding="UTF-8" standalone="no"?>
<!DOCTYPE svg PUBLIC "-//W3C//DTD SVG 1.1//EN"
 "http://www.w3.org/Graphics/SVG/1.1/DTD/svg11.dtd">
<!-- Generated by graphviz version 9.0.0 (20230911.1827)
 -->
<!-- Title: edu.wpi.first.wpilibj.Joystick.getTop Pages: 1 -->
<svg width="695pt" height="106pt"
 viewBox="0.00 0.00 695.25 105.50" xmlns="http://www.w3.org/2000/svg" xmlns:xlink="http://www.w3.org/1999/xlink">
<g id="graph0" class="graph" transform="scale(1 1) rotate(0) translate(4 101.5)">
<title>edu.wpi.first.wpilibj.Joystick.getTop</title>
<!-- Node1 -->
<g id="Node000001" class="node">
<title>Node1</title>
<g id="a_Node000001"><a xlink:title=" ">
<polygon fill="#999999" stroke="#666666" points="171.25,-73.88 0,-73.88 0,-54.62 171.25,-54.62 171.25,-73.88"/>
<text text-anchor="middle" x="85.62" y="-60.38" font-family="Helvetica,sans-Serif" font-size="10.00">edu.wpi.first.wpilibj.Joystick.getTop</text>
</a>
</g>
</g>
<!-- Node2 -->
<g id="Node000002" class="node">
<title>Node2</title>
<g id="a_Node000002"><a xlink:href="classedu_1_1wpi_1_1first_1_1wpilibj_1_1_generic_h_i_d.html#abdb0245e5cb7f7b92cc1060202821a2d" target="_top" xlink:title=" ">
<polygon fill="white" stroke="#666666" points="343.25,-79.5 207.25,-79.5 207.25,-49 343.25,-49 343.25,-79.5"/>
<text text-anchor="start" x="215.25" y="-66" font-family="Helvetica,sans-Serif" font-size="10.00">edu.wpi.first.wpilibj.Generic</text>
<text text-anchor="middle" x="275.25" y="-54.75" font-family="Helvetica,sans-Serif" font-size="10.00">HID.getRawButton</text>
</a>
</g>
</g>
<!-- Node1&#45;&gt;Node2 -->
<g id="edge1_Node000001_Node000002" class="edge">
<title>Node1&#45;&gt;Node2</title>
<g id="a_edge1_Node000001_Node000002"><a xlink:title=" ">
<path fill="none" stroke="#63b8ff" d="M171.65,-64.25C179.6,-64.25 187.63,-64.25 195.52,-64.25"/>
<polygon fill="#63b8ff" stroke="#63b8ff" points="195.43,-67.75 205.43,-64.25 195.43,-60.75 195.43,-67.75"/>
</a>
</g>
</g>
<!-- Node3 -->
<g id="Node000003" class="node">
<title>Node3</title>
<g id="a_Node000003"><a xlink:href="classedu_1_1wpi_1_1first_1_1wpilibj_1_1_generic_h_i_d.html#a77f3feaa9b70759aa7e26c20bec4bec2" target="_top" xlink:title=" ">
<polygon fill="white" stroke="#666666" points="515.25,-79.5 379.25,-79.5 379.25,-49 515.25,-49 515.25,-79.5"/>
<text text-anchor="start" x="387.25" y="-66" font-family="Helvetica,sans-Serif" font-size="10.00">edu.wpi.first.wpilibj.Generic</text>
<text text-anchor="middle" x="447.25" y="-54.75" font-family="Helvetica,sans-Serif" font-size="10.00">HID.button</text>
</a>
</g>
</g>
<!-- Node2&#45;&gt;Node3 -->
<g id="edge2_Node000002_Node000003" class="edge">
<title>Node2&#45;&gt;Node3</title>
<g id="a_edge2_Node000002_Node000003"><a xlink:title=" ">
<path fill="none" stroke="#63b8ff" d="M343.44,-57.63C351.39,-57.51 359.55,-57.47 367.64,-57.52"/>
<polygon fill="#63b8ff" stroke="#63b8ff" points="367.44,-61.02 377.48,-57.62 367.52,-54.02 367.44,-61.02"/>
</a>
</g>
</g>
<!-- Node5 -->
<g id="Node000005" class="node">
<title>Node5</title>
<g id="a_Node000005"><a xlink:href="classedu_1_1wpi_1_1first_1_1wpilibj_1_1_driver_station.html#a3d86d4b8414c05aafe18fc866d99ccab" target="_top" xlink:title=" ">
<polygon fill="white" stroke="#666666" points="511.5,-30.5 383,-30.5 383,0 511.5,0 511.5,-30.5"/>
<text text-anchor="start" x="391" y="-17" font-family="Helvetica,sans-Serif" font-size="10.00">edu.wpi.first.wpilibj.Driver</text>
<text text-anchor="middle" x="447.25" y="-5.75" font-family="Helvetica,sans-Serif" font-size="10.00">Station.getStickButton</text>
</a>
</g>
</g>
<!-- Node2&#45;&gt;Node5 -->
<g id="edge7_Node000002_Node000005" class="edge">
<title>Node2&#45;&gt;Node5</title>
<g id="a_edge7_Node000002_Node000005"><a xlink:title=" ">
<path fill="none" stroke="#63b8ff" d="M330.51,-48.61C346.53,-43.99 364.23,-38.89 380.88,-34.09"/>
<polygon fill="#63b8ff" stroke="#63b8ff" points="381.54,-37.54 390.18,-31.41 379.6,-30.82 381.54,-37.54"/>
</a>
</g>
</g>
<!-- Node3&#45;&gt;Node2 -->
<g id="edge4_Node000003_Node000002" class="edge">
<title>Node3&#45;&gt;Node2</title>
<g id="a_edge4_Node000003_Node000002"><a xlink:title=" ">
<path fill="none" stroke="#63b8ff" d="M378.99,-70.87C371.04,-70.99 362.88,-71.03 354.79,-70.98"/>
<polygon fill="#63b8ff" stroke="#63b8ff" points="354.99,-67.48 344.95,-70.88 354.92,-74.48 354.99,-67.48"/>
</a>
</g>
</g>
<!-- Node3&#45;&gt;Node3 -->
<g id="edge3_Node000003_Node000003" class="edge">
<title>Node3&#45;&gt;Node3</title>
<g id="a_edge3_Node000003_Node000003"><a xlink:title=" ">
<path fill="none" stroke="#63b8ff" d="M416.77,-79.99C410.55,-89.06 420.71,-97.5 447.25,-97.5 461.76,-97.5 471.38,-94.97 476.09,-91.2"/>
<polygon fill="#63b8ff" stroke="#63b8ff" points="479.53,-91.88 477.51,-81.48 472.61,-90.87 479.53,-91.88"/>
</a>
</g>
</g>
<!-- Node4 -->
<g id="Node000004" class="node">
<title>Node4</title>
<g id="a_Node000004"><a xlink:href="classedu_1_1wpi_1_1first_1_1wpilibj_1_1_generic_h_i_d.html#af0b067c76cbb79f54d7f475e88fcfed2" target="_top" xlink:title=" ">
<polygon fill="white" stroke="#666666" points="687.25,-79.5 551.25,-79.5 551.25,-49 687.25,-49 687.25,-79.5"/>
<text text-anchor="start" x="559.25" y="-66" font-family="Helvetica,sans-Serif" font-size="10.00">edu.wpi.first.wpilibj.Generic</text>
<text text-anchor="middle" x="619.25" y="-54.75" font-family="Helvetica,sans-Serif" font-size="10.00">HID.pov</text>
</a>
</g>
</g>
<!-- Node3&#45;&gt;Node4 -->
<g id="edge5_Node000003_Node000004" class="edge">
<title>Node3&#45;&gt;Node4</title>
<g id="a_edge5_Node000003_Node000004"><a xlink:title=" ">
<path fill="none" stroke="#63b8ff" d="M515.44,-64.25C523.39,-64.25 531.55,-64.25 539.64,-64.25"/>
<polygon fill="#63b8ff" stroke="#63b8ff" points="539.48,-67.75 549.48,-64.25 539.48,-60.75 539.48,-67.75"/>
</a>
</g>
</g>
<!-- Node4&#45;&gt;Node4 -->
<g id="edge6_Node000004_Node000004" class="edge">
<title>Node4&#45;&gt;Node4</title>
<g id="a_edge6_Node000004_Node000004"><a xlink:title=" ">
<path fill="none" stroke="#63b8ff" d="M588.77,-79.99C582.55,-89.06 592.71,-97.5 619.25,-97.5 633.76,-97.5 643.38,-94.97 648.09,-91.2"/>
<polygon fill="#63b8ff" stroke="#63b8ff" points="651.53,-91.88 649.51,-81.48 644.61,-90.87 651.53,-91.88"/>
</a>
</g>
</g>
</g>
</svg>
