<?xml version="1.0" encoding="UTF-8" standalone="no"?>
<!DOCTYPE svg PUBLIC "-//W3C//DTD SVG 1.1//EN"
 "http://www.w3.org/Graphics/SVG/1.1/DTD/svg11.dtd">
<!-- Generated by graphviz version 9.0.0 (20230911.1827)
 -->
<!-- Title: edu.wpi.first.wpilibj.simulation.GenericHIDSim.setRawAxis Pages: 1 -->
<svg width="381pt" height="1117pt"
 viewBox="0.00 0.00 380.50 1116.50" xmlns="http://www.w3.org/2000/svg" xmlns:xlink="http://www.w3.org/1999/xlink">
<g id="graph0" class="graph" transform="scale(1 1) rotate(0) translate(4 1112.5)">
<title>edu.wpi.first.wpilibj.simulation.GenericHIDSim.setRawAxis</title>
<!-- Node1 -->
<g id="Node000001" class="node">
<title>Node1</title>
<g id="a_Node000001"><a xlink:title=" ">
<polygon fill="#999999" stroke="#666666" points="372.5,-569.5 223,-569.5 223,-539 372.5,-539 372.5,-569.5"/>
<text text-anchor="start" x="231" y="-556" font-family="Helvetica,sans-Serif" font-size="10.00">edu.wpi.first.wpilibj.simulation.</text>
<text text-anchor="middle" x="297.75" y="-544.75" font-family="Helvetica,sans-Serif" font-size="10.00">GenericHIDSim.setRawAxis</text>
</a>
</g>
</g>
<!-- Node2 -->
<g id="Node000002" class="node">
<title>Node2</title>
<g id="a_Node000002"><a xlink:href="classedu_1_1wpi_1_1first_1_1wpilibj_1_1simulation_1_1_p_s4_controller_sim.html#ae2b7d1039b9d18d255a5e9a8a4cbb1ef" target="_top" xlink:title=" ">
<polygon fill="white" stroke="#666666" points="168.25,-1108.5 18.75,-1108.5 18.75,-1078 168.25,-1078 168.25,-1108.5"/>
<text text-anchor="start" x="26.75" y="-1095" font-family="Helvetica,sans-Serif" font-size="10.00">edu.wpi.first.wpilibj.simulation.</text>
<text text-anchor="middle" x="93.5" y="-1083.75" font-family="Helvetica,sans-Serif" font-size="10.00">PS4ControllerSim.setL2Axis</text>
</a>
</g>
</g>
<!-- Node1&#45;&gt;Node2 -->
<g id="edge1_Node000001_Node000002" class="edge">
<title>Node1&#45;&gt;Node2</title>
<g id="a_edge1_Node000001_Node000002"><a xlink:title=" ">
<path fill="none" stroke="#63b8ff" d="M294.65,-581.1C286.67,-676.36 255.18,-996.32 187,-1068.25 181.74,-1073.8 175.38,-1078.17 168.49,-1081.59"/>
<polygon fill="#63b8ff" stroke="#63b8ff" points="298.12,-581.67 295.44,-571.42 291.14,-581.1 298.12,-581.67"/>
</a>
</g>
</g>
<!-- Node3 -->
<g id="Node000003" class="node">
<title>Node3</title>
<g id="a_Node000003"><a xlink:href="classedu_1_1wpi_1_1first_1_1wpilibj_1_1simulation_1_1_p_s5_controller_sim.html#a5a609da3a0d82144e2cf56ef6ac2a27b" target="_top" xlink:title=" ">
<polygon fill="white" stroke="#666666" points="168.25,-1059.5 18.75,-1059.5 18.75,-1029 168.25,-1029 168.25,-1059.5"/>
<text text-anchor="start" x="26.75" y="-1046" font-family="Helvetica,sans-Serif" font-size="10.00">edu.wpi.first.wpilibj.simulation.</text>
<text text-anchor="middle" x="93.5" y="-1034.75" font-family="Helvetica,sans-Serif" font-size="10.00">PS5ControllerSim.setL2Axis</text>
</a>
</g>
</g>
<!-- Node1&#45;&gt;Node3 -->
<g id="edge2_Node000001_Node000003" class="edge">
<title>Node1&#45;&gt;Node3</title>
<g id="a_edge2_Node000001_Node000003"><a xlink:title=" ">
<path fill="none" stroke="#63b8ff" d="M294.03,-580.82C284.4,-669.77 249.14,-955.08 187,-1019.25 181.68,-1024.75 175.28,-1029.08 168.37,-1032.48"/>
<polygon fill="#63b8ff" stroke="#63b8ff" points="297.48,-581.44 295.06,-571.12 290.52,-580.7 297.48,-581.44"/>
</a>
</g>
</g>
<!-- Node4 -->
<g id="Node000004" class="node">
<title>Node4</title>
<g id="a_Node000004"><a xlink:href="classedu_1_1wpi_1_1first_1_1wpilibj_1_1simulation_1_1_xbox_controller_sim.html#ab7f93b0a9e361fbbdcd3d44919ef8bb1" target="_top" xlink:title=" ">
<polygon fill="white" stroke="#666666" points="183.62,-1010.5 3.38,-1010.5 3.38,-980 183.62,-980 183.62,-1010.5"/>
<text text-anchor="start" x="11.38" y="-997" font-family="Helvetica,sans-Serif" font-size="10.00">edu.wpi.first.wpilibj.simulation.</text>
<text text-anchor="middle" x="93.5" y="-985.75" font-family="Helvetica,sans-Serif" font-size="10.00">XboxControllerSim.setLeftTriggerAxis</text>
</a>
</g>
</g>
<!-- Node1&#45;&gt;Node4 -->
<g id="edge3_Node000001_Node000004" class="edge">
<title>Node1&#45;&gt;Node4</title>
<g id="a_edge3_Node000001_Node000004"><a xlink:title=" ">
<path fill="none" stroke="#63b8ff" d="M293.22,-580.97C281.75,-663.77 243.03,-913.88 187,-970.25 183.36,-973.91 179.25,-977.05 174.83,-979.74"/>
<polygon fill="#63b8ff" stroke="#63b8ff" points="296.65,-581.68 294.53,-571.3 289.72,-580.74 296.65,-581.68"/>
</a>
</g>
</g>
<!-- Node5 -->
<g id="Node000005" class="node">
<title>Node5</title>
<g id="a_Node000005"><a xlink:href="classedu_1_1wpi_1_1first_1_1wpilibj_1_1simulation_1_1_p_s4_controller_sim.html#a6e5f5e22389a54b9b7d59de228ea3b1a" target="_top" xlink:title=" ">
<polygon fill="white" stroke="#666666" points="168.25,-961.5 18.75,-961.5 18.75,-931 168.25,-931 168.25,-961.5"/>
<text text-anchor="start" x="26.75" y="-948" font-family="Helvetica,sans-Serif" font-size="10.00">edu.wpi.first.wpilibj.simulation.</text>
<text text-anchor="middle" x="93.5" y="-936.75" font-family="Helvetica,sans-Serif" font-size="10.00">PS4ControllerSim.setLeftX</text>
</a>
</g>
</g>
<!-- Node1&#45;&gt;Node5 -->
<g id="edge4_Node000001_Node000005" class="edge">
<title>Node1&#45;&gt;Node5</title>
<g id="a_edge4_Node000001_Node000005"><a xlink:title=" ">
<path fill="none" stroke="#63b8ff" d="M297.05,-581.06C296.27,-648.44 284.56,-826.25 187,-921.25 181.64,-926.47 175.3,-930.63 168.5,-933.94"/>
<polygon fill="#63b8ff" stroke="#63b8ff" points="300.54,-581.33 297.08,-571.32 293.54,-581.31 300.54,-581.33"/>
</a>
</g>
</g>
<!-- Node6 -->
<g id="Node000006" class="node">
<title>Node6</title>
<g id="a_Node000006"><a xlink:href="classedu_1_1wpi_1_1first_1_1wpilibj_1_1simulation_1_1_p_s5_controller_sim.html#ad89397a725359dcda24d9985a6af29b1" target="_top" xlink:title=" ">
<polygon fill="white" stroke="#666666" points="168.25,-912.5 18.75,-912.5 18.75,-882 168.25,-882 168.25,-912.5"/>
<text text-anchor="start" x="26.75" y="-899" font-family="Helvetica,sans-Serif" font-size="10.00">edu.wpi.first.wpilibj.simulation.</text>
<text text-anchor="middle" x="93.5" y="-887.75" font-family="Helvetica,sans-Serif" font-size="10.00">PS5ControllerSim.setLeftX</text>
</a>
</g>
</g>
<!-- Node1&#45;&gt;Node6 -->
<g id="edge5_Node000001_Node000006" class="edge">
<title>Node1&#45;&gt;Node6</title>
<g id="a_edge5_Node000001_Node000006"><a xlink:title=" ">
<path fill="none" stroke="#63b8ff" d="M295.59,-581.18C291.46,-642.27 272.66,-792.26 187,-872.25 181.65,-877.25 175.41,-881.26 168.74,-884.49"/>
<polygon fill="#63b8ff" stroke="#63b8ff" points="299.07,-581.57 296.16,-571.38 292.08,-581.16 299.07,-581.57"/>
</a>
</g>
</g>
<!-- Node7 -->
<g id="Node000007" class="node">
<title>Node7</title>
<g id="a_Node000007"><a xlink:href="classedu_1_1wpi_1_1first_1_1wpilibj_1_1simulation_1_1_xbox_controller_sim.html#aa6ea5dae286abbc6a5b93ce1546701cc" target="_top" xlink:title=" ">
<polygon fill="white" stroke="#666666" points="168.25,-863.5 18.75,-863.5 18.75,-833 168.25,-833 168.25,-863.5"/>
<text text-anchor="start" x="26.75" y="-850" font-family="Helvetica,sans-Serif" font-size="10.00">edu.wpi.first.wpilibj.simulation.</text>
<text text-anchor="middle" x="93.5" y="-838.75" font-family="Helvetica,sans-Serif" font-size="10.00">XboxControllerSim.setLeftX</text>
</a>
</g>
</g>
<!-- Node1&#45;&gt;Node7 -->
<g id="edge6_Node000001_Node000007" class="edge">
<title>Node1&#45;&gt;Node7</title>
<g id="a_edge6_Node000001_Node000007"><a xlink:title=" ">
<path fill="none" stroke="#63b8ff" d="M293.67,-581.07C286,-635.19 260.99,-757.87 187,-823.25 181.52,-828.1 175.18,-832.02 168.46,-835.18"/>
<polygon fill="#63b8ff" stroke="#63b8ff" points="297.13,-581.6 294.96,-571.23 290.19,-580.69 297.13,-581.6"/>
</a>
</g>
</g>
<!-- Node8 -->
<g id="Node000008" class="node">
<title>Node8</title>
<g id="a_Node000008"><a xlink:href="classedu_1_1wpi_1_1first_1_1wpilibj_1_1simulation_1_1_p_s4_controller_sim.html#aeeb1f5c8c47be407dfe553954c15e636" target="_top" xlink:title=" ">
<polygon fill="white" stroke="#666666" points="168.25,-814.5 18.75,-814.5 18.75,-784 168.25,-784 168.25,-814.5"/>
<text text-anchor="start" x="26.75" y="-801" font-family="Helvetica,sans-Serif" font-size="10.00">edu.wpi.first.wpilibj.simulation.</text>
<text text-anchor="middle" x="93.5" y="-789.75" font-family="Helvetica,sans-Serif" font-size="10.00">PS4ControllerSim.setLeftY</text>
</a>
</g>
</g>
<!-- Node1&#45;&gt;Node8 -->
<g id="edge7_Node000001_Node000008" class="edge">
<title>Node1&#45;&gt;Node8</title>
<g id="a_edge7_Node000001_Node000008"><a xlink:title=" ">
<path fill="none" stroke="#63b8ff" d="M291.05,-580.7C279.65,-627.08 249.59,-723.01 187,-774.25 181.47,-778.78 175.18,-782.5 168.55,-785.54"/>
<polygon fill="#63b8ff" stroke="#63b8ff" points="294.39,-581.78 293.27,-571.25 287.58,-580.19 294.39,-581.78"/>
</a>
</g>
</g>
<!-- Node9 -->
<g id="Node000009" class="node">
<title>Node9</title>
<g id="a_Node000009"><a xlink:href="classedu_1_1wpi_1_1first_1_1wpilibj_1_1simulation_1_1_p_s5_controller_sim.html#abc12d849837573dce631db48e7225e3c" target="_top" xlink:title=" ">
<polygon fill="white" stroke="#666666" points="168.25,-765.5 18.75,-765.5 18.75,-735 168.25,-735 168.25,-765.5"/>
<text text-anchor="start" x="26.75" y="-752" font-family="Helvetica,sans-Serif" font-size="10.00">edu.wpi.first.wpilibj.simulation.</text>
<text text-anchor="middle" x="93.5" y="-740.75" font-family="Helvetica,sans-Serif" font-size="10.00">PS5ControllerSim.setLeftY</text>
</a>
</g>
</g>
<!-- Node1&#45;&gt;Node9 -->
<g id="edge8_Node000001_Node000009" class="edge">
<title>Node1&#45;&gt;Node9</title>
<g id="a_edge8_Node000001_Node000009"><a xlink:title=" ">
<path fill="none" stroke="#63b8ff" d="M286.99,-580.66C271.64,-618.52 238.2,-687.76 187,-725.25 181.36,-729.38 175.09,-732.82 168.53,-735.7"/>
<polygon fill="#63b8ff" stroke="#63b8ff" points="290.23,-581.99 290.62,-571.4 283.71,-579.43 290.23,-581.99"/>
</a>
</g>
</g>
<!-- Node10 -->
<g id="Node000010" class="node">
<title>Node10</title>
<g id="a_Node000010"><a xlink:href="classedu_1_1wpi_1_1first_1_1wpilibj_1_1simulation_1_1_xbox_controller_sim.html#a4ec8ad57616a3a59a6f3c22c9f986992" target="_top" xlink:title=" ">
<polygon fill="white" stroke="#666666" points="168.25,-716.5 18.75,-716.5 18.75,-686 168.25,-686 168.25,-716.5"/>
<text text-anchor="start" x="26.75" y="-703" font-family="Helvetica,sans-Serif" font-size="10.00">edu.wpi.first.wpilibj.simulation.</text>
<text text-anchor="middle" x="93.5" y="-691.75" font-family="Helvetica,sans-Serif" font-size="10.00">XboxControllerSim.setLeftY</text>
</a>
</g>
</g>
<!-- Node1&#45;&gt;Node10 -->
<g id="edge9_Node000001_Node000010" class="edge">
<title>Node1&#45;&gt;Node10</title>
<g id="a_edge9_Node000001_Node000010"><a xlink:title=" ">
<path fill="none" stroke="#63b8ff" d="M280.72,-579.43C261.7,-607.25 227.42,-651.41 187,-676.25 181.19,-679.82 174.87,-682.89 168.35,-685.53"/>
<polygon fill="#63b8ff" stroke="#63b8ff" points="283.54,-581.5 286.18,-571.24 277.72,-577.62 283.54,-581.5"/>
</a>
</g>
</g>
<!-- Node11 -->
<g id="Node000011" class="node">
<title>Node11</title>
<g id="a_Node000011"><a xlink:href="classedu_1_1wpi_1_1first_1_1wpilibj_1_1simulation_1_1_p_s4_controller_sim.html#a5a97ae3e1cfe3829bc461d9701be20d8" target="_top" xlink:title=" ">
<polygon fill="white" stroke="#666666" points="168.25,-667.5 18.75,-667.5 18.75,-637 168.25,-637 168.25,-667.5"/>
<text text-anchor="start" x="26.75" y="-654" font-family="Helvetica,sans-Serif" font-size="10.00">edu.wpi.first.wpilibj.simulation.</text>
<text text-anchor="middle" x="93.5" y="-642.75" font-family="Helvetica,sans-Serif" font-size="10.00">PS4ControllerSim.setR2Axis</text>
</a>
</g>
</g>
<!-- Node1&#45;&gt;Node11 -->
<g id="edge10_Node000001_Node000011" class="edge">
<title>Node1&#45;&gt;Node11</title>
<g id="a_edge10_Node000001_Node000011"><a xlink:title=" ">
<path fill="none" stroke="#63b8ff" d="M268.55,-576.73C247.22,-592.78 216.64,-613.82 187,-627.25 179.27,-630.75 170.95,-633.85 162.58,-636.57"/>
<polygon fill="#63b8ff" stroke="#63b8ff" points="270.65,-579.53 276.46,-570.68 266.39,-573.98 270.65,-579.53"/>
</a>
</g>
</g>
<!-- Node12 -->
<g id="Node000012" class="node">
<title>Node12</title>
<g id="a_Node000012"><a xlink:href="classedu_1_1wpi_1_1first_1_1wpilibj_1_1simulation_1_1_p_s5_controller_sim.html#a91121005ba83b9eaadee63ca0b83e2ca" target="_top" xlink:title=" ">
<polygon fill="white" stroke="#666666" points="168.25,-618.5 18.75,-618.5 18.75,-588 168.25,-588 168.25,-618.5"/>
<text text-anchor="start" x="26.75" y="-605" font-family="Helvetica,sans-Serif" font-size="10.00">edu.wpi.first.wpilibj.simulation.</text>
<text text-anchor="middle" x="93.5" y="-593.75" font-family="Helvetica,sans-Serif" font-size="10.00">PS5ControllerSim.setR2Axis</text>
</a>
</g>
</g>
<!-- Node1&#45;&gt;Node12 -->
<g id="edge11_Node000001_Node000012" class="edge">
<title>Node1&#45;&gt;Node12</title>
<g id="a_edge11_Node000001_Node000012"><a xlink:title=" ">
<path fill="none" stroke="#63b8ff" d="M220.84,-572.64C200.59,-577.55 178.9,-582.8 159.31,-587.55"/>
<polygon fill="#63b8ff" stroke="#63b8ff" points="221.56,-576.07 230.45,-570.31 219.91,-569.27 221.56,-576.07"/>
</a>
</g>
</g>
<!-- Node13 -->
<g id="Node000013" class="node">
<title>Node13</title>
<g id="a_Node000013"><a xlink:href="classedu_1_1wpi_1_1first_1_1wpilibj_1_1simulation_1_1_xbox_controller_sim.html#a38f4810ce0954e24876967aab05ac2e5" target="_top" xlink:title=" ">
<polygon fill="white" stroke="#666666" points="187,-569.5 0,-569.5 0,-539 187,-539 187,-569.5"/>
<text text-anchor="start" x="8" y="-556" font-family="Helvetica,sans-Serif" font-size="10.00">edu.wpi.first.wpilibj.simulation.</text>
<text text-anchor="middle" x="93.5" y="-544.75" font-family="Helvetica,sans-Serif" font-size="10.00">XboxControllerSim.setRightTriggerAxis</text>
</a>
</g>
</g>
<!-- Node1&#45;&gt;Node13 -->
<g id="edge12_Node000001_Node000013" class="edge">
<title>Node1&#45;&gt;Node13</title>
<g id="a_edge12_Node000001_Node000013"><a xlink:title=" ">
<path fill="none" stroke="#63b8ff" d="M211.13,-554.25C203.23,-554.25 195.2,-554.25 187.24,-554.25"/>
<polygon fill="#63b8ff" stroke="#63b8ff" points="211.07,-557.75 221.07,-554.25 211.07,-550.75 211.07,-557.75"/>
</a>
</g>
</g>
<!-- Node14 -->
<g id="Node000014" class="node">
<title>Node14</title>
<g id="a_Node000014"><a xlink:href="classedu_1_1wpi_1_1first_1_1wpilibj_1_1simulation_1_1_p_s4_controller_sim.html#a6e7d4356acd402eb5f1b3d50ec8b48cc" target="_top" xlink:title=" ">
<polygon fill="white" stroke="#666666" points="168.25,-520.5 18.75,-520.5 18.75,-490 168.25,-490 168.25,-520.5"/>
<text text-anchor="start" x="26.75" y="-507" font-family="Helvetica,sans-Serif" font-size="10.00">edu.wpi.first.wpilibj.simulation.</text>
<text text-anchor="middle" x="93.5" y="-495.75" font-family="Helvetica,sans-Serif" font-size="10.00">PS4ControllerSim.setRightX</text>
</a>
</g>
</g>
<!-- Node1&#45;&gt;Node14 -->
<g id="edge13_Node000001_Node000014" class="edge">
<title>Node1&#45;&gt;Node14</title>
<g id="a_edge13_Node000001_Node000014"><a xlink:title=" ">
<path fill="none" stroke="#63b8ff" d="M220.84,-535.86C200.59,-530.95 178.9,-525.7 159.31,-520.95"/>
<polygon fill="#63b8ff" stroke="#63b8ff" points="219.91,-539.23 230.45,-538.19 221.56,-532.43 219.91,-539.23"/>
</a>
</g>
</g>
<!-- Node15 -->
<g id="Node000015" class="node">
<title>Node15</title>
<g id="a_Node000015"><a xlink:href="classedu_1_1wpi_1_1first_1_1wpilibj_1_1simulation_1_1_p_s5_controller_sim.html#af4349e482f293649cd9edbf8f10918e7" target="_top" xlink:title=" ">
<polygon fill="white" stroke="#666666" points="168.25,-471.5 18.75,-471.5 18.75,-441 168.25,-441 168.25,-471.5"/>
<text text-anchor="start" x="26.75" y="-458" font-family="Helvetica,sans-Serif" font-size="10.00">edu.wpi.first.wpilibj.simulation.</text>
<text text-anchor="middle" x="93.5" y="-446.75" font-family="Helvetica,sans-Serif" font-size="10.00">PS5ControllerSim.setRightX</text>
</a>
</g>
</g>
<!-- Node1&#45;&gt;Node15 -->
<g id="edge14_Node000001_Node000015" class="edge">
<title>Node1&#45;&gt;Node15</title>
<g id="a_edge14_Node000001_Node000015"><a xlink:title=" ">
<path fill="none" stroke="#63b8ff" d="M268.55,-531.77C247.22,-515.72 216.64,-494.68 187,-481.25 179.27,-477.75 170.95,-474.65 162.58,-471.93"/>
<polygon fill="#63b8ff" stroke="#63b8ff" points="266.39,-534.52 276.46,-537.82 270.65,-528.97 266.39,-534.52"/>
</a>
</g>
</g>
<!-- Node16 -->
<g id="Node000016" class="node">
<title>Node16</title>
<g id="a_Node000016"><a xlink:href="classedu_1_1wpi_1_1first_1_1wpilibj_1_1simulation_1_1_xbox_controller_sim.html#a3132862d7fe10fb1b5f165267c0618cb" target="_top" xlink:title=" ">
<polygon fill="white" stroke="#666666" points="168.25,-422.5 18.75,-422.5 18.75,-392 168.25,-392 168.25,-422.5"/>
<text text-anchor="start" x="26.75" y="-409" font-family="Helvetica,sans-Serif" font-size="10.00">edu.wpi.first.wpilibj.simulation.</text>
<text text-anchor="middle" x="93.5" y="-397.75" font-family="Helvetica,sans-Serif" font-size="10.00">XboxControllerSim.setRightX</text>
</a>
</g>
</g>
<!-- Node1&#45;&gt;Node16 -->
<g id="edge15_Node000001_Node000016" class="edge">
<title>Node1&#45;&gt;Node16</title>
<g id="a_edge15_Node000001_Node000016"><a xlink:title=" ">
<path fill="none" stroke="#63b8ff" d="M280.72,-529.07C261.7,-501.25 227.42,-457.09 187,-432.25 181.19,-428.68 174.87,-425.61 168.35,-422.97"/>
<polygon fill="#63b8ff" stroke="#63b8ff" points="277.72,-530.88 286.18,-537.26 283.54,-527 277.72,-530.88"/>
</a>
</g>
</g>
<!-- Node17 -->
<g id="Node000017" class="node">
<title>Node17</title>
<g id="a_Node000017"><a xlink:href="classedu_1_1wpi_1_1first_1_1wpilibj_1_1simulation_1_1_p_s4_controller_sim.html#a6cd92ef1214911e6da40326791a76b81" target="_top" xlink:title=" ">
<polygon fill="white" stroke="#666666" points="168.25,-373.5 18.75,-373.5 18.75,-343 168.25,-343 168.25,-373.5"/>
<text text-anchor="start" x="26.75" y="-360" font-family="Helvetica,sans-Serif" font-size="10.00">edu.wpi.first.wpilibj.simulation.</text>
<text text-anchor="middle" x="93.5" y="-348.75" font-family="Helvetica,sans-Serif" font-size="10.00">PS4ControllerSim.setRightY</text>
</a>
</g>
</g>
<!-- Node1&#45;&gt;Node17 -->
<g id="edge16_Node000001_Node000017" class="edge">
<title>Node1&#45;&gt;Node17</title>
<g id="a_edge16_Node000001_Node000017"><a xlink:title=" ">
<path fill="none" stroke="#63b8ff" d="M286.99,-527.84C271.64,-489.98 238.2,-420.74 187,-383.25 181.36,-379.12 175.09,-375.68 168.53,-372.8"/>
<polygon fill="#63b8ff" stroke="#63b8ff" points="283.71,-529.07 290.62,-537.1 290.23,-526.51 283.71,-529.07"/>
</a>
</g>
</g>
<!-- Node18 -->
<g id="Node000018" class="node">
<title>Node18</title>
<g id="a_Node000018"><a xlink:href="classedu_1_1wpi_1_1first_1_1wpilibj_1_1simulation_1_1_p_s5_controller_sim.html#a293252fb6050e099c61c25ffa5f3f970" target="_top" xlink:title=" ">
<polygon fill="white" stroke="#666666" points="168.25,-324.5 18.75,-324.5 18.75,-294 168.25,-294 168.25,-324.5"/>
<text text-anchor="start" x="26.75" y="-311" font-family="Helvetica,sans-Serif" font-size="10.00">edu.wpi.first.wpilibj.simulation.</text>
<text text-anchor="middle" x="93.5" y="-299.75" font-family="Helvetica,sans-Serif" font-size="10.00">PS5ControllerSim.setRightY</text>
</a>
</g>
</g>
<!-- Node1&#45;&gt;Node18 -->
<g id="edge17_Node000001_Node000018" class="edge">
<title>Node1&#45;&gt;Node18</title>
<g id="a_edge17_Node000001_Node000018"><a xlink:title=" ">
<path fill="none" stroke="#63b8ff" d="M291.05,-527.8C279.65,-481.42 249.59,-385.49 187,-334.25 181.47,-329.72 175.18,-326 168.55,-322.96"/>
<polygon fill="#63b8ff" stroke="#63b8ff" points="287.58,-528.31 293.27,-537.25 294.39,-526.72 287.58,-528.31"/>
</a>
</g>
</g>
<!-- Node19 -->
<g id="Node000019" class="node">
<title>Node19</title>
<g id="a_Node000019"><a xlink:href="classedu_1_1wpi_1_1first_1_1wpilibj_1_1simulation_1_1_xbox_controller_sim.html#a3f72212c15e6e3b9ae14c1019207885f" target="_top" xlink:title=" ">
<polygon fill="white" stroke="#666666" points="168.25,-275.5 18.75,-275.5 18.75,-245 168.25,-245 168.25,-275.5"/>
<text text-anchor="start" x="26.75" y="-262" font-family="Helvetica,sans-Serif" font-size="10.00">edu.wpi.first.wpilibj.simulation.</text>
<text text-anchor="middle" x="93.5" y="-250.75" font-family="Helvetica,sans-Serif" font-size="10.00">XboxControllerSim.setRightY</text>
</a>
</g>
</g>
<!-- Node1&#45;&gt;Node19 -->
<g id="edge18_Node000001_Node000019" class="edge">
<title>Node1&#45;&gt;Node19</title>
<g id="a_edge18_Node000001_Node000019"><a xlink:title=" ">
<path fill="none" stroke="#63b8ff" d="M293.67,-527.43C286,-473.31 260.99,-350.63 187,-285.25 181.52,-280.4 175.18,-276.48 168.46,-273.32"/>
<polygon fill="#63b8ff" stroke="#63b8ff" points="290.19,-527.81 294.96,-537.27 297.13,-526.9 290.19,-527.81"/>
</a>
</g>
</g>
<!-- Node20 -->
<g id="Node000020" class="node">
<title>Node20</title>
<g id="a_Node000020"><a xlink:href="classedu_1_1wpi_1_1first_1_1wpilibj_1_1simulation_1_1_joystick_sim.html#a503a3901b135fbc5e4c37313fcde97e9" target="_top" xlink:title=" ">
<polygon fill="white" stroke="#666666" points="168.25,-226.5 18.75,-226.5 18.75,-196 168.25,-196 168.25,-226.5"/>
<text text-anchor="start" x="26.75" y="-213" font-family="Helvetica,sans-Serif" font-size="10.00">edu.wpi.first.wpilibj.simulation.</text>
<text text-anchor="middle" x="93.5" y="-201.75" font-family="Helvetica,sans-Serif" font-size="10.00">JoystickSim.setThrottle</text>
</a>
</g>
</g>
<!-- Node1&#45;&gt;Node20 -->
<g id="edge19_Node000001_Node000020" class="edge">
<title>Node1&#45;&gt;Node20</title>
<g id="a_edge19_Node000001_Node000020"><a xlink:title=" ">
<path fill="none" stroke="#63b8ff" d="M295.59,-527.32C291.46,-466.23 272.66,-316.24 187,-236.25 181.65,-231.25 175.41,-227.24 168.74,-224.01"/>
<polygon fill="#63b8ff" stroke="#63b8ff" points="292.08,-527.34 296.16,-537.12 299.07,-526.93 292.08,-527.34"/>
</a>
</g>
</g>
<!-- Node21 -->
<g id="Node000021" class="node">
<title>Node21</title>
<g id="a_Node000021"><a xlink:href="classedu_1_1wpi_1_1first_1_1wpilibj_1_1simulation_1_1_joystick_sim.html#a281e6bc004cc3a0a68cd74a480a8e88a" target="_top" xlink:title=" ">
<polygon fill="white" stroke="#666666" points="168.25,-177.5 18.75,-177.5 18.75,-147 168.25,-147 168.25,-177.5"/>
<text text-anchor="start" x="26.75" y="-164" font-family="Helvetica,sans-Serif" font-size="10.00">edu.wpi.first.wpilibj.simulation.</text>
<text text-anchor="middle" x="93.5" y="-152.75" font-family="Helvetica,sans-Serif" font-size="10.00">JoystickSim.setTwist</text>
</a>
</g>
</g>
<!-- Node1&#45;&gt;Node21 -->
<g id="edge20_Node000001_Node000021" class="edge">
<title>Node1&#45;&gt;Node21</title>
<g id="a_edge20_Node000001_Node000021"><a xlink:title=" ">
<path fill="none" stroke="#63b8ff" d="M297.05,-527.44C296.27,-460.06 284.56,-282.25 187,-187.25 181.64,-182.03 175.3,-177.87 168.5,-174.56"/>
<polygon fill="#63b8ff" stroke="#63b8ff" points="293.54,-527.19 297.08,-537.18 300.54,-527.17 293.54,-527.19"/>
</a>
</g>
</g>
<!-- Node22 -->
<g id="Node000022" class="node">
<title>Node22</title>
<g id="a_Node000022"><a xlink:href="classedu_1_1wpi_1_1first_1_1wpilibj_1_1simulation_1_1_joystick_sim.html#a0c4fa06f7a144cd25147592aa5711207" target="_top" xlink:title=" ">
<polygon fill="white" stroke="#666666" points="168.25,-128.5 18.75,-128.5 18.75,-98 168.25,-98 168.25,-128.5"/>
<text text-anchor="start" x="26.75" y="-115" font-family="Helvetica,sans-Serif" font-size="10.00">edu.wpi.first.wpilibj.simulation.</text>
<text text-anchor="middle" x="93.5" y="-103.75" font-family="Helvetica,sans-Serif" font-size="10.00">JoystickSim.setX</text>
</a>
</g>
</g>
<!-- Node1&#45;&gt;Node22 -->
<g id="edge21_Node000001_Node000022" class="edge">
<title>Node1&#45;&gt;Node22</title>
<g id="a_edge21_Node000001_Node000022"><a xlink:title=" ">
<path fill="none" stroke="#63b8ff" d="M293.22,-527.53C281.75,-444.73 243.03,-194.62 187,-138.25 181.72,-132.94 175.44,-128.73 168.68,-125.38"/>
<polygon fill="#63b8ff" stroke="#63b8ff" points="289.72,-527.76 294.53,-537.2 296.65,-526.82 289.72,-527.76"/>
</a>
</g>
</g>
<!-- Node23 -->
<g id="Node000023" class="node">
<title>Node23</title>
<g id="a_Node000023"><a xlink:href="classedu_1_1wpi_1_1first_1_1wpilibj_1_1simulation_1_1_joystick_sim.html#ab042f6154c48192f84cbc07857e1b3fc" target="_top" xlink:title=" ">
<polygon fill="white" stroke="#666666" points="168.25,-79.5 18.75,-79.5 18.75,-49 168.25,-49 168.25,-79.5"/>
<text text-anchor="start" x="26.75" y="-66" font-family="Helvetica,sans-Serif" font-size="10.00">edu.wpi.first.wpilibj.simulation.</text>
<text text-anchor="middle" x="93.5" y="-54.75" font-family="Helvetica,sans-Serif" font-size="10.00">JoystickSim.setY</text>
</a>
</g>
</g>
<!-- Node1&#45;&gt;Node23 -->
<g id="edge22_Node000001_Node000023" class="edge">
<title>Node1&#45;&gt;Node23</title>
<g id="a_edge22_Node000001_Node000023"><a xlink:title=" ">
<path fill="none" stroke="#63b8ff" d="M294.03,-527.68C284.4,-438.73 249.14,-153.42 187,-89.25 181.68,-83.75 175.28,-79.42 168.37,-76.02"/>
<polygon fill="#63b8ff" stroke="#63b8ff" points="290.52,-527.8 295.06,-537.38 297.48,-527.06 290.52,-527.8"/>
</a>
</g>
</g>
<!-- Node24 -->
<g id="Node000024" class="node">
<title>Node24</title>
<g id="a_Node000024"><a xlink:href="classedu_1_1wpi_1_1first_1_1wpilibj_1_1simulation_1_1_joystick_sim.html#a7dfd01ce8982651c13e8857840234cd2" target="_top" xlink:title=" ">
<polygon fill="white" stroke="#666666" points="168.25,-30.5 18.75,-30.5 18.75,0 168.25,0 168.25,-30.5"/>
<text text-anchor="start" x="26.75" y="-17" font-family="Helvetica,sans-Serif" font-size="10.00">edu.wpi.first.wpilibj.simulation.</text>
<text text-anchor="middle" x="93.5" y="-5.75" font-family="Helvetica,sans-Serif" font-size="10.00">JoystickSim.setZ</text>
</a>
</g>
</g>
<!-- Node1&#45;&gt;Node24 -->
<g id="edge23_Node000001_Node000024" class="edge">
<title>Node1&#45;&gt;Node24</title>
<g id="a_edge23_Node000001_Node000024"><a xlink:title=" ">
<path fill="none" stroke="#63b8ff" d="M294.65,-527.4C286.67,-432.14 255.18,-112.18 187,-40.25 181.74,-34.7 175.38,-30.33 168.49,-26.91"/>
<polygon fill="#63b8ff" stroke="#63b8ff" points="291.14,-527.4 295.44,-537.08 298.12,-526.83 291.14,-527.4"/>
</a>
</g>
</g>
</g>
</svg>
