<?xml version="1.0" encoding="UTF-8" standalone="no"?>
<!DOCTYPE svg PUBLIC "-//W3C//DTD SVG 1.1//EN"
 "http://www.w3.org/Graphics/SVG/1.1/DTD/svg11.dtd">
<!-- Generated by graphviz version 9.0.0 (20230911.1827)
 -->
<!-- Title: edu.wpi.first.wpilibj.MotorSafety.feed Pages: 1 -->
<svg width="324pt" height="333pt"
 viewBox="0.00 0.00 324.25 332.50" xmlns="http://www.w3.org/2000/svg" xmlns:xlink="http://www.w3.org/1999/xlink">

<svg id="main" version="1.1" xmlns="http://www.w3.org/2000/svg" xmlns:xlink="http://www.w3.org/1999/xlink" xml:space="preserve" onload="init(evt)">
<style type="text/css"><![CDATA[
.node, .edge {opacity: 0.7;}
.node.selected, .edge.selected {opacity: 1;}
.edge:hover path { stroke: red; }
.edge:hover polygon { stroke: red; fill: red; }
]]></style>
<script type="application/ecmascript" xlink:href="svg.min.js"/>
<svg id="graph" class="graph">
<g id="graph0" class="graph" transform="scale(1 1) rotate(0) translate(4 328.5)">
<title>edu.wpi.first.wpilibj.MotorSafety.feed</title>
<!-- Node1 -->
<g id="Node000001" class="node">
<title>Node1</title>
<g id="a_Node000001"><a xlink:title=" ">
<polygon fill="#999999" stroke="#666666" points="316.25,-177.5 189.25,-177.5 189.25,-147 316.25,-147 316.25,-177.5"/>
<text text-anchor="start" x="197.25" y="-164" font-family="Helvetica,sans-Serif" font-size="10.00">edu.wpi.first.wpilibj.Motor</text>
<text text-anchor="middle" x="252.75" y="-152.75" font-family="Helvetica,sans-Serif" font-size="10.00">Safety.feed</text>
</a>
</g>
</g>
<!-- Node2 -->
<g id="Node000002" class="node">
<title>Node2</title>
<g id="a_Node000002"><a xlink:href="classedu_1_1wpi_1_1first_1_1wpilibj_1_1drive_1_1_differential_drive.html#ac127c082834f02d435b1da69e221221e" target="_top" xlink:title=" ">
<polygon fill="white" stroke="#666666" points="147.62,-324.5 5.62,-324.5 5.62,-294 147.62,-294 147.62,-324.5"/>
<text text-anchor="start" x="13.62" y="-311" font-family="Helvetica,sans-Serif" font-size="10.00">edu.wpi.first.wpilibj.drive.</text>
<text text-anchor="middle" x="76.62" y="-299.75" font-family="Helvetica,sans-Serif" font-size="10.00">DifferentialDrive.arcadeDrive</text>
</a>
</g>
</g>
<!-- Node1&#45;&gt;Node2 -->
<g id="edge1_Node000001_Node000002" class="edge">
<title>Node1&#45;&gt;Node2</title>
<g id="a_edge1_Node000001_Node000002"><a xlink:title=" ">
<path fill="none" stroke="#63b8ff" d="M237.51,-187.44C220.73,-214.97 190.37,-258.56 153.25,-284.25 148.13,-287.79 142.48,-290.86 136.63,-293.51"/>
<polygon fill="#63b8ff" stroke="#63b8ff" points="240.4,-189.43 242.49,-179.05 234.38,-185.86 240.4,-189.43"/>
</a>
</g>
</g>
<!-- Node3 -->
<g id="Node000003" class="node">
<title>Node3</title>
<g id="a_Node000003"><a xlink:href="classedu_1_1wpi_1_1first_1_1wpilibj_1_1drive_1_1_differential_drive.html#aa26c304f5d903f8a042548e4b339dbd9" target="_top" xlink:title=" ">
<polygon fill="white" stroke="#666666" points="153.25,-275.5 0,-275.5 0,-245 153.25,-245 153.25,-275.5"/>
<text text-anchor="start" x="8" y="-262" font-family="Helvetica,sans-Serif" font-size="10.00">edu.wpi.first.wpilibj.drive.</text>
<text text-anchor="middle" x="76.62" y="-250.75" font-family="Helvetica,sans-Serif" font-size="10.00">DifferentialDrive.curvatureDrive</text>
</a>
</g>
</g>
<!-- Node1&#45;&gt;Node3 -->
<g id="edge2_Node000001_Node000003" class="edge">
<title>Node1&#45;&gt;Node3</title>
<g id="a_edge2_Node000001_Node000003"><a xlink:title=" ">
<path fill="none" stroke="#63b8ff" d="M225.73,-185.15C206.71,-200.96 179.72,-221.52 153.25,-235.25 146.62,-238.69 139.42,-241.79 132.19,-244.54"/>
<polygon fill="#63b8ff" stroke="#63b8ff" points="227.86,-187.94 233.23,-178.8 223.34,-182.59 227.86,-187.94"/>
</a>
</g>
</g>
<!-- Node4 -->
<g id="Node000004" class="node">
<title>Node4</title>
<g id="a_Node000004"><a xlink:href="classedu_1_1wpi_1_1first_1_1wpilibj_1_1drive_1_1_mecanum_drive.html#a346448c6268f5e7eac322b055d9544d4" target="_top" xlink:title=" ">
<polygon fill="white" stroke="#666666" points="150.62,-226.5 2.62,-226.5 2.62,-196 150.62,-196 150.62,-226.5"/>
<text text-anchor="start" x="10.62" y="-213" font-family="Helvetica,sans-Serif" font-size="10.00">edu.wpi.first.wpilibj.drive.</text>
<text text-anchor="middle" x="76.62" y="-201.75" font-family="Helvetica,sans-Serif" font-size="10.00">MecanumDrive.driveCartesian</text>
</a>
</g>
</g>
<!-- Node1&#45;&gt;Node4 -->
<g id="edge3_Node000001_Node000004" class="edge">
<title>Node1&#45;&gt;Node4</title>
<g id="a_edge3_Node000001_Node000004"><a xlink:title=" ">
<path fill="none" stroke="#63b8ff" d="M185.17,-180.98C168.14,-185.78 150,-190.88 133.57,-195.51"/>
<polygon fill="#63b8ff" stroke="#63b8ff" points="186.04,-184.38 194.72,-178.3 184.15,-177.64 186.04,-184.38"/>
</a>
</g>
</g>
<!-- Node5 -->
<g id="Node000005" class="node">
<title>Node5</title>
<g id="a_Node000005"><a xlink:href="classedu_1_1wpi_1_1first_1_1wpilibj_1_1drive_1_1_robot_drive_base.html#a1ec69d1094ba16beb8fa50383608b969" target="_top" xlink:title=" ">
<polygon fill="white" stroke="#666666" points="153.25,-177.5 0,-177.5 0,-147 153.25,-147 153.25,-177.5"/>
<text text-anchor="start" x="8" y="-164" font-family="Helvetica,sans-Serif" font-size="10.00">edu.wpi.first.wpilibj.drive.</text>
<text text-anchor="middle" x="76.62" y="-152.75" font-family="Helvetica,sans-Serif" font-size="10.00">RobotDriveBase.feedWatchdog</text>
</a>
</g>
</g>
<!-- Node1&#45;&gt;Node5 -->
<g id="edge4_Node000001_Node000005" class="edge">
<title>Node1&#45;&gt;Node5</title>
<g id="a_edge4_Node000001_Node000005"><a xlink:title=" ">
<path fill="none" stroke="#63b8ff" d="M177.41,-162.25C169.48,-162.25 161.41,-162.25 153.46,-162.25"/>
<polygon fill="#63b8ff" stroke="#63b8ff" points="177.37,-165.75 187.37,-162.25 177.37,-158.75 177.37,-165.75"/>
</a>
</g>
</g>
<!-- Node6 -->
<g id="Node000006" class="node">
<title>Node6</title>
<g id="a_Node000006"><a xlink:href="classedu_1_1wpi_1_1first_1_1wpilibj_1_1drive_1_1_differential_drive.html#ae0a416b71c085dccbe717fb72164b6bf" target="_top" xlink:title=" ">
<polygon fill="white" stroke="#666666" points="143.12,-128.5 10.12,-128.5 10.12,-98 143.12,-98 143.12,-128.5"/>
<text text-anchor="start" x="18.12" y="-115" font-family="Helvetica,sans-Serif" font-size="10.00">edu.wpi.first.wpilibj.drive.</text>
<text text-anchor="middle" x="76.62" y="-103.75" font-family="Helvetica,sans-Serif" font-size="10.00">DifferentialDrive.stopMotor</text>
</a>
</g>
</g>
<!-- Node1&#45;&gt;Node6 -->
<g id="edge5_Node000001_Node000006" class="edge">
<title>Node1&#45;&gt;Node6</title>
<g id="a_edge5_Node000001_Node000006"><a xlink:title=" ">
<path fill="none" stroke="#63b8ff" d="M185.17,-143.52C168.14,-138.72 150,-133.62 133.57,-128.99"/>
<polygon fill="#63b8ff" stroke="#63b8ff" points="184.15,-146.86 194.72,-146.2 186.04,-140.12 184.15,-146.86"/>
</a>
</g>
</g>
<!-- Node7 -->
<g id="Node000007" class="node">
<title>Node7</title>
<g id="a_Node000007"><a xlink:href="classedu_1_1wpi_1_1first_1_1wpilibj_1_1drive_1_1_mecanum_drive.html#a705384b17e708185aaff6f931f68c8ff" target="_top" xlink:title=" ">
<polygon fill="white" stroke="#666666" points="140.88,-79.5 12.38,-79.5 12.38,-49 140.88,-49 140.88,-79.5"/>
<text text-anchor="start" x="20.38" y="-66" font-family="Helvetica,sans-Serif" font-size="10.00">edu.wpi.first.wpilibj.drive.</text>
<text text-anchor="middle" x="76.62" y="-54.75" font-family="Helvetica,sans-Serif" font-size="10.00">MecanumDrive.stopMotor</text>
</a>
</g>
</g>
<!-- Node1&#45;&gt;Node7 -->
<g id="edge6_Node000001_Node000007" class="edge">
<title>Node1&#45;&gt;Node7</title>
<g id="a_edge6_Node000001_Node000007"><a xlink:title=" ">
<path fill="none" stroke="#63b8ff" d="M225.73,-139.35C206.71,-123.54 179.72,-102.98 153.25,-89.25 146.62,-85.81 139.42,-82.71 132.19,-79.96"/>
<polygon fill="#63b8ff" stroke="#63b8ff" points="223.34,-141.91 233.23,-145.7 227.86,-136.56 223.34,-141.91"/>
</a>
</g>
</g>
<!-- Node8 -->
<g id="Node000008" class="node">
<title>Node8</title>
<g id="a_Node000008"><a xlink:href="classedu_1_1wpi_1_1first_1_1wpilibj_1_1drive_1_1_differential_drive.html#a9de9fe4f7b51d1e79f93cfc326391917" target="_top" xlink:title=" ">
<polygon fill="white" stroke="#666666" points="142.38,-30.5 10.88,-30.5 10.88,0 142.38,0 142.38,-30.5"/>
<text text-anchor="start" x="18.88" y="-17" font-family="Helvetica,sans-Serif" font-size="10.00">edu.wpi.first.wpilibj.drive.</text>
<text text-anchor="middle" x="76.62" y="-5.75" font-family="Helvetica,sans-Serif" font-size="10.00">DifferentialDrive.tankDrive</text>
</a>
</g>
</g>
<!-- Node1&#45;&gt;Node8 -->
<g id="edge7_Node000001_Node000008" class="edge">
<title>Node1&#45;&gt;Node8</title>
<g id="a_edge7_Node000001_Node000008"><a xlink:title=" ">
<path fill="none" stroke="#63b8ff" d="M237.51,-137.06C220.73,-109.53 190.37,-65.94 153.25,-40.25 148.13,-36.71 142.48,-33.64 136.63,-30.99"/>
<polygon fill="#63b8ff" stroke="#63b8ff" points="234.38,-138.64 242.49,-145.45 240.4,-135.07 234.38,-138.64"/>
</a>
</g>
</g>
</g>
</svg>
</svg>

<style type='text/css'>
<![CDATA[
[data-mouse-over-selected='false'] { opacity: 0.7; }
[data-mouse-over-selected='true']  { opacity: 1.0; }
]]>
</style>
<script type="application/ecmascript"><![CDATA[
document.addEventListener('DOMContentLoaded', (event) => {
  highlightEdges();
  highlightAdjacentNodes();
});
]]></script>
</svg>
