<?xml version="1.0" encoding="UTF-8" standalone="no"?>
<!DOCTYPE svg PUBLIC "-//W3C//DTD SVG 1.1//EN"
 "http://www.w3.org/Graphics/SVG/1.1/DTD/svg11.dtd">
<!-- Generated by graphviz version 9.0.0 (20230911.1827)
 -->
<!-- Title: edu.wpi.first.wpilibj.TimesliceRobot Pages: 1 -->
<svg width="159pt" height="282pt"
 viewBox="0.00 0.00 159.00 282.00" xmlns="http://www.w3.org/2000/svg" xmlns:xlink="http://www.w3.org/1999/xlink">

<svg id="main" version="1.1" xmlns="http://www.w3.org/2000/svg" xmlns:xlink="http://www.w3.org/1999/xlink" xml:space="preserve" onload="init(evt)">
<style type="text/css"><![CDATA[
.node, .edge {opacity: 0.7;}
.node.selected, .edge.selected {opacity: 1;}
.edge:hover path { stroke: red; }
.edge:hover polygon { stroke: red; fill: red; }
]]></style>
<script type="application/ecmascript" xlink:href="svg.min.js"/>
<svg id="graph" class="graph">
<g id="graph0" class="graph" transform="scale(1 1) rotate(0) translate(4 278)">
<title>edu.wpi.first.wpilibj.TimesliceRobot</title>
<!-- Node1 -->
<g id="Node000001" class="node">
<title>Node1</title>
<g id="a_Node000001"><a xlink:title=" ">
<polygon fill="#999999" stroke="#666666" points="147.62,-30.5 3.38,-30.5 3.38,0 147.62,0 147.62,-30.5"/>
<text text-anchor="start" x="11.38" y="-17" font-family="Helvetica,sans-Serif" font-size="10.00">edu.wpi.first.wpilibj.Timeslice</text>
<text text-anchor="middle" x="75.5" y="-5.75" font-family="Helvetica,sans-Serif" font-size="10.00">Robot</text>
</a>
</g>
</g>
<!-- Node2 -->
<g id="Node000002" class="node">
<title>Node2</title>
<g id="a_Node000002"><a xlink:href="classedu_1_1wpi_1_1first_1_1wpilibj_1_1_timed_robot.html" target="_top" xlink:title=" ">
<polygon fill="white" stroke="#666666" points="140.12,-97 10.88,-97 10.88,-66.5 140.12,-66.5 140.12,-97"/>
<text text-anchor="start" x="18.88" y="-83.5" font-family="Helvetica,sans-Serif" font-size="10.00">edu.wpi.first.wpilibj.Timed</text>
<text text-anchor="middle" x="75.5" y="-72.25" font-family="Helvetica,sans-Serif" font-size="10.00">Robot</text>
</a>
</g>
</g>
<!-- Node2&#45;&gt;Node1 -->
<g id="edge1_Node000001_Node000002" class="edge">
<title>Node2&#45;&gt;Node1</title>
<g id="a_edge1_Node000001_Node000002"><a xlink:title=" ">
<path fill="none" stroke="#63b8ff" d="M75.5,-54.81C75.5,-46.64 75.5,-37.91 75.5,-30.83"/>
<polygon fill="#63b8ff" stroke="#63b8ff" points="72,-54.6 75.5,-64.6 79,-54.6 72,-54.6"/>
</a>
</g>
</g>
<!-- Node3 -->
<g id="Node000003" class="node">
<title>Node3</title>
<g id="a_Node000003"><a xlink:href="classedu_1_1wpi_1_1first_1_1wpilibj_1_1_iterative_robot_base.html" target="_top" xlink:title=" ">
<polygon fill="white" stroke="#666666" points="144.25,-163.5 6.75,-163.5 6.75,-133 144.25,-133 144.25,-163.5"/>
<text text-anchor="start" x="14.75" y="-150" font-family="Helvetica,sans-Serif" font-size="10.00">edu.wpi.first.wpilibj.Iterative</text>
<text text-anchor="middle" x="75.5" y="-138.75" font-family="Helvetica,sans-Serif" font-size="10.00">RobotBase</text>
</a>
</g>
</g>
<!-- Node3&#45;&gt;Node2 -->
<g id="edge2_Node000002_Node000003" class="edge">
<title>Node3&#45;&gt;Node2</title>
<g id="a_edge2_Node000002_Node000003"><a xlink:title=" ">
<path fill="none" stroke="#63b8ff" d="M75.5,-121.31C75.5,-113.14 75.5,-104.41 75.5,-97.33"/>
<polygon fill="#63b8ff" stroke="#63b8ff" points="72,-121.1 75.5,-131.1 79,-121.1 72,-121.1"/>
</a>
</g>
</g>
<!-- Node4 -->
<g id="Node000004" class="node">
<title>Node4</title>
<g id="a_Node000004"><a xlink:href="classedu_1_1wpi_1_1first_1_1wpilibj_1_1_robot_base.html" target="_top" xlink:title=" ">
<polygon fill="white" stroke="#666666" points="151,-218.75 0,-218.75 0,-199.5 151,-199.5 151,-218.75"/>
<text text-anchor="middle" x="75.5" y="-205.25" font-family="Helvetica,sans-Serif" font-size="10.00">edu.wpi.first.wpilibj.RobotBase</text>
</a>
</g>
</g>
<!-- Node4&#45;&gt;Node3 -->
<g id="edge3_Node000003_Node000004" class="edge">
<title>Node4&#45;&gt;Node3</title>
<g id="a_edge3_Node000003_Node000004"><a xlink:title=" ">
<path fill="none" stroke="#63b8ff" d="M75.5,-187.92C75.5,-179.99 75.5,-171.06 75.5,-163.78"/>
<polygon fill="#63b8ff" stroke="#63b8ff" points="72,-187.67 75.5,-197.67 79,-187.67 72,-187.67"/>
</a>
</g>
</g>
<!-- Node5 -->
<g id="Node000005" class="node">
<title>Node5</title>
<g id="a_Node000005"><a xlink:title=" ">
<polygon fill="white" stroke="#bfbfbf" points="115.38,-274 35.62,-274 35.62,-254.75 115.38,-254.75 115.38,-274"/>
<text text-anchor="middle" x="75.5" y="-260.5" font-family="Helvetica,sans-Serif" font-size="10.00">AutoCloseable</text>
</a>
</g>
</g>
<!-- Node5&#45;&gt;Node4 -->
<g id="edge4_Node000004_Node000005" class="edge">
<title>Node5&#45;&gt;Node4</title>
<g id="a_edge4_Node000004_Node000005"><a xlink:title=" ">
<path fill="none" stroke="#63b8ff" d="M75.5,-243.13C75.5,-234.84 75.5,-225.67 75.5,-219.11"/>
<polygon fill="#63b8ff" stroke="#63b8ff" points="72,-243.07 75.5,-253.07 79,-243.07 72,-243.07"/>
</a>
</g>
</g>
</g>
</svg>
</svg>

<style type='text/css'>
<![CDATA[
[data-mouse-over-selected='false'] { opacity: 0.7; }
[data-mouse-over-selected='true']  { opacity: 1.0; }
]]>
</style>
<script type="application/ecmascript"><![CDATA[
document.addEventListener('DOMContentLoaded', (event) => {
  highlightEdges();
  highlightAdjacentNodes();
});
]]></script>
</svg>
