<?xml version="1.0" encoding="UTF-8" standalone="no"?>
<!DOCTYPE svg PUBLIC "-//W3C//DTD SVG 1.1//EN"
 "http://www.w3.org/Graphics/SVG/1.1/DTD/svg11.dtd">
<!-- Generated by graphviz version 9.0.0 (20230911.1827)
 -->
<!-- Title: edu.wpi.first.wpilibj.motorcontrol.PWMVictorSPX.PWMVictorSPX Pages: 1 -->
<!--zoomable 235 -->

<svg id="main" version="1.1" xmlns="http://www.w3.org/2000/svg" xmlns:xlink="http://www.w3.org/1999/xlink" xml:space="preserve" onload="init(evt)">
<style type="text/css"><![CDATA[
.node, .edge {opacity: 0.7;}
.node.selected, .edge.selected {opacity: 1;}
.edge:hover path { stroke: red; }
.edge:hover polygon { stroke: red; fill: red; }
]]></style>

<defs>
  <circle id="rim" cx="0" cy="0" r="7"/>
  <circle id="rim2" cx="0" cy="0" r="3.5"/>
  <g id="zoomPlus">
    <use xlink:href="#rim" fill="#404040"><set attributeName="fill" to="#808080" begin="zoomplus.mouseover" end="zoomplus.mouseout"/></use>
    <path d="M-4,0h8M0,-4v8" fill="none" stroke="white" stroke-width="1.5" pointer-events="none"/>
  </g>
  <g id="zoomMin">
    <use xlink:href="#rim" fill="#404040"><set attributeName="fill" to="#808080" begin="zoomminus.mouseover" end="zoomminus.mouseout"/></use>
    <path d="M-4,0h8" fill="none" stroke="white" stroke-width="1.5" pointer-events="none"/>
  </g>
  <g id="arrowUp" transform="translate(30 24)">
    <use xlink:href="#rim"/>
    <path pointer-events="none" fill="none" stroke="white" stroke-width="1.5" d="M0,-3.0v7 M-2.5,-0.5L0,-3.0L2.5,-0.5"/>
  </g>
  <g id="arrowRight" transform="rotate(90) translate(36 -43)">
    <use xlink:href="#rim"/>
    <path pointer-events="none" fill="none" stroke="white" stroke-width="1.5" d="M0,-3.0v7 M-2.5,-0.5L0,-3.0L2.5,-0.5"/>
  </g>
  <g id="arrowDown" transform="rotate(180) translate(-30 -48)">
    <use xlink:href="#rim"/>
    <path pointer-events="none" fill="none" stroke="white" stroke-width="1.5" d="M0,-3.0v7 M-2.5,-0.5L0,-3.0L2.5,-0.5"/>
  </g>
  <g id="arrowLeft" transform="rotate(270) translate(-36 17)">
    <use xlink:href="#rim"/>
    <path pointer-events="none" fill="none" stroke="white" stroke-width="1.5" d="M0,-3.0v7 M-2.5,-0.5L0,-3.0L2.5,-0.5"/>
  </g>
  <g id="resetDef">
    <use xlink:href="#rim2" fill="#404040"><set attributeName="fill" to="#808080" begin="reset.mouseover" end="reset.mouseout"/></use>
  </g>
</defs>
<script type="application/ecmascript">
var viewWidth = 543;
var viewHeight = 235;
var sectionId = 'dynsection-2';
</script>
<script type="application/ecmascript" xlink:href="svg.min.js"/>
<svg id="graph" class="graph">
<g id="viewport">
<title>edu.wpi.first.wpilibj.motorcontrol.PWMVictorSPX.PWMVictorSPX</title>
<!-- Node1 -->
<g id="Node000001" class="node">
<title>Node1</title>
<g id="a_Node000001"><a xlink:title=" ">
<polygon fill="#999999" stroke="#666666" points="160,-128.5 0,-128.5 0,-98 160,-98 160,-128.5"/>
<text text-anchor="start" x="8" y="-115" font-family="Helvetica,sans-Serif" font-size="10.00">edu.wpi.first.wpilibj.motorcontrol.</text>
<text text-anchor="middle" x="80" y="-103.75" font-family="Helvetica,sans-Serif" font-size="10.00">PWMVictorSPX.PWMVictorSPX</text>
</a>
</g>
</g>
<!-- Node2 -->
<g id="Node000002" class="node">
<title>Node2</title>
<g id="a_Node000002"><a xlink:href="classedu_1_1wpi_1_1first_1_1wpilibj_1_1motorcontrol_1_1_p_w_m_motor_controller.html#ad3239e59cd2d8d8c95ff34126311bc76" target="_top" xlink:title=" ">
<polygon fill="white" stroke="#666666" points="355.25,-226.5 196,-226.5 196,-196 355.25,-196 355.25,-226.5"/>
<text text-anchor="start" x="204" y="-213" font-family="Helvetica,sans-Serif" font-size="10.00">edu.wpi.first.wpilibj.motorcontrol.</text>
<text text-anchor="middle" x="275.62" y="-201.75" font-family="Helvetica,sans-Serif" font-size="10.00">PWMMotorController.getChannel</text>
</a>
</g>
</g>
<!-- Node1&#45;&gt;Node2 -->
<g id="edge1_Node000001_Node000002" class="edge">
<title>Node1&#45;&gt;Node2</title>
<g id="a_edge1_Node000001_Node000002"><a xlink:title=" ">
<path fill="none" stroke="#63b8ff" d="M102.09,-128.99C124.45,-145.12 161.29,-170.05 196,-186.25 199.97,-188.11 204.12,-189.87 208.35,-191.55"/>
<polygon fill="#63b8ff" stroke="#63b8ff" points="206.94,-194.76 217.53,-195 209.4,-188.21 206.94,-194.76"/>
</a>
</g>
</g>
<!-- Node4 -->
<g id="Node000004" class="node">
<title>Node4</title>
<g id="a_Node000004"><a xlink:href="classedu_1_1wpi_1_1first_1_1wpilibj_1_1_p_w_m.html#a9f540c857b04d827341ef78e5b1124fe" target="_top" xlink:title=" ">
<polygon fill="white" stroke="#666666" points="347.38,-177.5 203.88,-177.5 203.88,-147 347.38,-147 347.38,-177.5"/>
<text text-anchor="start" x="211.88" y="-164" font-family="Helvetica,sans-Serif" font-size="10.00">edu.wpi.first.wpilibj.PWM.set</text>
<text text-anchor="middle" x="275.62" y="-152.75" font-family="Helvetica,sans-Serif" font-size="10.00">BoundsMicroseconds</text>
</a>
</g>
</g>
<!-- Node1&#45;&gt;Node4 -->
<g id="edge3_Node000001_Node000004" class="edge">
<title>Node1&#45;&gt;Node4</title>
<g id="a_edge3_Node000001_Node000004"><a xlink:title=" ">
<path fill="none" stroke="#63b8ff" d="M143.06,-128.96C161.65,-133.66 182.2,-138.86 201.44,-143.73"/>
<polygon fill="#63b8ff" stroke="#63b8ff" points="200.56,-147.12 211.11,-146.18 202.28,-140.33 200.56,-147.12"/>
</a>
</g>
</g>
<!-- Node5 -->
<g id="Node000005" class="node">
<title>Node5</title>
<g id="a_Node000005"><a xlink:href="classedu_1_1wpi_1_1first_1_1wpilibj_1_1_p_w_m.html#ab167b1170302bc64d8b4d53da6814931" target="_top" xlink:title=" ">
<polygon fill="white" stroke="#666666" points="347.38,-128.5 203.88,-128.5 203.88,-98 347.38,-98 347.38,-128.5"/>
<text text-anchor="start" x="211.88" y="-115" font-family="Helvetica,sans-Serif" font-size="10.00">edu.wpi.first.wpilibj.PWM.set</text>
<text text-anchor="middle" x="275.62" y="-103.75" font-family="Helvetica,sans-Serif" font-size="10.00">PeriodMultiplier</text>
</a>
</g>
</g>
<!-- Node1&#45;&gt;Node5 -->
<g id="edge4_Node000001_Node000005" class="edge">
<title>Node1&#45;&gt;Node5</title>
<g id="a_edge4_Node000001_Node000005"><a xlink:title=" ">
<path fill="none" stroke="#63b8ff" d="M160.31,-113.25C170.82,-113.25 181.61,-113.25 192.17,-113.25"/>
<polygon fill="#63b8ff" stroke="#63b8ff" points="192,-116.75 202,-113.25 192,-109.75 192,-116.75"/>
</a>
</g>
</g>
<!-- Node6 -->
<g id="Node000006" class="node">
<title>Node6</title>
<g id="a_Node000006"><a xlink:href="classedu_1_1wpi_1_1first_1_1wpilibj_1_1_p_w_m.html#ae75066ad7c5a0f0ad8c71211026479dc" target="_top" xlink:title=" ">
<polygon fill="white" stroke="#666666" points="347.38,-79.5 203.88,-79.5 203.88,-49 347.38,-49 347.38,-79.5"/>
<text text-anchor="start" x="211.88" y="-66" font-family="Helvetica,sans-Serif" font-size="10.00">edu.wpi.first.wpilibj.PWM.set</text>
<text text-anchor="middle" x="275.62" y="-54.75" font-family="Helvetica,sans-Serif" font-size="10.00">Speed</text>
</a>
</g>
</g>
<!-- Node1&#45;&gt;Node6 -->
<g id="edge5_Node000001_Node000006" class="edge">
<title>Node1&#45;&gt;Node6</title>
<g id="a_edge5_Node000001_Node000006"><a xlink:title=" ">
<path fill="none" stroke="#63b8ff" d="M143.06,-97.54C161.65,-92.84 182.2,-87.64 201.44,-82.77"/>
<polygon fill="#63b8ff" stroke="#63b8ff" points="202.28,-86.17 211.11,-80.32 200.56,-79.38 202.28,-86.17"/>
</a>
</g>
</g>
<!-- Node7 -->
<g id="Node000007" class="node">
<title>Node7</title>
<g id="a_Node000007"><a xlink:href="classedu_1_1wpi_1_1first_1_1wpilibj_1_1_p_w_m.html#aed7b74e2db9a607f466c45dc605751c5" target="_top" xlink:title=" ">
<polygon fill="white" stroke="#666666" points="347.38,-30.5 203.88,-30.5 203.88,0 347.38,0 347.38,-30.5"/>
<text text-anchor="start" x="211.88" y="-17" font-family="Helvetica,sans-Serif" font-size="10.00">edu.wpi.first.wpilibj.PWM.set</text>
<text text-anchor="middle" x="275.62" y="-5.75" font-family="Helvetica,sans-Serif" font-size="10.00">ZeroLatch</text>
</a>
</g>
</g>
<!-- Node1&#45;&gt;Node7 -->
<g id="edge6_Node000001_Node000007" class="edge">
<title>Node1&#45;&gt;Node7</title>
<g id="a_edge6_Node000001_Node000007"><a xlink:title=" ">
<path fill="none" stroke="#63b8ff" d="M102.09,-97.51C124.45,-81.38 161.29,-56.45 196,-40.25 199.97,-38.39 204.12,-36.63 208.35,-34.95"/>
<polygon fill="#63b8ff" stroke="#63b8ff" points="209.4,-38.29 217.53,-31.5 206.94,-31.74 209.4,-38.29"/>
</a>
</g>
</g>
<!-- Node3 -->
<g id="Node000003" class="node">
<title>Node3</title>
<g id="a_Node000003"><a xlink:href="classedu_1_1wpi_1_1first_1_1wpilibj_1_1_p_w_m.html#ad77506085116c8e7ec1b168438a9f573" target="_top" xlink:title=" ">
<polygon fill="white" stroke="#666666" points="534.75,-226.5 391.25,-226.5 391.25,-196 534.75,-196 534.75,-226.5"/>
<text text-anchor="start" x="399.25" y="-213" font-family="Helvetica,sans-Serif" font-size="10.00">edu.wpi.first.wpilibj.PWM.get</text>
<text text-anchor="middle" x="463" y="-201.75" font-family="Helvetica,sans-Serif" font-size="10.00">Channel</text>
</a>
</g>
</g>
<!-- Node2&#45;&gt;Node3 -->
<g id="edge2_Node000002_Node000003" class="edge">
<title>Node2&#45;&gt;Node3</title>
<g id="a_edge2_Node000002_Node000003"><a xlink:title=" ">
<path fill="none" stroke="#63b8ff" d="M355.51,-211.25C363.39,-211.25 371.4,-211.25 379.32,-211.25"/>
<polygon fill="#63b8ff" stroke="#63b8ff" points="379.31,-214.75 389.31,-211.25 379.31,-207.75 379.31,-214.75"/>
</a>
</g>
</g>
</g>
</svg>

<g id="navigator" transform="translate(0 0)" fill="#404254">
  <rect fill="#f2f5e9" fill-opacity="0.5" stroke="#606060" stroke-width=".5" x="0" y="0" width="60" height="60"/>
  <use id="zoomplus" xlink:href="#zoomPlus" x="17" y="9" onmousedown="handleZoom(evt,'in')"/>
  <use id="zoomminus" xlink:href="#zoomMin" x="42" y="9" onmousedown="handleZoom(evt,'out')"/>
  <use id="reset" xlink:href="#resetDef" x="30" y="36" onmousedown="handleReset()"/>
   <use id="arrowup" xlink:href="#arrowUp" x="0" y="0" onmousedown="handlePan(0,-1)"/>
  <use id="arrowright" xlink:href="#arrowRight" x="0" y="0" onmousedown="handlePan(1,0)"/>
  <use id="arrowdown" xlink:href="#arrowDown" x="0" y="0" onmousedown="handlePan(0,1)"/>
  <use id="arrowleft" xlink:href="#arrowLeft" x="0" y="0" onmousedown="handlePan(-1,0)"/>
</g>
<svg viewBox="0 0 15 15" width="100%" height="30px" preserveAspectRatio="xMaxYMin meet">
 <g id="arrow_out" transform="scale(0.3 0.3)">
  <a xlink:href="classedu_1_1wpi_1_1first_1_1wpilibj_1_1motorcontrol_1_1_p_w_m_victor_s_p_x_a776cb8880ae04d3e3c5f2b83b46ba780_cgraph_org.svg" target="_base">
   <rect id="button" ry="5" rx="5" y="6" x="6" height="38" width="38"
        fill="#f2f5e9" fill-opacity="0.5" stroke="#606060" stroke-width="1.0"/>
   <path id="arrow"
     d="M 11.500037,31.436501 C 11.940474,20.09759 22.043105,11.32322 32.158766,21.979434 L 37.068811,17.246167 C 37.068811,17.246167 37.088388,32 37.088388,32 L 22.160133,31.978069 C 22.160133,31.978069 26.997745,27.140456 26.997745,27.140456 C 18.528582,18.264221 13.291696,25.230495 11.500037,31.436501 z"
     style="fill:#404040;"/>
  </a>
 </g>
</svg>

<style type='text/css'>
<![CDATA[
[data-mouse-over-selected='false'] { opacity: 0.7; }
[data-mouse-over-selected='true']  { opacity: 1.0; }
]]>
</style>
<script type="application/ecmascript"><![CDATA[
document.addEventListener('DOMContentLoaded', (event) => {
  highlightEdges();
  highlightAdjacentNodes();
});
]]></script>
</svg>
