<?xml version="1.0" encoding="UTF-8" standalone="no"?>
<!DOCTYPE svg PUBLIC "-//W3C//DTD SVG 1.1//EN"
 "http://www.w3.org/Graphics/SVG/1.1/DTD/svg11.dtd">
<!-- Generated by graphviz version 9.0.0 (20230911.1827)
 -->
<!-- Title: edu.wpi.first.wpilibj.XboxController.getXButtonReleased Pages: 1 -->
<!--zoomable 124 -->

<svg id="main" version="1.1" xmlns="http://www.w3.org/2000/svg" xmlns:xlink="http://www.w3.org/1999/xlink" xml:space="preserve" onload="init(evt)">
<style type="text/css"><![CDATA[
.node, .edge {opacity: 0.7;}
.node.selected, .edge.selected {opacity: 1;}
.edge:hover path { stroke: red; }
.edge:hover polygon { stroke: red; fill: red; }
]]></style>

<defs>
  <circle id="rim" cx="0" cy="0" r="7"/>
  <circle id="rim2" cx="0" cy="0" r="3.5"/>
  <g id="zoomPlus">
    <use xlink:href="#rim" fill="#404040"><set attributeName="fill" to="#808080" begin="zoomplus.mouseover" end="zoomplus.mouseout"/></use>
    <path d="M-4,0h8M0,-4v8" fill="none" stroke="white" stroke-width="1.5" pointer-events="none"/>
  </g>
  <g id="zoomMin">
    <use xlink:href="#rim" fill="#404040"><set attributeName="fill" to="#808080" begin="zoomminus.mouseover" end="zoomminus.mouseout"/></use>
    <path d="M-4,0h8" fill="none" stroke="white" stroke-width="1.5" pointer-events="none"/>
  </g>
  <g id="arrowUp" transform="translate(30 24)">
    <use xlink:href="#rim"/>
    <path pointer-events="none" fill="none" stroke="white" stroke-width="1.5" d="M0,-3.0v7 M-2.5,-0.5L0,-3.0L2.5,-0.5"/>
  </g>
  <g id="arrowRight" transform="rotate(90) translate(36 -43)">
    <use xlink:href="#rim"/>
    <path pointer-events="none" fill="none" stroke="white" stroke-width="1.5" d="M0,-3.0v7 M-2.5,-0.5L0,-3.0L2.5,-0.5"/>
  </g>
  <g id="arrowDown" transform="rotate(180) translate(-30 -48)">
    <use xlink:href="#rim"/>
    <path pointer-events="none" fill="none" stroke="white" stroke-width="1.5" d="M0,-3.0v7 M-2.5,-0.5L0,-3.0L2.5,-0.5"/>
  </g>
  <g id="arrowLeft" transform="rotate(270) translate(-36 17)">
    <use xlink:href="#rim"/>
    <path pointer-events="none" fill="none" stroke="white" stroke-width="1.5" d="M0,-3.0v7 M-2.5,-0.5L0,-3.0L2.5,-0.5"/>
  </g>
  <g id="resetDef">
    <use xlink:href="#rim2" fill="#404040"><set attributeName="fill" to="#808080" begin="reset.mouseover" end="reset.mouseout"/></use>
  </g>
</defs>
<script type="application/ecmascript">
var viewWidth = 863;
var viewHeight = 124;
var sectionId = 'dynsection-40';
</script>
<script type="application/ecmascript" xlink:href="svg.min.js"/>
<svg id="graph" class="graph">
<g id="viewport">
<title>edu.wpi.first.wpilibj.XboxController.getXButtonReleased</title>
<!-- Node1 -->
<g id="Node000001" class="node">
<title>Node1</title>
<g id="a_Node000001"><a xlink:title=" ">
<polygon fill="#999999" stroke="#666666" points="150.25,-72.5 0,-72.5 0,-42 150.25,-42 150.25,-72.5"/>
<text text-anchor="start" x="8" y="-59" font-family="Helvetica,sans-Serif" font-size="10.00">edu.wpi.first.wpilibj.Xbox</text>
<text text-anchor="middle" x="75.12" y="-47.75" font-family="Helvetica,sans-Serif" font-size="10.00">Controller.getXButtonReleased</text>
</a>
</g>
</g>
<!-- Node2 -->
<g id="Node000002" class="node">
<title>Node2</title>
<g id="a_Node000002"><a xlink:href="classedu_1_1wpi_1_1first_1_1wpilibj_1_1_generic_h_i_d.html#a2087699248ada770e00ea78b91b8fd01" target="_top" xlink:title=" ">
<polygon fill="white" stroke="#666666" points="326.75,-72.5 186.25,-72.5 186.25,-42 326.75,-42 326.75,-72.5"/>
<text text-anchor="start" x="194.25" y="-59" font-family="Helvetica,sans-Serif" font-size="10.00">edu.wpi.first.wpilibj.Generic</text>
<text text-anchor="middle" x="256.5" y="-47.75" font-family="Helvetica,sans-Serif" font-size="10.00">HID.getRawButtonReleased</text>
</a>
</g>
</g>
<!-- Node1&#45;&gt;Node2 -->
<g id="edge1_Node000001_Node000002" class="edge">
<title>Node1&#45;&gt;Node2</title>
<g id="a_edge1_Node000001_Node000002"><a xlink:title=" ">
<path fill="none" stroke="#63b8ff" d="M150.64,-57.25C158.46,-57.25 166.45,-57.25 174.34,-57.25"/>
<polygon fill="#63b8ff" stroke="#63b8ff" points="174.3,-60.75 184.3,-57.25 174.3,-53.75 174.3,-60.75"/>
</a>
</g>
</g>
<!-- Node3 -->
<g id="Node000003" class="node">
<title>Node3</title>
<g id="a_Node000003"><a xlink:href="classedu_1_1wpi_1_1first_1_1wpilibj_1_1_generic_h_i_d.html#a77f3feaa9b70759aa7e26c20bec4bec2" target="_top" xlink:title=" ">
<polygon fill="white" stroke="#666666" points="508.5,-97.5 372.5,-97.5 372.5,-67 508.5,-67 508.5,-97.5"/>
<text text-anchor="start" x="380.5" y="-84" font-family="Helvetica,sans-Serif" font-size="10.00">edu.wpi.first.wpilibj.Generic</text>
<text text-anchor="middle" x="440.5" y="-72.75" font-family="Helvetica,sans-Serif" font-size="10.00">HID.button</text>
</a>
</g>
</g>
<!-- Node2&#45;&gt;Node3 -->
<g id="edge2_Node000002_Node000003" class="edge">
<title>Node2&#45;&gt;Node3</title>
<g id="a_edge2_Node000002_Node000003"><a xlink:title=" ">
<path fill="none" stroke="#63b8ff" d="M327.09,-66.81C338.15,-68.33 349.66,-69.91 360.91,-71.46"/>
<polygon fill="#63b8ff" stroke="#63b8ff" points="360.17,-74.89 370.56,-72.78 361.12,-67.95 360.17,-74.89"/>
</a>
</g>
</g>
<!-- Node7 -->
<g id="Node000007" class="node">
<title>Node7</title>
<g id="a_Node000007"><a xlink:href="classedu_1_1wpi_1_1first_1_1wpilibj_1_1_driver_station.html#af7d67c20055e6730e05c8ed4483ea79a" target="_top" xlink:title=" ">
<polygon fill="white" stroke="#666666" points="518.25,-48.5 362.75,-48.5 362.75,-18 518.25,-18 518.25,-48.5"/>
<text text-anchor="start" x="370.75" y="-35" font-family="Helvetica,sans-Serif" font-size="10.00">edu.wpi.first.wpilibj.Driver</text>
<text text-anchor="middle" x="440.5" y="-23.75" font-family="Helvetica,sans-Serif" font-size="10.00">Station.getStickButtonReleased</text>
</a>
</g>
</g>
<!-- Node2&#45;&gt;Node7 -->
<g id="edge9_Node000002_Node000007" class="edge">
<title>Node2&#45;&gt;Node7</title>
<g id="a_edge9_Node000002_Node000007"><a xlink:title=" ">
<path fill="none" stroke="#63b8ff" d="M327.09,-48.07C334.93,-47.04 343,-45.98 351.04,-44.92"/>
<polygon fill="#63b8ff" stroke="#63b8ff" points="351.41,-48.4 360.87,-43.62 350.49,-41.46 351.41,-48.4"/>
</a>
</g>
</g>
<!-- Node3&#45;&gt;Node3 -->
<g id="edge3_Node000003_Node000003" class="edge">
<title>Node3&#45;&gt;Node3</title>
<g id="a_edge3_Node000003_Node000003"><a xlink:title=" ">
<path fill="none" stroke="#63b8ff" d="M408.29,-97.99C401.72,-107.06 412.46,-115.5 440.5,-115.5 455.84,-115.5 466,-112.97 470.98,-109.2"/>
<polygon fill="#63b8ff" stroke="#63b8ff" points="474.41,-109.9 472.48,-99.48 467.5,-108.83 474.41,-109.9"/>
</a>
</g>
</g>
<!-- Node4 -->
<g id="Node000004" class="node">
<title>Node4</title>
<g id="a_Node000004"><a xlink:href="classedu_1_1wpi_1_1first_1_1wpilibj_1_1_generic_h_i_d.html#abdb0245e5cb7f7b92cc1060202821a2d" target="_top" xlink:title=" ">
<polygon fill="white" stroke="#666666" points="690.25,-97.5 554.25,-97.5 554.25,-67 690.25,-67 690.25,-97.5"/>
<text text-anchor="start" x="562.25" y="-84" font-family="Helvetica,sans-Serif" font-size="10.00">edu.wpi.first.wpilibj.Generic</text>
<text text-anchor="middle" x="622.25" y="-72.75" font-family="Helvetica,sans-Serif" font-size="10.00">HID.getRawButton</text>
</a>
</g>
</g>
<!-- Node3&#45;&gt;Node4 -->
<g id="edge4_Node000003_Node000004" class="edge">
<title>Node3&#45;&gt;Node4</title>
<g id="a_edge4_Node000003_Node000004"><a xlink:title=" ">
<path fill="none" stroke="#63b8ff" d="M508.94,-75.69C520,-75.5 531.54,-75.45 542.84,-75.55"/>
<polygon fill="#63b8ff" stroke="#63b8ff" points="542.47,-79.04 552.51,-75.67 542.56,-72.05 542.47,-79.04"/>
</a>
</g>
</g>
<!-- Node6 -->
<g id="Node000006" class="node">
<title>Node6</title>
<g id="a_Node000006"><a xlink:href="classedu_1_1wpi_1_1first_1_1wpilibj_1_1_generic_h_i_d.html#af0b067c76cbb79f54d7f475e88fcfed2" target="_top" xlink:title=" ">
<polygon fill="white" stroke="#666666" points="690.25,-30.5 554.25,-30.5 554.25,0 690.25,0 690.25,-30.5"/>
<text text-anchor="start" x="562.25" y="-17" font-family="Helvetica,sans-Serif" font-size="10.00">edu.wpi.first.wpilibj.Generic</text>
<text text-anchor="middle" x="622.25" y="-5.75" font-family="Helvetica,sans-Serif" font-size="10.00">HID.pov</text>
</a>
</g>
</g>
<!-- Node3&#45;&gt;Node6 -->
<g id="edge7_Node000003_Node000006" class="edge">
<title>Node3&#45;&gt;Node6</title>
<g id="a_edge7_Node000003_Node000006"><a xlink:title=" ">
<path fill="none" stroke="#63b8ff" d="M491.22,-66.63C500.26,-63.63 509.56,-60.43 518.25,-57.25 536.72,-50.49 556.8,-42.46 574.28,-35.24"/>
<polygon fill="#63b8ff" stroke="#63b8ff" points="575.51,-38.52 583.4,-31.45 572.82,-32.05 575.51,-38.52"/>
</a>
</g>
</g>
<!-- Node4&#45;&gt;Node3 -->
<g id="edge5_Node000004_Node000003" class="edge">
<title>Node4&#45;&gt;Node3</title>
<g id="a_edge5_Node000004_Node000003"><a xlink:title=" ">
<path fill="none" stroke="#63b8ff" d="M554.03,-88.81C542.97,-89 531.43,-89.05 520.14,-88.95"/>
<polygon fill="#63b8ff" stroke="#63b8ff" points="520.5,-85.46 510.46,-88.83 520.41,-92.46 520.5,-85.46"/>
</a>
</g>
</g>
<!-- Node5 -->
<g id="Node000005" class="node">
<title>Node5</title>
<g id="a_Node000005"><a xlink:href="classedu_1_1wpi_1_1first_1_1wpilibj_1_1_driver_station.html#a3d86d4b8414c05aafe18fc866d99ccab" target="_top" xlink:title=" ">
<polygon fill="white" stroke="#666666" points="854.75,-97.5 726.25,-97.5 726.25,-67 854.75,-67 854.75,-97.5"/>
<text text-anchor="start" x="734.25" y="-84" font-family="Helvetica,sans-Serif" font-size="10.00">edu.wpi.first.wpilibj.Driver</text>
<text text-anchor="middle" x="790.5" y="-72.75" font-family="Helvetica,sans-Serif" font-size="10.00">Station.getStickButton</text>
</a>
</g>
</g>
<!-- Node4&#45;&gt;Node5 -->
<g id="edge6_Node000004_Node000005" class="edge">
<title>Node4&#45;&gt;Node5</title>
<g id="a_edge6_Node000004_Node000005"><a xlink:title=" ">
<path fill="none" stroke="#63b8ff" d="M690.39,-82.25C698.35,-82.25 706.52,-82.25 714.58,-82.25"/>
<polygon fill="#63b8ff" stroke="#63b8ff" points="714.37,-85.75 724.37,-82.25 714.37,-78.75 714.37,-85.75"/>
</a>
</g>
</g>
<!-- Node6&#45;&gt;Node6 -->
<g id="edge8_Node000006_Node000006" class="edge">
<title>Node6&#45;&gt;Node6</title>
<g id="a_edge8_Node000006_Node000006"><a xlink:title=" ">
<path fill="none" stroke="#63b8ff" d="M592.44,-30.99C586.35,-40.06 596.29,-48.5 622.25,-48.5 636.45,-48.5 645.85,-45.97 650.47,-42.2"/>
<polygon fill="#63b8ff" stroke="#63b8ff" points="653.9,-42.88 651.85,-32.48 646.97,-41.89 653.9,-42.88"/>
</a>
</g>
</g>
</g>
</svg>

<g id="navigator" transform="translate(0 0)" fill="#404254">
  <rect fill="#f2f5e9" fill-opacity="0.5" stroke="#606060" stroke-width=".5" x="0" y="0" width="60" height="60"/>
  <use id="zoomplus" xlink:href="#zoomPlus" x="17" y="9" onmousedown="handleZoom(evt,'in')"/>
  <use id="zoomminus" xlink:href="#zoomMin" x="42" y="9" onmousedown="handleZoom(evt,'out')"/>
  <use id="reset" xlink:href="#resetDef" x="30" y="36" onmousedown="handleReset()"/>
   <use id="arrowup" xlink:href="#arrowUp" x="0" y="0" onmousedown="handlePan(0,-1)"/>
  <use id="arrowright" xlink:href="#arrowRight" x="0" y="0" onmousedown="handlePan(1,0)"/>
  <use id="arrowdown" xlink:href="#arrowDown" x="0" y="0" onmousedown="handlePan(0,1)"/>
  <use id="arrowleft" xlink:href="#arrowLeft" x="0" y="0" onmousedown="handlePan(-1,0)"/>
</g>
<svg viewBox="0 0 15 15" width="100%" height="30px" preserveAspectRatio="xMaxYMin meet">
 <g id="arrow_out" transform="scale(0.3 0.3)">
  <a xlink:href="classedu_1_1wpi_1_1first_1_1wpilibj_1_1_xbox_controller_a023f76080479bd2ed324b1349737956e_cgraph_org.svg" target="_base">
   <rect id="button" ry="5" rx="5" y="6" x="6" height="38" width="38"
        fill="#f2f5e9" fill-opacity="0.5" stroke="#606060" stroke-width="1.0"/>
   <path id="arrow"
     d="M 11.500037,31.436501 C 11.940474,20.09759 22.043105,11.32322 32.158766,21.979434 L 37.068811,17.246167 C 37.068811,17.246167 37.088388,32 37.088388,32 L 22.160133,31.978069 C 22.160133,31.978069 26.997745,27.140456 26.997745,27.140456 C 18.528582,18.264221 13.291696,25.230495 11.500037,31.436501 z"
     style="fill:#404040;"/>
  </a>
 </g>
</svg>

<style type='text/css'>
<![CDATA[
[data-mouse-over-selected='false'] { opacity: 0.7; }
[data-mouse-over-selected='true']  { opacity: 1.0; }
]]>
</style>
<script type="application/ecmascript"><![CDATA[
document.addEventListener('DOMContentLoaded', (event) => {
  highlightEdges();
  highlightAdjacentNodes();
});
]]></script>
</svg>
