<?xml version="1.0" encoding="UTF-8" standalone="no"?>
<!DOCTYPE svg PUBLIC "-//W3C//DTD SVG 1.1//EN"
 "http://www.w3.org/Graphics/SVG/1.1/DTD/svg11.dtd">
<!-- Generated by graphviz version 9.0.0 (20230911.1827)
 -->
<!-- Title: edu.wpi.first.wpilibj.simulation.DCMotorSim.getAngularVelocityRadPerSec Pages: 1 -->
<svg width="432pt" height="88pt"
 viewBox="0.00 0.00 432.25 87.50" xmlns="http://www.w3.org/2000/svg" xmlns:xlink="http://www.w3.org/1999/xlink">
<g id="graph0" class="graph" transform="scale(1 1) rotate(0) translate(4 83.5)">
<title>edu.wpi.first.wpilibj.simulation.DCMotorSim.getAngularVelocityRadPerSec</title>
<!-- Node1 -->
<g id="Node000001" class="node">
<title>Node1</title>
<g id="a_Node000001"><a xlink:title=" ">
<polygon fill="#999999" stroke="#666666" points="424.25,-54.5 216.25,-54.5 216.25,-24 424.25,-24 424.25,-54.5"/>
<text text-anchor="start" x="224.25" y="-41" font-family="Helvetica,sans-Serif" font-size="10.00">edu.wpi.first.wpilibj.simulation.</text>
<text text-anchor="middle" x="320.25" y="-29.75" font-family="Helvetica,sans-Serif" font-size="10.00">DCMotorSim.getAngularVelocityRadPerSec</text>
</a>
</g>
</g>
<!-- Node2 -->
<g id="Node000002" class="node">
<title>Node2</title>
<g id="a_Node000002"><a xlink:href="classedu_1_1wpi_1_1first_1_1wpilibj_1_1simulation_1_1_d_c_motor_sim.html#abaa395ff80759a130ef6e410def19b78" target="_top" xlink:title=" ">
<polygon fill="white" stroke="#666666" points="180.25,-79.5 0,-79.5 0,-49 180.25,-49 180.25,-79.5"/>
<text text-anchor="start" x="8" y="-66" font-family="Helvetica,sans-Serif" font-size="10.00">edu.wpi.first.wpilibj.simulation.</text>
<text text-anchor="middle" x="90.12" y="-54.75" font-family="Helvetica,sans-Serif" font-size="10.00">DCMotorSim.getAngularVelocityRPM</text>
</a>
</g>
</g>
<!-- Node1&#45;&gt;Node2 -->
<g id="edge1_Node000001_Node000002" class="edge">
<title>Node1&#45;&gt;Node2</title>
<g id="a_edge1_Node000001_Node000002"><a xlink:title=" ">
<path fill="none" stroke="#63b8ff" d="M204.51,-51.82C196.46,-52.71 188.42,-53.59 180.55,-54.45"/>
<polygon fill="#63b8ff" stroke="#63b8ff" points="204.8,-55.31 214.36,-50.74 204.04,-48.35 204.8,-55.31"/>
</a>
</g>
</g>
<!-- Node3 -->
<g id="Node000003" class="node">
<title>Node3</title>
<g id="a_Node000003"><a xlink:href="classedu_1_1wpi_1_1first_1_1wpilibj_1_1simulation_1_1_d_c_motor_sim.html#aa5998b06e70d0d4edfcc27de9b08900c" target="_top" xlink:title=" ">
<polygon fill="white" stroke="#666666" points="175.38,-30.5 4.88,-30.5 4.88,0 175.38,0 175.38,-30.5"/>
<text text-anchor="start" x="12.88" y="-17" font-family="Helvetica,sans-Serif" font-size="10.00">edu.wpi.first.wpilibj.simulation.</text>
<text text-anchor="middle" x="90.12" y="-5.75" font-family="Helvetica,sans-Serif" font-size="10.00">DCMotorSim.getCurrentDrawAmps</text>
</a>
</g>
</g>
<!-- Node1&#45;&gt;Node3 -->
<g id="edge2_Node000001_Node000003" class="edge">
<title>Node1&#45;&gt;Node3</title>
<g id="a_edge2_Node000001_Node000003"><a xlink:title=" ">
<path fill="none" stroke="#63b8ff" d="M204.5,-27.18C194.8,-26.16 185.11,-25.14 175.71,-24.15"/>
<polygon fill="#63b8ff" stroke="#63b8ff" points="204.05,-30.65 214.36,-28.22 204.78,-23.69 204.05,-30.65"/>
</a>
</g>
</g>
</g>
</svg>
