<?xml version="1.0" encoding="UTF-8" standalone="no"?>
<!DOCTYPE svg PUBLIC "-//W3C//DTD SVG 1.1//EN"
 "http://www.w3.org/Graphics/SVG/1.1/DTD/svg11.dtd">
<!-- Generated by graphviz version 9.0.0 (20230911.1827)
 -->
<!-- Title: edu.wpi.first.wpilibj.counter.Tachometer.getPeriod Pages: 1 -->
<svg width="578pt" height="88pt"
 viewBox="0.00 0.00 578.00 87.50" xmlns="http://www.w3.org/2000/svg" xmlns:xlink="http://www.w3.org/1999/xlink">
<g id="graph0" class="graph" transform="scale(1 1) rotate(0) translate(4 83.5)">
<title>edu.wpi.first.wpilibj.counter.Tachometer.getPeriod</title>
<!-- Node1 -->
<g id="Node000001" class="node">
<title>Node1</title>
<g id="a_Node000001"><a xlink:title=" ">
<polygon fill="#999999" stroke="#666666" points="570,-54.5 433.25,-54.5 433.25,-24 570,-24 570,-54.5"/>
<text text-anchor="start" x="441.25" y="-41" font-family="Helvetica,sans-Serif" font-size="10.00">edu.wpi.first.wpilibj.counter.</text>
<text text-anchor="middle" x="501.62" y="-29.75" font-family="Helvetica,sans-Serif" font-size="10.00">Tachometer.getPeriod</text>
</a>
</g>
</g>
<!-- Node2 -->
<g id="Node000002" class="node">
<title>Node2</title>
<g id="a_Node000002"><a xlink:href="classedu_1_1wpi_1_1first_1_1wpilibj_1_1counter_1_1_tachometer.html#a1cf41213eab6ed8bf47ff1213baca528" target="_top" xlink:title=" ">
<polygon fill="white" stroke="#666666" points="374.38,-79.5 237.62,-79.5 237.62,-49 374.38,-49 374.38,-79.5"/>
<text text-anchor="start" x="245.62" y="-66" font-family="Helvetica,sans-Serif" font-size="10.00">edu.wpi.first.wpilibj.counter.</text>
<text text-anchor="middle" x="306" y="-54.75" font-family="Helvetica,sans-Serif" font-size="10.00">Tachometer.getFrequency</text>
</a>
</g>
</g>
<!-- Node1&#45;&gt;Node2 -->
<g id="edge1_Node000001_Node000002" class="edge">
<title>Node1&#45;&gt;Node2</title>
<g id="a_edge1_Node000001_Node000002"><a xlink:title=" ">
<path fill="none" stroke="#63b8ff" d="M421.69,-49.44C406.1,-51.46 389.86,-53.55 374.68,-55.51"/>
<polygon fill="#63b8ff" stroke="#63b8ff" points="421.93,-52.94 431.4,-48.19 421.04,-46 421.93,-52.94"/>
</a>
</g>
</g>
<!-- Node3 -->
<g id="Node000003" class="node">
<title>Node3</title>
<g id="a_Node000003"><a xlink:href="classedu_1_1wpi_1_1first_1_1wpilibj_1_1counter_1_1_tachometer.html#a2252fd19dc1d3877a6906d01984d65b7" target="_top" xlink:title=" ">
<polygon fill="white" stroke="#666666" points="397.25,-30.5 214.75,-30.5 214.75,0 397.25,0 397.25,-30.5"/>
<text text-anchor="start" x="222.75" y="-17" font-family="Helvetica,sans-Serif" font-size="10.00">edu.wpi.first.wpilibj.counter.</text>
<text text-anchor="middle" x="306" y="-5.75" font-family="Helvetica,sans-Serif" font-size="10.00">Tachometer.getRevolutionsPerSecond</text>
</a>
</g>
</g>
<!-- Node1&#45;&gt;Node3 -->
<g id="edge2_Node000001_Node000003" class="edge">
<title>Node1&#45;&gt;Node3</title>
<g id="a_edge2_Node000001_Node000003"><a xlink:title=" ">
<path fill="none" stroke="#63b8ff" d="M421.74,-29.47C413.75,-28.48 405.59,-27.47 397.48,-26.47"/>
<polygon fill="#63b8ff" stroke="#63b8ff" points="421.05,-32.91 431.4,-30.67 421.91,-25.97 421.05,-32.91"/>
</a>
</g>
</g>
<!-- Node4 -->
<g id="Node000004" class="node">
<title>Node4</title>
<g id="a_Node000004"><a xlink:href="classedu_1_1wpi_1_1first_1_1wpilibj_1_1counter_1_1_tachometer.html#a0fc248af704cf01ba38f067dec7195e4" target="_top" xlink:title=" ">
<polygon fill="white" stroke="#666666" points="178.75,-30.5 0,-30.5 0,0 178.75,0 178.75,-30.5"/>
<text text-anchor="start" x="8" y="-17" font-family="Helvetica,sans-Serif" font-size="10.00">edu.wpi.first.wpilibj.counter.</text>
<text text-anchor="middle" x="89.38" y="-5.75" font-family="Helvetica,sans-Serif" font-size="10.00">Tachometer.getRevolutionsPerMinute</text>
</a>
</g>
</g>
<!-- Node3&#45;&gt;Node4 -->
<g id="edge3_Node000003_Node000004" class="edge">
<title>Node3&#45;&gt;Node4</title>
<g id="a_edge3_Node000003_Node000004"><a xlink:title=" ">
<path fill="none" stroke="#63b8ff" d="M203.01,-15.25C195,-15.25 186.96,-15.25 179.05,-15.25"/>
<polygon fill="#63b8ff" stroke="#63b8ff" points="202.78,-18.75 212.78,-15.25 202.78,-11.75 202.78,-18.75"/>
</a>
</g>
</g>
</g>
</svg>
