<?xml version="1.0" encoding="UTF-8" standalone="no"?>
<!DOCTYPE svg PUBLIC "-//W3C//DTD SVG 1.1//EN"
 "http://www.w3.org/Graphics/SVG/1.1/DTD/svg11.dtd">
<!-- Generated by graphviz version 9.0.0 (20230911.1827)
 -->
<!-- Title: edu.wpi.first.wpilibj.PWM.getHandle Pages: 1 -->
<svg width="541pt" height="88pt"
 viewBox="0.00 0.00 541.25 87.50" xmlns="http://www.w3.org/2000/svg" xmlns:xlink="http://www.w3.org/1999/xlink">
<g id="graph0" class="graph" transform="scale(1 1) rotate(0) translate(4 83.5)">
<title>edu.wpi.first.wpilibj.PWM.getHandle</title>
<!-- Node1 -->
<g id="Node000001" class="node">
<title>Node1</title>
<g id="a_Node000001"><a xlink:title=" ">
<polygon fill="#999999" stroke="#666666" points="533.25,-54.5 389.75,-54.5 389.75,-24 533.25,-24 533.25,-54.5"/>
<text text-anchor="start" x="397.75" y="-41" font-family="Helvetica,sans-Serif" font-size="10.00">edu.wpi.first.wpilibj.PWM.get</text>
<text text-anchor="middle" x="461.5" y="-29.75" font-family="Helvetica,sans-Serif" font-size="10.00">Handle</text>
</a>
</g>
</g>
<!-- Node2 -->
<g id="Node000002" class="node">
<title>Node2</title>
<g id="a_Node000002"><a xlink:href="classedu_1_1wpi_1_1first_1_1wpilibj_1_1motorcontrol_1_1_p_w_m_motor_controller.html#a4c282360fda1b605eb34a92f1b6c5be2" target="_top" xlink:title=" ">
<polygon fill="white" stroke="#666666" points="353.75,-79.5 177.25,-79.5 177.25,-49 353.75,-49 353.75,-79.5"/>
<text text-anchor="start" x="185.25" y="-66" font-family="Helvetica,sans-Serif" font-size="10.00">edu.wpi.first.wpilibj.motorcontrol.</text>
<text text-anchor="middle" x="265.5" y="-54.75" font-family="Helvetica,sans-Serif" font-size="10.00">PWMMotorController.getPwmHandle</text>
</a>
</g>
</g>
<!-- Node1&#45;&gt;Node2 -->
<g id="edge1_Node000001_Node000002" class="edge">
<title>Node1&#45;&gt;Node2</title>
<g id="a_edge1_Node000001_Node000002"><a xlink:title=" ">
<path fill="none" stroke="#63b8ff" d="M378.21,-49.85C370.24,-50.88 362.14,-51.93 354.12,-52.96"/>
<polygon fill="#63b8ff" stroke="#63b8ff" points="378.39,-53.36 387.86,-48.61 377.5,-46.42 378.39,-53.36"/>
</a>
</g>
</g>
<!-- Node4 -->
<g id="Node000004" class="node">
<title>Node4</title>
<g id="a_Node000004"><a xlink:href="classedu_1_1wpi_1_1first_1_1wpilibj_1_1_d_m_a.html#a44526ae99473867106766393b7f439c9" target="_top" xlink:title=" ">
<polygon fill="white" stroke="#666666" points="336.12,-30.5 194.88,-30.5 194.88,0 336.12,0 336.12,-30.5"/>
<text text-anchor="start" x="202.88" y="-17" font-family="Helvetica,sans-Serif" font-size="10.00">edu.wpi.first.wpilibj.DMA.set</text>
<text text-anchor="middle" x="265.5" y="-5.75" font-family="Helvetica,sans-Serif" font-size="10.00">PwmEdgeTrigger</text>
</a>
</g>
</g>
<!-- Node1&#45;&gt;Node4 -->
<g id="edge3_Node000001_Node000004" class="edge">
<title>Node1&#45;&gt;Node4</title>
<g id="a_edge3_Node000001_Node000004"><a xlink:title=" ">
<path fill="none" stroke="#63b8ff" d="M378.28,-29.08C364.32,-27.35 349.94,-25.57 336.33,-23.89"/>
<polygon fill="#63b8ff" stroke="#63b8ff" points="377.51,-32.51 387.86,-30.26 378.37,-25.56 377.51,-32.51"/>
</a>
</g>
</g>
<!-- Node3 -->
<g id="Node000003" class="node">
<title>Node3</title>
<g id="a_Node000003"><a xlink:href="classedu_1_1wpi_1_1first_1_1wpilibj_1_1_d_m_a.html#a15de9a3d33d7cf071547f38b793153bf" target="_top" xlink:title=" ">
<polygon fill="white" stroke="#666666" points="141.25,-79.5 0,-79.5 0,-49 141.25,-49 141.25,-79.5"/>
<text text-anchor="start" x="8" y="-66" font-family="Helvetica,sans-Serif" font-size="10.00">edu.wpi.first.wpilibj.DMA.set</text>
<text text-anchor="middle" x="70.62" y="-54.75" font-family="Helvetica,sans-Serif" font-size="10.00">PwmEdgeTrigger</text>
</a>
</g>
</g>
<!-- Node2&#45;&gt;Node3 -->
<g id="edge2_Node000002_Node000003" class="edge">
<title>Node2&#45;&gt;Node3</title>
<g id="a_edge2_Node000002_Node000003"><a xlink:title=" ">
<path fill="none" stroke="#63b8ff" d="M165.4,-64.25C157.32,-64.25 149.27,-64.25 141.47,-64.25"/>
<polygon fill="#63b8ff" stroke="#63b8ff" points="165.3,-67.75 175.3,-64.25 165.3,-60.75 165.3,-67.75"/>
</a>
</g>
</g>
</g>
</svg>
