<?xml version="1.0" encoding="UTF-8" standalone="no"?>
<!DOCTYPE svg PUBLIC "-//W3C//DTD SVG 1.1//EN"
 "http://www.w3.org/Graphics/SVG/1.1/DTD/svg11.dtd">
<!-- Generated by graphviz version 9.0.0 (20230911.1827)
 -->
<!-- Title: edu.wpi.first.wpilibj.I2C.transaction Pages: 1 -->
<svg width="412pt" height="223pt"
 viewBox="0.00 0.00 411.50 222.50" xmlns="http://www.w3.org/2000/svg" xmlns:xlink="http://www.w3.org/1999/xlink">
<g id="graph0" class="graph" transform="scale(1 1) rotate(0) translate(4 218.5)">
<title>edu.wpi.first.wpilibj.I2C.transaction</title>
<!-- Node1 -->
<g id="Node000001" class="node">
<title>Node1</title>
<g id="a_Node000001"><a xlink:title=" ">
<polygon fill="#999999" stroke="#666666" points="403.5,-122.5 293,-122.5 293,-92 403.5,-92 403.5,-122.5"/>
<text text-anchor="start" x="301" y="-109" font-family="Helvetica,sans-Serif" font-size="10.00">edu.wpi.first.wpilibj.I2</text>
<text text-anchor="middle" x="348.25" y="-97.75" font-family="Helvetica,sans-Serif" font-size="10.00">C.transaction</text>
</a>
</g>
</g>
<!-- Node2 -->
<g id="Node000002" class="node">
<title>Node2</title>
<g id="a_Node000002"><a xlink:href="classedu_1_1wpi_1_1first_1_1wpilibj_1_1_i2_c.html#a0b2af733f8c41890f8d006a14232caae" target="_top" xlink:title=" ">
<polygon fill="white" stroke="#666666" points="257,-214.5 146.5,-214.5 146.5,-184 257,-184 257,-214.5"/>
<text text-anchor="start" x="154.5" y="-201" font-family="Helvetica,sans-Serif" font-size="10.00">edu.wpi.first.wpilibj.I2</text>
<text text-anchor="middle" x="201.75" y="-189.75" font-family="Helvetica,sans-Serif" font-size="10.00">C.addressOnly</text>
</a>
</g>
</g>
<!-- Node1&#45;&gt;Node2 -->
<g id="edge1_Node000001_Node000002" class="edge">
<title>Node1&#45;&gt;Node2</title>
<g id="a_edge1_Node000001_Node000002"><a xlink:title=" ">
<path fill="none" stroke="#63b8ff" d="M320.17,-129.67C302.76,-143.49 279.3,-161.03 257,-174.25 251.47,-177.53 245.44,-180.69 239.47,-183.59"/>
<polygon fill="#63b8ff" stroke="#63b8ff" points="321.9,-132.77 327.5,-123.77 317.52,-127.31 321.9,-132.77"/>
</a>
</g>
</g>
<!-- Node3 -->
<g id="Node000003" class="node">
<title>Node3</title>
<g id="a_Node000003"><a xlink:href="classedu_1_1wpi_1_1first_1_1wpilibj_1_1_i2_c.html#acf9bea63a225fe910c5543ebe106b82f" target="_top" xlink:title=" ">
<polygon fill="white" stroke="#666666" points="257,-165.5 146.5,-165.5 146.5,-135 257,-135 257,-165.5"/>
<text text-anchor="start" x="154.5" y="-152" font-family="Helvetica,sans-Serif" font-size="10.00">edu.wpi.first.wpilibj.I2</text>
<text text-anchor="middle" x="201.75" y="-140.75" font-family="Helvetica,sans-Serif" font-size="10.00">C.read</text>
</a>
</g>
</g>
<!-- Node1&#45;&gt;Node3 -->
<g id="edge2_Node000001_Node000003" class="edge">
<title>Node1&#45;&gt;Node3</title>
<g id="a_edge2_Node000001_Node000003"><a xlink:title=" ">
<path fill="none" stroke="#63b8ff" d="M283.74,-126.15C274.32,-128.95 264.7,-131.81 255.53,-134.54"/>
<polygon fill="#63b8ff" stroke="#63b8ff" points="284.64,-129.53 293.22,-123.33 282.64,-122.82 284.64,-129.53"/>
</a>
</g>
</g>
<!-- Node4 -->
<g id="Node000004" class="node">
<title>Node4</title>
<g id="a_Node000004"><a xlink:href="classedu_1_1wpi_1_1first_1_1wpilibj_1_1_i2_c.html#ab0cb985caf1ef26ab525a266e01338c2" target="_top" xlink:title=" ">
<polygon fill="white" stroke="#666666" points="110.5,-143.5 0,-143.5 0,-113 110.5,-113 110.5,-143.5"/>
<text text-anchor="start" x="8" y="-130" font-family="Helvetica,sans-Serif" font-size="10.00">edu.wpi.first.wpilibj.I2</text>
<text text-anchor="middle" x="55.25" y="-118.75" font-family="Helvetica,sans-Serif" font-size="10.00">C.read</text>
</a>
</g>
</g>
<!-- Node1&#45;&gt;Node4 -->
<g id="edge4_Node000001_Node000004" class="edge">
<title>Node1&#45;&gt;Node4</title>
<g id="a_edge4_Node000001_Node000004"><a xlink:title=" ">
<path fill="none" stroke="#63b8ff" d="M281.18,-112.02C229.68,-115.73 159.03,-120.83 110.74,-124.32"/>
<polygon fill="#63b8ff" stroke="#63b8ff" points="281.28,-115.52 291.01,-111.31 280.78,-108.54 281.28,-115.52"/>
</a>
</g>
</g>
<!-- Node5 -->
<g id="Node000005" class="node">
<title>Node5</title>
<g id="a_Node000005"><a xlink:href="classedu_1_1wpi_1_1first_1_1wpilibj_1_1_i2_c.html#a1373ea1f6394ce0a1fe6d42b74174dfb" target="_top" xlink:title=" ">
<polygon fill="white" stroke="#666666" points="257,-79.5 146.5,-79.5 146.5,-49 257,-49 257,-79.5"/>
<text text-anchor="start" x="154.5" y="-66" font-family="Helvetica,sans-Serif" font-size="10.00">edu.wpi.first.wpilibj.I2</text>
<text text-anchor="middle" x="201.75" y="-54.75" font-family="Helvetica,sans-Serif" font-size="10.00">C.transaction</text>
</a>
</g>
</g>
<!-- Node1&#45;&gt;Node5 -->
<g id="edge5_Node000001_Node000005" class="edge">
<title>Node1&#45;&gt;Node5</title>
<g id="a_edge5_Node000001_Node000005"><a xlink:title=" ">
<path fill="none" stroke="#63b8ff" d="M283.74,-88.35C274.32,-85.55 264.7,-82.69 255.53,-79.96"/>
<polygon fill="#63b8ff" stroke="#63b8ff" points="282.64,-91.68 293.22,-91.17 284.64,-84.97 282.64,-91.68"/>
</a>
</g>
</g>
<!-- Node6 -->
<g id="Node000006" class="node">
<title>Node6</title>
<g id="a_Node000006"><a xlink:href="classedu_1_1wpi_1_1first_1_1wpilibj_1_1_i2_c.html#aae7bfd4635c121c6763e7edc0f0cb896" target="_top" xlink:title=" ">
<polygon fill="white" stroke="#666666" points="257,-30.5 146.5,-30.5 146.5,0 257,0 257,-30.5"/>
<text text-anchor="start" x="154.5" y="-17" font-family="Helvetica,sans-Serif" font-size="10.00">edu.wpi.first.wpilibj.I2</text>
<text text-anchor="middle" x="201.75" y="-5.75" font-family="Helvetica,sans-Serif" font-size="10.00">C.verifySensor</text>
</a>
</g>
</g>
<!-- Node1&#45;&gt;Node6 -->
<g id="edge6_Node000001_Node000006" class="edge">
<title>Node1&#45;&gt;Node6</title>
<g id="a_edge6_Node000001_Node000006"><a xlink:title=" ">
<path fill="none" stroke="#63b8ff" d="M320.17,-84.83C302.76,-71.01 279.3,-53.47 257,-40.25 251.47,-36.97 245.44,-33.81 239.47,-30.91"/>
<polygon fill="#63b8ff" stroke="#63b8ff" points="317.52,-87.19 327.5,-90.73 321.9,-81.73 317.52,-87.19"/>
</a>
</g>
</g>
<!-- Node3&#45;&gt;Node4 -->
<g id="edge3_Node000003_Node000004" class="edge">
<title>Node3&#45;&gt;Node4</title>
<g id="a_edge3_Node000003_Node000004"><a xlink:title=" ">
<path fill="none" stroke="#63b8ff" d="M134.91,-140.23C126.9,-139.01 118.78,-137.77 110.96,-136.58"/>
<polygon fill="#63b8ff" stroke="#63b8ff" points="134.21,-143.66 144.62,-141.7 135.27,-136.74 134.21,-143.66"/>
</a>
</g>
</g>
</g>
</svg>
