<?xml version="1.0" encoding="UTF-8" standalone="no"?>
<!DOCTYPE svg PUBLIC "-//W3C//DTD SVG 1.1//EN"
 "http://www.w3.org/Graphics/SVG/1.1/DTD/svg11.dtd">
<!-- Generated by graphviz version 9.0.0 (20230911.1827)
 -->
<!-- Title: frc.robot.DebugCommand Pages: 1 -->
<svg width="576pt" height="154pt"
 viewBox="0.00 0.00 575.75 154.25" xmlns="http://www.w3.org/2000/svg" xmlns:xlink="http://www.w3.org/1999/xlink">
<g id="graph0" class="graph" transform="scale(1 1) rotate(0) translate(4 150.25)">
<title>frc.robot.DebugCommand</title>
<!-- Node1 -->
<g id="Node000001" class="node">
<title>Node1</title>
<g id="a_Node000001"><a xlink:title=" ">
<polygon fill="#999999" stroke="#666666" points="567.75,-81.25 439.25,-81.25 439.25,-62 567.75,-62 567.75,-81.25"/>
<text text-anchor="middle" x="503.5" y="-67.75" font-family="Helvetica,sans-Serif" font-size="10.00">frc.robot.DebugCommand</text>
</a>
</g>
</g>
<!-- Node2 -->
<g id="Node000002" class="node">
<title>Node2</title>
<g id="a_Node000002"><a xlink:title=" ">
<polygon fill="white" stroke="#bfbfbf" points="281.38,-146.25 220.38,-146.25 220.38,-127 281.38,-127 281.38,-146.25"/>
<text text-anchor="middle" x="250.88" y="-132.75" font-family="Helvetica,sans-Serif" font-size="10.00">Command</text>
</a>
</g>
</g>
<!-- Node2&#45;&gt;Node1 -->
<g id="edge1_Node000001_Node000002" class="edge">
<title>Node2&#45;&gt;Node1</title>
<g id="a_edge1_Node000001_Node000002"><a xlink:title=" ">
<path fill="none" stroke="#63b8ff" d="M292.82,-128.64C327.31,-121.62 377.81,-110.68 421.25,-98.62 439.15,-93.66 458.94,-87.1 474.51,-81.7"/>
<polygon fill="#63b8ff" stroke="#63b8ff" points="292.37,-125.16 283.26,-130.56 293.76,-132.02 292.37,-125.16"/>
</a>
</g>
</g>
<!-- Node3 -->
<g id="Node000003" class="node">
<title>Node3</title>
<g id="a_Node000003"><a xlink:href="classfrc_1_1robot_1_1subsystems_1_1swervedrive_1_1_swerve_subsystem.html" target="_top" xlink:title=" ">
<polygon fill="white" stroke="#bfbfbf" points="334.25,-108.88 167.5,-108.88 167.5,-78.38 334.25,-78.38 334.25,-108.88"/>
<text text-anchor="start" x="175.5" y="-95.38" font-family="Helvetica,sans-Serif" font-size="10.00">frc.robot.subsystems.swervedrive.</text>
<text text-anchor="middle" x="250.88" y="-84.12" font-family="Helvetica,sans-Serif" font-size="10.00">SwerveSubsystem</text>
</a>
</g>
</g>
<!-- Node3&#45;&gt;Node1 -->
<g id="edge2_Node000001_Node000003" class="edge">
<title>Node3&#45;&gt;Node1</title>
<g id="a_edge2_Node000001_Node000003"><a xlink:title=" ">
<path fill="none" stroke="#9a32cd" stroke-dasharray="5,2" d="M345.92,-85.37C376.94,-82.65 410.69,-79.68 438.88,-77.21"/>
<polygon fill="#9a32cd" stroke="#9a32cd" points="345.8,-81.87 336.14,-86.23 346.41,-88.84 345.8,-81.87"/>
</a>
</g>
<text text-anchor="middle" x="386.75" y="-85.38" font-family="Helvetica,sans-Serif" font-size="10.00" fill="grey"> swerve</text>
</g>
<!-- Node4 -->
<g id="Node000004" class="node">
<title>Node4</title>
<g id="a_Node000004"><a xlink:title=" ">
<polygon fill="white" stroke="#bfbfbf" points="88,-103.25 0,-103.25 0,-84 88,-84 88,-103.25"/>
<text text-anchor="middle" x="44" y="-89.75" font-family="Helvetica,sans-Serif" font-size="10.00">SubsystemBase</text>
</a>
</g>
</g>
<!-- Node4&#45;&gt;Node3 -->
<g id="edge3_Node000003_Node000004" class="edge">
<title>Node4&#45;&gt;Node3</title>
<g id="a_edge3_Node000003_Node000004"><a xlink:title=" ">
<path fill="none" stroke="#63b8ff" d="M99.88,-93.62C120.55,-93.62 144.55,-93.62 167.2,-93.62"/>
<polygon fill="#63b8ff" stroke="#63b8ff" points="99.96,-90.13 89.96,-93.63 99.96,-97.13 99.96,-90.13"/>
</a>
</g>
</g>
<!-- Node5 -->
<g id="Node000005" class="node">
<title>Node5</title>
<g id="a_Node000005"><a xlink:href="classfrc_1_1robot_1_1my_number_inator.html" target="_top" xlink:title=" ">
<polygon fill="white" stroke="#bfbfbf" points="314.75,-60.25 187,-60.25 187,-41 314.75,-41 314.75,-60.25"/>
<text text-anchor="middle" x="250.88" y="-46.75" font-family="Helvetica,sans-Serif" font-size="10.00">frc.robot.myNumberInator</text>
</a>
</g>
</g>
<!-- Node5&#45;&gt;Node1 -->
<g id="edge4_Node000001_Node000005" class="edge">
<title>Node5&#45;&gt;Node1</title>
<g id="a_edge4_Node000001_Node000005"><a xlink:title=" ">
<path fill="none" stroke="#9a32cd" stroke-dasharray="5,2" d="M326.67,-50.73C356.21,-51.4 390.4,-52.98 421.25,-56.38 432.38,-57.6 444.27,-59.5 455.42,-61.54"/>
<polygon fill="#9a32cd" stroke="#9a32cd" points="326.76,-47.23 316.69,-50.53 326.62,-54.23 326.76,-47.23"/>
</a>
</g>
<text text-anchor="middle" x="386.75" y="-57.38" font-family="Helvetica,sans-Serif" font-size="10.00" fill="grey"> genNumInator</text>
</g>
<!-- Node6 -->
<g id="Node000006" class="node">
<title>Node6</title>
<g id="a_Node000006"><a xlink:title=" ">
<polygon fill="white" stroke="#bfbfbf" points="85,-44.25 3,-44.25 3,-25 85,-25 85,-44.25"/>
<text text-anchor="middle" x="44" y="-30.75" font-family="Helvetica,sans-Serif" font-size="10.00">DoubleSupplier</text>
</a>
</g>
</g>
<!-- Node6&#45;&gt;Node5 -->
<g id="edge5_Node000005_Node000006" class="edge">
<title>Node6&#45;&gt;Node5</title>
<g id="a_edge5_Node000005_Node000006"><a xlink:title=" ">
<path fill="none" stroke="#9a32cd" stroke-dasharray="5,2" d="M96.78,-38.67C124.17,-40.81 158,-43.45 186.89,-45.71"/>
<polygon fill="#9a32cd" stroke="#9a32cd" points="97.23,-35.19 86.99,-37.9 96.68,-42.17 97.23,-35.19"/>
</a>
</g>
<text text-anchor="middle" x="127.75" y="-44.38" font-family="Helvetica,sans-Serif" font-size="10.00" fill="grey"> supplier</text>
</g>
<!-- Node7 -->
<g id="Node000007" class="node">
<title>Node7</title>
<g id="a_Node000007"><a xlink:href="classfrc_1_1robot_1_1my_circle_inator.html" target="_top" xlink:title=" ">
<polygon fill="white" stroke="#bfbfbf" points="310.25,-19.25 191.5,-19.25 191.5,0 310.25,0 310.25,-19.25"/>
<text text-anchor="middle" x="250.88" y="-5.75" font-family="Helvetica,sans-Serif" font-size="10.00">frc.robot.myCircleInator</text>
</a>
</g>
</g>
<!-- Node6&#45;&gt;Node7 -->
<g id="edge7_Node000007_Node000006" class="edge">
<title>Node6&#45;&gt;Node7</title>
<g id="a_edge7_Node000007_Node000006"><a xlink:title=" ">
<path fill="none" stroke="#9a32cd" stroke-dasharray="5,2" d="M80.34,-20.8C88.64,-18.11 97.53,-15.65 106,-14.12 133.67,-9.15 164.81,-7.68 191.02,-7.6"/>
<polygon fill="#9a32cd" stroke="#9a32cd" points="79.23,-17.49 70.93,-24.07 81.52,-24.1 79.23,-17.49"/>
</a>
</g>
<text text-anchor="middle" x="127.75" y="-27.62" font-family="Helvetica,sans-Serif" font-size="10.00" fill="grey"> xSupplier</text>
<text text-anchor="middle" x="127.75" y="-16.38" font-family="Helvetica,sans-Serif" font-size="10.00" fill="grey">ySupplier</text>
</g>
<!-- Node7&#45;&gt;Node1 -->
<g id="edge6_Node000001_Node000007" class="edge">
<title>Node7&#45;&gt;Node1</title>
<g id="a_edge6_Node000001_Node000007"><a xlink:title=" ">
<path fill="none" stroke="#9a32cd" stroke-dasharray="5,2" d="M321.79,-16.63C352.67,-20.76 389.17,-27.05 421.25,-36.38 443.25,-42.77 467.16,-53.66 483.31,-61.65"/>
<polygon fill="#9a32cd" stroke="#9a32cd" points="322.55,-13.2 312.18,-15.4 321.66,-20.15 322.55,-13.2"/>
</a>
</g>
<text text-anchor="middle" x="386.75" y="-38.38" font-family="Helvetica,sans-Serif" font-size="10.00" fill="grey"> genCircleInator</text>
</g>
</g>
</svg>
