<?xml version="1.0" encoding="UTF-8" standalone="no"?>
<!DOCTYPE svg PUBLIC "-//W3C//DTD SVG 1.1//EN"
 "http://www.w3.org/Graphics/SVG/1.1/DTD/svg11.dtd">
<!-- Generated by graphviz version 9.0.0 (20230911.1827)
 -->
<!-- Title: edu.wpi.first.wpilibj.DigitalOutput.getChannel Pages: 1 -->
<svg width="535pt" height="113pt"
 viewBox="0.00 0.00 534.50 112.50" xmlns="http://www.w3.org/2000/svg" xmlns:xlink="http://www.w3.org/1999/xlink">
<g id="graph0" class="graph" transform="scale(1 1) rotate(0) translate(4 108.5)">
<title>edu.wpi.first.wpilibj.DigitalOutput.getChannel</title>
<!-- Node1 -->
<g id="Node000001" class="node">
<title>Node1</title>
<g id="a_Node000001"><a xlink:title=" ">
<polygon fill="#999999" stroke="#666666" points="526.5,-54.5 396.5,-54.5 396.5,-24 526.5,-24 526.5,-54.5"/>
<text text-anchor="start" x="404.5" y="-41" font-family="Helvetica,sans-Serif" font-size="10.00">edu.wpi.first.wpilibj.Digital</text>
<text text-anchor="middle" x="461.5" y="-29.75" font-family="Helvetica,sans-Serif" font-size="10.00">Output.getChannel</text>
</a>
</g>
</g>
<!-- Node2 -->
<g id="Node000002" class="node">
<title>Node2</title>
<g id="a_Node000002"><a xlink:href="classedu_1_1wpi_1_1first_1_1wpilibj_1_1simulation_1_1_digital_p_w_m_sim.html#afe5fea6b7f6a9e8ccbf83cd377240b0b" target="_top" xlink:title=" ">
<polygon fill="white" stroke="#666666" points="360.5,-79.5 202,-79.5 202,-49 360.5,-49 360.5,-79.5"/>
<text text-anchor="start" x="210" y="-66" font-family="Helvetica,sans-Serif" font-size="10.00">edu.wpi.first.wpilibj.simulation.</text>
<text text-anchor="middle" x="281.25" y="-54.75" font-family="Helvetica,sans-Serif" font-size="10.00">DigitalPWMSim.DigitalPWMSim</text>
</a>
</g>
</g>
<!-- Node1&#45;&gt;Node2 -->
<g id="edge1_Node000001_Node000002" class="edge">
<title>Node1&#45;&gt;Node2</title>
<g id="a_edge1_Node000001_Node000002"><a xlink:title=" ">
<path fill="none" stroke="#63b8ff" d="M384.97,-49.84C376.98,-50.96 368.83,-52.11 360.81,-53.23"/>
<polygon fill="#63b8ff" stroke="#63b8ff" points="385.23,-53.34 394.65,-48.49 384.26,-46.41 385.23,-53.34"/>
</a>
</g>
</g>
<!-- Node5 -->
<g id="Node000005" class="node">
<title>Node5</title>
<g id="a_Node000005"><a xlink:href="classedu_1_1wpi_1_1first_1_1wpilibj_1_1simulation_1_1_d_i_o_sim.html#a6b1ee33590d91cffda6ff47537b67921" target="_top" xlink:title=" ">
<polygon fill="white" stroke="#666666" points="356,-30.5 206.5,-30.5 206.5,0 356,0 356,-30.5"/>
<text text-anchor="start" x="214.5" y="-17" font-family="Helvetica,sans-Serif" font-size="10.00">edu.wpi.first.wpilibj.simulation.</text>
<text text-anchor="middle" x="281.25" y="-5.75" font-family="Helvetica,sans-Serif" font-size="10.00">DIOSim.DIOSim</text>
</a>
</g>
</g>
<!-- Node1&#45;&gt;Node5 -->
<g id="edge4_Node000001_Node000005" class="edge">
<title>Node1&#45;&gt;Node5</title>
<g id="a_edge4_Node000001_Node000005"><a xlink:title=" ">
<path fill="none" stroke="#63b8ff" d="M384.74,-29.05C375.29,-27.78 365.63,-26.48 356.2,-25.21"/>
<polygon fill="#63b8ff" stroke="#63b8ff" points="384.27,-32.52 394.65,-30.38 385.2,-25.58 384.27,-32.52"/>
</a>
</g>
</g>
<!-- Node3 -->
<g id="Node000003" class="node">
<title>Node3</title>
<g id="a_Node000003"><a xlink:href="classedu_1_1wpi_1_1first_1_1wpilibj_1_1simulation_1_1_digital_p_w_m_sim.html#aefaa0a41be57827cf62b7a016aba05e2" target="_top" xlink:title=" ">
<polygon fill="white" stroke="#666666" points="166,-104.5 0,-104.5 0,-74 166,-74 166,-104.5"/>
<text text-anchor="start" x="8" y="-91" font-family="Helvetica,sans-Serif" font-size="10.00">edu.wpi.first.wpilibj.simulation.</text>
<text text-anchor="middle" x="83" y="-79.75" font-family="Helvetica,sans-Serif" font-size="10.00">DigitalPWMSim.createForChannel</text>
</a>
</g>
</g>
<!-- Node2&#45;&gt;Node3 -->
<g id="edge2_Node000002_Node000003" class="edge">
<title>Node2&#45;&gt;Node3</title>
<g id="a_edge2_Node000002_Node000003"><a xlink:title=" ">
<path fill="none" stroke="#63b8ff" d="M190.29,-75.71C182.28,-76.73 174.19,-77.76 166.24,-78.77"/>
<polygon fill="#63b8ff" stroke="#63b8ff" points="190.58,-79.2 200.06,-74.47 189.69,-72.26 190.58,-79.2"/>
</a>
</g>
</g>
<!-- Node4 -->
<g id="Node000004" class="node">
<title>Node4</title>
<g id="a_Node000004"><a xlink:href="classedu_1_1wpi_1_1first_1_1wpilibj_1_1simulation_1_1_digital_p_w_m_sim.html#af666d49e2daf1a9ef400e0af8b7dd49c" target="_top" xlink:title=" ">
<polygon fill="white" stroke="#666666" points="160,-55.5 6,-55.5 6,-25 160,-25 160,-55.5"/>
<text text-anchor="start" x="14" y="-42" font-family="Helvetica,sans-Serif" font-size="10.00">edu.wpi.first.wpilibj.simulation.</text>
<text text-anchor="middle" x="83" y="-30.75" font-family="Helvetica,sans-Serif" font-size="10.00">DigitalPWMSim.createForIndex</text>
</a>
</g>
</g>
<!-- Node2&#45;&gt;Node4 -->
<g id="edge3_Node000002_Node000004" class="edge">
<title>Node2&#45;&gt;Node4</title>
<g id="a_edge3_Node000002_Node000004"><a xlink:title=" ">
<path fill="none" stroke="#63b8ff" d="M190.36,-53.26C180.37,-52.04 170.27,-50.8 160.47,-49.6"/>
<polygon fill="#63b8ff" stroke="#63b8ff" points="189.71,-56.7 200.06,-54.44 190.55,-49.75 189.71,-56.7"/>
</a>
</g>
</g>
</g>
</svg>
