<?xml version="1.0" encoding="UTF-8" standalone="no"?>
<!DOCTYPE svg PUBLIC "-//W3C//DTD SVG 1.1//EN"
 "http://www.w3.org/Graphics/SVG/1.1/DTD/svg11.dtd">
<!-- Generated by graphviz version 9.0.0 (20230911.1827)
 -->
<!-- Title: edu.wpi.first.wpilibj.Joystick.getZ Pages: 1 -->
<svg width="514pt" height="106pt"
 viewBox="0.00 0.00 513.50 105.50" xmlns="http://www.w3.org/2000/svg" xmlns:xlink="http://www.w3.org/1999/xlink">
<g id="graph0" class="graph" transform="scale(1 1) rotate(0) translate(4 101.5)">
<title>edu.wpi.first.wpilibj.Joystick.getZ</title>
<!-- Node1 -->
<g id="Node000001" class="node">
<title>Node1</title>
<g id="a_Node000001"><a xlink:title=" ">
<polygon fill="#999999" stroke="#666666" points="161.5,-57.88 0,-57.88 0,-38.62 161.5,-38.62 161.5,-57.88"/>
<text text-anchor="middle" x="80.75" y="-44.38" font-family="Helvetica,sans-Serif" font-size="10.00">edu.wpi.first.wpilibj.Joystick.getZ</text>
</a>
</g>
</g>
<!-- Node2 -->
<g id="Node000002" class="node">
<title>Node2</title>
<g id="a_Node000002"><a xlink:href="classedu_1_1wpi_1_1first_1_1wpilibj_1_1_generic_h_i_d.html#a561e13532e9305a057a3b02cc655833c" target="_top" xlink:title=" ">
<polygon fill="white" stroke="#666666" points="333.5,-63.5 197.5,-63.5 197.5,-33 333.5,-33 333.5,-63.5"/>
<text text-anchor="start" x="205.5" y="-50" font-family="Helvetica,sans-Serif" font-size="10.00">edu.wpi.first.wpilibj.Generic</text>
<text text-anchor="middle" x="265.5" y="-38.75" font-family="Helvetica,sans-Serif" font-size="10.00">HID.getRawAxis</text>
</a>
</g>
</g>
<!-- Node1&#45;&gt;Node2 -->
<g id="edge1_Node000001_Node000002" class="edge">
<title>Node1&#45;&gt;Node2</title>
<g id="a_edge1_Node000001_Node000002"><a xlink:title=" ">
<path fill="none" stroke="#63b8ff" d="M161.91,-48.25C169.83,-48.25 177.87,-48.25 185.78,-48.25"/>
<polygon fill="#63b8ff" stroke="#63b8ff" points="185.74,-51.75 195.74,-48.25 185.74,-44.75 185.74,-51.75"/>
</a>
</g>
</g>
<!-- Node3 -->
<g id="Node000003" class="node">
<title>Node3</title>
<g id="a_Node000003"><a xlink:href="classedu_1_1wpi_1_1first_1_1wpilibj_1_1_driver_station.html#af9606114345715ee1577c2b0c66a070c" target="_top" xlink:title=" ">
<polygon fill="white" stroke="#666666" points="501.75,-97.5 373.25,-97.5 373.25,-67 501.75,-67 501.75,-97.5"/>
<text text-anchor="start" x="381.25" y="-84" font-family="Helvetica,sans-Serif" font-size="10.00">edu.wpi.first.wpilibj.Driver</text>
<text text-anchor="middle" x="437.5" y="-72.75" font-family="Helvetica,sans-Serif" font-size="10.00">Station.getStickAxis</text>
</a>
</g>
</g>
<!-- Node2&#45;&gt;Node3 -->
<g id="edge2_Node000002_Node000003" class="edge">
<title>Node2&#45;&gt;Node3</title>
<g id="a_edge2_Node000002_Node000003"><a xlink:title=" ">
<path fill="none" stroke="#63b8ff" d="M333.69,-61.69C342.86,-63.52 352.32,-65.41 361.62,-67.27"/>
<polygon fill="#63b8ff" stroke="#63b8ff" points="360.87,-70.69 371.36,-69.22 362.24,-63.83 360.87,-70.69"/>
</a>
</g>
</g>
<!-- Node4 -->
<g id="Node000004" class="node">
<title>Node4</title>
<g id="a_Node000004"><a xlink:href="classedu_1_1wpi_1_1first_1_1wpilibj_1_1_generic_h_i_d.html#af0b067c76cbb79f54d7f475e88fcfed2" target="_top" xlink:title=" ">
<polygon fill="white" stroke="#666666" points="505.5,-30.5 369.5,-30.5 369.5,0 505.5,0 505.5,-30.5"/>
<text text-anchor="start" x="377.5" y="-17" font-family="Helvetica,sans-Serif" font-size="10.00">edu.wpi.first.wpilibj.Generic</text>
<text text-anchor="middle" x="437.5" y="-5.75" font-family="Helvetica,sans-Serif" font-size="10.00">HID.pov</text>
</a>
</g>
</g>
<!-- Node2&#45;&gt;Node4 -->
<g id="edge3_Node000002_Node000004" class="edge">
<title>Node2&#45;&gt;Node4</title>
<g id="a_edge3_Node000002_Node000004"><a xlink:title=" ">
<path fill="none" stroke="#63b8ff" d="M333.69,-35.21C341.73,-33.65 349.99,-32.04 358.17,-30.46"/>
<polygon fill="#63b8ff" stroke="#63b8ff" points="358.61,-33.94 367.76,-28.59 357.27,-27.06 358.61,-33.94"/>
</a>
</g>
</g>
<!-- Node4&#45;&gt;Node4 -->
<g id="edge4_Node000004_Node000004" class="edge">
<title>Node4&#45;&gt;Node4</title>
<g id="a_edge4_Node000004_Node000004"><a xlink:title=" ">
<path fill="none" stroke="#63b8ff" d="M407.02,-30.99C400.8,-40.06 410.96,-48.5 437.5,-48.5 452.01,-48.5 461.63,-45.97 466.34,-42.2"/>
<polygon fill="#63b8ff" stroke="#63b8ff" points="469.78,-42.88 467.76,-32.48 462.86,-41.87 469.78,-42.88"/>
</a>
</g>
</g>
</g>
</svg>
