<?xml version="1.0" encoding="UTF-8" standalone="no"?>
<!DOCTYPE svg PUBLIC "-//W3C//DTD SVG 1.1//EN"
 "http://www.w3.org/Graphics/SVG/1.1/DTD/svg11.dtd">
<!-- Generated by graphviz version 9.0.0 (20230911.1827)
 -->
<!-- Title: edu.wpi.first.wpilibj.Counter.get Pages: 1 -->
<svg width="752pt" height="137pt"
 viewBox="0.00 0.00 751.50 136.50" xmlns="http://www.w3.org/2000/svg" xmlns:xlink="http://www.w3.org/1999/xlink">
<g id="graph0" class="graph" transform="scale(1 1) rotate(0) translate(4 132.5)">
<title>edu.wpi.first.wpilibj.Counter.get</title>
<!-- Node1 -->
<g id="Node000001" class="node">
<title>Node1</title>
<g id="a_Node000001"><a xlink:title=" ">
<polygon fill="#999999" stroke="#666666" points="743.5,-73.88 591,-73.88 591,-54.62 743.5,-54.62 743.5,-73.88"/>
<text text-anchor="middle" x="667.25" y="-60.38" font-family="Helvetica,sans-Serif" font-size="10.00">edu.wpi.first.wpilibj.Counter.get</text>
</a>
</g>
</g>
<!-- Node2 -->
<g id="Node000002" class="node">
<title>Node2</title>
<g id="a_Node000002"><a xlink:href="classedu_1_1wpi_1_1first_1_1wpilibj_1_1_analog_encoder.html#a8c16e04be49753f6ac9f2a8283885a95" target="_top" xlink:title=" ">
<polygon fill="white" stroke="#666666" points="542.62,-128.5 410.38,-128.5 410.38,-98 542.62,-98 542.62,-128.5"/>
<text text-anchor="start" x="418.38" y="-115" font-family="Helvetica,sans-Serif" font-size="10.00">edu.wpi.first.wpilibj.Analog</text>
<text text-anchor="middle" x="476.5" y="-103.75" font-family="Helvetica,sans-Serif" font-size="10.00">Encoder.get</text>
</a>
</g>
</g>
<!-- Node1&#45;&gt;Node2 -->
<g id="edge1_Node000001_Node000002" class="edge">
<title>Node1&#45;&gt;Node2</title>
<g id="a_edge1_Node000001_Node000002"><a xlink:title=" ">
<path fill="none" stroke="#63b8ff" d="M616.58,-77.15C592.5,-83.39 563.39,-90.95 538.03,-97.54"/>
<polygon fill="#63b8ff" stroke="#63b8ff" points="617.33,-80.56 626.13,-74.66 615.57,-73.79 617.33,-80.56"/>
</a>
</g>
</g>
<!-- Node3 -->
<g id="Node000003" class="node">
<title>Node3</title>
<g id="a_Node000003"><a xlink:href="classedu_1_1wpi_1_1first_1_1wpilibj_1_1_duty_cycle_encoder.html#ab24797f370bd529bc495a0cb9de23596" target="_top" xlink:title=" ">
<polygon fill="white" stroke="#666666" points="538.12,-79.5 414.88,-79.5 414.88,-49 538.12,-49 538.12,-79.5"/>
<text text-anchor="start" x="422.88" y="-66" font-family="Helvetica,sans-Serif" font-size="10.00">edu.wpi.first.wpilibj.Duty</text>
<text text-anchor="middle" x="476.5" y="-54.75" font-family="Helvetica,sans-Serif" font-size="10.00">CycleEncoder.get</text>
</a>
</g>
</g>
<!-- Node1&#45;&gt;Node3 -->
<g id="edge2_Node000001_Node000003" class="edge">
<title>Node1&#45;&gt;Node3</title>
<g id="a_edge2_Node000001_Node000003"><a xlink:title=" ">
<path fill="none" stroke="#63b8ff" d="M579.09,-64.25C565.34,-64.25 551.39,-64.25 538.41,-64.25"/>
<polygon fill="#63b8ff" stroke="#63b8ff" points="579.05,-67.75 589.05,-64.25 579.05,-60.75 579.05,-67.75"/>
</a>
</g>
</g>
<!-- Node4 -->
<g id="Node000004" class="node">
<title>Node4</title>
<g id="a_Node000004"><a xlink:href="classedu_1_1wpi_1_1first_1_1wpilibj_1_1_ultrasonic.html#ad152fff690704203242141d5350dd926" target="_top" xlink:title=" ">
<polygon fill="white" stroke="#666666" points="555,-30.5 398,-30.5 398,0 555,0 555,-30.5"/>
<text text-anchor="start" x="406" y="-17" font-family="Helvetica,sans-Serif" font-size="10.00">edu.wpi.first.wpilibj.Ultrasonic.is</text>
<text text-anchor="middle" x="476.5" y="-5.75" font-family="Helvetica,sans-Serif" font-size="10.00">RangeValid</text>
</a>
</g>
</g>
<!-- Node1&#45;&gt;Node4 -->
<g id="edge3_Node000001_Node000004" class="edge">
<title>Node1&#45;&gt;Node4</title>
<g id="a_edge3_Node000001_Node000004"><a xlink:title=" ">
<path fill="none" stroke="#63b8ff" d="M616.58,-51.35C592.5,-45.11 563.39,-37.55 538.03,-30.96"/>
<polygon fill="#63b8ff" stroke="#63b8ff" points="615.57,-54.71 626.13,-53.84 617.33,-47.94 615.57,-54.71"/>
</a>
</g>
</g>
<!-- Node5 -->
<g id="Node000005" class="node">
<title>Node5</title>
<g id="a_Node000005"><a xlink:href="classedu_1_1wpi_1_1first_1_1wpilibj_1_1_ultrasonic.html#a9a9aff88f201efda3935717cfa957b0a" target="_top" xlink:title=" ">
<polygon fill="white" stroke="#666666" points="362,-30.5 199,-30.5 199,0 362,0 362,-30.5"/>
<text text-anchor="start" x="207" y="-17" font-family="Helvetica,sans-Serif" font-size="10.00">edu.wpi.first.wpilibj.Ultrasonic.get</text>
<text text-anchor="middle" x="280.5" y="-5.75" font-family="Helvetica,sans-Serif" font-size="10.00">RangeInches</text>
</a>
</g>
</g>
<!-- Node4&#45;&gt;Node5 -->
<g id="edge4_Node000004_Node000005" class="edge">
<title>Node4&#45;&gt;Node5</title>
<g id="a_edge4_Node000004_Node000005"><a xlink:title=" ">
<path fill="none" stroke="#63b8ff" d="M386.2,-15.25C378.29,-15.25 370.31,-15.25 362.48,-15.25"/>
<polygon fill="#63b8ff" stroke="#63b8ff" points="386.2,-18.75 396.2,-15.25 386.2,-11.75 386.2,-18.75"/>
</a>
</g>
</g>
<!-- Node6 -->
<g id="Node000006" class="node">
<title>Node6</title>
<g id="a_Node000006"><a xlink:href="classedu_1_1wpi_1_1first_1_1wpilibj_1_1_ultrasonic.html#a207f300132f4f237d643faf9c3f75658" target="_top" xlink:title=" ">
<polygon fill="white" stroke="#666666" points="163,-30.5 0,-30.5 0,0 163,0 163,-30.5"/>
<text text-anchor="start" x="8" y="-17" font-family="Helvetica,sans-Serif" font-size="10.00">edu.wpi.first.wpilibj.Ultrasonic.get</text>
<text text-anchor="middle" x="81.5" y="-5.75" font-family="Helvetica,sans-Serif" font-size="10.00">RangeMM</text>
</a>
</g>
</g>
<!-- Node5&#45;&gt;Node6 -->
<g id="edge5_Node000005_Node000006" class="edge">
<title>Node5&#45;&gt;Node6</title>
<g id="a_edge5_Node000005_Node000006"><a xlink:title=" ">
<path fill="none" stroke="#63b8ff" d="M187.05,-15.25C179.18,-15.25 171.26,-15.25 163.48,-15.25"/>
<polygon fill="#63b8ff" stroke="#63b8ff" points="187.01,-18.75 197.01,-15.25 187.01,-11.75 187.01,-18.75"/>
</a>
</g>
</g>
</g>
</svg>
