<?xml version="1.0" encoding="UTF-8" standalone="no"?>
<!DOCTYPE svg PUBLIC "-//W3C//DTD SVG 1.1//EN"
 "http://www.w3.org/Graphics/SVG/1.1/DTD/svg11.dtd">
<!-- Generated by graphviz version 9.0.0 (20230911.1827)
 -->
<!-- Title: edu.wpi.first.wpilibj.drive.RobotDriveBase Pages: 1 -->
<svg width="460pt" height="88pt"
 viewBox="0.00 0.00 459.50 87.50" xmlns="http://www.w3.org/2000/svg" xmlns:xlink="http://www.w3.org/1999/xlink">
<g id="graph0" class="graph" transform="scale(1 1) rotate(0) translate(4 83.5)">
<title>edu.wpi.first.wpilibj.drive.RobotDriveBase</title>
<!-- Node1 -->
<g id="Node000001" class="node">
<title>Node1</title>
<g id="a_Node000001"><a xlink:title=" ">
<polygon fill="#999999" stroke="#666666" points="289.25,-54.5 163,-54.5 163,-24 289.25,-24 289.25,-54.5"/>
<text text-anchor="start" x="171" y="-41" font-family="Helvetica,sans-Serif" font-size="10.00">edu.wpi.first.wpilibj.drive.</text>
<text text-anchor="middle" x="226.12" y="-29.75" font-family="Helvetica,sans-Serif" font-size="10.00">RobotDriveBase</text>
</a>
</g>
</g>
<!-- Node3 -->
<g id="Node000003" class="node">
<title>Node3</title>
<g id="a_Node000003"><a xlink:href="classedu_1_1wpi_1_1first_1_1wpilibj_1_1drive_1_1_differential_drive.html" target="_top" xlink:title=" ">
<polygon fill="white" stroke="#666666" points="451.5,-79.5 325.25,-79.5 325.25,-49 451.5,-49 451.5,-79.5"/>
<text text-anchor="start" x="333.25" y="-66" font-family="Helvetica,sans-Serif" font-size="10.00">edu.wpi.first.wpilibj.drive.</text>
<text text-anchor="middle" x="388.38" y="-54.75" font-family="Helvetica,sans-Serif" font-size="10.00">DifferentialDrive</text>
</a>
</g>
</g>
<!-- Node1&#45;&gt;Node3 -->
<g id="edge2_Node000001_Node000003" class="edge">
<title>Node1&#45;&gt;Node3</title>
<g id="a_edge2_Node000001_Node000003"><a xlink:title=" ">
<path fill="none" stroke="#63b8ff" d="M300.81,-50.75C308.85,-52 316.98,-53.27 324.87,-54.5"/>
<polygon fill="#63b8ff" stroke="#63b8ff" points="301.46,-47.3 291.04,-49.22 300.38,-54.22 301.46,-47.3"/>
</a>
</g>
</g>
<!-- Node4 -->
<g id="Node000004" class="node">
<title>Node4</title>
<g id="a_Node000004"><a xlink:href="classedu_1_1wpi_1_1first_1_1wpilibj_1_1drive_1_1_mecanum_drive.html" target="_top" xlink:title=" ">
<polygon fill="white" stroke="#666666" points="451.5,-30.5 325.25,-30.5 325.25,0 451.5,0 451.5,-30.5"/>
<text text-anchor="start" x="333.25" y="-17" font-family="Helvetica,sans-Serif" font-size="10.00">edu.wpi.first.wpilibj.drive.</text>
<text text-anchor="middle" x="388.38" y="-5.75" font-family="Helvetica,sans-Serif" font-size="10.00">MecanumDrive</text>
</a>
</g>
</g>
<!-- Node1&#45;&gt;Node4 -->
<g id="edge3_Node000001_Node000004" class="edge">
<title>Node1&#45;&gt;Node4</title>
<g id="a_edge3_Node000001_Node000004"><a xlink:title=" ">
<path fill="none" stroke="#63b8ff" d="M300.81,-28.21C308.85,-27.01 316.98,-25.79 324.87,-24.61"/>
<polygon fill="#63b8ff" stroke="#63b8ff" points="300.41,-24.74 291.04,-29.68 301.45,-31.66 300.41,-24.74"/>
</a>
</g>
</g>
<!-- Node2 -->
<g id="Node000002" class="node">
<title>Node2</title>
<g id="a_Node000002"><a xlink:href="classedu_1_1wpi_1_1first_1_1wpilibj_1_1_motor_safety.html" target="_top" xlink:title=" ">
<polygon fill="white" stroke="#666666" points="127,-54.5 0,-54.5 0,-24 127,-24 127,-54.5"/>
<text text-anchor="start" x="8" y="-41" font-family="Helvetica,sans-Serif" font-size="10.00">edu.wpi.first.wpilibj.Motor</text>
<text text-anchor="middle" x="63.5" y="-29.75" font-family="Helvetica,sans-Serif" font-size="10.00">Safety</text>
</a>
</g>
</g>
<!-- Node2&#45;&gt;Node1 -->
<g id="edge1_Node000001_Node000002" class="edge">
<title>Node2&#45;&gt;Node1</title>
<g id="a_edge1_Node000001_Node000002"><a xlink:title=" ">
<path fill="none" stroke="#63b8ff" d="M138.45,-39.25C146.57,-39.25 154.77,-39.25 162.73,-39.25"/>
<polygon fill="#63b8ff" stroke="#63b8ff" points="138.58,-35.75 128.58,-39.25 138.58,-42.75 138.58,-35.75"/>
</a>
</g>
</g>
</g>
</svg>
