<?xml version="1.0" encoding="UTF-8" standalone="no"?>
<!DOCTYPE svg PUBLIC "-//W3C//DTD SVG 1.1//EN"
 "http://www.w3.org/Graphics/SVG/1.1/DTD/svg11.dtd">
<!-- Generated by graphviz version 9.0.0 (20230911.1827)
 -->
<!-- Title: edu.wpi.first.wpilibj.SerialPort.SerialPort Pages: 1 -->
<svg width="298pt" height="186pt"
 viewBox="0.00 0.00 298.00 185.50" xmlns="http://www.w3.org/2000/svg" xmlns:xlink="http://www.w3.org/1999/xlink">

<svg id="main" version="1.1" xmlns="http://www.w3.org/2000/svg" xmlns:xlink="http://www.w3.org/1999/xlink" xml:space="preserve" onload="init(evt)">
<style type="text/css"><![CDATA[
.node, .edge {opacity: 0.7;}
.node.selected, .edge.selected {opacity: 1;}
.edge:hover path { stroke: red; }
.edge:hover polygon { stroke: red; fill: red; }
]]></style>
<script type="application/ecmascript" xlink:href="svg.min.js"/>
<svg id="graph" class="graph">
<g id="graph0" class="graph" transform="scale(1 1) rotate(0) translate(4 181.5)">
<title>edu.wpi.first.wpilibj.SerialPort.SerialPort</title>
<!-- Node1 -->
<g id="Node000001" class="node">
<title>Node1</title>
<g id="a_Node000001"><a xlink:title=" ">
<polygon fill="#999999" stroke="#666666" points="127,-103.5 0,-103.5 0,-73 127,-73 127,-103.5"/>
<text text-anchor="start" x="8" y="-90" font-family="Helvetica,sans-Serif" font-size="10.00">edu.wpi.first.wpilibj.Serial</text>
<text text-anchor="middle" x="63.5" y="-78.75" font-family="Helvetica,sans-Serif" font-size="10.00">Port.SerialPort</text>
</a>
</g>
</g>
<!-- Node2 -->
<g id="Node000002" class="node">
<title>Node2</title>
<g id="a_Node000002"><a xlink:href="classedu_1_1wpi_1_1first_1_1wpilibj_1_1_serial_port.html#ac0742a96ae59ac5f83e7c01061c793f0" target="_top" xlink:title=" ">
<polygon fill="white" stroke="#666666" points="290,-177.5 163,-177.5 163,-147 290,-147 290,-177.5"/>
<text text-anchor="start" x="171" y="-164" font-family="Helvetica,sans-Serif" font-size="10.00">edu.wpi.first.wpilibj.Serial</text>
<text text-anchor="middle" x="226.5" y="-152.75" font-family="Helvetica,sans-Serif" font-size="10.00">Port.disableTermination</text>
</a>
</g>
</g>
<!-- Node1&#45;&gt;Node2 -->
<g id="edge1_Node000001_Node000002" class="edge">
<title>Node1&#45;&gt;Node2</title>
<g id="a_edge1_Node000001_Node000002"><a xlink:title=" ">
<path fill="none" stroke="#63b8ff" d="M94.37,-103.9C113.75,-113.85 139.64,-126.79 163,-137.25 166.74,-138.92 170.63,-140.61 174.55,-142.27"/>
<polygon fill="#63b8ff" stroke="#63b8ff" points="172.98,-145.41 183.56,-146.01 175.66,-138.94 172.98,-145.41"/>
</a>
</g>
</g>
<!-- Node3 -->
<g id="Node000003" class="node">
<title>Node3</title>
<g id="a_Node000003"><a xlink:href="classedu_1_1wpi_1_1first_1_1wpilibj_1_1_serial_port.html#a2d24e94c05d3489642f81e4f87008ffb" target="_top" xlink:title=" ">
<polygon fill="white" stroke="#666666" points="290,-128.5 163,-128.5 163,-98 290,-98 290,-128.5"/>
<text text-anchor="start" x="171" y="-115" font-family="Helvetica,sans-Serif" font-size="10.00">edu.wpi.first.wpilibj.Serial</text>
<text text-anchor="middle" x="226.5" y="-103.75" font-family="Helvetica,sans-Serif" font-size="10.00">Port.setReadBufferSize</text>
</a>
</g>
</g>
<!-- Node1&#45;&gt;Node3 -->
<g id="edge2_Node000001_Node000003" class="edge">
<title>Node1&#45;&gt;Node3</title>
<g id="a_edge2_Node000001_Node000003"><a xlink:title=" ">
<path fill="none" stroke="#63b8ff" d="M127.21,-97.99C135.13,-99.22 143.29,-100.48 151.37,-101.74"/>
<polygon fill="#63b8ff" stroke="#63b8ff" points="150.78,-105.19 161.2,-103.27 151.86,-98.27 150.78,-105.19"/>
</a>
</g>
</g>
<!-- Node4 -->
<g id="Node000004" class="node">
<title>Node4</title>
<g id="a_Node000004"><a xlink:href="classedu_1_1wpi_1_1first_1_1wpilibj_1_1_serial_port.html#ac0e925d8b4bcfc066e88e38b8a551d0b" target="_top" xlink:title=" ">
<polygon fill="white" stroke="#666666" points="290,-79.5 163,-79.5 163,-49 290,-49 290,-79.5"/>
<text text-anchor="start" x="171" y="-66" font-family="Helvetica,sans-Serif" font-size="10.00">edu.wpi.first.wpilibj.Serial</text>
<text text-anchor="middle" x="226.5" y="-54.75" font-family="Helvetica,sans-Serif" font-size="10.00">Port.setTimeout</text>
</a>
</g>
</g>
<!-- Node1&#45;&gt;Node4 -->
<g id="edge3_Node000001_Node000004" class="edge">
<title>Node1&#45;&gt;Node4</title>
<g id="a_edge3_Node000001_Node000004"><a xlink:title=" ">
<path fill="none" stroke="#63b8ff" d="M127.21,-78.9C135.13,-77.72 143.29,-76.5 151.37,-75.3"/>
<polygon fill="#63b8ff" stroke="#63b8ff" points="151.83,-78.77 161.2,-73.83 150.79,-71.85 151.83,-78.77"/>
</a>
</g>
</g>
<!-- Node5 -->
<g id="Node000005" class="node">
<title>Node5</title>
<g id="a_Node000005"><a xlink:href="classedu_1_1wpi_1_1first_1_1wpilibj_1_1_serial_port.html#a744ce25f55459d92f892ecde8ea24b78" target="_top" xlink:title=" ">
<polygon fill="white" stroke="#666666" points="290,-30.5 163,-30.5 163,0 290,0 290,-30.5"/>
<text text-anchor="start" x="171" y="-17" font-family="Helvetica,sans-Serif" font-size="10.00">edu.wpi.first.wpilibj.Serial</text>
<text text-anchor="middle" x="226.5" y="-5.75" font-family="Helvetica,sans-Serif" font-size="10.00">Port.setWriteBufferMode</text>
</a>
</g>
</g>
<!-- Node1&#45;&gt;Node5 -->
<g id="edge4_Node000001_Node000005" class="edge">
<title>Node1&#45;&gt;Node5</title>
<g id="a_edge4_Node000001_Node000005"><a xlink:title=" ">
<path fill="none" stroke="#63b8ff" d="M95.28,-72.53C114.57,-62.86 140.04,-50.42 163,-40.25 166.75,-38.59 170.64,-36.92 174.57,-35.26"/>
<polygon fill="#63b8ff" stroke="#63b8ff" points="175.67,-38.59 183.58,-31.54 173,-32.13 175.67,-38.59"/>
</a>
</g>
</g>
</g>
</svg>
</svg>

<style type='text/css'>
<![CDATA[
[data-mouse-over-selected='false'] { opacity: 0.7; }
[data-mouse-over-selected='true']  { opacity: 1.0; }
]]>
</style>
<script type="application/ecmascript"><![CDATA[
document.addEventListener('DOMContentLoaded', (event) => {
  highlightEdges();
  highlightAdjacentNodes();
});
]]></script>
</svg>
