<?xml version="1.0" encoding="UTF-8" standalone="no"?>
<!DOCTYPE svg PUBLIC "-//W3C//DTD SVG 1.1//EN"
 "http://www.w3.org/Graphics/SVG/1.1/DTD/svg11.dtd">
<!-- Generated by graphviz version 9.0.0 (20230911.1827)
 -->
<!-- Title: edu.wpi.first.wpilibj.SPI.stopAuto Pages: 1 -->
<svg width="357pt" height="88pt"
 viewBox="0.00 0.00 357.25 87.50" xmlns="http://www.w3.org/2000/svg" xmlns:xlink="http://www.w3.org/1999/xlink">
<g id="graph0" class="graph" transform="scale(1 1) rotate(0) translate(4 83.5)">
<title>edu.wpi.first.wpilibj.SPI.stopAuto</title>
<!-- Node1 -->
<g id="Node000001" class="node">
<title>Node1</title>
<g id="a_Node000001"><a xlink:title=" ">
<polygon fill="#999999" stroke="#666666" points="349.25,-48.88 188.5,-48.88 188.5,-29.62 349.25,-29.62 349.25,-48.88"/>
<text text-anchor="middle" x="268.88" y="-35.38" font-family="Helvetica,sans-Serif" font-size="10.00">edu.wpi.first.wpilibj.SPI.stopAuto</text>
</a>
</g>
</g>
<!-- Node2 -->
<g id="Node000002" class="node">
<title>Node2</title>
<g id="a_Node000002"><a xlink:href="classedu_1_1wpi_1_1first_1_1wpilibj_1_1_a_d_i_s16448___i_m_u.html#af22ebc0391dab16db4bd63f6c57ad56a" target="_top" xlink:title=" ">
<polygon fill="white" stroke="#666666" points="152.5,-79.5 0,-79.5 0,-49 152.5,-49 152.5,-79.5"/>
<text text-anchor="start" x="8" y="-66" font-family="Helvetica,sans-Serif" font-size="10.00">edu.wpi.first.wpilibj.ADIS16448</text>
<text text-anchor="middle" x="76.25" y="-54.75" font-family="Helvetica,sans-Serif" font-size="10.00">_IMU.close</text>
</a>
</g>
</g>
<!-- Node1&#45;&gt;Node2 -->
<g id="edge1_Node000001_Node000002" class="edge">
<title>Node1&#45;&gt;Node2</title>
<g id="a_edge1_Node000001_Node000002"><a xlink:title=" ">
<path fill="none" stroke="#63b8ff" d="M179.66,-50.82C170.74,-51.99 161.74,-53.17 152.97,-54.32"/>
<polygon fill="#63b8ff" stroke="#63b8ff" points="179.93,-54.31 189.39,-49.54 179.02,-47.37 179.93,-54.31"/>
</a>
</g>
</g>
<!-- Node3 -->
<g id="Node000003" class="node">
<title>Node3</title>
<g id="a_Node000003"><a xlink:href="classedu_1_1wpi_1_1first_1_1wpilibj_1_1_a_d_i_s16470___i_m_u.html#a0d5bf624f6b1add3629607c20aa6caa5" target="_top" xlink:title=" ">
<polygon fill="white" stroke="#666666" points="152.5,-30.5 0,-30.5 0,0 152.5,0 152.5,-30.5"/>
<text text-anchor="start" x="8" y="-17" font-family="Helvetica,sans-Serif" font-size="10.00">edu.wpi.first.wpilibj.ADIS16470</text>
<text text-anchor="middle" x="76.25" y="-5.75" font-family="Helvetica,sans-Serif" font-size="10.00">_IMU.close</text>
</a>
</g>
</g>
<!-- Node1&#45;&gt;Node3 -->
<g id="edge2_Node000001_Node000003" class="edge">
<title>Node1&#45;&gt;Node3</title>
<g id="a_edge2_Node000001_Node000003"><a xlink:title=" ">
<path fill="none" stroke="#63b8ff" d="M176.79,-27.78C168.72,-26.77 160.62,-25.75 152.71,-24.75"/>
<polygon fill="#63b8ff" stroke="#63b8ff" points="176.28,-31.25 186.64,-29.02 177.15,-24.3 176.28,-31.25"/>
</a>
</g>
</g>
</g>
</svg>
