<?xml version="1.0" encoding="UTF-8" standalone="no"?>
<!DOCTYPE svg PUBLIC "-//W3C//DTD SVG 1.1//EN"
 "http://www.w3.org/Graphics/SVG/1.1/DTD/svg11.dtd">
<!-- Generated by graphviz version 9.0.0 (20230911.1827)
 -->
<!-- Title: edu.wpi.first.wpilibj.XboxController.getYButton Pages: 1 -->
<svg width="649pt" height="106pt"
 viewBox="0.00 0.00 648.75 105.50" xmlns="http://www.w3.org/2000/svg" xmlns:xlink="http://www.w3.org/1999/xlink">
<g id="graph0" class="graph" transform="scale(1 1) rotate(0) translate(4 101.5)">
<title>edu.wpi.first.wpilibj.XboxController.getYButton</title>
<!-- Node1 -->
<g id="Node000001" class="node">
<title>Node1</title>
<g id="a_Node000001"><a xlink:title=" ">
<polygon fill="#999999" stroke="#666666" points="124.75,-79.5 0,-79.5 0,-49 124.75,-49 124.75,-79.5"/>
<text text-anchor="start" x="8" y="-66" font-family="Helvetica,sans-Serif" font-size="10.00">edu.wpi.first.wpilibj.Xbox</text>
<text text-anchor="middle" x="62.38" y="-54.75" font-family="Helvetica,sans-Serif" font-size="10.00">Controller.getYButton</text>
</a>
</g>
</g>
<!-- Node2 -->
<g id="Node000002" class="node">
<title>Node2</title>
<g id="a_Node000002"><a xlink:href="classedu_1_1wpi_1_1first_1_1wpilibj_1_1_generic_h_i_d.html#abdb0245e5cb7f7b92cc1060202821a2d" target="_top" xlink:title=" ">
<polygon fill="white" stroke="#666666" points="296.75,-79.5 160.75,-79.5 160.75,-49 296.75,-49 296.75,-79.5"/>
<text text-anchor="start" x="168.75" y="-66" font-family="Helvetica,sans-Serif" font-size="10.00">edu.wpi.first.wpilibj.Generic</text>
<text text-anchor="middle" x="228.75" y="-54.75" font-family="Helvetica,sans-Serif" font-size="10.00">HID.getRawButton</text>
</a>
</g>
</g>
<!-- Node1&#45;&gt;Node2 -->
<g id="edge1_Node000001_Node000002" class="edge">
<title>Node1&#45;&gt;Node2</title>
<g id="a_edge1_Node000001_Node000002"><a xlink:title=" ">
<path fill="none" stroke="#63b8ff" d="M125.05,-64.25C132.91,-64.25 141.04,-64.25 149.13,-64.25"/>
<polygon fill="#63b8ff" stroke="#63b8ff" points="148.98,-67.75 158.98,-64.25 148.98,-60.75 148.98,-67.75"/>
</a>
</g>
</g>
<!-- Node3 -->
<g id="Node000003" class="node">
<title>Node3</title>
<g id="a_Node000003"><a xlink:href="classedu_1_1wpi_1_1first_1_1wpilibj_1_1_generic_h_i_d.html#a77f3feaa9b70759aa7e26c20bec4bec2" target="_top" xlink:title=" ">
<polygon fill="white" stroke="#666666" points="468.75,-79.5 332.75,-79.5 332.75,-49 468.75,-49 468.75,-79.5"/>
<text text-anchor="start" x="340.75" y="-66" font-family="Helvetica,sans-Serif" font-size="10.00">edu.wpi.first.wpilibj.Generic</text>
<text text-anchor="middle" x="400.75" y="-54.75" font-family="Helvetica,sans-Serif" font-size="10.00">HID.button</text>
</a>
</g>
</g>
<!-- Node2&#45;&gt;Node3 -->
<g id="edge2_Node000002_Node000003" class="edge">
<title>Node2&#45;&gt;Node3</title>
<g id="a_edge2_Node000002_Node000003"><a xlink:title=" ">
<path fill="none" stroke="#63b8ff" d="M296.94,-57.63C304.89,-57.51 313.05,-57.47 321.14,-57.52"/>
<polygon fill="#63b8ff" stroke="#63b8ff" points="320.94,-61.02 330.98,-57.62 321.02,-54.02 320.94,-61.02"/>
</a>
</g>
</g>
<!-- Node5 -->
<g id="Node000005" class="node">
<title>Node5</title>
<g id="a_Node000005"><a xlink:href="classedu_1_1wpi_1_1first_1_1wpilibj_1_1_driver_station.html#a3d86d4b8414c05aafe18fc866d99ccab" target="_top" xlink:title=" ">
<polygon fill="white" stroke="#666666" points="465,-30.5 336.5,-30.5 336.5,0 465,0 465,-30.5"/>
<text text-anchor="start" x="344.5" y="-17" font-family="Helvetica,sans-Serif" font-size="10.00">edu.wpi.first.wpilibj.Driver</text>
<text text-anchor="middle" x="400.75" y="-5.75" font-family="Helvetica,sans-Serif" font-size="10.00">Station.getStickButton</text>
</a>
</g>
</g>
<!-- Node2&#45;&gt;Node5 -->
<g id="edge7_Node000002_Node000005" class="edge">
<title>Node2&#45;&gt;Node5</title>
<g id="a_edge7_Node000002_Node000005"><a xlink:title=" ">
<path fill="none" stroke="#63b8ff" d="M284.01,-48.61C300.03,-43.99 317.73,-38.89 334.38,-34.09"/>
<polygon fill="#63b8ff" stroke="#63b8ff" points="335.04,-37.54 343.68,-31.41 333.1,-30.82 335.04,-37.54"/>
</a>
</g>
</g>
<!-- Node3&#45;&gt;Node2 -->
<g id="edge4_Node000003_Node000002" class="edge">
<title>Node3&#45;&gt;Node2</title>
<g id="a_edge4_Node000003_Node000002"><a xlink:title=" ">
<path fill="none" stroke="#63b8ff" d="M332.49,-70.87C324.54,-70.99 316.38,-71.03 308.29,-70.98"/>
<polygon fill="#63b8ff" stroke="#63b8ff" points="308.49,-67.48 298.45,-70.88 308.42,-74.48 308.49,-67.48"/>
</a>
</g>
</g>
<!-- Node3&#45;&gt;Node3 -->
<g id="edge3_Node000003_Node000003" class="edge">
<title>Node3&#45;&gt;Node3</title>
<g id="a_edge3_Node000003_Node000003"><a xlink:title=" ">
<path fill="none" stroke="#63b8ff" d="M370.27,-79.99C364.05,-89.06 374.21,-97.5 400.75,-97.5 415.26,-97.5 424.88,-94.97 429.59,-91.2"/>
<polygon fill="#63b8ff" stroke="#63b8ff" points="433.03,-91.88 431.01,-81.48 426.11,-90.87 433.03,-91.88"/>
</a>
</g>
</g>
<!-- Node4 -->
<g id="Node000004" class="node">
<title>Node4</title>
<g id="a_Node000004"><a xlink:href="classedu_1_1wpi_1_1first_1_1wpilibj_1_1_generic_h_i_d.html#af0b067c76cbb79f54d7f475e88fcfed2" target="_top" xlink:title=" ">
<polygon fill="white" stroke="#666666" points="640.75,-79.5 504.75,-79.5 504.75,-49 640.75,-49 640.75,-79.5"/>
<text text-anchor="start" x="512.75" y="-66" font-family="Helvetica,sans-Serif" font-size="10.00">edu.wpi.first.wpilibj.Generic</text>
<text text-anchor="middle" x="572.75" y="-54.75" font-family="Helvetica,sans-Serif" font-size="10.00">HID.pov</text>
</a>
</g>
</g>
<!-- Node3&#45;&gt;Node4 -->
<g id="edge5_Node000003_Node000004" class="edge">
<title>Node3&#45;&gt;Node4</title>
<g id="a_edge5_Node000003_Node000004"><a xlink:title=" ">
<path fill="none" stroke="#63b8ff" d="M468.94,-64.25C476.89,-64.25 485.05,-64.25 493.14,-64.25"/>
<polygon fill="#63b8ff" stroke="#63b8ff" points="492.98,-67.75 502.98,-64.25 492.98,-60.75 492.98,-67.75"/>
</a>
</g>
</g>
<!-- Node4&#45;&gt;Node4 -->
<g id="edge6_Node000004_Node000004" class="edge">
<title>Node4&#45;&gt;Node4</title>
<g id="a_edge6_Node000004_Node000004"><a xlink:title=" ">
<path fill="none" stroke="#63b8ff" d="M542.27,-79.99C536.05,-89.06 546.21,-97.5 572.75,-97.5 587.26,-97.5 596.88,-94.97 601.59,-91.2"/>
<polygon fill="#63b8ff" stroke="#63b8ff" points="605.03,-91.88 603.01,-81.48 598.11,-90.87 605.03,-91.88"/>
</a>
</g>
</g>
</g>
</svg>
