<?xml version="1.0" encoding="UTF-8" standalone="no"?>
<!DOCTYPE svg PUBLIC "-//W3C//DTD SVG 1.1//EN"
 "http://www.w3.org/Graphics/SVG/1.1/DTD/svg11.dtd">
<!-- Generated by graphviz version 9.0.0 (20230911.1827)
 -->
<!-- Title: edu.wpi.first.wpilibj.sysid.SysIdRoutineLog.MotorLog.linearVelocity Pages: 1 -->
<svg width="684pt" height="62pt"
 viewBox="0.00 0.00 684.00 62.12" xmlns="http://www.w3.org/2000/svg" xmlns:xlink="http://www.w3.org/1999/xlink">
<g id="graph0" class="graph" transform="scale(1 1) rotate(0) translate(4 58.12)">
<title>edu.wpi.first.wpilibj.sysid.SysIdRoutineLog.MotorLog.linearVelocity</title>
<!-- Node1 -->
<g id="Node000001" class="node">
<title>Node1</title>
<g id="a_Node000001"><a xlink:title=" ">
<polygon fill="#999999" stroke="#666666" points="160.75,-41.75 0,-41.75 0,0 160.75,0 160.75,-41.75"/>
<text text-anchor="start" x="8" y="-28.25" font-family="Helvetica,sans-Serif" font-size="10.00">edu.wpi.first.wpilibj.sysid.</text>
<text text-anchor="start" x="8" y="-17" font-family="Helvetica,sans-Serif" font-size="10.00">SysIdRoutineLog.MotorLog.linear</text>
<text text-anchor="middle" x="80.38" y="-5.75" font-family="Helvetica,sans-Serif" font-size="10.00">Velocity</text>
</a>
</g>
</g>
<!-- Node2 -->
<g id="Node000002" class="node">
<title>Node2</title>
<g id="a_Node000002"><a xlink:href="classedu_1_1wpi_1_1first_1_1wpilibj_1_1sysid_1_1_sys_id_routine_log_1_1_motor_log.html#ad94eb9190fc67490eccef94c66e57796" target="_top" xlink:title=" ">
<polygon fill="white" stroke="#666666" points="357.5,-36.12 196.75,-36.12 196.75,-5.62 357.5,-5.62 357.5,-36.12"/>
<text text-anchor="start" x="204.75" y="-22.62" font-family="Helvetica,sans-Serif" font-size="10.00">edu.wpi.first.wpilibj.sysid.</text>
<text text-anchor="middle" x="277.12" y="-11.38" font-family="Helvetica,sans-Serif" font-size="10.00">SysIdRoutineLog.MotorLog.value</text>
</a>
</g>
</g>
<!-- Node1&#45;&gt;Node2 -->
<g id="edge1_Node000001_Node000002" class="edge">
<title>Node1&#45;&gt;Node2</title>
<g id="a_edge1_Node000001_Node000002"><a xlink:title=" ">
<path fill="none" stroke="#63b8ff" d="M161.15,-20.88C169.07,-20.88 177.16,-20.88 185.19,-20.88"/>
<polygon fill="#63b8ff" stroke="#63b8ff" points="184.96,-24.38 194.96,-20.88 184.96,-17.38 184.96,-24.38"/>
</a>
</g>
</g>
<!-- Node2&#45;&gt;Node2 -->
<g id="edge5_Node000002_Node000002" class="edge">
<title>Node2&#45;&gt;Node2</title>
<g id="a_edge5_Node000002_Node000002"><a xlink:title=" ">
<path fill="none" stroke="#63b8ff" d="M245.58,-36.61C239.15,-45.68 249.66,-54.12 277.12,-54.12 292.14,-54.12 302.1,-51.6 306.98,-47.83"/>
<polygon fill="#63b8ff" stroke="#63b8ff" points="310.41,-48.52 308.44,-38.11 303.49,-47.47 310.41,-48.52"/>
</a>
</g>
</g>
<!-- Node3 -->
<g id="Node000003" class="node">
<title>Node3</title>
<g id="a_Node000003"><a xlink:href="classedu_1_1wpi_1_1first_1_1wpilibj_1_1_data_log_manager.html#a4a1da47a520115917eaad1cb82a6e667" target="_top" xlink:title=" ">
<polygon fill="white" stroke="#666666" points="516.75,-36.12 393.5,-36.12 393.5,-5.62 516.75,-5.62 516.75,-36.12"/>
<text text-anchor="start" x="401.5" y="-22.62" font-family="Helvetica,sans-Serif" font-size="10.00">edu.wpi.first.wpilibj.Data</text>
<text text-anchor="middle" x="455.12" y="-11.38" font-family="Helvetica,sans-Serif" font-size="10.00">LogManager.getLog</text>
</a>
</g>
</g>
<!-- Node2&#45;&gt;Node3 -->
<g id="edge2_Node000002_Node000003" class="edge">
<title>Node2&#45;&gt;Node3</title>
<g id="a_edge2_Node000002_Node000003"><a xlink:title=" ">
<path fill="none" stroke="#63b8ff" d="M357.89,-20.88C365.83,-20.88 373.86,-20.88 381.73,-20.88"/>
<polygon fill="#63b8ff" stroke="#63b8ff" points="381.58,-24.38 391.58,-20.88 381.58,-17.38 381.58,-24.38"/>
</a>
</g>
</g>
<!-- Node4 -->
<g id="Node000004" class="node">
<title>Node4</title>
<g id="a_Node000004"><a xlink:href="classedu_1_1wpi_1_1first_1_1wpilibj_1_1_data_log_manager.html#abc3578ab5f29ed2c259cc53b594f39c6" target="_top" xlink:title=" ">
<polygon fill="white" stroke="#666666" points="676,-36.12 552.75,-36.12 552.75,-5.62 676,-5.62 676,-36.12"/>
<text text-anchor="start" x="560.75" y="-22.62" font-family="Helvetica,sans-Serif" font-size="10.00">edu.wpi.first.wpilibj.Data</text>
<text text-anchor="middle" x="614.38" y="-11.38" font-family="Helvetica,sans-Serif" font-size="10.00">LogManager.start</text>
</a>
</g>
</g>
<!-- Node3&#45;&gt;Node4 -->
<g id="edge3_Node000003_Node000004" class="edge">
<title>Node3&#45;&gt;Node4</title>
<g id="a_edge3_Node000003_Node000004"><a xlink:title=" ">
<path fill="none" stroke="#63b8ff" d="M516.92,-20.88C524.85,-20.88 533.04,-20.88 541.13,-20.88"/>
<polygon fill="#63b8ff" stroke="#63b8ff" points="540.97,-24.38 550.97,-20.88 540.97,-17.38 540.97,-24.38"/>
</a>
</g>
</g>
<!-- Node4&#45;&gt;Node4 -->
<g id="edge4_Node000004_Node000004" class="edge">
<title>Node4&#45;&gt;Node4</title>
<g id="a_edge4_Node000004_Node000004"><a xlink:title=" ">
<path fill="none" stroke="#63b8ff" d="M586.16,-36.61C580.4,-45.68 589.8,-54.12 614.38,-54.12 627.81,-54.12 636.71,-51.6 641.08,-47.83"/>
<polygon fill="#63b8ff" stroke="#63b8ff" points="644.52,-48.49 642.39,-38.11 637.59,-47.55 644.52,-48.49"/>
</a>
</g>
</g>
</g>
</svg>
