<?xml version="1.0" encoding="UTF-8" standalone="no"?>
<!DOCTYPE svg PUBLIC "-//W3C//DTD SVG 1.1//EN"
 "http://www.w3.org/Graphics/SVG/1.1/DTD/svg11.dtd">
<!-- Generated by graphviz version 9.0.0 (20230911.1827)
 -->
<!-- Title: edu.wpi.first.wpilibj.motorcontrol.PWMSparkFlex Pages: 1 -->
<!--zoomable 185 -->

<svg id="main" version="1.1" xmlns="http://www.w3.org/2000/svg" xmlns:xlink="http://www.w3.org/1999/xlink" xml:space="preserve" onload="init(evt)">
<style type="text/css"><![CDATA[
.node, .edge {opacity: 0.7;}
.node.selected, .edge.selected {opacity: 1;}
.edge:hover path { stroke: red; }
.edge:hover polygon { stroke: red; fill: red; }
]]></style>

<defs>
  <circle id="rim" cx="0" cy="0" r="7"/>
  <circle id="rim2" cx="0" cy="0" r="3.5"/>
  <g id="zoomPlus">
    <use xlink:href="#rim" fill="#404040"><set attributeName="fill" to="#808080" begin="zoomplus.mouseover" end="zoomplus.mouseout"/></use>
    <path d="M-4,0h8M0,-4v8" fill="none" stroke="white" stroke-width="1.5" pointer-events="none"/>
  </g>
  <g id="zoomMin">
    <use xlink:href="#rim" fill="#404040"><set attributeName="fill" to="#808080" begin="zoomminus.mouseover" end="zoomminus.mouseout"/></use>
    <path d="M-4,0h8" fill="none" stroke="white" stroke-width="1.5" pointer-events="none"/>
  </g>
  <g id="arrowUp" transform="translate(30 24)">
    <use xlink:href="#rim"/>
    <path pointer-events="none" fill="none" stroke="white" stroke-width="1.5" d="M0,-3.0v7 M-2.5,-0.5L0,-3.0L2.5,-0.5"/>
  </g>
  <g id="arrowRight" transform="rotate(90) translate(36 -43)">
    <use xlink:href="#rim"/>
    <path pointer-events="none" fill="none" stroke="white" stroke-width="1.5" d="M0,-3.0v7 M-2.5,-0.5L0,-3.0L2.5,-0.5"/>
  </g>
  <g id="arrowDown" transform="rotate(180) translate(-30 -48)">
    <use xlink:href="#rim"/>
    <path pointer-events="none" fill="none" stroke="white" stroke-width="1.5" d="M0,-3.0v7 M-2.5,-0.5L0,-3.0L2.5,-0.5"/>
  </g>
  <g id="arrowLeft" transform="rotate(270) translate(-36 17)">
    <use xlink:href="#rim"/>
    <path pointer-events="none" fill="none" stroke="white" stroke-width="1.5" d="M0,-3.0v7 M-2.5,-0.5L0,-3.0L2.5,-0.5"/>
  </g>
  <g id="resetDef">
    <use xlink:href="#rim2" fill="#404040"><set attributeName="fill" to="#808080" begin="reset.mouseover" end="reset.mouseout"/></use>
  </g>
</defs>
<script type="application/ecmascript">
var viewWidth = 713;
var viewHeight = 185;
var sectionId = 'dynsection-1';
</script>
<script type="application/ecmascript" xlink:href="svg.min.js"/>
<svg id="graph" class="graph">
<g id="viewport">
<title>edu.wpi.first.wpilibj.motorcontrol.PWMSparkFlex</title>
<!-- Node1 -->
<g id="Node000001" class="node">
<title>Node1</title>
<g id="a_Node000001"><a xlink:title=" ">
<polygon fill="#999999" stroke="#666666" points="705,-84.88 545.75,-84.88 545.75,-54.38 705,-54.38 705,-84.88"/>
<text text-anchor="start" x="553.75" y="-71.38" font-family="Helvetica,sans-Serif" font-size="10.00">edu.wpi.first.wpilibj.motorcontrol.</text>
<text text-anchor="middle" x="625.38" y="-60.12" font-family="Helvetica,sans-Serif" font-size="10.00">PWMSparkFlex</text>
</a>
</g>
</g>
<!-- Node2 -->
<g id="Node000002" class="node">
<title>Node2</title>
<g id="a_Node000002"><a xlink:href="classedu_1_1wpi_1_1first_1_1wpilibj_1_1motorcontrol_1_1_p_w_m_motor_controller.html" target="_top" xlink:title=" ">
<polygon fill="white" stroke="#666666" points="508.75,-84.88 349.5,-84.88 349.5,-54.38 508.75,-54.38 508.75,-84.88"/>
<text text-anchor="start" x="357.5" y="-71.38" font-family="Helvetica,sans-Serif" font-size="10.00">edu.wpi.first.wpilibj.motorcontrol.</text>
<text text-anchor="middle" x="429.12" y="-60.12" font-family="Helvetica,sans-Serif" font-size="10.00">PWMMotorController</text>
</a>
</g>
</g>
<!-- Node2&#45;&gt;Node1 -->
<g id="edge1_Node000001_Node000002" class="edge">
<title>Node2&#45;&gt;Node1</title>
<g id="a_edge1_Node000001_Node000002"><a xlink:title=" ">
<path fill="none" stroke="#63b8ff" d="M520.45,-69.62C528.79,-69.62 537.2,-69.62 545.44,-69.62"/>
<polygon fill="#63b8ff" stroke="#63b8ff" points="520.65,-66.13 510.65,-69.63 520.65,-73.13 520.65,-66.13"/>
</a>
</g>
</g>
<!-- Node3 -->
<g id="Node000003" class="node">
<title>Node3</title>
<g id="a_Node000003"><a xlink:href="classedu_1_1wpi_1_1first_1_1wpilibj_1_1_motor_safety.html" target="_top" xlink:title=" ">
<polygon fill="white" stroke="#666666" points="259.88,-176.88 132.88,-176.88 132.88,-146.38 259.88,-146.38 259.88,-176.88"/>
<text text-anchor="start" x="140.88" y="-163.38" font-family="Helvetica,sans-Serif" font-size="10.00">edu.wpi.first.wpilibj.Motor</text>
<text text-anchor="middle" x="196.38" y="-152.12" font-family="Helvetica,sans-Serif" font-size="10.00">Safety</text>
</a>
</g>
</g>
<!-- Node3&#45;&gt;Node2 -->
<g id="edge2_Node000002_Node000003" class="edge">
<title>Node3&#45;&gt;Node2</title>
<g id="a_edge2_Node000002_Node000003"><a xlink:title=" ">
<path fill="none" stroke="#63b8ff" d="M259.82,-142.45C265.32,-140.55 270.77,-138.6 276,-136.62 317.84,-120.81 364.78,-99.58 395.31,-85.3"/>
<polygon fill="#63b8ff" stroke="#63b8ff" points="259.04,-139.01 250.68,-145.52 261.27,-145.65 259.04,-139.01"/>
</a>
</g>
</g>
<!-- Node4 -->
<g id="Node000004" class="node">
<title>Node4</title>
<g id="a_Node000004"><a xlink:href="interfaceedu_1_1wpi_1_1first_1_1wpilibj_1_1motorcontrol_1_1_motor_controller.html" target="_top" xlink:title=" ">
<polygon fill="white" stroke="#666666" points="276,-127.88 116.75,-127.88 116.75,-97.38 276,-97.38 276,-127.88"/>
<text text-anchor="start" x="124.75" y="-114.38" font-family="Helvetica,sans-Serif" font-size="10.00">edu.wpi.first.wpilibj.motorcontrol.</text>
<text text-anchor="middle" x="196.38" y="-103.12" font-family="Helvetica,sans-Serif" font-size="10.00">MotorController</text>
</a>
</g>
</g>
<!-- Node4&#45;&gt;Node2 -->
<g id="edge3_Node000002_Node000004" class="edge">
<title>Node4&#45;&gt;Node2</title>
<g id="a_edge3_Node000002_Node000004"><a xlink:title=" ">
<path fill="none" stroke="#63b8ff" d="M287.62,-95.81C307.93,-92.02 329.33,-88.04 349.14,-84.34"/>
<polygon fill="#63b8ff" stroke="#63b8ff" points="287.14,-92.34 277.95,-97.61 288.42,-99.22 287.14,-92.34"/>
</a>
</g>
</g>
<!-- Node5 -->
<g id="Node000005" class="node">
<title>Node5</title>
<g id="a_Node000005"><a xlink:title=" ">
<polygon fill="white" stroke="#bfbfbf" points="68.12,-62.25 11.62,-62.25 11.62,-43 68.12,-43 68.12,-62.25"/>
<text text-anchor="middle" x="39.88" y="-48.75" font-family="Helvetica,sans-Serif" font-size="10.00">Sendable</text>
</a>
</g>
</g>
<!-- Node5&#45;&gt;Node2 -->
<g id="edge4_Node000002_Node000005" class="edge">
<title>Node5&#45;&gt;Node2</title>
<g id="a_edge4_Node000002_Node000005"><a xlink:title=" ">
<path fill="none" stroke="#63b8ff" d="M79.69,-54.73C85.74,-55.04 91.91,-55.35 97.75,-55.62 183.62,-59.71 282.08,-63.81 349.01,-66.5"/>
<polygon fill="#63b8ff" stroke="#63b8ff" points="80.04,-51.24 69.87,-54.21 79.67,-58.23 80.04,-51.24"/>
</a>
</g>
</g>
<!-- Node7 -->
<g id="Node000007" class="node">
<title>Node7</title>
<g id="a_Node000007"><a xlink:href="classedu_1_1wpi_1_1first_1_1wpilibj_1_1_p_w_m.html" target="_top" xlink:title=" ">
<polygon fill="white" stroke="#666666" points="259.88,-41.25 132.88,-41.25 132.88,-22 259.88,-22 259.88,-41.25"/>
<text text-anchor="middle" x="196.38" y="-27.75" font-family="Helvetica,sans-Serif" font-size="10.00">edu.wpi.first.wpilibj.PWM</text>
</a>
</g>
</g>
<!-- Node5&#45;&gt;Node7 -->
<g id="edge7_Node000007_Node000005" class="edge">
<title>Node5&#45;&gt;Node7</title>
<g id="a_edge7_Node000007_Node000005"><a xlink:title=" ">
<path fill="none" stroke="#63b8ff" d="M79.56,-47.37C95.56,-45.19 114.52,-42.62 132.42,-40.18"/>
<polygon fill="#63b8ff" stroke="#63b8ff" points="79.43,-43.85 70,-48.67 80.38,-50.79 79.43,-43.85"/>
</a>
</g>
</g>
<!-- Node6 -->
<g id="Node000006" class="node">
<title>Node6</title>
<g id="a_Node000006"><a xlink:title=" ">
<polygon fill="white" stroke="#bfbfbf" points="79.75,-19.25 0,-19.25 0,0 79.75,0 79.75,-19.25"/>
<text text-anchor="middle" x="39.88" y="-5.75" font-family="Helvetica,sans-Serif" font-size="10.00">AutoCloseable</text>
</a>
</g>
</g>
<!-- Node6&#45;&gt;Node2 -->
<g id="edge5_Node000002_Node000006" class="edge">
<title>Node6&#45;&gt;Node2</title>
<g id="a_edge5_Node000002_Node000006"><a xlink:title=" ">
<path fill="none" stroke="#63b8ff" d="M91.28,-5.29C139.23,-2.34 213.17,-0.83 276,-12.62 319.1,-20.72 365.97,-40.01 396.13,-53.91"/>
<polygon fill="#63b8ff" stroke="#63b8ff" points="91.23,-1.79 81.48,-5.95 91.69,-8.77 91.23,-1.79"/>
</a>
</g>
</g>
<!-- Node6&#45;&gt;Node7 -->
<g id="edge8_Node000007_Node000006" class="edge">
<title>Node6&#45;&gt;Node7</title>
<g id="a_edge8_Node000007_Node000006"><a xlink:title=" ">
<path fill="none" stroke="#63b8ff" d="M91.14,-16.78C104.39,-18.67 118.84,-20.73 132.65,-22.69"/>
<polygon fill="#63b8ff" stroke="#63b8ff" points="91.75,-13.33 81.36,-15.39 90.77,-20.26 91.75,-13.33"/>
</a>
</g>
</g>
<!-- Node7&#45;&gt;Node2 -->
<g id="edge6_Node000002_Node000007" class="edge">
<title>Node7&#45;&gt;Node2</title>
<g id="a_edge6_Node000002_Node000007"><a xlink:title=" ">
<path fill="none" stroke="#9a32cd" stroke-dasharray="5,2" d="M271.45,-36.52C291.06,-38.4 312.15,-40.95 331.5,-44.38 345.5,-46.85 360.44,-50.33 374.29,-53.92"/>
<polygon fill="#9a32cd" stroke="#9a32cd" points="271.88,-33.04 261.6,-35.62 271.24,-40.02 271.88,-33.04"/>
</a>
</g>
<text text-anchor="middle" x="312.75" y="-45.38" font-family="Helvetica,sans-Serif" font-size="10.00" fill="grey"> m_pwm</text>
</g>
</g>
</svg>

<g id="navigator" transform="translate(0 0)" fill="#404254">
  <rect fill="#f2f5e9" fill-opacity="0.5" stroke="#606060" stroke-width=".5" x="0" y="0" width="60" height="60"/>
  <use id="zoomplus" xlink:href="#zoomPlus" x="17" y="9" onmousedown="handleZoom(evt,'in')"/>
  <use id="zoomminus" xlink:href="#zoomMin" x="42" y="9" onmousedown="handleZoom(evt,'out')"/>
  <use id="reset" xlink:href="#resetDef" x="30" y="36" onmousedown="handleReset()"/>
   <use id="arrowup" xlink:href="#arrowUp" x="0" y="0" onmousedown="handlePan(0,-1)"/>
  <use id="arrowright" xlink:href="#arrowRight" x="0" y="0" onmousedown="handlePan(1,0)"/>
  <use id="arrowdown" xlink:href="#arrowDown" x="0" y="0" onmousedown="handlePan(0,1)"/>
  <use id="arrowleft" xlink:href="#arrowLeft" x="0" y="0" onmousedown="handlePan(-1,0)"/>
</g>
<svg viewBox="0 0 15 15" width="100%" height="30px" preserveAspectRatio="xMaxYMin meet">
 <g id="arrow_out" transform="scale(0.3 0.3)">
  <a xlink:href="classedu_1_1wpi_1_1first_1_1wpilibj_1_1motorcontrol_1_1_p_w_m_spark_flex__coll__graph_org.svg" target="_base">
   <rect id="button" ry="5" rx="5" y="6" x="6" height="38" width="38"
        fill="#f2f5e9" fill-opacity="0.5" stroke="#606060" stroke-width="1.0"/>
   <path id="arrow"
     d="M 11.500037,31.436501 C 11.940474,20.09759 22.043105,11.32322 32.158766,21.979434 L 37.068811,17.246167 C 37.068811,17.246167 37.088388,32 37.088388,32 L 22.160133,31.978069 C 22.160133,31.978069 26.997745,27.140456 26.997745,27.140456 C 18.528582,18.264221 13.291696,25.230495 11.500037,31.436501 z"
     style="fill:#404040;"/>
  </a>
 </g>
</svg>

<style type='text/css'>
<![CDATA[
[data-mouse-over-selected='false'] { opacity: 0.7; }
[data-mouse-over-selected='true']  { opacity: 1.0; }
]]>
</style>
<script type="application/ecmascript"><![CDATA[
document.addEventListener('DOMContentLoaded', (event) => {
  highlightEdges();
  highlightAdjacentNodes();
});
]]></script>
</svg>
