<?xml version="1.0" encoding="UTF-8" standalone="no"?>
<!DOCTYPE svg PUBLIC "-//W3C//DTD SVG 1.1//EN"
 "http://www.w3.org/Graphics/SVG/1.1/DTD/svg11.dtd">
<!-- Generated by graphviz version 9.0.0 (20230911.1827)
 -->
<!-- Title: edu.wpi.first.wpilibj.StadiaController.getRightStickButtonReleased Pages: 1 -->
<svg width="902pt" height="124pt"
 viewBox="0.00 0.00 901.75 123.50" xmlns="http://www.w3.org/2000/svg" xmlns:xlink="http://www.w3.org/1999/xlink">
<g id="graph0" class="graph" transform="scale(1 1) rotate(0) translate(4 119.5)">
<title>edu.wpi.first.wpilibj.StadiaController.getRightStickButtonReleased</title>
<!-- Node1 -->
<g id="Node000001" class="node">
<title>Node1</title>
<g id="a_Node000001"><a xlink:title=" ">
<polygon fill="#999999" stroke="#666666" points="189.25,-72.5 0,-72.5 0,-42 189.25,-42 189.25,-72.5"/>
<text text-anchor="start" x="8" y="-59" font-family="Helvetica,sans-Serif" font-size="10.00">edu.wpi.first.wpilibj.Stadia</text>
<text text-anchor="middle" x="94.62" y="-47.75" font-family="Helvetica,sans-Serif" font-size="10.00">Controller.getRightStickButtonReleased</text>
</a>
</g>
</g>
<!-- Node2 -->
<g id="Node000002" class="node">
<title>Node2</title>
<g id="a_Node000002"><a xlink:href="classedu_1_1wpi_1_1first_1_1wpilibj_1_1_generic_h_i_d.html#a2087699248ada770e00ea78b91b8fd01" target="_top" xlink:title=" ">
<polygon fill="white" stroke="#666666" points="365.75,-72.5 225.25,-72.5 225.25,-42 365.75,-42 365.75,-72.5"/>
<text text-anchor="start" x="233.25" y="-59" font-family="Helvetica,sans-Serif" font-size="10.00">edu.wpi.first.wpilibj.Generic</text>
<text text-anchor="middle" x="295.5" y="-47.75" font-family="Helvetica,sans-Serif" font-size="10.00">HID.getRawButtonReleased</text>
</a>
</g>
</g>
<!-- Node1&#45;&gt;Node2 -->
<g id="edge1_Node000001_Node000002" class="edge">
<title>Node1&#45;&gt;Node2</title>
<g id="a_edge1_Node000001_Node000002"><a xlink:title=" ">
<path fill="none" stroke="#63b8ff" d="M189.53,-57.25C197.5,-57.25 205.52,-57.25 213.39,-57.25"/>
<polygon fill="#63b8ff" stroke="#63b8ff" points="213.26,-60.75 223.26,-57.25 213.26,-53.75 213.26,-60.75"/>
</a>
</g>
</g>
<!-- Node3 -->
<g id="Node000003" class="node">
<title>Node3</title>
<g id="a_Node000003"><a xlink:href="classedu_1_1wpi_1_1first_1_1wpilibj_1_1_generic_h_i_d.html#a77f3feaa9b70759aa7e26c20bec4bec2" target="_top" xlink:title=" ">
<polygon fill="white" stroke="#666666" points="547.5,-97.5 411.5,-97.5 411.5,-67 547.5,-67 547.5,-97.5"/>
<text text-anchor="start" x="419.5" y="-84" font-family="Helvetica,sans-Serif" font-size="10.00">edu.wpi.first.wpilibj.Generic</text>
<text text-anchor="middle" x="479.5" y="-72.75" font-family="Helvetica,sans-Serif" font-size="10.00">HID.button</text>
</a>
</g>
</g>
<!-- Node2&#45;&gt;Node3 -->
<g id="edge2_Node000002_Node000003" class="edge">
<title>Node2&#45;&gt;Node3</title>
<g id="a_edge2_Node000002_Node000003"><a xlink:title=" ">
<path fill="none" stroke="#63b8ff" d="M366.09,-66.81C377.15,-68.33 388.66,-69.91 399.91,-71.46"/>
<polygon fill="#63b8ff" stroke="#63b8ff" points="399.17,-74.89 409.56,-72.78 400.12,-67.95 399.17,-74.89"/>
</a>
</g>
</g>
<!-- Node7 -->
<g id="Node000007" class="node">
<title>Node7</title>
<g id="a_Node000007"><a xlink:href="classedu_1_1wpi_1_1first_1_1wpilibj_1_1_driver_station.html#af7d67c20055e6730e05c8ed4483ea79a" target="_top" xlink:title=" ">
<polygon fill="white" stroke="#666666" points="557.25,-48.5 401.75,-48.5 401.75,-18 557.25,-18 557.25,-48.5"/>
<text text-anchor="start" x="409.75" y="-35" font-family="Helvetica,sans-Serif" font-size="10.00">edu.wpi.first.wpilibj.Driver</text>
<text text-anchor="middle" x="479.5" y="-23.75" font-family="Helvetica,sans-Serif" font-size="10.00">Station.getStickButtonReleased</text>
</a>
</g>
</g>
<!-- Node2&#45;&gt;Node7 -->
<g id="edge9_Node000002_Node000007" class="edge">
<title>Node2&#45;&gt;Node7</title>
<g id="a_edge9_Node000002_Node000007"><a xlink:title=" ">
<path fill="none" stroke="#63b8ff" d="M366.09,-48.07C373.93,-47.04 382,-45.98 390.04,-44.92"/>
<polygon fill="#63b8ff" stroke="#63b8ff" points="390.41,-48.4 399.87,-43.62 389.49,-41.46 390.41,-48.4"/>
</a>
</g>
</g>
<!-- Node3&#45;&gt;Node3 -->
<g id="edge3_Node000003_Node000003" class="edge">
<title>Node3&#45;&gt;Node3</title>
<g id="a_edge3_Node000003_Node000003"><a xlink:title=" ">
<path fill="none" stroke="#63b8ff" d="M447.29,-97.99C440.72,-107.06 451.46,-115.5 479.5,-115.5 494.84,-115.5 505,-112.97 509.98,-109.2"/>
<polygon fill="#63b8ff" stroke="#63b8ff" points="513.41,-109.9 511.48,-99.48 506.5,-108.83 513.41,-109.9"/>
</a>
</g>
</g>
<!-- Node4 -->
<g id="Node000004" class="node">
<title>Node4</title>
<g id="a_Node000004"><a xlink:href="classedu_1_1wpi_1_1first_1_1wpilibj_1_1_generic_h_i_d.html#abdb0245e5cb7f7b92cc1060202821a2d" target="_top" xlink:title=" ">
<polygon fill="white" stroke="#666666" points="729.25,-97.5 593.25,-97.5 593.25,-67 729.25,-67 729.25,-97.5"/>
<text text-anchor="start" x="601.25" y="-84" font-family="Helvetica,sans-Serif" font-size="10.00">edu.wpi.first.wpilibj.Generic</text>
<text text-anchor="middle" x="661.25" y="-72.75" font-family="Helvetica,sans-Serif" font-size="10.00">HID.getRawButton</text>
</a>
</g>
</g>
<!-- Node3&#45;&gt;Node4 -->
<g id="edge4_Node000003_Node000004" class="edge">
<title>Node3&#45;&gt;Node4</title>
<g id="a_edge4_Node000003_Node000004"><a xlink:title=" ">
<path fill="none" stroke="#63b8ff" d="M547.94,-75.69C559,-75.5 570.54,-75.45 581.84,-75.55"/>
<polygon fill="#63b8ff" stroke="#63b8ff" points="581.47,-79.04 591.51,-75.67 581.56,-72.05 581.47,-79.04"/>
</a>
</g>
</g>
<!-- Node6 -->
<g id="Node000006" class="node">
<title>Node6</title>
<g id="a_Node000006"><a xlink:href="classedu_1_1wpi_1_1first_1_1wpilibj_1_1_generic_h_i_d.html#af0b067c76cbb79f54d7f475e88fcfed2" target="_top" xlink:title=" ">
<polygon fill="white" stroke="#666666" points="729.25,-30.5 593.25,-30.5 593.25,0 729.25,0 729.25,-30.5"/>
<text text-anchor="start" x="601.25" y="-17" font-family="Helvetica,sans-Serif" font-size="10.00">edu.wpi.first.wpilibj.Generic</text>
<text text-anchor="middle" x="661.25" y="-5.75" font-family="Helvetica,sans-Serif" font-size="10.00">HID.pov</text>
</a>
</g>
</g>
<!-- Node3&#45;&gt;Node6 -->
<g id="edge7_Node000003_Node000006" class="edge">
<title>Node3&#45;&gt;Node6</title>
<g id="a_edge7_Node000003_Node000006"><a xlink:title=" ">
<path fill="none" stroke="#63b8ff" d="M530.22,-66.63C539.26,-63.63 548.56,-60.43 557.25,-57.25 575.72,-50.49 595.8,-42.46 613.28,-35.24"/>
<polygon fill="#63b8ff" stroke="#63b8ff" points="614.51,-38.52 622.4,-31.45 611.82,-32.05 614.51,-38.52"/>
</a>
</g>
</g>
<!-- Node4&#45;&gt;Node3 -->
<g id="edge5_Node000004_Node000003" class="edge">
<title>Node4&#45;&gt;Node3</title>
<g id="a_edge5_Node000004_Node000003"><a xlink:title=" ">
<path fill="none" stroke="#63b8ff" d="M593.03,-88.81C581.97,-89 570.43,-89.05 559.14,-88.95"/>
<polygon fill="#63b8ff" stroke="#63b8ff" points="559.5,-85.46 549.46,-88.83 559.41,-92.46 559.5,-85.46"/>
</a>
</g>
</g>
<!-- Node5 -->
<g id="Node000005" class="node">
<title>Node5</title>
<g id="a_Node000005"><a xlink:href="classedu_1_1wpi_1_1first_1_1wpilibj_1_1_driver_station.html#a3d86d4b8414c05aafe18fc866d99ccab" target="_top" xlink:title=" ">
<polygon fill="white" stroke="#666666" points="893.75,-97.5 765.25,-97.5 765.25,-67 893.75,-67 893.75,-97.5"/>
<text text-anchor="start" x="773.25" y="-84" font-family="Helvetica,sans-Serif" font-size="10.00">edu.wpi.first.wpilibj.Driver</text>
<text text-anchor="middle" x="829.5" y="-72.75" font-family="Helvetica,sans-Serif" font-size="10.00">Station.getStickButton</text>
</a>
</g>
</g>
<!-- Node4&#45;&gt;Node5 -->
<g id="edge6_Node000004_Node000005" class="edge">
<title>Node4&#45;&gt;Node5</title>
<g id="a_edge6_Node000004_Node000005"><a xlink:title=" ">
<path fill="none" stroke="#63b8ff" d="M729.39,-82.25C737.35,-82.25 745.52,-82.25 753.58,-82.25"/>
<polygon fill="#63b8ff" stroke="#63b8ff" points="753.37,-85.75 763.37,-82.25 753.37,-78.75 753.37,-85.75"/>
</a>
</g>
</g>
<!-- Node6&#45;&gt;Node6 -->
<g id="edge8_Node000006_Node000006" class="edge">
<title>Node6&#45;&gt;Node6</title>
<g id="a_edge8_Node000006_Node000006"><a xlink:title=" ">
<path fill="none" stroke="#63b8ff" d="M631.44,-30.99C625.35,-40.06 635.29,-48.5 661.25,-48.5 675.45,-48.5 684.85,-45.97 689.47,-42.2"/>
<polygon fill="#63b8ff" stroke="#63b8ff" points="692.9,-42.88 690.85,-32.48 685.97,-41.89 692.9,-42.88"/>
</a>
</g>
</g>
</g>
</svg>
