<?xml version="1.0" encoding="UTF-8" standalone="no"?>
<!DOCTYPE svg PUBLIC "-//W3C//DTD SVG 1.1//EN"
 "http://www.w3.org/Graphics/SVG/1.1/DTD/svg11.dtd">
<!-- Generated by graphviz version 9.0.0 (20230911.1827)
 -->
<!-- Title: edu.wpi.first.wpilibj.XboxController.getRightStickButtonReleased Pages: 1 -->
<svg width="861pt" height="124pt"
 viewBox="0.00 0.00 860.50 123.50" xmlns="http://www.w3.org/2000/svg" xmlns:xlink="http://www.w3.org/1999/xlink">
<g id="graph0" class="graph" transform="scale(1 1) rotate(0) translate(4 119.5)">
<title>edu.wpi.first.wpilibj.XboxController.getRightStickButtonReleased</title>
<!-- Node1 -->
<g id="Node000001" class="node">
<title>Node1</title>
<g id="a_Node000001"><a xlink:title=" ">
<polygon fill="#999999" stroke="#666666" points="148,-78.12 0,-78.12 0,-36.38 148,-36.38 148,-78.12"/>
<text text-anchor="start" x="8" y="-64.62" font-family="Helvetica,sans-Serif" font-size="10.00">edu.wpi.first.wpilibj.Xbox</text>
<text text-anchor="start" x="8" y="-53.38" font-family="Helvetica,sans-Serif" font-size="10.00">Controller.getRightStickButton</text>
<text text-anchor="middle" x="74" y="-42.12" font-family="Helvetica,sans-Serif" font-size="10.00">Released</text>
</a>
</g>
</g>
<!-- Node2 -->
<g id="Node000002" class="node">
<title>Node2</title>
<g id="a_Node000002"><a xlink:href="classedu_1_1wpi_1_1first_1_1wpilibj_1_1_generic_h_i_d.html#a2087699248ada770e00ea78b91b8fd01" target="_top" xlink:title=" ">
<polygon fill="white" stroke="#666666" points="324.5,-72.5 184,-72.5 184,-42 324.5,-42 324.5,-72.5"/>
<text text-anchor="start" x="192" y="-59" font-family="Helvetica,sans-Serif" font-size="10.00">edu.wpi.first.wpilibj.Generic</text>
<text text-anchor="middle" x="254.25" y="-47.75" font-family="Helvetica,sans-Serif" font-size="10.00">HID.getRawButtonReleased</text>
</a>
</g>
</g>
<!-- Node1&#45;&gt;Node2 -->
<g id="edge1_Node000001_Node000002" class="edge">
<title>Node1&#45;&gt;Node2</title>
<g id="a_edge1_Node000001_Node000002"><a xlink:title=" ">
<path fill="none" stroke="#63b8ff" d="M148.27,-57.25C156.24,-57.25 164.37,-57.25 172.42,-57.25"/>
<polygon fill="#63b8ff" stroke="#63b8ff" points="172.19,-60.75 182.19,-57.25 172.19,-53.75 172.19,-60.75"/>
</a>
</g>
</g>
<!-- Node3 -->
<g id="Node000003" class="node">
<title>Node3</title>
<g id="a_Node000003"><a xlink:href="classedu_1_1wpi_1_1first_1_1wpilibj_1_1_generic_h_i_d.html#a77f3feaa9b70759aa7e26c20bec4bec2" target="_top" xlink:title=" ">
<polygon fill="white" stroke="#666666" points="506.25,-97.5 370.25,-97.5 370.25,-67 506.25,-67 506.25,-97.5"/>
<text text-anchor="start" x="378.25" y="-84" font-family="Helvetica,sans-Serif" font-size="10.00">edu.wpi.first.wpilibj.Generic</text>
<text text-anchor="middle" x="438.25" y="-72.75" font-family="Helvetica,sans-Serif" font-size="10.00">HID.button</text>
</a>
</g>
</g>
<!-- Node2&#45;&gt;Node3 -->
<g id="edge2_Node000002_Node000003" class="edge">
<title>Node2&#45;&gt;Node3</title>
<g id="a_edge2_Node000002_Node000003"><a xlink:title=" ">
<path fill="none" stroke="#63b8ff" d="M324.84,-66.81C335.9,-68.33 347.41,-69.91 358.66,-71.46"/>
<polygon fill="#63b8ff" stroke="#63b8ff" points="357.92,-74.89 368.31,-72.78 358.87,-67.95 357.92,-74.89"/>
</a>
</g>
</g>
<!-- Node7 -->
<g id="Node000007" class="node">
<title>Node7</title>
<g id="a_Node000007"><a xlink:href="classedu_1_1wpi_1_1first_1_1wpilibj_1_1_driver_station.html#af7d67c20055e6730e05c8ed4483ea79a" target="_top" xlink:title=" ">
<polygon fill="white" stroke="#666666" points="516,-48.5 360.5,-48.5 360.5,-18 516,-18 516,-48.5"/>
<text text-anchor="start" x="368.5" y="-35" font-family="Helvetica,sans-Serif" font-size="10.00">edu.wpi.first.wpilibj.Driver</text>
<text text-anchor="middle" x="438.25" y="-23.75" font-family="Helvetica,sans-Serif" font-size="10.00">Station.getStickButtonReleased</text>
</a>
</g>
</g>
<!-- Node2&#45;&gt;Node7 -->
<g id="edge9_Node000002_Node000007" class="edge">
<title>Node2&#45;&gt;Node7</title>
<g id="a_edge9_Node000002_Node000007"><a xlink:title=" ">
<path fill="none" stroke="#63b8ff" d="M324.84,-48.07C332.68,-47.04 340.75,-45.98 348.79,-44.92"/>
<polygon fill="#63b8ff" stroke="#63b8ff" points="349.16,-48.4 358.62,-43.62 348.24,-41.46 349.16,-48.4"/>
</a>
</g>
</g>
<!-- Node3&#45;&gt;Node3 -->
<g id="edge3_Node000003_Node000003" class="edge">
<title>Node3&#45;&gt;Node3</title>
<g id="a_edge3_Node000003_Node000003"><a xlink:title=" ">
<path fill="none" stroke="#63b8ff" d="M406.04,-97.99C399.47,-107.06 410.21,-115.5 438.25,-115.5 453.59,-115.5 463.75,-112.97 468.73,-109.2"/>
<polygon fill="#63b8ff" stroke="#63b8ff" points="472.16,-109.9 470.23,-99.48 465.25,-108.83 472.16,-109.9"/>
</a>
</g>
</g>
<!-- Node4 -->
<g id="Node000004" class="node">
<title>Node4</title>
<g id="a_Node000004"><a xlink:href="classedu_1_1wpi_1_1first_1_1wpilibj_1_1_generic_h_i_d.html#abdb0245e5cb7f7b92cc1060202821a2d" target="_top" xlink:title=" ">
<polygon fill="white" stroke="#666666" points="688,-97.5 552,-97.5 552,-67 688,-67 688,-97.5"/>
<text text-anchor="start" x="560" y="-84" font-family="Helvetica,sans-Serif" font-size="10.00">edu.wpi.first.wpilibj.Generic</text>
<text text-anchor="middle" x="620" y="-72.75" font-family="Helvetica,sans-Serif" font-size="10.00">HID.getRawButton</text>
</a>
</g>
</g>
<!-- Node3&#45;&gt;Node4 -->
<g id="edge4_Node000003_Node000004" class="edge">
<title>Node3&#45;&gt;Node4</title>
<g id="a_edge4_Node000003_Node000004"><a xlink:title=" ">
<path fill="none" stroke="#63b8ff" d="M506.69,-75.69C517.75,-75.5 529.29,-75.45 540.59,-75.55"/>
<polygon fill="#63b8ff" stroke="#63b8ff" points="540.22,-79.04 550.26,-75.67 540.31,-72.05 540.22,-79.04"/>
</a>
</g>
</g>
<!-- Node6 -->
<g id="Node000006" class="node">
<title>Node6</title>
<g id="a_Node000006"><a xlink:href="classedu_1_1wpi_1_1first_1_1wpilibj_1_1_generic_h_i_d.html#af0b067c76cbb79f54d7f475e88fcfed2" target="_top" xlink:title=" ">
<polygon fill="white" stroke="#666666" points="688,-30.5 552,-30.5 552,0 688,0 688,-30.5"/>
<text text-anchor="start" x="560" y="-17" font-family="Helvetica,sans-Serif" font-size="10.00">edu.wpi.first.wpilibj.Generic</text>
<text text-anchor="middle" x="620" y="-5.75" font-family="Helvetica,sans-Serif" font-size="10.00">HID.pov</text>
</a>
</g>
</g>
<!-- Node3&#45;&gt;Node6 -->
<g id="edge7_Node000003_Node000006" class="edge">
<title>Node3&#45;&gt;Node6</title>
<g id="a_edge7_Node000003_Node000006"><a xlink:title=" ">
<path fill="none" stroke="#63b8ff" d="M488.97,-66.63C498.01,-63.63 507.31,-60.43 516,-57.25 534.47,-50.49 554.55,-42.46 572.03,-35.24"/>
<polygon fill="#63b8ff" stroke="#63b8ff" points="573.26,-38.52 581.15,-31.45 570.57,-32.05 573.26,-38.52"/>
</a>
</g>
</g>
<!-- Node4&#45;&gt;Node3 -->
<g id="edge5_Node000004_Node000003" class="edge">
<title>Node4&#45;&gt;Node3</title>
<g id="a_edge5_Node000004_Node000003"><a xlink:title=" ">
<path fill="none" stroke="#63b8ff" d="M551.78,-88.81C540.72,-89 529.18,-89.05 517.89,-88.95"/>
<polygon fill="#63b8ff" stroke="#63b8ff" points="518.25,-85.46 508.21,-88.83 518.16,-92.46 518.25,-85.46"/>
</a>
</g>
</g>
<!-- Node5 -->
<g id="Node000005" class="node">
<title>Node5</title>
<g id="a_Node000005"><a xlink:href="classedu_1_1wpi_1_1first_1_1wpilibj_1_1_driver_station.html#a3d86d4b8414c05aafe18fc866d99ccab" target="_top" xlink:title=" ">
<polygon fill="white" stroke="#666666" points="852.5,-97.5 724,-97.5 724,-67 852.5,-67 852.5,-97.5"/>
<text text-anchor="start" x="732" y="-84" font-family="Helvetica,sans-Serif" font-size="10.00">edu.wpi.first.wpilibj.Driver</text>
<text text-anchor="middle" x="788.25" y="-72.75" font-family="Helvetica,sans-Serif" font-size="10.00">Station.getStickButton</text>
</a>
</g>
</g>
<!-- Node4&#45;&gt;Node5 -->
<g id="edge6_Node000004_Node000005" class="edge">
<title>Node4&#45;&gt;Node5</title>
<g id="a_edge6_Node000004_Node000005"><a xlink:title=" ">
<path fill="none" stroke="#63b8ff" d="M688.14,-82.25C696.1,-82.25 704.27,-82.25 712.33,-82.25"/>
<polygon fill="#63b8ff" stroke="#63b8ff" points="712.12,-85.75 722.12,-82.25 712.12,-78.75 712.12,-85.75"/>
</a>
</g>
</g>
<!-- Node6&#45;&gt;Node6 -->
<g id="edge8_Node000006_Node000006" class="edge">
<title>Node6&#45;&gt;Node6</title>
<g id="a_edge8_Node000006_Node000006"><a xlink:title=" ">
<path fill="none" stroke="#63b8ff" d="M590.19,-30.99C584.1,-40.06 594.04,-48.5 620,-48.5 634.2,-48.5 643.6,-45.97 648.22,-42.2"/>
<polygon fill="#63b8ff" stroke="#63b8ff" points="651.65,-42.88 649.6,-32.48 644.72,-41.89 651.65,-42.88"/>
</a>
</g>
</g>
</g>
</svg>
