<?xml version="1.0" encoding="UTF-8" standalone="no"?>
<!DOCTYPE svg PUBLIC "-//W3C//DTD SVG 1.1//EN"
 "http://www.w3.org/Graphics/SVG/1.1/DTD/svg11.dtd">
<!-- Generated by graphviz version 9.0.0 (20230911.1827)
 -->
<!-- Title: edu.wpi.first.wpilibj.smartdashboard.Field2d.Field2d Pages: 1 -->
<svg width="605pt" height="39pt"
 viewBox="0.00 0.00 605.00 38.50" xmlns="http://www.w3.org/2000/svg" xmlns:xlink="http://www.w3.org/1999/xlink">
<g id="graph0" class="graph" transform="scale(1 1) rotate(0) translate(4 34.5)">
<title>edu.wpi.first.wpilibj.smartdashboard.Field2d.Field2d</title>
<!-- Node1 -->
<g id="Node000001" class="node">
<title>Node1</title>
<g id="a_Node000001"><a xlink:title=" ">
<polygon fill="#999999" stroke="#666666" points="175,-30.5 0,-30.5 0,0 175,0 175,-30.5"/>
<text text-anchor="start" x="8" y="-17" font-family="Helvetica,sans-Serif" font-size="10.00">edu.wpi.first.wpilibj.smartdashboard.</text>
<text text-anchor="middle" x="87.5" y="-5.75" font-family="Helvetica,sans-Serif" font-size="10.00">Field2d.Field2d</text>
</a>
</g>
</g>
<!-- Node2 -->
<g id="Node000002" class="node">
<title>Node2</title>
<g id="a_Node000002"><a xlink:href="classedu_1_1wpi_1_1first_1_1wpilibj_1_1smartdashboard_1_1_field_object2d.html#abe040c083a1ae04077c892d73a747c25" target="_top" xlink:title=" ">
<polygon fill="white" stroke="#666666" points="386,-30.5 211,-30.5 211,0 386,0 386,-30.5"/>
<text text-anchor="start" x="219" y="-17" font-family="Helvetica,sans-Serif" font-size="10.00">edu.wpi.first.wpilibj.smartdashboard.</text>
<text text-anchor="middle" x="298.5" y="-5.75" font-family="Helvetica,sans-Serif" font-size="10.00">FieldObject2d.setPose</text>
</a>
</g>
</g>
<!-- Node1&#45;&gt;Node2 -->
<g id="edge1_Node000001_Node000002" class="edge">
<title>Node1&#45;&gt;Node2</title>
<g id="a_edge1_Node000001_Node000002"><a xlink:title=" ">
<path fill="none" stroke="#63b8ff" d="M175.32,-15.25C183.25,-15.25 191.31,-15.25 199.33,-15.25"/>
<polygon fill="#63b8ff" stroke="#63b8ff" points="199.1,-18.75 209.1,-15.25 199.1,-11.75 199.1,-18.75"/>
</a>
</g>
</g>
<!-- Node3 -->
<g id="Node000003" class="node">
<title>Node3</title>
<g id="a_Node000003"><a xlink:href="classedu_1_1wpi_1_1first_1_1wpilibj_1_1smartdashboard_1_1_field_object2d.html#a96ef03fc2870ee99b264a56b753a8b56" target="_top" xlink:title=" ">
<polygon fill="white" stroke="#666666" points="597,-30.5 422,-30.5 422,0 597,0 597,-30.5"/>
<text text-anchor="start" x="430" y="-17" font-family="Helvetica,sans-Serif" font-size="10.00">edu.wpi.first.wpilibj.smartdashboard.</text>
<text text-anchor="middle" x="509.5" y="-5.75" font-family="Helvetica,sans-Serif" font-size="10.00">FieldObject2d.setPoses</text>
</a>
</g>
</g>
<!-- Node2&#45;&gt;Node3 -->
<g id="edge2_Node000002_Node000003" class="edge">
<title>Node2&#45;&gt;Node3</title>
<g id="a_edge2_Node000002_Node000003"><a xlink:title=" ">
<path fill="none" stroke="#63b8ff" d="M386.32,-15.25C394.25,-15.25 402.31,-15.25 410.33,-15.25"/>
<polygon fill="#63b8ff" stroke="#63b8ff" points="410.1,-18.75 420.1,-15.25 410.1,-11.75 410.1,-18.75"/>
</a>
</g>
</g>
</g>
</svg>
