<?xml version="1.0" encoding="UTF-8" standalone="no"?>
<!DOCTYPE svg PUBLIC "-//W3C//DTD SVG 1.1//EN"
 "http://www.w3.org/Graphics/SVG/1.1/DTD/svg11.dtd">
<!-- Generated by graphviz version 9.0.0 (20230911.1827)
 -->
<!-- Title: edu.wpi.first.wpilibj.Joystick.getTopPressed Pages: 1 -->
<svg width="858pt" height="124pt"
 viewBox="0.00 0.00 858.25 123.50" xmlns="http://www.w3.org/2000/svg" xmlns:xlink="http://www.w3.org/1999/xlink">
<g id="graph0" class="graph" transform="scale(1 1) rotate(0) translate(4 119.5)">
<title>edu.wpi.first.wpilibj.Joystick.getTopPressed</title>
<!-- Node1 -->
<g id="Node000001" class="node">
<title>Node1</title>
<g id="a_Node000001"><a xlink:title=" ">
<polygon fill="#999999" stroke="#666666" points="155.5,-72.5 0,-72.5 0,-42 155.5,-42 155.5,-72.5"/>
<text text-anchor="start" x="8" y="-59" font-family="Helvetica,sans-Serif" font-size="10.00">edu.wpi.first.wpilibj.Joystick.get</text>
<text text-anchor="middle" x="77.75" y="-47.75" font-family="Helvetica,sans-Serif" font-size="10.00">TopPressed</text>
</a>
</g>
</g>
<!-- Node2 -->
<g id="Node000002" class="node">
<title>Node2</title>
<g id="a_Node000002"><a xlink:href="classedu_1_1wpi_1_1first_1_1wpilibj_1_1_generic_h_i_d.html#a097c775f0ef764796523a65f8f3b688d" target="_top" xlink:title=" ">
<polygon fill="white" stroke="#666666" points="327.5,-72.5 191.5,-72.5 191.5,-42 327.5,-42 327.5,-72.5"/>
<text text-anchor="start" x="199.5" y="-59" font-family="Helvetica,sans-Serif" font-size="10.00">edu.wpi.first.wpilibj.Generic</text>
<text text-anchor="middle" x="259.5" y="-47.75" font-family="Helvetica,sans-Serif" font-size="10.00">HID.getRawButtonPressed</text>
</a>
</g>
</g>
<!-- Node1&#45;&gt;Node2 -->
<g id="edge1_Node000001_Node000002" class="edge">
<title>Node1&#45;&gt;Node2</title>
<g id="a_edge1_Node000001_Node000002"><a xlink:title=" ">
<path fill="none" stroke="#63b8ff" d="M155.76,-57.25C163.79,-57.25 171.96,-57.25 180.01,-57.25"/>
<polygon fill="#63b8ff" stroke="#63b8ff" points="179.76,-60.75 189.76,-57.25 179.76,-53.75 179.76,-60.75"/>
</a>
</g>
</g>
<!-- Node3 -->
<g id="Node000003" class="node">
<title>Node3</title>
<g id="a_Node000003"><a xlink:href="classedu_1_1wpi_1_1first_1_1wpilibj_1_1_generic_h_i_d.html#a77f3feaa9b70759aa7e26c20bec4bec2" target="_top" xlink:title=" ">
<polygon fill="white" stroke="#666666" points="506.62,-97.5 370.62,-97.5 370.62,-67 506.62,-67 506.62,-97.5"/>
<text text-anchor="start" x="378.62" y="-84" font-family="Helvetica,sans-Serif" font-size="10.00">edu.wpi.first.wpilibj.Generic</text>
<text text-anchor="middle" x="438.62" y="-72.75" font-family="Helvetica,sans-Serif" font-size="10.00">HID.button</text>
</a>
</g>
</g>
<!-- Node2&#45;&gt;Node3 -->
<g id="edge2_Node000002_Node000003" class="edge">
<title>Node2&#45;&gt;Node3</title>
<g id="a_edge2_Node000002_Node000003"><a xlink:title=" ">
<path fill="none" stroke="#63b8ff" d="M327.97,-66.77C338.16,-68.21 348.75,-69.71 359.16,-71.17"/>
<polygon fill="#63b8ff" stroke="#63b8ff" points="358.45,-74.61 368.85,-72.54 359.43,-67.68 358.45,-74.61"/>
</a>
</g>
</g>
<!-- Node7 -->
<g id="Node000007" class="node">
<title>Node7</title>
<g id="a_Node000007"><a xlink:href="classedu_1_1wpi_1_1first_1_1wpilibj_1_1_driver_station.html#acb9b90660a171dbd6a9b9717f0213f92" target="_top" xlink:title=" ">
<polygon fill="white" stroke="#666666" points="513.75,-48.5 363.5,-48.5 363.5,-18 513.75,-18 513.75,-48.5"/>
<text text-anchor="start" x="371.5" y="-35" font-family="Helvetica,sans-Serif" font-size="10.00">edu.wpi.first.wpilibj.Driver</text>
<text text-anchor="middle" x="438.62" y="-23.75" font-family="Helvetica,sans-Serif" font-size="10.00">Station.getStickButtonPressed</text>
</a>
</g>
</g>
<!-- Node2&#45;&gt;Node7 -->
<g id="edge9_Node000002_Node000007" class="edge">
<title>Node2&#45;&gt;Node7</title>
<g id="a_edge9_Node000002_Node000007"><a xlink:title=" ">
<path fill="none" stroke="#63b8ff" d="M327.97,-48.11C335.81,-47.05 343.88,-45.95 351.93,-44.86"/>
<polygon fill="#63b8ff" stroke="#63b8ff" points="352.31,-48.34 361.75,-43.53 351.37,-41.41 352.31,-48.34"/>
</a>
</g>
</g>
<!-- Node3&#45;&gt;Node3 -->
<g id="edge3_Node000003_Node000003" class="edge">
<title>Node3&#45;&gt;Node3</title>
<g id="a_edge3_Node000003_Node000003"><a xlink:title=" ">
<path fill="none" stroke="#63b8ff" d="M406.88,-97.99C400.41,-107.06 410.99,-115.5 438.62,-115.5 453.74,-115.5 463.75,-112.97 468.66,-109.2"/>
<polygon fill="#63b8ff" stroke="#63b8ff" points="472.1,-109.89 470.14,-99.48 465.18,-108.84 472.1,-109.89"/>
</a>
</g>
</g>
<!-- Node4 -->
<g id="Node000004" class="node">
<title>Node4</title>
<g id="a_Node000004"><a xlink:href="classedu_1_1wpi_1_1first_1_1wpilibj_1_1_generic_h_i_d.html#abdb0245e5cb7f7b92cc1060202821a2d" target="_top" xlink:title=" ">
<polygon fill="white" stroke="#666666" points="685.75,-97.5 549.75,-97.5 549.75,-67 685.75,-67 685.75,-97.5"/>
<text text-anchor="start" x="557.75" y="-84" font-family="Helvetica,sans-Serif" font-size="10.00">edu.wpi.first.wpilibj.Generic</text>
<text text-anchor="middle" x="617.75" y="-72.75" font-family="Helvetica,sans-Serif" font-size="10.00">HID.getRawButton</text>
</a>
</g>
</g>
<!-- Node3&#45;&gt;Node4 -->
<g id="edge4_Node000003_Node000004" class="edge">
<title>Node3&#45;&gt;Node4</title>
<g id="a_edge4_Node000003_Node000004"><a xlink:title=" ">
<path fill="none" stroke="#63b8ff" d="M507.09,-75.67C517.29,-75.5 527.88,-75.46 538.28,-75.54"/>
<polygon fill="#63b8ff" stroke="#63b8ff" points="537.91,-79.03 547.96,-75.66 538,-72.04 537.91,-79.03"/>
</a>
</g>
</g>
<!-- Node6 -->
<g id="Node000006" class="node">
<title>Node6</title>
<g id="a_Node000006"><a xlink:href="classedu_1_1wpi_1_1first_1_1wpilibj_1_1_generic_h_i_d.html#af0b067c76cbb79f54d7f475e88fcfed2" target="_top" xlink:title=" ">
<polygon fill="white" stroke="#666666" points="685.75,-30.5 549.75,-30.5 549.75,0 685.75,0 685.75,-30.5"/>
<text text-anchor="start" x="557.75" y="-17" font-family="Helvetica,sans-Serif" font-size="10.00">edu.wpi.first.wpilibj.Generic</text>
<text text-anchor="middle" x="617.75" y="-5.75" font-family="Helvetica,sans-Serif" font-size="10.00">HID.pov</text>
</a>
</g>
</g>
<!-- Node3&#45;&gt;Node6 -->
<g id="edge7_Node000003_Node000006" class="edge">
<title>Node3&#45;&gt;Node6</title>
<g id="a_edge7_Node000003_Node000006"><a xlink:title=" ">
<path fill="none" stroke="#63b8ff" d="M487.63,-66.54C496.35,-63.55 505.35,-60.38 513.75,-57.25 532.04,-50.45 551.93,-42.47 569.32,-35.31"/>
<polygon fill="#63b8ff" stroke="#63b8ff" points="570.48,-38.61 578.38,-31.55 567.8,-32.15 570.48,-38.61"/>
</a>
</g>
</g>
<!-- Node4&#45;&gt;Node3 -->
<g id="edge5_Node000004_Node000003" class="edge">
<title>Node4&#45;&gt;Node3</title>
<g id="a_edge5_Node000004_Node000003"><a xlink:title=" ">
<path fill="none" stroke="#63b8ff" d="M549.47,-88.82C539.28,-89 528.69,-89.04 518.28,-88.96"/>
<polygon fill="#63b8ff" stroke="#63b8ff" points="518.65,-85.47 508.61,-88.85 518.56,-92.47 518.65,-85.47"/>
</a>
</g>
</g>
<!-- Node5 -->
<g id="Node000005" class="node">
<title>Node5</title>
<g id="a_Node000005"><a xlink:href="classedu_1_1wpi_1_1first_1_1wpilibj_1_1_driver_station.html#a3d86d4b8414c05aafe18fc866d99ccab" target="_top" xlink:title=" ">
<polygon fill="white" stroke="#666666" points="850.25,-97.5 721.75,-97.5 721.75,-67 850.25,-67 850.25,-97.5"/>
<text text-anchor="start" x="729.75" y="-84" font-family="Helvetica,sans-Serif" font-size="10.00">edu.wpi.first.wpilibj.Driver</text>
<text text-anchor="middle" x="786" y="-72.75" font-family="Helvetica,sans-Serif" font-size="10.00">Station.getStickButton</text>
</a>
</g>
</g>
<!-- Node4&#45;&gt;Node5 -->
<g id="edge6_Node000004_Node000005" class="edge">
<title>Node4&#45;&gt;Node5</title>
<g id="a_edge6_Node000004_Node000005"><a xlink:title=" ">
<path fill="none" stroke="#63b8ff" d="M685.89,-82.25C693.85,-82.25 702.02,-82.25 710.08,-82.25"/>
<polygon fill="#63b8ff" stroke="#63b8ff" points="709.87,-85.75 719.87,-82.25 709.87,-78.75 709.87,-85.75"/>
</a>
</g>
</g>
<!-- Node6&#45;&gt;Node6 -->
<g id="edge8_Node000006_Node000006" class="edge">
<title>Node6&#45;&gt;Node6</title>
<g id="a_edge8_Node000006_Node000006"><a xlink:title=" ">
<path fill="none" stroke="#63b8ff" d="M587.94,-30.99C581.85,-40.06 591.79,-48.5 617.75,-48.5 631.95,-48.5 641.35,-45.97 645.97,-42.2"/>
<polygon fill="#63b8ff" stroke="#63b8ff" points="649.4,-42.88 647.35,-32.48 642.47,-41.89 649.4,-42.88"/>
</a>
</g>
</g>
</g>
</svg>
