<?xml version="1.0" encoding="UTF-8" standalone="no"?>
<!DOCTYPE svg PUBLIC "-//W3C//DTD SVG 1.1//EN"
 "http://www.w3.org/Graphics/SVG/1.1/DTD/svg11.dtd">
<!-- Generated by graphviz version 9.0.0 (20230911.1827)
 -->
<!-- Title: edu.wpi.first.wpilibj.motorcontrol.Jaguar.Jaguar Pages: 1 -->
<svg width="542pt" height="235pt"
 viewBox="0.00 0.00 542.00 234.50" xmlns="http://www.w3.org/2000/svg" xmlns:xlink="http://www.w3.org/1999/xlink">
<g id="graph0" class="graph" transform="scale(1 1) rotate(0) translate(4 230.5)">
<title>edu.wpi.first.wpilibj.motorcontrol.Jaguar.Jaguar</title>
<!-- Node1 -->
<g id="Node000001" class="node">
<title>Node1</title>
<g id="a_Node000001"><a xlink:title=" ">
<polygon fill="#999999" stroke="#666666" points="159.25,-128.5 0,-128.5 0,-98 159.25,-98 159.25,-128.5"/>
<text text-anchor="start" x="8" y="-115" font-family="Helvetica,sans-Serif" font-size="10.00">edu.wpi.first.wpilibj.motorcontrol.</text>
<text text-anchor="middle" x="79.62" y="-103.75" font-family="Helvetica,sans-Serif" font-size="10.00">Jaguar.Jaguar</text>
</a>
</g>
</g>
<!-- Node2 -->
<g id="Node000002" class="node">
<title>Node2</title>
<g id="a_Node000002"><a xlink:href="classedu_1_1wpi_1_1first_1_1wpilibj_1_1motorcontrol_1_1_p_w_m_motor_controller.html#ad3239e59cd2d8d8c95ff34126311bc76" target="_top" xlink:title=" ">
<polygon fill="white" stroke="#666666" points="354.5,-226.5 195.25,-226.5 195.25,-196 354.5,-196 354.5,-226.5"/>
<text text-anchor="start" x="203.25" y="-213" font-family="Helvetica,sans-Serif" font-size="10.00">edu.wpi.first.wpilibj.motorcontrol.</text>
<text text-anchor="middle" x="274.88" y="-201.75" font-family="Helvetica,sans-Serif" font-size="10.00">PWMMotorController.getChannel</text>
</a>
</g>
</g>
<!-- Node1&#45;&gt;Node2 -->
<g id="edge1_Node000001_Node000002" class="edge">
<title>Node1&#45;&gt;Node2</title>
<g id="a_edge1_Node000001_Node000002"><a xlink:title=" ">
<path fill="none" stroke="#63b8ff" d="M101.64,-129C123.92,-145.13 160.63,-170.06 195.25,-186.25 199.22,-188.11 203.37,-189.88 207.6,-191.56"/>
<polygon fill="#63b8ff" stroke="#63b8ff" points="206.19,-194.77 216.78,-195.01 208.65,-188.21 206.19,-194.77"/>
</a>
</g>
</g>
<!-- Node4 -->
<g id="Node000004" class="node">
<title>Node4</title>
<g id="a_Node000004"><a xlink:href="classedu_1_1wpi_1_1first_1_1wpilibj_1_1_p_w_m.html#a9f540c857b04d827341ef78e5b1124fe" target="_top" xlink:title=" ">
<polygon fill="white" stroke="#666666" points="346.62,-177.5 203.12,-177.5 203.12,-147 346.62,-147 346.62,-177.5"/>
<text text-anchor="start" x="211.12" y="-164" font-family="Helvetica,sans-Serif" font-size="10.00">edu.wpi.first.wpilibj.PWM.set</text>
<text text-anchor="middle" x="274.88" y="-152.75" font-family="Helvetica,sans-Serif" font-size="10.00">BoundsMicroseconds</text>
</a>
</g>
</g>
<!-- Node1&#45;&gt;Node4 -->
<g id="edge3_Node000001_Node000004" class="edge">
<title>Node1&#45;&gt;Node4</title>
<g id="a_edge3_Node000001_Node000004"><a xlink:title=" ">
<path fill="none" stroke="#63b8ff" d="M142.57,-128.96C161.12,-133.66 181.63,-138.86 200.83,-143.73"/>
<polygon fill="#63b8ff" stroke="#63b8ff" points="199.93,-147.11 210.48,-146.18 201.65,-140.33 199.93,-147.11"/>
</a>
</g>
</g>
<!-- Node5 -->
<g id="Node000005" class="node">
<title>Node5</title>
<g id="a_Node000005"><a xlink:href="classedu_1_1wpi_1_1first_1_1wpilibj_1_1_p_w_m.html#ab167b1170302bc64d8b4d53da6814931" target="_top" xlink:title=" ">
<polygon fill="white" stroke="#666666" points="346.62,-128.5 203.12,-128.5 203.12,-98 346.62,-98 346.62,-128.5"/>
<text text-anchor="start" x="211.12" y="-115" font-family="Helvetica,sans-Serif" font-size="10.00">edu.wpi.first.wpilibj.PWM.set</text>
<text text-anchor="middle" x="274.88" y="-103.75" font-family="Helvetica,sans-Serif" font-size="10.00">PeriodMultiplier</text>
</a>
</g>
</g>
<!-- Node1&#45;&gt;Node5 -->
<g id="edge4_Node000001_Node000005" class="edge">
<title>Node1&#45;&gt;Node5</title>
<g id="a_edge4_Node000001_Node000005"><a xlink:title=" ">
<path fill="none" stroke="#63b8ff" d="M159.51,-113.25C170.01,-113.25 180.8,-113.25 191.36,-113.25"/>
<polygon fill="#63b8ff" stroke="#63b8ff" points="191.19,-116.75 201.19,-113.25 191.19,-109.75 191.19,-116.75"/>
</a>
</g>
</g>
<!-- Node6 -->
<g id="Node000006" class="node">
<title>Node6</title>
<g id="a_Node000006"><a xlink:href="classedu_1_1wpi_1_1first_1_1wpilibj_1_1_p_w_m.html#ae75066ad7c5a0f0ad8c71211026479dc" target="_top" xlink:title=" ">
<polygon fill="white" stroke="#666666" points="346.62,-79.5 203.12,-79.5 203.12,-49 346.62,-49 346.62,-79.5"/>
<text text-anchor="start" x="211.12" y="-66" font-family="Helvetica,sans-Serif" font-size="10.00">edu.wpi.first.wpilibj.PWM.set</text>
<text text-anchor="middle" x="274.88" y="-54.75" font-family="Helvetica,sans-Serif" font-size="10.00">Speed</text>
</a>
</g>
</g>
<!-- Node1&#45;&gt;Node6 -->
<g id="edge5_Node000001_Node000006" class="edge">
<title>Node1&#45;&gt;Node6</title>
<g id="a_edge5_Node000001_Node000006"><a xlink:title=" ">
<path fill="none" stroke="#63b8ff" d="M142.57,-97.54C161.12,-92.84 181.63,-87.64 200.83,-82.77"/>
<polygon fill="#63b8ff" stroke="#63b8ff" points="201.65,-86.17 210.48,-80.32 199.93,-79.39 201.65,-86.17"/>
</a>
</g>
</g>
<!-- Node7 -->
<g id="Node000007" class="node">
<title>Node7</title>
<g id="a_Node000007"><a xlink:href="classedu_1_1wpi_1_1first_1_1wpilibj_1_1_p_w_m.html#aed7b74e2db9a607f466c45dc605751c5" target="_top" xlink:title=" ">
<polygon fill="white" stroke="#666666" points="346.62,-30.5 203.12,-30.5 203.12,0 346.62,0 346.62,-30.5"/>
<text text-anchor="start" x="211.12" y="-17" font-family="Helvetica,sans-Serif" font-size="10.00">edu.wpi.first.wpilibj.PWM.set</text>
<text text-anchor="middle" x="274.88" y="-5.75" font-family="Helvetica,sans-Serif" font-size="10.00">ZeroLatch</text>
</a>
</g>
</g>
<!-- Node1&#45;&gt;Node7 -->
<g id="edge6_Node000001_Node000007" class="edge">
<title>Node1&#45;&gt;Node7</title>
<g id="a_edge6_Node000001_Node000007"><a xlink:title=" ">
<path fill="none" stroke="#63b8ff" d="M101.64,-97.5C123.92,-81.37 160.63,-56.44 195.25,-40.25 199.22,-38.39 203.37,-36.62 207.6,-34.94"/>
<polygon fill="#63b8ff" stroke="#63b8ff" points="208.65,-38.29 216.78,-31.49 206.19,-31.73 208.65,-38.29"/>
</a>
</g>
</g>
<!-- Node3 -->
<g id="Node000003" class="node">
<title>Node3</title>
<g id="a_Node000003"><a xlink:href="classedu_1_1wpi_1_1first_1_1wpilibj_1_1_p_w_m.html#ad77506085116c8e7ec1b168438a9f573" target="_top" xlink:title=" ">
<polygon fill="white" stroke="#666666" points="534,-226.5 390.5,-226.5 390.5,-196 534,-196 534,-226.5"/>
<text text-anchor="start" x="398.5" y="-213" font-family="Helvetica,sans-Serif" font-size="10.00">edu.wpi.first.wpilibj.PWM.get</text>
<text text-anchor="middle" x="462.25" y="-201.75" font-family="Helvetica,sans-Serif" font-size="10.00">Channel</text>
</a>
</g>
</g>
<!-- Node2&#45;&gt;Node3 -->
<g id="edge2_Node000002_Node000003" class="edge">
<title>Node2&#45;&gt;Node3</title>
<g id="a_edge2_Node000002_Node000003"><a xlink:title=" ">
<path fill="none" stroke="#63b8ff" d="M354.76,-211.25C362.64,-211.25 370.65,-211.25 378.57,-211.25"/>
<polygon fill="#63b8ff" stroke="#63b8ff" points="378.56,-214.75 388.56,-211.25 378.56,-207.75 378.56,-214.75"/>
</a>
</g>
</g>
</g>
</svg>
