<?xml version="1.0" encoding="UTF-8" standalone="no"?>
<!DOCTYPE svg PUBLIC "-//W3C//DTD SVG 1.1//EN"
 "http://www.w3.org/Graphics/SVG/1.1/DTD/svg11.dtd">
<!-- Generated by graphviz version 9.0.0 (20230911.1827)
 -->
<!-- Title: edu.wpi.first.wpilibj.PWM.setSpeed Pages: 1 -->
<!--zoomable 725 -->

<svg id="main" version="1.1" xmlns="http://www.w3.org/2000/svg" xmlns:xlink="http://www.w3.org/1999/xlink" xml:space="preserve" onload="init(evt)">
<style type="text/css"><![CDATA[
.node, .edge {opacity: 0.7;}
.node.selected, .edge.selected {opacity: 1;}
.edge:hover path { stroke: red; }
.edge:hover polygon { stroke: red; fill: red; }
]]></style>

<defs>
  <circle id="rim" cx="0" cy="0" r="7"/>
  <circle id="rim2" cx="0" cy="0" r="3.5"/>
  <g id="zoomPlus">
    <use xlink:href="#rim" fill="#404040"><set attributeName="fill" to="#808080" begin="zoomplus.mouseover" end="zoomplus.mouseout"/></use>
    <path d="M-4,0h8M0,-4v8" fill="none" stroke="white" stroke-width="1.5" pointer-events="none"/>
  </g>
  <g id="zoomMin">
    <use xlink:href="#rim" fill="#404040"><set attributeName="fill" to="#808080" begin="zoomminus.mouseover" end="zoomminus.mouseout"/></use>
    <path d="M-4,0h8" fill="none" stroke="white" stroke-width="1.5" pointer-events="none"/>
  </g>
  <g id="arrowUp" transform="translate(30 24)">
    <use xlink:href="#rim"/>
    <path pointer-events="none" fill="none" stroke="white" stroke-width="1.5" d="M0,-3.0v7 M-2.5,-0.5L0,-3.0L2.5,-0.5"/>
  </g>
  <g id="arrowRight" transform="rotate(90) translate(36 -43)">
    <use xlink:href="#rim"/>
    <path pointer-events="none" fill="none" stroke="white" stroke-width="1.5" d="M0,-3.0v7 M-2.5,-0.5L0,-3.0L2.5,-0.5"/>
  </g>
  <g id="arrowDown" transform="rotate(180) translate(-30 -48)">
    <use xlink:href="#rim"/>
    <path pointer-events="none" fill="none" stroke="white" stroke-width="1.5" d="M0,-3.0v7 M-2.5,-0.5L0,-3.0L2.5,-0.5"/>
  </g>
  <g id="arrowLeft" transform="rotate(270) translate(-36 17)">
    <use xlink:href="#rim"/>
    <path pointer-events="none" fill="none" stroke="white" stroke-width="1.5" d="M0,-3.0v7 M-2.5,-0.5L0,-3.0L2.5,-0.5"/>
  </g>
  <g id="resetDef">
    <use xlink:href="#rim2" fill="#404040"><set attributeName="fill" to="#808080" begin="reset.mouseover" end="reset.mouseout"/></use>
  </g>
</defs>
<script type="application/ecmascript">
var viewWidth = 348;
var viewHeight = 725;
var sectionId = 'dynsection-14';
</script>
<script type="application/ecmascript" xlink:href="svg.min.js"/>
<svg id="graph" class="graph">
<g id="viewport">
<title>edu.wpi.first.wpilibj.PWM.setSpeed</title>
<!-- Node1 -->
<g id="Node000001" class="node">
<title>Node1</title>
<g id="a_Node000001"><a xlink:title=" ">
<polygon fill="#999999" stroke="#666666" points="339.5,-373.5 196,-373.5 196,-343 339.5,-343 339.5,-373.5"/>
<text text-anchor="start" x="204" y="-360" font-family="Helvetica,sans-Serif" font-size="10.00">edu.wpi.first.wpilibj.PWM.set</text>
<text text-anchor="middle" x="267.75" y="-348.75" font-family="Helvetica,sans-Serif" font-size="10.00">Speed</text>
</a>
</g>
</g>
<!-- Node2 -->
<g id="Node000002" class="node">
<title>Node2</title>
<g id="a_Node000002"><a xlink:href="classedu_1_1wpi_1_1first_1_1wpilibj_1_1motorcontrol_1_1_d_m_c60.html#a9a1de23861320905e0a0fe3c8e6fe47a" target="_top" xlink:title=" ">
<polygon fill="white" stroke="#666666" points="159.62,-716.5 0.38,-716.5 0.38,-686 159.62,-686 159.62,-716.5"/>
<text text-anchor="start" x="8.38" y="-703" font-family="Helvetica,sans-Serif" font-size="10.00">edu.wpi.first.wpilibj.motorcontrol.</text>
<text text-anchor="middle" x="80" y="-691.75" font-family="Helvetica,sans-Serif" font-size="10.00">DMC60.DMC60</text>
</a>
</g>
</g>
<!-- Node1&#45;&gt;Node2 -->
<g id="edge1_Node000001_Node000002" class="edge">
<title>Node1&#45;&gt;Node2</title>
<g id="a_edge1_Node000001_Node000002"><a xlink:title=" ">
<path fill="none" stroke="#63b8ff" d="M265.63,-384.91C261.62,-445.44 243.35,-594.34 160,-676.25 156.31,-679.88 152.09,-682.98 147.57,-685.64"/>
<polygon fill="#63b8ff" stroke="#63b8ff" points="269.1,-385.4 266.18,-375.22 262.12,-385 269.1,-385.4"/>
</a>
</g>
</g>
<!-- Node3 -->
<g id="Node000003" class="node">
<title>Node3</title>
<g id="a_Node000003"><a xlink:href="classedu_1_1wpi_1_1first_1_1wpilibj_1_1motorcontrol_1_1_jaguar.html#a6f0588860cf77ad3721b9a016427c392" target="_top" xlink:title=" ">
<polygon fill="white" stroke="#666666" points="159.62,-667.5 0.38,-667.5 0.38,-637 159.62,-637 159.62,-667.5"/>
<text text-anchor="start" x="8.38" y="-654" font-family="Helvetica,sans-Serif" font-size="10.00">edu.wpi.first.wpilibj.motorcontrol.</text>
<text text-anchor="middle" x="80" y="-642.75" font-family="Helvetica,sans-Serif" font-size="10.00">Jaguar.Jaguar</text>
</a>
</g>
</g>
<!-- Node1&#45;&gt;Node3 -->
<g id="edge2_Node000001_Node000003" class="edge">
<title>Node1&#45;&gt;Node3</title>
<g id="a_edge2_Node000001_Node000003"><a xlink:title=" ">
<path fill="none" stroke="#63b8ff" d="M263.7,-385.18C256.18,-439 231.81,-560.38 160,-627.25 156.1,-630.88 151.68,-633.98 146.97,-636.63"/>
<polygon fill="#63b8ff" stroke="#63b8ff" points="267.16,-385.76 264.97,-375.39 260.21,-384.86 267.16,-385.76"/>
</a>
</g>
</g>
<!-- Node4 -->
<g id="Node000004" class="node">
<title>Node4</title>
<g id="a_Node000004"><a xlink:href="classedu_1_1wpi_1_1first_1_1wpilibj_1_1motorcontrol_1_1_p_w_m_spark_flex.html#a20063b0b6d262f18cf29ae24284007a4" target="_top" xlink:title=" ">
<polygon fill="white" stroke="#666666" points="159.62,-618.5 0.38,-618.5 0.38,-588 159.62,-588 159.62,-618.5"/>
<text text-anchor="start" x="8.38" y="-605" font-family="Helvetica,sans-Serif" font-size="10.00">edu.wpi.first.wpilibj.motorcontrol.</text>
<text text-anchor="middle" x="80" y="-593.75" font-family="Helvetica,sans-Serif" font-size="10.00">PWMSparkFlex.PWMSparkFlex</text>
</a>
</g>
</g>
<!-- Node1&#45;&gt;Node4 -->
<g id="edge3_Node000001_Node000004" class="edge">
<title>Node1&#45;&gt;Node4</title>
<g id="a_edge3_Node000001_Node000004"><a xlink:title=" ">
<path fill="none" stroke="#63b8ff" d="M261.05,-385.05C249.85,-431.23 220.59,-525.88 160,-578.25 155.86,-581.82 151.22,-584.89 146.3,-587.52"/>
<polygon fill="#63b8ff" stroke="#63b8ff" points="264.45,-385.9 263.29,-375.37 257.63,-384.32 264.45,-385.9"/>
</a>
</g>
</g>
<!-- Node5 -->
<g id="Node000005" class="node">
<title>Node5</title>
<g id="a_Node000005"><a xlink:href="classedu_1_1wpi_1_1first_1_1wpilibj_1_1motorcontrol_1_1_p_w_m_spark_max.html#ac0dea231aee0e670d804c346b990dd78" target="_top" xlink:title=" ">
<polygon fill="white" stroke="#666666" points="159.62,-569.5 0.38,-569.5 0.38,-539 159.62,-539 159.62,-569.5"/>
<text text-anchor="start" x="8.38" y="-556" font-family="Helvetica,sans-Serif" font-size="10.00">edu.wpi.first.wpilibj.motorcontrol.</text>
<text text-anchor="middle" x="80" y="-544.75" font-family="Helvetica,sans-Serif" font-size="10.00">PWMSparkMax.PWMSparkMax</text>
</a>
</g>
</g>
<!-- Node1&#45;&gt;Node5 -->
<g id="edge4_Node000001_Node000005" class="edge">
<title>Node1&#45;&gt;Node5</title>
<g id="a_edge4_Node000001_Node000005"><a xlink:title=" ">
<path fill="none" stroke="#63b8ff" d="M257.25,-384.38C242.29,-421.87 209.75,-490.67 160,-529.25 155.34,-532.86 150.14,-535.96 144.71,-538.62"/>
<polygon fill="#63b8ff" stroke="#63b8ff" points="260.44,-385.81 260.78,-375.22 253.91,-383.29 260.44,-385.81"/>
</a>
</g>
</g>
<!-- Node6 -->
<g id="Node000006" class="node">
<title>Node6</title>
<g id="a_Node000006"><a xlink:href="classedu_1_1wpi_1_1first_1_1wpilibj_1_1motorcontrol_1_1_p_w_m_talon_f_x.html#ae924f656191b05953864907f8241d2fa" target="_top" xlink:title=" ">
<polygon fill="white" stroke="#666666" points="159.62,-520.5 0.38,-520.5 0.38,-490 159.62,-490 159.62,-520.5"/>
<text text-anchor="start" x="8.38" y="-507" font-family="Helvetica,sans-Serif" font-size="10.00">edu.wpi.first.wpilibj.motorcontrol.</text>
<text text-anchor="middle" x="80" y="-495.75" font-family="Helvetica,sans-Serif" font-size="10.00">PWMTalonFX.PWMTalonFX</text>
</a>
</g>
</g>
<!-- Node1&#45;&gt;Node6 -->
<g id="edge5_Node000001_Node000006" class="edge">
<title>Node1&#45;&gt;Node6</title>
<g id="a_edge5_Node000001_Node000006"><a xlink:title=" ">
<path fill="none" stroke="#63b8ff" d="M251.13,-383.13C232.6,-410.68 199.23,-454.59 160,-480.25 154.58,-483.79 148.63,-486.86 142.49,-489.52"/>
<polygon fill="#63b8ff" stroke="#63b8ff" points="253.87,-385.33 256.43,-375.05 248.02,-381.48 253.87,-385.33"/>
</a>
</g>
</g>
<!-- Node7 -->
<g id="Node000007" class="node">
<title>Node7</title>
<g id="a_Node000007"><a xlink:href="classedu_1_1wpi_1_1first_1_1wpilibj_1_1motorcontrol_1_1_p_w_m_talon_s_r_x.html#ad3980f8d0fb4456e4a7177d631fbabdb" target="_top" xlink:title=" ">
<polygon fill="white" stroke="#666666" points="159.62,-471.5 0.38,-471.5 0.38,-441 159.62,-441 159.62,-471.5"/>
<text text-anchor="start" x="8.38" y="-458" font-family="Helvetica,sans-Serif" font-size="10.00">edu.wpi.first.wpilibj.motorcontrol.</text>
<text text-anchor="middle" x="80" y="-446.75" font-family="Helvetica,sans-Serif" font-size="10.00">PWMTalonSRX.PWMTalonSRX</text>
</a>
</g>
</g>
<!-- Node1&#45;&gt;Node7 -->
<g id="edge6_Node000001_Node000007" class="edge">
<title>Node1&#45;&gt;Node7</title>
<g id="a_edge6_Node000001_Node000007"><a xlink:title=" ">
<path fill="none" stroke="#63b8ff" d="M238.86,-380.7C218.1,-396.55 188.53,-417.36 160,-431.25 152.89,-434.71 145.18,-437.84 137.47,-440.62"/>
<polygon fill="#63b8ff" stroke="#63b8ff" points="240.8,-383.63 246.55,-374.74 236.51,-378.1 240.8,-383.63"/>
</a>
</g>
</g>
<!-- Node8 -->
<g id="Node000008" class="node">
<title>Node8</title>
<g id="a_Node000008"><a xlink:href="classedu_1_1wpi_1_1first_1_1wpilibj_1_1motorcontrol_1_1_p_w_m_venom.html#a0121603978921ac1581f6a2b04c69d87" target="_top" xlink:title=" ">
<polygon fill="white" stroke="#666666" points="159.62,-422.5 0.38,-422.5 0.38,-392 159.62,-392 159.62,-422.5"/>
<text text-anchor="start" x="8.38" y="-409" font-family="Helvetica,sans-Serif" font-size="10.00">edu.wpi.first.wpilibj.motorcontrol.</text>
<text text-anchor="middle" x="80" y="-397.75" font-family="Helvetica,sans-Serif" font-size="10.00">PWMVenom.PWMVenom</text>
</a>
</g>
</g>
<!-- Node1&#45;&gt;Node8 -->
<g id="edge7_Node000001_Node000008" class="edge">
<title>Node1&#45;&gt;Node8</title>
<g id="a_edge7_Node000001_Node000008"><a xlink:title=" ">
<path fill="none" stroke="#63b8ff" d="M196.26,-376.84C177.88,-381.69 158.27,-386.87 140.52,-391.55"/>
<polygon fill="#63b8ff" stroke="#63b8ff" points="196.97,-380.28 205.75,-374.34 195.19,-373.51 196.97,-380.28"/>
</a>
</g>
</g>
<!-- Node9 -->
<g id="Node000009" class="node">
<title>Node9</title>
<g id="a_Node000009"><a xlink:href="classedu_1_1wpi_1_1first_1_1wpilibj_1_1motorcontrol_1_1_p_w_m_victor_s_p_x.html#a776cb8880ae04d3e3c5f2b83b46ba780" target="_top" xlink:title=" ">
<polygon fill="white" stroke="#666666" points="160,-373.5 0,-373.5 0,-343 160,-343 160,-373.5"/>
<text text-anchor="start" x="8" y="-360" font-family="Helvetica,sans-Serif" font-size="10.00">edu.wpi.first.wpilibj.motorcontrol.</text>
<text text-anchor="middle" x="80" y="-348.75" font-family="Helvetica,sans-Serif" font-size="10.00">PWMVictorSPX.PWMVictorSPX</text>
</a>
</g>
</g>
<!-- Node1&#45;&gt;Node9 -->
<g id="edge8_Node000001_Node000009" class="edge">
<title>Node1&#45;&gt;Node9</title>
<g id="a_edge8_Node000001_Node000009"><a xlink:title=" ">
<path fill="none" stroke="#63b8ff" d="M184.49,-358.25C176.47,-358.25 168.34,-358.25 160.35,-358.25"/>
<polygon fill="#63b8ff" stroke="#63b8ff" points="184.22,-361.75 194.22,-358.25 184.22,-354.75 184.22,-361.75"/>
</a>
</g>
</g>
<!-- Node10 -->
<g id="Node000010" class="node">
<title>Node10</title>
<g id="a_Node000010"><a xlink:href="classedu_1_1wpi_1_1first_1_1wpilibj_1_1motorcontrol_1_1_s_d540.html#a4941de5e2a0cba493ea3af12a7eae00b" target="_top" xlink:title=" ">
<polygon fill="white" stroke="#666666" points="159.62,-324.5 0.38,-324.5 0.38,-294 159.62,-294 159.62,-324.5"/>
<text text-anchor="start" x="8.38" y="-311" font-family="Helvetica,sans-Serif" font-size="10.00">edu.wpi.first.wpilibj.motorcontrol.</text>
<text text-anchor="middle" x="80" y="-299.75" font-family="Helvetica,sans-Serif" font-size="10.00">SD540.SD540</text>
</a>
</g>
</g>
<!-- Node1&#45;&gt;Node10 -->
<g id="edge9_Node000001_Node000010" class="edge">
<title>Node1&#45;&gt;Node10</title>
<g id="a_edge9_Node000001_Node000010"><a xlink:title=" ">
<path fill="none" stroke="#63b8ff" d="M196.26,-339.66C177.88,-334.81 158.27,-329.63 140.52,-324.95"/>
<polygon fill="#63b8ff" stroke="#63b8ff" points="195.19,-342.99 205.75,-342.16 196.97,-336.22 195.19,-342.99"/>
</a>
</g>
</g>
<!-- Node11 -->
<g id="Node000011" class="node">
<title>Node11</title>
<g id="a_Node000011"><a xlink:href="classedu_1_1wpi_1_1first_1_1wpilibj_1_1motorcontrol_1_1_p_w_m_motor_controller.html#aecffab46da46ec79abd0ab70aa671a53" target="_top" xlink:title=" ">
<polygon fill="white" stroke="#666666" points="159.62,-275.5 0.38,-275.5 0.38,-245 159.62,-245 159.62,-275.5"/>
<text text-anchor="start" x="8.38" y="-262" font-family="Helvetica,sans-Serif" font-size="10.00">edu.wpi.first.wpilibj.motorcontrol.</text>
<text text-anchor="middle" x="80" y="-250.75" font-family="Helvetica,sans-Serif" font-size="10.00">PWMMotorController.set</text>
</a>
</g>
</g>
<!-- Node1&#45;&gt;Node11 -->
<g id="edge10_Node000001_Node000011" class="edge">
<title>Node1&#45;&gt;Node11</title>
<g id="a_edge10_Node000001_Node000011"><a xlink:title=" ">
<path fill="none" stroke="#63b8ff" d="M238.86,-335.8C218.1,-319.95 188.53,-299.14 160,-285.25 152.89,-281.79 145.18,-278.66 137.47,-275.88"/>
<polygon fill="#63b8ff" stroke="#63b8ff" points="236.51,-338.4 246.55,-341.76 240.8,-332.87 236.51,-338.4"/>
</a>
</g>
</g>
<!-- Node12 -->
<g id="Node000012" class="node">
<title>Node12</title>
<g id="a_Node000012"><a xlink:href="classedu_1_1wpi_1_1first_1_1wpilibj_1_1motorcontrol_1_1_spark.html#aab46d8b2428e12dfe4cd4b729d0bb7ac" target="_top" xlink:title=" ">
<polygon fill="white" stroke="#666666" points="159.62,-226.5 0.38,-226.5 0.38,-196 159.62,-196 159.62,-226.5"/>
<text text-anchor="start" x="8.38" y="-213" font-family="Helvetica,sans-Serif" font-size="10.00">edu.wpi.first.wpilibj.motorcontrol.</text>
<text text-anchor="middle" x="80" y="-201.75" font-family="Helvetica,sans-Serif" font-size="10.00">Spark.Spark</text>
</a>
</g>
</g>
<!-- Node1&#45;&gt;Node12 -->
<g id="edge11_Node000001_Node000012" class="edge">
<title>Node1&#45;&gt;Node12</title>
<g id="a_edge11_Node000001_Node000012"><a xlink:title=" ">
<path fill="none" stroke="#63b8ff" d="M251.13,-333.37C232.6,-305.82 199.23,-261.91 160,-236.25 154.58,-232.71 148.63,-229.64 142.49,-226.98"/>
<polygon fill="#63b8ff" stroke="#63b8ff" points="248.02,-335.02 256.43,-341.45 253.87,-331.17 248.02,-335.02"/>
</a>
</g>
</g>
<!-- Node13 -->
<g id="Node000013" class="node">
<title>Node13</title>
<g id="a_Node000013"><a xlink:href="classedu_1_1wpi_1_1first_1_1wpilibj_1_1motorcontrol_1_1_p_w_m_motor_controller.html#a26b314f868dcb5947f3316f21b36c4d3" target="_top" xlink:title=" ">
<polygon fill="white" stroke="#666666" points="159.62,-177.5 0.38,-177.5 0.38,-147 159.62,-147 159.62,-177.5"/>
<text text-anchor="start" x="8.38" y="-164" font-family="Helvetica,sans-Serif" font-size="10.00">edu.wpi.first.wpilibj.motorcontrol.</text>
<text text-anchor="middle" x="80" y="-152.75" font-family="Helvetica,sans-Serif" font-size="10.00">PWMMotorController.stopMotor</text>
</a>
</g>
</g>
<!-- Node1&#45;&gt;Node13 -->
<g id="edge12_Node000001_Node000013" class="edge">
<title>Node1&#45;&gt;Node13</title>
<g id="a_edge12_Node000001_Node000013"><a xlink:title=" ">
<path fill="none" stroke="#63b8ff" d="M257.25,-332.12C242.29,-294.63 209.75,-225.83 160,-187.25 155.34,-183.64 150.14,-180.54 144.71,-177.88"/>
<polygon fill="#63b8ff" stroke="#63b8ff" points="253.91,-333.21 260.78,-341.28 260.44,-330.69 253.91,-333.21"/>
</a>
</g>
</g>
<!-- Node14 -->
<g id="Node000014" class="node">
<title>Node14</title>
<g id="a_Node000014"><a xlink:href="classedu_1_1wpi_1_1first_1_1wpilibj_1_1motorcontrol_1_1_talon.html#ac7bb4c74ea62cf264dba580b6460d08b" target="_top" xlink:title=" ">
<polygon fill="white" stroke="#666666" points="159.62,-128.5 0.38,-128.5 0.38,-98 159.62,-98 159.62,-128.5"/>
<text text-anchor="start" x="8.38" y="-115" font-family="Helvetica,sans-Serif" font-size="10.00">edu.wpi.first.wpilibj.motorcontrol.</text>
<text text-anchor="middle" x="80" y="-103.75" font-family="Helvetica,sans-Serif" font-size="10.00">Talon.Talon</text>
</a>
</g>
</g>
<!-- Node1&#45;&gt;Node14 -->
<g id="edge13_Node000001_Node000014" class="edge">
<title>Node1&#45;&gt;Node14</title>
<g id="a_edge13_Node000001_Node000014"><a xlink:title=" ">
<path fill="none" stroke="#63b8ff" d="M261.05,-331.45C249.85,-285.27 220.59,-190.62 160,-138.25 155.86,-134.68 151.22,-131.61 146.3,-128.98"/>
<polygon fill="#63b8ff" stroke="#63b8ff" points="257.63,-332.18 263.29,-341.13 264.45,-330.6 257.63,-332.18"/>
</a>
</g>
</g>
<!-- Node15 -->
<g id="Node000015" class="node">
<title>Node15</title>
<g id="a_Node000015"><a xlink:href="classedu_1_1wpi_1_1first_1_1wpilibj_1_1motorcontrol_1_1_victor.html#a0d74f33a24b20cd1a2dbfac22ca51bc9" target="_top" xlink:title=" ">
<polygon fill="white" stroke="#666666" points="159.62,-79.5 0.38,-79.5 0.38,-49 159.62,-49 159.62,-79.5"/>
<text text-anchor="start" x="8.38" y="-66" font-family="Helvetica,sans-Serif" font-size="10.00">edu.wpi.first.wpilibj.motorcontrol.</text>
<text text-anchor="middle" x="80" y="-54.75" font-family="Helvetica,sans-Serif" font-size="10.00">Victor.Victor</text>
</a>
</g>
</g>
<!-- Node1&#45;&gt;Node15 -->
<g id="edge14_Node000001_Node000015" class="edge">
<title>Node1&#45;&gt;Node15</title>
<g id="a_edge14_Node000001_Node000015"><a xlink:title=" ">
<path fill="none" stroke="#63b8ff" d="M263.7,-331.32C256.18,-277.5 231.81,-156.12 160,-89.25 156.1,-85.62 151.68,-82.52 146.97,-79.87"/>
<polygon fill="#63b8ff" stroke="#63b8ff" points="260.21,-331.64 264.97,-341.11 267.16,-330.74 260.21,-331.64"/>
</a>
</g>
</g>
<!-- Node16 -->
<g id="Node000016" class="node">
<title>Node16</title>
<g id="a_Node000016"><a xlink:href="classedu_1_1wpi_1_1first_1_1wpilibj_1_1motorcontrol_1_1_victor_s_p.html#a9824d01b4d1eecd1a15539bb1bb0102d" target="_top" xlink:title=" ">
<polygon fill="white" stroke="#666666" points="159.62,-30.5 0.38,-30.5 0.38,0 159.62,0 159.62,-30.5"/>
<text text-anchor="start" x="8.38" y="-17" font-family="Helvetica,sans-Serif" font-size="10.00">edu.wpi.first.wpilibj.motorcontrol.</text>
<text text-anchor="middle" x="80" y="-5.75" font-family="Helvetica,sans-Serif" font-size="10.00">VictorSP.VictorSP</text>
</a>
</g>
</g>
<!-- Node1&#45;&gt;Node16 -->
<g id="edge15_Node000001_Node000016" class="edge">
<title>Node1&#45;&gt;Node16</title>
<g id="a_edge15_Node000001_Node000016"><a xlink:title=" ">
<path fill="none" stroke="#63b8ff" d="M265.63,-331.59C261.62,-271.06 243.35,-122.16 160,-40.25 156.31,-36.62 152.09,-33.52 147.57,-30.86"/>
<polygon fill="#63b8ff" stroke="#63b8ff" points="262.12,-331.5 266.18,-341.28 269.1,-331.1 262.12,-331.5"/>
</a>
</g>
</g>
</g>
</svg>

<g id="navigator" transform="translate(0 0)" fill="#404254">
  <rect fill="#f2f5e9" fill-opacity="0.5" stroke="#606060" stroke-width=".5" x="0" y="0" width="60" height="60"/>
  <use id="zoomplus" xlink:href="#zoomPlus" x="17" y="9" onmousedown="handleZoom(evt,'in')"/>
  <use id="zoomminus" xlink:href="#zoomMin" x="42" y="9" onmousedown="handleZoom(evt,'out')"/>
  <use id="reset" xlink:href="#resetDef" x="30" y="36" onmousedown="handleReset()"/>
   <use id="arrowup" xlink:href="#arrowUp" x="0" y="0" onmousedown="handlePan(0,-1)"/>
  <use id="arrowright" xlink:href="#arrowRight" x="0" y="0" onmousedown="handlePan(1,0)"/>
  <use id="arrowdown" xlink:href="#arrowDown" x="0" y="0" onmousedown="handlePan(0,1)"/>
  <use id="arrowleft" xlink:href="#arrowLeft" x="0" y="0" onmousedown="handlePan(-1,0)"/>
</g>
<svg viewBox="0 0 15 15" width="100%" height="30px" preserveAspectRatio="xMaxYMin meet">
 <g id="arrow_out" transform="scale(0.3 0.3)">
  <a xlink:href="classedu_1_1wpi_1_1first_1_1wpilibj_1_1_p_w_m_ae75066ad7c5a0f0ad8c71211026479dc_icgraph_org.svg" target="_base">
   <rect id="button" ry="5" rx="5" y="6" x="6" height="38" width="38"
        fill="#f2f5e9" fill-opacity="0.5" stroke="#606060" stroke-width="1.0"/>
   <path id="arrow"
     d="M 11.500037,31.436501 C 11.940474,20.09759 22.043105,11.32322 32.158766,21.979434 L 37.068811,17.246167 C 37.068811,17.246167 37.088388,32 37.088388,32 L 22.160133,31.978069 C 22.160133,31.978069 26.997745,27.140456 26.997745,27.140456 C 18.528582,18.264221 13.291696,25.230495 11.500037,31.436501 z"
     style="fill:#404040;"/>
  </a>
 </g>
</svg>

<style type='text/css'>
<![CDATA[
[data-mouse-over-selected='false'] { opacity: 0.7; }
[data-mouse-over-selected='true']  { opacity: 1.0; }
]]>
</style>
<script type="application/ecmascript"><![CDATA[
document.addEventListener('DOMContentLoaded', (event) => {
  highlightEdges();
  highlightAdjacentNodes();
});
]]></script>
</svg>
