<?xml version="1.0" encoding="UTF-8" standalone="no"?>
<!DOCTYPE svg PUBLIC "-//W3C//DTD SVG 1.1//EN"
 "http://www.w3.org/Graphics/SVG/1.1/DTD/svg11.dtd">
<!-- Generated by graphviz version 9.0.0 (20230911.1827)
 -->
<!-- Title: edu.wpi.first.wpilibj.drive.MecanumDrive.driveCartesianIK Pages: 1 -->
<svg width="350pt" height="57pt"
 viewBox="0.00 0.00 349.75 56.50" xmlns="http://www.w3.org/2000/svg" xmlns:xlink="http://www.w3.org/1999/xlink">
<g id="graph0" class="graph" transform="scale(1 1) rotate(0) translate(4 52.5)">
<title>edu.wpi.first.wpilibj.drive.MecanumDrive.driveCartesianIK</title>
<!-- Node1 -->
<g id="Node000001" class="node">
<title>Node1</title>
<g id="a_Node000001"><a xlink:title=" ">
<polygon fill="#999999" stroke="#666666" points="341.75,-30.5 184,-30.5 184,0 341.75,0 341.75,-30.5"/>
<text text-anchor="start" x="192" y="-17" font-family="Helvetica,sans-Serif" font-size="10.00">edu.wpi.first.wpilibj.drive.</text>
<text text-anchor="middle" x="262.88" y="-5.75" font-family="Helvetica,sans-Serif" font-size="10.00">MecanumDrive.driveCartesianIK</text>
</a>
</g>
</g>
<!-- Node1&#45;&gt;Node1 -->
<g id="edge2_Node000001_Node000001" class="edge">
<title>Node1&#45;&gt;Node1</title>
<g id="a_edge2_Node000001_Node000001"><a xlink:title=" ">
<path fill="none" stroke="#63b8ff" d="M294.55,-42.2C289.37,-45.97 278.81,-48.5 262.88,-48.5 233.73,-48.5 222.58,-40.06 229.41,-30.99"/>
<polygon fill="#63b8ff" stroke="#63b8ff" points="297.98,-42.91 296.1,-32.48 291.07,-41.8 297.98,-42.91"/>
</a>
</g>
</g>
<!-- Node2 -->
<g id="Node000002" class="node">
<title>Node2</title>
<g id="a_Node000002"><a xlink:href="classedu_1_1wpi_1_1first_1_1wpilibj_1_1drive_1_1_mecanum_drive.html#a346448c6268f5e7eac322b055d9544d4" target="_top" xlink:title=" ">
<polygon fill="white" stroke="#666666" points="148,-30.5 0,-30.5 0,0 148,0 148,-30.5"/>
<text text-anchor="start" x="8" y="-17" font-family="Helvetica,sans-Serif" font-size="10.00">edu.wpi.first.wpilibj.drive.</text>
<text text-anchor="middle" x="74" y="-5.75" font-family="Helvetica,sans-Serif" font-size="10.00">MecanumDrive.driveCartesian</text>
</a>
</g>
</g>
<!-- Node1&#45;&gt;Node2 -->
<g id="edge1_Node000001_Node000002" class="edge">
<title>Node1&#45;&gt;Node2</title>
<g id="a_edge1_Node000001_Node000002"><a xlink:title=" ">
<path fill="none" stroke="#63b8ff" d="M172.39,-15.25C164.34,-15.25 156.26,-15.25 148.38,-15.25"/>
<polygon fill="#63b8ff" stroke="#63b8ff" points="172.19,-18.75 182.19,-15.25 172.19,-11.75 172.19,-18.75"/>
</a>
</g>
</g>
</g>
</svg>
