<?xml version="1.0" encoding="UTF-8" standalone="no"?>
<!DOCTYPE svg PUBLIC "-//W3C//DTD SVG 1.1//EN"
 "http://www.w3.org/Graphics/SVG/1.1/DTD/svg11.dtd">
<!-- Generated by graphviz version 9.0.0 (20230911.1827)
 -->
<!-- Title: edu.wpi.first.wpilibj.DMA.setExternalTrigger Pages: 1 -->
<svg width="378pt" height="88pt"
 viewBox="0.00 0.00 377.50 87.50" xmlns="http://www.w3.org/2000/svg" xmlns:xlink="http://www.w3.org/1999/xlink">
<g id="graph0" class="graph" transform="scale(1 1) rotate(0) translate(4 83.5)">
<title>edu.wpi.first.wpilibj.DMA.setExternalTrigger</title>
<!-- Node1 -->
<g id="Node000001" class="node">
<title>Node1</title>
<g id="a_Node000001"><a xlink:title=" ">
<polygon fill="#999999" stroke="#666666" points="141.25,-54.5 0,-54.5 0,-24 141.25,-24 141.25,-54.5"/>
<text text-anchor="start" x="8" y="-41" font-family="Helvetica,sans-Serif" font-size="10.00">edu.wpi.first.wpilibj.DMA.set</text>
<text text-anchor="middle" x="70.62" y="-29.75" font-family="Helvetica,sans-Serif" font-size="10.00">ExternalTrigger</text>
</a>
</g>
</g>
<!-- Node2 -->
<g id="Node000002" class="node">
<title>Node2</title>
<g id="a_Node000002"><a xlink:href="classedu_1_1wpi_1_1first_1_1wpilibj_1_1_digital_source.html#a541a17e685b99f4a094171942ca0423c" target="_top" xlink:title=" ">
<polygon fill="white" stroke="#666666" points="369.5,-79.5 177.25,-79.5 177.25,-49 369.5,-49 369.5,-79.5"/>
<text text-anchor="start" x="185.25" y="-66" font-family="Helvetica,sans-Serif" font-size="10.00">edu.wpi.first.wpilibj.Digital</text>
<text text-anchor="middle" x="273.38" y="-54.75" font-family="Helvetica,sans-Serif" font-size="10.00">Source.getAnalogTriggerTypeForRouting</text>
</a>
</g>
</g>
<!-- Node1&#45;&gt;Node2 -->
<g id="edge1_Node000001_Node000002" class="edge">
<title>Node1&#45;&gt;Node2</title>
<g id="a_edge1_Node000001_Node000002"><a xlink:title=" ">
<path fill="none" stroke="#63b8ff" d="M141.56,-47.96C149.41,-48.94 157.55,-49.95 165.73,-50.97"/>
<polygon fill="#63b8ff" stroke="#63b8ff" points="165.06,-54.41 175.41,-52.17 165.92,-47.47 165.06,-54.41"/>
</a>
</g>
</g>
<!-- Node3 -->
<g id="Node000003" class="node">
<title>Node3</title>
<g id="a_Node000003"><a xlink:href="classedu_1_1wpi_1_1first_1_1wpilibj_1_1_digital_source.html#ade5bf94866b6af2dd04bcf30096a2fe4" target="_top" xlink:title=" ">
<polygon fill="white" stroke="#666666" points="353.38,-30.5 193.38,-30.5 193.38,0 353.38,0 353.38,-30.5"/>
<text text-anchor="start" x="201.38" y="-17" font-family="Helvetica,sans-Serif" font-size="10.00">edu.wpi.first.wpilibj.Digital</text>
<text text-anchor="middle" x="273.38" y="-5.75" font-family="Helvetica,sans-Serif" font-size="10.00">Source.getPortHandleForRouting</text>
</a>
</g>
</g>
<!-- Node1&#45;&gt;Node3 -->
<g id="edge2_Node000001_Node000003" class="edge">
<title>Node1&#45;&gt;Node3</title>
<g id="a_edge2_Node000001_Node000003"><a xlink:title=" ">
<path fill="none" stroke="#63b8ff" d="M141.56,-30.89C154.55,-29.34 168.3,-27.69 181.81,-26.08"/>
<polygon fill="#63b8ff" stroke="#63b8ff" points="182.06,-29.57 191.57,-24.91 181.23,-22.62 182.06,-29.57"/>
</a>
</g>
</g>
</g>
</svg>
