<?xml version="1.0" encoding="UTF-8" standalone="no"?>
<!DOCTYPE svg PUBLIC "-//W3C//DTD SVG 1.1//EN"
 "http://www.w3.org/Graphics/SVG/1.1/DTD/svg11.dtd">
<!-- Generated by graphviz version 9.0.0 (20230911.1827)
 -->
<!-- Title: edu.wpi.first.wpilibj.simulation.UltrasonicSim.UltrasonicSim Pages: 1 -->
<svg width="523pt" height="39pt"
 viewBox="0.00 0.00 522.50 38.50" xmlns="http://www.w3.org/2000/svg" xmlns:xlink="http://www.w3.org/1999/xlink">
<g id="graph0" class="graph" transform="scale(1 1) rotate(0) translate(4 34.5)">
<title>edu.wpi.first.wpilibj.simulation.UltrasonicSim.UltrasonicSim</title>
<!-- Node1 -->
<g id="Node000001" class="node">
<title>Node1</title>
<g id="a_Node000001"><a xlink:title=" ">
<polygon fill="#999999" stroke="#666666" points="149.5,-30.5 0,-30.5 0,0 149.5,0 149.5,-30.5"/>
<text text-anchor="start" x="8" y="-17" font-family="Helvetica,sans-Serif" font-size="10.00">edu.wpi.first.wpilibj.simulation.</text>
<text text-anchor="middle" x="74.75" y="-5.75" font-family="Helvetica,sans-Serif" font-size="10.00">UltrasonicSim.UltrasonicSim</text>
</a>
</g>
</g>
<!-- Node2 -->
<g id="Node000002" class="node">
<title>Node2</title>
<g id="a_Node000002"><a xlink:href="classedu_1_1wpi_1_1first_1_1wpilibj_1_1_ultrasonic.html#addfcca8c0fb4b35478a4d97dee5333d2" target="_top" xlink:title=" ">
<polygon fill="white" stroke="#666666" points="348.5,-30.5 185.5,-30.5 185.5,0 348.5,0 348.5,-30.5"/>
<text text-anchor="start" x="193.5" y="-17" font-family="Helvetica,sans-Serif" font-size="10.00">edu.wpi.first.wpilibj.Ultrasonic.get</text>
<text text-anchor="middle" x="267" y="-5.75" font-family="Helvetica,sans-Serif" font-size="10.00">EchoChannel</text>
</a>
</g>
</g>
<!-- Node1&#45;&gt;Node2 -->
<g id="edge1_Node000001_Node000002" class="edge">
<title>Node1&#45;&gt;Node2</title>
<g id="a_edge1_Node000001_Node000002"><a xlink:title=" ">
<path fill="none" stroke="#63b8ff" d="M149.85,-15.25C157.72,-15.25 165.8,-15.25 173.84,-15.25"/>
<polygon fill="#63b8ff" stroke="#63b8ff" points="173.66,-18.75 183.66,-15.25 173.66,-11.75 173.66,-18.75"/>
</a>
</g>
</g>
<!-- Node3 -->
<g id="Node000003" class="node">
<title>Node3</title>
<g id="a_Node000003"><a xlink:href="classedu_1_1wpi_1_1first_1_1wpilibj_1_1_digital_input.html#a39ee915f02a10707e1d6d168af29b4c8" target="_top" xlink:title=" ">
<polygon fill="white" stroke="#666666" points="514.5,-30.5 384.5,-30.5 384.5,0 514.5,0 514.5,-30.5"/>
<text text-anchor="start" x="392.5" y="-17" font-family="Helvetica,sans-Serif" font-size="10.00">edu.wpi.first.wpilibj.Digital</text>
<text text-anchor="middle" x="449.5" y="-5.75" font-family="Helvetica,sans-Serif" font-size="10.00">Input.getChannel</text>
</a>
</g>
</g>
<!-- Node2&#45;&gt;Node3 -->
<g id="edge2_Node000002_Node000003" class="edge">
<title>Node2&#45;&gt;Node3</title>
<g id="a_edge2_Node000002_Node000003"><a xlink:title=" ">
<path fill="none" stroke="#63b8ff" d="M348.75,-15.25C356.69,-15.25 364.74,-15.25 372.63,-15.25"/>
<polygon fill="#63b8ff" stroke="#63b8ff" points="372.55,-18.75 382.55,-15.25 372.55,-11.75 372.55,-18.75"/>
</a>
</g>
</g>
</g>
</svg>
