<?xml version="1.0" encoding="UTF-8" standalone="no"?>
<!DOCTYPE svg PUBLIC "-//W3C//DTD SVG 1.1//EN"
 "http://www.w3.org/Graphics/SVG/1.1/DTD/svg11.dtd">
<!-- Generated by graphviz version 9.0.0 (20230911.1827)
 -->
<!-- Title: /Users/berka/Documents/FRC/src/allwpilib/wpilibj/src/main/java/edu/wpi/first/wpilibj Pages: 1 -->
<!--zoomable 95 -->

<svg id="main" version="1.1" xmlns="http://www.w3.org/2000/svg" xmlns:xlink="http://www.w3.org/1999/xlink" xml:space="preserve" onload="init(evt)">
<style type="text/css"><![CDATA[
.node, .edge {opacity: 0.7;}
.node.selected, .edge.selected {opacity: 1;}
.edge:hover path { stroke: red; }
.edge:hover polygon { stroke: red; fill: red; }
]]></style>

<defs>
  <circle id="rim" cx="0" cy="0" r="7"/>
  <circle id="rim2" cx="0" cy="0" r="3.5"/>
  <g id="zoomPlus">
    <use xlink:href="#rim" fill="#404040"><set attributeName="fill" to="#808080" begin="zoomplus.mouseover" end="zoomplus.mouseout"/></use>
    <path d="M-4,0h8M0,-4v8" fill="none" stroke="white" stroke-width="1.5" pointer-events="none"/>
  </g>
  <g id="zoomMin">
    <use xlink:href="#rim" fill="#404040"><set attributeName="fill" to="#808080" begin="zoomminus.mouseover" end="zoomminus.mouseout"/></use>
    <path d="M-4,0h8" fill="none" stroke="white" stroke-width="1.5" pointer-events="none"/>
  </g>
  <g id="arrowUp" transform="translate(30 24)">
    <use xlink:href="#rim"/>
    <path pointer-events="none" fill="none" stroke="white" stroke-width="1.5" d="M0,-3.0v7 M-2.5,-0.5L0,-3.0L2.5,-0.5"/>
  </g>
  <g id="arrowRight" transform="rotate(90) translate(36 -43)">
    <use xlink:href="#rim"/>
    <path pointer-events="none" fill="none" stroke="white" stroke-width="1.5" d="M0,-3.0v7 M-2.5,-0.5L0,-3.0L2.5,-0.5"/>
  </g>
  <g id="arrowDown" transform="rotate(180) translate(-30 -48)">
    <use xlink:href="#rim"/>
    <path pointer-events="none" fill="none" stroke="white" stroke-width="1.5" d="M0,-3.0v7 M-2.5,-0.5L0,-3.0L2.5,-0.5"/>
  </g>
  <g id="arrowLeft" transform="rotate(270) translate(-36 17)">
    <use xlink:href="#rim"/>
    <path pointer-events="none" fill="none" stroke="white" stroke-width="1.5" d="M0,-3.0v7 M-2.5,-0.5L0,-3.0L2.5,-0.5"/>
  </g>
  <g id="resetDef">
    <use xlink:href="#rim2" fill="#404040"><set attributeName="fill" to="#808080" begin="reset.mouseover" end="reset.mouseout"/></use>
  </g>
</defs>
<script type="application/ecmascript">
var viewWidth = 966;
var viewHeight = 95;
var sectionId = 'dynsection-0';
</script>
<script type="application/ecmascript" xlink:href="svg.min.js"/>
<svg id="graph" class="graph">
<g id="viewport">
<title>/Users/berka/Documents/FRC/src/allwpilib/wpilibj/src/main/java/edu/wpi/first/wpilibj</title>
<g id="clust1" class="cluster">
<title>clusterdir_4cc46ca77cb2c70d82502f3153a50a25</title>
<g id="a_clust1"><a xlink:href="dir_4cc46ca77cb2c70d82502f3153a50a25.html" target="_top" xlink:title="first">
<polygon fill="#edf0f7" stroke="#7f7f7f" stroke-dasharray="5,2" points="8,-8 8,-78.5 950,-78.5 950,-8 8,-8"/>
<text text-anchor="middle" x="479" y="-65" font-family="Helvetica,sans-Serif" font-size="10.00">first</text>
</a>
</g>
</g>
<g id="clust2" class="cluster">
<title>clusterdir_e5b9220a6b4352c890a7db00c89798ed</title>
<g id="a_clust2"><a xlink:href="dir_e5b9220a6b4352c890a7db00c89798ed.html" target="_top">
<polygon fill="#edf0f7" stroke="#404040" stroke-width="2" points="16,-16 16,-51.25 942,-51.25 942,-16 16,-16"/>
</a>
</g>
</g>
<!-- dir_e5b9220a6b4352c890a7db00c89798ed -->
<g id="node1" class="node">
<title>dir_e5b9220a6b4352c890a7db00c89798ed</title>
<text text-anchor="middle" x="912" y="-29.75" font-family="Helvetica,sans-Serif" font-size="10.00">wpilibj</text>
</g>
<!-- dir_934d3390b6c03919f13eca060bcd2877 -->
<g id="node2" class="node">
<title>dir_934d3390b6c03919f13eca060bcd2877</title>
<g id="a_node2"><a xlink:href="dir_934d3390b6c03919f13eca060bcd2877.html" target="_top" xlink:title="counter">
<polygon fill="#a2b4d6" stroke="#404040" points="872.12,-43.25 823.88,-43.25 823.88,-24 872.12,-24 872.12,-43.25"/>
<text text-anchor="middle" x="848" y="-29.75" font-family="Helvetica,sans-Serif" font-size="10.00">counter</text>
</a>
</g>
</g>
<!-- dir_608c35a67185451a7f618213115241a2 -->
<g id="node3" class="node">
<title>dir_608c35a67185451a7f618213115241a2</title>
<g id="a_node3"><a xlink:href="dir_608c35a67185451a7f618213115241a2.html" target="_top" xlink:title="drive">
<polygon fill="#a2b4d6" stroke="#404040" points="805.5,-43.25 768.5,-43.25 768.5,-24 805.5,-24 805.5,-43.25"/>
<text text-anchor="middle" x="787" y="-29.75" font-family="Helvetica,sans-Serif" font-size="10.00">drive</text>
</a>
</g>
</g>
<!-- dir_75199549932f17a40ce1d86e82b56012 -->
<g id="node4" class="node">
<title>dir_75199549932f17a40ce1d86e82b56012</title>
<g id="a_node4"><a xlink:href="dir_75199549932f17a40ce1d86e82b56012.html" target="_top" xlink:title="event">
<polygon fill="#a2b4d6" stroke="#404040" points="750,-43.25 710,-43.25 710,-24 750,-24 750,-43.25"/>
<text text-anchor="middle" x="730" y="-29.75" font-family="Helvetica,sans-Serif" font-size="10.00">event</text>
</a>
</g>
</g>
<!-- dir_45bdb7fae50fdb5c3e1ad03617f6e7be -->
<g id="node5" class="node">
<title>dir_45bdb7fae50fdb5c3e1ad03617f6e7be</title>
<g id="a_node5"><a xlink:href="dir_45bdb7fae50fdb5c3e1ad03617f6e7be.html" target="_top" xlink:title="interfaces">
<polygon fill="#a2b4d6" stroke="#404040" points="692.38,-43.25 633.62,-43.25 633.62,-24 692.38,-24 692.38,-43.25"/>
<text text-anchor="middle" x="663" y="-29.75" font-family="Helvetica,sans-Serif" font-size="10.00">interfaces</text>
</a>
</g>
</g>
<!-- dir_28f6d3a75228311aabd853716ef98d7f -->
<g id="node6" class="node">
<title>dir_28f6d3a75228311aabd853716ef98d7f</title>
<g id="a_node6"><a xlink:href="dir_28f6d3a75228311aabd853716ef98d7f.html" target="_top" xlink:title="internal">
<polygon fill="#a2b4d6" stroke="#404040" points="615.75,-43.25 568.25,-43.25 568.25,-24 615.75,-24 615.75,-43.25"/>
<text text-anchor="middle" x="592" y="-29.75" font-family="Helvetica,sans-Serif" font-size="10.00">internal</text>
</a>
</g>
</g>
<!-- dir_51b95fb9f4e0399099dc8a20615d8758 -->
<g id="node7" class="node">
<title>dir_51b95fb9f4e0399099dc8a20615d8758</title>
<g id="a_node7"><a xlink:href="dir_51b95fb9f4e0399099dc8a20615d8758.html" target="_top" xlink:title="livewindow">
<polygon fill="#a2b4d6" stroke="#404040" points="550,-43.25 486,-43.25 486,-24 550,-24 550,-43.25"/>
<text text-anchor="middle" x="518" y="-29.75" font-family="Helvetica,sans-Serif" font-size="10.00">livewindow</text>
</a>
</g>
</g>
<!-- dir_5846432faef633c78cccadde6780f27f -->
<g id="node8" class="node">
<title>dir_5846432faef633c78cccadde6780f27f</title>
<g id="a_node8"><a xlink:href="dir_5846432faef633c78cccadde6780f27f.html" target="_top" xlink:title="motorcontrol">
<polygon fill="#a2b4d6" stroke="#404040" points="468,-43.25 398,-43.25 398,-24 468,-24 468,-43.25"/>
<text text-anchor="middle" x="433" y="-29.75" font-family="Helvetica,sans-Serif" font-size="10.00">motorcontrol</text>
</a>
</g>
</g>
<!-- dir_984fa6a8f0efceb869d57775d9a06956 -->
<g id="node9" class="node">
<title>dir_984fa6a8f0efceb869d57775d9a06956</title>
<g id="a_node9"><a xlink:href="dir_984fa6a8f0efceb869d57775d9a06956.html" target="_top" xlink:title="shuffleboard">
<polygon fill="#a2b4d6" stroke="#404040" points="379.62,-43.25 310.38,-43.25 310.38,-24 379.62,-24 379.62,-43.25"/>
<text text-anchor="middle" x="345" y="-29.75" font-family="Helvetica,sans-Serif" font-size="10.00">shuffleboard</text>
</a>
</g>
</g>
<!-- dir_8922a5bfa6ab0166de390cf14301dd26 -->
<g id="node10" class="node">
<title>dir_8922a5bfa6ab0166de390cf14301dd26</title>
<g id="a_node10"><a xlink:href="dir_8922a5bfa6ab0166de390cf14301dd26.html" target="_top" xlink:title="simulation">
<polygon fill="#a2b4d6" stroke="#404040" points="292.12,-43.25 231.88,-43.25 231.88,-24 292.12,-24 292.12,-43.25"/>
<text text-anchor="middle" x="262" y="-29.75" font-family="Helvetica,sans-Serif" font-size="10.00">simulation</text>
</a>
</g>
</g>
<!-- dir_4ea055fb4ee672739f15d49305b5ee5c -->
<g id="node11" class="node">
<title>dir_4ea055fb4ee672739f15d49305b5ee5c</title>
<g id="a_node11"><a xlink:href="dir_4ea055fb4ee672739f15d49305b5ee5c.html" target="_top" xlink:title="smartdashboard">
<polygon fill="#a2b4d6" stroke="#404040" points="213.88,-43.25 128.12,-43.25 128.12,-24 213.88,-24 213.88,-43.25"/>
<text text-anchor="middle" x="171" y="-29.75" font-family="Helvetica,sans-Serif" font-size="10.00">smartdashboard</text>
</a>
</g>
</g>
<!-- dir_c464d786869228b65eb13b90241fb894 -->
<g id="node12" class="node">
<title>dir_c464d786869228b65eb13b90241fb894</title>
<g id="a_node12"><a xlink:href="dir_c464d786869228b65eb13b90241fb894.html" target="_top" xlink:title="sysid">
<polygon fill="#a2b4d6" stroke="#404040" points="109.62,-43.25 70.38,-43.25 70.38,-24 109.62,-24 109.62,-43.25"/>
<text text-anchor="middle" x="90" y="-29.75" font-family="Helvetica,sans-Serif" font-size="10.00">sysid</text>
</a>
</g>
</g>
<!-- dir_e8d47ac45b1be5eacf704543156f0525 -->
<g id="node13" class="node">
<title>dir_e8d47ac45b1be5eacf704543156f0525</title>
<g id="a_node13"><a xlink:href="dir_e8d47ac45b1be5eacf704543156f0525.html" target="_top" xlink:title="util">
<polygon fill="#a2b4d6" stroke="#404040" points="52.4,-43.25 23.6,-43.25 23.6,-24 52.4,-24 52.4,-43.25"/>
<text text-anchor="middle" x="38" y="-29.75" font-family="Helvetica,sans-Serif" font-size="10.00">util</text>
</a>
</g>
</g>
</g>
</svg>

<g id="navigator" transform="translate(0 0)" fill="#404254">
  <rect fill="#f2f5e9" fill-opacity="0.5" stroke="#606060" stroke-width=".5" x="0" y="0" width="60" height="60"/>
  <use id="zoomplus" xlink:href="#zoomPlus" x="17" y="9" onmousedown="handleZoom(evt,'in')"/>
  <use id="zoomminus" xlink:href="#zoomMin" x="42" y="9" onmousedown="handleZoom(evt,'out')"/>
  <use id="reset" xlink:href="#resetDef" x="30" y="36" onmousedown="handleReset()"/>
   <use id="arrowup" xlink:href="#arrowUp" x="0" y="0" onmousedown="handlePan(0,-1)"/>
  <use id="arrowright" xlink:href="#arrowRight" x="0" y="0" onmousedown="handlePan(1,0)"/>
  <use id="arrowdown" xlink:href="#arrowDown" x="0" y="0" onmousedown="handlePan(0,1)"/>
  <use id="arrowleft" xlink:href="#arrowLeft" x="0" y="0" onmousedown="handlePan(-1,0)"/>
</g>
<svg viewBox="0 0 15 15" width="100%" height="30px" preserveAspectRatio="xMaxYMin meet">
 <g id="arrow_out" transform="scale(0.3 0.3)">
  <a xlink:href="dir_e5b9220a6b4352c890a7db00c89798ed_dep_org.svg" target="_base">
   <rect id="button" ry="5" rx="5" y="6" x="6" height="38" width="38"
        fill="#f2f5e9" fill-opacity="0.5" stroke="#606060" stroke-width="1.0"/>
   <path id="arrow"
     d="M 11.500037,31.436501 C 11.940474,20.09759 22.043105,11.32322 32.158766,21.979434 L 37.068811,17.246167 C 37.068811,17.246167 37.088388,32 37.088388,32 L 22.160133,31.978069 C 22.160133,31.978069 26.997745,27.140456 26.997745,27.140456 C 18.528582,18.264221 13.291696,25.230495 11.500037,31.436501 z"
     style="fill:#404040;"/>
  </a>
 </g>
</svg>

<style type='text/css'>
<![CDATA[
[data-mouse-over-selected='false'] { opacity: 0.7; }
[data-mouse-over-selected='true']  { opacity: 1.0; }
]]>
</style>
<script type="application/ecmascript"><![CDATA[
document.addEventListener('DOMContentLoaded', (event) => {
  highlightEdges();
  highlightAdjacentNodes();
});
]]></script>
</svg>
