<?xml version="1.0" encoding="UTF-8" standalone="no"?>
<!DOCTYPE svg PUBLIC "-//W3C//DTD SVG 1.1//EN"
 "http://www.w3.org/Graphics/SVG/1.1/DTD/svg11.dtd">
<!-- Generated by graphviz version 9.0.0 (20230911.1827)
 -->
<!-- Title: /Users/berka/Documents/FRC/src/allwpilib/wpilibj/src/test/java/edu/wpi/first/wpilibj Pages: 1 -->
<!--zoomable 95 -->

<svg id="main" version="1.1" xmlns="http://www.w3.org/2000/svg" xmlns:xlink="http://www.w3.org/1999/xlink" xml:space="preserve" onload="init(evt)">
<style type="text/css"><![CDATA[
.node, .edge {opacity: 0.7;}
.node.selected, .edge.selected {opacity: 1;}
.edge:hover path { stroke: red; }
.edge:hover polygon { stroke: red; fill: red; }
]]></style>

<defs>
  <circle id="rim" cx="0" cy="0" r="7"/>
  <circle id="rim2" cx="0" cy="0" r="3.5"/>
  <g id="zoomPlus">
    <use xlink:href="#rim" fill="#404040"><set attributeName="fill" to="#808080" begin="zoomplus.mouseover" end="zoomplus.mouseout"/></use>
    <path d="M-4,0h8M0,-4v8" fill="none" stroke="white" stroke-width="1.5" pointer-events="none"/>
  </g>
  <g id="zoomMin">
    <use xlink:href="#rim" fill="#404040"><set attributeName="fill" to="#808080" begin="zoomminus.mouseover" end="zoomminus.mouseout"/></use>
    <path d="M-4,0h8" fill="none" stroke="white" stroke-width="1.5" pointer-events="none"/>
  </g>
  <g id="arrowUp" transform="translate(30 24)">
    <use xlink:href="#rim"/>
    <path pointer-events="none" fill="none" stroke="white" stroke-width="1.5" d="M0,-3.0v7 M-2.5,-0.5L0,-3.0L2.5,-0.5"/>
  </g>
  <g id="arrowRight" transform="rotate(90) translate(36 -43)">
    <use xlink:href="#rim"/>
    <path pointer-events="none" fill="none" stroke="white" stroke-width="1.5" d="M0,-3.0v7 M-2.5,-0.5L0,-3.0L2.5,-0.5"/>
  </g>
  <g id="arrowDown" transform="rotate(180) translate(-30 -48)">
    <use xlink:href="#rim"/>
    <path pointer-events="none" fill="none" stroke="white" stroke-width="1.5" d="M0,-3.0v7 M-2.5,-0.5L0,-3.0L2.5,-0.5"/>
  </g>
  <g id="arrowLeft" transform="rotate(270) translate(-36 17)">
    <use xlink:href="#rim"/>
    <path pointer-events="none" fill="none" stroke="white" stroke-width="1.5" d="M0,-3.0v7 M-2.5,-0.5L0,-3.0L2.5,-0.5"/>
  </g>
  <g id="resetDef">
    <use xlink:href="#rim2" fill="#404040"><set attributeName="fill" to="#808080" begin="reset.mouseover" end="reset.mouseout"/></use>
  </g>
</defs>
<script type="application/ecmascript">
var viewWidth = 794;
var viewHeight = 95;
var sectionId = 'dynsection-0';
</script>
<script type="application/ecmascript" xlink:href="svg.min.js"/>
<svg id="graph" class="graph">
<g id="viewport">
<title>/Users/berka/Documents/FRC/src/allwpilib/wpilibj/src/test/java/edu/wpi/first/wpilibj</title>
<g id="clust1" class="cluster">
<title>clusterdir_16c0c14bd630a25e50ec464b3e59b201</title>
<g id="a_clust1"><a xlink:href="dir_16c0c14bd630a25e50ec464b3e59b201.html" target="_top" xlink:title="first">
<polygon fill="#edf0f7" stroke="#7f7f7f" stroke-dasharray="5,2" points="8,-8 8,-78.5 778,-78.5 778,-8 8,-8"/>
<text text-anchor="middle" x="393" y="-65" font-family="Helvetica,sans-Serif" font-size="10.00">first</text>
</a>
</g>
</g>
<g id="clust2" class="cluster">
<title>clusterdir_c13eb64a3e74f347b5d680e3aabf610b</title>
<g id="a_clust2"><a xlink:href="dir_c13eb64a3e74f347b5d680e3aabf610b.html" target="_top">
<polygon fill="#edf0f7" stroke="#404040" stroke-width="2" points="16,-16 16,-51.25 770,-51.25 770,-16 16,-16"/>
</a>
</g>
</g>
<!-- dir_c13eb64a3e74f347b5d680e3aabf610b -->
<g id="node1" class="node">
<title>dir_c13eb64a3e74f347b5d680e3aabf610b</title>
<text text-anchor="middle" x="740" y="-29.75" font-family="Helvetica,sans-Serif" font-size="10.00">wpilibj</text>
</g>
<!-- dir_8736164d93b0c917b7cc8bde08dfb0cb -->
<g id="node2" class="node">
<title>dir_8736164d93b0c917b7cc8bde08dfb0cb</title>
<g id="a_node2"><a xlink:href="dir_8736164d93b0c917b7cc8bde08dfb0cb.html" target="_top" xlink:title="can">
<polygon fill="#a2b4d6" stroke="#404040" points="700.88,-43.25 669.12,-43.25 669.12,-24 700.88,-24 700.88,-43.25"/>
<text text-anchor="middle" x="685" y="-29.75" font-family="Helvetica,sans-Serif" font-size="10.00">can</text>
</a>
</g>
</g>
<!-- dir_23da6b1b3b204f0b3087cbd9f46427f7 -->
<g id="node3" class="node">
<title>dir_23da6b1b3b204f0b3087cbd9f46427f7</title>
<g id="a_node3"><a xlink:href="dir_23da6b1b3b204f0b3087cbd9f46427f7.html" target="_top" xlink:title="drive">
<polygon fill="#a2b4d6" stroke="#404040" points="651.5,-43.25 614.5,-43.25 614.5,-24 651.5,-24 651.5,-43.25"/>
<text text-anchor="middle" x="633" y="-29.75" font-family="Helvetica,sans-Serif" font-size="10.00">drive</text>
</a>
</g>
</g>
<!-- dir_6a1262f0b6ad1592b9e07751ec6c4a21 -->
<g id="node4" class="node">
<title>dir_6a1262f0b6ad1592b9e07751ec6c4a21</title>
<g id="a_node4"><a xlink:href="dir_6a1262f0b6ad1592b9e07751ec6c4a21.html" target="_top" xlink:title="event">
<polygon fill="#a2b4d6" stroke="#404040" points="596,-43.25 556,-43.25 556,-24 596,-24 596,-43.25"/>
<text text-anchor="middle" x="576" y="-29.75" font-family="Helvetica,sans-Serif" font-size="10.00">event</text>
</a>
</g>
</g>
<!-- dir_b71c253524ba59691cee35d314d72c5d -->
<g id="node5" class="node">
<title>dir_b71c253524ba59691cee35d314d72c5d</title>
<g id="a_node5"><a xlink:href="dir_b71c253524ba59691cee35d314d72c5d.html" target="_top" xlink:title="hal">
<polygon fill="#a2b4d6" stroke="#404040" points="538.4,-43.25 509.6,-43.25 509.6,-24 538.4,-24 538.4,-43.25"/>
<text text-anchor="middle" x="524" y="-29.75" font-family="Helvetica,sans-Serif" font-size="10.00">hal</text>
</a>
</g>
</g>
<!-- dir_f542993a0df44add3c5268a8389fc066 -->
<g id="node6" class="node">
<title>dir_f542993a0df44add3c5268a8389fc066</title>
<g id="a_node6"><a xlink:href="dir_f542993a0df44add3c5268a8389fc066.html" target="_top" xlink:title="livewindow">
<polygon fill="#a2b4d6" stroke="#404040" points="492,-43.25 428,-43.25 428,-24 492,-24 492,-43.25"/>
<text text-anchor="middle" x="460" y="-29.75" font-family="Helvetica,sans-Serif" font-size="10.00">livewindow</text>
</a>
</g>
</g>
<!-- dir_ac42f1b4f4f83e06297cbaaba154fb64 -->
<g id="node7" class="node">
<title>dir_ac42f1b4f4f83e06297cbaaba154fb64</title>
<g id="a_node7"><a xlink:href="dir_ac42f1b4f4f83e06297cbaaba154fb64.html" target="_top" xlink:title="motorcontrol">
<polygon fill="#a2b4d6" stroke="#404040" points="410,-43.25 340,-43.25 340,-24 410,-24 410,-43.25"/>
<text text-anchor="middle" x="375" y="-29.75" font-family="Helvetica,sans-Serif" font-size="10.00">motorcontrol</text>
</a>
</g>
</g>
<!-- dir_857a8d5c275adb4b2501b3bab216cda1 -->
<g id="node8" class="node">
<title>dir_857a8d5c275adb4b2501b3bab216cda1</title>
<g id="a_node8"><a xlink:href="dir_857a8d5c275adb4b2501b3bab216cda1.html" target="_top" xlink:title="shuffleboard">
<polygon fill="#a2b4d6" stroke="#404040" points="321.62,-43.25 252.38,-43.25 252.38,-24 321.62,-24 321.62,-43.25"/>
<text text-anchor="middle" x="287" y="-29.75" font-family="Helvetica,sans-Serif" font-size="10.00">shuffleboard</text>
</a>
</g>
</g>
<!-- dir_de2f25ff924868d521a1a1cb3349c8d2 -->
<g id="node9" class="node">
<title>dir_de2f25ff924868d521a1a1cb3349c8d2</title>
<g id="a_node9"><a xlink:href="dir_de2f25ff924868d521a1a1cb3349c8d2.html" target="_top" xlink:title="simulation">
<polygon fill="#a2b4d6" stroke="#404040" points="234.12,-43.25 173.88,-43.25 173.88,-24 234.12,-24 234.12,-43.25"/>
<text text-anchor="middle" x="204" y="-29.75" font-family="Helvetica,sans-Serif" font-size="10.00">simulation</text>
</a>
</g>
</g>
<!-- dir_ae00d9054e8e88de7ec339b4790b437b -->
<g id="node10" class="node">
<title>dir_ae00d9054e8e88de7ec339b4790b437b</title>
<g id="a_node10"><a xlink:href="dir_ae00d9054e8e88de7ec339b4790b437b.html" target="_top" xlink:title="smartdashboard">
<polygon fill="#a2b4d6" stroke="#404040" points="155.88,-43.25 70.12,-43.25 70.12,-24 155.88,-24 155.88,-43.25"/>
<text text-anchor="middle" x="113" y="-29.75" font-family="Helvetica,sans-Serif" font-size="10.00">smartdashboard</text>
</a>
</g>
</g>
<!-- dir_4424ad66584f0b053dcb75849702dae1 -->
<g id="node11" class="node">
<title>dir_4424ad66584f0b053dcb75849702dae1</title>
<g id="a_node11"><a xlink:href="dir_4424ad66584f0b053dcb75849702dae1.html" target="_top" xlink:title="util">
<polygon fill="#a2b4d6" stroke="#404040" points="52.4,-43.25 23.6,-43.25 23.6,-24 52.4,-24 52.4,-43.25"/>
<text text-anchor="middle" x="38" y="-29.75" font-family="Helvetica,sans-Serif" font-size="10.00">util</text>
</a>
</g>
</g>
</g>
</svg>

<g id="navigator" transform="translate(0 0)" fill="#404254">
  <rect fill="#f2f5e9" fill-opacity="0.5" stroke="#606060" stroke-width=".5" x="0" y="0" width="60" height="60"/>
  <use id="zoomplus" xlink:href="#zoomPlus" x="17" y="9" onmousedown="handleZoom(evt,'in')"/>
  <use id="zoomminus" xlink:href="#zoomMin" x="42" y="9" onmousedown="handleZoom(evt,'out')"/>
  <use id="reset" xlink:href="#resetDef" x="30" y="36" onmousedown="handleReset()"/>
   <use id="arrowup" xlink:href="#arrowUp" x="0" y="0" onmousedown="handlePan(0,-1)"/>
  <use id="arrowright" xlink:href="#arrowRight" x="0" y="0" onmousedown="handlePan(1,0)"/>
  <use id="arrowdown" xlink:href="#arrowDown" x="0" y="0" onmousedown="handlePan(0,1)"/>
  <use id="arrowleft" xlink:href="#arrowLeft" x="0" y="0" onmousedown="handlePan(-1,0)"/>
</g>
<svg viewBox="0 0 15 15" width="100%" height="30px" preserveAspectRatio="xMaxYMin meet">
 <g id="arrow_out" transform="scale(0.3 0.3)">
  <a xlink:href="dir_c13eb64a3e74f347b5d680e3aabf610b_dep_org.svg" target="_base">
   <rect id="button" ry="5" rx="5" y="6" x="6" height="38" width="38"
        fill="#f2f5e9" fill-opacity="0.5" stroke="#606060" stroke-width="1.0"/>
   <path id="arrow"
     d="M 11.500037,31.436501 C 11.940474,20.09759 22.043105,11.32322 32.158766,21.979434 L 37.068811,17.246167 C 37.068811,17.246167 37.088388,32 37.088388,32 L 22.160133,31.978069 C 22.160133,31.978069 26.997745,27.140456 26.997745,27.140456 C 18.528582,18.264221 13.291696,25.230495 11.500037,31.436501 z"
     style="fill:#404040;"/>
  </a>
 </g>
</svg>

<style type='text/css'>
<![CDATA[
[data-mouse-over-selected='false'] { opacity: 0.7; }
[data-mouse-over-selected='true']  { opacity: 1.0; }
]]>
</style>
<script type="application/ecmascript"><![CDATA[
document.addEventListener('DOMContentLoaded', (event) => {
  highlightEdges();
  highlightAdjacentNodes();
});
]]></script>
</svg>
