<?xml version="1.0" encoding="UTF-8" standalone="no"?>
<!DOCTYPE svg PUBLIC "-//W3C//DTD SVG 1.1//EN"
 "http://www.w3.org/Graphics/SVG/1.1/DTD/svg11.dtd">
<!-- Generated by graphviz version 9.0.0 (20230911.1827)
 -->
<!-- Title: edu.wpi.first.wpilibj.RuntimeType.getValue Pages: 1 -->
<svg width="1032pt" height="219pt"
 viewBox="0.00 0.00 1031.75 218.82" xmlns="http://www.w3.org/2000/svg" xmlns:xlink="http://www.w3.org/1999/xlink">
<g id="graph0" class="graph" transform="scale(1 1) rotate(0) translate(4 214.82)">
<title>edu.wpi.first.wpilibj.RuntimeType.getValue</title>
<!-- Node1 -->
<g id="Node000001" class="node">
<title>Node1</title>
<g id="a_Node000001"><a xlink:title=" ">
<polygon fill="#999999" stroke="#666666" points="1023.75,-152.5 884.75,-152.5 884.75,-122 1023.75,-122 1023.75,-152.5"/>
<text text-anchor="start" x="892.75" y="-139" font-family="Helvetica,sans-Serif" font-size="10.00">edu.wpi.first.wpilibj.Runtime</text>
<text text-anchor="middle" x="954.25" y="-127.75" font-family="Helvetica,sans-Serif" font-size="10.00">Type.getValue</text>
</a>
</g>
</g>
<!-- Node2 -->
<g id="Node000002" class="node">
<title>Node2</title>
<g id="a_Node000002"><a xlink:href="classedu_1_1wpi_1_1first_1_1wpilibj_1_1_robot_base.html#acb1ab38b3fc42bd9560d2112182e9906" target="_top" xlink:title=" ">
<polygon fill="white" stroke="#666666" points="848.75,-152.5 720.25,-152.5 720.25,-122 848.75,-122 848.75,-152.5"/>
<text text-anchor="start" x="728.25" y="-139" font-family="Helvetica,sans-Serif" font-size="10.00">edu.wpi.first.wpilibj.Robot</text>
<text text-anchor="middle" x="784.5" y="-127.75" font-family="Helvetica,sans-Serif" font-size="10.00">Base.getRuntimeType</text>
</a>
</g>
</g>
<!-- Node1&#45;&gt;Node2 -->
<g id="edge1_Node000001_Node000002" class="edge">
<title>Node1&#45;&gt;Node2</title>
<g id="a_edge1_Node000001_Node000002"><a xlink:title=" ">
<path fill="none" stroke="#63b8ff" d="M873.23,-137.25C865.18,-137.25 857.09,-137.25 849.25,-137.25"/>
<polygon fill="#63b8ff" stroke="#63b8ff" points="873.02,-140.75 883.02,-137.25 873.02,-133.75 873.02,-140.75"/>
</a>
</g>
</g>
<!-- Node3 -->
<g id="Node000003" class="node">
<title>Node3</title>
<g id="a_Node000003"><a xlink:href="classedu_1_1wpi_1_1first_1_1wpilibj_1_1_robot_base.html#add52a4e70a15c7314cf5ceee06e984e8" target="_top" xlink:title=" ">
<polygon fill="white" stroke="#666666" points="684.25,-177.5 555.75,-177.5 555.75,-147 684.25,-147 684.25,-177.5"/>
<text text-anchor="start" x="563.75" y="-164" font-family="Helvetica,sans-Serif" font-size="10.00">edu.wpi.first.wpilibj.Robot</text>
<text text-anchor="middle" x="620" y="-152.75" font-family="Helvetica,sans-Serif" font-size="10.00">Base.isReal</text>
</a>
</g>
</g>
<!-- Node2&#45;&gt;Node3 -->
<g id="edge2_Node000002_Node000003" class="edge">
<title>Node2&#45;&gt;Node3</title>
<g id="a_edge2_Node000002_Node000003"><a xlink:title=" ">
<path fill="none" stroke="#63b8ff" d="M708.86,-148.73C700.77,-149.98 692.6,-151.24 684.65,-152.46"/>
<polygon fill="#63b8ff" stroke="#63b8ff" points="709.36,-152.2 718.71,-147.22 708.3,-145.28 709.36,-152.2"/>
</a>
</g>
</g>
<!-- Node4 -->
<g id="Node000004" class="node">
<title>Node4</title>
<g id="a_Node000004"><a xlink:href="classedu_1_1wpi_1_1first_1_1wpilibj_1_1_robot_base.html#a0967199dad51087ce30c24599a132d70" target="_top" xlink:title=" ">
<polygon fill="white" stroke="#666666" points="684.25,-128.5 555.75,-128.5 555.75,-98 684.25,-98 684.25,-128.5"/>
<text text-anchor="start" x="563.75" y="-115" font-family="Helvetica,sans-Serif" font-size="10.00">edu.wpi.first.wpilibj.Robot</text>
<text text-anchor="middle" x="620" y="-103.75" font-family="Helvetica,sans-Serif" font-size="10.00">Base.isSimulation</text>
</a>
</g>
</g>
<!-- Node2&#45;&gt;Node4 -->
<g id="edge3_Node000002_Node000004" class="edge">
<title>Node2&#45;&gt;Node4</title>
<g id="a_edge3_Node000002_Node000004"><a xlink:title=" ">
<path fill="none" stroke="#63b8ff" d="M708.86,-126.23C700.77,-125.03 692.6,-123.82 684.65,-122.65"/>
<polygon fill="#63b8ff" stroke="#63b8ff" points="708.31,-129.68 718.71,-127.68 709.33,-122.76 708.31,-129.68"/>
</a>
</g>
</g>
<!-- Node5 -->
<g id="Node000005" class="node">
<title>Node5</title>
<g id="a_Node000005"><a xlink:href="classedu_1_1wpi_1_1first_1_1wpilibj_1_1_filesystem.html#adef8c0b7018ff5ad8af3c4e9009db1e7" target="_top" xlink:title=" ">
<polygon fill="white" stroke="#666666" points="317,-198.5 150.25,-198.5 150.25,-168 317,-168 317,-198.5"/>
<text text-anchor="start" x="158.25" y="-185" font-family="Helvetica,sans-Serif" font-size="10.00">edu.wpi.first.wpilibj.Filesystem.get</text>
<text text-anchor="middle" x="233.62" y="-173.75" font-family="Helvetica,sans-Serif" font-size="10.00">DeployDirectory</text>
</a>
</g>
</g>
<!-- Node4&#45;&gt;Node5 -->
<g id="edge4_Node000004_Node000005" class="edge">
<title>Node4&#45;&gt;Node5</title>
<g id="a_edge4_Node000004_Node000005"><a xlink:title=" ">
<path fill="none" stroke="#63b8ff" d="M561.14,-134.48C559.28,-135.68 557.47,-136.93 555.75,-138.25 534.55,-154.43 543.6,-174.32 519.75,-186.25 448.57,-221.84 354.36,-211.55 294.11,-198.97"/>
<polygon fill="#63b8ff" stroke="#63b8ff" points="562.56,-137.7 569.52,-129.72 559.1,-131.61 562.56,-137.7"/>
</a>
</g>
</g>
<!-- Node7 -->
<g id="Node000007" class="node">
<title>Node7</title>
<g id="a_Node000007"><a xlink:href="classedu_1_1wpi_1_1first_1_1wpilibj_1_1_filesystem.html#ab0db0771adc04fb283e8191a4002d0ee" target="_top" xlink:title=" ">
<polygon fill="white" stroke="#666666" points="519.75,-177.5 353,-177.5 353,-147 519.75,-147 519.75,-177.5"/>
<text text-anchor="start" x="361" y="-164" font-family="Helvetica,sans-Serif" font-size="10.00">edu.wpi.first.wpilibj.Filesystem.get</text>
<text text-anchor="middle" x="436.38" y="-152.75" font-family="Helvetica,sans-Serif" font-size="10.00">OperatingDirectory</text>
</a>
</g>
</g>
<!-- Node4&#45;&gt;Node7 -->
<g id="edge6_Node000004_Node000007" class="edge">
<title>Node4&#45;&gt;Node7</title>
<g id="a_edge6_Node000004_Node000007"><a xlink:title=" ">
<path fill="none" stroke="#63b8ff" d="M549.82,-131.91C531.93,-136.74 512.84,-141.89 495.57,-146.55"/>
<polygon fill="#63b8ff" stroke="#63b8ff" points="550.58,-135.33 559.32,-129.35 548.76,-128.58 550.58,-135.33"/>
</a>
</g>
</g>
<!-- Node8 -->
<g id="Node000008" class="node">
<title>Node8</title>
<g id="a_Node000008"><a xlink:href="classedu_1_1wpi_1_1first_1_1wpilibj_1_1_iterative_robot_base.html#aac5c45d7130bce188e0f9278075e8891" target="_top" xlink:title=" ">
<polygon fill="white" stroke="#666666" points="505.12,-128.5 367.62,-128.5 367.62,-98 505.12,-98 505.12,-128.5"/>
<text text-anchor="start" x="375.62" y="-115" font-family="Helvetica,sans-Serif" font-size="10.00">edu.wpi.first.wpilibj.Iterative</text>
<text text-anchor="middle" x="436.38" y="-103.75" font-family="Helvetica,sans-Serif" font-size="10.00">RobotBase.loopFunc</text>
</a>
</g>
</g>
<!-- Node4&#45;&gt;Node8 -->
<g id="edge8_Node000004_Node000008" class="edge">
<title>Node4&#45;&gt;Node8</title>
<g id="a_edge8_Node000004_Node000008"><a xlink:title=" ">
<path fill="none" stroke="#63b8ff" d="M544.32,-113.25C531.47,-113.25 518.17,-113.25 505.5,-113.25"/>
<polygon fill="#63b8ff" stroke="#63b8ff" points="543.96,-116.75 553.96,-113.25 543.96,-109.75 543.96,-116.75"/>
</a>
</g>
</g>
<!-- Node9 -->
<g id="Node000009" class="node">
<title>Node9</title>
<g id="a_Node000009"><a xlink:href="classedu_1_1wpi_1_1first_1_1wpilibj_1_1_robot_base.html#aaa94c56bb5bb24b2ec7c526c0c1eac62" target="_top" xlink:title=" ">
<polygon fill="white" stroke="#666666" points="500.62,-79.5 372.12,-79.5 372.12,-49 500.62,-49 500.62,-79.5"/>
<text text-anchor="start" x="380.12" y="-66" font-family="Helvetica,sans-Serif" font-size="10.00">edu.wpi.first.wpilibj.Robot</text>
<text text-anchor="middle" x="436.38" y="-54.75" font-family="Helvetica,sans-Serif" font-size="10.00">Base.RobotBase</text>
</a>
</g>
</g>
<!-- Node4&#45;&gt;Node9 -->
<g id="edge9_Node000004_Node000009" class="edge">
<title>Node4&#45;&gt;Node9</title>
<g id="a_edge9_Node000004_Node000009"><a xlink:title=" ">
<path fill="none" stroke="#63b8ff" d="M549.82,-94.59C531.93,-89.76 512.84,-84.61 495.57,-79.95"/>
<polygon fill="#63b8ff" stroke="#63b8ff" points="548.76,-97.92 559.32,-97.15 550.58,-91.17 548.76,-97.92"/>
</a>
</g>
</g>
<!-- Node10 -->
<g id="Node000010" class="node">
<title>Node10</title>
<g id="a_Node000010"><a xlink:href="classedu_1_1wpi_1_1first_1_1wpilibj_1_1_timed_robot.html#ab78bd4fb4a764b4560fdd2a7fc1e3790" target="_top" xlink:title=" ">
<polygon fill="white" stroke="#666666" points="501,-30.5 371.75,-30.5 371.75,0 501,0 501,-30.5"/>
<text text-anchor="start" x="379.75" y="-17" font-family="Helvetica,sans-Serif" font-size="10.00">edu.wpi.first.wpilibj.Timed</text>
<text text-anchor="middle" x="436.38" y="-5.75" font-family="Helvetica,sans-Serif" font-size="10.00">Robot.startCompetition</text>
</a>
</g>
</g>
<!-- Node4&#45;&gt;Node10 -->
<g id="edge10_Node000004_Node000010" class="edge">
<title>Node4&#45;&gt;Node10</title>
<g id="a_edge10_Node000004_Node000010"><a xlink:title=" ">
<path fill="none" stroke="#63b8ff" d="M592.86,-90.16C573.73,-74.26 546.54,-53.67 519.75,-40.25 512.8,-36.77 505.28,-33.67 497.7,-30.94"/>
<polygon fill="#63b8ff" stroke="#63b8ff" points="590.52,-92.76 600.41,-96.55 595.04,-87.42 590.52,-92.76"/>
</a>
</g>
</g>
<!-- Node6 -->
<g id="Node000006" class="node">
<title>Node6</title>
<g id="a_Node000006"><a xlink:href="classfrc_1_1robot_1_1_robot.html#acdebc9c7e7e31ffccb3c2496b8d33944" target="_top" xlink:title=" ">
<polygon fill="white" stroke="#666666" points="114.25,-192.88 0,-192.88 0,-173.62 114.25,-173.62 114.25,-192.88"/>
<text text-anchor="middle" x="57.13" y="-179.38" font-family="Helvetica,sans-Serif" font-size="10.00">frc.robot.Robot.testInit</text>
</a>
</g>
</g>
<!-- Node5&#45;&gt;Node6 -->
<g id="edge5_Node000005_Node000006" class="edge">
<title>Node5&#45;&gt;Node6</title>
<g id="a_edge5_Node000005_Node000006"><a xlink:title=" ">
<path fill="none" stroke="#63b8ff" d="M138.74,-183.25C130.51,-183.25 122.36,-183.25 114.59,-183.25"/>
<polygon fill="#63b8ff" stroke="#63b8ff" points="138.46,-186.75 148.46,-183.25 138.46,-179.75 138.46,-186.75"/>
</a>
</g>
</g>
<!-- Node7&#45;&gt;Node5 -->
<g id="edge7_Node000007_Node000005" class="edge">
<title>Node7&#45;&gt;Node5</title>
<g id="a_edge7_Node000007_Node000005"><a xlink:title=" ">
<path fill="none" stroke="#63b8ff" d="M341.28,-172.09C333.25,-172.93 325.17,-173.78 317.25,-174.61"/>
<polygon fill="#63b8ff" stroke="#63b8ff" points="341.48,-175.59 351.06,-171.07 340.75,-168.63 341.48,-175.59"/>
</a>
</g>
</g>
</g>
</svg>
