<?xml version="1.0" encoding="UTF-8" standalone="no"?>
<!DOCTYPE svg PUBLIC "-//W3C//DTD SVG 1.1//EN"
 "http://www.w3.org/Graphics/SVG/1.1/DTD/svg11.dtd">
<!-- Generated by graphviz version 9.0.0 (20230911.1827)
 -->
<!-- Title: Graphical Class Hierarchy Pages: 1 -->
<svg width="337pt" height="223pt"
 viewBox="0.00 0.00 337.00 222.88" xmlns="http://www.w3.org/2000/svg" xmlns:xlink="http://www.w3.org/1999/xlink">
<g id="graph0" class="graph" transform="scale(1 1) rotate(0) translate(4 218.88)">
<title>Graphical Class Hierarchy</title>
<!-- Node0 -->
<g id="Node000000" class="node">
<title>Node0</title>
<g id="a_Node000000"><a xlink:href="classedu_1_1wpi_1_1first_1_1wpilibj_1_1_generic_h_i_d.html" target="_top" xlink:title=" ">
<polygon fill="white" stroke="#666666" points="154,-122.88 0,-122.88 0,-103.62 154,-103.62 154,-122.88"/>
<text text-anchor="middle" x="77" y="-109.38" font-family="Helvetica,sans-Serif" font-size="10.00">edu.wpi.first.wpilibj.GenericHID</text>
</a>
</g>
</g>
<!-- Node1 -->
<g id="Node000001" class="node">
<title>Node1</title>
<g id="a_Node000001"><a xlink:href="classedu_1_1wpi_1_1first_1_1wpilibj_1_1_joystick.html" target="_top" xlink:title=" ">
<polygon fill="white" stroke="#666666" points="329,-214.88 190,-214.88 190,-195.62 329,-195.62 329,-214.88"/>
<text text-anchor="middle" x="259.5" y="-201.38" font-family="Helvetica,sans-Serif" font-size="10.00">edu.wpi.first.wpilibj.Joystick</text>
</a>
</g>
</g>
<!-- Node0&#45;&gt;Node1 -->
<g id="edge150_Node000000_Node000001" class="edge">
<title>Node0&#45;&gt;Node1</title>
<g id="a_edge150_Node000000_Node000001"><a xlink:title=" ">
<path fill="none" stroke="#63b8ff" d="M99.34,-130.04C121.06,-146.41 156.25,-171.01 190,-186.25 197.65,-189.7 206.07,-192.66 214.31,-195.15"/>
<polygon fill="#63b8ff" stroke="#63b8ff" points="101.63,-127.38 91.56,-124.08 97.37,-132.94 101.63,-127.38"/>
</a>
</g>
</g>
<!-- Node2 -->
<g id="Node000002" class="node">
<title>Node2</title>
<g id="a_Node000002"><a xlink:href="classedu_1_1wpi_1_1first_1_1wpilibj_1_1_p_s4_controller.html" target="_top" xlink:title=" ">
<polygon fill="white" stroke="#666666" points="320,-177.5 199,-177.5 199,-147 320,-147 320,-177.5"/>
<text text-anchor="start" x="207" y="-164" font-family="Helvetica,sans-Serif" font-size="10.00">edu.wpi.first.wpilibj.PS4</text>
<text text-anchor="middle" x="259.5" y="-152.75" font-family="Helvetica,sans-Serif" font-size="10.00">Controller</text>
</a>
</g>
</g>
<!-- Node0&#45;&gt;Node2 -->
<g id="edge151_Node000000_Node000002" class="edge">
<title>Node0&#45;&gt;Node2</title>
<g id="a_edge151_Node000000_Node000002"><a xlink:title=" ">
<path fill="none" stroke="#63b8ff" d="M125.82,-126.23C148.77,-132.46 176.48,-139.98 200.62,-146.54"/>
<polygon fill="#63b8ff" stroke="#63b8ff" points="126.99,-122.92 116.42,-123.68 125.16,-129.68 126.99,-122.92"/>
</a>
</g>
</g>
<!-- Node3 -->
<g id="Node000003" class="node">
<title>Node3</title>
<g id="a_Node000003"><a xlink:href="classedu_1_1wpi_1_1first_1_1wpilibj_1_1_p_s5_controller.html" target="_top" xlink:title=" ">
<polygon fill="white" stroke="#666666" points="320,-128.5 199,-128.5 199,-98 320,-98 320,-128.5"/>
<text text-anchor="start" x="207" y="-115" font-family="Helvetica,sans-Serif" font-size="10.00">edu.wpi.first.wpilibj.PS5</text>
<text text-anchor="middle" x="259.5" y="-103.75" font-family="Helvetica,sans-Serif" font-size="10.00">Controller</text>
</a>
</g>
</g>
<!-- Node0&#45;&gt;Node3 -->
<g id="edge152_Node000000_Node000003" class="edge">
<title>Node0&#45;&gt;Node3</title>
<g id="a_edge152_Node000000_Node000003"><a xlink:title=" ">
<path fill="none" stroke="#63b8ff" d="M165.47,-113.25C176.7,-113.25 187.98,-113.25 198.63,-113.25"/>
<polygon fill="#63b8ff" stroke="#63b8ff" points="165.8,-109.75 155.8,-113.25 165.8,-116.75 165.8,-109.75"/>
</a>
</g>
</g>
<!-- Node4 -->
<g id="Node000004" class="node">
<title>Node4</title>
<g id="a_Node000004"><a xlink:href="classedu_1_1wpi_1_1first_1_1wpilibj_1_1_stadia_controller.html" target="_top" xlink:title=" ">
<polygon fill="white" stroke="#666666" points="324.5,-79.5 194.5,-79.5 194.5,-49 324.5,-49 324.5,-79.5"/>
<text text-anchor="start" x="202.5" y="-66" font-family="Helvetica,sans-Serif" font-size="10.00">edu.wpi.first.wpilibj.Stadia</text>
<text text-anchor="middle" x="259.5" y="-54.75" font-family="Helvetica,sans-Serif" font-size="10.00">Controller</text>
</a>
</g>
</g>
<!-- Node0&#45;&gt;Node4 -->
<g id="edge153_Node000000_Node000004" class="edge">
<title>Node0&#45;&gt;Node4</title>
<g id="a_edge153_Node000000_Node000004"><a xlink:title=" ">
<path fill="none" stroke="#63b8ff" d="M125.82,-100.27C148.77,-94.04 176.48,-86.52 200.62,-79.96"/>
<polygon fill="#63b8ff" stroke="#63b8ff" points="125.16,-96.82 116.42,-102.82 126.99,-103.58 125.16,-96.82"/>
</a>
</g>
</g>
<!-- Node5 -->
<g id="Node000005" class="node">
<title>Node5</title>
<g id="a_Node000005"><a xlink:href="classedu_1_1wpi_1_1first_1_1wpilibj_1_1_xbox_controller.html" target="_top" xlink:title=" ">
<polygon fill="white" stroke="#666666" points="321.88,-30.5 197.12,-30.5 197.12,0 321.88,0 321.88,-30.5"/>
<text text-anchor="start" x="205.12" y="-17" font-family="Helvetica,sans-Serif" font-size="10.00">edu.wpi.first.wpilibj.Xbox</text>
<text text-anchor="middle" x="259.5" y="-5.75" font-family="Helvetica,sans-Serif" font-size="10.00">Controller</text>
</a>
</g>
</g>
<!-- Node0&#45;&gt;Node5 -->
<g id="edge154_Node000000_Node000005" class="edge">
<title>Node0&#45;&gt;Node5</title>
<g id="a_edge154_Node000000_Node000005"><a xlink:title=" ">
<path fill="none" stroke="#63b8ff" d="M100.33,-96.51C122.3,-80.56 157.24,-56.64 190,-40.25 196.68,-36.91 203.92,-33.78 211.11,-30.94"/>
<polygon fill="#63b8ff" stroke="#63b8ff" points="98.4,-93.58 92.41,-102.32 102.55,-99.22 98.4,-93.58"/>
</a>
</g>
</g>
</g>
</svg>
