<?xml version="1.0" encoding="UTF-8" standalone="no"?>
<!DOCTYPE svg PUBLIC "-//W3C//DTD SVG 1.1//EN"
 "http://www.w3.org/Graphics/SVG/1.1/DTD/svg11.dtd">
<!-- Generated by graphviz version 9.0.0 (20230911.1827)
 -->
<!-- Title: Graphical Class Hierarchy Pages: 1 -->
<svg width="258pt" height="64pt"
 viewBox="0.00 0.00 258.25 64.25" xmlns="http://www.w3.org/2000/svg" xmlns:xlink="http://www.w3.org/1999/xlink">
<g id="graph0" class="graph" transform="scale(1 1) rotate(0) translate(4 60.25)">
<title>Graphical Class Hierarchy</title>
<!-- Node0 -->
<g id="Node000000" class="node">
<title>Node0</title>
<g id="a_Node000000"><a xlink:title=" ">
<polygon fill="#e0e0e0" stroke="#999999" points="68.5,-56.25 0,-56.25 0,-37 68.5,-37 68.5,-56.25"/>
<text text-anchor="middle" x="34.25" y="-42.75" font-family="Helvetica,sans-Serif" font-size="10.00">Comparable</text>
</a>
</g>
</g>
<!-- Node1 -->
<g id="Node000001" class="node">
<title>Node1</title>
<g id="a_Node000001"><a xlink:href="classedu_1_1wpi_1_1first_1_1wpilibj_1_1_watchdog.html" target="_top" xlink:title=" ">
<polygon fill="white" stroke="#666666" points="250.25,-56.25 104.5,-56.25 104.5,-37 250.25,-37 250.25,-56.25"/>
<text text-anchor="middle" x="177.38" y="-42.75" font-family="Helvetica,sans-Serif" font-size="10.00">edu.wpi.first.wpilibj.Watchdog</text>
</a>
</g>
</g>
<!-- Node0&#45;&gt;Node1 -->
<g id="edge146_Node000000_Node000001" class="edge">
<title>Node0&#45;&gt;Node1</title>
<g id="a_edge146_Node000000_Node000001"><a xlink:title=" ">
<path fill="none" stroke="#63b8ff" d="M80.02,-46.62C87.77,-46.62 96,-46.62 104.26,-46.62"/>
<polygon fill="#63b8ff" stroke="#63b8ff" points="80.21,-43.13 70.21,-46.63 80.21,-50.13 80.21,-43.13"/>
</a>
</g>
</g>
<!-- Node2 -->
<g id="Node000002" class="node">
<title>Node2</title>
<g id="a_Node000002"><a xlink:title=" ">
<polygon fill="#e0e0e0" stroke="#999999" points="64,-19.25 4.5,-19.25 4.5,0 64,0 64,-19.25"/>
<text text-anchor="middle" x="34.25" y="-5.75" font-family="Helvetica,sans-Serif" font-size="10.00">Closeable</text>
</a>
</g>
</g>
<!-- Node2&#45;&gt;Node1 -->
<g id="edge148_Node000002_Node000001" class="edge">
<title>Node2&#45;&gt;Node1</title>
<g id="a_edge148_Node000002_Node000001"><a xlink:title=" ">
<path fill="none" stroke="#63b8ff" d="M75.1,-20.72C84.72,-23.36 94.97,-26.12 104.5,-28.62 114.45,-31.24 125.21,-33.97 135.28,-36.5"/>
<polygon fill="#63b8ff" stroke="#63b8ff" points="76.22,-17.4 65.65,-18.12 74.36,-24.15 76.22,-17.4"/>
</a>
</g>
</g>
<!-- Node3 -->
<g id="Node000003" class="node">
<title>Node3</title>
<g id="a_Node000003"><a xlink:href="classedu_1_1wpi_1_1first_1_1wpilibj_1_1_c_a_n.html" target="_top" xlink:title=" ">
<polygon fill="white" stroke="#666666" points="239.38,-19.25 115.38,-19.25 115.38,0 239.38,0 239.38,-19.25"/>
<text text-anchor="middle" x="177.38" y="-5.75" font-family="Helvetica,sans-Serif" font-size="10.00">edu.wpi.first.wpilibj.CAN</text>
</a>
</g>
</g>
<!-- Node2&#45;&gt;Node3 -->
<g id="edge147_Node000002_Node000003" class="edge">
<title>Node2&#45;&gt;Node3</title>
<g id="a_edge147_Node000002_Node000003"><a xlink:title=" ">
<path fill="none" stroke="#63b8ff" d="M75.75,-9.62C88.04,-9.62 101.83,-9.62 115.16,-9.62"/>
<polygon fill="#63b8ff" stroke="#63b8ff" points="76,-6.13 66,-9.63 76,-13.13 76,-6.13"/>
</a>
</g>
</g>
</g>
</svg>
