<?xml version="1.0" encoding="UTF-8" standalone="no"?>
<!DOCTYPE svg PUBLIC "-//W3C//DTD SVG 1.1//EN"
 "http://www.w3.org/Graphics/SVG/1.1/DTD/svg11.dtd">
<!-- Generated by graphviz version 9.0.0 (20230911.1827)
 -->
<!-- Title: Graphical Class Hierarchy Pages: 1 -->
<svg width="425pt" height="39pt"
 viewBox="0.00 0.00 425.00 38.50" xmlns="http://www.w3.org/2000/svg" xmlns:xlink="http://www.w3.org/1999/xlink">
<g id="graph0" class="graph" transform="scale(1 1) rotate(0) translate(4 34.5)">
<title>Graphical Class Hierarchy</title>
<!-- Node0 -->
<g id="Node000000" class="node">
<title>Node0</title>
<g id="a_Node000000"><a xlink:title=" ">
<polygon fill="#e0e0e0" stroke="#999999" points="86.5,-24.88 0,-24.88 0,-5.63 86.5,-5.63 86.5,-24.88"/>
<text text-anchor="middle" x="43.25" y="-11.38" font-family="Helvetica,sans-Serif" font-size="10.00">BooleanSupplier</text>
</a>
</g>
</g>
<!-- Node1 -->
<g id="Node000001" class="node">
<title>Node1</title>
<g id="a_Node000001"><a xlink:href="classedu_1_1wpi_1_1first_1_1wpilibj_1_1event_1_1_boolean_event.html" target="_top" xlink:title=" ">
<polygon fill="white" stroke="#666666" points="251.75,-30.5 122.5,-30.5 122.5,0 251.75,0 251.75,-30.5"/>
<text text-anchor="start" x="130.5" y="-17" font-family="Helvetica,sans-Serif" font-size="10.00">edu.wpi.first.wpilibj.event.</text>
<text text-anchor="middle" x="187.12" y="-5.75" font-family="Helvetica,sans-Serif" font-size="10.00">BooleanEvent</text>
</a>
</g>
</g>
<!-- Node0&#45;&gt;Node1 -->
<g id="edge140_Node000000_Node000001" class="edge">
<title>Node0&#45;&gt;Node1</title>
<g id="a_edge140_Node000000_Node000001"><a xlink:title=" ">
<path fill="none" stroke="#63b8ff" d="M98.33,-15.25C106.09,-15.25 114.14,-15.25 122.08,-15.25"/>
<polygon fill="#63b8ff" stroke="#63b8ff" points="98.33,-11.75 88.33,-15.25 98.33,-18.75 98.33,-11.75"/>
</a>
</g>
</g>
<!-- Node2 -->
<g id="Node000002" class="node">
<title>Node2</title>
<g id="a_Node000002"><a xlink:href="classedu_1_1wpi_1_1first_1_1wpilibj_1_1event_1_1_network_boolean_event.html" target="_top" xlink:title=" ">
<polygon fill="white" stroke="#666666" points="417,-30.5 287.75,-30.5 287.75,0 417,0 417,-30.5"/>
<text text-anchor="start" x="295.75" y="-17" font-family="Helvetica,sans-Serif" font-size="10.00">edu.wpi.first.wpilibj.event.</text>
<text text-anchor="middle" x="352.38" y="-5.75" font-family="Helvetica,sans-Serif" font-size="10.00">NetworkBooleanEvent</text>
</a>
</g>
</g>
<!-- Node1&#45;&gt;Node2 -->
<g id="edge141_Node000001_Node000002" class="edge">
<title>Node1&#45;&gt;Node2</title>
<g id="a_edge141_Node000001_Node000002"><a xlink:title=" ">
<path fill="none" stroke="#63b8ff" d="M263.46,-15.25C271.5,-15.25 279.62,-15.25 287.51,-15.25"/>
<polygon fill="#63b8ff" stroke="#63b8ff" points="263.69,-11.75 253.69,-15.25 263.69,-18.75 263.69,-11.75"/>
</a>
</g>
</g>
</g>
</svg>
