<?xml version="1.0" encoding="UTF-8" standalone="no"?>
<!DOCTYPE svg PUBLIC "-//W3C//DTD SVG 1.1//EN"
 "http://www.w3.org/Graphics/SVG/1.1/DTD/svg11.dtd">
<!-- Generated by graphviz version 9.0.0 (20230911.1827)
 -->
<!-- Title: Graphical Class Hierarchy Pages: 1 -->
<svg width="312pt" height="174pt"
 viewBox="0.00 0.00 311.50 173.88" xmlns="http://www.w3.org/2000/svg" xmlns:xlink="http://www.w3.org/1999/xlink">
<g id="graph0" class="graph" transform="scale(1 1) rotate(0) translate(4 169.88)">
<title>Graphical Class Hierarchy</title>
<!-- Node0 -->
<g id="Node000000" class="node">
<title>Node0</title>
<g id="a_Node000000"><a xlink:title=" ">
<polygon fill="#e0e0e0" stroke="#999999" points="61,-97.88 0,-97.88 0,-78.62 61,-78.62 61,-97.88"/>
<text text-anchor="middle" x="30.5" y="-84.38" font-family="Helvetica,sans-Serif" font-size="10.00">Command</text>
</a>
</g>
</g>
<!-- Node1 -->
<g id="Node000001" class="node">
<title>Node1</title>
<g id="a_Node000001"><a xlink:href="classfrc_1_1robot_1_1_debug_command.html" target="_top" xlink:title=" ">
<polygon fill="white" stroke="#666666" points="264.5,-165.88 136,-165.88 136,-146.62 264.5,-146.62 264.5,-165.88"/>
<text text-anchor="middle" x="200.25" y="-152.38" font-family="Helvetica,sans-Serif" font-size="10.00">frc.robot.DebugCommand</text>
</a>
</g>
</g>
<!-- Node0&#45;&gt;Node1 -->
<g id="edge142_Node000000_Node000001" class="edge">
<title>Node0&#45;&gt;Node1</title>
<g id="a_edge142_Node000000_Node000001"><a xlink:title=" ">
<path fill="none" stroke="#63b8ff" d="M50.11,-105.85C62.47,-116.57 79.59,-129.62 97,-137.25 109.07,-142.54 122.57,-146.36 135.71,-149.11"/>
<polygon fill="#63b8ff" stroke="#63b8ff" points="52.55,-103.34 42.78,-99.26 47.87,-108.55 52.55,-103.34"/>
</a>
</g>
</g>
<!-- Node2 -->
<g id="Node000002" class="node">
<title>Node2</title>
<g id="a_Node000002"><a xlink:href="classfrc_1_1robot_1_1commands_1_1swervedrive_1_1drivebase_1_1_absolute_drive.html" target="_top" xlink:title=" ">
<polygon fill="white" stroke="#666666" points="303.5,-128.5 97,-128.5 97,-98 303.5,-98 303.5,-128.5"/>
<text text-anchor="start" x="105" y="-115" font-family="Helvetica,sans-Serif" font-size="10.00">frc.robot.commands.swervedrive.drivebase.</text>
<text text-anchor="middle" x="200.25" y="-103.75" font-family="Helvetica,sans-Serif" font-size="10.00">AbsoluteDrive</text>
</a>
</g>
</g>
<!-- Node0&#45;&gt;Node2 -->
<g id="edge143_Node000000_Node000002" class="edge">
<title>Node0&#45;&gt;Node2</title>
<g id="a_edge143_Node000000_Node000002"><a xlink:title=" ">
<path fill="none" stroke="#63b8ff" d="M72.7,-94.39C80.18,-95.51 88.29,-96.71 96.65,-97.96"/>
<polygon fill="#63b8ff" stroke="#63b8ff" points="73.39,-90.95 62.99,-92.94 72.36,-97.88 73.39,-90.95"/>
</a>
</g>
</g>
<!-- Node3 -->
<g id="Node000003" class="node">
<title>Node3</title>
<g id="a_Node000003"><a xlink:href="classfrc_1_1robot_1_1commands_1_1swervedrive_1_1drivebase_1_1_absolute_field_drive.html" target="_top" xlink:title=" ">
<polygon fill="white" stroke="#666666" points="303.5,-79.5 97,-79.5 97,-49 303.5,-49 303.5,-79.5"/>
<text text-anchor="start" x="105" y="-66" font-family="Helvetica,sans-Serif" font-size="10.00">frc.robot.commands.swervedrive.drivebase.</text>
<text text-anchor="middle" x="200.25" y="-54.75" font-family="Helvetica,sans-Serif" font-size="10.00">AbsoluteFieldDrive</text>
</a>
</g>
</g>
<!-- Node0&#45;&gt;Node3 -->
<g id="edge144_Node000000_Node000003" class="edge">
<title>Node0&#45;&gt;Node3</title>
<g id="a_edge144_Node000000_Node000003"><a xlink:title=" ">
<path fill="none" stroke="#63b8ff" d="M72.7,-82.36C80.18,-81.29 88.29,-80.13 96.65,-78.93"/>
<polygon fill="#63b8ff" stroke="#63b8ff" points="72.39,-78.86 62.99,-83.74 73.38,-85.79 72.39,-78.86"/>
</a>
</g>
</g>
<!-- Node4 -->
<g id="Node000004" class="node">
<title>Node4</title>
<g id="a_Node000004"><a xlink:href="classfrc_1_1robot_1_1commands_1_1swervedrive_1_1drivebase_1_1_teleop_drive.html" target="_top" xlink:title=" ">
<polygon fill="white" stroke="#666666" points="303.5,-30.5 97,-30.5 97,0 303.5,0 303.5,-30.5"/>
<text text-anchor="start" x="105" y="-17" font-family="Helvetica,sans-Serif" font-size="10.00">frc.robot.commands.swervedrive.drivebase.</text>
<text text-anchor="middle" x="200.25" y="-5.75" font-family="Helvetica,sans-Serif" font-size="10.00">TeleopDrive</text>
</a>
</g>
</g>
<!-- Node0&#45;&gt;Node4 -->
<g id="edge145_Node000000_Node000004" class="edge">
<title>Node0&#45;&gt;Node4</title>
<g id="a_edge145_Node000000_Node000004"><a xlink:title=" ">
<path fill="none" stroke="#63b8ff" d="M50.76,-70.97C63.17,-60.68 80.1,-48.13 97,-40.25 104.62,-36.7 112.8,-33.62 121.1,-30.95"/>
<polygon fill="#63b8ff" stroke="#63b8ff" points="48.69,-68.14 43.38,-77.3 53.25,-73.45 48.69,-68.14"/>
</a>
</g>
</g>
</g>
</svg>
