<?xml version="1.0" encoding="UTF-8" standalone="no"?>
<!DOCTYPE svg PUBLIC "-//W3C//DTD SVG 1.1//EN"
 "http://www.w3.org/Graphics/SVG/1.1/DTD/svg11.dtd">
<!-- Generated by graphviz version 9.0.0 (20230911.1827)
 -->
<!-- Title: Graphical Class Hierarchy Pages: 1 -->
<svg width="556pt" height="88pt"
 viewBox="0.00 0.00 555.50 87.50" xmlns="http://www.w3.org/2000/svg" xmlns:xlink="http://www.w3.org/1999/xlink">
<g id="graph0" class="graph" transform="scale(1 1) rotate(0) translate(4 83.5)">
<title>Graphical Class Hierarchy</title>
<!-- Node0 -->
<g id="Node000000" class="node">
<title>Node0</title>
<g id="a_Node000000"><a xlink:title=" ">
<polygon fill="#e0e0e0" stroke="#999999" points="334.25,-73.88 213.25,-73.88 213.25,-54.62 334.25,-54.62 334.25,-73.88"/>
<text text-anchor="middle" x="273.75" y="-60.38" font-family="Helvetica,sans-Serif" font-size="10.00">ShuffleboardComponent</text>
</a>
</g>
</g>
<!-- Node1 -->
<g id="Node000001" class="node">
<title>Node1</title>
<g id="a_Node000001"><a xlink:href="classedu_1_1wpi_1_1first_1_1wpilibj_1_1shuffleboard_1_1_shuffleboard_layout.html" target="_top" xlink:title=" ">
<polygon fill="white" stroke="#666666" points="547.5,-79.5 389,-79.5 389,-49 547.5,-49 547.5,-79.5"/>
<text text-anchor="start" x="397" y="-66" font-family="Helvetica,sans-Serif" font-size="10.00">edu.wpi.first.wpilibj.shuffleboard.</text>
<text text-anchor="middle" x="468.25" y="-54.75" font-family="Helvetica,sans-Serif" font-size="10.00">ShuffleboardLayout</text>
</a>
</g>
</g>
<!-- Node0&#45;&gt;Node1 -->
<g id="edge173_Node000000_Node000001" class="edge">
<title>Node0&#45;&gt;Node1</title>
<g id="a_edge173_Node000000_Node000001"><a xlink:title=" ">
<path fill="none" stroke="#63b8ff" d="M346.06,-64.25C359.94,-64.25 374.56,-64.25 388.66,-64.25"/>
<polygon fill="#63b8ff" stroke="#63b8ff" points="346.12,-60.75 336.12,-64.25 346.12,-67.75 346.12,-60.75"/>
</a>
</g>
</g>
<!-- Node4 -->
<g id="Node000004" class="node">
<title>Node4</title>
<g id="a_Node000004"><a xlink:href="interfaceedu_1_1wpi_1_1first_1_1wpilibj_1_1shuffleboard_1_1_shuffleboard_value.html" target="_top" xlink:title=" ">
<polygon fill="white" stroke="#666666" points="158.5,-33.5 0,-33.5 0,-3 158.5,-3 158.5,-33.5"/>
<text text-anchor="start" x="8" y="-20" font-family="Helvetica,sans-Serif" font-size="10.00">edu.wpi.first.wpilibj.shuffleboard.</text>
<text text-anchor="middle" x="79.25" y="-8.75" font-family="Helvetica,sans-Serif" font-size="10.00">ShuffleboardValue</text>
</a>
</g>
</g>
<!-- Node2 -->
<g id="Node000002" class="node">
<title>Node2</title>
<g id="a_Node000002"><a xlink:href="interfaceedu_1_1wpi_1_1first_1_1wpilibj_1_1shuffleboard_1_1_shuffleboard_container.html" target="_top" xlink:title=" ">
<polygon fill="white" stroke="#666666" points="353,-33.5 194.5,-33.5 194.5,-3 353,-3 353,-33.5"/>
<text text-anchor="start" x="202.5" y="-20" font-family="Helvetica,sans-Serif" font-size="10.00">edu.wpi.first.wpilibj.shuffleboard.</text>
<text text-anchor="middle" x="273.75" y="-8.75" font-family="Helvetica,sans-Serif" font-size="10.00">ShuffleboardContainer</text>
</a>
</g>
</g>
<!-- Node4&#45;&gt;Node2 -->
<g id="edge174_Node000004_Node000002" class="edge">
<title>Node4&#45;&gt;Node2</title>
<g id="a_edge174_Node000004_Node000002"><a xlink:title=" ">
<path fill="none" stroke="#63b8ff" d="M170.1,-18.25C178.12,-18.25 186.2,-18.25 194.11,-18.25"/>
<polygon fill="#63b8ff" stroke="#63b8ff" points="170.34,-14.75 160.34,-18.25 170.34,-21.75 170.34,-14.75"/>
</a>
</g>
</g>
<!-- Node2&#45;&gt;Node1 -->
<g id="edge175_Node000002_Node000001" class="edge">
<title>Node2&#45;&gt;Node1</title>
<g id="a_edge175_Node000002_Node000001"><a xlink:title=" ">
<path fill="none" stroke="#63b8ff" d="M351.25,-36.53C367.88,-40.5 385.34,-44.68 401.51,-48.54"/>
<polygon fill="#63b8ff" stroke="#63b8ff" points="352.47,-33.22 341.93,-34.3 350.84,-40.03 352.47,-33.22"/>
</a>
</g>
</g>
<!-- Node3 -->
<g id="Node000003" class="node">
<title>Node3</title>
<g id="a_Node000003"><a xlink:href="classedu_1_1wpi_1_1first_1_1wpilibj_1_1shuffleboard_1_1_shuffleboard_tab.html" target="_top" xlink:title=" ">
<polygon fill="white" stroke="#666666" points="547.5,-30.5 389,-30.5 389,0 547.5,0 547.5,-30.5"/>
<text text-anchor="start" x="397" y="-17" font-family="Helvetica,sans-Serif" font-size="10.00">edu.wpi.first.wpilibj.shuffleboard.</text>
<text text-anchor="middle" x="468.25" y="-5.75" font-family="Helvetica,sans-Serif" font-size="10.00">ShuffleboardTab</text>
</a>
</g>
</g>
<!-- Node2&#45;&gt;Node3 -->
<g id="edge176_Node000002_Node000003" class="edge">
<title>Node2&#45;&gt;Node3</title>
<g id="a_edge176_Node000002_Node000003"><a xlink:title=" ">
<path fill="none" stroke="#63b8ff" d="M364.6,-16.85C372.62,-16.72 380.7,-16.6 388.61,-16.48"/>
<polygon fill="#63b8ff" stroke="#63b8ff" points="364.78,-13.35 354.84,-17 364.89,-20.35 364.78,-13.35"/>
</a>
</g>
</g>
</g>
</svg>
