<?xml version="1.0" encoding="UTF-8" standalone="no"?>
<!DOCTYPE svg PUBLIC "-//W3C//DTD SVG 1.1//EN"
 "http://www.w3.org/Graphics/SVG/1.1/DTD/svg11.dtd">
<!-- Generated by graphviz version 9.0.0 (20230911.1827)
 -->
<!-- Title: edu.wpi.first.wpilibj.shuffleboard.ShuffleboardRoot.update Pages: 1 -->
<svg width="748pt" height="88pt"
 viewBox="0.00 0.00 747.75 87.50" xmlns="http://www.w3.org/2000/svg" xmlns:xlink="http://www.w3.org/1999/xlink">
<g id="graph0" class="graph" transform="scale(1 1) rotate(0) translate(4 83.5)">
<title>edu.wpi.first.wpilibj.shuffleboard.ShuffleboardRoot.update</title>
<!-- Node1 -->
<g id="Node000001" class="node">
<title>Node1</title>
<g id="a_Node000001"><a xlink:title=" ">
<polygon fill="#999999" stroke="#666666" points="739.75,-57.5 581.25,-57.5 581.25,-27 739.75,-27 739.75,-57.5"/>
<text text-anchor="start" x="589.25" y="-44" font-family="Helvetica,sans-Serif" font-size="10.00">edu.wpi.first.wpilibj.shuffleboard.</text>
<text text-anchor="middle" x="660.5" y="-32.75" font-family="Helvetica,sans-Serif" font-size="10.00">ShuffleboardRoot.update</text>
</a>
</g>
</g>
<!-- Node2 -->
<g id="Node000002" class="node">
<title>Node2</title>
<g id="a_Node000002"><a xlink:href="classedu_1_1wpi_1_1first_1_1wpilibj_1_1shuffleboard_1_1_shuffleboard.html#afa12b3d32fdc3e9930a4223ecdf7669b" target="_top" xlink:title=" ">
<polygon fill="white" stroke="#666666" points="545.25,-57.5 386.75,-57.5 386.75,-27 545.25,-27 545.25,-57.5"/>
<text text-anchor="start" x="394.75" y="-44" font-family="Helvetica,sans-Serif" font-size="10.00">edu.wpi.first.wpilibj.shuffleboard.</text>
<text text-anchor="middle" x="466" y="-32.75" font-family="Helvetica,sans-Serif" font-size="10.00">Shuffleboard.update</text>
</a>
</g>
</g>
<!-- Node1&#45;&gt;Node2 -->
<g id="edge1_Node000001_Node000002" class="edge">
<title>Node1&#45;&gt;Node2</title>
<g id="a_edge1_Node000001_Node000002"><a xlink:title=" ">
<path fill="none" stroke="#63b8ff" d="M569.65,-42.25C561.63,-42.25 553.55,-42.25 545.64,-42.25"/>
<polygon fill="#63b8ff" stroke="#63b8ff" points="569.41,-45.75 579.41,-42.25 569.41,-38.75 569.41,-45.75"/>
</a>
</g>
</g>
<!-- Node3 -->
<g id="Node000003" class="node">
<title>Node3</title>
<g id="a_Node000003"><a xlink:href="classedu_1_1wpi_1_1first_1_1wpilibj_1_1shuffleboard_1_1_shuffleboard.html#a0470a43375c462b3c46186e96f6beea4" target="_top" xlink:title=" ">
<polygon fill="white" stroke="#666666" points="350.75,-36.5 173.5,-36.5 173.5,-6 350.75,-6 350.75,-36.5"/>
<text text-anchor="start" x="181.5" y="-23" font-family="Helvetica,sans-Serif" font-size="10.00">edu.wpi.first.wpilibj.shuffleboard.</text>
<text text-anchor="middle" x="262.12" y="-11.75" font-family="Helvetica,sans-Serif" font-size="10.00">Shuffleboard.disableActuatorWidgets</text>
</a>
</g>
</g>
<!-- Node2&#45;&gt;Node3 -->
<g id="edge2_Node000002_Node000003" class="edge">
<title>Node2&#45;&gt;Node3</title>
<g id="a_edge2_Node000002_Node000003"><a xlink:title=" ">
<path fill="none" stroke="#63b8ff" d="M374.93,-32.88C367.06,-32.06 359.1,-31.23 351.25,-30.42"/>
<polygon fill="#63b8ff" stroke="#63b8ff" points="374.56,-36.36 384.87,-33.91 375.28,-29.4 374.56,-36.36"/>
</a>
</g>
</g>
<!-- Node4 -->
<g id="Node000004" class="node">
<title>Node4</title>
<g id="a_Node000004"><a xlink:href="classedu_1_1wpi_1_1first_1_1wpilibj_1_1_iterative_robot_base.html#aac5c45d7130bce188e0f9278075e8891" target="_top" xlink:title=" ">
<polygon fill="white" stroke="#666666" points="137.5,-79.5 0,-79.5 0,-49 137.5,-49 137.5,-79.5"/>
<text text-anchor="start" x="8" y="-66" font-family="Helvetica,sans-Serif" font-size="10.00">edu.wpi.first.wpilibj.Iterative</text>
<text text-anchor="middle" x="68.75" y="-54.75" font-family="Helvetica,sans-Serif" font-size="10.00">RobotBase.loopFunc</text>
</a>
</g>
</g>
<!-- Node2&#45;&gt;Node4 -->
<g id="edge5_Node000002_Node000004" class="edge">
<title>Node2&#45;&gt;Node4</title>
<g id="a_edge5_Node000002_Node000004"><a xlink:title=" ">
<path fill="none" stroke="#63b8ff" d="M375.12,-47.25C303.09,-51.26 203.54,-56.8 137.95,-60.45"/>
<polygon fill="#63b8ff" stroke="#63b8ff" points="375.14,-50.76 384.93,-46.71 374.75,-43.77 375.14,-50.76"/>
</a>
</g>
</g>
<!-- Node3&#45;&gt;Node4 -->
<g id="edge3_Node000003_Node000004" class="edge">
<title>Node3&#45;&gt;Node4</title>
<g id="a_edge3_Node000003_Node000004"><a xlink:title=" ">
<path fill="none" stroke="#63b8ff" d="M180.07,-39.46C166.01,-42.62 151.53,-45.87 137.87,-48.94"/>
<polygon fill="#63b8ff" stroke="#63b8ff" points="180.76,-42.9 189.75,-37.29 179.22,-36.07 180.76,-42.9"/>
</a>
</g>
</g>
<!-- Node5 -->
<g id="Node000005" class="node">
<title>Node5</title>
<g id="a_Node000005"><a xlink:href="classedu_1_1wpi_1_1first_1_1wpilibj_1_1_robot_base.html#aaa94c56bb5bb24b2ec7c526c0c1eac62" target="_top" xlink:title=" ">
<polygon fill="white" stroke="#666666" points="133,-30.5 4.5,-30.5 4.5,0 133,0 133,-30.5"/>
<text text-anchor="start" x="12.5" y="-17" font-family="Helvetica,sans-Serif" font-size="10.00">edu.wpi.first.wpilibj.Robot</text>
<text text-anchor="middle" x="68.75" y="-5.75" font-family="Helvetica,sans-Serif" font-size="10.00">Base.RobotBase</text>
</a>
</g>
</g>
<!-- Node3&#45;&gt;Node5 -->
<g id="edge4_Node000003_Node000005" class="edge">
<title>Node3&#45;&gt;Node5</title>
<g id="a_edge4_Node000003_Node000005"><a xlink:title=" ">
<path fill="none" stroke="#63b8ff" d="M161.9,-18.14C152.2,-17.83 142.55,-17.53 133.34,-17.24"/>
<polygon fill="#63b8ff" stroke="#63b8ff" points="161.66,-21.63 171.77,-18.45 161.88,-14.64 161.66,-21.63"/>
</a>
</g>
</g>
</g>
</svg>
