<?xml version="1.0" encoding="UTF-8" standalone="no"?>
<!DOCTYPE svg PUBLIC "-//W3C//DTD SVG 1.1//EN"
 "http://www.w3.org/Graphics/SVG/1.1/DTD/svg11.dtd">
<!-- Generated by graphviz version 9.0.0 (20230911.1827)
 -->
<!-- Title: edu.wpi.first.wpilibj.shuffleboard.ShuffleboardContainer.add Pages: 1 -->
<svg width="378pt" height="186pt"
 viewBox="0.00 0.00 377.50 185.50" xmlns="http://www.w3.org/2000/svg" xmlns:xlink="http://www.w3.org/1999/xlink">
<g id="graph0" class="graph" transform="scale(1 1) rotate(0) translate(4 181.5)">
<title>edu.wpi.first.wpilibj.shuffleboard.ShuffleboardContainer.add</title>
<!-- Node1 -->
<g id="Node000001" class="node">
<title>Node1</title>
<g id="a_Node000001"><a xlink:title=" ">
<polygon fill="#999999" stroke="#666666" points="369.5,-103.5 211,-103.5 211,-73 369.5,-73 369.5,-103.5"/>
<text text-anchor="start" x="219" y="-90" font-family="Helvetica,sans-Serif" font-size="10.00">edu.wpi.first.wpilibj.shuffleboard.</text>
<text text-anchor="middle" x="290.25" y="-78.75" font-family="Helvetica,sans-Serif" font-size="10.00">ShuffleboardContainer.add</text>
</a>
</g>
</g>
<!-- Node2 -->
<g id="Node000002" class="node">
<title>Node2</title>
<g id="a_Node000002"><a xlink:href="interfaceedu_1_1wpi_1_1first_1_1wpilibj_1_1shuffleboard_1_1_shuffleboard_container.html#a327ab9b92a66593718b210b3bf61309a" target="_top" xlink:title=" ">
<polygon fill="white" stroke="#666666" points="166.75,-177.5 8.25,-177.5 8.25,-147 166.75,-147 166.75,-177.5"/>
<text text-anchor="start" x="16.25" y="-164" font-family="Helvetica,sans-Serif" font-size="10.00">edu.wpi.first.wpilibj.shuffleboard.</text>
<text text-anchor="middle" x="87.5" y="-152.75" font-family="Helvetica,sans-Serif" font-size="10.00">ShuffleboardContainer.add</text>
</a>
</g>
</g>
<!-- Node1&#45;&gt;Node2 -->
<g id="edge1_Node000001_Node000002" class="edge">
<title>Node1&#45;&gt;Node2</title>
<g id="a_edge1_Node000001_Node000002"><a xlink:title=" ">
<path fill="none" stroke="#63b8ff" d="M245.45,-108.54C224.4,-117.91 198.64,-128.8 175,-137.25 165.87,-140.51 156.09,-143.66 146.51,-146.56"/>
<polygon fill="#63b8ff" stroke="#63b8ff" points="246.62,-111.85 254.31,-104.56 243.76,-105.47 246.62,-111.85"/>
</a>
</g>
</g>
<!-- Node3 -->
<g id="Node000003" class="node">
<title>Node3</title>
<g id="a_Node000003"><a xlink:href="interfaceedu_1_1wpi_1_1first_1_1wpilibj_1_1shuffleboard_1_1_shuffleboard_container.html#a13ed1dc514efb86ffbfe674cf2815bdd" target="_top" xlink:title=" ">
<polygon fill="white" stroke="#666666" points="166.75,-128.5 8.25,-128.5 8.25,-98 166.75,-98 166.75,-128.5"/>
<text text-anchor="start" x="16.25" y="-115" font-family="Helvetica,sans-Serif" font-size="10.00">edu.wpi.first.wpilibj.shuffleboard.</text>
<text text-anchor="middle" x="87.5" y="-103.75" font-family="Helvetica,sans-Serif" font-size="10.00">ShuffleboardContainer.add</text>
</a>
</g>
</g>
<!-- Node1&#45;&gt;Node3 -->
<g id="edge2_Node000001_Node000003" class="edge">
<title>Node1&#45;&gt;Node3</title>
<g id="a_edge2_Node000001_Node000003"><a xlink:title=" ">
<path fill="none" stroke="#63b8ff" d="M199.53,-99.42C188.65,-100.78 177.61,-102.15 166.92,-103.48"/>
<polygon fill="#63b8ff" stroke="#63b8ff" points="199.78,-102.92 209.27,-98.21 198.91,-95.97 199.78,-102.92"/>
</a>
</g>
</g>
<!-- Node4 -->
<g id="Node000004" class="node">
<title>Node4</title>
<g id="a_Node000004"><a xlink:href="interfaceedu_1_1wpi_1_1first_1_1wpilibj_1_1shuffleboard_1_1_shuffleboard_container.html#aec96d3fcdedb523884b0c3170c6910b2" target="_top" xlink:title=" ">
<polygon fill="white" stroke="#666666" points="170.12,-79.5 4.88,-79.5 4.88,-49 170.12,-49 170.12,-79.5"/>
<text text-anchor="start" x="12.88" y="-66" font-family="Helvetica,sans-Serif" font-size="10.00">edu.wpi.first.wpilibj.shuffleboard.</text>
<text text-anchor="middle" x="87.5" y="-54.75" font-family="Helvetica,sans-Serif" font-size="10.00">ShuffleboardContainer.addCamera</text>
</a>
</g>
</g>
<!-- Node1&#45;&gt;Node4 -->
<g id="edge3_Node000001_Node000004" class="edge">
<title>Node1&#45;&gt;Node4</title>
<g id="a_edge3_Node000001_Node000004"><a xlink:title=" ">
<path fill="none" stroke="#63b8ff" d="M199.53,-77.52C189.89,-76.37 180.11,-75.2 170.56,-74.06"/>
<polygon fill="#63b8ff" stroke="#63b8ff" points="198.92,-80.98 209.27,-78.69 199.76,-74.03 198.92,-80.98"/>
</a>
</g>
</g>
<!-- Node5 -->
<g id="Node000005" class="node">
<title>Node5</title>
<g id="a_Node000005"><a xlink:href="interfaceedu_1_1wpi_1_1first_1_1wpilibj_1_1shuffleboard_1_1_shuffleboard_container.html#afa5d172e0446a73f74eabc994c221320" target="_top" xlink:title=" ">
<polygon fill="white" stroke="#666666" points="175,-30.5 0,-30.5 0,0 175,0 175,-30.5"/>
<text text-anchor="start" x="8" y="-17" font-family="Helvetica,sans-Serif" font-size="10.00">edu.wpi.first.wpilibj.shuffleboard.</text>
<text text-anchor="middle" x="87.5" y="-5.75" font-family="Helvetica,sans-Serif" font-size="10.00">ShuffleboardContainer.addPersistent</text>
</a>
</g>
</g>
<!-- Node1&#45;&gt;Node5 -->
<g id="edge4_Node000001_Node000005" class="edge">
<title>Node1&#45;&gt;Node5</title>
<g id="a_edge4_Node000001_Node000005"><a xlink:title=" ">
<path fill="none" stroke="#63b8ff" d="M244.43,-68C223.55,-58.93 198.23,-48.46 175,-40.25 165.86,-37.02 156.08,-33.89 146.49,-31"/>
<polygon fill="#63b8ff" stroke="#63b8ff" points="242.96,-71.17 253.52,-71.98 245.77,-64.76 242.96,-71.17"/>
</a>
</g>
</g>
</g>
</svg>
