<?xml version="1.0" encoding="UTF-8" standalone="no"?>
<!DOCTYPE svg PUBLIC "-//W3C//DTD SVG 1.1//EN"
 "http://www.w3.org/Graphics/SVG/1.1/DTD/svg11.dtd">
<!-- Generated by graphviz version 9.0.0 (20230911.1827)
 -->
<!-- Title: edu.wpi.first.wpilibj.PneumaticsBase.getDefaultForType Pages: 1 -->
<svg width="388pt" height="235pt"
 viewBox="0.00 0.00 388.00 234.50" xmlns="http://www.w3.org/2000/svg" xmlns:xlink="http://www.w3.org/1999/xlink">
<g id="graph0" class="graph" transform="scale(1 1) rotate(0) translate(4 230.5)">
<title>edu.wpi.first.wpilibj.PneumaticsBase.getDefaultForType</title>
<!-- Node1 -->
<g id="Node000001" class="node">
<title>Node1</title>
<g id="a_Node000001"><a xlink:title=" ">
<polygon fill="#999999" stroke="#666666" points="380,-128.5 226,-128.5 226,-98 380,-98 380,-128.5"/>
<text text-anchor="start" x="234" y="-115" font-family="Helvetica,sans-Serif" font-size="10.00">edu.wpi.first.wpilibj.Pneumatics</text>
<text text-anchor="middle" x="303" y="-103.75" font-family="Helvetica,sans-Serif" font-size="10.00">Base.getDefaultForType</text>
</a>
</g>
</g>
<!-- Node2 -->
<g id="Node000002" class="node">
<title>Node2</title>
<g id="a_Node000002"><a xlink:href="classedu_1_1wpi_1_1first_1_1wpilibj_1_1_compressor.html#af0d27dcf99c6132ddbca7c320884bcc9" target="_top" xlink:title=" ">
<polygon fill="white" stroke="#666666" points="173.88,-226.5 16.12,-226.5 16.12,-196 173.88,-196 173.88,-226.5"/>
<text text-anchor="start" x="24.12" y="-213" font-family="Helvetica,sans-Serif" font-size="10.00">edu.wpi.first.wpilibj.Compressor.</text>
<text text-anchor="middle" x="95" y="-201.75" font-family="Helvetica,sans-Serif" font-size="10.00">Compressor</text>
</a>
</g>
</g>
<!-- Node1&#45;&gt;Node2 -->
<g id="edge1_Node000001_Node000002" class="edge">
<title>Node1&#45;&gt;Node2</title>
<g id="a_edge1_Node000001_Node000002"><a xlink:title=" ">
<path fill="none" stroke="#63b8ff" d="M273.46,-135.52C251.65,-151.6 220.29,-172.77 190,-186.25 182.13,-189.75 173.67,-192.85 165.16,-195.57"/>
<polygon fill="#63b8ff" stroke="#63b8ff" points="275.36,-138.47 281.26,-129.67 271.16,-132.87 275.36,-138.47"/>
</a>
</g>
</g>
<!-- Node3 -->
<g id="Node000003" class="node">
<title>Node3</title>
<g id="a_Node000003"><a xlink:href="classedu_1_1wpi_1_1first_1_1wpilibj_1_1_double_solenoid.html#aa80f7927d5629ad62d5a306627f7325c" target="_top" xlink:title=" ">
<polygon fill="white" stroke="#666666" points="161.5,-177.5 28.5,-177.5 28.5,-147 161.5,-147 161.5,-177.5"/>
<text text-anchor="start" x="36.5" y="-164" font-family="Helvetica,sans-Serif" font-size="10.00">edu.wpi.first.wpilibj.Double</text>
<text text-anchor="middle" x="95" y="-152.75" font-family="Helvetica,sans-Serif" font-size="10.00">Solenoid.DoubleSolenoid</text>
</a>
</g>
</g>
<!-- Node1&#45;&gt;Node3 -->
<g id="edge2_Node000001_Node000003" class="edge">
<title>Node1&#45;&gt;Node3</title>
<g id="a_edge2_Node000001_Node000003"><a xlink:title=" ">
<path fill="none" stroke="#63b8ff" d="M224.92,-131.59C204.1,-136.54 181.78,-141.85 161.66,-146.63"/>
<polygon fill="#63b8ff" stroke="#63b8ff" points="225.58,-135.03 234.5,-129.31 223.96,-128.22 225.58,-135.03"/>
</a>
</g>
</g>
<!-- Node4 -->
<g id="Node000004" class="node">
<title>Node4</title>
<g id="a_Node000004"><a xlink:href="classedu_1_1wpi_1_1first_1_1wpilibj_1_1simulation_1_1_double_solenoid_sim.html#a46a24e037822569ae9d627a5e37cda23" target="_top" xlink:title=" ">
<polygon fill="white" stroke="#666666" points="190,-128.5 0,-128.5 0,-98 190,-98 190,-128.5"/>
<text text-anchor="start" x="8" y="-115" font-family="Helvetica,sans-Serif" font-size="10.00">edu.wpi.first.wpilibj.simulation.</text>
<text text-anchor="middle" x="95" y="-103.75" font-family="Helvetica,sans-Serif" font-size="10.00">DoubleSolenoidSim.DoubleSolenoidSim</text>
</a>
</g>
</g>
<!-- Node1&#45;&gt;Node4 -->
<g id="edge3_Node000001_Node000004" class="edge">
<title>Node1&#45;&gt;Node4</title>
<g id="a_edge3_Node000001_Node000004"><a xlink:title=" ">
<path fill="none" stroke="#63b8ff" d="M214.18,-113.25C206.33,-113.25 198.35,-113.25 190.44,-113.25"/>
<polygon fill="#63b8ff" stroke="#63b8ff" points="214.07,-116.75 224.07,-113.25 214.07,-109.75 214.07,-116.75"/>
</a>
</g>
</g>
<!-- Node5 -->
<g id="Node000005" class="node">
<title>Node5</title>
<g id="a_Node000005"><a xlink:href="classedu_1_1wpi_1_1first_1_1wpilibj_1_1_solenoid.html#a8e37ae613c1811380d9ce3fcbe5b9682" target="_top" xlink:title=" ">
<polygon fill="white" stroke="#666666" points="166.38,-79.5 23.62,-79.5 23.62,-49 166.38,-49 166.38,-79.5"/>
<text text-anchor="start" x="31.62" y="-66" font-family="Helvetica,sans-Serif" font-size="10.00">edu.wpi.first.wpilibj.Solenoid.</text>
<text text-anchor="middle" x="95" y="-54.75" font-family="Helvetica,sans-Serif" font-size="10.00">Solenoid</text>
</a>
</g>
</g>
<!-- Node1&#45;&gt;Node5 -->
<g id="edge4_Node000001_Node000005" class="edge">
<title>Node1&#45;&gt;Node5</title>
<g id="a_edge4_Node000001_Node000005"><a xlink:title=" ">
<path fill="none" stroke="#63b8ff" d="M224.97,-94.93C204.26,-90 182.06,-84.72 162.01,-79.95"/>
<polygon fill="#63b8ff" stroke="#63b8ff" points="223.96,-98.28 234.5,-97.19 225.58,-91.47 223.96,-98.28"/>
</a>
</g>
</g>
<!-- Node6 -->
<g id="Node000006" class="node">
<title>Node6</title>
<g id="a_Node000006"><a xlink:href="classedu_1_1wpi_1_1first_1_1wpilibj_1_1simulation_1_1_solenoid_sim.html#aa302bfd31059a6655c1133d0a549a2ce" target="_top" xlink:title=" ">
<polygon fill="white" stroke="#666666" points="169.75,-30.5 20.25,-30.5 20.25,0 169.75,0 169.75,-30.5"/>
<text text-anchor="start" x="28.25" y="-17" font-family="Helvetica,sans-Serif" font-size="10.00">edu.wpi.first.wpilibj.simulation.</text>
<text text-anchor="middle" x="95" y="-5.75" font-family="Helvetica,sans-Serif" font-size="10.00">SolenoidSim.SolenoidSim</text>
</a>
</g>
</g>
<!-- Node1&#45;&gt;Node6 -->
<g id="edge5_Node000001_Node000006" class="edge">
<title>Node1&#45;&gt;Node6</title>
<g id="a_edge5_Node000001_Node000006"><a xlink:title=" ">
<path fill="none" stroke="#63b8ff" d="M273.46,-90.98C251.65,-74.9 220.29,-53.73 190,-40.25 182.13,-36.75 173.67,-33.65 165.16,-30.93"/>
<polygon fill="#63b8ff" stroke="#63b8ff" points="271.16,-93.63 281.26,-96.83 275.36,-88.03 271.16,-93.63"/>
</a>
</g>
</g>
</g>
</svg>
