<?xml version="1.0" encoding="UTF-8" standalone="no"?>
<!DOCTYPE svg PUBLIC "-//W3C//DTD SVG 1.1//EN"
 "http://www.w3.org/Graphics/SVG/1.1/DTD/svg11.dtd">
<!-- Generated by graphviz version 9.0.0 (20230911.1827)
 -->
<!-- Title: edu.wpi.first.wpilibj.PneumaticsBase.enableCompressorDigital Pages: 1 -->
<svg width="384pt" height="88pt"
 viewBox="0.00 0.00 384.25 87.50" xmlns="http://www.w3.org/2000/svg" xmlns:xlink="http://www.w3.org/1999/xlink">
<g id="graph0" class="graph" transform="scale(1 1) rotate(0) translate(4 83.5)">
<title>edu.wpi.first.wpilibj.PneumaticsBase.enableCompressorDigital</title>
<!-- Node1 -->
<g id="Node000001" class="node">
<title>Node1</title>
<g id="a_Node000001"><a xlink:title=" ">
<polygon fill="#999999" stroke="#666666" points="376.25,-54.5 222.25,-54.5 222.25,-24 376.25,-24 376.25,-54.5"/>
<text text-anchor="start" x="230.25" y="-41" font-family="Helvetica,sans-Serif" font-size="10.00">edu.wpi.first.wpilibj.Pneumatics</text>
<text text-anchor="middle" x="299.25" y="-29.75" font-family="Helvetica,sans-Serif" font-size="10.00">Base.enableCompressorDigital</text>
</a>
</g>
</g>
<!-- Node2 -->
<g id="Node000002" class="node">
<title>Node2</title>
<g id="a_Node000002"><a xlink:href="classedu_1_1wpi_1_1first_1_1wpilibj_1_1_compressor.html#a1d7a26f73e3596f3fd86dec7684ea8a3" target="_top" xlink:title=" ">
<polygon fill="white" stroke="#666666" points="172,-79.5 14.25,-79.5 14.25,-49 172,-49 172,-79.5"/>
<text text-anchor="start" x="22.25" y="-66" font-family="Helvetica,sans-Serif" font-size="10.00">edu.wpi.first.wpilibj.Compressor.</text>
<text text-anchor="middle" x="93.12" y="-54.75" font-family="Helvetica,sans-Serif" font-size="10.00">Compressor</text>
</a>
</g>
</g>
<!-- Node1&#45;&gt;Node2 -->
<g id="edge1_Node000001_Node000002" class="edge">
<title>Node1&#45;&gt;Node2</title>
<g id="a_edge1_Node000001_Node000002"><a xlink:title=" ">
<path fill="none" stroke="#63b8ff" d="M210.82,-49.96C198.04,-51.52 184.95,-53.13 172.37,-54.67"/>
<polygon fill="#63b8ff" stroke="#63b8ff" points="210.95,-53.47 220.45,-48.78 210.1,-46.52 210.95,-53.47"/>
</a>
</g>
</g>
<!-- Node3 -->
<g id="Node000003" class="node">
<title>Node3</title>
<g id="a_Node000003"><a xlink:href="classedu_1_1wpi_1_1first_1_1wpilibj_1_1_compressor.html#a4883846e54c808d590a559845512f4c5" target="_top" xlink:title=" ">
<polygon fill="white" stroke="#666666" points="186.25,-30.5 0,-30.5 0,0 186.25,0 186.25,-30.5"/>
<text text-anchor="start" x="8" y="-17" font-family="Helvetica,sans-Serif" font-size="10.00">edu.wpi.first.wpilibj.Compressor.enable</text>
<text text-anchor="middle" x="93.12" y="-5.75" font-family="Helvetica,sans-Serif" font-size="10.00">Digital</text>
</a>
</g>
</g>
<!-- Node1&#45;&gt;Node3 -->
<g id="edge2_Node000001_Node000003" class="edge">
<title>Node1&#45;&gt;Node3</title>
<g id="a_edge2_Node000001_Node000003"><a xlink:title=" ">
<path fill="none" stroke="#63b8ff" d="M210.73,-28.96C202.72,-28.02 194.58,-27.06 186.53,-26.11"/>
<polygon fill="#63b8ff" stroke="#63b8ff" points="210.11,-32.41 220.45,-30.1 210.93,-25.46 210.11,-32.41"/>
</a>
</g>
</g>
</g>
</svg>
