<?xml version="1.0" encoding="UTF-8" standalone="no"?>
<!DOCTYPE svg PUBLIC "-//W3C//DTD SVG 1.1//EN"
 "http://www.w3.org/Graphics/SVG/1.1/DTD/svg11.dtd">
<!-- Generated by graphviz version 9.0.0 (20230911.1827)
 -->
<!-- Title: edu.wpi.first.wpilibj.PS4Controller.getTriangleButton Pages: 1 -->
<svg width="489pt" height="106pt"
 viewBox="0.00 0.00 488.75 105.50" xmlns="http://www.w3.org/2000/svg" xmlns:xlink="http://www.w3.org/1999/xlink">
<g id="graph0" class="graph" transform="scale(1 1) rotate(0) translate(4 101.5)">
<title>edu.wpi.first.wpilibj.PS4Controller.getTriangleButton</title>
<!-- Node1 -->
<g id="Node000001" class="node">
<title>Node1</title>
<g id="a_Node000001"><a xlink:title=" ">
<polygon fill="#999999" stroke="#666666" points="136.75,-79.5 0,-79.5 0,-49 136.75,-49 136.75,-79.5"/>
<text text-anchor="start" x="8" y="-66" font-family="Helvetica,sans-Serif" font-size="10.00">edu.wpi.first.wpilibj.PS4</text>
<text text-anchor="middle" x="68.38" y="-54.75" font-family="Helvetica,sans-Serif" font-size="10.00">Controller.getTriangleButton</text>
</a>
</g>
</g>
<!-- Node2 -->
<g id="Node000002" class="node">
<title>Node2</title>
<g id="a_Node000002"><a xlink:href="classedu_1_1wpi_1_1first_1_1wpilibj_1_1_generic_h_i_d.html#abdb0245e5cb7f7b92cc1060202821a2d" target="_top" xlink:title=" ">
<polygon fill="white" stroke="#666666" points="308.75,-79.5 172.75,-79.5 172.75,-49 308.75,-49 308.75,-79.5"/>
<text text-anchor="start" x="180.75" y="-66" font-family="Helvetica,sans-Serif" font-size="10.00">edu.wpi.first.wpilibj.Generic</text>
<text text-anchor="middle" x="240.75" y="-54.75" font-family="Helvetica,sans-Serif" font-size="10.00">HID.getRawButton</text>
</a>
</g>
</g>
<!-- Node1&#45;&gt;Node2 -->
<g id="edge1_Node000001_Node000002" class="edge">
<title>Node1&#45;&gt;Node2</title>
<g id="a_edge1_Node000001_Node000002"><a xlink:title=" ">
<path fill="none" stroke="#63b8ff" d="M137.2,-64.25C145.09,-64.25 153.18,-64.25 161.19,-64.25"/>
<polygon fill="#63b8ff" stroke="#63b8ff" points="160.92,-67.75 170.92,-64.25 160.92,-60.75 160.92,-67.75"/>
</a>
</g>
</g>
<!-- Node3 -->
<g id="Node000003" class="node">
<title>Node3</title>
<g id="a_Node000003"><a xlink:href="classedu_1_1wpi_1_1first_1_1wpilibj_1_1_generic_h_i_d.html#a77f3feaa9b70759aa7e26c20bec4bec2" target="_top" xlink:title=" ">
<polygon fill="white" stroke="#666666" points="480.75,-79.5 344.75,-79.5 344.75,-49 480.75,-49 480.75,-79.5"/>
<text text-anchor="start" x="352.75" y="-66" font-family="Helvetica,sans-Serif" font-size="10.00">edu.wpi.first.wpilibj.Generic</text>
<text text-anchor="middle" x="412.75" y="-54.75" font-family="Helvetica,sans-Serif" font-size="10.00">HID.button</text>
</a>
</g>
</g>
<!-- Node2&#45;&gt;Node3 -->
<g id="edge2_Node000002_Node000003" class="edge">
<title>Node2&#45;&gt;Node3</title>
<g id="a_edge2_Node000002_Node000003"><a xlink:title=" ">
<path fill="none" stroke="#63b8ff" d="M308.94,-57.63C316.89,-57.51 325.05,-57.47 333.14,-57.52"/>
<polygon fill="#63b8ff" stroke="#63b8ff" points="332.94,-61.02 342.98,-57.62 333.02,-54.02 332.94,-61.02"/>
</a>
</g>
</g>
<!-- Node4 -->
<g id="Node000004" class="node">
<title>Node4</title>
<g id="a_Node000004"><a xlink:href="classedu_1_1wpi_1_1first_1_1wpilibj_1_1_driver_station.html#a3d86d4b8414c05aafe18fc866d99ccab" target="_top" xlink:title=" ">
<polygon fill="white" stroke="#666666" points="477,-30.5 348.5,-30.5 348.5,0 477,0 477,-30.5"/>
<text text-anchor="start" x="356.5" y="-17" font-family="Helvetica,sans-Serif" font-size="10.00">edu.wpi.first.wpilibj.Driver</text>
<text text-anchor="middle" x="412.75" y="-5.75" font-family="Helvetica,sans-Serif" font-size="10.00">Station.getStickButton</text>
</a>
</g>
</g>
<!-- Node2&#45;&gt;Node4 -->
<g id="edge5_Node000002_Node000004" class="edge">
<title>Node2&#45;&gt;Node4</title>
<g id="a_edge5_Node000002_Node000004"><a xlink:title=" ">
<path fill="none" stroke="#63b8ff" d="M296.01,-48.61C312.03,-43.99 329.73,-38.89 346.38,-34.09"/>
<polygon fill="#63b8ff" stroke="#63b8ff" points="347.04,-37.54 355.68,-31.41 345.1,-30.82 347.04,-37.54"/>
</a>
</g>
</g>
<!-- Node3&#45;&gt;Node2 -->
<g id="edge4_Node000003_Node000002" class="edge">
<title>Node3&#45;&gt;Node2</title>
<g id="a_edge4_Node000003_Node000002"><a xlink:title=" ">
<path fill="none" stroke="#63b8ff" d="M344.49,-70.87C336.54,-70.99 328.38,-71.03 320.29,-70.98"/>
<polygon fill="#63b8ff" stroke="#63b8ff" points="320.49,-67.48 310.45,-70.88 320.42,-74.48 320.49,-67.48"/>
</a>
</g>
</g>
<!-- Node3&#45;&gt;Node3 -->
<g id="edge3_Node000003_Node000003" class="edge">
<title>Node3&#45;&gt;Node3</title>
<g id="a_edge3_Node000003_Node000003"><a xlink:title=" ">
<path fill="none" stroke="#63b8ff" d="M382.27,-79.99C376.05,-89.06 386.21,-97.5 412.75,-97.5 427.26,-97.5 436.88,-94.97 441.59,-91.2"/>
<polygon fill="#63b8ff" stroke="#63b8ff" points="445.03,-91.88 443.01,-81.48 438.11,-90.87 445.03,-91.88"/>
</a>
</g>
</g>
</g>
</svg>
