<?xml version="1.0" encoding="UTF-8" standalone="no"?>
<!DOCTYPE svg PUBLIC "-//W3C//DTD SVG 1.1//EN"
 "http://www.w3.org/Graphics/SVG/1.1/DTD/svg11.dtd">
<!-- Generated by graphviz version 9.0.0 (20230911.1827)
 -->
<!-- Title: edu.wpi.first.wpilibj.drive.MecanumDrive.drivePolar Pages: 1 -->
<svg width="321pt" height="57pt"
 viewBox="0.00 0.00 320.50 56.50" xmlns="http://www.w3.org/2000/svg" xmlns:xlink="http://www.w3.org/1999/xlink">
<g id="graph0" class="graph" transform="scale(1 1) rotate(0) translate(4 52.5)">
<title>edu.wpi.first.wpilibj.drive.MecanumDrive.drivePolar</title>
<!-- Node1 -->
<g id="Node000001" class="node">
<title>Node1</title>
<g id="a_Node000001"><a xlink:title=" ">
<polygon fill="#999999" stroke="#666666" points="128.5,-30.5 0,-30.5 0,0 128.5,0 128.5,-30.5"/>
<text text-anchor="start" x="8" y="-17" font-family="Helvetica,sans-Serif" font-size="10.00">edu.wpi.first.wpilibj.drive.</text>
<text text-anchor="middle" x="64.25" y="-5.75" font-family="Helvetica,sans-Serif" font-size="10.00">MecanumDrive.drivePolar</text>
</a>
</g>
</g>
<!-- Node2 -->
<g id="Node000002" class="node">
<title>Node2</title>
<g id="a_Node000002"><a xlink:href="classedu_1_1wpi_1_1first_1_1wpilibj_1_1drive_1_1_mecanum_drive.html#affbe6334ad685f35d316dd8466612591" target="_top" xlink:title=" ">
<polygon fill="white" stroke="#666666" points="312.5,-30.5 164.5,-30.5 164.5,0 312.5,0 312.5,-30.5"/>
<text text-anchor="start" x="172.5" y="-17" font-family="Helvetica,sans-Serif" font-size="10.00">edu.wpi.first.wpilibj.drive.</text>
<text text-anchor="middle" x="238.5" y="-5.75" font-family="Helvetica,sans-Serif" font-size="10.00">MecanumDrive.driveCartesian</text>
</a>
</g>
</g>
<!-- Node1&#45;&gt;Node2 -->
<g id="edge1_Node000001_Node000002" class="edge">
<title>Node1&#45;&gt;Node2</title>
<g id="a_edge1_Node000001_Node000002"><a xlink:title=" ">
<path fill="none" stroke="#63b8ff" d="M128.9,-15.25C136.72,-15.25 144.8,-15.25 152.86,-15.25"/>
<polygon fill="#63b8ff" stroke="#63b8ff" points="152.71,-18.75 162.71,-15.25 152.71,-11.75 152.71,-18.75"/>
</a>
</g>
</g>
<!-- Node2&#45;&gt;Node2 -->
<g id="edge2_Node000002_Node000002" class="edge">
<title>Node2&#45;&gt;Node2</title>
<g id="a_edge2_Node000002_Node000002"><a xlink:title=" ">
<path fill="none" stroke="#63b8ff" d="M207.62,-30.99C201.32,-40.06 211.61,-48.5 238.5,-48.5 253.2,-48.5 262.94,-45.97 267.72,-42.2"/>
<polygon fill="#63b8ff" stroke="#63b8ff" points="271.16,-42.89 269.16,-32.48 264.23,-41.87 271.16,-42.89"/>
</a>
</g>
</g>
</g>
</svg>
