<?xml version="1.0" encoding="UTF-8" standalone="no"?>
<!DOCTYPE svg PUBLIC "-//W3C//DTD SVG 1.1//EN"
 "http://www.w3.org/Graphics/SVG/1.1/DTD/svg11.dtd">
<!-- Generated by graphviz version 9.0.0 (20230911.1827)
 -->
<!-- Title: edu.wpi.first.wpilibj.simulation.ADIS16448_IMUSim.ADIS16448_IMUSim Pages: 1 -->
<svg width="399pt" height="88pt"
 viewBox="0.00 0.00 398.50 87.50" xmlns="http://www.w3.org/2000/svg" xmlns:xlink="http://www.w3.org/1999/xlink">
<g id="graph0" class="graph" transform="scale(1 1) rotate(0) translate(4 83.5)">
<title>edu.wpi.first.wpilibj.simulation.ADIS16448_IMUSim.ADIS16448_IMUSim</title>
<!-- Node1 -->
<g id="Node000001" class="node">
<title>Node1</title>
<g id="a_Node000001"><a xlink:title=" ">
<polygon fill="#999999" stroke="#666666" points="202,-54.5 0,-54.5 0,-24 202,-24 202,-54.5"/>
<text text-anchor="start" x="8" y="-41" font-family="Helvetica,sans-Serif" font-size="10.00">edu.wpi.first.wpilibj.simulation.</text>
<text text-anchor="middle" x="101" y="-29.75" font-family="Helvetica,sans-Serif" font-size="10.00">ADIS16448_IMUSim.ADIS16448_IMUSim</text>
</a>
</g>
</g>
<!-- Node2 -->
<g id="Node000002" class="node">
<title>Node2</title>
<g id="a_Node000002"><a xlink:href="classedu_1_1wpi_1_1first_1_1wpilibj_1_1simulation_1_1_sim_device_sim.html#a18ff83cec047ed1551deb66bde7147da" target="_top" xlink:title=" ">
<polygon fill="white" stroke="#666666" points="389,-79.5 239.5,-79.5 239.5,-49 389,-49 389,-79.5"/>
<text text-anchor="start" x="247.5" y="-66" font-family="Helvetica,sans-Serif" font-size="10.00">edu.wpi.first.wpilibj.simulation.</text>
<text text-anchor="middle" x="314.25" y="-54.75" font-family="Helvetica,sans-Serif" font-size="10.00">SimDeviceSim.getDouble</text>
</a>
</g>
</g>
<!-- Node1&#45;&gt;Node2 -->
<g id="edge1_Node000001_Node000002" class="edge">
<title>Node1&#45;&gt;Node2</title>
<g id="a_edge1_Node000001_Node000002"><a xlink:title=" ">
<path fill="none" stroke="#63b8ff" d="M202.37,-51.13C210.86,-52.13 219.39,-53.14 227.75,-54.13"/>
<polygon fill="#63b8ff" stroke="#63b8ff" points="227.18,-57.59 237.52,-55.29 228,-50.64 227.18,-57.59"/>
</a>
</g>
</g>
<!-- Node3 -->
<g id="Node000003" class="node">
<title>Node3</title>
<g id="a_Node000003"><a xlink:href="classedu_1_1wpi_1_1first_1_1wpilibj_1_1_a_d_i_s16448___i_m_u.html#a9fa5c9167592f300a3f6a661213fb652" target="_top" xlink:title=" ">
<polygon fill="white" stroke="#666666" points="390.5,-30.5 238,-30.5 238,0 390.5,0 390.5,-30.5"/>
<text text-anchor="start" x="246" y="-17" font-family="Helvetica,sans-Serif" font-size="10.00">edu.wpi.first.wpilibj.ADIS16448</text>
<text text-anchor="middle" x="314.25" y="-5.75" font-family="Helvetica,sans-Serif" font-size="10.00">_IMU.getPort</text>
</a>
</g>
</g>
<!-- Node1&#45;&gt;Node3 -->
<g id="edge2_Node000001_Node000003" class="edge">
<title>Node1&#45;&gt;Node3</title>
<g id="a_edge2_Node000001_Node000003"><a xlink:title=" ">
<path fill="none" stroke="#63b8ff" d="M202.37,-27.85C210.47,-26.93 218.62,-26 226.61,-25.09"/>
<polygon fill="#63b8ff" stroke="#63b8ff" points="226.75,-28.6 236.29,-23.99 225.96,-21.64 226.75,-28.6"/>
</a>
</g>
</g>
</g>
</svg>
