<?xml version="1.0" encoding="UTF-8" standalone="no"?>
<!DOCTYPE svg PUBLIC "-//W3C//DTD SVG 1.1//EN"
 "http://www.w3.org/Graphics/SVG/1.1/DTD/svg11.dtd">
<!-- Generated by graphviz version 9.0.0 (20230911.1827)
 -->
<!-- Title: edu.wpi.first.wpilibj.SensorUtil.getDefaultREVPHModule Pages: 1 -->
<!--zoomable 235 -->

<svg id="main" version="1.1" xmlns="http://www.w3.org/2000/svg" xmlns:xlink="http://www.w3.org/1999/xlink" xml:space="preserve" onload="init(evt)">
<style type="text/css"><![CDATA[
.node, .edge {opacity: 0.7;}
.node.selected, .edge.selected {opacity: 1;}
.edge:hover path { stroke: red; }
.edge:hover polygon { stroke: red; fill: red; }
]]></style>

<defs>
  <circle id="rim" cx="0" cy="0" r="7"/>
  <circle id="rim2" cx="0" cy="0" r="3.5"/>
  <g id="zoomPlus">
    <use xlink:href="#rim" fill="#404040"><set attributeName="fill" to="#808080" begin="zoomplus.mouseover" end="zoomplus.mouseout"/></use>
    <path d="M-4,0h8M0,-4v8" fill="none" stroke="white" stroke-width="1.5" pointer-events="none"/>
  </g>
  <g id="zoomMin">
    <use xlink:href="#rim" fill="#404040"><set attributeName="fill" to="#808080" begin="zoomminus.mouseover" end="zoomminus.mouseout"/></use>
    <path d="M-4,0h8" fill="none" stroke="white" stroke-width="1.5" pointer-events="none"/>
  </g>
  <g id="arrowUp" transform="translate(30 24)">
    <use xlink:href="#rim"/>
    <path pointer-events="none" fill="none" stroke="white" stroke-width="1.5" d="M0,-3.0v7 M-2.5,-0.5L0,-3.0L2.5,-0.5"/>
  </g>
  <g id="arrowRight" transform="rotate(90) translate(36 -43)">
    <use xlink:href="#rim"/>
    <path pointer-events="none" fill="none" stroke="white" stroke-width="1.5" d="M0,-3.0v7 M-2.5,-0.5L0,-3.0L2.5,-0.5"/>
  </g>
  <g id="arrowDown" transform="rotate(180) translate(-30 -48)">
    <use xlink:href="#rim"/>
    <path pointer-events="none" fill="none" stroke="white" stroke-width="1.5" d="M0,-3.0v7 M-2.5,-0.5L0,-3.0L2.5,-0.5"/>
  </g>
  <g id="arrowLeft" transform="rotate(270) translate(-36 17)">
    <use xlink:href="#rim"/>
    <path pointer-events="none" fill="none" stroke="white" stroke-width="1.5" d="M0,-3.0v7 M-2.5,-0.5L0,-3.0L2.5,-0.5"/>
  </g>
  <g id="resetDef">
    <use xlink:href="#rim2" fill="#404040"><set attributeName="fill" to="#808080" begin="reset.mouseover" end="reset.mouseout"/></use>
  </g>
</defs>
<script type="application/ecmascript">
var viewWidth = 570;
var viewHeight = 235;
var sectionId = 'dynsection-4';
</script>
<script type="application/ecmascript" xlink:href="svg.min.js"/>
<svg id="graph" class="graph">
<g id="viewport">
<title>edu.wpi.first.wpilibj.SensorUtil.getDefaultREVPHModule</title>
<!-- Node1 -->
<g id="Node000001" class="node">
<title>Node1</title>
<g id="a_Node000001"><a xlink:title=" ">
<polygon fill="#999999" stroke="#666666" points="561.75,-79.5 416,-79.5 416,-49 561.75,-49 561.75,-79.5"/>
<text text-anchor="start" x="424" y="-66" font-family="Helvetica,sans-Serif" font-size="10.00">edu.wpi.first.wpilibj.Sensor</text>
<text text-anchor="middle" x="488.88" y="-54.75" font-family="Helvetica,sans-Serif" font-size="10.00">Util.getDefaultREVPHModule</text>
</a>
</g>
</g>
<!-- Node2 -->
<g id="Node000002" class="node">
<title>Node2</title>
<g id="a_Node000002"><a xlink:href="interfaceedu_1_1wpi_1_1first_1_1wpilibj_1_1_pneumatics_base.html#a7f07af9f270e5dbb58336c1b605e6465" target="_top" xlink:title=" ">
<polygon fill="white" stroke="#666666" points="380,-128.5 226,-128.5 226,-98 380,-98 380,-128.5"/>
<text text-anchor="start" x="234" y="-115" font-family="Helvetica,sans-Serif" font-size="10.00">edu.wpi.first.wpilibj.Pneumatics</text>
<text text-anchor="middle" x="303" y="-103.75" font-family="Helvetica,sans-Serif" font-size="10.00">Base.getDefaultForType</text>
</a>
</g>
</g>
<!-- Node1&#45;&gt;Node2 -->
<g id="edge1_Node000001_Node000002" class="edge">
<title>Node1&#45;&gt;Node2</title>
<g id="a_edge1_Node000001_Node000002"><a xlink:title=" ">
<path fill="none" stroke="#63b8ff" d="M417.84,-82.91C399.72,-87.74 380.4,-92.89 362.92,-97.55"/>
<polygon fill="#63b8ff" stroke="#63b8ff" points="418.71,-86.3 427.47,-80.35 416.91,-79.54 418.71,-86.3"/>
</a>
</g>
</g>
<!-- Node8 -->
<g id="Node000008" class="node">
<title>Node8</title>
<g id="a_Node000008"><a xlink:href="classedu_1_1wpi_1_1first_1_1wpilibj_1_1_pneumatic_hub.html#a363b694ee5c20012f883eaa25b0a35b8" target="_top" xlink:title=" ">
<polygon fill="white" stroke="#666666" points="377.38,-79.5 228.62,-79.5 228.62,-49 377.38,-49 377.38,-79.5"/>
<text text-anchor="start" x="236.62" y="-66" font-family="Helvetica,sans-Serif" font-size="10.00">edu.wpi.first.wpilibj.Pneumatic</text>
<text text-anchor="middle" x="303" y="-54.75" font-family="Helvetica,sans-Serif" font-size="10.00">Hub.PneumaticHub</text>
</a>
</g>
</g>
<!-- Node1&#45;&gt;Node8 -->
<g id="edge7_Node000001_Node000008" class="edge">
<title>Node1&#45;&gt;Node8</title>
<g id="a_edge7_Node000001_Node000008"><a xlink:title=" ">
<path fill="none" stroke="#63b8ff" d="M404.51,-64.25C395.59,-64.25 386.55,-64.25 377.75,-64.25"/>
<polygon fill="#63b8ff" stroke="#63b8ff" points="404.22,-67.75 414.22,-64.25 404.22,-60.75 404.22,-67.75"/>
</a>
</g>
</g>
<!-- Node9 -->
<g id="Node000009" class="node">
<title>Node9</title>
<g id="a_Node000009"><a xlink:href="classedu_1_1wpi_1_1first_1_1wpilibj_1_1simulation_1_1_r_e_v_p_h_sim.html#ac67ea0e3e438f8d4ff139ba85b9d8185" target="_top" xlink:title=" ">
<polygon fill="white" stroke="#666666" points="377.75,-30.5 228.25,-30.5 228.25,0 377.75,0 377.75,-30.5"/>
<text text-anchor="start" x="236.25" y="-17" font-family="Helvetica,sans-Serif" font-size="10.00">edu.wpi.first.wpilibj.simulation.</text>
<text text-anchor="middle" x="303" y="-5.75" font-family="Helvetica,sans-Serif" font-size="10.00">REVPHSim.REVPHSim</text>
</a>
</g>
</g>
<!-- Node1&#45;&gt;Node9 -->
<g id="edge8_Node000001_Node000009" class="edge">
<title>Node1&#45;&gt;Node9</title>
<g id="a_edge8_Node000001_Node000009"><a xlink:title=" ">
<path fill="none" stroke="#63b8ff" d="M417.84,-45.59C399.72,-40.76 380.4,-35.61 362.92,-30.95"/>
<polygon fill="#63b8ff" stroke="#63b8ff" points="416.91,-48.96 427.47,-48.15 418.71,-42.2 416.91,-48.96"/>
</a>
</g>
</g>
<!-- Node3 -->
<g id="Node000003" class="node">
<title>Node3</title>
<g id="a_Node000003"><a xlink:href="classedu_1_1wpi_1_1first_1_1wpilibj_1_1_compressor.html#af0d27dcf99c6132ddbca7c320884bcc9" target="_top" xlink:title=" ">
<polygon fill="white" stroke="#666666" points="173.88,-226.5 16.12,-226.5 16.12,-196 173.88,-196 173.88,-226.5"/>
<text text-anchor="start" x="24.12" y="-213" font-family="Helvetica,sans-Serif" font-size="10.00">edu.wpi.first.wpilibj.Compressor.</text>
<text text-anchor="middle" x="95" y="-201.75" font-family="Helvetica,sans-Serif" font-size="10.00">Compressor</text>
</a>
</g>
</g>
<!-- Node2&#45;&gt;Node3 -->
<g id="edge2_Node000002_Node000003" class="edge">
<title>Node2&#45;&gt;Node3</title>
<g id="a_edge2_Node000002_Node000003"><a xlink:title=" ">
<path fill="none" stroke="#63b8ff" d="M273.46,-135.52C251.65,-151.6 220.29,-172.77 190,-186.25 182.13,-189.75 173.67,-192.85 165.16,-195.57"/>
<polygon fill="#63b8ff" stroke="#63b8ff" points="275.36,-138.47 281.26,-129.67 271.16,-132.87 275.36,-138.47"/>
</a>
</g>
</g>
<!-- Node4 -->
<g id="Node000004" class="node">
<title>Node4</title>
<g id="a_Node000004"><a xlink:href="classedu_1_1wpi_1_1first_1_1wpilibj_1_1_double_solenoid.html#aa80f7927d5629ad62d5a306627f7325c" target="_top" xlink:title=" ">
<polygon fill="white" stroke="#666666" points="161.5,-177.5 28.5,-177.5 28.5,-147 161.5,-147 161.5,-177.5"/>
<text text-anchor="start" x="36.5" y="-164" font-family="Helvetica,sans-Serif" font-size="10.00">edu.wpi.first.wpilibj.Double</text>
<text text-anchor="middle" x="95" y="-152.75" font-family="Helvetica,sans-Serif" font-size="10.00">Solenoid.DoubleSolenoid</text>
</a>
</g>
</g>
<!-- Node2&#45;&gt;Node4 -->
<g id="edge3_Node000002_Node000004" class="edge">
<title>Node2&#45;&gt;Node4</title>
<g id="a_edge3_Node000002_Node000004"><a xlink:title=" ">
<path fill="none" stroke="#63b8ff" d="M224.92,-131.59C204.1,-136.54 181.78,-141.85 161.66,-146.63"/>
<polygon fill="#63b8ff" stroke="#63b8ff" points="225.58,-135.03 234.5,-129.31 223.96,-128.22 225.58,-135.03"/>
</a>
</g>
</g>
<!-- Node5 -->
<g id="Node000005" class="node">
<title>Node5</title>
<g id="a_Node000005"><a xlink:href="classedu_1_1wpi_1_1first_1_1wpilibj_1_1simulation_1_1_double_solenoid_sim.html#a46a24e037822569ae9d627a5e37cda23" target="_top" xlink:title=" ">
<polygon fill="white" stroke="#666666" points="190,-128.5 0,-128.5 0,-98 190,-98 190,-128.5"/>
<text text-anchor="start" x="8" y="-115" font-family="Helvetica,sans-Serif" font-size="10.00">edu.wpi.first.wpilibj.simulation.</text>
<text text-anchor="middle" x="95" y="-103.75" font-family="Helvetica,sans-Serif" font-size="10.00">DoubleSolenoidSim.DoubleSolenoidSim</text>
</a>
</g>
</g>
<!-- Node2&#45;&gt;Node5 -->
<g id="edge4_Node000002_Node000005" class="edge">
<title>Node2&#45;&gt;Node5</title>
<g id="a_edge4_Node000002_Node000005"><a xlink:title=" ">
<path fill="none" stroke="#63b8ff" d="M214.18,-113.25C206.33,-113.25 198.35,-113.25 190.44,-113.25"/>
<polygon fill="#63b8ff" stroke="#63b8ff" points="214.07,-116.75 224.07,-113.25 214.07,-109.75 214.07,-116.75"/>
</a>
</g>
</g>
<!-- Node6 -->
<g id="Node000006" class="node">
<title>Node6</title>
<g id="a_Node000006"><a xlink:href="classedu_1_1wpi_1_1first_1_1wpilibj_1_1_solenoid.html#a8e37ae613c1811380d9ce3fcbe5b9682" target="_top" xlink:title=" ">
<polygon fill="white" stroke="#666666" points="166.38,-79.5 23.62,-79.5 23.62,-49 166.38,-49 166.38,-79.5"/>
<text text-anchor="start" x="31.62" y="-66" font-family="Helvetica,sans-Serif" font-size="10.00">edu.wpi.first.wpilibj.Solenoid.</text>
<text text-anchor="middle" x="95" y="-54.75" font-family="Helvetica,sans-Serif" font-size="10.00">Solenoid</text>
</a>
</g>
</g>
<!-- Node2&#45;&gt;Node6 -->
<g id="edge5_Node000002_Node000006" class="edge">
<title>Node2&#45;&gt;Node6</title>
<g id="a_edge5_Node000002_Node000006"><a xlink:title=" ">
<path fill="none" stroke="#63b8ff" d="M224.97,-94.93C204.26,-90 182.06,-84.72 162.01,-79.95"/>
<polygon fill="#63b8ff" stroke="#63b8ff" points="223.96,-98.28 234.5,-97.19 225.58,-91.47 223.96,-98.28"/>
</a>
</g>
</g>
<!-- Node7 -->
<g id="Node000007" class="node">
<title>Node7</title>
<g id="a_Node000007"><a xlink:href="classedu_1_1wpi_1_1first_1_1wpilibj_1_1simulation_1_1_solenoid_sim.html#aa302bfd31059a6655c1133d0a549a2ce" target="_top" xlink:title=" ">
<polygon fill="white" stroke="#666666" points="169.75,-30.5 20.25,-30.5 20.25,0 169.75,0 169.75,-30.5"/>
<text text-anchor="start" x="28.25" y="-17" font-family="Helvetica,sans-Serif" font-size="10.00">edu.wpi.first.wpilibj.simulation.</text>
<text text-anchor="middle" x="95" y="-5.75" font-family="Helvetica,sans-Serif" font-size="10.00">SolenoidSim.SolenoidSim</text>
</a>
</g>
</g>
<!-- Node2&#45;&gt;Node7 -->
<g id="edge6_Node000002_Node000007" class="edge">
<title>Node2&#45;&gt;Node7</title>
<g id="a_edge6_Node000002_Node000007"><a xlink:title=" ">
<path fill="none" stroke="#63b8ff" d="M232.05,-92.21C229.96,-90.96 227.94,-89.64 226,-88.25 204.34,-72.7 212.1,-55.17 190,-40.25 183.84,-36.09 177.02,-32.63 169.95,-29.74"/>
<polygon fill="#63b8ff" stroke="#63b8ff" points="230.36,-95.28 240.84,-96.84 233.62,-89.08 230.36,-95.28"/>
</a>
</g>
</g>
</g>
</svg>

<g id="navigator" transform="translate(0 0)" fill="#404254">
  <rect fill="#f2f5e9" fill-opacity="0.5" stroke="#606060" stroke-width=".5" x="0" y="0" width="60" height="60"/>
  <use id="zoomplus" xlink:href="#zoomPlus" x="17" y="9" onmousedown="handleZoom(evt,'in')"/>
  <use id="zoomminus" xlink:href="#zoomMin" x="42" y="9" onmousedown="handleZoom(evt,'out')"/>
  <use id="reset" xlink:href="#resetDef" x="30" y="36" onmousedown="handleReset()"/>
   <use id="arrowup" xlink:href="#arrowUp" x="0" y="0" onmousedown="handlePan(0,-1)"/>
  <use id="arrowright" xlink:href="#arrowRight" x="0" y="0" onmousedown="handlePan(1,0)"/>
  <use id="arrowdown" xlink:href="#arrowDown" x="0" y="0" onmousedown="handlePan(0,1)"/>
  <use id="arrowleft" xlink:href="#arrowLeft" x="0" y="0" onmousedown="handlePan(-1,0)"/>
</g>
<svg viewBox="0 0 15 15" width="100%" height="30px" preserveAspectRatio="xMaxYMin meet">
 <g id="arrow_out" transform="scale(0.3 0.3)">
  <a xlink:href="classedu_1_1wpi_1_1first_1_1wpilibj_1_1_sensor_util_a9d29bd9b554cc92650b42adc333681ef_icgraph_org.svg" target="_base">
   <rect id="button" ry="5" rx="5" y="6" x="6" height="38" width="38"
        fill="#f2f5e9" fill-opacity="0.5" stroke="#606060" stroke-width="1.0"/>
   <path id="arrow"
     d="M 11.500037,31.436501 C 11.940474,20.09759 22.043105,11.32322 32.158766,21.979434 L 37.068811,17.246167 C 37.068811,17.246167 37.088388,32 37.088388,32 L 22.160133,31.978069 C 22.160133,31.978069 26.997745,27.140456 26.997745,27.140456 C 18.528582,18.264221 13.291696,25.230495 11.500037,31.436501 z"
     style="fill:#404040;"/>
  </a>
 </g>
</svg>

<style type='text/css'>
<![CDATA[
[data-mouse-over-selected='false'] { opacity: 0.7; }
[data-mouse-over-selected='true']  { opacity: 1.0; }
]]>
</style>
<script type="application/ecmascript"><![CDATA[
document.addEventListener('DOMContentLoaded', (event) => {
  highlightEdges();
  highlightAdjacentNodes();
});
]]></script>
</svg>
