<?xml version="1.0" encoding="UTF-8" standalone="no"?>
<!DOCTYPE svg PUBLIC "-//W3C//DTD SVG 1.1//EN"
 "http://www.w3.org/Graphics/SVG/1.1/DTD/svg11.dtd">
<!-- Generated by graphviz version 9.0.0 (20230911.1827)
 -->
<!-- Title: edu.wpi.first.wpilibj.PWM.setDisabled Pages: 1 -->
<svg width="542pt" height="119pt"
 viewBox="0.00 0.00 542.00 118.88" xmlns="http://www.w3.org/2000/svg" xmlns:xlink="http://www.w3.org/1999/xlink">
<g id="graph0" class="graph" transform="scale(1 1) rotate(0) translate(4 114.88)">
<title>edu.wpi.first.wpilibj.PWM.setDisabled</title>
<!-- Node1 -->
<g id="Node000001" class="node">
<title>Node1</title>
<g id="a_Node000001"><a xlink:title=" ">
<polygon fill="#999999" stroke="#666666" points="534,-67.88 390.5,-67.88 390.5,-37.38 534,-37.38 534,-67.88"/>
<text text-anchor="start" x="398.5" y="-54.38" font-family="Helvetica,sans-Serif" font-size="10.00">edu.wpi.first.wpilibj.PWM.set</text>
<text text-anchor="middle" x="462.25" y="-43.12" font-family="Helvetica,sans-Serif" font-size="10.00">Disabled</text>
</a>
</g>
</g>
<!-- Node2 -->
<g id="Node000002" class="node">
<title>Node2</title>
<g id="a_Node000002"><a xlink:href="classedu_1_1wpi_1_1first_1_1wpilibj_1_1_p_w_m.html#af2d3b729ed8e42c9983e153672956209" target="_top" xlink:title=" ">
<polygon fill="white" stroke="#666666" points="351.5,-105.25 198.25,-105.25 198.25,-86 351.5,-86 351.5,-105.25"/>
<text text-anchor="middle" x="274.88" y="-91.75" font-family="Helvetica,sans-Serif" font-size="10.00">edu.wpi.first.wpilibj.PWM.close</text>
</a>
</g>
</g>
<!-- Node1&#45;&gt;Node2 -->
<g id="edge1_Node000001_Node000002" class="edge">
<title>Node1&#45;&gt;Node2</title>
<g id="a_edge1_Node000001_Node000002"><a xlink:title=" ">
<path fill="none" stroke="#63b8ff" d="M382.39,-70.92C360.84,-75.92 338.26,-81.15 319.47,-85.51"/>
<polygon fill="#63b8ff" stroke="#63b8ff" points="383.11,-74.34 392.06,-68.67 381.53,-67.52 383.11,-74.34"/>
</a>
</g>
</g>
<!-- Node4 -->
<g id="Node000004" class="node">
<title>Node4</title>
<g id="a_Node000004"><a xlink:href="classedu_1_1wpi_1_1first_1_1wpilibj_1_1motorcontrol_1_1_p_w_m_motor_controller.html#aa5f8db6e1f2360e4a6fd06aa30c158c8" target="_top" xlink:title=" ">
<polygon fill="white" stroke="#666666" points="354.5,-67.88 195.25,-67.88 195.25,-37.38 354.5,-37.38 354.5,-67.88"/>
<text text-anchor="start" x="203.25" y="-54.38" font-family="Helvetica,sans-Serif" font-size="10.00">edu.wpi.first.wpilibj.motorcontrol.</text>
<text text-anchor="middle" x="274.88" y="-43.12" font-family="Helvetica,sans-Serif" font-size="10.00">PWMMotorController.disable</text>
</a>
</g>
</g>
<!-- Node1&#45;&gt;Node4 -->
<g id="edge3_Node000001_Node000004" class="edge">
<title>Node1&#45;&gt;Node4</title>
<g id="a_edge3_Node000001_Node000004"><a xlink:title=" ">
<path fill="none" stroke="#63b8ff" d="M378.63,-52.62C370.72,-52.62 362.72,-52.62 354.85,-52.62"/>
<polygon fill="#63b8ff" stroke="#63b8ff" points="378.6,-56.13 388.6,-52.63 378.6,-49.13 378.6,-56.13"/>
</a>
</g>
</g>
<!-- Node5 -->
<g id="Node000005" class="node">
<title>Node5</title>
<g id="a_Node000005"><a xlink:href="classedu_1_1wpi_1_1first_1_1wpilibj_1_1_p_w_m.html#a17d9a17ed0e9f2769b3fcef91f4ec873" target="_top" xlink:title=" ">
<polygon fill="white" stroke="#666666" points="352.25,-19.25 197.5,-19.25 197.5,0 352.25,0 352.25,-19.25"/>
<text text-anchor="middle" x="274.88" y="-5.75" font-family="Helvetica,sans-Serif" font-size="10.00">edu.wpi.first.wpilibj.PWM.PWM</text>
</a>
</g>
</g>
<!-- Node1&#45;&gt;Node5 -->
<g id="edge4_Node000001_Node000005" class="edge">
<title>Node1&#45;&gt;Node5</title>
<g id="a_edge4_Node000001_Node000005"><a xlink:title=" ">
<path fill="none" stroke="#63b8ff" d="M382.39,-34.33C360.84,-29.33 338.26,-24.1 319.47,-19.74"/>
<polygon fill="#63b8ff" stroke="#63b8ff" points="381.53,-37.73 392.06,-36.58 383.11,-30.91 381.53,-37.73"/>
</a>
</g>
</g>
<!-- Node3 -->
<g id="Node000003" class="node">
<title>Node3</title>
<g id="a_Node000003"><a xlink:href="classedu_1_1wpi_1_1first_1_1wpilibj_1_1motorcontrol_1_1_p_w_m_motor_controller.html#aa1651e18c3524497755f9d41ed9e2560" target="_top" xlink:title=" ">
<polygon fill="white" stroke="#666666" points="159.25,-110.88 0,-110.88 0,-80.38 159.25,-80.38 159.25,-110.88"/>
<text text-anchor="start" x="8" y="-97.38" font-family="Helvetica,sans-Serif" font-size="10.00">edu.wpi.first.wpilibj.motorcontrol.</text>
<text text-anchor="middle" x="79.62" y="-86.12" font-family="Helvetica,sans-Serif" font-size="10.00">PWMMotorController.close</text>
</a>
</g>
</g>
<!-- Node2&#45;&gt;Node3 -->
<g id="edge2_Node000002_Node000003" class="edge">
<title>Node2&#45;&gt;Node3</title>
<g id="a_edge2_Node000002_Node000003"><a xlink:title=" ">
<path fill="none" stroke="#63b8ff" d="M186.48,-95.62C177.49,-95.62 168.4,-95.62 159.52,-95.62"/>
<polygon fill="#63b8ff" stroke="#63b8ff" points="186.26,-99.13 196.26,-95.63 186.26,-92.13 186.26,-99.13"/>
</a>
</g>
</g>
</g>
</svg>
