<?xml version="1.0" encoding="UTF-8" standalone="no"?>
<!DOCTYPE svg PUBLIC "-//W3C//DTD SVG 1.1//EN"
 "http://www.w3.org/Graphics/SVG/1.1/DTD/svg11.dtd">
<!-- Generated by graphviz version 9.0.0 (20230911.1827)
 -->
<!-- Title: edu.wpi.first.wpilibj.smartdashboard.SmartDashboard.putData Pages: 1 -->
<svg width="394pt" height="76pt"
 viewBox="0.00 0.00 394.00 75.88" xmlns="http://www.w3.org/2000/svg" xmlns:xlink="http://www.w3.org/1999/xlink">
<g id="graph0" class="graph" transform="scale(1 1) rotate(0) translate(4 71.88)">
<title>edu.wpi.first.wpilibj.smartdashboard.SmartDashboard.putData</title>
<!-- Node1 -->
<g id="Node000001" class="node">
<title>Node1</title>
<g id="a_Node000001"><a xlink:title=" ">
<polygon fill="#999999" stroke="#666666" points="386,-45.88 211,-45.88 211,-15.37 386,-15.37 386,-45.88"/>
<text text-anchor="start" x="219" y="-32.38" font-family="Helvetica,sans-Serif" font-size="10.00">edu.wpi.first.wpilibj.smartdashboard.</text>
<text text-anchor="middle" x="298.5" y="-21.12" font-family="Helvetica,sans-Serif" font-size="10.00">SmartDashboard.putData</text>
</a>
</g>
</g>
<!-- Node2 -->
<g id="Node000002" class="node">
<title>Node2</title>
<g id="a_Node000002"><a xlink:href="classedu_1_1wpi_1_1first_1_1wpilibj_1_1smartdashboard_1_1_smart_dashboard.html#aec25e2521babbb1bafbc823d773fc1b8" target="_top" xlink:title=" ">
<polygon fill="white" stroke="#666666" points="175,-67.88 0,-67.88 0,-37.38 175,-37.38 175,-67.88"/>
<text text-anchor="start" x="8" y="-54.38" font-family="Helvetica,sans-Serif" font-size="10.00">edu.wpi.first.wpilibj.smartdashboard.</text>
<text text-anchor="middle" x="87.5" y="-43.12" font-family="Helvetica,sans-Serif" font-size="10.00">SmartDashboard.putData</text>
</a>
</g>
</g>
<!-- Node1&#45;&gt;Node2 -->
<g id="edge1_Node000001_Node000002" class="edge">
<title>Node1&#45;&gt;Node2</title>
<g id="a_edge1_Node000001_Node000002"><a xlink:title=" ">
<path fill="none" stroke="#63b8ff" d="M199.4,-40.95C191.38,-41.8 183.31,-42.64 175.39,-43.48"/>
<polygon fill="#63b8ff" stroke="#63b8ff" points="199.6,-44.45 209.18,-39.92 198.86,-37.49 199.6,-44.45"/>
</a>
</g>
</g>
<!-- Node3 -->
<g id="Node000003" class="node">
<title>Node3</title>
<g id="a_Node000003"><a xlink:href="classfrc_1_1robot_1_1_robot.html#a1d28582cf3dc31568c3581f631c92f13" target="_top" xlink:title=" ">
<polygon fill="white" stroke="#666666" points="147.25,-19.25 27.75,-19.25 27.75,0 147.25,0 147.25,-19.25"/>
<text text-anchor="middle" x="87.5" y="-5.75" font-family="Helvetica,sans-Serif" font-size="10.00">frc.robot.Robot.robotInit</text>
</a>
</g>
</g>
<!-- Node1&#45;&gt;Node3 -->
<g id="edge2_Node000001_Node000003" class="edge">
<title>Node1&#45;&gt;Node3</title>
<g id="a_edge2_Node000001_Node000003"><a xlink:title=" ">
<path fill="none" stroke="#63b8ff" d="M199.43,-20.77C181.76,-19 163.85,-17.2 147.72,-15.58"/>
<polygon fill="#63b8ff" stroke="#63b8ff" points="198.88,-24.23 209.17,-21.75 199.57,-17.27 198.88,-24.23"/>
</a>
</g>
</g>
</g>
</svg>
