<?xml version="1.0" encoding="UTF-8" standalone="no"?>
<!DOCTYPE svg PUBLIC "-//W3C//DTD SVG 1.1//EN"
 "http://www.w3.org/Graphics/SVG/1.1/DTD/svg11.dtd">
<!-- Generated by graphviz version 9.0.0 (20230911.1827)
 -->
<!-- Title: edu.wpi.first.wpilibj.shuffleboard.SendableCameraWrapper Pages: 1 -->
<svg width="170pt" height="94pt"
 viewBox="0.00 0.00 170.12 93.75" xmlns="http://www.w3.org/2000/svg" xmlns:xlink="http://www.w3.org/1999/xlink">
<g id="graph0" class="graph" transform="scale(1 1) rotate(0) translate(4 89.75)">
<title>edu.wpi.first.wpilibj.shuffleboard.SendableCameraWrapper</title>
<!-- Node1 -->
<g id="Node000001" class="node">
<title>Node1</title>
<g id="a_Node000001"><a xlink:title=" ">
<polygon fill="#999999" stroke="#666666" points="158.5,-30.5 0,-30.5 0,0 158.5,0 158.5,-30.5"/>
<text text-anchor="start" x="8" y="-17" font-family="Helvetica,sans-Serif" font-size="10.00">edu.wpi.first.wpilibj.shuffleboard.</text>
<text text-anchor="middle" x="79.25" y="-5.75" font-family="Helvetica,sans-Serif" font-size="10.00">SendableCameraWrapper</text>
</a>
</g>
</g>
<!-- Node2 -->
<g id="Node000002" class="node">
<title>Node2</title>
<g id="a_Node000002"><a xlink:title=" ">
<polygon fill="white" stroke="#bfbfbf" points="64.5,-85.75 8,-85.75 8,-66.5 64.5,-66.5 64.5,-85.75"/>
<text text-anchor="middle" x="36.25" y="-72.25" font-family="Helvetica,sans-Serif" font-size="10.00">Sendable</text>
</a>
</g>
</g>
<!-- Node2&#45;&gt;Node1 -->
<g id="edge1_Node000001_Node000002" class="edge">
<title>Node2&#45;&gt;Node1</title>
<g id="a_edge1_Node000001_Node000002"><a xlink:title=" ">
<path fill="none" stroke="#63b8ff" d="M49.38,-57.15C55.55,-48.7 62.82,-38.75 68.64,-30.78"/>
<polygon fill="#63b8ff" stroke="#63b8ff" points="46.75,-54.82 43.67,-64.96 52.4,-58.95 46.75,-54.82"/>
</a>
</g>
</g>
<!-- Node3 -->
<g id="Node000003" class="node">
<title>Node3</title>
<g id="a_Node000003"><a xlink:title=" ">
<polygon fill="white" stroke="#bfbfbf" points="162.12,-85.75 82.38,-85.75 82.38,-66.5 162.12,-66.5 162.12,-85.75"/>
<text text-anchor="middle" x="122.25" y="-72.25" font-family="Helvetica,sans-Serif" font-size="10.00">AutoCloseable</text>
</a>
</g>
</g>
<!-- Node3&#45;&gt;Node1 -->
<g id="edge2_Node000001_Node000003" class="edge">
<title>Node3&#45;&gt;Node1</title>
<g id="a_edge2_Node000001_Node000003"><a xlink:title=" ">
<path fill="none" stroke="#63b8ff" d="M109.12,-57.15C102.95,-48.7 95.68,-38.75 89.86,-30.78"/>
<polygon fill="#63b8ff" stroke="#63b8ff" points="106.1,-58.95 114.83,-64.96 111.75,-54.82 106.1,-58.95"/>
</a>
</g>
</g>
</g>
</svg>
