<?xml version="1.0" encoding="UTF-8" standalone="no"?>
<!DOCTYPE svg PUBLIC "-//W3C//DTD SVG 1.1//EN"
 "http://www.w3.org/Graphics/SVG/1.1/DTD/svg11.dtd">
<!-- Generated by graphviz version 9.0.0 (20230911.1827)
 -->
<!-- Title: edu.wpi.first.wpilibj.drive.MecanumDrive Pages: 1 -->
<svg width="306pt" height="172pt"
 viewBox="0.00 0.00 306.38 171.50" xmlns="http://www.w3.org/2000/svg" xmlns:xlink="http://www.w3.org/1999/xlink">
<g id="graph0" class="graph" transform="scale(1 1) rotate(0) translate(4 167.5)">
<title>edu.wpi.first.wpilibj.drive.MecanumDrive</title>
<!-- Node1 -->
<g id="Node000001" class="node">
<title>Node1</title>
<g id="a_Node000001"><a xlink:title=" ">
<polygon fill="#999999" stroke="#666666" points="235.62,-30.5 109.38,-30.5 109.38,0 235.62,0 235.62,-30.5"/>
<text text-anchor="start" x="117.38" y="-17" font-family="Helvetica,sans-Serif" font-size="10.00">edu.wpi.first.wpilibj.drive.</text>
<text text-anchor="middle" x="172.5" y="-5.75" font-family="Helvetica,sans-Serif" font-size="10.00">MecanumDrive</text>
</a>
</g>
</g>
<!-- Node2 -->
<g id="Node000002" class="node">
<title>Node2</title>
<g id="a_Node000002"><a xlink:href="classedu_1_1wpi_1_1first_1_1wpilibj_1_1drive_1_1_robot_drive_base.html" target="_top" xlink:title=" ">
<polygon fill="white" stroke="#666666" points="126.62,-97 0.38,-97 0.38,-66.5 126.62,-66.5 126.62,-97"/>
<text text-anchor="start" x="8.38" y="-83.5" font-family="Helvetica,sans-Serif" font-size="10.00">edu.wpi.first.wpilibj.drive.</text>
<text text-anchor="middle" x="63.5" y="-72.25" font-family="Helvetica,sans-Serif" font-size="10.00">RobotDriveBase</text>
</a>
</g>
</g>
<!-- Node2&#45;&gt;Node1 -->
<g id="edge1_Node000001_Node000002" class="edge">
<title>Node2&#45;&gt;Node1</title>
<g id="a_edge1_Node000001_Node000002"><a xlink:title=" ">
<path fill="none" stroke="#63b8ff" d="M97.91,-60.39C114.13,-50.79 133.11,-39.56 147.86,-30.83"/>
<polygon fill="#63b8ff" stroke="#63b8ff" points="96.36,-57.24 89.54,-65.34 99.92,-63.26 96.36,-57.24"/>
</a>
</g>
</g>
<!-- Node3 -->
<g id="Node000003" class="node">
<title>Node3</title>
<g id="a_Node000003"><a xlink:href="classedu_1_1wpi_1_1first_1_1wpilibj_1_1_motor_safety.html" target="_top" xlink:title=" ">
<polygon fill="white" stroke="#666666" points="127,-163.5 0,-163.5 0,-133 127,-133 127,-163.5"/>
<text text-anchor="start" x="8" y="-150" font-family="Helvetica,sans-Serif" font-size="10.00">edu.wpi.first.wpilibj.Motor</text>
<text text-anchor="middle" x="63.5" y="-138.75" font-family="Helvetica,sans-Serif" font-size="10.00">Safety</text>
</a>
</g>
</g>
<!-- Node3&#45;&gt;Node2 -->
<g id="edge2_Node000002_Node000003" class="edge">
<title>Node3&#45;&gt;Node2</title>
<g id="a_edge2_Node000002_Node000003"><a xlink:title=" ">
<path fill="none" stroke="#63b8ff" d="M63.5,-121.31C63.5,-113.14 63.5,-104.41 63.5,-97.33"/>
<polygon fill="#63b8ff" stroke="#63b8ff" points="60,-121.1 63.5,-131.1 67,-121.1 60,-121.1"/>
</a>
</g>
</g>
<!-- Node4 -->
<g id="Node000004" class="node">
<title>Node4</title>
<g id="a_Node000004"><a xlink:title=" ">
<polygon fill="white" stroke="#bfbfbf" points="200.75,-91.38 144.25,-91.38 144.25,-72.12 200.75,-72.12 200.75,-91.38"/>
<text text-anchor="middle" x="172.5" y="-77.88" font-family="Helvetica,sans-Serif" font-size="10.00">Sendable</text>
</a>
</g>
</g>
<!-- Node4&#45;&gt;Node1 -->
<g id="edge3_Node000001_Node000004" class="edge">
<title>Node4&#45;&gt;Node1</title>
<g id="a_edge3_Node000001_Node000004"><a xlink:title=" ">
<path fill="none" stroke="#63b8ff" d="M172.5,-60.37C172.5,-50.69 172.5,-39.35 172.5,-30.59"/>
<polygon fill="#63b8ff" stroke="#63b8ff" points="169,-60.27 172.5,-70.27 176,-60.27 169,-60.27"/>
</a>
</g>
</g>
<!-- Node5 -->
<g id="Node000005" class="node">
<title>Node5</title>
<g id="a_Node000005"><a xlink:title=" ">
<polygon fill="white" stroke="#bfbfbf" points="298.38,-91.38 218.62,-91.38 218.62,-72.12 298.38,-72.12 298.38,-91.38"/>
<text text-anchor="middle" x="258.5" y="-77.88" font-family="Helvetica,sans-Serif" font-size="10.00">AutoCloseable</text>
</a>
</g>
</g>
<!-- Node5&#45;&gt;Node1 -->
<g id="edge4_Node000001_Node000005" class="edge">
<title>Node5&#45;&gt;Node1</title>
<g id="a_edge4_Node000001_Node000005"><a xlink:title=" ">
<path fill="none" stroke="#63b8ff" d="M237.7,-65.15C223.78,-54.71 205.58,-41.06 191.95,-30.84"/>
<polygon fill="#63b8ff" stroke="#63b8ff" points="235.23,-67.67 245.33,-70.87 239.43,-62.07 235.23,-67.67"/>
</a>
</g>
</g>
</g>
</svg>
