<?xml version="1.0" encoding="UTF-8" standalone="no"?>
<!DOCTYPE svg PUBLIC "-//W3C//DTD SVG 1.1//EN"
 "http://www.w3.org/Graphics/SVG/1.1/DTD/svg11.dtd">
<!-- Generated by graphviz version 9.0.0 (20230911.1827)
 -->
<!-- Title: edu.wpi.first.wpilibj.StadiaController.getLeftStickButtonReleased Pages: 1 -->
<svg width="895pt" height="106pt"
 viewBox="0.00 0.00 895.00 105.50" xmlns="http://www.w3.org/2000/svg" xmlns:xlink="http://www.w3.org/1999/xlink">
<g id="graph0" class="graph" transform="scale(1 1) rotate(0) translate(4 101.5)">
<title>edu.wpi.first.wpilibj.StadiaController.getLeftStickButtonReleased</title>
<!-- Node1 -->
<g id="Node000001" class="node">
<title>Node1</title>
<g id="a_Node000001"><a xlink:title=" ">
<polygon fill="#999999" stroke="#666666" points="182.5,-54.5 0,-54.5 0,-24 182.5,-24 182.5,-54.5"/>
<text text-anchor="start" x="8" y="-41" font-family="Helvetica,sans-Serif" font-size="10.00">edu.wpi.first.wpilibj.Stadia</text>
<text text-anchor="middle" x="91.25" y="-29.75" font-family="Helvetica,sans-Serif" font-size="10.00">Controller.getLeftStickButtonReleased</text>
</a>
</g>
</g>
<!-- Node2 -->
<g id="Node000002" class="node">
<title>Node2</title>
<g id="a_Node000002"><a xlink:href="classedu_1_1wpi_1_1first_1_1wpilibj_1_1_generic_h_i_d.html#a2087699248ada770e00ea78b91b8fd01" target="_top" xlink:title=" ">
<polygon fill="white" stroke="#666666" points="359,-54.5 218.5,-54.5 218.5,-24 359,-24 359,-54.5"/>
<text text-anchor="start" x="226.5" y="-41" font-family="Helvetica,sans-Serif" font-size="10.00">edu.wpi.first.wpilibj.Generic</text>
<text text-anchor="middle" x="288.75" y="-29.75" font-family="Helvetica,sans-Serif" font-size="10.00">HID.getRawButtonReleased</text>
</a>
</g>
</g>
<!-- Node1&#45;&gt;Node2 -->
<g id="edge1_Node000001_Node000002" class="edge">
<title>Node1&#45;&gt;Node2</title>
<g id="a_edge1_Node000001_Node000002"><a xlink:title=" ">
<path fill="none" stroke="#63b8ff" d="M182.85,-39.25C190.83,-39.25 198.88,-39.25 206.78,-39.25"/>
<polygon fill="#63b8ff" stroke="#63b8ff" points="206.71,-42.75 216.71,-39.25 206.71,-35.75 206.71,-42.75"/>
</a>
</g>
</g>
<!-- Node3 -->
<g id="Node000003" class="node">
<title>Node3</title>
<g id="a_Node000003"><a xlink:href="classedu_1_1wpi_1_1first_1_1wpilibj_1_1_generic_h_i_d.html#a77f3feaa9b70759aa7e26c20bec4bec2" target="_top" xlink:title=" ">
<polygon fill="white" stroke="#666666" points="540.75,-79.5 404.75,-79.5 404.75,-49 540.75,-49 540.75,-79.5"/>
<text text-anchor="start" x="412.75" y="-66" font-family="Helvetica,sans-Serif" font-size="10.00">edu.wpi.first.wpilibj.Generic</text>
<text text-anchor="middle" x="472.75" y="-54.75" font-family="Helvetica,sans-Serif" font-size="10.00">HID.button</text>
</a>
</g>
</g>
<!-- Node2&#45;&gt;Node3 -->
<g id="edge2_Node000002_Node000003" class="edge">
<title>Node2&#45;&gt;Node3</title>
<g id="a_edge2_Node000002_Node000003"><a xlink:title=" ">
<path fill="none" stroke="#63b8ff" d="M359.34,-48.81C370.4,-50.33 381.91,-51.91 393.16,-53.46"/>
<polygon fill="#63b8ff" stroke="#63b8ff" points="392.42,-56.89 402.81,-54.78 393.37,-49.95 392.42,-56.89"/>
</a>
</g>
</g>
<!-- Node6 -->
<g id="Node000006" class="node">
<title>Node6</title>
<g id="a_Node000006"><a xlink:href="classedu_1_1wpi_1_1first_1_1wpilibj_1_1_driver_station.html#af7d67c20055e6730e05c8ed4483ea79a" target="_top" xlink:title=" ">
<polygon fill="white" stroke="#666666" points="550.5,-30.5 395,-30.5 395,0 550.5,0 550.5,-30.5"/>
<text text-anchor="start" x="403" y="-17" font-family="Helvetica,sans-Serif" font-size="10.00">edu.wpi.first.wpilibj.Driver</text>
<text text-anchor="middle" x="472.75" y="-5.75" font-family="Helvetica,sans-Serif" font-size="10.00">Station.getStickButtonReleased</text>
</a>
</g>
</g>
<!-- Node2&#45;&gt;Node6 -->
<g id="edge7_Node000002_Node000006" class="edge">
<title>Node2&#45;&gt;Node6</title>
<g id="a_edge7_Node000002_Node000006"><a xlink:title=" ">
<path fill="none" stroke="#63b8ff" d="M359.34,-30.07C367.18,-29.04 375.25,-27.98 383.29,-26.92"/>
<polygon fill="#63b8ff" stroke="#63b8ff" points="383.66,-30.4 393.12,-25.62 382.74,-23.46 383.66,-30.4"/>
</a>
</g>
</g>
<!-- Node3&#45;&gt;Node3 -->
<g id="edge3_Node000003_Node000003" class="edge">
<title>Node3&#45;&gt;Node3</title>
<g id="a_edge3_Node000003_Node000003"><a xlink:title=" ">
<path fill="none" stroke="#63b8ff" d="M440.54,-79.99C433.97,-89.06 444.71,-97.5 472.75,-97.5 488.09,-97.5 498.25,-94.97 503.23,-91.2"/>
<polygon fill="#63b8ff" stroke="#63b8ff" points="506.66,-91.9 504.73,-81.48 499.75,-90.83 506.66,-91.9"/>
</a>
</g>
</g>
<!-- Node4 -->
<g id="Node000004" class="node">
<title>Node4</title>
<g id="a_Node000004"><a xlink:href="classedu_1_1wpi_1_1first_1_1wpilibj_1_1_generic_h_i_d.html#abdb0245e5cb7f7b92cc1060202821a2d" target="_top" xlink:title=" ">
<polygon fill="white" stroke="#666666" points="722.5,-79.5 586.5,-79.5 586.5,-49 722.5,-49 722.5,-79.5"/>
<text text-anchor="start" x="594.5" y="-66" font-family="Helvetica,sans-Serif" font-size="10.00">edu.wpi.first.wpilibj.Generic</text>
<text text-anchor="middle" x="654.5" y="-54.75" font-family="Helvetica,sans-Serif" font-size="10.00">HID.getRawButton</text>
</a>
</g>
</g>
<!-- Node3&#45;&gt;Node4 -->
<g id="edge4_Node000003_Node000004" class="edge">
<title>Node3&#45;&gt;Node4</title>
<g id="a_edge4_Node000003_Node000004"><a xlink:title=" ">
<path fill="none" stroke="#63b8ff" d="M541.19,-57.69C552.25,-57.5 563.79,-57.45 575.09,-57.55"/>
<polygon fill="#63b8ff" stroke="#63b8ff" points="574.72,-61.04 584.76,-57.67 574.81,-54.05 574.72,-61.04"/>
</a>
</g>
</g>
<!-- Node4&#45;&gt;Node3 -->
<g id="edge5_Node000004_Node000003" class="edge">
<title>Node4&#45;&gt;Node3</title>
<g id="a_edge5_Node000004_Node000003"><a xlink:title=" ">
<path fill="none" stroke="#63b8ff" d="M586.28,-70.81C575.22,-71 563.68,-71.05 552.39,-70.95"/>
<polygon fill="#63b8ff" stroke="#63b8ff" points="552.75,-67.46 542.71,-70.83 552.66,-74.46 552.75,-67.46"/>
</a>
</g>
</g>
<!-- Node5 -->
<g id="Node000005" class="node">
<title>Node5</title>
<g id="a_Node000005"><a xlink:href="classedu_1_1wpi_1_1first_1_1wpilibj_1_1_driver_station.html#a3d86d4b8414c05aafe18fc866d99ccab" target="_top" xlink:title=" ">
<polygon fill="white" stroke="#666666" points="887,-79.5 758.5,-79.5 758.5,-49 887,-49 887,-79.5"/>
<text text-anchor="start" x="766.5" y="-66" font-family="Helvetica,sans-Serif" font-size="10.00">edu.wpi.first.wpilibj.Driver</text>
<text text-anchor="middle" x="822.75" y="-54.75" font-family="Helvetica,sans-Serif" font-size="10.00">Station.getStickButton</text>
</a>
</g>
</g>
<!-- Node4&#45;&gt;Node5 -->
<g id="edge6_Node000004_Node000005" class="edge">
<title>Node4&#45;&gt;Node5</title>
<g id="a_edge6_Node000004_Node000005"><a xlink:title=" ">
<path fill="none" stroke="#63b8ff" d="M722.64,-64.25C730.6,-64.25 738.77,-64.25 746.83,-64.25"/>
<polygon fill="#63b8ff" stroke="#63b8ff" points="746.62,-67.75 756.62,-64.25 746.62,-60.75 746.62,-67.75"/>
</a>
</g>
</g>
</g>
</svg>
