<?xml version="1.0" encoding="UTF-8" standalone="no"?>
<!DOCTYPE svg PUBLIC "-//W3C//DTD SVG 1.1//EN"
 "http://www.w3.org/Graphics/SVG/1.1/DTD/svg11.dtd">
<!-- Generated by graphviz version 9.0.0 (20230911.1827)
 -->
<!-- Title: edu.wpi.first.wpilibj.AnalogGyro Pages: 1 -->
<svg width="168pt" height="83pt"
 viewBox="0.00 0.00 167.50 82.50" xmlns="http://www.w3.org/2000/svg" xmlns:xlink="http://www.w3.org/1999/xlink">
<g id="graph0" class="graph" transform="scale(1 1) rotate(0) translate(4 78.5)">
<title>edu.wpi.first.wpilibj.AnalogGyro</title>
<!-- Node1 -->
<g id="Node000001" class="node">
<title>Node1</title>
<g id="a_Node000001"><a xlink:title=" ">
<polygon fill="#999999" stroke="#666666" points="153.25,-19.25 0,-19.25 0,0 153.25,0 153.25,-19.25"/>
<text text-anchor="middle" x="76.62" y="-5.75" font-family="Helvetica,sans-Serif" font-size="10.00">edu.wpi.first.wpilibj.AnalogGyro</text>
</a>
</g>
</g>
<!-- Node2 -->
<g id="Node000002" class="node">
<title>Node2</title>
<g id="a_Node000002"><a xlink:title=" ">
<polygon fill="white" stroke="#bfbfbf" points="61.88,-74.5 5.38,-74.5 5.38,-55.25 61.88,-55.25 61.88,-74.5"/>
<text text-anchor="middle" x="33.62" y="-61" font-family="Helvetica,sans-Serif" font-size="10.00">Sendable</text>
</a>
</g>
</g>
<!-- Node2&#45;&gt;Node1 -->
<g id="edge1_Node000001_Node000002" class="edge">
<title>Node2&#45;&gt;Node1</title>
<g id="a_edge1_Node000001_Node000002"><a xlink:title=" ">
<path fill="none" stroke="#63b8ff" d="M47.88,-46.22C55.08,-37.31 63.51,-26.87 69.37,-19.61"/>
<polygon fill="#63b8ff" stroke="#63b8ff" points="45.24,-43.93 41.68,-53.9 50.68,-48.32 45.24,-43.93"/>
</a>
</g>
</g>
<!-- Node3 -->
<g id="Node000003" class="node">
<title>Node3</title>
<g id="a_Node000003"><a xlink:title=" ">
<polygon fill="white" stroke="#bfbfbf" points="159.5,-74.5 79.75,-74.5 79.75,-55.25 159.5,-55.25 159.5,-74.5"/>
<text text-anchor="middle" x="119.62" y="-61" font-family="Helvetica,sans-Serif" font-size="10.00">AutoCloseable</text>
</a>
</g>
</g>
<!-- Node3&#45;&gt;Node1 -->
<g id="edge2_Node000001_Node000003" class="edge">
<title>Node3&#45;&gt;Node1</title>
<g id="a_edge2_Node000001_Node000003"><a xlink:title=" ">
<path fill="none" stroke="#63b8ff" d="M105.37,-46.22C98.17,-37.31 89.74,-26.87 83.88,-19.61"/>
<polygon fill="#63b8ff" stroke="#63b8ff" points="102.57,-48.32 111.57,-53.9 108.01,-43.93 102.57,-48.32"/>
</a>
</g>
</g>
</g>
</svg>
