<?xml version="1.0" encoding="UTF-8" standalone="no"?>
<!DOCTYPE svg PUBLIC "-//W3C//DTD SVG 1.1//EN"
 "http://www.w3.org/Graphics/SVG/1.1/DTD/svg11.dtd">
<!-- Generated by graphviz version 9.0.0 (20230911.1827)
 -->
<!-- Title: edu.wpi.first.wpilibj.Filesystem.getDeployDirectory Pages: 1 -->
<svg width="920pt" height="88pt"
 viewBox="0.00 0.00 919.75 87.50" xmlns="http://www.w3.org/2000/svg" xmlns:xlink="http://www.w3.org/1999/xlink">
<g id="graph0" class="graph" transform="scale(1 1) rotate(0) translate(4 83.5)">
<title>edu.wpi.first.wpilibj.Filesystem.getDeployDirectory</title>
<!-- Node1 -->
<g id="Node000001" class="node">
<title>Node1</title>
<g id="a_Node000001"><a xlink:title=" ">
<polygon fill="#999999" stroke="#666666" points="166.75,-51.5 0,-51.5 0,-21 166.75,-21 166.75,-51.5"/>
<text text-anchor="start" x="8" y="-38" font-family="Helvetica,sans-Serif" font-size="10.00">edu.wpi.first.wpilibj.Filesystem.get</text>
<text text-anchor="middle" x="83.38" y="-26.75" font-family="Helvetica,sans-Serif" font-size="10.00">DeployDirectory</text>
</a>
</g>
</g>
<!-- Node2 -->
<g id="Node000002" class="node">
<title>Node2</title>
<g id="a_Node000002"><a xlink:href="classedu_1_1wpi_1_1first_1_1wpilibj_1_1_filesystem.html#ab0db0771adc04fb283e8191a4002d0ee" target="_top" xlink:title=" ">
<polygon fill="white" stroke="#666666" points="369.5,-73.5 202.75,-73.5 202.75,-43 369.5,-43 369.5,-73.5"/>
<text text-anchor="start" x="210.75" y="-60" font-family="Helvetica,sans-Serif" font-size="10.00">edu.wpi.first.wpilibj.Filesystem.get</text>
<text text-anchor="middle" x="286.12" y="-48.75" font-family="Helvetica,sans-Serif" font-size="10.00">OperatingDirectory</text>
</a>
</g>
</g>
<!-- Node1&#45;&gt;Node2 -->
<g id="edge1_Node000001_Node000002" class="edge">
<title>Node1&#45;&gt;Node2</title>
<g id="a_edge1_Node000001_Node000002"><a xlink:title=" ">
<path fill="none" stroke="#63b8ff" d="M167.19,-45.33C175.12,-46.19 183.19,-47.08 191.22,-47.96"/>
<polygon fill="#63b8ff" stroke="#63b8ff" points="190.68,-51.42 201,-49.03 191.44,-44.46 190.68,-51.42"/>
</a>
</g>
</g>
<!-- Node4 -->
<g id="Node000004" class="node">
<title>Node4</title>
<g id="a_Node000004"><a xlink:href="classedu_1_1wpi_1_1first_1_1wpilibj_1_1_robot_base.html#a0967199dad51087ce30c24599a132d70" target="_top" xlink:title=" ">
<polygon fill="white" stroke="#666666" points="553.12,-30.5 424.62,-30.5 424.62,0 553.12,0 553.12,-30.5"/>
<text text-anchor="start" x="432.62" y="-17" font-family="Helvetica,sans-Serif" font-size="10.00">edu.wpi.first.wpilibj.Robot</text>
<text text-anchor="middle" x="488.88" y="-5.75" font-family="Helvetica,sans-Serif" font-size="10.00">Base.isSimulation</text>
</a>
</g>
</g>
<!-- Node1&#45;&gt;Node4 -->
<g id="edge6_Node000001_Node000004" class="edge">
<title>Node1&#45;&gt;Node4</title>
<g id="a_edge6_Node000001_Node000004"><a xlink:title=" ">
<path fill="none" stroke="#63b8ff" d="M167,-31.95C239.19,-28.19 343.07,-22.79 412.89,-19.15"/>
<polygon fill="#63b8ff" stroke="#63b8ff" points="412.91,-22.66 422.71,-18.64 412.54,-15.67 412.91,-22.66"/>
</a>
</g>
</g>
<!-- Node3 -->
<g id="Node000003" class="node">
<title>Node3</title>
<g id="a_Node000003"><a xlink:href="classedu_1_1wpi_1_1first_1_1wpilibj_1_1_filesystem.html#a1b1eaa0766869a09f785cdd1ddcfc5ca" target="_top" xlink:title=" ">
<polygon fill="white" stroke="#666666" points="572.25,-79.5 405.5,-79.5 405.5,-49 572.25,-49 572.25,-79.5"/>
<text text-anchor="start" x="413.5" y="-66" font-family="Helvetica,sans-Serif" font-size="10.00">edu.wpi.first.wpilibj.Filesystem.get</text>
<text text-anchor="middle" x="488.88" y="-54.75" font-family="Helvetica,sans-Serif" font-size="10.00">LaunchDirectory</text>
</a>
</g>
</g>
<!-- Node2&#45;&gt;Node3 -->
<g id="edge2_Node000002_Node000003" class="edge">
<title>Node2&#45;&gt;Node3</title>
<g id="a_edge2_Node000002_Node000003"><a xlink:title=" ">
<path fill="none" stroke="#63b8ff" d="M369.94,-60.73C377.87,-60.96 385.94,-61.2 393.97,-61.44"/>
<polygon fill="#63b8ff" stroke="#63b8ff" points="393.64,-64.93 403.74,-61.74 393.85,-57.94 393.64,-64.93"/>
</a>
</g>
</g>
<!-- Node2&#45;&gt;Node4 -->
<g id="edge3_Node000002_Node000004" class="edge">
<title>Node2&#45;&gt;Node4</title>
<g id="a_edge3_Node000002_Node000004"><a xlink:title=" ">
<path fill="none" stroke="#63b8ff" d="M360.45,-42.54C377.63,-38.86 395.96,-34.94 413.2,-31.25"/>
<polygon fill="#63b8ff" stroke="#63b8ff" points="413.82,-34.69 422.87,-29.17 412.36,-27.85 413.82,-34.69"/>
</a>
</g>
</g>
<!-- Node5 -->
<g id="Node000005" class="node">
<title>Node5</title>
<g id="a_Node000005"><a xlink:href="classedu_1_1wpi_1_1first_1_1wpilibj_1_1_robot_base.html#acb1ab38b3fc42bd9560d2112182e9906" target="_top" xlink:title=" ">
<polygon fill="white" stroke="#666666" points="736.75,-30.5 608.25,-30.5 608.25,0 736.75,0 736.75,-30.5"/>
<text text-anchor="start" x="616.25" y="-17" font-family="Helvetica,sans-Serif" font-size="10.00">edu.wpi.first.wpilibj.Robot</text>
<text text-anchor="middle" x="672.5" y="-5.75" font-family="Helvetica,sans-Serif" font-size="10.00">Base.getRuntimeType</text>
</a>
</g>
</g>
<!-- Node4&#45;&gt;Node5 -->
<g id="edge4_Node000004_Node000005" class="edge">
<title>Node4&#45;&gt;Node5</title>
<g id="a_edge4_Node000004_Node000005"><a xlink:title=" ">
<path fill="none" stroke="#63b8ff" d="M553.4,-15.25C567.36,-15.25 582.28,-15.25 596.64,-15.25"/>
<polygon fill="#63b8ff" stroke="#63b8ff" points="596.5,-18.75 606.5,-15.25 596.5,-11.75 596.5,-18.75"/>
</a>
</g>
</g>
<!-- Node6 -->
<g id="Node000006" class="node">
<title>Node6</title>
<g id="a_Node000006"><a xlink:href="enumedu_1_1wpi_1_1first_1_1wpilibj_1_1_runtime_type.html#a0053c02d1b47f237cd57a91da1bcaa47" target="_top" xlink:title=" ">
<polygon fill="white" stroke="#666666" points="911.75,-30.5 772.75,-30.5 772.75,0 911.75,0 911.75,-30.5"/>
<text text-anchor="start" x="780.75" y="-17" font-family="Helvetica,sans-Serif" font-size="10.00">edu.wpi.first.wpilibj.Runtime</text>
<text text-anchor="middle" x="842.25" y="-5.75" font-family="Helvetica,sans-Serif" font-size="10.00">Type.getValue</text>
</a>
</g>
</g>
<!-- Node5&#45;&gt;Node6 -->
<g id="edge5_Node000005_Node000006" class="edge">
<title>Node5&#45;&gt;Node6</title>
<g id="a_edge5_Node000005_Node000006"><a xlink:title=" ">
<path fill="none" stroke="#63b8ff" d="M736.92,-15.25C744.8,-15.25 752.94,-15.25 761.04,-15.25"/>
<polygon fill="#63b8ff" stroke="#63b8ff" points="760.9,-18.75 770.9,-15.25 760.9,-11.75 760.9,-18.75"/>
</a>
</g>
</g>
</g>
</svg>
