<?xml version="1.0" encoding="UTF-8" standalone="no"?>
<!DOCTYPE svg PUBLIC "-//W3C//DTD SVG 1.1//EN"
 "http://www.w3.org/Graphics/SVG/1.1/DTD/svg11.dtd">
<!-- Generated by graphviz version 9.0.0 (20230911.1827)
 -->
<!-- Title: edu.wpi.first.wpilibj.drive.DifferentialDrive.tankDrive Pages: 1 -->
<svg width="660pt" height="88pt"
 viewBox="0.00 0.00 660.00 87.50" xmlns="http://www.w3.org/2000/svg" xmlns:xlink="http://www.w3.org/1999/xlink">
<g id="graph0" class="graph" transform="scale(1 1) rotate(0) translate(4 83.5)">
<title>edu.wpi.first.wpilibj.drive.DifferentialDrive.tankDrive</title>
<!-- Node1 -->
<g id="Node000001" class="node">
<title>Node1</title>
<g id="a_Node000001"><a xlink:title=" ">
<polygon fill="#999999" stroke="#666666" points="131.5,-54.5 0,-54.5 0,-24 131.5,-24 131.5,-54.5"/>
<text text-anchor="start" x="8" y="-41" font-family="Helvetica,sans-Serif" font-size="10.00">edu.wpi.first.wpilibj.drive.</text>
<text text-anchor="middle" x="65.75" y="-29.75" font-family="Helvetica,sans-Serif" font-size="10.00">DifferentialDrive.tankDrive</text>
</a>
</g>
</g>
<!-- Node2 -->
<g id="Node000002" class="node">
<title>Node2</title>
<g id="a_Node000002"><a xlink:href="classedu_1_1wpi_1_1first_1_1wpilibj_1_1_motor_safety.html#a1cf5b3c42e8b01f45af0004135ce0ef3" target="_top" xlink:title=" ">
<polygon fill="white" stroke="#666666" points="301.62,-79.5 174.62,-79.5 174.62,-49 301.62,-49 301.62,-79.5"/>
<text text-anchor="start" x="182.62" y="-66" font-family="Helvetica,sans-Serif" font-size="10.00">edu.wpi.first.wpilibj.Motor</text>
<text text-anchor="middle" x="238.12" y="-54.75" font-family="Helvetica,sans-Serif" font-size="10.00">Safety.feed</text>
</a>
</g>
</g>
<!-- Node1&#45;&gt;Node2 -->
<g id="edge1_Node000001_Node000002" class="edge">
<title>Node1&#45;&gt;Node2</title>
<g id="a_edge1_Node000001_Node000002"><a xlink:title=" ">
<path fill="none" stroke="#63b8ff" d="M131.65,-48.77C141.94,-50.28 152.65,-51.85 163.13,-53.39"/>
<polygon fill="#63b8ff" stroke="#63b8ff" points="162.48,-56.83 172.88,-54.82 163.49,-49.91 162.48,-56.83"/>
</a>
</g>
</g>
<!-- Node5 -->
<g id="Node000005" class="node">
<title>Node5</title>
<g id="a_Node000005"><a xlink:href="classedu_1_1wpi_1_1first_1_1wpilibj_1_1drive_1_1_differential_drive.html#a451a239bdb6bd7d01059d2c334328e5d" target="_top" xlink:title=" ">
<polygon fill="white" stroke="#666666" points="308.75,-30.5 167.5,-30.5 167.5,0 308.75,0 308.75,-30.5"/>
<text text-anchor="start" x="175.5" y="-17" font-family="Helvetica,sans-Serif" font-size="10.00">edu.wpi.first.wpilibj.drive.</text>
<text text-anchor="middle" x="238.12" y="-5.75" font-family="Helvetica,sans-Serif" font-size="10.00">DifferentialDrive.tankDriveIK</text>
</a>
</g>
</g>
<!-- Node1&#45;&gt;Node5 -->
<g id="edge4_Node000001_Node000005" class="edge">
<title>Node1&#45;&gt;Node5</title>
<g id="a_edge4_Node000001_Node000005"><a xlink:title=" ">
<path fill="none" stroke="#63b8ff" d="M131.65,-30.11C139.51,-29 147.62,-27.86 155.68,-26.72"/>
<polygon fill="#63b8ff" stroke="#63b8ff" points="156.1,-30.2 165.52,-25.34 155.13,-23.27 156.1,-30.2"/>
</a>
</g>
</g>
<!-- Node3 -->
<g id="Node000003" class="node">
<title>Node3</title>
<g id="a_Node000003"><a xlink:href="classedu_1_1wpi_1_1first_1_1wpilibj_1_1_timer.html#a554f331c3b4645ee279bab8974cf21af" target="_top" xlink:title=" ">
<polygon fill="white" stroke="#666666" points="487.5,-79.5 344.75,-79.5 344.75,-49 487.5,-49 487.5,-79.5"/>
<text text-anchor="start" x="352.75" y="-66" font-family="Helvetica,sans-Serif" font-size="10.00">edu.wpi.first.wpilibj.Timer.get</text>
<text text-anchor="middle" x="416.12" y="-54.75" font-family="Helvetica,sans-Serif" font-size="10.00">FPGATimestamp</text>
</a>
</g>
</g>
<!-- Node2&#45;&gt;Node3 -->
<g id="edge2_Node000002_Node000003" class="edge">
<title>Node2&#45;&gt;Node3</title>
<g id="a_edge2_Node000002_Node000003"><a xlink:title=" ">
<path fill="none" stroke="#63b8ff" d="M301.67,-64.25C311.83,-64.25 322.48,-64.25 333.02,-64.25"/>
<polygon fill="#63b8ff" stroke="#63b8ff" points="332.87,-67.75 342.87,-64.25 332.87,-60.75 332.87,-67.75"/>
</a>
</g>
</g>
<!-- Node4 -->
<g id="Node000004" class="node">
<title>Node4</title>
<g id="a_Node000004"><a xlink:href="classedu_1_1wpi_1_1first_1_1wpilibj_1_1_robot_controller.html#a0768221aed0858ad185f14c8218300e0" target="_top" xlink:title=" ">
<polygon fill="white" stroke="#666666" points="652,-79.5 523.5,-79.5 523.5,-49 652,-49 652,-79.5"/>
<text text-anchor="start" x="531.5" y="-66" font-family="Helvetica,sans-Serif" font-size="10.00">edu.wpi.first.wpilibj.Robot</text>
<text text-anchor="middle" x="587.75" y="-54.75" font-family="Helvetica,sans-Serif" font-size="10.00">Controller.getFPGATime</text>
</a>
</g>
</g>
<!-- Node3&#45;&gt;Node4 -->
<g id="edge3_Node000003_Node000004" class="edge">
<title>Node3&#45;&gt;Node4</title>
<g id="a_edge3_Node000003_Node000004"><a xlink:title=" ">
<path fill="none" stroke="#63b8ff" d="M487.59,-64.25C495.57,-64.25 503.72,-64.25 511.76,-64.25"/>
<polygon fill="#63b8ff" stroke="#63b8ff" points="511.5,-67.75 521.5,-64.25 511.5,-60.75 511.5,-67.75"/>
</a>
</g>
</g>
</g>
</svg>
