<?xml version="1.0" encoding="UTF-8" standalone="no"?>
<!DOCTYPE svg PUBLIC "-//W3C//DTD SVG 1.1//EN"
 "http://www.w3.org/Graphics/SVG/1.1/DTD/svg11.dtd">
<!-- Generated by graphviz version 9.0.0 (20230911.1827)
 -->
<!-- Title: edu.wpi.first.wpilibj.Counter Pages: 1 -->
<svg width="340pt" height="83pt"
 viewBox="0.00 0.00 339.50 82.50" xmlns="http://www.w3.org/2000/svg" xmlns:xlink="http://www.w3.org/1999/xlink">

<svg id="main" version="1.1" xmlns="http://www.w3.org/2000/svg" xmlns:xlink="http://www.w3.org/1999/xlink" xml:space="preserve" onload="init(evt)">
<style type="text/css"><![CDATA[
.node, .edge {opacity: 0.7;}
.node.selected, .edge.selected {opacity: 1;}
.edge:hover path { stroke: red; }
.edge:hover polygon { stroke: red; fill: red; }
]]></style>
<script type="application/ecmascript" xlink:href="svg.min.js"/>
<svg id="graph" class="graph">
<g id="graph0" class="graph" transform="scale(1 1) rotate(0) translate(4 78.5)">
<title>edu.wpi.first.wpilibj.Counter</title>
<!-- Node1 -->
<g id="Node000001" class="node">
<title>Node1</title>
<g id="a_Node000001"><a xlink:title=" ">
<polygon fill="#999999" stroke="#666666" points="274,-19.25 137.25,-19.25 137.25,0 274,0 274,-19.25"/>
<text text-anchor="middle" x="205.62" y="-5.75" font-family="Helvetica,sans-Serif" font-size="10.00">edu.wpi.first.wpilibj.Counter</text>
</a>
</g>
</g>
<!-- Node2 -->
<g id="Node000002" class="node">
<title>Node2</title>
<g id="a_Node000002"><a xlink:href="interfaceedu_1_1wpi_1_1first_1_1wpilibj_1_1_counter_base.html" target="_top" xlink:title=" ">
<polygon fill="white" stroke="#666666" points="159.25,-74.5 0,-74.5 0,-55.25 159.25,-55.25 159.25,-74.5"/>
<text text-anchor="middle" x="79.62" y="-61" font-family="Helvetica,sans-Serif" font-size="10.00">edu.wpi.first.wpilibj.CounterBase</text>
</a>
</g>
</g>
<!-- Node2&#45;&gt;Node1 -->
<g id="edge1_Node000001_Node000002" class="edge">
<title>Node2&#45;&gt;Node1</title>
<g id="a_edge1_Node000001_Node000002"><a xlink:title=" ">
<path fill="none" stroke="#63b8ff" d="M111.51,-50.4C134.24,-40.79 164.2,-28.13 184.15,-19.7"/>
<polygon fill="#63b8ff" stroke="#63b8ff" points="110.24,-47.14 102.39,-54.25 112.97,-53.58 110.24,-47.14"/>
</a>
</g>
</g>
<!-- Node3 -->
<g id="Node000003" class="node">
<title>Node3</title>
<g id="a_Node000003"><a xlink:title=" ">
<polygon fill="white" stroke="#bfbfbf" points="233.88,-74.5 177.38,-74.5 177.38,-55.25 233.88,-55.25 233.88,-74.5"/>
<text text-anchor="middle" x="205.62" y="-61" font-family="Helvetica,sans-Serif" font-size="10.00">Sendable</text>
</a>
</g>
</g>
<!-- Node3&#45;&gt;Node1 -->
<g id="edge2_Node000001_Node000003" class="edge">
<title>Node3&#45;&gt;Node1</title>
<g id="a_edge2_Node000001_Node000003"><a xlink:title=" ">
<path fill="none" stroke="#63b8ff" d="M205.62,-43.63C205.62,-35.34 205.62,-26.17 205.62,-19.61"/>
<polygon fill="#63b8ff" stroke="#63b8ff" points="202.13,-43.57 205.63,-53.57 209.13,-43.57 202.13,-43.57"/>
</a>
</g>
</g>
<!-- Node4 -->
<g id="Node000004" class="node">
<title>Node4</title>
<g id="a_Node000004"><a xlink:title=" ">
<polygon fill="white" stroke="#bfbfbf" points="331.5,-74.5 251.75,-74.5 251.75,-55.25 331.5,-55.25 331.5,-74.5"/>
<text text-anchor="middle" x="291.62" y="-61" font-family="Helvetica,sans-Serif" font-size="10.00">AutoCloseable</text>
</a>
</g>
</g>
<!-- Node4&#45;&gt;Node1 -->
<g id="edge3_Node000001_Node000004" class="edge">
<title>Node4&#45;&gt;Node1</title>
<g id="a_edge3_Node000001_Node000004"><a xlink:title=" ">
<path fill="none" stroke="#63b8ff" d="M267.28,-48.8C252.14,-39.42 233.16,-27.67 220.29,-19.7"/>
<polygon fill="#63b8ff" stroke="#63b8ff" points="265.4,-51.76 275.75,-54.05 269.09,-45.8 265.4,-51.76"/>
</a>
</g>
</g>
</g>
</svg>
</svg>

<style type='text/css'>
<![CDATA[
[data-mouse-over-selected='false'] { opacity: 0.7; }
[data-mouse-over-selected='true']  { opacity: 1.0; }
]]>
</style>
<script type="application/ecmascript"><![CDATA[
document.addEventListener('DOMContentLoaded', (event) => {
  highlightEdges();
  highlightAdjacentNodes();
});
]]></script>
</svg>
