<?xml version="1.0" encoding="UTF-8" standalone="no"?>
<!DOCTYPE svg PUBLIC "-//W3C//DTD SVG 1.1//EN"
 "http://www.w3.org/Graphics/SVG/1.1/DTD/svg11.dtd">
<!-- Generated by graphviz version 9.0.0 (20230911.1827)
 -->
<!-- Title: edu.wpi.first.wpilibj.simulation.PS4ControllerSim.PS4ControllerSim Pages: 1 -->
<svg width="610pt" height="137pt"
 viewBox="0.00 0.00 609.50 136.50" xmlns="http://www.w3.org/2000/svg" xmlns:xlink="http://www.w3.org/1999/xlink">
<g id="graph0" class="graph" transform="scale(1 1) rotate(0) translate(4 132.5)">
<title>edu.wpi.first.wpilibj.simulation.PS4ControllerSim.PS4ControllerSim</title>
<!-- Node1 -->
<g id="Node000001" class="node">
<title>Node1</title>
<g id="a_Node000001"><a xlink:title=" ">
<polygon fill="#999999" stroke="#666666" points="175,-79.5 0,-79.5 0,-49 175,-49 175,-79.5"/>
<text text-anchor="start" x="8" y="-66" font-family="Helvetica,sans-Serif" font-size="10.00">edu.wpi.first.wpilibj.simulation.</text>
<text text-anchor="middle" x="87.5" y="-54.75" font-family="Helvetica,sans-Serif" font-size="10.00">PS4ControllerSim.PS4ControllerSim</text>
</a>
</g>
</g>
<!-- Node2 -->
<g id="Node000002" class="node">
<title>Node2</title>
<g id="a_Node000002"><a xlink:href="classedu_1_1wpi_1_1first_1_1wpilibj_1_1simulation_1_1_generic_h_i_d_sim.html#aab17783b48637e3746245ae4eb2dfc9c" target="_top" xlink:title=" ">
<polygon fill="white" stroke="#666666" points="363.88,-128.5 214.38,-128.5 214.38,-98 363.88,-98 363.88,-128.5"/>
<text text-anchor="start" x="222.38" y="-115" font-family="Helvetica,sans-Serif" font-size="10.00">edu.wpi.first.wpilibj.simulation.</text>
<text text-anchor="middle" x="289.12" y="-103.75" font-family="Helvetica,sans-Serif" font-size="10.00">GenericHIDSim.setAxisCount</text>
</a>
</g>
</g>
<!-- Node1&#45;&gt;Node2 -->
<g id="edge1_Node000001_Node000002" class="edge">
<title>Node1&#45;&gt;Node2</title>
<g id="a_edge1_Node000001_Node000002"><a xlink:title=" ">
<path fill="none" stroke="#63b8ff" d="M152.49,-79.96C171.83,-84.7 193.24,-89.96 213.22,-94.86"/>
<polygon fill="#63b8ff" stroke="#63b8ff" points="212.14,-98.2 222.69,-97.19 213.81,-91.4 212.14,-98.2"/>
</a>
</g>
</g>
<!-- Node4 -->
<g id="Node000004" class="node">
<title>Node4</title>
<g id="a_Node000004"><a xlink:href="classedu_1_1wpi_1_1first_1_1wpilibj_1_1simulation_1_1_generic_h_i_d_sim.html#a4ba868164c051e136c5cf8072afe5f7b" target="_top" xlink:title=" ">
<polygon fill="white" stroke="#666666" points="367.25,-79.5 211,-79.5 211,-49 367.25,-49 367.25,-79.5"/>
<text text-anchor="start" x="219" y="-66" font-family="Helvetica,sans-Serif" font-size="10.00">edu.wpi.first.wpilibj.simulation.</text>
<text text-anchor="middle" x="289.12" y="-54.75" font-family="Helvetica,sans-Serif" font-size="10.00">GenericHIDSim.setButtonCount</text>
</a>
</g>
</g>
<!-- Node1&#45;&gt;Node4 -->
<g id="edge3_Node000001_Node000004" class="edge">
<title>Node1&#45;&gt;Node4</title>
<g id="a_edge3_Node000001_Node000004"><a xlink:title=" ">
<path fill="none" stroke="#63b8ff" d="M175.48,-64.25C183.31,-64.25 191.26,-64.25 199.11,-64.25"/>
<polygon fill="#63b8ff" stroke="#63b8ff" points="199.01,-67.75 209.01,-64.25 199.01,-60.75 199.01,-67.75"/>
</a>
</g>
</g>
<!-- Node6 -->
<g id="Node000006" class="node">
<title>Node6</title>
<g id="a_Node000006"><a xlink:href="classedu_1_1wpi_1_1first_1_1wpilibj_1_1simulation_1_1_generic_h_i_d_sim.html#ad1e15d8e4e3a01b203cbe3330dcf5115" target="_top" xlink:title=" ">
<polygon fill="white" stroke="#666666" points="363.88,-30.5 214.38,-30.5 214.38,0 363.88,0 363.88,-30.5"/>
<text text-anchor="start" x="222.38" y="-17" font-family="Helvetica,sans-Serif" font-size="10.00">edu.wpi.first.wpilibj.simulation.</text>
<text text-anchor="middle" x="289.12" y="-5.75" font-family="Helvetica,sans-Serif" font-size="10.00">GenericHIDSim.setPOVCount</text>
</a>
</g>
</g>
<!-- Node1&#45;&gt;Node6 -->
<g id="edge5_Node000001_Node000006" class="edge">
<title>Node1&#45;&gt;Node6</title>
<g id="a_edge5_Node000001_Node000006"><a xlink:title=" ">
<path fill="none" stroke="#63b8ff" d="M152.49,-48.54C171.83,-43.8 193.24,-38.54 213.22,-33.64"/>
<polygon fill="#63b8ff" stroke="#63b8ff" points="213.81,-37.1 222.69,-31.31 212.14,-30.3 213.81,-37.1"/>
</a>
</g>
</g>
<!-- Node3 -->
<g id="Node000003" class="node">
<title>Node3</title>
<g id="a_Node000003"><a xlink:href="classedu_1_1wpi_1_1first_1_1wpilibj_1_1simulation_1_1_driver_station_sim.html#a720454ecaa1181fd774b867b1ec95980" target="_top" xlink:title=" ">
<polygon fill="white" stroke="#666666" points="597,-128.5 407.75,-128.5 407.75,-98 597,-98 597,-128.5"/>
<text text-anchor="start" x="415.75" y="-115" font-family="Helvetica,sans-Serif" font-size="10.00">edu.wpi.first.wpilibj.simulation.</text>
<text text-anchor="middle" x="502.38" y="-103.75" font-family="Helvetica,sans-Serif" font-size="10.00">DriverStationSim.setJoystickAxisCount</text>
</a>
</g>
</g>
<!-- Node2&#45;&gt;Node3 -->
<g id="edge2_Node000002_Node000003" class="edge">
<title>Node2&#45;&gt;Node3</title>
<g id="a_edge2_Node000002_Node000003"><a xlink:title=" ">
<path fill="none" stroke="#63b8ff" d="M364.31,-113.25C374.63,-113.25 385.39,-113.25 396.15,-113.25"/>
<polygon fill="#63b8ff" stroke="#63b8ff" points="395.83,-116.75 405.83,-113.25 395.83,-109.75 395.83,-116.75"/>
</a>
</g>
</g>
<!-- Node5 -->
<g id="Node000005" class="node">
<title>Node5</title>
<g id="a_Node000005"><a xlink:href="classedu_1_1wpi_1_1first_1_1wpilibj_1_1simulation_1_1_driver_station_sim.html#a925bf3aad49f44502c25143d97dba3ea" target="_top" xlink:title=" ">
<polygon fill="white" stroke="#666666" points="601.5,-79.5 403.25,-79.5 403.25,-49 601.5,-49 601.5,-79.5"/>
<text text-anchor="start" x="411.25" y="-66" font-family="Helvetica,sans-Serif" font-size="10.00">edu.wpi.first.wpilibj.simulation.</text>
<text text-anchor="middle" x="502.38" y="-54.75" font-family="Helvetica,sans-Serif" font-size="10.00">DriverStationSim.setJoystickButtonCount</text>
</a>
</g>
</g>
<!-- Node4&#45;&gt;Node5 -->
<g id="edge4_Node000004_Node000005" class="edge">
<title>Node4&#45;&gt;Node5</title>
<g id="a_edge4_Node000004_Node000005"><a xlink:title=" ">
<path fill="none" stroke="#63b8ff" d="M367.59,-64.25C375.43,-64.25 383.5,-64.25 391.6,-64.25"/>
<polygon fill="#63b8ff" stroke="#63b8ff" points="391.54,-67.75 401.54,-64.25 391.54,-60.75 391.54,-67.75"/>
</a>
</g>
</g>
<!-- Node7 -->
<g id="Node000007" class="node">
<title>Node7</title>
<g id="a_Node000007"><a xlink:href="classedu_1_1wpi_1_1first_1_1wpilibj_1_1simulation_1_1_driver_station_sim.html#a8ac77b1ed78b72282664eeb29407d880" target="_top" xlink:title=" ">
<polygon fill="white" stroke="#666666" points="597.75,-30.5 407,-30.5 407,0 597.75,0 597.75,-30.5"/>
<text text-anchor="start" x="415" y="-17" font-family="Helvetica,sans-Serif" font-size="10.00">edu.wpi.first.wpilibj.simulation.</text>
<text text-anchor="middle" x="502.38" y="-5.75" font-family="Helvetica,sans-Serif" font-size="10.00">DriverStationSim.setJoystickPOVCount</text>
</a>
</g>
</g>
<!-- Node6&#45;&gt;Node7 -->
<g id="edge6_Node000006_Node000007" class="edge">
<title>Node6&#45;&gt;Node7</title>
<g id="a_edge6_Node000006_Node000007"><a xlink:title=" ">
<path fill="none" stroke="#63b8ff" d="M364.31,-15.25C374.35,-15.25 384.8,-15.25 395.27,-15.25"/>
<polygon fill="#63b8ff" stroke="#63b8ff" points="395.09,-18.75 405.09,-15.25 395.09,-11.75 395.09,-18.75"/>
</a>
</g>
</g>
</g>
</svg>
