<?xml version="1.0" encoding="UTF-8" standalone="no"?>
<!DOCTYPE svg PUBLIC "-//W3C//DTD SVG 1.1//EN"
 "http://www.w3.org/Graphics/SVG/1.1/DTD/svg11.dtd">
<!-- Generated by graphviz version 9.0.0 (20230911.1827)
 -->
<!-- Title: edu.wpi.first.wpilibj.PWM.setPeriodMultiplier Pages: 1 -->
<svg width="348pt" height="676pt"
 viewBox="0.00 0.00 347.50 675.50" xmlns="http://www.w3.org/2000/svg" xmlns:xlink="http://www.w3.org/1999/xlink">
<g id="graph0" class="graph" transform="scale(1 1) rotate(0) translate(4 671.5)">
<title>edu.wpi.first.wpilibj.PWM.setPeriodMultiplier</title>
<!-- Node1 -->
<g id="Node000001" class="node">
<title>Node1</title>
<g id="a_Node000001"><a xlink:title=" ">
<polygon fill="#999999" stroke="#666666" points="339.5,-348.5 196,-348.5 196,-318 339.5,-318 339.5,-348.5"/>
<text text-anchor="start" x="204" y="-335" font-family="Helvetica,sans-Serif" font-size="10.00">edu.wpi.first.wpilibj.PWM.set</text>
<text text-anchor="middle" x="267.75" y="-323.75" font-family="Helvetica,sans-Serif" font-size="10.00">PeriodMultiplier</text>
</a>
</g>
</g>
<!-- Node2 -->
<g id="Node000002" class="node">
<title>Node2</title>
<g id="a_Node000002"><a xlink:href="classedu_1_1wpi_1_1first_1_1wpilibj_1_1motorcontrol_1_1_d_m_c60.html#a9a1de23861320905e0a0fe3c8e6fe47a" target="_top" xlink:title=" ">
<polygon fill="white" stroke="#666666" points="159.62,-667.5 0.38,-667.5 0.38,-637 159.62,-637 159.62,-667.5"/>
<text text-anchor="start" x="8.38" y="-654" font-family="Helvetica,sans-Serif" font-size="10.00">edu.wpi.first.wpilibj.motorcontrol.</text>
<text text-anchor="middle" x="80" y="-642.75" font-family="Helvetica,sans-Serif" font-size="10.00">DMC60.DMC60</text>
</a>
</g>
</g>
<!-- Node1&#45;&gt;Node2 -->
<g id="edge1_Node000001_Node000002" class="edge">
<title>Node1&#45;&gt;Node2</title>
<g id="a_edge1_Node000001_Node000002"><a xlink:title=" ">
<path fill="none" stroke="#63b8ff" d="M264.74,-360.25C259.01,-417.69 237.59,-552.84 160,-627.25 156.26,-630.83 152.01,-633.91 147.47,-636.54"/>
<polygon fill="#63b8ff" stroke="#63b8ff" points="268.22,-360.69 265.63,-350.42 261.24,-360.07 268.22,-360.69"/>
</a>
</g>
</g>
<!-- Node3 -->
<g id="Node000003" class="node">
<title>Node3</title>
<g id="a_Node000003"><a xlink:href="classedu_1_1wpi_1_1first_1_1wpilibj_1_1motorcontrol_1_1_jaguar.html#a6f0588860cf77ad3721b9a016427c392" target="_top" xlink:title=" ">
<polygon fill="white" stroke="#666666" points="159.62,-618.5 0.38,-618.5 0.38,-588 159.62,-588 159.62,-618.5"/>
<text text-anchor="start" x="8.38" y="-605" font-family="Helvetica,sans-Serif" font-size="10.00">edu.wpi.first.wpilibj.motorcontrol.</text>
<text text-anchor="middle" x="80" y="-593.75" font-family="Helvetica,sans-Serif" font-size="10.00">Jaguar.Jaguar</text>
</a>
</g>
</g>
<!-- Node1&#45;&gt;Node3 -->
<g id="edge2_Node000001_Node000003" class="edge">
<title>Node1&#45;&gt;Node3</title>
<g id="a_edge2_Node000001_Node000003"><a xlink:title=" ">
<path fill="none" stroke="#63b8ff" d="M262.57,-359.87C253.32,-409.93 226.41,-518.44 160,-578.25 155.94,-581.91 151.34,-585.03 146.46,-587.7"/>
<polygon fill="#63b8ff" stroke="#63b8ff" points="265.98,-360.68 264.25,-350.23 259.09,-359.48 265.98,-360.68"/>
</a>
</g>
</g>
<!-- Node4 -->
<g id="Node000004" class="node">
<title>Node4</title>
<g id="a_Node000004"><a xlink:href="classedu_1_1wpi_1_1first_1_1wpilibj_1_1motorcontrol_1_1_p_w_m_spark_flex.html#a20063b0b6d262f18cf29ae24284007a4" target="_top" xlink:title=" ">
<polygon fill="white" stroke="#666666" points="159.62,-569.5 0.38,-569.5 0.38,-539 159.62,-539 159.62,-569.5"/>
<text text-anchor="start" x="8.38" y="-556" font-family="Helvetica,sans-Serif" font-size="10.00">edu.wpi.first.wpilibj.motorcontrol.</text>
<text text-anchor="middle" x="80" y="-544.75" font-family="Helvetica,sans-Serif" font-size="10.00">PWMSparkFlex.PWMSparkFlex</text>
</a>
</g>
</g>
<!-- Node1&#45;&gt;Node4 -->
<g id="edge3_Node000001_Node000004" class="edge">
<title>Node1&#45;&gt;Node4</title>
<g id="a_edge3_Node000001_Node000004"><a xlink:title=" ">
<path fill="none" stroke="#63b8ff" d="M259.37,-359.8C246.33,-401.87 215.23,-483.73 160,-529.25 155.67,-532.82 150.83,-535.88 145.73,-538.51"/>
<polygon fill="#63b8ff" stroke="#63b8ff" points="262.71,-360.85 262.21,-350.27 256,-358.85 262.71,-360.85"/>
</a>
</g>
</g>
<!-- Node5 -->
<g id="Node000005" class="node">
<title>Node5</title>
<g id="a_Node000005"><a xlink:href="classedu_1_1wpi_1_1first_1_1wpilibj_1_1motorcontrol_1_1_p_w_m_spark_max.html#ac0dea231aee0e670d804c346b990dd78" target="_top" xlink:title=" ">
<polygon fill="white" stroke="#666666" points="159.62,-520.5 0.38,-520.5 0.38,-490 159.62,-490 159.62,-520.5"/>
<text text-anchor="start" x="8.38" y="-507" font-family="Helvetica,sans-Serif" font-size="10.00">edu.wpi.first.wpilibj.motorcontrol.</text>
<text text-anchor="middle" x="80" y="-495.75" font-family="Helvetica,sans-Serif" font-size="10.00">PWMSparkMax.PWMSparkMax</text>
</a>
</g>
</g>
<!-- Node1&#45;&gt;Node5 -->
<g id="edge4_Node000001_Node000005" class="edge">
<title>Node1&#45;&gt;Node5</title>
<g id="a_edge4_Node000001_Node000005"><a xlink:title=" ">
<path fill="none" stroke="#63b8ff" d="M254.7,-358.79C237.95,-391.59 204.59,-448.1 160,-480.25 154.98,-483.87 149.42,-486.97 143.64,-489.64"/>
<polygon fill="#63b8ff" stroke="#63b8ff" points="257.75,-360.51 259.06,-350 251.48,-357.4 257.75,-360.51"/>
</a>
</g>
</g>
<!-- Node6 -->
<g id="Node000006" class="node">
<title>Node6</title>
<g id="a_Node000006"><a xlink:href="classedu_1_1wpi_1_1first_1_1wpilibj_1_1motorcontrol_1_1_p_w_m_talon_f_x.html#ae924f656191b05953864907f8241d2fa" target="_top" xlink:title=" ">
<polygon fill="white" stroke="#666666" points="159.62,-471.5 0.38,-471.5 0.38,-441 159.62,-441 159.62,-471.5"/>
<text text-anchor="start" x="8.38" y="-458" font-family="Helvetica,sans-Serif" font-size="10.00">edu.wpi.first.wpilibj.motorcontrol.</text>
<text text-anchor="middle" x="80" y="-446.75" font-family="Helvetica,sans-Serif" font-size="10.00">PWMTalonFX.PWMTalonFX</text>
</a>
</g>
</g>
<!-- Node1&#45;&gt;Node6 -->
<g id="edge5_Node000001_Node000006" class="edge">
<title>Node1&#45;&gt;Node6</title>
<g id="a_edge5_Node000001_Node000006"><a xlink:title=" ">
<path fill="none" stroke="#63b8ff" d="M246.33,-357.24C226.36,-379.32 194.07,-411.54 160,-431.25 153.9,-434.78 147.24,-437.88 140.46,-440.57"/>
<polygon fill="#63b8ff" stroke="#63b8ff" points="248.84,-359.69 252.85,-349.89 243.6,-355.05 248.84,-359.69"/>
</a>
</g>
</g>
<!-- Node7 -->
<g id="Node000007" class="node">
<title>Node7</title>
<g id="a_Node000007"><a xlink:href="classedu_1_1wpi_1_1first_1_1wpilibj_1_1motorcontrol_1_1_p_w_m_talon_s_r_x.html#ad3980f8d0fb4456e4a7177d631fbabdb" target="_top" xlink:title=" ">
<polygon fill="white" stroke="#666666" points="159.62,-422.5 0.38,-422.5 0.38,-392 159.62,-392 159.62,-422.5"/>
<text text-anchor="start" x="8.38" y="-409" font-family="Helvetica,sans-Serif" font-size="10.00">edu.wpi.first.wpilibj.motorcontrol.</text>
<text text-anchor="middle" x="80" y="-397.75" font-family="Helvetica,sans-Serif" font-size="10.00">PWMTalonSRX.PWMTalonSRX</text>
</a>
</g>
</g>
<!-- Node1&#45;&gt;Node7 -->
<g id="edge6_Node000001_Node000007" class="edge">
<title>Node1&#45;&gt;Node7</title>
<g id="a_edge6_Node000001_Node000007"><a xlink:title=" ">
<path fill="none" stroke="#63b8ff" d="M225.05,-353.84C205.54,-363.11 181.83,-373.82 160,-382.25 151.55,-385.51 142.47,-388.69 133.59,-391.61"/>
<polygon fill="#63b8ff" stroke="#63b8ff" points="226.56,-357.01 234.06,-349.53 223.53,-350.69 226.56,-357.01"/>
</a>
</g>
</g>
<!-- Node8 -->
<g id="Node000008" class="node">
<title>Node8</title>
<g id="a_Node000008"><a xlink:href="classedu_1_1wpi_1_1first_1_1wpilibj_1_1motorcontrol_1_1_p_w_m_venom.html#a0121603978921ac1581f6a2b04c69d87" target="_top" xlink:title=" ">
<polygon fill="white" stroke="#666666" points="159.62,-373.5 0.38,-373.5 0.38,-343 159.62,-343 159.62,-373.5"/>
<text text-anchor="start" x="8.38" y="-360" font-family="Helvetica,sans-Serif" font-size="10.00">edu.wpi.first.wpilibj.motorcontrol.</text>
<text text-anchor="middle" x="80" y="-348.75" font-family="Helvetica,sans-Serif" font-size="10.00">PWMVenom.PWMVenom</text>
</a>
</g>
</g>
<!-- Node1&#45;&gt;Node8 -->
<g id="edge7_Node000001_Node000008" class="edge">
<title>Node1&#45;&gt;Node8</title>
<g id="a_edge7_Node000001_Node000008"><a xlink:title=" ">
<path fill="none" stroke="#63b8ff" d="M184.39,-344.34C176.29,-345.42 168.09,-346.53 160.03,-347.61"/>
<polygon fill="#63b8ff" stroke="#63b8ff" points="184.79,-347.81 194.23,-343.01 183.85,-340.88 184.79,-347.81"/>
</a>
</g>
</g>
<!-- Node9 -->
<g id="Node000009" class="node">
<title>Node9</title>
<g id="a_Node000009"><a xlink:href="classedu_1_1wpi_1_1first_1_1wpilibj_1_1motorcontrol_1_1_p_w_m_victor_s_p_x.html#a776cb8880ae04d3e3c5f2b83b46ba780" target="_top" xlink:title=" ">
<polygon fill="white" stroke="#666666" points="160,-324.5 0,-324.5 0,-294 160,-294 160,-324.5"/>
<text text-anchor="start" x="8" y="-311" font-family="Helvetica,sans-Serif" font-size="10.00">edu.wpi.first.wpilibj.motorcontrol.</text>
<text text-anchor="middle" x="80" y="-299.75" font-family="Helvetica,sans-Serif" font-size="10.00">PWMVictorSPX.PWMVictorSPX</text>
</a>
</g>
</g>
<!-- Node1&#45;&gt;Node9 -->
<g id="edge8_Node000001_Node000009" class="edge">
<title>Node1&#45;&gt;Node9</title>
<g id="a_edge8_Node000001_Node000009"><a xlink:title=" ">
<path fill="none" stroke="#63b8ff" d="M184.49,-322.62C176.47,-321.58 168.34,-320.53 160.35,-319.5"/>
<polygon fill="#63b8ff" stroke="#63b8ff" points="183.86,-326.07 194.23,-323.88 184.76,-319.13 183.86,-326.07"/>
</a>
</g>
</g>
<!-- Node10 -->
<g id="Node000010" class="node">
<title>Node10</title>
<g id="a_Node000010"><a xlink:href="classedu_1_1wpi_1_1first_1_1wpilibj_1_1motorcontrol_1_1_s_d540.html#a4941de5e2a0cba493ea3af12a7eae00b" target="_top" xlink:title=" ">
<polygon fill="white" stroke="#666666" points="159.62,-275.5 0.38,-275.5 0.38,-245 159.62,-245 159.62,-275.5"/>
<text text-anchor="start" x="8.38" y="-262" font-family="Helvetica,sans-Serif" font-size="10.00">edu.wpi.first.wpilibj.motorcontrol.</text>
<text text-anchor="middle" x="80" y="-250.75" font-family="Helvetica,sans-Serif" font-size="10.00">SD540.SD540</text>
</a>
</g>
</g>
<!-- Node1&#45;&gt;Node10 -->
<g id="edge9_Node000001_Node000010" class="edge">
<title>Node1&#45;&gt;Node10</title>
<g id="a_edge9_Node000001_Node000010"><a xlink:title=" ">
<path fill="none" stroke="#63b8ff" d="M224.15,-312.73C204.79,-303.76 181.47,-293.44 160,-285.25 151.53,-282.02 142.45,-278.86 133.56,-275.94"/>
<polygon fill="#63b8ff" stroke="#63b8ff" points="222.55,-315.84 233.09,-316.91 225.51,-309.5 222.55,-315.84"/>
</a>
</g>
</g>
<!-- Node11 -->
<g id="Node000011" class="node">
<title>Node11</title>
<g id="a_Node000011"><a xlink:href="classedu_1_1wpi_1_1first_1_1wpilibj_1_1_servo.html#a7e3099c177e13a98d69911936d6ea566" target="_top" xlink:title=" ">
<polygon fill="white" stroke="#666666" points="145.38,-226.5 14.62,-226.5 14.62,-196 145.38,-196 145.38,-226.5"/>
<text text-anchor="start" x="22.62" y="-213" font-family="Helvetica,sans-Serif" font-size="10.00">edu.wpi.first.wpilibj.Servo.</text>
<text text-anchor="middle" x="80" y="-201.75" font-family="Helvetica,sans-Serif" font-size="10.00">Servo</text>
</a>
</g>
</g>
<!-- Node1&#45;&gt;Node11 -->
<g id="edge10_Node000001_Node000011" class="edge">
<title>Node1&#45;&gt;Node11</title>
<g id="a_edge10_Node000001_Node000011"><a xlink:title=" ">
<path fill="none" stroke="#63b8ff" d="M245.94,-309.14C225.92,-287.31 193.77,-255.68 160,-236.25 153.89,-232.74 147.22,-229.65 140.44,-226.96"/>
<polygon fill="#63b8ff" stroke="#63b8ff" points="243.2,-311.33 252.49,-316.43 248.41,-306.65 243.2,-311.33"/>
</a>
</g>
</g>
<!-- Node12 -->
<g id="Node000012" class="node">
<title>Node12</title>
<g id="a_Node000012"><a xlink:href="classedu_1_1wpi_1_1first_1_1wpilibj_1_1motorcontrol_1_1_spark.html#aab46d8b2428e12dfe4cd4b729d0bb7ac" target="_top" xlink:title=" ">
<polygon fill="white" stroke="#666666" points="159.62,-177.5 0.38,-177.5 0.38,-147 159.62,-147 159.62,-177.5"/>
<text text-anchor="start" x="8.38" y="-164" font-family="Helvetica,sans-Serif" font-size="10.00">edu.wpi.first.wpilibj.motorcontrol.</text>
<text text-anchor="middle" x="80" y="-152.75" font-family="Helvetica,sans-Serif" font-size="10.00">Spark.Spark</text>
</a>
</g>
</g>
<!-- Node1&#45;&gt;Node12 -->
<g id="edge11_Node000001_Node000012" class="edge">
<title>Node1&#45;&gt;Node12</title>
<g id="a_edge11_Node000001_Node000012"><a xlink:title=" ">
<path fill="none" stroke="#63b8ff" d="M254.65,-307.89C237.86,-275.31 204.45,-219.18 160,-187.25 154.98,-183.64 149.41,-180.54 143.63,-177.88"/>
<polygon fill="#63b8ff" stroke="#63b8ff" points="251.41,-309.24 259.03,-316.61 257.67,-306.1 251.41,-309.24"/>
</a>
</g>
</g>
<!-- Node13 -->
<g id="Node000013" class="node">
<title>Node13</title>
<g id="a_Node000013"><a xlink:href="classedu_1_1wpi_1_1first_1_1wpilibj_1_1motorcontrol_1_1_talon.html#ac7bb4c74ea62cf264dba580b6460d08b" target="_top" xlink:title=" ">
<polygon fill="white" stroke="#666666" points="159.62,-128.5 0.38,-128.5 0.38,-98 159.62,-98 159.62,-128.5"/>
<text text-anchor="start" x="8.38" y="-115" font-family="Helvetica,sans-Serif" font-size="10.00">edu.wpi.first.wpilibj.motorcontrol.</text>
<text text-anchor="middle" x="80" y="-103.75" font-family="Helvetica,sans-Serif" font-size="10.00">Talon.Talon</text>
</a>
</g>
</g>
<!-- Node1&#45;&gt;Node13 -->
<g id="edge12_Node000001_Node000013" class="edge">
<title>Node1&#45;&gt;Node13</title>
<g id="a_edge12_Node000001_Node000013"><a xlink:title=" ">
<path fill="none" stroke="#63b8ff" d="M259.33,-306.83C246.24,-264.98 215.06,-183.53 160,-138.25 155.56,-134.6 150.57,-131.47 145.32,-128.8"/>
<polygon fill="#63b8ff" stroke="#63b8ff" points="255.95,-307.75 262.19,-316.31 262.66,-305.73 255.95,-307.75"/>
</a>
</g>
</g>
<!-- Node14 -->
<g id="Node000014" class="node">
<title>Node14</title>
<g id="a_Node000014"><a xlink:href="classedu_1_1wpi_1_1first_1_1wpilibj_1_1motorcontrol_1_1_victor.html#a0d74f33a24b20cd1a2dbfac22ca51bc9" target="_top" xlink:title=" ">
<polygon fill="white" stroke="#666666" points="159.62,-79.5 0.38,-79.5 0.38,-49 159.62,-49 159.62,-79.5"/>
<text text-anchor="start" x="8.38" y="-66" font-family="Helvetica,sans-Serif" font-size="10.00">edu.wpi.first.wpilibj.motorcontrol.</text>
<text text-anchor="middle" x="80" y="-54.75" font-family="Helvetica,sans-Serif" font-size="10.00">Victor.Victor</text>
</a>
</g>
</g>
<!-- Node1&#45;&gt;Node14 -->
<g id="edge13_Node000001_Node000014" class="edge">
<title>Node1&#45;&gt;Node14</title>
<g id="a_edge13_Node000001_Node000014"><a xlink:title=" ">
<path fill="none" stroke="#63b8ff" d="M262.47,-306.38C253.1,-256.36 226.06,-148.66 160,-89.25 155.94,-85.59 151.34,-82.47 146.45,-79.81"/>
<polygon fill="#63b8ff" stroke="#63b8ff" points="258.99,-306.79 264.18,-316.02 265.88,-305.57 258.99,-306.79"/>
</a>
</g>
</g>
<!-- Node15 -->
<g id="Node000015" class="node">
<title>Node15</title>
<g id="a_Node000015"><a xlink:href="classedu_1_1wpi_1_1first_1_1wpilibj_1_1motorcontrol_1_1_victor_s_p.html#a9824d01b4d1eecd1a15539bb1bb0102d" target="_top" xlink:title=" ">
<polygon fill="white" stroke="#666666" points="159.62,-30.5 0.38,-30.5 0.38,0 159.62,0 159.62,-30.5"/>
<text text-anchor="start" x="8.38" y="-17" font-family="Helvetica,sans-Serif" font-size="10.00">edu.wpi.first.wpilibj.motorcontrol.</text>
<text text-anchor="middle" x="80" y="-5.75" font-family="Helvetica,sans-Serif" font-size="10.00">VictorSP.VictorSP</text>
</a>
</g>
</g>
<!-- Node1&#45;&gt;Node15 -->
<g id="edge14_Node000001_Node000015" class="edge">
<title>Node1&#45;&gt;Node15</title>
<g id="a_edge14_Node000001_Node000015"><a xlink:title=" ">
<path fill="none" stroke="#63b8ff" d="M264.71,-306.34C258.93,-249.09 237.4,-114.4 160,-40.25 156.26,-36.67 152.01,-33.6 147.47,-30.97"/>
<polygon fill="#63b8ff" stroke="#63b8ff" points="261.21,-306.49 265.61,-316.13 268.18,-305.85 261.21,-306.49"/>
</a>
</g>
</g>
</g>
</svg>
