<?xml version="1.0" encoding="UTF-8" standalone="no"?>
<!DOCTYPE svg PUBLIC "-//W3C//DTD SVG 1.1//EN"
 "http://www.w3.org/Graphics/SVG/1.1/DTD/svg11.dtd">
<!-- Generated by graphviz version 9.0.0 (20230911.1827)
 -->
<!-- Title: edu.wpi.first.wpilibj.SPI.getPort Pages: 1 -->
<svg width="595pt" height="39pt"
 viewBox="0.00 0.00 594.50 38.50" xmlns="http://www.w3.org/2000/svg" xmlns:xlink="http://www.w3.org/1999/xlink">
<g id="graph0" class="graph" transform="scale(1 1) rotate(0) translate(4 34.5)">
<title>edu.wpi.first.wpilibj.SPI.getPort</title>
<!-- Node1 -->
<g id="Node000001" class="node">
<title>Node1</title>
<g id="a_Node000001"><a xlink:title=" ">
<polygon fill="#999999" stroke="#666666" points="586.5,-24.88 433.25,-24.88 433.25,-5.63 586.5,-5.63 586.5,-24.88"/>
<text text-anchor="middle" x="509.88" y="-11.38" font-family="Helvetica,sans-Serif" font-size="10.00">edu.wpi.first.wpilibj.SPI.getPort</text>
</a>
</g>
</g>
<!-- Node2 -->
<g id="Node000002" class="node">
<title>Node2</title>
<g id="a_Node000002"><a xlink:href="classedu_1_1wpi_1_1first_1_1wpilibj_1_1_a_d_x_r_s450___gyro.html#a67ad67aa94c7f0cc4f1e3d6fff340d73" target="_top" xlink:title=" ">
<polygon fill="white" stroke="#666666" points="397.25,-30.5 244,-30.5 244,0 397.25,0 397.25,-30.5"/>
<text text-anchor="start" x="252" y="-17" font-family="Helvetica,sans-Serif" font-size="10.00">edu.wpi.first.wpilibj.ADXRS450</text>
<text text-anchor="middle" x="320.62" y="-5.75" font-family="Helvetica,sans-Serif" font-size="10.00">_Gyro.getPort</text>
</a>
</g>
</g>
<!-- Node1&#45;&gt;Node2 -->
<g id="edge1_Node000001_Node000002" class="edge">
<title>Node1&#45;&gt;Node2</title>
<g id="a_edge1_Node000001_Node000002"><a xlink:title=" ">
<path fill="none" stroke="#63b8ff" d="M421.69,-15.25C413.65,-15.25 405.55,-15.25 397.62,-15.25"/>
<polygon fill="#63b8ff" stroke="#63b8ff" points="421.47,-18.75 431.47,-15.25 421.47,-11.75 421.47,-18.75"/>
</a>
</g>
</g>
<!-- Node3 -->
<g id="Node000003" class="node">
<title>Node3</title>
<g id="a_Node000003"><a xlink:href="classedu_1_1wpi_1_1first_1_1wpilibj_1_1simulation_1_1_a_d_x_r_s450___gyro_sim.html#ab63538bbb7ff39210f6bc27e1ad89c63" target="_top" xlink:title=" ">
<polygon fill="white" stroke="#666666" points="208,-30.5 0,-30.5 0,0 208,0 208,-30.5"/>
<text text-anchor="start" x="8" y="-17" font-family="Helvetica,sans-Serif" font-size="10.00">edu.wpi.first.wpilibj.simulation.</text>
<text text-anchor="middle" x="104" y="-5.75" font-family="Helvetica,sans-Serif" font-size="10.00">ADXRS450_GyroSim.ADXRS450_GyroSim</text>
</a>
</g>
</g>
<!-- Node2&#45;&gt;Node3 -->
<g id="edge2_Node000002_Node000003" class="edge">
<title>Node2&#45;&gt;Node3</title>
<g id="a_edge2_Node000002_Node000003"><a xlink:title=" ">
<path fill="none" stroke="#63b8ff" d="M232.23,-15.25C224.34,-15.25 216.31,-15.25 208.31,-15.25"/>
<polygon fill="#63b8ff" stroke="#63b8ff" points="232.14,-18.75 242.14,-15.25 232.14,-11.75 232.14,-18.75"/>
</a>
</g>
</g>
</g>
</svg>
