<?xml version="1.0" encoding="UTF-8" standalone="no"?>
<!DOCTYPE svg PUBLIC "-//W3C//DTD SVG 1.1//EN"
 "http://www.w3.org/Graphics/SVG/1.1/DTD/svg11.dtd">
<!-- Generated by graphviz version 9.0.0 (20230911.1827)
 -->
<!-- Title: edu.wpi.first.wpilibj.AnalogInput.resetAccumulator Pages: 1 -->
<svg width="329pt" height="174pt"
 viewBox="0.00 0.00 328.75 173.88" xmlns="http://www.w3.org/2000/svg" xmlns:xlink="http://www.w3.org/1999/xlink">

<svg id="main" version="1.1" xmlns="http://www.w3.org/2000/svg" xmlns:xlink="http://www.w3.org/1999/xlink" xml:space="preserve" onload="init(evt)">
<style type="text/css"><![CDATA[
.node, .edge {opacity: 0.7;}
.node.selected, .edge.selected {opacity: 1;}
.edge:hover path { stroke: red; }
.edge:hover polygon { stroke: red; fill: red; }
]]></style>
<script type="application/ecmascript" xlink:href="svg.min.js"/>
<svg id="graph" class="graph">
<g id="graph0" class="graph" transform="scale(1 1) rotate(0) translate(4 169.88)">
<title>edu.wpi.first.wpilibj.AnalogInput.resetAccumulator</title>
<!-- Node1 -->
<g id="Node000001" class="node">
<title>Node1</title>
<g id="a_Node000001"><a xlink:title=" ">
<polygon fill="#999999" stroke="#666666" points="132.25,-103.5 0,-103.5 0,-73 132.25,-73 132.25,-103.5"/>
<text text-anchor="start" x="8" y="-90" font-family="Helvetica,sans-Serif" font-size="10.00">edu.wpi.first.wpilibj.Analog</text>
<text text-anchor="middle" x="66.12" y="-78.75" font-family="Helvetica,sans-Serif" font-size="10.00">Input.resetAccumulator</text>
</a>
</g>
</g>
<!-- Node2 -->
<g id="Node000002" class="node">
<title>Node2</title>
<g id="a_Node000002"><a xlink:href="classedu_1_1wpi_1_1first_1_1wpilibj_1_1_timer.html#a7ffa861556c640f9de9aa09d796bad6d" target="_top" xlink:title=" ">
<polygon fill="white" stroke="#666666" points="320.75,-165.88 168.25,-165.88 168.25,-146.62 320.75,-146.62 320.75,-165.88"/>
<text text-anchor="middle" x="244.5" y="-152.38" font-family="Helvetica,sans-Serif" font-size="10.00">edu.wpi.first.wpilibj.Timer.delay</text>
</a>
</g>
</g>
<!-- Node1&#45;&gt;Node2 -->
<g id="edge1_Node000001_Node000002" class="edge">
<title>Node1&#45;&gt;Node2</title>
<g id="a_edge1_Node000001_Node000002"><a xlink:title=" ">
<path fill="none" stroke="#63b8ff" d="M95.22,-103.78C115.15,-114.32 142.77,-127.97 168.25,-137.25 174.03,-139.35 180.13,-141.31 186.27,-143.11"/>
<polygon fill="#63b8ff" stroke="#63b8ff" points="185.26,-146.46 195.83,-145.76 187.13,-139.71 185.26,-146.46"/>
</a>
</g>
</g>
<!-- Node3 -->
<g id="Node000003" class="node">
<title>Node3</title>
<g id="a_Node000003"><a xlink:href="classedu_1_1wpi_1_1first_1_1wpilibj_1_1_analog_input.html#a50edcf7229f453f039af502901509c54" target="_top" xlink:title=" ">
<polygon fill="white" stroke="#666666" points="310.62,-128.5 178.38,-128.5 178.38,-98 310.62,-98 310.62,-128.5"/>
<text text-anchor="start" x="186.38" y="-115" font-family="Helvetica,sans-Serif" font-size="10.00">edu.wpi.first.wpilibj.Analog</text>
<text text-anchor="middle" x="244.5" y="-103.75" font-family="Helvetica,sans-Serif" font-size="10.00">Input.getAverageBits</text>
</a>
</g>
</g>
<!-- Node1&#45;&gt;Node3 -->
<g id="edge2_Node000001_Node000003" class="edge">
<title>Node1&#45;&gt;Node3</title>
<g id="a_edge2_Node000001_Node000003"><a xlink:title=" ">
<path fill="none" stroke="#63b8ff" d="M132.55,-97.52C143.65,-99.1 155.27,-100.74 166.64,-102.36"/>
<polygon fill="#63b8ff" stroke="#63b8ff" points="166,-105.8 176.39,-103.74 166.98,-98.87 166,-105.8"/>
</a>
</g>
</g>
<!-- Node4 -->
<g id="Node000004" class="node">
<title>Node4</title>
<g id="a_Node000004"><a xlink:href="classedu_1_1wpi_1_1first_1_1wpilibj_1_1_analog_input.html#ab6859209ebbf11703efdff1b09b5f38e" target="_top" xlink:title=" ">
<polygon fill="white" stroke="#666666" points="312.5,-79.5 176.5,-79.5 176.5,-49 312.5,-49 312.5,-79.5"/>
<text text-anchor="start" x="184.5" y="-66" font-family="Helvetica,sans-Serif" font-size="10.00">edu.wpi.first.wpilibj.Analog</text>
<text text-anchor="middle" x="244.5" y="-54.75" font-family="Helvetica,sans-Serif" font-size="10.00">Input.getGlobalSampleRate</text>
</a>
</g>
</g>
<!-- Node1&#45;&gt;Node4 -->
<g id="edge3_Node000001_Node000004" class="edge">
<title>Node1&#45;&gt;Node4</title>
<g id="a_edge3_Node000001_Node000004"><a xlink:title=" ">
<path fill="none" stroke="#63b8ff" d="M132.55,-79.35C143.1,-77.91 154.12,-76.41 164.94,-74.94"/>
<polygon fill="#63b8ff" stroke="#63b8ff" points="165.18,-78.44 174.62,-73.62 164.24,-71.5 165.18,-78.44"/>
</a>
</g>
</g>
<!-- Node5 -->
<g id="Node000005" class="node">
<title>Node5</title>
<g id="a_Node000005"><a xlink:href="classedu_1_1wpi_1_1first_1_1wpilibj_1_1_analog_input.html#a573b6747e97dd1e3072ef59137e081a0" target="_top" xlink:title=" ">
<polygon fill="white" stroke="#666666" points="310.62,-30.5 178.38,-30.5 178.38,0 310.62,0 310.62,-30.5"/>
<text text-anchor="start" x="186.38" y="-17" font-family="Helvetica,sans-Serif" font-size="10.00">edu.wpi.first.wpilibj.Analog</text>
<text text-anchor="middle" x="244.5" y="-5.75" font-family="Helvetica,sans-Serif" font-size="10.00">Input.getOversampleBits</text>
</a>
</g>
</g>
<!-- Node1&#45;&gt;Node5 -->
<g id="edge4_Node000001_Node000005" class="edge">
<title>Node1&#45;&gt;Node5</title>
<g id="a_edge4_Node000001_Node000005"><a xlink:title=" ">
<path fill="none" stroke="#63b8ff" d="M97.67,-72.55C117.51,-62.65 144.09,-49.96 168.25,-40.25 172.9,-38.38 177.75,-36.54 182.65,-34.75"/>
<polygon fill="#63b8ff" stroke="#63b8ff" points="183.72,-38.09 191.97,-31.45 181.38,-31.49 183.72,-38.09"/>
</a>
</g>
</g>
</g>
</svg>
</svg>

<style type='text/css'>
<![CDATA[
[data-mouse-over-selected='false'] { opacity: 0.7; }
[data-mouse-over-selected='true']  { opacity: 1.0; }
]]>
</style>
<script type="application/ecmascript"><![CDATA[
document.addEventListener('DOMContentLoaded', (event) => {
  highlightEdges();
  highlightAdjacentNodes();
});
]]></script>
</svg>
