<?xml version="1.0" encoding="UTF-8" standalone="no"?>
<!DOCTYPE svg PUBLIC "-//W3C//DTD SVG 1.1//EN"
 "http://www.w3.org/Graphics/SVG/1.1/DTD/svg11.dtd">
<!-- Generated by graphviz version 9.0.0 (20230911.1827)
 -->
<!-- Title: edu.wpi.first.wpilibj.simulation.SimDeviceSim.getDouble Pages: 1 -->
<svg width="412pt" height="284pt"
 viewBox="0.00 0.00 412.00 283.50" xmlns="http://www.w3.org/2000/svg" xmlns:xlink="http://www.w3.org/1999/xlink">

<svg id="main" version="1.1" xmlns="http://www.w3.org/2000/svg" xmlns:xlink="http://www.w3.org/1999/xlink" xml:space="preserve" onload="init(evt)">
<style type="text/css"><![CDATA[
.node, .edge {opacity: 0.7;}
.node.selected, .edge.selected {opacity: 1;}
.edge:hover path { stroke: red; }
.edge:hover polygon { stroke: red; fill: red; }
]]></style>
<script type="application/ecmascript" xlink:href="svg.min.js"/>
<svg id="graph" class="graph">
<g id="graph0" class="graph" transform="scale(1 1) rotate(0) translate(4 279.5)">
<title>edu.wpi.first.wpilibj.simulation.SimDeviceSim.getDouble</title>
<!-- Node1 -->
<g id="Node000001" class="node">
<title>Node1</title>
<g id="a_Node000001"><a xlink:title=" ">
<polygon fill="#999999" stroke="#666666" points="404,-152.5 254.5,-152.5 254.5,-122 404,-122 404,-152.5"/>
<text text-anchor="start" x="262.5" y="-139" font-family="Helvetica,sans-Serif" font-size="10.00">edu.wpi.first.wpilibj.simulation.</text>
<text text-anchor="middle" x="329.25" y="-127.75" font-family="Helvetica,sans-Serif" font-size="10.00">SimDeviceSim.getDouble</text>
</a>
</g>
</g>
<!-- Node2 -->
<g id="Node000002" class="node">
<title>Node2</title>
<g id="a_Node000002"><a xlink:href="classedu_1_1wpi_1_1first_1_1wpilibj_1_1simulation_1_1_a_d_i_s16448___i_m_u_sim.html#a1d7d814fd518b2785f0ab517b6c0833b" target="_top" xlink:title=" ">
<polygon fill="white" stroke="#666666" points="210.25,-275.5 8.25,-275.5 8.25,-245 210.25,-245 210.25,-275.5"/>
<text text-anchor="start" x="16.25" y="-262" font-family="Helvetica,sans-Serif" font-size="10.00">edu.wpi.first.wpilibj.simulation.</text>
<text text-anchor="middle" x="109.25" y="-250.75" font-family="Helvetica,sans-Serif" font-size="10.00">ADIS16448_IMUSim.ADIS16448_IMUSim</text>
</a>
</g>
</g>
<!-- Node1&#45;&gt;Node2 -->
<g id="edge1_Node000001_Node000002" class="edge">
<title>Node1&#45;&gt;Node2</title>
<g id="a_edge1_Node000001_Node000002"><a xlink:title=" ">
<path fill="none" stroke="#63b8ff" d="M308.08,-161.17C287.75,-183.7 254.34,-216.68 218.5,-235.25 211.56,-238.84 204.11,-241.92 196.48,-244.57"/>
<polygon fill="#63b8ff" stroke="#63b8ff" points="310.46,-163.76 314.45,-153.94 305.21,-159.12 310.46,-163.76"/>
</a>
</g>
</g>
<!-- Node3 -->
<g id="Node000003" class="node">
<title>Node3</title>
<g id="a_Node000003"><a xlink:href="classedu_1_1wpi_1_1first_1_1wpilibj_1_1simulation_1_1_a_d_i_s16470___i_m_u_sim.html#abda821aa148ed0f6df6c33b62754f4f9" target="_top" xlink:title=" ">
<polygon fill="white" stroke="#666666" points="210.25,-226.5 8.25,-226.5 8.25,-196 210.25,-196 210.25,-226.5"/>
<text text-anchor="start" x="16.25" y="-213" font-family="Helvetica,sans-Serif" font-size="10.00">edu.wpi.first.wpilibj.simulation.</text>
<text text-anchor="middle" x="109.25" y="-201.75" font-family="Helvetica,sans-Serif" font-size="10.00">ADIS16470_IMUSim.ADIS16470_IMUSim</text>
</a>
</g>
</g>
<!-- Node1&#45;&gt;Node3 -->
<g id="edge2_Node000001_Node000003" class="edge">
<title>Node1&#45;&gt;Node3</title>
<g id="a_edge2_Node000001_Node000003"><a xlink:title=" ">
<path fill="none" stroke="#63b8ff" d="M287.5,-157.7C267.14,-167.33 241.92,-178.4 218.5,-186.25 208.35,-189.65 197.51,-192.75 186.76,-195.53"/>
<polygon fill="#63b8ff" stroke="#63b8ff" points="288.8,-160.96 296.3,-153.48 285.77,-154.65 288.8,-160.96"/>
</a>
</g>
</g>
<!-- Node4 -->
<g id="Node000004" class="node">
<title>Node4</title>
<g id="a_Node000004"><a xlink:href="classedu_1_1wpi_1_1first_1_1wpilibj_1_1simulation_1_1_a_d_x_r_s450___gyro_sim.html#ab63538bbb7ff39210f6bc27e1ad89c63" target="_top" xlink:title=" ">
<polygon fill="white" stroke="#666666" points="213.25,-177.5 5.25,-177.5 5.25,-147 213.25,-147 213.25,-177.5"/>
<text text-anchor="start" x="13.25" y="-164" font-family="Helvetica,sans-Serif" font-size="10.00">edu.wpi.first.wpilibj.simulation.</text>
<text text-anchor="middle" x="109.25" y="-152.75" font-family="Helvetica,sans-Serif" font-size="10.00">ADXRS450_GyroSim.ADXRS450_GyroSim</text>
</a>
</g>
</g>
<!-- Node1&#45;&gt;Node4 -->
<g id="edge3_Node000001_Node000004" class="edge">
<title>Node1&#45;&gt;Node4</title>
<g id="a_edge3_Node000001_Node000004"><a xlink:title=" ">
<path fill="none" stroke="#63b8ff" d="M242.94,-147.03C233.28,-148.14 223.37,-149.28 213.51,-150.41"/>
<polygon fill="#63b8ff" stroke="#63b8ff" points="243.1,-150.54 252.64,-145.92 242.3,-143.58 243.1,-150.54"/>
</a>
</g>
</g>
<!-- Node5 -->
<g id="Node000005" class="node">
<title>Node5</title>
<g id="a_Node000005"><a xlink:href="classedu_1_1wpi_1_1first_1_1wpilibj_1_1simulation_1_1_analog_encoder_sim.html#a889064bea7fa4f436cd744cad2bc60b7" target="_top" xlink:title=" ">
<polygon fill="white" stroke="#666666" points="202,-128.5 16.5,-128.5 16.5,-98 202,-98 202,-128.5"/>
<text text-anchor="start" x="24.5" y="-115" font-family="Helvetica,sans-Serif" font-size="10.00">edu.wpi.first.wpilibj.simulation.</text>
<text text-anchor="middle" x="109.25" y="-103.75" font-family="Helvetica,sans-Serif" font-size="10.00">AnalogEncoderSim.AnalogEncoderSim</text>
</a>
</g>
</g>
<!-- Node1&#45;&gt;Node5 -->
<g id="edge4_Node000001_Node000005" class="edge">
<title>Node1&#45;&gt;Node5</title>
<g id="a_edge4_Node000001_Node000005"><a xlink:title=" ">
<path fill="none" stroke="#63b8ff" d="M243.05,-127.87C229.68,-126.4 215.81,-124.87 202.3,-123.38"/>
<polygon fill="#63b8ff" stroke="#63b8ff" points="242.31,-131.31 252.64,-128.93 243.08,-124.35 242.31,-131.31"/>
</a>
</g>
</g>
<!-- Node6 -->
<g id="Node000006" class="node">
<title>Node6</title>
<g id="a_Node000006"><a xlink:href="classedu_1_1wpi_1_1first_1_1wpilibj_1_1simulation_1_1_duty_cycle_encoder_sim.html#a06236677eecda71d8095bc90f3f06f12" target="_top" xlink:title=" ">
<polygon fill="white" stroke="#666666" points="218.5,-79.5 0,-79.5 0,-49 218.5,-49 218.5,-79.5"/>
<text text-anchor="start" x="8" y="-66" font-family="Helvetica,sans-Serif" font-size="10.00">edu.wpi.first.wpilibj.simulation.</text>
<text text-anchor="middle" x="109.25" y="-54.75" font-family="Helvetica,sans-Serif" font-size="10.00">DutyCycleEncoderSim.DutyCycleEncoderSim</text>
</a>
</g>
</g>
<!-- Node1&#45;&gt;Node6 -->
<g id="edge5_Node000001_Node000006" class="edge">
<title>Node1&#45;&gt;Node6</title>
<g id="a_edge5_Node000001_Node000006"><a xlink:title=" ">
<path fill="none" stroke="#63b8ff" d="M286.3,-116.72C266.14,-107.42 241.43,-96.84 218.5,-89.25 208.25,-85.86 197.3,-82.75 186.45,-79.97"/>
<polygon fill="#63b8ff" stroke="#63b8ff" points="284.78,-119.87 295.32,-120.94 287.74,-113.53 284.78,-119.87"/>
</a>
</g>
</g>
<!-- Node7 -->
<g id="Node000007" class="node">
<title>Node7</title>
<g id="a_Node000007"><a xlink:href="classedu_1_1wpi_1_1first_1_1wpilibj_1_1simulation_1_1_ultrasonic_sim.html#a3c4cd8a053a8509feff9f9402f18c2b7" target="_top" xlink:title=" ">
<polygon fill="white" stroke="#666666" points="184,-30.5 34.5,-30.5 34.5,0 184,0 184,-30.5"/>
<text text-anchor="start" x="42.5" y="-17" font-family="Helvetica,sans-Serif" font-size="10.00">edu.wpi.first.wpilibj.simulation.</text>
<text text-anchor="middle" x="109.25" y="-5.75" font-family="Helvetica,sans-Serif" font-size="10.00">UltrasonicSim.UltrasonicSim</text>
</a>
</g>
</g>
<!-- Node1&#45;&gt;Node7 -->
<g id="edge6_Node000001_Node000007" class="edge">
<title>Node1&#45;&gt;Node7</title>
<g id="a_edge6_Node000001_Node000007"><a xlink:title=" ">
<path fill="none" stroke="#63b8ff" d="M307.76,-113.29C287.37,-91 254.07,-58.56 218.5,-40.25 207.95,-34.82 196.23,-30.56 184.5,-27.21"/>
<polygon fill="#63b8ff" stroke="#63b8ff" points="305.14,-115.61 314.41,-120.73 310.35,-110.94 305.14,-115.61"/>
</a>
</g>
</g>
</g>
</svg>
</svg>

<style type='text/css'>
<![CDATA[
[data-mouse-over-selected='false'] { opacity: 0.7; }
[data-mouse-over-selected='true']  { opacity: 1.0; }
]]>
</style>
<script type="application/ecmascript"><![CDATA[
document.addEventListener('DOMContentLoaded', (event) => {
  highlightEdges();
  highlightAdjacentNodes();
});
]]></script>
</svg>
