<?xml version="1.0" encoding="UTF-8" standalone="no"?>
<!DOCTYPE svg PUBLIC "-//W3C//DTD SVG 1.1//EN"
 "http://www.w3.org/Graphics/SVG/1.1/DTD/svg11.dtd">
<!-- Generated by graphviz version 9.0.0 (20230911.1827)
 -->
<!-- Title: edu.wpi.first.wpilibj.XboxController.leftTrigger Pages: 1 -->
<svg width="806pt" height="39pt"
 viewBox="0.00 0.00 805.75 38.50" xmlns="http://www.w3.org/2000/svg" xmlns:xlink="http://www.w3.org/1999/xlink">
<g id="graph0" class="graph" transform="scale(1 1) rotate(0) translate(4 34.5)">
<title>edu.wpi.first.wpilibj.XboxController.leftTrigger</title>
<!-- Node1 -->
<g id="Node000001" class="node">
<title>Node1</title>
<g id="a_Node000001"><a xlink:title=" ">
<polygon fill="#999999" stroke="#666666" points="124.75,-30.5 0,-30.5 0,0 124.75,0 124.75,-30.5"/>
<text text-anchor="start" x="8" y="-17" font-family="Helvetica,sans-Serif" font-size="10.00">edu.wpi.first.wpilibj.Xbox</text>
<text text-anchor="middle" x="62.38" y="-5.75" font-family="Helvetica,sans-Serif" font-size="10.00">Controller.leftTrigger</text>
</a>
</g>
</g>
<!-- Node2 -->
<g id="Node000002" class="node">
<title>Node2</title>
<g id="a_Node000002"><a xlink:href="classedu_1_1wpi_1_1first_1_1wpilibj_1_1_xbox_controller.html#aa18e78de4eb53e5b0cef765ad42cba2d" target="_top" xlink:title=" ">
<polygon fill="white" stroke="#666666" points="285.5,-30.5 160.75,-30.5 160.75,0 285.5,0 285.5,-30.5"/>
<text text-anchor="start" x="168.75" y="-17" font-family="Helvetica,sans-Serif" font-size="10.00">edu.wpi.first.wpilibj.Xbox</text>
<text text-anchor="middle" x="223.12" y="-5.75" font-family="Helvetica,sans-Serif" font-size="10.00">Controller.leftTrigger</text>
</a>
</g>
</g>
<!-- Node1&#45;&gt;Node2 -->
<g id="edge1_Node000001_Node000002" class="edge">
<title>Node1&#45;&gt;Node2</title>
<g id="a_edge1_Node000001_Node000002"><a xlink:title=" ">
<path fill="none" stroke="#63b8ff" d="M125.21,-15.25C133.08,-15.25 141.19,-15.25 149.21,-15.25"/>
<polygon fill="#63b8ff" stroke="#63b8ff" points="148.95,-18.75 158.95,-15.25 148.95,-11.75 148.95,-18.75"/>
</a>
</g>
</g>
<!-- Node3 -->
<g id="Node000003" class="node">
<title>Node3</title>
<g id="a_Node000003"><a xlink:href="classedu_1_1wpi_1_1first_1_1wpilibj_1_1_xbox_controller.html#ab5535e7ea76583907af894fa6d756bcb" target="_top" xlink:title=" ">
<polygon fill="white" stroke="#666666" points="461.25,-30.5 321.5,-30.5 321.5,0 461.25,0 461.25,-30.5"/>
<text text-anchor="start" x="329.5" y="-17" font-family="Helvetica,sans-Serif" font-size="10.00">edu.wpi.first.wpilibj.Xbox</text>
<text text-anchor="middle" x="391.38" y="-5.75" font-family="Helvetica,sans-Serif" font-size="10.00">Controller.getLeftTriggerAxis</text>
</a>
</g>
</g>
<!-- Node2&#45;&gt;Node3 -->
<g id="edge2_Node000002_Node000003" class="edge">
<title>Node2&#45;&gt;Node3</title>
<g id="a_edge2_Node000002_Node000003"><a xlink:title=" ">
<path fill="none" stroke="#63b8ff" d="M285.56,-15.25C293.42,-15.25 301.55,-15.25 309.66,-15.25"/>
<polygon fill="#63b8ff" stroke="#63b8ff" points="309.55,-18.75 319.55,-15.25 309.55,-11.75 309.55,-18.75"/>
</a>
</g>
</g>
<!-- Node4 -->
<g id="Node000004" class="node">
<title>Node4</title>
<g id="a_Node000004"><a xlink:href="classedu_1_1wpi_1_1first_1_1wpilibj_1_1_generic_h_i_d.html#a561e13532e9305a057a3b02cc655833c" target="_top" xlink:title=" ">
<polygon fill="white" stroke="#666666" points="633.25,-30.5 497.25,-30.5 497.25,0 633.25,0 633.25,-30.5"/>
<text text-anchor="start" x="505.25" y="-17" font-family="Helvetica,sans-Serif" font-size="10.00">edu.wpi.first.wpilibj.Generic</text>
<text text-anchor="middle" x="565.25" y="-5.75" font-family="Helvetica,sans-Serif" font-size="10.00">HID.getRawAxis</text>
</a>
</g>
</g>
<!-- Node3&#45;&gt;Node4 -->
<g id="edge3_Node000003_Node000004" class="edge">
<title>Node3&#45;&gt;Node4</title>
<g id="a_edge3_Node000003_Node000004"><a xlink:title=" ">
<path fill="none" stroke="#63b8ff" d="M461.29,-15.25C469.29,-15.25 477.49,-15.25 485.61,-15.25"/>
<polygon fill="#63b8ff" stroke="#63b8ff" points="485.48,-18.75 495.48,-15.25 485.48,-11.75 485.48,-18.75"/>
</a>
</g>
</g>
<!-- Node5 -->
<g id="Node000005" class="node">
<title>Node5</title>
<g id="a_Node000005"><a xlink:href="classedu_1_1wpi_1_1first_1_1wpilibj_1_1_driver_station.html#af9606114345715ee1577c2b0c66a070c" target="_top" xlink:title=" ">
<polygon fill="white" stroke="#666666" points="797.75,-30.5 669.25,-30.5 669.25,0 797.75,0 797.75,-30.5"/>
<text text-anchor="start" x="677.25" y="-17" font-family="Helvetica,sans-Serif" font-size="10.00">edu.wpi.first.wpilibj.Driver</text>
<text text-anchor="middle" x="733.5" y="-5.75" font-family="Helvetica,sans-Serif" font-size="10.00">Station.getStickAxis</text>
</a>
</g>
</g>
<!-- Node4&#45;&gt;Node5 -->
<g id="edge4_Node000004_Node000005" class="edge">
<title>Node4&#45;&gt;Node5</title>
<g id="a_edge4_Node000004_Node000005"><a xlink:title=" ">
<path fill="none" stroke="#63b8ff" d="M633.39,-15.25C641.35,-15.25 649.52,-15.25 657.58,-15.25"/>
<polygon fill="#63b8ff" stroke="#63b8ff" points="657.37,-18.75 667.37,-15.25 657.37,-11.75 657.37,-18.75"/>
</a>
</g>
</g>
</g>
</svg>
