<?xml version="1.0" encoding="UTF-8" standalone="no"?>
<!DOCTYPE svg PUBLIC "-//W3C//DTD SVG 1.1//EN"
 "http://www.w3.org/Graphics/SVG/1.1/DTD/svg11.dtd">
<!-- Generated by graphviz version 9.0.0 (20230911.1827)
 -->
<!-- Title: edu.wpi.first.wpilibj.simulation.DifferentialDrivetrainSim.setInputs Pages: 1 -->
<svg width="558pt" height="39pt"
 viewBox="0.00 0.00 557.75 38.50" xmlns="http://www.w3.org/2000/svg" xmlns:xlink="http://www.w3.org/1999/xlink">
<g id="graph0" class="graph" transform="scale(1 1) rotate(0) translate(4 34.5)">
<title>edu.wpi.first.wpilibj.simulation.DifferentialDrivetrainSim.setInputs</title>
<!-- Node1 -->
<g id="Node000001" class="node">
<title>Node1</title>
<g id="a_Node000001"><a xlink:title=" ">
<polygon fill="#999999" stroke="#666666" points="166,-30.5 0,-30.5 0,0 166,0 166,-30.5"/>
<text text-anchor="start" x="8" y="-17" font-family="Helvetica,sans-Serif" font-size="10.00">edu.wpi.first.wpilibj.simulation.</text>
<text text-anchor="middle" x="83" y="-5.75" font-family="Helvetica,sans-Serif" font-size="10.00">DifferentialDrivetrainSim.setInputs</text>
</a>
</g>
</g>
<!-- Node2 -->
<g id="Node000002" class="node">
<title>Node2</title>
<g id="a_Node000002"><a xlink:href="classedu_1_1wpi_1_1first_1_1wpilibj_1_1simulation_1_1_differential_drivetrain_sim.html#a1fdf341946a1307848ae928b870ba2eb" target="_top" xlink:title=" ">
<polygon fill="white" stroke="#666666" points="375.5,-30.5 202,-30.5 202,0 375.5,0 375.5,-30.5"/>
<text text-anchor="start" x="210" y="-17" font-family="Helvetica,sans-Serif" font-size="10.00">edu.wpi.first.wpilibj.simulation.</text>
<text text-anchor="middle" x="288.75" y="-5.75" font-family="Helvetica,sans-Serif" font-size="10.00">DifferentialDrivetrainSim.clampInput</text>
</a>
</g>
</g>
<!-- Node1&#45;&gt;Node2 -->
<g id="edge1_Node000001_Node000002" class="edge">
<title>Node1&#45;&gt;Node2</title>
<g id="a_edge1_Node000001_Node000002"><a xlink:title=" ">
<path fill="none" stroke="#63b8ff" d="M166.29,-15.25C174.24,-15.25 182.37,-15.25 190.45,-15.25"/>
<polygon fill="#63b8ff" stroke="#63b8ff" points="190.32,-18.75 200.32,-15.25 190.32,-11.75 190.32,-18.75"/>
</a>
</g>
</g>
<!-- Node3 -->
<g id="Node000003" class="node">
<title>Node3</title>
<g id="a_Node000003"><a xlink:href="classedu_1_1wpi_1_1first_1_1wpilibj_1_1_robot_controller.html#af9afa821b1d92d5a4887b7bcbfb4a49b" target="_top" xlink:title=" ">
<polygon fill="white" stroke="#666666" points="549.75,-30.5 411.5,-30.5 411.5,0 549.75,0 549.75,-30.5"/>
<text text-anchor="start" x="419.5" y="-17" font-family="Helvetica,sans-Serif" font-size="10.00">edu.wpi.first.wpilibj.Robot</text>
<text text-anchor="middle" x="480.62" y="-5.75" font-family="Helvetica,sans-Serif" font-size="10.00">Controller.getBatteryVoltage</text>
</a>
</g>
</g>
<!-- Node2&#45;&gt;Node3 -->
<g id="edge2_Node000002_Node000003" class="edge">
<title>Node2&#45;&gt;Node3</title>
<g id="a_edge2_Node000002_Node000003"><a xlink:title=" ">
<path fill="none" stroke="#63b8ff" d="M375.8,-15.25C383.78,-15.25 391.84,-15.25 399.76,-15.25"/>
<polygon fill="#63b8ff" stroke="#63b8ff" points="399.71,-18.75 409.71,-15.25 399.71,-11.75 399.71,-18.75"/>
</a>
</g>
</g>
</g>
</svg>
