<?xml version="1.0" encoding="UTF-8" standalone="no"?>
<!DOCTYPE svg PUBLIC "-//W3C//DTD SVG 1.1//EN"
 "http://www.w3.org/Graphics/SVG/1.1/DTD/svg11.dtd">
<!-- Generated by graphviz version 9.0.0 (20230911.1827)
 -->
<!-- Title: edu.wpi.first.wpilibj.DigitalInput.getChannel Pages: 1 -->
<svg width="523pt" height="88pt"
 viewBox="0.00 0.00 522.50 87.50" xmlns="http://www.w3.org/2000/svg" xmlns:xlink="http://www.w3.org/1999/xlink">
<g id="graph0" class="graph" transform="scale(1 1) rotate(0) translate(4 83.5)">
<title>edu.wpi.first.wpilibj.DigitalInput.getChannel</title>
<!-- Node1 -->
<g id="Node000001" class="node">
<title>Node1</title>
<g id="a_Node000001"><a xlink:title=" ">
<polygon fill="#999999" stroke="#666666" points="514.5,-54.5 384.5,-54.5 384.5,-24 514.5,-24 514.5,-54.5"/>
<text text-anchor="start" x="392.5" y="-41" font-family="Helvetica,sans-Serif" font-size="10.00">edu.wpi.first.wpilibj.Digital</text>
<text text-anchor="middle" x="449.5" y="-29.75" font-family="Helvetica,sans-Serif" font-size="10.00">Input.getChannel</text>
</a>
</g>
</g>
<!-- Node2 -->
<g id="Node000002" class="node">
<title>Node2</title>
<g id="a_Node000002"><a xlink:href="classedu_1_1wpi_1_1first_1_1wpilibj_1_1simulation_1_1_d_i_o_sim.html#a84b3db860d3c8563054f1eda957cd7cc" target="_top" xlink:title=" ">
<polygon fill="white" stroke="#666666" points="341.75,-79.5 192.25,-79.5 192.25,-49 341.75,-49 341.75,-79.5"/>
<text text-anchor="start" x="200.25" y="-66" font-family="Helvetica,sans-Serif" font-size="10.00">edu.wpi.first.wpilibj.simulation.</text>
<text text-anchor="middle" x="267" y="-54.75" font-family="Helvetica,sans-Serif" font-size="10.00">DIOSim.DIOSim</text>
</a>
</g>
</g>
<!-- Node1&#45;&gt;Node2 -->
<g id="edge1_Node000001_Node000002" class="edge">
<title>Node1&#45;&gt;Node2</title>
<g id="a_edge1_Node000001_Node000002"><a xlink:title=" ">
<path fill="none" stroke="#63b8ff" d="M372.81,-49.73C362.69,-51.14 352.32,-52.57 342.22,-53.97"/>
<polygon fill="#63b8ff" stroke="#63b8ff" points="373.18,-53.22 382.6,-48.38 372.21,-46.28 373.18,-53.22"/>
</a>
</g>
</g>
<!-- Node3 -->
<g id="Node000003" class="node">
<title>Node3</title>
<g id="a_Node000003"><a xlink:href="classedu_1_1wpi_1_1first_1_1wpilibj_1_1_ultrasonic.html#addfcca8c0fb4b35478a4d97dee5333d2" target="_top" xlink:title=" ">
<polygon fill="white" stroke="#666666" points="348.5,-30.5 185.5,-30.5 185.5,0 348.5,0 348.5,-30.5"/>
<text text-anchor="start" x="193.5" y="-17" font-family="Helvetica,sans-Serif" font-size="10.00">edu.wpi.first.wpilibj.Ultrasonic.get</text>
<text text-anchor="middle" x="267" y="-5.75" font-family="Helvetica,sans-Serif" font-size="10.00">EchoChannel</text>
</a>
</g>
</g>
<!-- Node1&#45;&gt;Node3 -->
<g id="edge2_Node000001_Node000003" class="edge">
<title>Node1&#45;&gt;Node3</title>
<g id="a_edge2_Node000001_Node000003"><a xlink:title=" ">
<path fill="none" stroke="#63b8ff" d="M372.95,-29.2C364.96,-28.14 356.83,-27.06 348.79,-25.99"/>
<polygon fill="#63b8ff" stroke="#63b8ff" points="372.23,-32.64 382.6,-30.49 373.15,-25.7 372.23,-32.64"/>
</a>
</g>
</g>
<!-- Node4 -->
<g id="Node000004" class="node">
<title>Node4</title>
<g id="a_Node000004"><a xlink:href="classedu_1_1wpi_1_1first_1_1wpilibj_1_1simulation_1_1_ultrasonic_sim.html#ae92c757ee1d1d32f315d1db77a0ad504" target="_top" xlink:title=" ">
<polygon fill="white" stroke="#666666" points="149.5,-30.5 0,-30.5 0,0 149.5,0 149.5,-30.5"/>
<text text-anchor="start" x="8" y="-17" font-family="Helvetica,sans-Serif" font-size="10.00">edu.wpi.first.wpilibj.simulation.</text>
<text text-anchor="middle" x="74.75" y="-5.75" font-family="Helvetica,sans-Serif" font-size="10.00">UltrasonicSim.UltrasonicSim</text>
</a>
</g>
</g>
<!-- Node3&#45;&gt;Node4 -->
<g id="edge3_Node000003_Node000004" class="edge">
<title>Node3&#45;&gt;Node4</title>
<g id="a_edge3_Node000003_Node000004"><a xlink:title=" ">
<path fill="none" stroke="#63b8ff" d="M173.8,-15.25C165.82,-15.25 157.81,-15.25 150,-15.25"/>
<polygon fill="#63b8ff" stroke="#63b8ff" points="173.53,-18.75 183.53,-15.25 173.53,-11.75 173.53,-18.75"/>
</a>
</g>
</g>
</g>
</svg>
