<?xml version="1.0" encoding="UTF-8" standalone="no"?>
<!DOCTYPE svg PUBLIC "-//W3C//DTD SVG 1.1//EN"
 "http://www.w3.org/Graphics/SVG/1.1/DTD/svg11.dtd">
<!-- Generated by graphviz version 9.0.0 (20230911.1827)
 -->
<!-- Title: edu.wpi.first.wpilibj.DigitalSource.getPortHandleForRouting Pages: 1 -->
<svg width="378pt" height="382pt"
 viewBox="0.00 0.00 378.25 381.50" xmlns="http://www.w3.org/2000/svg" xmlns:xlink="http://www.w3.org/1999/xlink">

<svg id="main" version="1.1" xmlns="http://www.w3.org/2000/svg" xmlns:xlink="http://www.w3.org/1999/xlink" xml:space="preserve" onload="init(evt)">
<style type="text/css"><![CDATA[
.node, .edge {opacity: 0.7;}
.node.selected, .edge.selected {opacity: 1;}
.edge:hover path { stroke: red; }
.edge:hover polygon { stroke: red; fill: red; }
]]></style>
<script type="application/ecmascript" xlink:href="svg.min.js"/>
<svg id="graph" class="graph">
<g id="graph0" class="graph" transform="scale(1 1) rotate(0) translate(4 377.5)">
<title>edu.wpi.first.wpilibj.DigitalSource.getPortHandleForRouting</title>
<!-- Node1 -->
<g id="Node000001" class="node">
<title>Node1</title>
<g id="a_Node000001"><a xlink:title=" ">
<polygon fill="#999999" stroke="#666666" points="370.25,-201.5 210.25,-201.5 210.25,-171 370.25,-171 370.25,-201.5"/>
<text text-anchor="start" x="218.25" y="-188" font-family="Helvetica,sans-Serif" font-size="10.00">edu.wpi.first.wpilibj.Digital</text>
<text text-anchor="middle" x="290.25" y="-176.75" font-family="Helvetica,sans-Serif" font-size="10.00">Source.getPortHandleForRouting</text>
</a>
</g>
</g>
<!-- Node2 -->
<g id="Node000002" class="node">
<title>Node2</title>
<g id="a_Node000002"><a xlink:href="classedu_1_1wpi_1_1first_1_1wpilibj_1_1_d_m_a.html#acfeca3397aade36080f063eb68c40881" target="_top" xlink:title=" ">
<polygon fill="white" stroke="#666666" points="158.88,-373.5 15.38,-373.5 15.38,-343 158.88,-343 158.88,-373.5"/>
<text text-anchor="start" x="23.38" y="-360" font-family="Helvetica,sans-Serif" font-size="10.00">edu.wpi.first.wpilibj.DMA.add</text>
<text text-anchor="middle" x="87.12" y="-348.75" font-family="Helvetica,sans-Serif" font-size="10.00">DigitalSource</text>
</a>
</g>
</g>
<!-- Node1&#45;&gt;Node2 -->
<g id="edge1_Node000001_Node000002" class="edge">
<title>Node1&#45;&gt;Node2</title>
<g id="a_edge1_Node000001_Node000002"><a xlink:title=" ">
<path fill="none" stroke="#63b8ff" d="M276.12,-211.51C257.73,-244.42 221.23,-301.47 174.25,-333.25 168.96,-336.83 163.16,-339.9 157.14,-342.54"/>
<polygon fill="#63b8ff" stroke="#63b8ff" points="279.01,-213.53 280.72,-203.07 272.86,-210.18 279.01,-213.53"/>
</a>
</g>
</g>
<!-- Node3 -->
<g id="Node000003" class="node">
<title>Node3</title>
<g id="a_Node000003"><a xlink:href="classedu_1_1wpi_1_1first_1_1wpilibj_1_1_d_m_a_sample.html#a8b577699ef63afe36271317af9f77ce7" target="_top" xlink:title=" ">
<polygon fill="white" stroke="#666666" points="174.25,-324.5 0,-324.5 0,-294 174.25,-294 174.25,-324.5"/>
<text text-anchor="start" x="8" y="-311" font-family="Helvetica,sans-Serif" font-size="10.00">edu.wpi.first.wpilibj.DMASample.get</text>
<text text-anchor="middle" x="87.12" y="-299.75" font-family="Helvetica,sans-Serif" font-size="10.00">DigitalSource</text>
</a>
</g>
</g>
<!-- Node1&#45;&gt;Node3 -->
<g id="edge2_Node000001_Node000003" class="edge">
<title>Node1&#45;&gt;Node3</title>
<g id="a_edge2_Node000001_Node000003"><a xlink:title=" ">
<path fill="none" stroke="#63b8ff" d="M267.28,-210.06C245.61,-232.23 210.54,-264.7 174.25,-284.25 167.67,-287.79 160.53,-290.89 153.27,-293.58"/>
<polygon fill="#63b8ff" stroke="#63b8ff" points="269.73,-212.56 274.13,-202.92 264.68,-207.72 269.73,-212.56"/>
</a>
</g>
</g>
<!-- Node4 -->
<g id="Node000004" class="node">
<title>Node4</title>
<g id="a_Node000004"><a xlink:href="classedu_1_1wpi_1_1first_1_1wpilibj_1_1_counter.html#a3ce037c671f43c48dd6d83f594848fb0" target="_top" xlink:title=" ">
<polygon fill="white" stroke="#666666" points="163.38,-275.5 10.88,-275.5 10.88,-245 163.38,-245 163.38,-275.5"/>
<text text-anchor="start" x="18.88" y="-262" font-family="Helvetica,sans-Serif" font-size="10.00">edu.wpi.first.wpilibj.Counter.set</text>
<text text-anchor="middle" x="87.12" y="-250.75" font-family="Helvetica,sans-Serif" font-size="10.00">DownSource</text>
</a>
</g>
</g>
<!-- Node1&#45;&gt;Node4 -->
<g id="edge3_Node000001_Node000004" class="edge">
<title>Node1&#45;&gt;Node4</title>
<g id="a_edge3_Node000001_Node000004"><a xlink:title=" ">
<path fill="none" stroke="#63b8ff" d="M245.15,-206.51C223.95,-215.87 198.03,-226.77 174.25,-235.25 165.16,-238.49 155.42,-241.63 145.88,-244.53"/>
<polygon fill="#63b8ff" stroke="#63b8ff" points="246.37,-209.8 254.08,-202.54 243.52,-203.41 246.37,-209.8"/>
</a>
</g>
</g>
<!-- Node5 -->
<g id="Node000005" class="node">
<title>Node5</title>
<g id="a_Node000005"><a xlink:href="classedu_1_1wpi_1_1first_1_1wpilibj_1_1_d_m_a.html#ac6abd6ecf13e6ab66c86b1cf25a40c24" target="_top" xlink:title=" ">
<polygon fill="white" stroke="#666666" points="157.75,-226.5 16.5,-226.5 16.5,-196 157.75,-196 157.75,-226.5"/>
<text text-anchor="start" x="24.5" y="-213" font-family="Helvetica,sans-Serif" font-size="10.00">edu.wpi.first.wpilibj.DMA.set</text>
<text text-anchor="middle" x="87.12" y="-201.75" font-family="Helvetica,sans-Serif" font-size="10.00">ExternalTrigger</text>
</a>
</g>
</g>
<!-- Node1&#45;&gt;Node5 -->
<g id="edge4_Node000001_Node000005" class="edge">
<title>Node1&#45;&gt;Node5</title>
<g id="a_edge4_Node000001_Node000005"><a xlink:title=" ">
<path fill="none" stroke="#63b8ff" d="M198.49,-197.53C184.99,-199.21 171.24,-200.92 158.24,-202.53"/>
<polygon fill="#63b8ff" stroke="#63b8ff" points="198.77,-201.02 208.26,-196.32 197.9,-194.08 198.77,-201.02"/>
</a>
</g>
</g>
<!-- Node6 -->
<g id="Node000006" class="node">
<title>Node6</title>
<g id="a_Node000006"><a xlink:href="classedu_1_1wpi_1_1first_1_1wpilibj_1_1_encoder.html#a3a51f9827ccd6f88e57966d2b8df3fb7" target="_top" xlink:title=" ">
<polygon fill="white" stroke="#666666" points="164.12,-177.5 10.12,-177.5 10.12,-147 164.12,-147 164.12,-177.5"/>
<text text-anchor="start" x="18.12" y="-164" font-family="Helvetica,sans-Serif" font-size="10.00">edu.wpi.first.wpilibj.Encoder.set</text>
<text text-anchor="middle" x="87.12" y="-152.75" font-family="Helvetica,sans-Serif" font-size="10.00">IndexSource</text>
</a>
</g>
</g>
<!-- Node1&#45;&gt;Node6 -->
<g id="edge5_Node000001_Node000006" class="edge">
<title>Node1&#45;&gt;Node6</title>
<g id="a_edge5_Node000001_Node000006"><a xlink:title=" ">
<path fill="none" stroke="#63b8ff" d="M198.46,-175.42C187.08,-174.06 175.54,-172.68 164.41,-171.35"/>
<polygon fill="#63b8ff" stroke="#63b8ff" points="197.91,-178.88 208.26,-176.59 198.74,-171.92 197.91,-178.88"/>
</a>
</g>
</g>
<!-- Node7 -->
<g id="Node000007" class="node">
<title>Node7</title>
<g id="a_Node000007"><a xlink:href="classedu_1_1wpi_1_1first_1_1wpilibj_1_1_counter.html#ae63099da0d855dc72efd64c7579730c7" target="_top" xlink:title=" ">
<polygon fill="white" stroke="#666666" points="163.38,-128.5 10.88,-128.5 10.88,-98 163.38,-98 163.38,-128.5"/>
<text text-anchor="start" x="18.88" y="-115" font-family="Helvetica,sans-Serif" font-size="10.00">edu.wpi.first.wpilibj.Counter.set</text>
<text text-anchor="middle" x="87.12" y="-103.75" font-family="Helvetica,sans-Serif" font-size="10.00">UpSource</text>
</a>
</g>
</g>
<!-- Node1&#45;&gt;Node7 -->
<g id="edge6_Node000001_Node000007" class="edge">
<title>Node1&#45;&gt;Node7</title>
<g id="a_edge6_Node000001_Node000007"><a xlink:title=" ">
<path fill="none" stroke="#63b8ff" d="M243.88,-165.92C222.91,-156.89 197.53,-146.46 174.25,-138.25 165,-134.99 155.09,-131.82 145.4,-128.89"/>
<polygon fill="#63b8ff" stroke="#63b8ff" points="242.46,-169.12 253.03,-169.9 245.26,-162.7 242.46,-169.12"/>
</a>
</g>
</g>
<!-- Node8 -->
<g id="Node000008" class="node">
<title>Node8</title>
<g id="a_Node000008"><a xlink:href="classedu_1_1wpi_1_1first_1_1wpilibj_1_1_s_p_i.html#a2a400b38911a94aa2eb7aefbeb4f7162" target="_top" xlink:title=" ">
<polygon fill="white" stroke="#666666" points="157.75,-79.5 16.5,-79.5 16.5,-49 157.75,-49 157.75,-79.5"/>
<text text-anchor="start" x="24.5" y="-66" font-family="Helvetica,sans-Serif" font-size="10.00">edu.wpi.first.wpilibj.SPI.start</text>
<text text-anchor="middle" x="87.12" y="-54.75" font-family="Helvetica,sans-Serif" font-size="10.00">AutoTrigger</text>
</a>
</g>
</g>
<!-- Node1&#45;&gt;Node8 -->
<g id="edge7_Node000001_Node000008" class="edge">
<title>Node1&#45;&gt;Node8</title>
<g id="a_edge7_Node000001_Node000008"><a xlink:title=" ">
<path fill="none" stroke="#63b8ff" d="M267.23,-162.69C245.53,-140.76 210.43,-108.62 174.25,-89.25 167.66,-85.72 160.52,-82.64 153.25,-79.96"/>
<polygon fill="#63b8ff" stroke="#63b8ff" points="264.61,-165.02 274.09,-169.75 269.63,-160.14 264.61,-165.02"/>
</a>
</g>
</g>
<!-- Node9 -->
<g id="Node000009" class="node">
<title>Node9</title>
<g id="a_Node000009"><a xlink:href="classedu_1_1wpi_1_1first_1_1wpilibj_1_1_synchronous_interrupt.html#a80059d1bb8f4bca30ac1c01a491d5232" target="_top" xlink:title=" ">
<polygon fill="white" stroke="#666666" points="166.75,-30.5 7.5,-30.5 7.5,0 166.75,0 166.75,-30.5"/>
<text text-anchor="start" x="15.5" y="-17" font-family="Helvetica,sans-Serif" font-size="10.00">edu.wpi.first.wpilibj.Synchronous</text>
<text text-anchor="middle" x="87.12" y="-5.75" font-family="Helvetica,sans-Serif" font-size="10.00">Interrupt.SynchronousInterrupt</text>
</a>
</g>
</g>
<!-- Node1&#45;&gt;Node9 -->
<g id="edge8_Node000001_Node000009" class="edge">
<title>Node1&#45;&gt;Node9</title>
<g id="a_edge8_Node000001_Node000009"><a xlink:title=" ">
<path fill="none" stroke="#63b8ff" d="M276.08,-161.16C257.64,-128.48 221.09,-71.82 174.25,-40.25 168.96,-36.68 163.15,-33.62 157.13,-30.98"/>
<polygon fill="#63b8ff" stroke="#63b8ff" points="272.8,-162.46 280.69,-169.54 278.93,-159.09 272.8,-162.46"/>
</a>
</g>
</g>
</g>
</svg>
</svg>

<style type='text/css'>
<![CDATA[
[data-mouse-over-selected='false'] { opacity: 0.7; }
[data-mouse-over-selected='true']  { opacity: 1.0; }
]]>
</style>
<script type="application/ecmascript"><![CDATA[
document.addEventListener('DOMContentLoaded', (event) => {
  highlightEdges();
  highlightAdjacentNodes();
});
]]></script>
</svg>
