<?xml version="1.0" encoding="UTF-8" standalone="no"?>
<!DOCTYPE svg PUBLIC "-//W3C//DTD SVG 1.1//EN"
 "http://www.w3.org/Graphics/SVG/1.1/DTD/svg11.dtd">
<!-- Generated by graphviz version 9.0.0 (20230911.1827)
 -->
<!-- Title: edu.wpi.first.wpilibj.Encoder Pages: 1 -->
<svg width="526pt" height="154pt"
 viewBox="0.00 0.00 525.75 153.88" xmlns="http://www.w3.org/2000/svg" xmlns:xlink="http://www.w3.org/1999/xlink">
<g id="graph0" class="graph" transform="scale(1 1) rotate(0) translate(4 149.88)">
<title>edu.wpi.first.wpilibj.Encoder</title>
<!-- Node1 -->
<g id="Node000001" class="node">
<title>Node1</title>
<g id="a_Node000001"><a xlink:title=" ">
<polygon fill="#999999" stroke="#666666" points="517.75,-89.88 379.5,-89.88 379.5,-70.62 517.75,-70.62 517.75,-89.88"/>
<text text-anchor="middle" x="448.62" y="-76.38" font-family="Helvetica,sans-Serif" font-size="10.00">edu.wpi.first.wpilibj.Encoder</text>
</a>
</g>
</g>
<!-- Node2 -->
<g id="Node000002" class="node">
<title>Node2</title>
<g id="a_Node000002"><a xlink:href="interfaceedu_1_1wpi_1_1first_1_1wpilibj_1_1_counter_base.html" target="_top" xlink:title=" ">
<polygon fill="white" stroke="#666666" points="276,-145.88 116.75,-145.88 116.75,-126.62 276,-126.62 276,-145.88"/>
<text text-anchor="middle" x="196.38" y="-132.38" font-family="Helvetica,sans-Serif" font-size="10.00">edu.wpi.first.wpilibj.CounterBase</text>
</a>
</g>
</g>
<!-- Node2&#45;&gt;Node1 -->
<g id="edge1_Node000001_Node000002" class="edge">
<title>Node2&#45;&gt;Node1</title>
<g id="a_edge1_Node000001_Node000002"><a xlink:title=" ">
<path fill="none" stroke="#63b8ff" d="M260.21,-123.93C290.84,-117.75 328.17,-109.96 361.5,-102.25 377.29,-98.6 394.61,-94.24 409.56,-90.37"/>
<polygon fill="#63b8ff" stroke="#63b8ff" points="259.85,-120.44 250.74,-125.84 261.23,-127.3 259.85,-120.44"/>
</a>
</g>
</g>
<!-- Node3 -->
<g id="Node000003" class="node">
<title>Node3</title>
<g id="a_Node000003"><a xlink:title=" ">
<polygon fill="white" stroke="#bfbfbf" points="224.62,-108.88 168.12,-108.88 168.12,-89.62 224.62,-89.62 224.62,-108.88"/>
<text text-anchor="middle" x="196.38" y="-95.38" font-family="Helvetica,sans-Serif" font-size="10.00">Sendable</text>
</a>
</g>
</g>
<!-- Node3&#45;&gt;Node1 -->
<g id="edge2_Node000001_Node000003" class="edge">
<title>Node3&#45;&gt;Node1</title>
<g id="a_edge2_Node000001_Node000003"><a xlink:title=" ">
<path fill="none" stroke="#63b8ff" d="M236.23,-96.3C274.34,-93.41 333.26,-88.93 379.22,-85.44"/>
<polygon fill="#63b8ff" stroke="#63b8ff" points="236.33,-92.78 226.62,-97.03 236.86,-99.76 236.33,-92.78"/>
</a>
</g>
</g>
<!-- Node4 -->
<g id="Node000004" class="node">
<title>Node4</title>
<g id="a_Node000004"><a xlink:title=" ">
<polygon fill="white" stroke="#bfbfbf" points="79.75,-48.88 0,-48.88 0,-29.62 79.75,-29.62 79.75,-48.88"/>
<text text-anchor="middle" x="39.88" y="-35.38" font-family="Helvetica,sans-Serif" font-size="10.00">AutoCloseable</text>
</a>
</g>
</g>
<!-- Node4&#45;&gt;Node1 -->
<g id="edge3_Node000001_Node000004" class="edge">
<title>Node4&#45;&gt;Node1</title>
<g id="a_edge3_Node000001_Node000004"><a xlink:title=" ">
<path fill="none" stroke="#63b8ff" d="M91.47,-44.6C93.59,-44.82 95.69,-45.04 97.75,-45.25 195.52,-55.3 308.7,-66.55 379.23,-73.52"/>
<polygon fill="#63b8ff" stroke="#63b8ff" points="91.85,-41.12 81.54,-43.57 91.12,-48.08 91.85,-41.12"/>
</a>
</g>
</g>
<!-- Node5 -->
<g id="Node000005" class="node">
<title>Node5</title>
<g id="a_Node000005"><a xlink:href="classedu_1_1wpi_1_1first_1_1wpilibj_1_1_digital_source.html" target="_top" xlink:title=" ">
<polygon fill="white" stroke="#666666" points="261.38,-30.5 131.38,-30.5 131.38,0 261.38,0 261.38,-30.5"/>
<text text-anchor="start" x="139.38" y="-17" font-family="Helvetica,sans-Serif" font-size="10.00">edu.wpi.first.wpilibj.Digital</text>
<text text-anchor="middle" x="196.38" y="-5.75" font-family="Helvetica,sans-Serif" font-size="10.00">Source</text>
</a>
</g>
</g>
<!-- Node4&#45;&gt;Node5 -->
<g id="edge5_Node000005_Node000004" class="edge">
<title>Node4&#45;&gt;Node5</title>
<g id="a_edge5_Node000005_Node000004"><a xlink:title=" ">
<path fill="none" stroke="#63b8ff" d="M91.21,-31.43C103.96,-29.45 117.82,-27.3 131.15,-25.23"/>
<polygon fill="#63b8ff" stroke="#63b8ff" points="90.7,-27.97 81.36,-32.96 91.78,-34.88 90.7,-27.97"/>
</a>
</g>
</g>
<!-- Node5&#45;&gt;Node1 -->
<g id="edge4_Node000001_Node000005" class="edge">
<title>Node5&#45;&gt;Node1</title>
<g id="a_edge4_Node000001_Node000005"><a xlink:title=" ">
<path fill="none" stroke="#9a32cd" stroke-dasharray="5,2" d="M272.81,-3.97C301.28,-2.4 333.53,-3.93 361.5,-13.5 394.79,-24.89 425.17,-54.97 439.3,-70.56"/>
<polygon fill="#9a32cd" stroke="#9a32cd" points="272.94,-0.46 263.2,-4.64 273.42,-7.44 272.94,-0.46"/>
</a>
</g>
<text text-anchor="middle" x="327.75" y="-38.5" font-family="Helvetica,sans-Serif" font-size="10.00" fill="grey"> m_aSource</text>
<text text-anchor="middle" x="327.75" y="-27.25" font-family="Helvetica,sans-Serif" font-size="10.00" fill="grey">m_bSource</text>
<text text-anchor="middle" x="327.75" y="-16" font-family="Helvetica,sans-Serif" font-size="10.00" fill="grey">m_indexSource</text>
</g>
</g>
</svg>
