<?xml version="1.0" encoding="UTF-8" standalone="no"?>
<!DOCTYPE svg PUBLIC "-//W3C//DTD SVG 1.1//EN"
 "http://www.w3.org/Graphics/SVG/1.1/DTD/svg11.dtd">
<!-- Generated by graphviz version 9.0.0 (20230911.1827)
 -->
<!-- Title: edu.wpi.first.wpilibj.DutyCycle.getFPGAIndex Pages: 1 -->
<svg width="513pt" height="137pt"
 viewBox="0.00 0.00 512.75 136.50" xmlns="http://www.w3.org/2000/svg" xmlns:xlink="http://www.w3.org/1999/xlink">
<g id="graph0" class="graph" transform="scale(1 1) rotate(0) translate(4 132.5)">
<title>edu.wpi.first.wpilibj.DutyCycle.getFPGAIndex</title>
<!-- Node1 -->
<g id="Node000001" class="node">
<title>Node1</title>
<g id="a_Node000001"><a xlink:title=" ">
<polygon fill="#999999" stroke="#666666" points="504.75,-79.5 381.5,-79.5 381.5,-49 504.75,-49 504.75,-79.5"/>
<text text-anchor="start" x="389.5" y="-66" font-family="Helvetica,sans-Serif" font-size="10.00">edu.wpi.first.wpilibj.Duty</text>
<text text-anchor="middle" x="443.12" y="-54.75" font-family="Helvetica,sans-Serif" font-size="10.00">Cycle.getFPGAIndex</text>
</a>
</g>
</g>
<!-- Node2 -->
<g id="Node000002" class="node">
<title>Node2</title>
<g id="a_Node000002"><a xlink:href="classedu_1_1wpi_1_1first_1_1wpilibj_1_1_duty_cycle.html#a94ab9fca575af2aa8ffe06706cd09ed8" target="_top" xlink:title=" ">
<polygon fill="white" stroke="#666666" points="332.38,-128.5 209.12,-128.5 209.12,-98 332.38,-98 332.38,-128.5"/>
<text text-anchor="start" x="217.12" y="-115" font-family="Helvetica,sans-Serif" font-size="10.00">edu.wpi.first.wpilibj.Duty</text>
<text text-anchor="middle" x="270.75" y="-103.75" font-family="Helvetica,sans-Serif" font-size="10.00">Cycle.DutyCycle</text>
</a>
</g>
</g>
<!-- Node1&#45;&gt;Node2 -->
<g id="edge1_Node000001_Node000002" class="edge">
<title>Node1&#45;&gt;Node2</title>
<g id="a_edge1_Node000001_Node000002"><a xlink:title=" ">
<path fill="none" stroke="#63b8ff" d="M376.98,-82.98C360.32,-87.78 342.57,-92.88 326.49,-97.51"/>
<polygon fill="#63b8ff" stroke="#63b8ff" points="377.65,-86.43 386.29,-80.31 375.72,-79.71 377.65,-86.43"/>
</a>
</g>
</g>
<!-- Node3 -->
<g id="Node000003" class="node">
<title>Node3</title>
<g id="a_Node000003"><a xlink:href="classedu_1_1wpi_1_1first_1_1wpilibj_1_1simulation_1_1_duty_cycle_sim.html#a22c962cf4aceae4a455ae5aa058cbb9b" target="_top" xlink:title=" ">
<polygon fill="white" stroke="#666666" points="345.5,-79.5 196,-79.5 196,-49 345.5,-49 345.5,-79.5"/>
<text text-anchor="start" x="204" y="-66" font-family="Helvetica,sans-Serif" font-size="10.00">edu.wpi.first.wpilibj.simulation.</text>
<text text-anchor="middle" x="270.75" y="-54.75" font-family="Helvetica,sans-Serif" font-size="10.00">DutyCycleSim.DutyCycleSim</text>
</a>
</g>
</g>
<!-- Node1&#45;&gt;Node3 -->
<g id="edge2_Node000001_Node000003" class="edge">
<title>Node1&#45;&gt;Node3</title>
<g id="a_edge2_Node000001_Node000003"><a xlink:title=" ">
<path fill="none" stroke="#63b8ff" d="M369.65,-64.25C361.73,-64.25 353.67,-64.25 345.74,-64.25"/>
<polygon fill="#63b8ff" stroke="#63b8ff" points="369.58,-67.75 379.58,-64.25 369.58,-60.75 369.58,-67.75"/>
</a>
</g>
</g>
<!-- Node6 -->
<g id="Node000006" class="node">
<title>Node6</title>
<g id="a_Node000006"><a xlink:href="classedu_1_1wpi_1_1first_1_1wpilibj_1_1_duty_cycle_encoder.html#af8553932de2a0f3d972875572c0a2595" target="_top" xlink:title=" ">
<polygon fill="white" stroke="#666666" points="342.88,-30.5 198.62,-30.5 198.62,0 342.88,0 342.88,-30.5"/>
<text text-anchor="start" x="206.62" y="-17" font-family="Helvetica,sans-Serif" font-size="10.00">edu.wpi.first.wpilibj.Duty</text>
<text text-anchor="middle" x="270.75" y="-5.75" font-family="Helvetica,sans-Serif" font-size="10.00">CycleEncoder.getFPGAIndex</text>
</a>
</g>
</g>
<!-- Node1&#45;&gt;Node6 -->
<g id="edge5_Node000001_Node000006" class="edge">
<title>Node1&#45;&gt;Node6</title>
<g id="a_edge5_Node000001_Node000006"><a xlink:title=" ">
<path fill="none" stroke="#63b8ff" d="M376.98,-45.52C360.32,-40.72 342.57,-35.62 326.49,-30.99"/>
<polygon fill="#63b8ff" stroke="#63b8ff" points="375.72,-48.79 386.29,-48.19 377.65,-42.07 375.72,-48.79"/>
</a>
</g>
</g>
<!-- Node4 -->
<g id="Node000004" class="node">
<title>Node4</title>
<g id="a_Node000004"><a xlink:href="classedu_1_1wpi_1_1first_1_1wpilibj_1_1simulation_1_1_duty_cycle_sim.html#a6e47635847cd23d08395fd5299f15716" target="_top" xlink:title=" ">
<polygon fill="white" stroke="#666666" points="160,-104.5 0,-104.5 0,-74 160,-74 160,-104.5"/>
<text text-anchor="start" x="8" y="-91" font-family="Helvetica,sans-Serif" font-size="10.00">edu.wpi.first.wpilibj.simulation.</text>
<text text-anchor="middle" x="80" y="-79.75" font-family="Helvetica,sans-Serif" font-size="10.00">DutyCycleSim.createForChannel</text>
</a>
</g>
</g>
<!-- Node3&#45;&gt;Node4 -->
<g id="edge3_Node000003_Node000004" class="edge">
<title>Node3&#45;&gt;Node4</title>
<g id="a_edge3_Node000003_Node000004"><a xlink:title=" ">
<path fill="none" stroke="#63b8ff" d="M184.47,-75.55C176.47,-76.6 168.39,-77.68 160.45,-78.73"/>
<polygon fill="#63b8ff" stroke="#63b8ff" points="184.74,-79.04 194.19,-74.26 183.82,-72.1 184.74,-79.04"/>
</a>
</g>
</g>
<!-- Node5 -->
<g id="Node000005" class="node">
<title>Node5</title>
<g id="a_Node000005"><a xlink:href="classedu_1_1wpi_1_1first_1_1wpilibj_1_1simulation_1_1_duty_cycle_sim.html#a32e7a257be01dad1052eadd726fb8596" target="_top" xlink:title=" ">
<polygon fill="white" stroke="#666666" points="154.75,-55.5 5.25,-55.5 5.25,-25 154.75,-25 154.75,-55.5"/>
<text text-anchor="start" x="13.25" y="-42" font-family="Helvetica,sans-Serif" font-size="10.00">edu.wpi.first.wpilibj.simulation.</text>
<text text-anchor="middle" x="80" y="-30.75" font-family="Helvetica,sans-Serif" font-size="10.00">DutyCycleSim.createForIndex</text>
</a>
</g>
</g>
<!-- Node3&#45;&gt;Node5 -->
<g id="edge4_Node000003_Node000005" class="edge">
<title>Node3&#45;&gt;Node5</title>
<g id="a_edge4_Node000003_Node000005"><a xlink:title=" ">
<path fill="none" stroke="#63b8ff" d="M184.34,-53.39C174.6,-52.15 164.73,-50.9 155.15,-49.68"/>
<polygon fill="#63b8ff" stroke="#63b8ff" points="183.83,-56.85 194.19,-54.64 184.71,-49.91 183.83,-56.85"/>
</a>
</g>
</g>
</g>
</svg>
