<?xml version="1.0" encoding="UTF-8" standalone="no"?>
<!DOCTYPE svg PUBLIC "-//W3C//DTD SVG 1.1//EN"
 "http://www.w3.org/Graphics/SVG/1.1/DTD/svg11.dtd">
<!-- Generated by graphviz version 9.0.0 (20230911.1827)
 -->
<!-- Title: edu.wpi.first.wpilibj.ADXRS450_Gyro.ADXRS450_Gyro Pages: 1 -->
<!--zoomable 260 -->

<svg id="main" version="1.1" xmlns="http://www.w3.org/2000/svg" xmlns:xlink="http://www.w3.org/1999/xlink" xml:space="preserve" onload="init(evt)">
<style type="text/css"><![CDATA[
.node, .edge {opacity: 0.7;}
.node.selected, .edge.selected {opacity: 1;}
.edge:hover path { stroke: red; }
.edge:hover polygon { stroke: red; fill: red; }
]]></style>

<defs>
  <circle id="rim" cx="0" cy="0" r="7"/>
  <circle id="rim2" cx="0" cy="0" r="3.5"/>
  <g id="zoomPlus">
    <use xlink:href="#rim" fill="#404040"><set attributeName="fill" to="#808080" begin="zoomplus.mouseover" end="zoomplus.mouseout"/></use>
    <path d="M-4,0h8M0,-4v8" fill="none" stroke="white" stroke-width="1.5" pointer-events="none"/>
  </g>
  <g id="zoomMin">
    <use xlink:href="#rim" fill="#404040"><set attributeName="fill" to="#808080" begin="zoomminus.mouseover" end="zoomminus.mouseout"/></use>
    <path d="M-4,0h8" fill="none" stroke="white" stroke-width="1.5" pointer-events="none"/>
  </g>
  <g id="arrowUp" transform="translate(30 24)">
    <use xlink:href="#rim"/>
    <path pointer-events="none" fill="none" stroke="white" stroke-width="1.5" d="M0,-3.0v7 M-2.5,-0.5L0,-3.0L2.5,-0.5"/>
  </g>
  <g id="arrowRight" transform="rotate(90) translate(36 -43)">
    <use xlink:href="#rim"/>
    <path pointer-events="none" fill="none" stroke="white" stroke-width="1.5" d="M0,-3.0v7 M-2.5,-0.5L0,-3.0L2.5,-0.5"/>
  </g>
  <g id="arrowDown" transform="rotate(180) translate(-30 -48)">
    <use xlink:href="#rim"/>
    <path pointer-events="none" fill="none" stroke="white" stroke-width="1.5" d="M0,-3.0v7 M-2.5,-0.5L0,-3.0L2.5,-0.5"/>
  </g>
  <g id="arrowLeft" transform="rotate(270) translate(-36 17)">
    <use xlink:href="#rim"/>
    <path pointer-events="none" fill="none" stroke="white" stroke-width="1.5" d="M0,-3.0v7 M-2.5,-0.5L0,-3.0L2.5,-0.5"/>
  </g>
  <g id="resetDef">
    <use xlink:href="#rim2" fill="#404040"><set attributeName="fill" to="#808080" begin="reset.mouseover" end="reset.mouseout"/></use>
  </g>
</defs>
<script type="application/ecmascript">
var viewWidth = 547;
var viewHeight = 260;
var sectionId = 'dynsection-2';
</script>
<script type="application/ecmascript" xlink:href="svg.min.js"/>
<svg id="graph" class="graph">
<g id="viewport">
<title>edu.wpi.first.wpilibj.ADXRS450_Gyro.ADXRS450_Gyro</title>
<!-- Node1 -->
<g id="Node000001" class="node">
<title>Node1</title>
<g id="a_Node000001"><a xlink:title=" ">
<polygon fill="#999999" stroke="#666666" points="153.25,-116.88 0,-116.88 0,-86.38 153.25,-86.38 153.25,-116.88"/>
<text text-anchor="start" x="8" y="-103.38" font-family="Helvetica,sans-Serif" font-size="10.00">edu.wpi.first.wpilibj.ADXRS450</text>
<text text-anchor="middle" x="76.62" y="-92.12" font-family="Helvetica,sans-Serif" font-size="10.00">_Gyro.ADXRS450_Gyro</text>
</a>
</g>
</g>
<!-- Node2 -->
<g id="Node000002" class="node">
<title>Node2</title>
<g id="a_Node000002"><a xlink:href="classedu_1_1wpi_1_1first_1_1wpilibj_1_1_s_p_i.html#a8b5b7c1cfb5a46b1a56278f8d472448c" target="_top" xlink:title=" ">
<polygon fill="white" stroke="#666666" points="336.12,-214.88 201.62,-214.88 201.62,-184.38 336.12,-184.38 336.12,-214.88"/>
<text text-anchor="start" x="209.62" y="-201.38" font-family="Helvetica,sans-Serif" font-size="10.00">edu.wpi.first.wpilibj.SPI.init</text>
<text text-anchor="middle" x="268.88" y="-190.12" font-family="Helvetica,sans-Serif" font-size="10.00">Accumulator</text>
</a>
</g>
</g>
<!-- Node1&#45;&gt;Node2 -->
<g id="edge1_Node000001_Node000002" class="edge">
<title>Node1&#45;&gt;Node2</title>
<g id="a_edge1_Node000001_Node000002"><a xlink:title=" ">
<path fill="none" stroke="#63b8ff" d="M97.62,-117.11C119.23,-133.26 155.16,-158.43 189.25,-174.62 193.21,-176.51 197.35,-178.3 201.57,-179.99"/>
<polygon fill="#63b8ff" stroke="#63b8ff" points="200.15,-183.19 210.74,-183.46 202.63,-176.65 200.15,-183.19"/>
</a>
</g>
</g>
<!-- Node6 -->
<g id="Node000006" class="node">
<title>Node6</title>
<g id="a_Node000006"><a xlink:href="classedu_1_1wpi_1_1first_1_1wpilibj_1_1_driver_station.html#a40fcb0dd08778d829076cf9fcc8ab402" target="_top" xlink:title=" ">
<polygon fill="white" stroke="#666666" points="333.12,-165.88 204.62,-165.88 204.62,-135.38 333.12,-135.38 333.12,-165.88"/>
<text text-anchor="start" x="212.62" y="-152.38" font-family="Helvetica,sans-Serif" font-size="10.00">edu.wpi.first.wpilibj.Driver</text>
<text text-anchor="middle" x="268.88" y="-141.12" font-family="Helvetica,sans-Serif" font-size="10.00">Station.reportError</text>
</a>
</g>
</g>
<!-- Node1&#45;&gt;Node6 -->
<g id="edge5_Node000001_Node000006" class="edge">
<title>Node1&#45;&gt;Node6</title>
<g id="a_edge5_Node000001_Node000006"><a xlink:title=" ">
<path fill="none" stroke="#63b8ff" d="M138.61,-117.33C156.87,-122.03 177.07,-127.24 195.96,-132.1"/>
<polygon fill="#63b8ff" stroke="#63b8ff" points="194.89,-135.44 205.45,-134.55 196.64,-128.66 194.89,-135.44"/>
</a>
</g>
</g>
<!-- Node7 -->
<g id="Node000007" class="node">
<title>Node7</title>
<g id="a_Node000007"><a xlink:href="classedu_1_1wpi_1_1first_1_1wpilibj_1_1_s_p_i.html#a0bb120e12ca254d5e4de9f0f15744c8d" target="_top" xlink:title=" ">
<polygon fill="white" stroke="#666666" points="336.5,-116.88 201.25,-116.88 201.25,-86.38 336.5,-86.38 336.5,-116.88"/>
<text text-anchor="start" x="209.25" y="-103.38" font-family="Helvetica,sans-Serif" font-size="10.00">edu.wpi.first.wpilibj.SPI.set</text>
<text text-anchor="middle" x="268.88" y="-92.12" font-family="Helvetica,sans-Serif" font-size="10.00">ChipSelectActiveLow</text>
</a>
</g>
</g>
<!-- Node1&#45;&gt;Node7 -->
<g id="edge6_Node000001_Node000007" class="edge">
<title>Node1&#45;&gt;Node7</title>
<g id="a_edge6_Node000001_Node000007"><a xlink:title=" ">
<path fill="none" stroke="#63b8ff" d="M153.64,-101.62C165.48,-101.62 177.74,-101.62 189.63,-101.62"/>
<polygon fill="#63b8ff" stroke="#63b8ff" points="189.38,-105.13 199.38,-101.63 189.38,-98.13 189.38,-105.13"/>
</a>
</g>
</g>
<!-- Node8 -->
<g id="Node000008" class="node">
<title>Node8</title>
<g id="a_Node000008"><a xlink:href="classedu_1_1wpi_1_1first_1_1wpilibj_1_1_s_p_i.html#a45b42bd39ca2f63f45e4e14f9b84a0fd" target="_top" xlink:title=" ">
<polygon fill="white" stroke="#666666" points="336.5,-67.88 201.25,-67.88 201.25,-37.38 336.5,-37.38 336.5,-67.88"/>
<text text-anchor="start" x="209.25" y="-54.38" font-family="Helvetica,sans-Serif" font-size="10.00">edu.wpi.first.wpilibj.SPI.set</text>
<text text-anchor="middle" x="268.88" y="-43.12" font-family="Helvetica,sans-Serif" font-size="10.00">ClockRate</text>
</a>
</g>
</g>
<!-- Node1&#45;&gt;Node8 -->
<g id="edge7_Node000001_Node000008" class="edge">
<title>Node1&#45;&gt;Node8</title>
<g id="a_edge7_Node000001_Node000008"><a xlink:title=" ">
<path fill="none" stroke="#63b8ff" d="M138.61,-85.92C156.87,-81.22 177.07,-76.01 195.96,-71.15"/>
<polygon fill="#63b8ff" stroke="#63b8ff" points="196.64,-74.59 205.45,-68.7 194.89,-67.81 196.64,-74.59"/>
</a>
</g>
</g>
<!-- Node9 -->
<g id="Node000009" class="node">
<title>Node9</title>
<g id="a_Node000009"><a xlink:href="classedu_1_1wpi_1_1first_1_1wpilibj_1_1_s_p_i.html#a7977e9c075348c4428a0fb6766c09f57" target="_top" xlink:title=" ">
<polygon fill="white" stroke="#666666" points="348.5,-19.25 189.25,-19.25 189.25,0 348.5,0 348.5,-19.25"/>
<text text-anchor="middle" x="268.88" y="-5.75" font-family="Helvetica,sans-Serif" font-size="10.00">edu.wpi.first.wpilibj.SPI.setMode</text>
</a>
</g>
</g>
<!-- Node1&#45;&gt;Node9 -->
<g id="edge8_Node000001_Node000009" class="edge">
<title>Node1&#45;&gt;Node9</title>
<g id="a_edge8_Node000001_Node000009"><a xlink:title=" ">
<path fill="none" stroke="#63b8ff" d="M97.01,-85.96C118.39,-69.42 154.39,-43.7 189.25,-28.62 194.15,-26.51 199.32,-24.6 204.59,-22.89"/>
<polygon fill="#63b8ff" stroke="#63b8ff" points="205.43,-26.29 214.01,-20.07 203.42,-19.58 205.43,-26.29"/>
</a>
</g>
</g>
<!-- Node3 -->
<g id="Node000003" class="node">
<title>Node3</title>
<g id="a_Node000003"><a xlink:href="classedu_1_1wpi_1_1first_1_1wpilibj_1_1_s_p_i.html#a83f6e306bf3747492845a2087ef8c64d" target="_top" xlink:title=" ">
<polygon fill="white" stroke="#666666" points="539.25,-252.25 384.5,-252.25 384.5,-233 539.25,-233 539.25,-252.25"/>
<text text-anchor="middle" x="461.88" y="-238.75" font-family="Helvetica,sans-Serif" font-size="10.00">edu.wpi.first.wpilibj.SPI.initAuto</text>
</a>
</g>
</g>
<!-- Node2&#45;&gt;Node3 -->
<g id="edge2_Node000002_Node000003" class="edge">
<title>Node2&#45;&gt;Node3</title>
<g id="a_edge2_Node000002_Node000003"><a xlink:title=" ">
<path fill="none" stroke="#63b8ff" d="M336.41,-214.6C358.77,-219.64 383.47,-225.2 404.93,-230.03"/>
<polygon fill="#63b8ff" stroke="#63b8ff" points="404.15,-233.44 414.68,-232.22 405.69,-226.61 404.15,-233.44"/>
</a>
</g>
</g>
<!-- Node4 -->
<g id="Node000004" class="node">
<title>Node4</title>
<g id="a_Node000004"><a xlink:href="classedu_1_1wpi_1_1first_1_1wpilibj_1_1_s_p_i.html#a7057b307dd6cd3acf0732b851f4aacbe" target="_top" xlink:title=" ">
<polygon fill="white" stroke="#666666" points="529.5,-214.88 394.25,-214.88 394.25,-184.38 529.5,-184.38 529.5,-214.88"/>
<text text-anchor="start" x="402.25" y="-201.38" font-family="Helvetica,sans-Serif" font-size="10.00">edu.wpi.first.wpilibj.SPI.set</text>
<text text-anchor="middle" x="461.88" y="-190.12" font-family="Helvetica,sans-Serif" font-size="10.00">AutoTransmitData</text>
</a>
</g>
</g>
<!-- Node2&#45;&gt;Node4 -->
<g id="edge3_Node000002_Node000004" class="edge">
<title>Node2&#45;&gt;Node4</title>
<g id="a_edge3_Node000002_Node000004"><a xlink:title=" ">
<path fill="none" stroke="#63b8ff" d="M336.41,-199.62C351.4,-199.62 367.44,-199.62 382.85,-199.62"/>
<polygon fill="#63b8ff" stroke="#63b8ff" points="382.42,-203.13 392.42,-199.63 382.42,-196.13 382.42,-203.13"/>
</a>
</g>
</g>
<!-- Node5 -->
<g id="Node000005" class="node">
<title>Node5</title>
<g id="a_Node000005"><a xlink:href="classedu_1_1wpi_1_1first_1_1wpilibj_1_1_s_p_i.html#ade0f1e7bba2dc5f02cd08ab1f015541d" target="_top" xlink:title=" ">
<polygon fill="white" stroke="#666666" points="532.5,-165.88 391.25,-165.88 391.25,-135.38 532.5,-135.38 532.5,-165.88"/>
<text text-anchor="start" x="399.25" y="-152.38" font-family="Helvetica,sans-Serif" font-size="10.00">edu.wpi.first.wpilibj.SPI.start</text>
<text text-anchor="middle" x="461.88" y="-141.12" font-family="Helvetica,sans-Serif" font-size="10.00">AutoRate</text>
</a>
</g>
</g>
<!-- Node2&#45;&gt;Node5 -->
<g id="edge4_Node000002_Node000005" class="edge">
<title>Node2&#45;&gt;Node5</title>
<g id="a_edge4_Node000002_Node000005"><a xlink:title=" ">
<path fill="none" stroke="#63b8ff" d="M331.1,-183.92C349.43,-179.22 369.71,-174.01 388.68,-169.15"/>
<polygon fill="#63b8ff" stroke="#63b8ff" points="389.39,-172.58 398.21,-166.7 387.65,-165.8 389.39,-172.58"/>
</a>
</g>
</g>
</g>
</svg>

<g id="navigator" transform="translate(0 0)" fill="#404254">
  <rect fill="#f2f5e9" fill-opacity="0.5" stroke="#606060" stroke-width=".5" x="0" y="0" width="60" height="60"/>
  <use id="zoomplus" xlink:href="#zoomPlus" x="17" y="9" onmousedown="handleZoom(evt,'in')"/>
  <use id="zoomminus" xlink:href="#zoomMin" x="42" y="9" onmousedown="handleZoom(evt,'out')"/>
  <use id="reset" xlink:href="#resetDef" x="30" y="36" onmousedown="handleReset()"/>
   <use id="arrowup" xlink:href="#arrowUp" x="0" y="0" onmousedown="handlePan(0,-1)"/>
  <use id="arrowright" xlink:href="#arrowRight" x="0" y="0" onmousedown="handlePan(1,0)"/>
  <use id="arrowdown" xlink:href="#arrowDown" x="0" y="0" onmousedown="handlePan(0,1)"/>
  <use id="arrowleft" xlink:href="#arrowLeft" x="0" y="0" onmousedown="handlePan(-1,0)"/>
</g>
<svg viewBox="0 0 15 15" width="100%" height="30px" preserveAspectRatio="xMaxYMin meet">
 <g id="arrow_out" transform="scale(0.3 0.3)">
  <a xlink:href="classedu_1_1wpi_1_1first_1_1wpilibj_1_1_a_d_x_r_s450___gyro_a1a5a788a8335b5a7c06dff192449c31d_cgraph_org.svg" target="_base">
   <rect id="button" ry="5" rx="5" y="6" x="6" height="38" width="38"
        fill="#f2f5e9" fill-opacity="0.5" stroke="#606060" stroke-width="1.0"/>
   <path id="arrow"
     d="M 11.500037,31.436501 C 11.940474,20.09759 22.043105,11.32322 32.158766,21.979434 L 37.068811,17.246167 C 37.068811,17.246167 37.088388,32 37.088388,32 L 22.160133,31.978069 C 22.160133,31.978069 26.997745,27.140456 26.997745,27.140456 C 18.528582,18.264221 13.291696,25.230495 11.500037,31.436501 z"
     style="fill:#404040;"/>
  </a>
 </g>
</svg>

<style type='text/css'>
<![CDATA[
[data-mouse-over-selected='false'] { opacity: 0.7; }
[data-mouse-over-selected='true']  { opacity: 1.0; }
]]>
</style>
<script type="application/ecmascript"><![CDATA[
document.addEventListener('DOMContentLoaded', (event) => {
  highlightEdges();
  highlightAdjacentNodes();
});
]]></script>
</svg>
