<?xml version="1.0" encoding="UTF-8" standalone="no"?>
<!DOCTYPE svg PUBLIC "-//W3C//DTD SVG 1.1//EN"
 "http://www.w3.org/Graphics/SVG/1.1/DTD/svg11.dtd">
<!-- Generated by graphviz version 9.0.0 (20230911.1827)
 -->
<!-- Title: edu.wpi.first.wpilibj.Timer.getFPGATimestamp Pages: 1 -->
<!--zoomable 389 -->

<svg id="main" version="1.1" xmlns="http://www.w3.org/2000/svg" xmlns:xlink="http://www.w3.org/1999/xlink" xml:space="preserve" onload="init(evt)">
<style type="text/css"><![CDATA[
.node, .edge {opacity: 0.7;}
.node.selected, .edge.selected {opacity: 1;}
.edge:hover path { stroke: red; }
.edge:hover polygon { stroke: red; fill: red; }
]]></style>

<defs>
  <circle id="rim" cx="0" cy="0" r="7"/>
  <circle id="rim2" cx="0" cy="0" r="3.5"/>
  <g id="zoomPlus">
    <use xlink:href="#rim" fill="#404040"><set attributeName="fill" to="#808080" begin="zoomplus.mouseover" end="zoomplus.mouseout"/></use>
    <path d="M-4,0h8M0,-4v8" fill="none" stroke="white" stroke-width="1.5" pointer-events="none"/>
  </g>
  <g id="zoomMin">
    <use xlink:href="#rim" fill="#404040"><set attributeName="fill" to="#808080" begin="zoomminus.mouseover" end="zoomminus.mouseout"/></use>
    <path d="M-4,0h8" fill="none" stroke="white" stroke-width="1.5" pointer-events="none"/>
  </g>
  <g id="arrowUp" transform="translate(30 24)">
    <use xlink:href="#rim"/>
    <path pointer-events="none" fill="none" stroke="white" stroke-width="1.5" d="M0,-3.0v7 M-2.5,-0.5L0,-3.0L2.5,-0.5"/>
  </g>
  <g id="arrowRight" transform="rotate(90) translate(36 -43)">
    <use xlink:href="#rim"/>
    <path pointer-events="none" fill="none" stroke="white" stroke-width="1.5" d="M0,-3.0v7 M-2.5,-0.5L0,-3.0L2.5,-0.5"/>
  </g>
  <g id="arrowDown" transform="rotate(180) translate(-30 -48)">
    <use xlink:href="#rim"/>
    <path pointer-events="none" fill="none" stroke="white" stroke-width="1.5" d="M0,-3.0v7 M-2.5,-0.5L0,-3.0L2.5,-0.5"/>
  </g>
  <g id="arrowLeft" transform="rotate(270) translate(-36 17)">
    <use xlink:href="#rim"/>
    <path pointer-events="none" fill="none" stroke="white" stroke-width="1.5" d="M0,-3.0v7 M-2.5,-0.5L0,-3.0L2.5,-0.5"/>
  </g>
  <g id="resetDef">
    <use xlink:href="#rim2" fill="#404040"><set attributeName="fill" to="#808080" begin="reset.mouseover" end="reset.mouseout"/></use>
  </g>
</defs>
<script type="application/ecmascript">
var viewWidth = 751;
var viewHeight = 389;
var sectionId = 'dynsection-3';
</script>
<script type="application/ecmascript" xlink:href="svg.min.js"/>
<svg id="graph" class="graph">
<g id="viewport">
<title>edu.wpi.first.wpilibj.Timer.getFPGATimestamp</title>
<!-- Node1 -->
<g id="Node000001" class="node">
<title>Node1</title>
<g id="a_Node000001"><a xlink:title=" ">
<polygon fill="#999999" stroke="#666666" points="742.75,-171.5 600,-171.5 600,-141 742.75,-141 742.75,-171.5"/>
<text text-anchor="start" x="608" y="-158" font-family="Helvetica,sans-Serif" font-size="10.00">edu.wpi.first.wpilibj.Timer.get</text>
<text text-anchor="middle" x="671.38" y="-146.75" font-family="Helvetica,sans-Serif" font-size="10.00">FPGATimestamp</text>
</a>
</g>
</g>
<!-- Node2 -->
<g id="Node000002" class="node">
<title>Node2</title>
<g id="a_Node000002"><a xlink:href="classedu_1_1wpi_1_1first_1_1wpilibj_1_1_motor_safety.html#a378effe2109461036a883da6e4a86675" target="_top" xlink:title=" ">
<polygon fill="white" stroke="#666666" points="535.5,-300.5 408.5,-300.5 408.5,-270 535.5,-270 535.5,-300.5"/>
<text text-anchor="start" x="416.5" y="-287" font-family="Helvetica,sans-Serif" font-size="10.00">edu.wpi.first.wpilibj.Motor</text>
<text text-anchor="middle" x="472" y="-275.75" font-family="Helvetica,sans-Serif" font-size="10.00">Safety.check</text>
</a>
</g>
</g>
<!-- Node1&#45;&gt;Node2 -->
<g id="edge1_Node000001_Node000002" class="edge">
<title>Node1&#45;&gt;Node2</title>
<g id="a_edge1_Node000001_Node000002"><a xlink:title=" ">
<path fill="none" stroke="#63b8ff" d="M652.17,-180.49C632.87,-204.5 600.22,-240.59 564,-261.25 555.34,-266.19 545.64,-270.14 535.89,-273.28"/>
<polygon fill="#63b8ff" stroke="#63b8ff" points="654.77,-182.85 658.2,-172.82 649.27,-178.53 654.77,-182.85"/>
</a>
</g>
</g>
<!-- Node3 -->
<g id="Node000003" class="node">
<title>Node3</title>
<g id="a_Node000003"><a xlink:href="classedu_1_1wpi_1_1first_1_1wpilibj_1_1_watchdog.html#aacdc6efc6b79902319f7b07344298c49" target="_top" xlink:title=" ">
<polygon fill="white" stroke="#666666" points="560.62,-251.88 383.38,-251.88 383.38,-232.62 560.62,-232.62 560.62,-251.88"/>
<text text-anchor="middle" x="472" y="-238.38" font-family="Helvetica,sans-Serif" font-size="10.00">edu.wpi.first.wpilibj.Watchdog.enable</text>
</a>
</g>
</g>
<!-- Node1&#45;&gt;Node3 -->
<g id="edge2_Node000001_Node000003" class="edge">
<title>Node1&#45;&gt;Node3</title>
<g id="a_edge2_Node000001_Node000003"><a xlink:title=" ">
<path fill="none" stroke="#63b8ff" d="M641.26,-178.6C620.71,-193.35 591.95,-211.96 564,-223.25 555.17,-226.82 545.58,-229.75 536.04,-232.15"/>
<polygon fill="#63b8ff" stroke="#63b8ff" points="643.15,-181.56 649.16,-172.82 639.02,-175.91 643.15,-181.56"/>
</a>
</g>
</g>
<!-- Node6 -->
<g id="Node000006" class="node">
<title>Node6</title>
<g id="a_Node000006"><a xlink:href="classedu_1_1wpi_1_1first_1_1wpilibj_1_1_motor_safety.html#a1cf5b3c42e8b01f45af0004135ce0ef3" target="_top" xlink:title=" ">
<polygon fill="white" stroke="#666666" points="535.5,-214.5 408.5,-214.5 408.5,-184 535.5,-184 535.5,-214.5"/>
<text text-anchor="start" x="416.5" y="-201" font-family="Helvetica,sans-Serif" font-size="10.00">edu.wpi.first.wpilibj.Motor</text>
<text text-anchor="middle" x="472" y="-189.75" font-family="Helvetica,sans-Serif" font-size="10.00">Safety.feed</text>
</a>
</g>
</g>
<!-- Node1&#45;&gt;Node6 -->
<g id="edge5_Node000001_Node000006" class="edge">
<title>Node1&#45;&gt;Node6</title>
<g id="a_edge5_Node000001_Node000006"><a xlink:title=" ">
<path fill="none" stroke="#63b8ff" d="M588.81,-174.02C571.18,-177.86 552.79,-181.87 536,-185.53"/>
<polygon fill="#63b8ff" stroke="#63b8ff" points="589.17,-177.52 598.2,-171.97 587.68,-170.68 589.17,-177.52"/>
</a>
</g>
</g>
<!-- Node14 -->
<g id="Node000014" class="node">
<title>Node14</title>
<g id="a_Node000014"><a xlink:href="classedu_1_1wpi_1_1first_1_1wpilibj_1_1_watchdog.html#a651b0d80df35d997e47df83c15bc6b1b" target="_top" xlink:title=" ">
<polygon fill="white" stroke="#666666" points="564,-165.88 380,-165.88 380,-146.62 564,-146.62 564,-165.88"/>
<text text-anchor="middle" x="472" y="-152.38" font-family="Helvetica,sans-Serif" font-size="10.00">edu.wpi.first.wpilibj.Watchdog.getTime</text>
</a>
</g>
</g>
<!-- Node1&#45;&gt;Node14 -->
<g id="edge13_Node000001_Node000014" class="edge">
<title>Node1&#45;&gt;Node14</title>
<g id="a_edge13_Node000001_Node000014"><a xlink:title=" ">
<path fill="none" stroke="#63b8ff" d="M588.2,-156.25C580.27,-156.25 572.21,-156.25 564.2,-156.25"/>
<polygon fill="#63b8ff" stroke="#63b8ff" points="588.16,-159.75 598.16,-156.25 588.16,-152.75 588.16,-159.75"/>
</a>
</g>
</g>
<!-- Node15 -->
<g id="Node000015" class="node">
<title>Node15</title>
<g id="a_Node000015"><a xlink:href="classedu_1_1wpi_1_1first_1_1wpilibj_1_1_motor_safety.html#a846ee424c635e266f91aca1fdcef760f" target="_top" xlink:title=" ">
<polygon fill="white" stroke="#666666" points="535.5,-128.5 408.5,-128.5 408.5,-98 535.5,-98 535.5,-128.5"/>
<text text-anchor="start" x="416.5" y="-115" font-family="Helvetica,sans-Serif" font-size="10.00">edu.wpi.first.wpilibj.Motor</text>
<text text-anchor="middle" x="472" y="-103.75" font-family="Helvetica,sans-Serif" font-size="10.00">Safety.isAlive</text>
</a>
</g>
</g>
<!-- Node1&#45;&gt;Node15 -->
<g id="edge14_Node000001_Node000015" class="edge">
<title>Node1&#45;&gt;Node15</title>
<g id="a_edge14_Node000001_Node000015"><a xlink:title=" ">
<path fill="none" stroke="#63b8ff" d="M588.81,-138.48C571.18,-134.64 552.79,-130.63 536,-126.97"/>
<polygon fill="#63b8ff" stroke="#63b8ff" points="587.68,-141.82 598.2,-140.53 589.17,-134.98 587.68,-141.82"/>
</a>
</g>
</g>
<!-- Node16 -->
<g id="Node000016" class="node">
<title>Node16</title>
<g id="a_Node000016"><a xlink:href="classedu_1_1wpi_1_1first_1_1wpilibj_1_1_watchdog.html#a721d8b1a9ebc2ab5d11b1b3fddc2fd96" target="_top" xlink:title=" ">
<polygon fill="white" stroke="#666666" points="553.12,-79.5 390.88,-79.5 390.88,-49 553.12,-49 553.12,-79.5"/>
<text text-anchor="start" x="398.88" y="-66" font-family="Helvetica,sans-Serif" font-size="10.00">edu.wpi.first.wpilibj.Watchdog.set</text>
<text text-anchor="middle" x="472" y="-54.75" font-family="Helvetica,sans-Serif" font-size="10.00">Timeout</text>
</a>
</g>
</g>
<!-- Node1&#45;&gt;Node16 -->
<g id="edge15_Node000001_Node000016" class="edge">
<title>Node1&#45;&gt;Node16</title>
<g id="a_edge15_Node000001_Node000016"><a xlink:title=" ">
<path fill="none" stroke="#63b8ff" d="M640.64,-134.18C620.01,-119.72 591.41,-101.33 564,-89.25 556.05,-85.75 547.5,-82.62 538.92,-79.87"/>
<polygon fill="#63b8ff" stroke="#63b8ff" points="638.4,-136.88 648.58,-139.83 642.46,-131.18 638.4,-136.88"/>
</a>
</g>
</g>
<!-- Node17 -->
<g id="Node000017" class="node">
<title>Node17</title>
<g id="a_Node000017"><a xlink:href="classedu_1_1wpi_1_1first_1_1wpilibj_1_1_timed_robot.html#ad671bcbaca1d342efeb25c34dfdc7782" target="_top" xlink:title=" ">
<polygon fill="white" stroke="#666666" points="536.62,-30.5 407.38,-30.5 407.38,0 536.62,0 536.62,-30.5"/>
<text text-anchor="start" x="415.38" y="-17" font-family="Helvetica,sans-Serif" font-size="10.00">edu.wpi.first.wpilibj.Timed</text>
<text text-anchor="middle" x="472" y="-5.75" font-family="Helvetica,sans-Serif" font-size="10.00">Robot.TimedRobot</text>
</a>
</g>
</g>
<!-- Node1&#45;&gt;Node17 -->
<g id="edge16_Node000001_Node000017" class="edge">
<title>Node1&#45;&gt;Node17</title>
<g id="a_edge16_Node000001_Node000017"><a xlink:title=" ">
<path fill="none" stroke="#63b8ff" d="M653.87,-131.15C635.16,-104.67 602.25,-63.62 564,-40.25 555.75,-35.21 546.47,-31.17 537.07,-27.93"/>
<polygon fill="#63b8ff" stroke="#63b8ff" points="650.91,-133.02 659.46,-139.27 656.67,-129.05 650.91,-133.02"/>
</a>
</g>
</g>
<!-- Node4 -->
<g id="Node000004" class="node">
<title>Node4</title>
<g id="a_Node000004"><a xlink:href="classedu_1_1wpi_1_1first_1_1wpilibj_1_1_watchdog.html#afbebfdef0304b43e207e20d43cfba7bb" target="_top" xlink:title=" ">
<polygon fill="white" stroke="#666666" points="344,-374.88 173.5,-374.88 173.5,-355.62 344,-355.62 344,-374.88"/>
<text text-anchor="middle" x="258.75" y="-361.38" font-family="Helvetica,sans-Serif" font-size="10.00">edu.wpi.first.wpilibj.Watchdog.reset</text>
</a>
</g>
</g>
<!-- Node3&#45;&gt;Node4 -->
<g id="edge3_Node000003_Node000004" class="edge">
<title>Node3&#45;&gt;Node4</title>
<g id="a_edge3_Node000003_Node000004"><a xlink:title=" ">
<path fill="none" stroke="#63b8ff" d="M384.67,-257.77C383.06,-258.86 381.5,-260.02 380,-261.25 348.31,-287.3 375.48,-319.95 344,-346.25 339.74,-349.81 334.96,-352.73 329.88,-355.14"/>
<polygon fill="#63b8ff" stroke="#63b8ff" points="386.1,-260.98 393.08,-253.01 382.65,-254.89 386.1,-260.98"/>
</a>
</g>
</g>
<!-- Node5 -->
<g id="Node000005" class="node">
<title>Node5</title>
<g id="a_Node000005"><a xlink:href="classedu_1_1wpi_1_1first_1_1wpilibj_1_1_iterative_robot_base.html#aac5c45d7130bce188e0f9278075e8891" target="_top" xlink:title=" ">
<polygon fill="white" stroke="#666666" points="137.5,-380.5 0,-380.5 0,-350 137.5,-350 137.5,-380.5"/>
<text text-anchor="start" x="8" y="-367" font-family="Helvetica,sans-Serif" font-size="10.00">edu.wpi.first.wpilibj.Iterative</text>
<text text-anchor="middle" x="68.75" y="-355.75" font-family="Helvetica,sans-Serif" font-size="10.00">RobotBase.loopFunc</text>
</a>
</g>
</g>
<!-- Node4&#45;&gt;Node5 -->
<g id="edge4_Node000004_Node000005" class="edge">
<title>Node4&#45;&gt;Node5</title>
<g id="a_edge4_Node000004_Node000005"><a xlink:title=" ">
<path fill="none" stroke="#63b8ff" d="M161.73,-365.25C153.68,-365.25 145.65,-365.25 137.88,-365.25"/>
<polygon fill="#63b8ff" stroke="#63b8ff" points="161.59,-368.75 171.59,-365.25 161.59,-361.75 161.59,-368.75"/>
</a>
</g>
</g>
<!-- Node7 -->
<g id="Node000007" class="node">
<title>Node7</title>
<g id="a_Node000007"><a xlink:href="classedu_1_1wpi_1_1first_1_1wpilibj_1_1drive_1_1_differential_drive.html#ac127c082834f02d435b1da69e221221e" target="_top" xlink:title=" ">
<polygon fill="white" stroke="#666666" points="329.75,-337.5 187.75,-337.5 187.75,-307 329.75,-307 329.75,-337.5"/>
<text text-anchor="start" x="195.75" y="-324" font-family="Helvetica,sans-Serif" font-size="10.00">edu.wpi.first.wpilibj.drive.</text>
<text text-anchor="middle" x="258.75" y="-312.75" font-family="Helvetica,sans-Serif" font-size="10.00">DifferentialDrive.arcadeDrive</text>
</a>
</g>
</g>
<!-- Node6&#45;&gt;Node7 -->
<g id="edge6_Node000006_Node000007" class="edge">
<title>Node6&#45;&gt;Node7</title>
<g id="a_edge6_Node000006_Node000007"><a xlink:title=" ">
<path fill="none" stroke="#63b8ff" d="M397.96,-212.25C391.5,-215.21 385.38,-218.82 380,-223.25 351.74,-246.47 371.9,-273.6 344,-297.25 339.69,-300.9 334.87,-304.02 329.78,-306.68"/>
<polygon fill="#63b8ff" stroke="#63b8ff" points="398.92,-215.64 406.92,-208.69 396.33,-209.13 398.92,-215.64"/>
</a>
</g>
</g>
<!-- Node8 -->
<g id="Node000008" class="node">
<title>Node8</title>
<g id="a_Node000008"><a xlink:href="classedu_1_1wpi_1_1first_1_1wpilibj_1_1drive_1_1_differential_drive.html#aa26c304f5d903f8a042548e4b339dbd9" target="_top" xlink:title=" ">
<polygon fill="white" stroke="#666666" points="335.38,-288.5 182.12,-288.5 182.12,-258 335.38,-258 335.38,-288.5"/>
<text text-anchor="start" x="190.12" y="-275" font-family="Helvetica,sans-Serif" font-size="10.00">edu.wpi.first.wpilibj.drive.</text>
<text text-anchor="middle" x="258.75" y="-263.75" font-family="Helvetica,sans-Serif" font-size="10.00">DifferentialDrive.curvatureDrive</text>
</a>
</g>
</g>
<!-- Node6&#45;&gt;Node8 -->
<g id="edge7_Node000006_Node000008" class="edge">
<title>Node6&#45;&gt;Node8</title>
<g id="a_edge7_Node000006_Node000008"><a xlink:title=" ">
<path fill="none" stroke="#63b8ff" d="M397.44,-216.24C391.45,-218.35 385.56,-220.68 380,-223.25 362.31,-231.41 361.56,-239.82 344,-248.25 336.71,-251.75 328.83,-254.87 320.91,-257.62"/>
<polygon fill="#63b8ff" stroke="#63b8ff" points="398.45,-219.6 406.87,-213.16 396.27,-212.94 398.45,-219.6"/>
</a>
</g>
</g>
<!-- Node9 -->
<g id="Node000009" class="node">
<title>Node9</title>
<g id="a_Node000009"><a xlink:href="classedu_1_1wpi_1_1first_1_1wpilibj_1_1drive_1_1_mecanum_drive.html#a346448c6268f5e7eac322b055d9544d4" target="_top" xlink:title=" ">
<polygon fill="white" stroke="#666666" points="332.75,-239.5 184.75,-239.5 184.75,-209 332.75,-209 332.75,-239.5"/>
<text text-anchor="start" x="192.75" y="-226" font-family="Helvetica,sans-Serif" font-size="10.00">edu.wpi.first.wpilibj.drive.</text>
<text text-anchor="middle" x="258.75" y="-214.75" font-family="Helvetica,sans-Serif" font-size="10.00">MecanumDrive.driveCartesian</text>
</a>
</g>
</g>
<!-- Node6&#45;&gt;Node9 -->
<g id="edge8_Node000006_Node000009" class="edge">
<title>Node6&#45;&gt;Node9</title>
<g id="a_edge8_Node000006_Node000009"><a xlink:title=" ">
<path fill="none" stroke="#63b8ff" d="M396.9,-208.02C376.21,-210.47 353.75,-213.13 333.1,-215.57"/>
<polygon fill="#63b8ff" stroke="#63b8ff" points="397.17,-211.51 406.69,-206.86 396.34,-204.56 397.17,-211.51"/>
</a>
</g>
</g>
<!-- Node10 -->
<g id="Node000010" class="node">
<title>Node10</title>
<g id="a_Node000010"><a xlink:href="classedu_1_1wpi_1_1first_1_1wpilibj_1_1drive_1_1_robot_drive_base.html#a1ec69d1094ba16beb8fa50383608b969" target="_top" xlink:title=" ">
<polygon fill="white" stroke="#666666" points="335.38,-190.5 182.12,-190.5 182.12,-160 335.38,-160 335.38,-190.5"/>
<text text-anchor="start" x="190.12" y="-177" font-family="Helvetica,sans-Serif" font-size="10.00">edu.wpi.first.wpilibj.drive.</text>
<text text-anchor="middle" x="258.75" y="-165.75" font-family="Helvetica,sans-Serif" font-size="10.00">RobotDriveBase.feedWatchdog</text>
</a>
</g>
</g>
<!-- Node6&#45;&gt;Node10 -->
<g id="edge9_Node000006_Node000010" class="edge">
<title>Node6&#45;&gt;Node10</title>
<g id="a_edge9_Node000006_Node000010"><a xlink:title=" ">
<path fill="none" stroke="#63b8ff" d="M396.76,-190.82C377,-188.57 355.62,-186.14 335.76,-183.89"/>
<polygon fill="#63b8ff" stroke="#63b8ff" points="396.35,-194.29 406.69,-191.94 397.15,-187.34 396.35,-194.29"/>
</a>
</g>
</g>
<!-- Node11 -->
<g id="Node000011" class="node">
<title>Node11</title>
<g id="a_Node000011"><a xlink:href="classedu_1_1wpi_1_1first_1_1wpilibj_1_1drive_1_1_differential_drive.html#ae0a416b71c085dccbe717fb72164b6bf" target="_top" xlink:title=" ">
<polygon fill="white" stroke="#666666" points="325.25,-141.5 192.25,-141.5 192.25,-111 325.25,-111 325.25,-141.5"/>
<text text-anchor="start" x="200.25" y="-128" font-family="Helvetica,sans-Serif" font-size="10.00">edu.wpi.first.wpilibj.drive.</text>
<text text-anchor="middle" x="258.75" y="-116.75" font-family="Helvetica,sans-Serif" font-size="10.00">DifferentialDrive.stopMotor</text>
</a>
</g>
</g>
<!-- Node6&#45;&gt;Node11 -->
<g id="edge10_Node000006_Node000011" class="edge">
<title>Node6&#45;&gt;Node11</title>
<g id="a_edge10_Node000006_Node000011"><a xlink:title=" ">
<path fill="none" stroke="#63b8ff" d="M397.5,-182.14C391.49,-180.06 385.59,-177.76 380,-175.25 362.46,-167.36 361.41,-159.41 344,-151.25 336.54,-147.75 328.48,-144.62 320.4,-141.85"/>
<polygon fill="#63b8ff" stroke="#63b8ff" points="396.34,-185.45 406.93,-185.2 398.5,-178.79 396.34,-185.45"/>
</a>
</g>
</g>
<!-- Node12 -->
<g id="Node000012" class="node">
<title>Node12</title>
<g id="a_Node000012"><a xlink:href="classedu_1_1wpi_1_1first_1_1wpilibj_1_1drive_1_1_mecanum_drive.html#a705384b17e708185aaff6f931f68c8ff" target="_top" xlink:title=" ">
<polygon fill="white" stroke="#666666" points="323,-92.5 194.5,-92.5 194.5,-62 323,-62 323,-92.5"/>
<text text-anchor="start" x="202.5" y="-79" font-family="Helvetica,sans-Serif" font-size="10.00">edu.wpi.first.wpilibj.drive.</text>
<text text-anchor="middle" x="258.75" y="-67.75" font-family="Helvetica,sans-Serif" font-size="10.00">MecanumDrive.stopMotor</text>
</a>
</g>
</g>
<!-- Node6&#45;&gt;Node12 -->
<g id="edge11_Node000006_Node000012" class="edge">
<title>Node6&#45;&gt;Node12</title>
<g id="a_edge11_Node000006_Node000012"><a xlink:title=" ">
<path fill="none" stroke="#63b8ff" d="M397.98,-186.22C391.52,-183.27 385.4,-179.66 380,-175.25 351.99,-152.36 371.66,-125.57 344,-102.25 337.93,-97.14 330.86,-93.07 323.43,-89.83"/>
<polygon fill="#63b8ff" stroke="#63b8ff" points="396.36,-189.34 406.95,-189.77 398.94,-182.83 396.36,-189.34"/>
</a>
</g>
</g>
<!-- Node13 -->
<g id="Node000013" class="node">
<title>Node13</title>
<g id="a_Node000013"><a xlink:href="classedu_1_1wpi_1_1first_1_1wpilibj_1_1drive_1_1_differential_drive.html#a9de9fe4f7b51d1e79f93cfc326391917" target="_top" xlink:title=" ">
<polygon fill="white" stroke="#666666" points="324.5,-43.5 193,-43.5 193,-13 324.5,-13 324.5,-43.5"/>
<text text-anchor="start" x="201" y="-30" font-family="Helvetica,sans-Serif" font-size="10.00">edu.wpi.first.wpilibj.drive.</text>
<text text-anchor="middle" x="258.75" y="-18.75" font-family="Helvetica,sans-Serif" font-size="10.00">DifferentialDrive.tankDrive</text>
</a>
</g>
</g>
<!-- Node6&#45;&gt;Node13 -->
<g id="edge12_Node000006_Node000013" class="edge">
<title>Node6&#45;&gt;Node13</title>
<g id="a_edge12_Node000006_Node000013"><a xlink:title=" ">
<path fill="none" stroke="#63b8ff" d="M397.74,-187.43C391.22,-184.25 385.15,-180.26 380,-175.25 339.45,-135.86 383.94,-93.26 344,-53.25 338.5,-47.74 331.85,-43.44 324.72,-40.08"/>
<polygon fill="#63b8ff" stroke="#63b8ff" points="396.3,-190.63 406.88,-191.21 398.98,-184.16 396.3,-190.63"/>
</a>
</g>
</g>
</g>
</svg>

<g id="navigator" transform="translate(0 0)" fill="#404254">
  <rect fill="#f2f5e9" fill-opacity="0.5" stroke="#606060" stroke-width=".5" x="0" y="0" width="60" height="60"/>
  <use id="zoomplus" xlink:href="#zoomPlus" x="17" y="9" onmousedown="handleZoom(evt,'in')"/>
  <use id="zoomminus" xlink:href="#zoomMin" x="42" y="9" onmousedown="handleZoom(evt,'out')"/>
  <use id="reset" xlink:href="#resetDef" x="30" y="36" onmousedown="handleReset()"/>
   <use id="arrowup" xlink:href="#arrowUp" x="0" y="0" onmousedown="handlePan(0,-1)"/>
  <use id="arrowright" xlink:href="#arrowRight" x="0" y="0" onmousedown="handlePan(1,0)"/>
  <use id="arrowdown" xlink:href="#arrowDown" x="0" y="0" onmousedown="handlePan(0,1)"/>
  <use id="arrowleft" xlink:href="#arrowLeft" x="0" y="0" onmousedown="handlePan(-1,0)"/>
</g>
<svg viewBox="0 0 15 15" width="100%" height="30px" preserveAspectRatio="xMaxYMin meet">
 <g id="arrow_out" transform="scale(0.3 0.3)">
  <a xlink:href="classedu_1_1wpi_1_1first_1_1wpilibj_1_1_timer_a554f331c3b4645ee279bab8974cf21af_icgraph_org.svg" target="_base">
   <rect id="button" ry="5" rx="5" y="6" x="6" height="38" width="38"
        fill="#f2f5e9" fill-opacity="0.5" stroke="#606060" stroke-width="1.0"/>
   <path id="arrow"
     d="M 11.500037,31.436501 C 11.940474,20.09759 22.043105,11.32322 32.158766,21.979434 L 37.068811,17.246167 C 37.068811,17.246167 37.088388,32 37.088388,32 L 22.160133,31.978069 C 22.160133,31.978069 26.997745,27.140456 26.997745,27.140456 C 18.528582,18.264221 13.291696,25.230495 11.500037,31.436501 z"
     style="fill:#404040;"/>
  </a>
 </g>
</svg>

<style type='text/css'>
<![CDATA[
[data-mouse-over-selected='false'] { opacity: 0.7; }
[data-mouse-over-selected='true']  { opacity: 1.0; }
]]>
</style>
<script type="application/ecmascript"><![CDATA[
document.addEventListener('DOMContentLoaded', (event) => {
  highlightEdges();
  highlightAdjacentNodes();
});
]]></script>
</svg>
