<?xml version="1.0" encoding="UTF-8" standalone="no"?>
<!DOCTYPE svg PUBLIC "-//W3C//DTD SVG 1.1//EN"
 "http://www.w3.org/Graphics/SVG/1.1/DTD/svg11.dtd">
<!-- Generated by graphviz version 9.0.0 (20230911.1827)
 -->
<!-- Title: edu.wpi.first.wpilibj.XboxController.rightTrigger Pages: 1 -->
<svg width="652pt" height="39pt"
 viewBox="0.00 0.00 651.75 38.50" xmlns="http://www.w3.org/2000/svg" xmlns:xlink="http://www.w3.org/1999/xlink">
<g id="graph0" class="graph" transform="scale(1 1) rotate(0) translate(4 34.5)">
<title>edu.wpi.first.wpilibj.XboxController.rightTrigger</title>
<!-- Node1 -->
<g id="Node000001" class="node">
<title>Node1</title>
<g id="a_Node000001"><a xlink:title=" ">
<polygon fill="#999999" stroke="#666666" points="124.75,-30.5 0,-30.5 0,0 124.75,0 124.75,-30.5"/>
<text text-anchor="start" x="8" y="-17" font-family="Helvetica,sans-Serif" font-size="10.00">edu.wpi.first.wpilibj.Xbox</text>
<text text-anchor="middle" x="62.38" y="-5.75" font-family="Helvetica,sans-Serif" font-size="10.00">Controller.rightTrigger</text>
</a>
</g>
</g>
<!-- Node2 -->
<g id="Node000002" class="node">
<title>Node2</title>
<g id="a_Node000002"><a xlink:href="classedu_1_1wpi_1_1first_1_1wpilibj_1_1_xbox_controller.html#a3a62824bf5180a83ed6b0f70f15c2490" target="_top" xlink:title=" ">
<polygon fill="white" stroke="#666666" points="307.25,-30.5 160.75,-30.5 160.75,0 307.25,0 307.25,-30.5"/>
<text text-anchor="start" x="168.75" y="-17" font-family="Helvetica,sans-Serif" font-size="10.00">edu.wpi.first.wpilibj.Xbox</text>
<text text-anchor="middle" x="234" y="-5.75" font-family="Helvetica,sans-Serif" font-size="10.00">Controller.getRightTriggerAxis</text>
</a>
</g>
</g>
<!-- Node1&#45;&gt;Node2 -->
<g id="edge1_Node000001_Node000002" class="edge">
<title>Node1&#45;&gt;Node2</title>
<g id="a_edge1_Node000001_Node000002"><a xlink:title=" ">
<path fill="none" stroke="#63b8ff" d="M125.09,-15.25C132.88,-15.25 140.96,-15.25 149.02,-15.25"/>
<polygon fill="#63b8ff" stroke="#63b8ff" points="148.86,-18.75 158.86,-15.25 148.86,-11.75 148.86,-18.75"/>
</a>
</g>
</g>
<!-- Node3 -->
<g id="Node000003" class="node">
<title>Node3</title>
<g id="a_Node000003"><a xlink:href="classedu_1_1wpi_1_1first_1_1wpilibj_1_1_generic_h_i_d.html#a561e13532e9305a057a3b02cc655833c" target="_top" xlink:title=" ">
<polygon fill="white" stroke="#666666" points="479.25,-30.5 343.25,-30.5 343.25,0 479.25,0 479.25,-30.5"/>
<text text-anchor="start" x="351.25" y="-17" font-family="Helvetica,sans-Serif" font-size="10.00">edu.wpi.first.wpilibj.Generic</text>
<text text-anchor="middle" x="411.25" y="-5.75" font-family="Helvetica,sans-Serif" font-size="10.00">HID.getRawAxis</text>
</a>
</g>
</g>
<!-- Node2&#45;&gt;Node3 -->
<g id="edge2_Node000002_Node000003" class="edge">
<title>Node2&#45;&gt;Node3</title>
<g id="a_edge2_Node000002_Node000003"><a xlink:title=" ">
<path fill="none" stroke="#63b8ff" d="M307.55,-15.25C315.39,-15.25 323.4,-15.25 331.32,-15.25"/>
<polygon fill="#63b8ff" stroke="#63b8ff" points="331.3,-18.75 341.3,-15.25 331.3,-11.75 331.3,-18.75"/>
</a>
</g>
</g>
<!-- Node4 -->
<g id="Node000004" class="node">
<title>Node4</title>
<g id="a_Node000004"><a xlink:href="classedu_1_1wpi_1_1first_1_1wpilibj_1_1_driver_station.html#af9606114345715ee1577c2b0c66a070c" target="_top" xlink:title=" ">
<polygon fill="white" stroke="#666666" points="643.75,-30.5 515.25,-30.5 515.25,0 643.75,0 643.75,-30.5"/>
<text text-anchor="start" x="523.25" y="-17" font-family="Helvetica,sans-Serif" font-size="10.00">edu.wpi.first.wpilibj.Driver</text>
<text text-anchor="middle" x="579.5" y="-5.75" font-family="Helvetica,sans-Serif" font-size="10.00">Station.getStickAxis</text>
</a>
</g>
</g>
<!-- Node3&#45;&gt;Node4 -->
<g id="edge3_Node000003_Node000004" class="edge">
<title>Node3&#45;&gt;Node4</title>
<g id="a_edge3_Node000003_Node000004"><a xlink:title=" ">
<path fill="none" stroke="#63b8ff" d="M479.39,-15.25C487.35,-15.25 495.52,-15.25 503.58,-15.25"/>
<polygon fill="#63b8ff" stroke="#63b8ff" points="503.37,-18.75 513.37,-15.25 503.37,-11.75 503.37,-18.75"/>
</a>
</g>
</g>
</g>
</svg>
