<?xml version="1.0" encoding="UTF-8" standalone="no"?>
<!DOCTYPE svg PUBLIC "-//W3C//DTD SVG 1.1//EN"
 "http://www.w3.org/Graphics/SVG/1.1/DTD/svg11.dtd">
<!-- Generated by graphviz version 9.0.0 (20230911.1827)
 -->
<!-- Title: edu.wpi.first.wpilibj.Counter.setUpSource Pages: 1 -->
<svg width="349pt" height="235pt"
 viewBox="0.00 0.00 349.00 234.50" xmlns="http://www.w3.org/2000/svg" xmlns:xlink="http://www.w3.org/1999/xlink">

<svg id="main" version="1.1" xmlns="http://www.w3.org/2000/svg" xmlns:xlink="http://www.w3.org/1999/xlink" xml:space="preserve" onload="init(evt)">
<style type="text/css"><![CDATA[
.node, .edge {opacity: 0.7;}
.node.selected, .edge.selected {opacity: 1;}
.edge:hover path { stroke: red; }
.edge:hover polygon { stroke: red; fill: red; }
]]></style>
<script type="application/ecmascript" xlink:href="svg.min.js"/>
<svg id="graph" class="graph">
<g id="graph0" class="graph" transform="scale(1 1) rotate(0) translate(4 230.5)">
<title>edu.wpi.first.wpilibj.Counter.setUpSource</title>
<!-- Node1 -->
<g id="Node000001" class="node">
<title>Node1</title>
<g id="a_Node000001"><a xlink:title=" ">
<polygon fill="#999999" stroke="#666666" points="341,-128.5 188.5,-128.5 188.5,-98 341,-98 341,-128.5"/>
<text text-anchor="start" x="196.5" y="-115" font-family="Helvetica,sans-Serif" font-size="10.00">edu.wpi.first.wpilibj.Counter.set</text>
<text text-anchor="middle" x="264.75" y="-103.75" font-family="Helvetica,sans-Serif" font-size="10.00">UpSource</text>
</a>
</g>
</g>
<!-- Node1&#45;&gt;Node1 -->
<g id="edge6_Node000001_Node000001" class="edge">
<title>Node1&#45;&gt;Node1</title>
<g id="a_edge6_Node000001_Node000001"><a xlink:title=" ">
<path fill="none" stroke="#63b8ff" d="M296.36,-140.2C291.19,-143.97 280.66,-146.5 264.75,-146.5 235.67,-146.5 224.53,-138.06 231.35,-128.99"/>
<polygon fill="#63b8ff" stroke="#63b8ff" points="299.79,-140.91 297.91,-130.48 292.88,-139.8 299.79,-140.91"/>
</a>
</g>
</g>
<!-- Node2 -->
<g id="Node000002" class="node">
<title>Node2</title>
<g id="a_Node000002"><a xlink:href="classedu_1_1wpi_1_1first_1_1wpilibj_1_1_counter.html#a7f86f132a72008437c357f50abe278ca" target="_top" xlink:title=" ">
<polygon fill="white" stroke="#666666" points="145.75,-226.5 6.75,-226.5 6.75,-196 145.75,-196 145.75,-226.5"/>
<text text-anchor="start" x="14.75" y="-213" font-family="Helvetica,sans-Serif" font-size="10.00">edu.wpi.first.wpilibj.Counter.</text>
<text text-anchor="middle" x="76.25" y="-201.75" font-family="Helvetica,sans-Serif" font-size="10.00">Counter</text>
</a>
</g>
</g>
<!-- Node1&#45;&gt;Node2 -->
<g id="edge1_Node000001_Node000002" class="edge">
<title>Node1&#45;&gt;Node2</title>
<g id="a_edge1_Node000001_Node000002"><a xlink:title=" ">
<path fill="none" stroke="#63b8ff" d="M234.37,-135.58C212.64,-151.32 181.84,-172.05 152.5,-186.25 145.44,-189.67 137.79,-192.8 130.17,-195.61"/>
<polygon fill="#63b8ff" stroke="#63b8ff" points="236.18,-138.59 242.17,-129.85 232.04,-132.95 236.18,-138.59"/>
</a>
</g>
</g>
<!-- Node3 -->
<g id="Node000003" class="node">
<title>Node3</title>
<g id="a_Node000003"><a xlink:href="classedu_1_1wpi_1_1first_1_1wpilibj_1_1_counter.html#a07af0eced57fc1ea31355bb920200bf6" target="_top" xlink:title=" ">
<polygon fill="white" stroke="#666666" points="145.75,-177.5 6.75,-177.5 6.75,-147 145.75,-147 145.75,-177.5"/>
<text text-anchor="start" x="14.75" y="-164" font-family="Helvetica,sans-Serif" font-size="10.00">edu.wpi.first.wpilibj.Counter.</text>
<text text-anchor="middle" x="76.25" y="-152.75" font-family="Helvetica,sans-Serif" font-size="10.00">Counter</text>
</a>
</g>
</g>
<!-- Node1&#45;&gt;Node3 -->
<g id="edge2_Node000001_Node000003" class="edge">
<title>Node1&#45;&gt;Node3</title>
<g id="a_edge2_Node000001_Node000003"><a xlink:title=" ">
<path fill="none" stroke="#63b8ff" d="M192.98,-131.84C174.53,-136.69 154.83,-141.87 137.01,-146.55"/>
<polygon fill="#63b8ff" stroke="#63b8ff" points="193.72,-135.27 202.51,-129.34 191.95,-128.5 193.72,-135.27"/>
</a>
</g>
</g>
<!-- Node4 -->
<g id="Node000004" class="node">
<title>Node4</title>
<g id="a_Node000004"><a xlink:href="classedu_1_1wpi_1_1first_1_1wpilibj_1_1_counter.html#a19e811112cb6a0e65fb081ab5f2299a4" target="_top" xlink:title=" ">
<polygon fill="white" stroke="#666666" points="145.75,-128.5 6.75,-128.5 6.75,-98 145.75,-98 145.75,-128.5"/>
<text text-anchor="start" x="14.75" y="-115" font-family="Helvetica,sans-Serif" font-size="10.00">edu.wpi.first.wpilibj.Counter.</text>
<text text-anchor="middle" x="76.25" y="-103.75" font-family="Helvetica,sans-Serif" font-size="10.00">Counter</text>
</a>
</g>
</g>
<!-- Node1&#45;&gt;Node4 -->
<g id="edge3_Node000001_Node000004" class="edge">
<title>Node1&#45;&gt;Node4</title>
<g id="a_edge3_Node000001_Node000004"><a xlink:title=" ">
<path fill="none" stroke="#63b8ff" d="M176.97,-113.25C166.59,-113.25 156.1,-113.25 146.03,-113.25"/>
<polygon fill="#63b8ff" stroke="#63b8ff" points="176.65,-116.75 186.65,-113.25 176.65,-109.75 176.65,-116.75"/>
</a>
</g>
</g>
<!-- Node5 -->
<g id="Node000005" class="node">
<title>Node5</title>
<g id="a_Node000005"><a xlink:href="classedu_1_1wpi_1_1first_1_1wpilibj_1_1_counter.html#a741447d17b02cd9feede178d0ee0b273" target="_top" xlink:title=" ">
<polygon fill="white" stroke="#666666" points="145.75,-79.5 6.75,-79.5 6.75,-49 145.75,-49 145.75,-79.5"/>
<text text-anchor="start" x="14.75" y="-66" font-family="Helvetica,sans-Serif" font-size="10.00">edu.wpi.first.wpilibj.Counter.</text>
<text text-anchor="middle" x="76.25" y="-54.75" font-family="Helvetica,sans-Serif" font-size="10.00">Counter</text>
</a>
</g>
</g>
<!-- Node1&#45;&gt;Node5 -->
<g id="edge4_Node000001_Node000005" class="edge">
<title>Node1&#45;&gt;Node5</title>
<g id="a_edge4_Node000001_Node000005"><a xlink:title=" ">
<path fill="none" stroke="#63b8ff" d="M192.98,-94.66C174.53,-89.81 154.83,-84.63 137.01,-79.95"/>
<polygon fill="#63b8ff" stroke="#63b8ff" points="191.95,-98 202.51,-97.16 193.72,-91.23 191.95,-98"/>
</a>
</g>
</g>
<!-- Node6 -->
<g id="Node000006" class="node">
<title>Node6</title>
<g id="a_Node000006"><a xlink:href="classedu_1_1wpi_1_1first_1_1wpilibj_1_1_counter.html#aae06192b501678f5bcc1824409f27ad0" target="_top" xlink:title=" ">
<polygon fill="white" stroke="#666666" points="152.5,-30.5 0,-30.5 0,0 152.5,0 152.5,-30.5"/>
<text text-anchor="start" x="8" y="-17" font-family="Helvetica,sans-Serif" font-size="10.00">edu.wpi.first.wpilibj.Counter.set</text>
<text text-anchor="middle" x="76.25" y="-5.75" font-family="Helvetica,sans-Serif" font-size="10.00">UpSource</text>
</a>
</g>
</g>
<!-- Node1&#45;&gt;Node6 -->
<g id="edge5_Node000001_Node000006" class="edge">
<title>Node1&#45;&gt;Node6</title>
<g id="a_edge5_Node000001_Node000006"><a xlink:title=" ">
<path fill="none" stroke="#63b8ff" d="M234.37,-90.92C212.64,-75.18 181.84,-54.45 152.5,-40.25 145.44,-36.83 137.79,-33.7 130.17,-30.89"/>
<polygon fill="#63b8ff" stroke="#63b8ff" points="232.04,-93.55 242.17,-96.65 236.18,-87.91 232.04,-93.55"/>
</a>
</g>
</g>
</g>
</svg>
</svg>

<style type='text/css'>
<![CDATA[
[data-mouse-over-selected='false'] { opacity: 0.7; }
[data-mouse-over-selected='true']  { opacity: 1.0; }
]]>
</style>
<script type="application/ecmascript"><![CDATA[
document.addEventListener('DOMContentLoaded', (event) => {
  highlightEdges();
  highlightAdjacentNodes();
});
]]></script>
</svg>
