<?xml version="1.0" encoding="UTF-8" standalone="no"?>
<!DOCTYPE svg PUBLIC "-//W3C//DTD SVG 1.1//EN"
 "http://www.w3.org/Graphics/SVG/1.1/DTD/svg11.dtd">
<!-- Generated by graphviz version 9.0.0 (20230911.1827)
 -->
<!-- Title: edu.wpi.first.wpilibj.RobotController.getBatteryVoltage Pages: 1 -->
<svg width="558pt" height="186pt"
 viewBox="0.00 0.00 557.75 185.50" xmlns="http://www.w3.org/2000/svg" xmlns:xlink="http://www.w3.org/1999/xlink">
<g id="graph0" class="graph" transform="scale(1 1) rotate(0) translate(4 181.5)">
<title>edu.wpi.first.wpilibj.RobotController.getBatteryVoltage</title>
<!-- Node1 -->
<g id="Node000001" class="node">
<title>Node1</title>
<g id="a_Node000001"><a xlink:title=" ">
<polygon fill="#999999" stroke="#666666" points="549.75,-79.5 411.5,-79.5 411.5,-49 549.75,-49 549.75,-79.5"/>
<text text-anchor="start" x="419.5" y="-66" font-family="Helvetica,sans-Serif" font-size="10.00">edu.wpi.first.wpilibj.Robot</text>
<text text-anchor="middle" x="480.62" y="-54.75" font-family="Helvetica,sans-Serif" font-size="10.00">Controller.getBatteryVoltage</text>
</a>
</g>
</g>
<!-- Node2 -->
<g id="Node000002" class="node">
<title>Node2</title>
<g id="a_Node000002"><a xlink:href="classedu_1_1wpi_1_1first_1_1wpilibj_1_1simulation_1_1_linear_system_sim.html#ae80820a3ea09b80a7840b4d1785885e7" target="_top" xlink:title=" ">
<polygon fill="white" stroke="#666666" points="363.5,-128.5 214,-128.5 214,-98 363.5,-98 363.5,-128.5"/>
<text text-anchor="start" x="222" y="-115" font-family="Helvetica,sans-Serif" font-size="10.00">edu.wpi.first.wpilibj.simulation.</text>
<text text-anchor="middle" x="288.75" y="-103.75" font-family="Helvetica,sans-Serif" font-size="10.00">LinearSystemSim.clampInput</text>
</a>
</g>
</g>
<!-- Node1&#45;&gt;Node2 -->
<g id="edge1_Node000001_Node000002" class="edge">
<title>Node1&#45;&gt;Node2</title>
<g id="a_edge1_Node000001_Node000002"><a xlink:title=" ">
<path fill="none" stroke="#63b8ff" d="M407.83,-82.78C388.97,-87.64 368.82,-92.85 350.59,-97.55"/>
<polygon fill="#63b8ff" stroke="#63b8ff" points="408.49,-86.22 417.3,-80.33 406.74,-79.44 408.49,-86.22"/>
</a>
</g>
</g>
<!-- Node5 -->
<g id="Node000005" class="node">
<title>Node5</title>
<g id="a_Node000005"><a xlink:href="classedu_1_1wpi_1_1first_1_1wpilibj_1_1simulation_1_1_differential_drivetrain_sim.html#a1fdf341946a1307848ae928b870ba2eb" target="_top" xlink:title=" ">
<polygon fill="white" stroke="#666666" points="375.5,-79.5 202,-79.5 202,-49 375.5,-49 375.5,-79.5"/>
<text text-anchor="start" x="210" y="-66" font-family="Helvetica,sans-Serif" font-size="10.00">edu.wpi.first.wpilibj.simulation.</text>
<text text-anchor="middle" x="288.75" y="-54.75" font-family="Helvetica,sans-Serif" font-size="10.00">DifferentialDrivetrainSim.clampInput</text>
</a>
</g>
</g>
<!-- Node1&#45;&gt;Node5 -->
<g id="edge4_Node000001_Node000005" class="edge">
<title>Node1&#45;&gt;Node5</title>
<g id="a_edge4_Node000001_Node000005"><a xlink:title=" ">
<path fill="none" stroke="#63b8ff" d="M399.63,-64.25C391.73,-64.25 383.69,-64.25 375.73,-64.25"/>
<polygon fill="#63b8ff" stroke="#63b8ff" points="399.56,-67.75 409.56,-64.25 399.56,-60.75 399.56,-67.75"/>
</a>
</g>
</g>
<!-- Node7 -->
<g id="Node000007" class="node">
<title>Node7</title>
<g id="a_Node000007"><a xlink:href="interfaceedu_1_1wpi_1_1first_1_1wpilibj_1_1motorcontrol_1_1_motor_controller.html#a9ce74f4d558891269f3476ab14d2e256" target="_top" xlink:title=" ">
<polygon fill="white" stroke="#666666" points="368.38,-30.5 209.12,-30.5 209.12,0 368.38,0 368.38,-30.5"/>
<text text-anchor="start" x="217.12" y="-17" font-family="Helvetica,sans-Serif" font-size="10.00">edu.wpi.first.wpilibj.motorcontrol.</text>
<text text-anchor="middle" x="288.75" y="-5.75" font-family="Helvetica,sans-Serif" font-size="10.00">MotorController.setVoltage</text>
</a>
</g>
</g>
<!-- Node1&#45;&gt;Node7 -->
<g id="edge6_Node000001_Node000007" class="edge">
<title>Node1&#45;&gt;Node7</title>
<g id="a_edge6_Node000001_Node000007"><a xlink:title=" ">
<path fill="none" stroke="#63b8ff" d="M407.83,-45.72C388.97,-40.86 368.82,-35.65 350.59,-30.95"/>
<polygon fill="#63b8ff" stroke="#63b8ff" points="406.74,-49.06 417.3,-48.17 408.49,-42.28 406.74,-49.06"/>
</a>
</g>
</g>
<!-- Node3 -->
<g id="Node000003" class="node">
<title>Node3</title>
<g id="a_Node000003"><a xlink:href="classedu_1_1wpi_1_1first_1_1wpilibj_1_1simulation_1_1_linear_system_sim.html#aa47b3f34bdda4d4fb3cd277d59b35cfb" target="_top" xlink:title=" ">
<polygon fill="white" stroke="#666666" points="157.75,-177.5 8.25,-177.5 8.25,-147 157.75,-147 157.75,-177.5"/>
<text text-anchor="start" x="16.25" y="-164" font-family="Helvetica,sans-Serif" font-size="10.00">edu.wpi.first.wpilibj.simulation.</text>
<text text-anchor="middle" x="83" y="-152.75" font-family="Helvetica,sans-Serif" font-size="10.00">LinearSystemSim.setInput</text>
</a>
</g>
</g>
<!-- Node2&#45;&gt;Node3 -->
<g id="edge2_Node000002_Node000003" class="edge">
<title>Node2&#45;&gt;Node3</title>
<g id="a_edge2_Node000002_Node000003"><a xlink:title=" ">
<path fill="none" stroke="#63b8ff" d="M211.28,-131.64C190.88,-136.55 169.03,-141.8 149.29,-146.55"/>
<polygon fill="#63b8ff" stroke="#63b8ff" points="212.07,-135.05 220.97,-129.31 210.43,-128.25 212.07,-135.05"/>
</a>
</g>
</g>
<!-- Node4 -->
<g id="Node000004" class="node">
<title>Node4</title>
<g id="a_Node000004"><a xlink:href="classedu_1_1wpi_1_1first_1_1wpilibj_1_1simulation_1_1_linear_system_sim.html#a2ddbadca7fae822ee63346eafc3a5df3" target="_top" xlink:title=" ">
<polygon fill="white" stroke="#666666" points="157.75,-128.5 8.25,-128.5 8.25,-98 157.75,-98 157.75,-128.5"/>
<text text-anchor="start" x="16.25" y="-115" font-family="Helvetica,sans-Serif" font-size="10.00">edu.wpi.first.wpilibj.simulation.</text>
<text text-anchor="middle" x="83" y="-103.75" font-family="Helvetica,sans-Serif" font-size="10.00">LinearSystemSim.setInput</text>
</a>
</g>
</g>
<!-- Node2&#45;&gt;Node4 -->
<g id="edge3_Node000002_Node000004" class="edge">
<title>Node2&#45;&gt;Node4</title>
<g id="a_edge3_Node000002_Node000004"><a xlink:title=" ">
<path fill="none" stroke="#63b8ff" d="M202.46,-113.25C187.71,-113.25 172.49,-113.25 158.08,-113.25"/>
<polygon fill="#63b8ff" stroke="#63b8ff" points="202.1,-116.75 212.1,-113.25 202.1,-109.75 202.1,-116.75"/>
</a>
</g>
</g>
<!-- Node6 -->
<g id="Node000006" class="node">
<title>Node6</title>
<g id="a_Node000006"><a xlink:href="classedu_1_1wpi_1_1first_1_1wpilibj_1_1simulation_1_1_differential_drivetrain_sim.html#a6460e3142fab5f037b98ced032032dba" target="_top" xlink:title=" ">
<polygon fill="white" stroke="#666666" points="166,-79.5 0,-79.5 0,-49 166,-49 166,-79.5"/>
<text text-anchor="start" x="8" y="-66" font-family="Helvetica,sans-Serif" font-size="10.00">edu.wpi.first.wpilibj.simulation.</text>
<text text-anchor="middle" x="83" y="-54.75" font-family="Helvetica,sans-Serif" font-size="10.00">DifferentialDrivetrainSim.setInputs</text>
</a>
</g>
</g>
<!-- Node5&#45;&gt;Node6 -->
<g id="edge5_Node000005_Node000006" class="edge">
<title>Node5&#45;&gt;Node6</title>
<g id="a_edge5_Node000005_Node000006"><a xlink:title=" ">
<path fill="none" stroke="#63b8ff" d="M190.3,-64.25C182.25,-64.25 174.16,-64.25 166.23,-64.25"/>
<polygon fill="#63b8ff" stroke="#63b8ff" points="190.12,-67.75 200.12,-64.25 190.12,-60.75 190.12,-67.75"/>
</a>
</g>
</g>
</g>
</svg>
