<?xml version="1.0" encoding="UTF-8" standalone="no"?>
<!DOCTYPE svg PUBLIC "-//W3C//DTD SVG 1.1//EN"
 "http://www.w3.org/Graphics/SVG/1.1/DTD/svg11.dtd">
<!-- Generated by graphviz version 9.0.0 (20230911.1827)
 -->
<!-- Title: edu.wpi.first.wpilibj.ADXRS450_Gyro Pages: 1 -->
<svg width="188pt" height="83pt"
 viewBox="0.00 0.00 187.50 82.50" xmlns="http://www.w3.org/2000/svg" xmlns:xlink="http://www.w3.org/1999/xlink">
<g id="graph0" class="graph" transform="scale(1 1) rotate(0) translate(4 78.5)">
<title>edu.wpi.first.wpilibj.ADXRS450_Gyro</title>
<!-- Node1 -->
<g id="Node000001" class="node">
<title>Node1</title>
<g id="a_Node000001"><a xlink:title=" ">
<polygon fill="#999999" stroke="#666666" points="179.5,-19.25 0,-19.25 0,0 179.5,0 179.5,-19.25"/>
<text text-anchor="middle" x="89.75" y="-5.75" font-family="Helvetica,sans-Serif" font-size="10.00">edu.wpi.first.wpilibj.ADXRS450_Gyro</text>
</a>
</g>
</g>
<!-- Node2 -->
<g id="Node000002" class="node">
<title>Node2</title>
<g id="a_Node000002"><a xlink:title=" ">
<polygon fill="white" stroke="#bfbfbf" points="75,-74.5 18.5,-74.5 18.5,-55.25 75,-55.25 75,-74.5"/>
<text text-anchor="middle" x="46.75" y="-61" font-family="Helvetica,sans-Serif" font-size="10.00">Sendable</text>
</a>
</g>
</g>
<!-- Node2&#45;&gt;Node1 -->
<g id="edge1_Node000001_Node000002" class="edge">
<title>Node2&#45;&gt;Node1</title>
<g id="a_edge1_Node000001_Node000002"><a xlink:title=" ">
<path fill="none" stroke="#63b8ff" d="M61,-46.22C68.2,-37.31 76.63,-26.87 82.5,-19.61"/>
<polygon fill="#63b8ff" stroke="#63b8ff" points="58.36,-43.93 54.8,-53.9 63.81,-48.32 58.36,-43.93"/>
</a>
</g>
</g>
<!-- Node3 -->
<g id="Node000003" class="node">
<title>Node3</title>
<g id="a_Node000003"><a xlink:title=" ">
<polygon fill="white" stroke="#bfbfbf" points="172.62,-74.5 92.88,-74.5 92.88,-55.25 172.62,-55.25 172.62,-74.5"/>
<text text-anchor="middle" x="132.75" y="-61" font-family="Helvetica,sans-Serif" font-size="10.00">AutoCloseable</text>
</a>
</g>
</g>
<!-- Node3&#45;&gt;Node1 -->
<g id="edge2_Node000001_Node000003" class="edge">
<title>Node3&#45;&gt;Node1</title>
<g id="a_edge2_Node000001_Node000003"><a xlink:title=" ">
<path fill="none" stroke="#63b8ff" d="M118.5,-46.22C111.3,-37.31 102.87,-26.87 97,-19.61"/>
<polygon fill="#63b8ff" stroke="#63b8ff" points="115.69,-48.32 124.7,-53.9 121.14,-43.93 115.69,-48.32"/>
</a>
</g>
</g>
</g>
</svg>
