<?xml version="1.0" encoding="UTF-8" standalone="no"?>
<!DOCTYPE svg PUBLIC "-//W3C//DTD SVG 1.1//EN"
 "http://www.w3.org/Graphics/SVG/1.1/DTD/svg11.dtd">
<!-- Generated by graphviz version 9.0.0 (20230911.1827)
 -->
<!-- Title: edu.wpi.first.wpilibj.smartdashboard.MechanismObject2d Pages: 1 -->
<svg width="510pt" height="88pt"
 viewBox="0.00 0.00 509.75 87.50" xmlns="http://www.w3.org/2000/svg" xmlns:xlink="http://www.w3.org/1999/xlink">
<g id="graph0" class="graph" transform="scale(1 1) rotate(0) translate(4 83.5)">
<title>edu.wpi.first.wpilibj.smartdashboard.MechanismObject2d</title>
<!-- Node1 -->
<g id="Node000001" class="node">
<title>Node1</title>
<g id="a_Node000001"><a xlink:title=" ">
<polygon fill="#999999" stroke="#666666" points="290.75,-54.5 115.75,-54.5 115.75,-24 290.75,-24 290.75,-54.5"/>
<text text-anchor="start" x="123.75" y="-41" font-family="Helvetica,sans-Serif" font-size="10.00">edu.wpi.first.wpilibj.smartdashboard.</text>
<text text-anchor="middle" x="203.25" y="-29.75" font-family="Helvetica,sans-Serif" font-size="10.00">MechanismObject2d</text>
</a>
</g>
</g>
<!-- Node3 -->
<g id="Node000003" class="node">
<title>Node3</title>
<g id="a_Node000003"><a xlink:href="classedu_1_1wpi_1_1first_1_1wpilibj_1_1smartdashboard_1_1_mechanism_ligament2d.html" target="_top" xlink:title=" ">
<polygon fill="white" stroke="#666666" points="501.75,-79.5 326.75,-79.5 326.75,-49 501.75,-49 501.75,-79.5"/>
<text text-anchor="start" x="334.75" y="-66" font-family="Helvetica,sans-Serif" font-size="10.00">edu.wpi.first.wpilibj.smartdashboard.</text>
<text text-anchor="middle" x="414.25" y="-54.75" font-family="Helvetica,sans-Serif" font-size="10.00">MechanismLigament2d</text>
</a>
</g>
</g>
<!-- Node1&#45;&gt;Node3 -->
<g id="edge2_Node000001_Node000003" class="edge">
<title>Node1&#45;&gt;Node3</title>
<g id="a_edge2_Node000001_Node000003"><a xlink:title=" ">
<path fill="none" stroke="#63b8ff" d="M302.35,-50.98C310.37,-51.94 318.44,-52.91 326.36,-53.86"/>
<polygon fill="#63b8ff" stroke="#63b8ff" points="302.92,-47.53 292.57,-49.81 302.09,-54.48 302.92,-47.53"/>
</a>
</g>
</g>
<!-- Node4 -->
<g id="Node000004" class="node">
<title>Node4</title>
<g id="a_Node000004"><a xlink:href="classedu_1_1wpi_1_1first_1_1wpilibj_1_1smartdashboard_1_1_mechanism_root2d.html" target="_top" xlink:title=" ">
<polygon fill="white" stroke="#666666" points="501.75,-30.5 326.75,-30.5 326.75,0 501.75,0 501.75,-30.5"/>
<text text-anchor="start" x="334.75" y="-17" font-family="Helvetica,sans-Serif" font-size="10.00">edu.wpi.first.wpilibj.smartdashboard.</text>
<text text-anchor="middle" x="414.25" y="-5.75" font-family="Helvetica,sans-Serif" font-size="10.00">MechanismRoot2d</text>
</a>
</g>
</g>
<!-- Node1&#45;&gt;Node4 -->
<g id="edge3_Node000001_Node000004" class="edge">
<title>Node1&#45;&gt;Node4</title>
<g id="a_edge3_Node000001_Node000004"><a xlink:title=" ">
<path fill="none" stroke="#63b8ff" d="M302.35,-27.98C310.37,-27.06 318.44,-26.14 326.36,-25.23"/>
<polygon fill="#63b8ff" stroke="#63b8ff" points="302.11,-24.49 292.57,-29.11 302.91,-31.44 302.11,-24.49"/>
</a>
</g>
</g>
<!-- Node2 -->
<g id="Node000002" class="node">
<title>Node2</title>
<g id="a_Node000002"><a xlink:title=" ">
<polygon fill="white" stroke="#bfbfbf" points="79.75,-48.88 0,-48.88 0,-29.62 79.75,-29.62 79.75,-48.88"/>
<text text-anchor="middle" x="39.88" y="-35.38" font-family="Helvetica,sans-Serif" font-size="10.00">AutoCloseable</text>
</a>
</g>
</g>
<!-- Node2&#45;&gt;Node1 -->
<g id="edge1_Node000001_Node000002" class="edge">
<title>Node2&#45;&gt;Node1</title>
<g id="a_edge1_Node000001_Node000002"><a xlink:title=" ">
<path fill="none" stroke="#63b8ff" d="M91.27,-39.25C98.98,-39.25 107.12,-39.25 115.35,-39.25"/>
<polygon fill="#63b8ff" stroke="#63b8ff" points="91.45,-35.75 81.45,-39.25 91.45,-42.75 91.45,-35.75"/>
</a>
</g>
</g>
</g>
</svg>
