<?xml version="1.0" encoding="UTF-8" standalone="no"?>
<!DOCTYPE svg PUBLIC "-//W3C//DTD SVG 1.1//EN"
 "http://www.w3.org/Graphics/SVG/1.1/DTD/svg11.dtd">
<!-- Generated by graphviz version 9.0.0 (20230911.1827)
 -->
<!-- Title: edu.wpi.first.wpilibj.Counter.setUpSource Pages: 1 -->
<svg width="349pt" height="106pt"
 viewBox="0.00 0.00 349.00 105.50" xmlns="http://www.w3.org/2000/svg" xmlns:xlink="http://www.w3.org/1999/xlink">
<g id="graph0" class="graph" transform="scale(1 1) rotate(0) translate(4 101.5)">
<title>edu.wpi.first.wpilibj.Counter.setUpSource</title>
<!-- Node1 -->
<g id="Node000001" class="node">
<title>Node1</title>
<g id="a_Node000001"><a xlink:title=" ">
<polygon fill="#999999" stroke="#666666" points="152.5,-63.5 0,-63.5 0,-33 152.5,-33 152.5,-63.5"/>
<text text-anchor="start" x="8" y="-50" font-family="Helvetica,sans-Serif" font-size="10.00">edu.wpi.first.wpilibj.Counter.set</text>
<text text-anchor="middle" x="76.25" y="-38.75" font-family="Helvetica,sans-Serif" font-size="10.00">UpSource</text>
</a>
</g>
</g>
<!-- Node2 -->
<g id="Node000002" class="node">
<title>Node2</title>
<g id="a_Node000002"><a xlink:href="classedu_1_1wpi_1_1first_1_1wpilibj_1_1_analog_trigger.html#a29bab25508b790e49a5684feea4d6bd7" target="_top" xlink:title=" ">
<polygon fill="white" stroke="#666666" points="330.88,-97.5 198.62,-97.5 198.62,-67 330.88,-67 330.88,-97.5"/>
<text text-anchor="start" x="206.62" y="-84" font-family="Helvetica,sans-Serif" font-size="10.00">edu.wpi.first.wpilibj.Analog</text>
<text text-anchor="middle" x="264.75" y="-72.75" font-family="Helvetica,sans-Serif" font-size="10.00">Trigger.createOutput</text>
</a>
</g>
</g>
<!-- Node1&#45;&gt;Node2 -->
<g id="edge1_Node000001_Node000002" class="edge">
<title>Node1&#45;&gt;Node2</title>
<g id="a_edge1_Node000001_Node000002"><a xlink:title=" ">
<path fill="none" stroke="#63b8ff" d="M152.84,-62.03C164.12,-64.09 175.76,-66.21 187.07,-68.27"/>
<polygon fill="#63b8ff" stroke="#63b8ff" points="186.28,-71.68 196.75,-70.04 187.54,-64.8 186.28,-71.68"/>
</a>
</g>
</g>
<!-- Node3 -->
<g id="Node000003" class="node">
<title>Node3</title>
<g id="a_Node000003"><a xlink:href="classedu_1_1wpi_1_1first_1_1wpilibj_1_1_counter.html#a8e28726d6821e52f3aed3bea6884948a" target="_top" xlink:title=" ">
<polygon fill="white" stroke="#666666" points="341,-30.5 188.5,-30.5 188.5,0 341,0 341,-30.5"/>
<text text-anchor="start" x="196.5" y="-17" font-family="Helvetica,sans-Serif" font-size="10.00">edu.wpi.first.wpilibj.Counter.set</text>
<text text-anchor="middle" x="264.75" y="-5.75" font-family="Helvetica,sans-Serif" font-size="10.00">UpSource</text>
</a>
</g>
</g>
<!-- Node1&#45;&gt;Node3 -->
<g id="edge2_Node000001_Node000003" class="edge">
<title>Node1&#45;&gt;Node3</title>
<g id="a_edge2_Node000001_Node000003"><a xlink:title=" ">
<path fill="none" stroke="#63b8ff" d="M152.84,-34.88C160.73,-33.48 168.8,-32.05 176.8,-30.63"/>
<polygon fill="#63b8ff" stroke="#63b8ff" points="177.33,-34.1 186.56,-28.91 176.11,-27.2 177.33,-34.1"/>
</a>
</g>
</g>
<!-- Node3&#45;&gt;Node3 -->
<g id="edge3_Node000003_Node000003" class="edge">
<title>Node3&#45;&gt;Node3</title>
<g id="a_edge3_Node000003_Node000003"><a xlink:title=" ">
<path fill="none" stroke="#63b8ff" d="M231.35,-30.99C224.53,-40.06 235.67,-48.5 264.75,-48.5 280.66,-48.5 291.19,-45.97 296.36,-42.2"/>
<polygon fill="#63b8ff" stroke="#63b8ff" points="299.79,-42.91 297.91,-32.48 292.88,-41.8 299.79,-42.91"/>
</a>
</g>
</g>
</g>
</svg>
