<?xml version="1.0" encoding="UTF-8" standalone="no"?>
<!DOCTYPE svg PUBLIC "-//W3C//DTD SVG 1.1//EN"
 "http://www.w3.org/Graphics/SVG/1.1/DTD/svg11.dtd">
<!-- Generated by graphviz version 9.0.0 (20230911.1827)
 -->
<!-- Title: edu.wpi.first.wpilibj.Watchdog.enable Pages: 1 -->
<svg width="729pt" height="88pt"
 viewBox="0.00 0.00 729.00 87.50" xmlns="http://www.w3.org/2000/svg" xmlns:xlink="http://www.w3.org/1999/xlink">
<g id="graph0" class="graph" transform="scale(1 1) rotate(0) translate(4 83.5)">
<title>edu.wpi.first.wpilibj.Watchdog.enable</title>
<!-- Node1 -->
<g id="Node000001" class="node">
<title>Node1</title>
<g id="a_Node000001"><a xlink:title=" ">
<polygon fill="#999999" stroke="#666666" points="177.25,-48.88 0,-48.88 0,-29.62 177.25,-29.62 177.25,-48.88"/>
<text text-anchor="middle" x="88.62" y="-35.38" font-family="Helvetica,sans-Serif" font-size="10.00">edu.wpi.first.wpilibj.Watchdog.enable</text>
</a>
</g>
</g>
<!-- Node2 -->
<g id="Node000002" class="node">
<title>Node2</title>
<g id="a_Node000002"><a xlink:href="classedu_1_1wpi_1_1first_1_1wpilibj_1_1_tracer.html#a7af804d6dc75797c90b3701efe9917fb" target="_top" xlink:title=" ">
<polygon fill="white" stroke="#666666" points="366.5,-77.5 213.25,-77.5 213.25,-47 366.5,-47 366.5,-77.5"/>
<text text-anchor="start" x="221.25" y="-64" font-family="Helvetica,sans-Serif" font-size="10.00">edu.wpi.first.wpilibj.Tracer.clear</text>
<text text-anchor="middle" x="289.88" y="-52.75" font-family="Helvetica,sans-Serif" font-size="10.00">Epochs</text>
</a>
</g>
</g>
<!-- Node1&#45;&gt;Node2 -->
<g id="edge1_Node000001_Node000002" class="edge">
<title>Node1&#45;&gt;Node2</title>
<g id="a_edge1_Node000001_Node000002"><a xlink:title=" ">
<path fill="none" stroke="#63b8ff" d="M177.31,-49.37C185.4,-50.31 193.6,-51.25 201.68,-52.18"/>
<polygon fill="#63b8ff" stroke="#63b8ff" points="201.18,-55.65 211.51,-53.32 201.98,-48.7 201.18,-55.65"/>
</a>
</g>
</g>
<!-- Node5 -->
<g id="Node000005" class="node">
<title>Node5</title>
<g id="a_Node000005"><a xlink:href="classedu_1_1wpi_1_1first_1_1wpilibj_1_1_timer.html#a554f331c3b4645ee279bab8974cf21af" target="_top" xlink:title=" ">
<polygon fill="white" stroke="#666666" points="550.88,-30.5 408.12,-30.5 408.12,0 550.88,0 550.88,-30.5"/>
<text text-anchor="start" x="416.12" y="-17" font-family="Helvetica,sans-Serif" font-size="10.00">edu.wpi.first.wpilibj.Timer.get</text>
<text text-anchor="middle" x="479.5" y="-5.75" font-family="Helvetica,sans-Serif" font-size="10.00">FPGATimestamp</text>
</a>
</g>
</g>
<!-- Node1&#45;&gt;Node5 -->
<g id="edge4_Node000001_Node000005" class="edge">
<title>Node1&#45;&gt;Node5</title>
<g id="a_edge4_Node000001_Node000005"><a xlink:title=" ">
<path fill="none" stroke="#63b8ff" d="M177.38,-33.83C243.1,-29.78 332.38,-24.27 396.63,-20.3"/>
<polygon fill="#63b8ff" stroke="#63b8ff" points="396.65,-23.81 406.41,-19.7 396.22,-16.82 396.65,-23.81"/>
</a>
</g>
</g>
<!-- Node3 -->
<g id="Node000003" class="node">
<title>Node3</title>
<g id="a_Node000003"><a xlink:href="classedu_1_1wpi_1_1first_1_1wpilibj_1_1_tracer.html#a8ec8917a1e56d3d57363532d1d6fd4bd" target="_top" xlink:title=" ">
<polygon fill="white" stroke="#666666" points="556.5,-79.5 402.5,-79.5 402.5,-49 556.5,-49 556.5,-79.5"/>
<text text-anchor="start" x="410.5" y="-66" font-family="Helvetica,sans-Serif" font-size="10.00">edu.wpi.first.wpilibj.Tracer.reset</text>
<text text-anchor="middle" x="479.5" y="-54.75" font-family="Helvetica,sans-Serif" font-size="10.00">Timer</text>
</a>
</g>
</g>
<!-- Node2&#45;&gt;Node3 -->
<g id="edge2_Node000002_Node000003" class="edge">
<title>Node2&#45;&gt;Node3</title>
<g id="a_edge2_Node000002_Node000003"><a xlink:title=" ">
<path fill="none" stroke="#63b8ff" d="M366.92,-63.06C374.7,-63.14 382.65,-63.23 390.54,-63.31"/>
<polygon fill="#63b8ff" stroke="#63b8ff" points="390.49,-66.81 400.53,-63.42 390.57,-59.81 390.49,-66.81"/>
</a>
</g>
</g>
<!-- Node4 -->
<g id="Node000004" class="node">
<title>Node4</title>
<g id="a_Node000004"><a xlink:href="classedu_1_1wpi_1_1first_1_1wpilibj_1_1_robot_controller.html#a0768221aed0858ad185f14c8218300e0" target="_top" xlink:title=" ">
<polygon fill="white" stroke="#666666" points="721,-54.5 592.5,-54.5 592.5,-24 721,-24 721,-54.5"/>
<text text-anchor="start" x="600.5" y="-41" font-family="Helvetica,sans-Serif" font-size="10.00">edu.wpi.first.wpilibj.Robot</text>
<text text-anchor="middle" x="656.75" y="-29.75" font-family="Helvetica,sans-Serif" font-size="10.00">Controller.getFPGATime</text>
</a>
</g>
</g>
<!-- Node3&#45;&gt;Node4 -->
<g id="edge3_Node000003_Node000004" class="edge">
<title>Node3&#45;&gt;Node4</title>
<g id="a_edge3_Node000003_Node000004"><a xlink:title=" ">
<path fill="none" stroke="#63b8ff" d="M556.86,-53.36C564.88,-52.21 573.04,-51.05 581.04,-49.91"/>
<polygon fill="#63b8ff" stroke="#63b8ff" points="581.33,-53.4 590.73,-48.52 580.34,-46.47 581.33,-53.4"/>
</a>
</g>
</g>
<!-- Node5&#45;&gt;Node4 -->
<g id="edge5_Node000005_Node000004" class="edge">
<title>Node5&#45;&gt;Node4</title>
<g id="a_edge5_Node000005_Node000004"><a xlink:title=" ">
<path fill="none" stroke="#63b8ff" d="M551.28,-24.94C560.97,-26.27 570.95,-27.64 580.72,-28.98"/>
<polygon fill="#63b8ff" stroke="#63b8ff" points="580.18,-32.43 590.56,-30.32 581.13,-25.5 580.18,-32.43"/>
</a>
</g>
</g>
</g>
</svg>
