<?xml version="1.0" encoding="UTF-8" standalone="no"?>
<!DOCTYPE svg PUBLIC "-//W3C//DTD SVG 1.1//EN"
 "http://www.w3.org/Graphics/SVG/1.1/DTD/svg11.dtd">
<!-- Generated by graphviz version 9.0.0 (20230911.1827)
 -->
<!-- Title: edu.wpi.first.wpilibj.simulation.DoubleSolenoidSim.DoubleSolenoidSim Pages: 1 -->
<svg width="585pt" height="88pt"
 viewBox="0.00 0.00 584.75 87.50" xmlns="http://www.w3.org/2000/svg" xmlns:xlink="http://www.w3.org/1999/xlink">
<g id="graph0" class="graph" transform="scale(1 1) rotate(0) translate(4 83.5)">
<title>edu.wpi.first.wpilibj.simulation.DoubleSolenoidSim.DoubleSolenoidSim</title>
<!-- Node1 -->
<g id="Node000001" class="node">
<title>Node1</title>
<g id="a_Node000001"><a xlink:title=" ">
<polygon fill="#999999" stroke="#666666" points="190,-54.5 0,-54.5 0,-24 190,-24 190,-54.5"/>
<text text-anchor="start" x="8" y="-41" font-family="Helvetica,sans-Serif" font-size="10.00">edu.wpi.first.wpilibj.simulation.</text>
<text text-anchor="middle" x="95" y="-29.75" font-family="Helvetica,sans-Serif" font-size="10.00">DoubleSolenoidSim.DoubleSolenoidSim</text>
</a>
</g>
</g>
<!-- Node2 -->
<g id="Node000002" class="node">
<title>Node2</title>
<g id="a_Node000002"><a xlink:href="interfaceedu_1_1wpi_1_1first_1_1wpilibj_1_1_pneumatics_base.html#a7f07af9f270e5dbb58336c1b605e6465" target="_top" xlink:title=" ">
<polygon fill="white" stroke="#666666" points="380,-54.5 226,-54.5 226,-24 380,-24 380,-54.5"/>
<text text-anchor="start" x="234" y="-41" font-family="Helvetica,sans-Serif" font-size="10.00">edu.wpi.first.wpilibj.Pneumatics</text>
<text text-anchor="middle" x="303" y="-29.75" font-family="Helvetica,sans-Serif" font-size="10.00">Base.getDefaultForType</text>
</a>
</g>
</g>
<!-- Node1&#45;&gt;Node2 -->
<g id="edge1_Node000001_Node000002" class="edge">
<title>Node1&#45;&gt;Node2</title>
<g id="a_edge1_Node000001_Node000002"><a xlink:title=" ">
<path fill="none" stroke="#63b8ff" d="M190.26,-39.25C198.23,-39.25 206.27,-39.25 214.19,-39.25"/>
<polygon fill="#63b8ff" stroke="#63b8ff" points="214.17,-42.75 224.17,-39.25 214.17,-35.75 214.17,-42.75"/>
</a>
</g>
</g>
<!-- Node3 -->
<g id="Node000003" class="node">
<title>Node3</title>
<g id="a_Node000003"><a xlink:href="classedu_1_1wpi_1_1first_1_1wpilibj_1_1_sensor_util.html#a7889ff0082624ed463b5149eb2d4abd6" target="_top" xlink:title=" ">
<polygon fill="white" stroke="#666666" points="576.75,-79.5 416,-79.5 416,-49 576.75,-49 576.75,-79.5"/>
<text text-anchor="start" x="424" y="-66" font-family="Helvetica,sans-Serif" font-size="10.00">edu.wpi.first.wpilibj.Sensor</text>
<text text-anchor="middle" x="496.38" y="-54.75" font-family="Helvetica,sans-Serif" font-size="10.00">Util.getDefaultCTREPCMModule</text>
</a>
</g>
</g>
<!-- Node2&#45;&gt;Node3 -->
<g id="edge2_Node000002_Node000003" class="edge">
<title>Node2&#45;&gt;Node3</title>
<g id="a_edge2_Node000002_Node000003"><a xlink:title=" ">
<path fill="none" stroke="#63b8ff" d="M380.46,-49.24C388.32,-50.26 396.35,-51.31 404.34,-52.36"/>
<polygon fill="#63b8ff" stroke="#63b8ff" points="403.72,-55.81 414.09,-53.63 404.63,-48.87 403.72,-55.81"/>
</a>
</g>
</g>
<!-- Node4 -->
<g id="Node000004" class="node">
<title>Node4</title>
<g id="a_Node000004"><a xlink:href="classedu_1_1wpi_1_1first_1_1wpilibj_1_1_sensor_util.html#a9d29bd9b554cc92650b42adc333681ef" target="_top" xlink:title=" ">
<polygon fill="white" stroke="#666666" points="569.25,-30.5 423.5,-30.5 423.5,0 569.25,0 569.25,-30.5"/>
<text text-anchor="start" x="431.5" y="-17" font-family="Helvetica,sans-Serif" font-size="10.00">edu.wpi.first.wpilibj.Sensor</text>
<text text-anchor="middle" x="496.38" y="-5.75" font-family="Helvetica,sans-Serif" font-size="10.00">Util.getDefaultREVPHModule</text>
</a>
</g>
</g>
<!-- Node2&#45;&gt;Node4 -->
<g id="edge3_Node000002_Node000004" class="edge">
<title>Node2&#45;&gt;Node4</title>
<g id="a_edge3_Node000002_Node000004"><a xlink:title=" ">
<path fill="none" stroke="#63b8ff" d="M380.46,-29.66C390.78,-28.37 401.42,-27.03 411.85,-25.72"/>
<polygon fill="#63b8ff" stroke="#63b8ff" points="412.09,-29.22 421.58,-24.51 411.22,-22.28 412.09,-29.22"/>
</a>
</g>
</g>
</g>
</svg>
