<?xml version="1.0" encoding="UTF-8" standalone="no"?>
<!DOCTYPE svg PUBLIC "-//W3C//DTD SVG 1.1//EN"
 "http://www.w3.org/Graphics/SVG/1.1/DTD/svg11.dtd">
<!-- Generated by graphviz version 9.0.0 (20230911.1827)
 -->
<!-- Title: edu.wpi.first.wpilibj.RobotBase.suppressExitWarning Pages: 1 -->
<svg width="442pt" height="39pt"
 viewBox="0.00 0.00 442.25 38.50" xmlns="http://www.w3.org/2000/svg" xmlns:xlink="http://www.w3.org/1999/xlink">
<g id="graph0" class="graph" transform="scale(1 1) rotate(0) translate(4 34.5)">
<title>edu.wpi.first.wpilibj.RobotBase.suppressExitWarning</title>
<!-- Node1 -->
<g id="Node000001" class="node">
<title>Node1</title>
<g id="a_Node000001"><a xlink:title=" ">
<polygon fill="#999999" stroke="#666666" points="434.25,-30.5 300.5,-30.5 300.5,0 434.25,0 434.25,-30.5"/>
<text text-anchor="start" x="308.5" y="-17" font-family="Helvetica,sans-Serif" font-size="10.00">edu.wpi.first.wpilibj.Robot</text>
<text text-anchor="middle" x="367.38" y="-5.75" font-family="Helvetica,sans-Serif" font-size="10.00">Base.suppressExitWarning</text>
</a>
</g>
</g>
<!-- Node2 -->
<g id="Node000002" class="node">
<title>Node2</title>
<g id="a_Node000002"><a xlink:href="classedu_1_1wpi_1_1first_1_1wpilibj_1_1_robot_base.html#aca4e3fd628a06764d869dc9ab535fb0d" target="_top" xlink:title=" ">
<polygon fill="white" stroke="#666666" points="264.5,-30.5 136,-30.5 136,0 264.5,0 264.5,-30.5"/>
<text text-anchor="start" x="144" y="-17" font-family="Helvetica,sans-Serif" font-size="10.00">edu.wpi.first.wpilibj.Robot</text>
<text text-anchor="middle" x="200.25" y="-5.75" font-family="Helvetica,sans-Serif" font-size="10.00">Base.startRobot</text>
</a>
</g>
</g>
<!-- Node1&#45;&gt;Node2 -->
<g id="edge1_Node000001_Node000002" class="edge">
<title>Node1&#45;&gt;Node2</title>
<g id="a_edge1_Node000001_Node000002"><a xlink:title=" ">
<path fill="none" stroke="#63b8ff" d="M288.85,-15.25C280.79,-15.25 272.67,-15.25 264.79,-15.25"/>
<polygon fill="#63b8ff" stroke="#63b8ff" points="288.65,-18.75 298.65,-15.25 288.65,-11.75 288.65,-18.75"/>
</a>
</g>
</g>
<!-- Node3 -->
<g id="Node000003" class="node">
<title>Node3</title>
<g id="a_Node000003"><a xlink:href="classfrc_1_1robot_1_1_main.html#ae60066a646cefc16d3e7d57b8fa22097" target="_top" xlink:title=" ">
<polygon fill="white" stroke="#666666" points="100,-24.88 0,-24.88 0,-5.63 100,-5.63 100,-24.88"/>
<text text-anchor="middle" x="50" y="-11.38" font-family="Helvetica,sans-Serif" font-size="10.00">frc.robot.Main.main</text>
</a>
</g>
</g>
<!-- Node2&#45;&gt;Node3 -->
<g id="edge2_Node000002_Node000003" class="edge">
<title>Node2&#45;&gt;Node3</title>
<g id="a_edge2_Node000002_Node000003"><a xlink:title=" ">
<path fill="none" stroke="#63b8ff" d="M124.14,-15.25C116.07,-15.25 108.01,-15.25 100.35,-15.25"/>
<polygon fill="#63b8ff" stroke="#63b8ff" points="124,-18.75 134,-15.25 124,-11.75 124,-18.75"/>
</a>
</g>
</g>
</g>
</svg>
