<?xml version="1.0" encoding="UTF-8" standalone="no"?>
<!DOCTYPE svg PUBLIC "-//W3C//DTD SVG 1.1//EN"
 "http://www.w3.org/Graphics/SVG/1.1/DTD/svg11.dtd">
<!-- Generated by graphviz version 9.0.0 (20230911.1827)
 -->
<!-- Title: edu.wpi.first.wpilibj.Counter.Counter Pages: 1 -->
<svg width="336pt" height="222pt"
 viewBox="0.00 0.00 335.50 221.50" xmlns="http://www.w3.org/2000/svg" xmlns:xlink="http://www.w3.org/1999/xlink">
<g id="graph0" class="graph" transform="scale(1 1) rotate(0) translate(4 217.5)">
<title>edu.wpi.first.wpilibj.Counter.Counter</title>
<!-- Node1 -->
<g id="Node000001" class="node">
<title>Node1</title>
<g id="a_Node000001"><a xlink:title=" ">
<polygon fill="#999999" stroke="#666666" points="139,-112.5 0,-112.5 0,-82 139,-82 139,-112.5"/>
<text text-anchor="start" x="8" y="-99" font-family="Helvetica,sans-Serif" font-size="10.00">edu.wpi.first.wpilibj.Counter.</text>
<text text-anchor="middle" x="69.5" y="-87.75" font-family="Helvetica,sans-Serif" font-size="10.00">Counter</text>
</a>
</g>
</g>
<!-- Node2 -->
<g id="Node000002" class="node">
<title>Node2</title>
<g id="a_Node000002"><a xlink:href="classedu_1_1wpi_1_1first_1_1wpilibj_1_1_counter.html#ae25a2af15ca0e7e1528583566028d23c" target="_top" xlink:title=" ">
<polygon fill="white" stroke="#666666" points="327.5,-195.5 175,-195.5 175,-165 327.5,-165 327.5,-195.5"/>
<text text-anchor="start" x="183" y="-182" font-family="Helvetica,sans-Serif" font-size="10.00">edu.wpi.first.wpilibj.Counter.set</text>
<text text-anchor="middle" x="251.25" y="-170.75" font-family="Helvetica,sans-Serif" font-size="10.00">DownSource</text>
</a>
</g>
</g>
<!-- Node1&#45;&gt;Node2 -->
<g id="edge1_Node000001_Node000002" class="edge">
<title>Node1&#45;&gt;Node2</title>
<g id="a_edge1_Node000001_Node000002"><a xlink:title=" ">
<path fill="none" stroke="#63b8ff" d="M95.59,-112.92C116.35,-125.45 146.88,-142.9 175,-155.25 179.25,-157.12 183.69,-158.93 188.2,-160.66"/>
<polygon fill="#63b8ff" stroke="#63b8ff" points="186.75,-163.86 197.34,-164.04 189.18,-157.29 186.75,-163.86"/>
</a>
</g>
</g>
<!-- Node3 -->
<g id="Node000003" class="node">
<title>Node3</title>
<g id="a_Node000003"><a xlink:href="classedu_1_1wpi_1_1first_1_1wpilibj_1_1_counter.html#a302b9baf9974befb2a5ad45d0e2dc43e" target="_top" xlink:title=" ">
<polygon fill="white" stroke="#666666" points="327.5,-146.5 175,-146.5 175,-116 327.5,-116 327.5,-146.5"/>
<text text-anchor="start" x="183" y="-133" font-family="Helvetica,sans-Serif" font-size="10.00">edu.wpi.first.wpilibj.Counter.set</text>
<text text-anchor="middle" x="251.25" y="-121.75" font-family="Helvetica,sans-Serif" font-size="10.00">DownSourceEdge</text>
</a>
</g>
</g>
<!-- Node1&#45;&gt;Node3 -->
<g id="edge3_Node000001_Node000003" class="edge">
<title>Node1&#45;&gt;Node3</title>
<g id="a_edge3_Node000001_Node000003"><a xlink:title=" ">
<path fill="none" stroke="#63b8ff" d="M139.48,-110.3C147.29,-111.77 155.32,-113.29 163.31,-114.81"/>
<polygon fill="#63b8ff" stroke="#63b8ff" points="162.61,-118.23 173.09,-116.65 163.91,-111.36 162.61,-118.23"/>
</a>
</g>
</g>
<!-- Node4 -->
<g id="Node000004" class="node">
<title>Node4</title>
<g id="a_Node000004"><a xlink:href="classedu_1_1wpi_1_1first_1_1wpilibj_1_1_counter.html#a8e28726d6821e52f3aed3bea6884948a" target="_top" xlink:title=" ">
<polygon fill="white" stroke="#666666" points="327.5,-79.5 175,-79.5 175,-49 327.5,-49 327.5,-79.5"/>
<text text-anchor="start" x="183" y="-66" font-family="Helvetica,sans-Serif" font-size="10.00">edu.wpi.first.wpilibj.Counter.set</text>
<text text-anchor="middle" x="251.25" y="-54.75" font-family="Helvetica,sans-Serif" font-size="10.00">UpSource</text>
</a>
</g>
</g>
<!-- Node1&#45;&gt;Node4 -->
<g id="edge4_Node000001_Node000004" class="edge">
<title>Node1&#45;&gt;Node4</title>
<g id="a_edge4_Node000001_Node000004"><a xlink:title=" ">
<path fill="none" stroke="#63b8ff" d="M139.48,-84.59C147.29,-83.15 155.32,-81.68 163.31,-80.21"/>
<polygon fill="#63b8ff" stroke="#63b8ff" points="163.88,-83.66 173.08,-78.42 162.62,-76.78 163.88,-83.66"/>
</a>
</g>
</g>
<!-- Node5 -->
<g id="Node000005" class="node">
<title>Node5</title>
<g id="a_Node000005"><a xlink:href="classedu_1_1wpi_1_1first_1_1wpilibj_1_1_counter.html#af9b9317f2d42cbac577ed455a7a6ff44" target="_top" xlink:title=" ">
<polygon fill="white" stroke="#666666" points="327.5,-30.5 175,-30.5 175,0 327.5,0 327.5,-30.5"/>
<text text-anchor="start" x="183" y="-17" font-family="Helvetica,sans-Serif" font-size="10.00">edu.wpi.first.wpilibj.Counter.set</text>
<text text-anchor="middle" x="251.25" y="-5.75" font-family="Helvetica,sans-Serif" font-size="10.00">UpSourceEdge</text>
</a>
</g>
</g>
<!-- Node1&#45;&gt;Node5 -->
<g id="edge6_Node000001_Node000005" class="edge">
<title>Node1&#45;&gt;Node5</title>
<g id="a_edge6_Node000001_Node000005"><a xlink:title=" ">
<path fill="none" stroke="#63b8ff" d="M96.05,-81.64C116.82,-69.36 147.14,-52.36 175,-40.25 179.26,-38.4 183.71,-36.6 188.21,-34.87"/>
<polygon fill="#63b8ff" stroke="#63b8ff" points="189.19,-38.24 197.36,-31.51 186.77,-31.67 189.19,-38.24"/>
</a>
</g>
</g>
<!-- Node2&#45;&gt;Node2 -->
<g id="edge2_Node000002_Node000002" class="edge">
<title>Node2&#45;&gt;Node2</title>
<g id="a_edge2_Node000002_Node000002"><a xlink:title=" ">
<path fill="none" stroke="#63b8ff" d="M219.04,-195.99C212.47,-205.06 223.21,-213.5 251.25,-213.5 266.59,-213.5 276.75,-210.97 281.73,-207.2"/>
<polygon fill="#63b8ff" stroke="#63b8ff" points="285.16,-207.9 283.23,-197.48 278.25,-206.83 285.16,-207.9"/>
</a>
</g>
</g>
<!-- Node4&#45;&gt;Node4 -->
<g id="edge5_Node000004_Node000004" class="edge">
<title>Node4&#45;&gt;Node4</title>
<g id="a_edge5_Node000004_Node000004"><a xlink:title=" ">
<path fill="none" stroke="#63b8ff" d="M219.04,-79.99C212.47,-89.06 223.21,-97.5 251.25,-97.5 266.59,-97.5 276.75,-94.97 281.73,-91.2"/>
<polygon fill="#63b8ff" stroke="#63b8ff" points="285.16,-91.9 283.23,-81.48 278.25,-90.83 285.16,-91.9"/>
</a>
</g>
</g>
</g>
</svg>
