<?xml version="1.0" encoding="UTF-8" standalone="no"?>
<!DOCTYPE svg PUBLIC "-//W3C//DTD SVG 1.1//EN"
 "http://www.w3.org/Graphics/SVG/1.1/DTD/svg11.dtd">
<!-- Generated by graphviz version 9.0.0 (20230911.1827)
 -->
<!-- Title: edu.wpi.first.wpilibj.PWM.PWM Pages: 1 -->
<svg width="342pt" height="88pt"
 viewBox="0.00 0.00 342.25 87.50" xmlns="http://www.w3.org/2000/svg" xmlns:xlink="http://www.w3.org/1999/xlink">
<g id="graph0" class="graph" transform="scale(1 1) rotate(0) translate(4 83.5)">
<title>edu.wpi.first.wpilibj.PWM.PWM</title>
<!-- Node1 -->
<g id="Node000001" class="node">
<title>Node1</title>
<g id="a_Node000001"><a xlink:title=" ">
<polygon fill="#999999" stroke="#666666" points="154.75,-48.88 0,-48.88 0,-29.62 154.75,-29.62 154.75,-48.88"/>
<text text-anchor="middle" x="77.38" y="-35.38" font-family="Helvetica,sans-Serif" font-size="10.00">edu.wpi.first.wpilibj.PWM.PWM</text>
</a>
</g>
</g>
<!-- Node2 -->
<g id="Node000002" class="node">
<title>Node2</title>
<g id="a_Node000002"><a xlink:href="classedu_1_1wpi_1_1first_1_1wpilibj_1_1_sensor_util.html#a317024d3d0202f2eaea56577b1b9516c" target="_top" xlink:title=" ">
<polygon fill="white" stroke="#666666" points="329,-79.5 196,-79.5 196,-49 329,-49 329,-79.5"/>
<text text-anchor="start" x="204" y="-66" font-family="Helvetica,sans-Serif" font-size="10.00">edu.wpi.first.wpilibj.Sensor</text>
<text text-anchor="middle" x="262.5" y="-54.75" font-family="Helvetica,sans-Serif" font-size="10.00">Util.checkPWMChannel</text>
</a>
</g>
</g>
<!-- Node1&#45;&gt;Node2 -->
<g id="edge1_Node000001_Node000002" class="edge">
<title>Node1&#45;&gt;Node2</title>
<g id="a_edge1_Node000001_Node000002"><a xlink:title=" ">
<path fill="none" stroke="#63b8ff" d="M152.33,-49.35C162.83,-50.78 173.65,-52.26 184.21,-53.7"/>
<polygon fill="#63b8ff" stroke="#63b8ff" points="183.65,-57.15 194.03,-55.04 184.6,-50.22 183.65,-57.15"/>
</a>
</g>
</g>
<!-- Node3 -->
<g id="Node000003" class="node">
<title>Node3</title>
<g id="a_Node000003"><a xlink:href="classedu_1_1wpi_1_1first_1_1wpilibj_1_1_p_w_m.html#ade38d1a164d9185827f26238e3e76f62" target="_top" xlink:title=" ">
<polygon fill="white" stroke="#666666" points="334.25,-30.5 190.75,-30.5 190.75,0 334.25,0 334.25,-30.5"/>
<text text-anchor="start" x="198.75" y="-17" font-family="Helvetica,sans-Serif" font-size="10.00">edu.wpi.first.wpilibj.PWM.set</text>
<text text-anchor="middle" x="262.5" y="-5.75" font-family="Helvetica,sans-Serif" font-size="10.00">Disabled</text>
</a>
</g>
</g>
<!-- Node1&#45;&gt;Node3 -->
<g id="edge2_Node000001_Node000003" class="edge">
<title>Node1&#45;&gt;Node3</title>
<g id="a_edge2_Node000001_Node000003"><a xlink:title=" ">
<path fill="none" stroke="#63b8ff" d="M155.24,-29.18C163.16,-28.14 171.22,-27.08 179.2,-26.04"/>
<polygon fill="#63b8ff" stroke="#63b8ff" points="179.42,-29.54 188.88,-24.77 178.51,-22.6 179.42,-29.54"/>
</a>
</g>
</g>
</g>
</svg>
