<?xml version="1.0" encoding="UTF-8" standalone="no"?>
<!DOCTYPE svg PUBLIC "-//W3C//DTD SVG 1.1//EN"
 "http://www.w3.org/Graphics/SVG/1.1/DTD/svg11.dtd">
<!-- Generated by graphviz version 9.0.0 (20230911.1827)
 -->
<!-- Title: edu.wpi.first.wpilibj.XboxController.getBackButtonPressed Pages: 1 -->
<svg width="864pt" height="106pt"
 viewBox="0.00 0.00 863.50 105.50" xmlns="http://www.w3.org/2000/svg" xmlns:xlink="http://www.w3.org/1999/xlink">
<g id="graph0" class="graph" transform="scale(1 1) rotate(0) translate(4 101.5)">
<title>edu.wpi.first.wpilibj.XboxController.getBackButtonPressed</title>
<!-- Node1 -->
<g id="Node000001" class="node">
<title>Node1</title>
<g id="a_Node000001"><a xlink:title=" ">
<polygon fill="#999999" stroke="#666666" points="160.75,-54.5 0,-54.5 0,-24 160.75,-24 160.75,-54.5"/>
<text text-anchor="start" x="8" y="-41" font-family="Helvetica,sans-Serif" font-size="10.00">edu.wpi.first.wpilibj.Xbox</text>
<text text-anchor="middle" x="80.38" y="-29.75" font-family="Helvetica,sans-Serif" font-size="10.00">Controller.getBackButtonPressed</text>
</a>
</g>
</g>
<!-- Node2 -->
<g id="Node000002" class="node">
<title>Node2</title>
<g id="a_Node000002"><a xlink:href="classedu_1_1wpi_1_1first_1_1wpilibj_1_1_generic_h_i_d.html#a097c775f0ef764796523a65f8f3b688d" target="_top" xlink:title=" ">
<polygon fill="white" stroke="#666666" points="332.75,-54.5 196.75,-54.5 196.75,-24 332.75,-24 332.75,-54.5"/>
<text text-anchor="start" x="204.75" y="-41" font-family="Helvetica,sans-Serif" font-size="10.00">edu.wpi.first.wpilibj.Generic</text>
<text text-anchor="middle" x="264.75" y="-29.75" font-family="Helvetica,sans-Serif" font-size="10.00">HID.getRawButtonPressed</text>
</a>
</g>
</g>
<!-- Node1&#45;&gt;Node2 -->
<g id="edge1_Node000001_Node000002" class="edge">
<title>Node1&#45;&gt;Node2</title>
<g id="a_edge1_Node000001_Node000002"><a xlink:title=" ">
<path fill="none" stroke="#63b8ff" d="M161.1,-39.25C169.02,-39.25 177.06,-39.25 184.97,-39.25"/>
<polygon fill="#63b8ff" stroke="#63b8ff" points="184.93,-42.75 194.93,-39.25 184.93,-35.75 184.93,-42.75"/>
</a>
</g>
</g>
<!-- Node3 -->
<g id="Node000003" class="node">
<title>Node3</title>
<g id="a_Node000003"><a xlink:href="classedu_1_1wpi_1_1first_1_1wpilibj_1_1_generic_h_i_d.html#a77f3feaa9b70759aa7e26c20bec4bec2" target="_top" xlink:title=" ">
<polygon fill="white" stroke="#666666" points="511.88,-79.5 375.88,-79.5 375.88,-49 511.88,-49 511.88,-79.5"/>
<text text-anchor="start" x="383.88" y="-66" font-family="Helvetica,sans-Serif" font-size="10.00">edu.wpi.first.wpilibj.Generic</text>
<text text-anchor="middle" x="443.88" y="-54.75" font-family="Helvetica,sans-Serif" font-size="10.00">HID.button</text>
</a>
</g>
</g>
<!-- Node2&#45;&gt;Node3 -->
<g id="edge2_Node000002_Node000003" class="edge">
<title>Node2&#45;&gt;Node3</title>
<g id="a_edge2_Node000002_Node000003"><a xlink:title=" ">
<path fill="none" stroke="#63b8ff" d="M333.22,-48.77C343.41,-50.21 354,-51.71 364.41,-53.17"/>
<polygon fill="#63b8ff" stroke="#63b8ff" points="363.7,-56.61 374.1,-54.54 364.68,-49.68 363.7,-56.61"/>
</a>
</g>
</g>
<!-- Node6 -->
<g id="Node000006" class="node">
<title>Node6</title>
<g id="a_Node000006"><a xlink:href="classedu_1_1wpi_1_1first_1_1wpilibj_1_1_driver_station.html#acb9b90660a171dbd6a9b9717f0213f92" target="_top" xlink:title=" ">
<polygon fill="white" stroke="#666666" points="519,-30.5 368.75,-30.5 368.75,0 519,0 519,-30.5"/>
<text text-anchor="start" x="376.75" y="-17" font-family="Helvetica,sans-Serif" font-size="10.00">edu.wpi.first.wpilibj.Driver</text>
<text text-anchor="middle" x="443.88" y="-5.75" font-family="Helvetica,sans-Serif" font-size="10.00">Station.getStickButtonPressed</text>
</a>
</g>
</g>
<!-- Node2&#45;&gt;Node6 -->
<g id="edge7_Node000002_Node000006" class="edge">
<title>Node2&#45;&gt;Node6</title>
<g id="a_edge7_Node000002_Node000006"><a xlink:title=" ">
<path fill="none" stroke="#63b8ff" d="M333.22,-30.11C341.06,-29.05 349.13,-27.95 357.18,-26.86"/>
<polygon fill="#63b8ff" stroke="#63b8ff" points="357.56,-30.34 367,-25.53 356.62,-23.41 357.56,-30.34"/>
</a>
</g>
</g>
<!-- Node3&#45;&gt;Node3 -->
<g id="edge3_Node000003_Node000003" class="edge">
<title>Node3&#45;&gt;Node3</title>
<g id="a_edge3_Node000003_Node000003"><a xlink:title=" ">
<path fill="none" stroke="#63b8ff" d="M412.13,-79.99C405.66,-89.06 416.24,-97.5 443.88,-97.5 458.99,-97.5 469,-94.97 473.91,-91.2"/>
<polygon fill="#63b8ff" stroke="#63b8ff" points="477.35,-91.89 475.39,-81.48 470.43,-90.84 477.35,-91.89"/>
</a>
</g>
</g>
<!-- Node4 -->
<g id="Node000004" class="node">
<title>Node4</title>
<g id="a_Node000004"><a xlink:href="classedu_1_1wpi_1_1first_1_1wpilibj_1_1_generic_h_i_d.html#abdb0245e5cb7f7b92cc1060202821a2d" target="_top" xlink:title=" ">
<polygon fill="white" stroke="#666666" points="691,-79.5 555,-79.5 555,-49 691,-49 691,-79.5"/>
<text text-anchor="start" x="563" y="-66" font-family="Helvetica,sans-Serif" font-size="10.00">edu.wpi.first.wpilibj.Generic</text>
<text text-anchor="middle" x="623" y="-54.75" font-family="Helvetica,sans-Serif" font-size="10.00">HID.getRawButton</text>
</a>
</g>
</g>
<!-- Node3&#45;&gt;Node4 -->
<g id="edge4_Node000003_Node000004" class="edge">
<title>Node3&#45;&gt;Node4</title>
<g id="a_edge4_Node000003_Node000004"><a xlink:title=" ">
<path fill="none" stroke="#63b8ff" d="M512.34,-57.67C522.54,-57.5 533.13,-57.46 543.53,-57.54"/>
<polygon fill="#63b8ff" stroke="#63b8ff" points="543.16,-61.03 553.21,-57.66 543.25,-54.04 543.16,-61.03"/>
</a>
</g>
</g>
<!-- Node4&#45;&gt;Node3 -->
<g id="edge5_Node000004_Node000003" class="edge">
<title>Node4&#45;&gt;Node3</title>
<g id="a_edge5_Node000004_Node000003"><a xlink:title=" ">
<path fill="none" stroke="#63b8ff" d="M554.72,-70.82C544.53,-71 533.94,-71.04 523.53,-70.96"/>
<polygon fill="#63b8ff" stroke="#63b8ff" points="523.9,-67.47 513.86,-70.85 523.81,-74.47 523.9,-67.47"/>
</a>
</g>
</g>
<!-- Node5 -->
<g id="Node000005" class="node">
<title>Node5</title>
<g id="a_Node000005"><a xlink:href="classedu_1_1wpi_1_1first_1_1wpilibj_1_1_driver_station.html#a3d86d4b8414c05aafe18fc866d99ccab" target="_top" xlink:title=" ">
<polygon fill="white" stroke="#666666" points="855.5,-79.5 727,-79.5 727,-49 855.5,-49 855.5,-79.5"/>
<text text-anchor="start" x="735" y="-66" font-family="Helvetica,sans-Serif" font-size="10.00">edu.wpi.first.wpilibj.Driver</text>
<text text-anchor="middle" x="791.25" y="-54.75" font-family="Helvetica,sans-Serif" font-size="10.00">Station.getStickButton</text>
</a>
</g>
</g>
<!-- Node4&#45;&gt;Node5 -->
<g id="edge6_Node000004_Node000005" class="edge">
<title>Node4&#45;&gt;Node5</title>
<g id="a_edge6_Node000004_Node000005"><a xlink:title=" ">
<path fill="none" stroke="#63b8ff" d="M691.14,-64.25C699.1,-64.25 707.27,-64.25 715.33,-64.25"/>
<polygon fill="#63b8ff" stroke="#63b8ff" points="715.12,-67.75 725.12,-64.25 715.12,-60.75 715.12,-67.75"/>
</a>
</g>
</g>
</g>
</svg>
