<?xml version="1.0" encoding="UTF-8" standalone="no"?>
<!DOCTYPE svg PUBLIC "-//W3C//DTD SVG 1.1//EN"
 "http://www.w3.org/Graphics/SVG/1.1/DTD/svg11.dtd">
<!-- Generated by graphviz version 9.0.0 (20230911.1827)
 -->
<!-- Title: edu.wpi.first.wpilibj.sysid.SysIdRoutineLog.MotorLog.voltage Pages: 1 -->
<svg width="692pt" height="57pt"
 viewBox="0.00 0.00 692.25 56.50" xmlns="http://www.w3.org/2000/svg" xmlns:xlink="http://www.w3.org/1999/xlink">
<g id="graph0" class="graph" transform="scale(1 1) rotate(0) translate(4 52.5)">
<title>edu.wpi.first.wpilibj.sysid.SysIdRoutineLog.MotorLog.voltage</title>
<!-- Node1 -->
<g id="Node000001" class="node">
<title>Node1</title>
<g id="a_Node000001"><a xlink:title=" ">
<polygon fill="#999999" stroke="#666666" points="169,-30.5 0,-30.5 0,0 169,0 169,-30.5"/>
<text text-anchor="start" x="8" y="-17" font-family="Helvetica,sans-Serif" font-size="10.00">edu.wpi.first.wpilibj.sysid.</text>
<text text-anchor="middle" x="84.5" y="-5.75" font-family="Helvetica,sans-Serif" font-size="10.00">SysIdRoutineLog.MotorLog.voltage</text>
</a>
</g>
</g>
<!-- Node1&#45;&gt;Node1 -->
<g id="edge6_Node000001_Node000001" class="edge">
<title>Node1&#45;&gt;Node1</title>
<g id="a_edge6_Node000001_Node000001"><a xlink:title=" ">
<path fill="none" stroke="#63b8ff" d="M48.9,-30.99C41.64,-40.06 53.51,-48.5 84.5,-48.5 101.45,-48.5 112.68,-45.97 118.19,-42.2"/>
<polygon fill="#63b8ff" stroke="#63b8ff" points="121.61,-42.92 119.84,-32.48 114.71,-41.75 121.61,-42.92"/>
</a>
</g>
</g>
<!-- Node2 -->
<g id="Node000002" class="node">
<title>Node2</title>
<g id="a_Node000002"><a xlink:href="classedu_1_1wpi_1_1first_1_1wpilibj_1_1sysid_1_1_sys_id_routine_log_1_1_motor_log.html#ad94eb9190fc67490eccef94c66e57796" target="_top" xlink:title=" ">
<polygon fill="white" stroke="#666666" points="365.75,-30.5 205,-30.5 205,0 365.75,0 365.75,-30.5"/>
<text text-anchor="start" x="213" y="-17" font-family="Helvetica,sans-Serif" font-size="10.00">edu.wpi.first.wpilibj.sysid.</text>
<text text-anchor="middle" x="285.38" y="-5.75" font-family="Helvetica,sans-Serif" font-size="10.00">SysIdRoutineLog.MotorLog.value</text>
</a>
</g>
</g>
<!-- Node1&#45;&gt;Node2 -->
<g id="edge1_Node000001_Node000002" class="edge">
<title>Node1&#45;&gt;Node2</title>
<g id="a_edge1_Node000001_Node000002"><a xlink:title=" ">
<path fill="none" stroke="#63b8ff" d="M169.26,-15.25C177.2,-15.25 185.27,-15.25 193.28,-15.25"/>
<polygon fill="#63b8ff" stroke="#63b8ff" points="193,-18.75 203,-15.25 193,-11.75 193,-18.75"/>
</a>
</g>
</g>
<!-- Node2&#45;&gt;Node2 -->
<g id="edge5_Node000002_Node000002" class="edge">
<title>Node2&#45;&gt;Node2</title>
<g id="a_edge5_Node000002_Node000002"><a xlink:title=" ">
<path fill="none" stroke="#63b8ff" d="M253.83,-30.99C247.4,-40.06 257.91,-48.5 285.38,-48.5 300.39,-48.5 310.35,-45.97 315.23,-42.2"/>
<polygon fill="#63b8ff" stroke="#63b8ff" points="318.66,-42.89 316.69,-32.48 311.74,-41.85 318.66,-42.89"/>
</a>
</g>
</g>
<!-- Node3 -->
<g id="Node000003" class="node">
<title>Node3</title>
<g id="a_Node000003"><a xlink:href="classedu_1_1wpi_1_1first_1_1wpilibj_1_1_data_log_manager.html#a4a1da47a520115917eaad1cb82a6e667" target="_top" xlink:title=" ">
<polygon fill="white" stroke="#666666" points="525,-30.5 401.75,-30.5 401.75,0 525,0 525,-30.5"/>
<text text-anchor="start" x="409.75" y="-17" font-family="Helvetica,sans-Serif" font-size="10.00">edu.wpi.first.wpilibj.Data</text>
<text text-anchor="middle" x="463.38" y="-5.75" font-family="Helvetica,sans-Serif" font-size="10.00">LogManager.getLog</text>
</a>
</g>
</g>
<!-- Node2&#45;&gt;Node3 -->
<g id="edge2_Node000002_Node000003" class="edge">
<title>Node2&#45;&gt;Node3</title>
<g id="a_edge2_Node000002_Node000003"><a xlink:title=" ">
<path fill="none" stroke="#63b8ff" d="M366.14,-15.25C374.08,-15.25 382.11,-15.25 389.98,-15.25"/>
<polygon fill="#63b8ff" stroke="#63b8ff" points="389.83,-18.75 399.83,-15.25 389.83,-11.75 389.83,-18.75"/>
</a>
</g>
</g>
<!-- Node4 -->
<g id="Node000004" class="node">
<title>Node4</title>
<g id="a_Node000004"><a xlink:href="classedu_1_1wpi_1_1first_1_1wpilibj_1_1_data_log_manager.html#abc3578ab5f29ed2c259cc53b594f39c6" target="_top" xlink:title=" ">
<polygon fill="white" stroke="#666666" points="684.25,-30.5 561,-30.5 561,0 684.25,0 684.25,-30.5"/>
<text text-anchor="start" x="569" y="-17" font-family="Helvetica,sans-Serif" font-size="10.00">edu.wpi.first.wpilibj.Data</text>
<text text-anchor="middle" x="622.62" y="-5.75" font-family="Helvetica,sans-Serif" font-size="10.00">LogManager.start</text>
</a>
</g>
</g>
<!-- Node3&#45;&gt;Node4 -->
<g id="edge3_Node000003_Node000004" class="edge">
<title>Node3&#45;&gt;Node4</title>
<g id="a_edge3_Node000003_Node000004"><a xlink:title=" ">
<path fill="none" stroke="#63b8ff" d="M525.17,-15.25C533.1,-15.25 541.29,-15.25 549.38,-15.25"/>
<polygon fill="#63b8ff" stroke="#63b8ff" points="549.22,-18.75 559.22,-15.25 549.22,-11.75 549.22,-18.75"/>
</a>
</g>
</g>
<!-- Node4&#45;&gt;Node4 -->
<g id="edge4_Node000004_Node000004" class="edge">
<title>Node4&#45;&gt;Node4</title>
<g id="a_edge4_Node000004_Node000004"><a xlink:title=" ">
<path fill="none" stroke="#63b8ff" d="M594.41,-30.99C588.65,-40.06 598.05,-48.5 622.62,-48.5 636.06,-48.5 644.96,-45.97 649.33,-42.2"/>
<polygon fill="#63b8ff" stroke="#63b8ff" points="652.77,-42.86 650.64,-32.49 645.84,-41.93 652.77,-42.86"/>
</a>
</g>
</g>
</g>
</svg>
