<?xml version="1.0" encoding="UTF-8" standalone="no"?>
<!DOCTYPE svg PUBLIC "-//W3C//DTD SVG 1.1//EN"
 "http://www.w3.org/Graphics/SVG/1.1/DTD/svg11.dtd">
<!-- Generated by graphviz version 9.0.0 (20230911.1827)
 -->
<!-- Title: edu.wpi.first.wpilibj.XboxController.getLeftStickButtonPressed Pages: 1 -->
<!--zoomable 106 -->

<svg id="main" version="1.1" xmlns="http://www.w3.org/2000/svg" xmlns:xlink="http://www.w3.org/1999/xlink" xml:space="preserve" onload="init(evt)">
<style type="text/css"><![CDATA[
.node, .edge {opacity: 0.7;}
.node.selected, .edge.selected {opacity: 1;}
.edge:hover path { stroke: red; }
.edge:hover polygon { stroke: red; fill: red; }
]]></style>

<defs>
  <circle id="rim" cx="0" cy="0" r="7"/>
  <circle id="rim2" cx="0" cy="0" r="3.5"/>
  <g id="zoomPlus">
    <use xlink:href="#rim" fill="#404040"><set attributeName="fill" to="#808080" begin="zoomplus.mouseover" end="zoomplus.mouseout"/></use>
    <path d="M-4,0h8M0,-4v8" fill="none" stroke="white" stroke-width="1.5" pointer-events="none"/>
  </g>
  <g id="zoomMin">
    <use xlink:href="#rim" fill="#404040"><set attributeName="fill" to="#808080" begin="zoomminus.mouseover" end="zoomminus.mouseout"/></use>
    <path d="M-4,0h8" fill="none" stroke="white" stroke-width="1.5" pointer-events="none"/>
  </g>
  <g id="arrowUp" transform="translate(30 24)">
    <use xlink:href="#rim"/>
    <path pointer-events="none" fill="none" stroke="white" stroke-width="1.5" d="M0,-3.0v7 M-2.5,-0.5L0,-3.0L2.5,-0.5"/>
  </g>
  <g id="arrowRight" transform="rotate(90) translate(36 -43)">
    <use xlink:href="#rim"/>
    <path pointer-events="none" fill="none" stroke="white" stroke-width="1.5" d="M0,-3.0v7 M-2.5,-0.5L0,-3.0L2.5,-0.5"/>
  </g>
  <g id="arrowDown" transform="rotate(180) translate(-30 -48)">
    <use xlink:href="#rim"/>
    <path pointer-events="none" fill="none" stroke="white" stroke-width="1.5" d="M0,-3.0v7 M-2.5,-0.5L0,-3.0L2.5,-0.5"/>
  </g>
  <g id="arrowLeft" transform="rotate(270) translate(-36 17)">
    <use xlink:href="#rim"/>
    <path pointer-events="none" fill="none" stroke="white" stroke-width="1.5" d="M0,-3.0v7 M-2.5,-0.5L0,-3.0L2.5,-0.5"/>
  </g>
  <g id="resetDef">
    <use xlink:href="#rim2" fill="#404040"><set attributeName="fill" to="#808080" begin="reset.mouseover" end="reset.mouseout"/></use>
  </g>
</defs>
<script type="application/ecmascript">
var viewWidth = 880;
var viewHeight = 106;
var sectionId = 'dynsection-15';
</script>
<script type="application/ecmascript" xlink:href="svg.min.js"/>
<svg id="graph" class="graph">
<g id="viewport">
<title>edu.wpi.first.wpilibj.XboxController.getLeftStickButtonPressed</title>
<!-- Node1 -->
<g id="Node000001" class="node">
<title>Node1</title>
<g id="a_Node000001"><a xlink:title=" ">
<polygon fill="#999999" stroke="#666666" points="177.25,-54.5 0,-54.5 0,-24 177.25,-24 177.25,-54.5"/>
<text text-anchor="start" x="8" y="-41" font-family="Helvetica,sans-Serif" font-size="10.00">edu.wpi.first.wpilibj.Xbox</text>
<text text-anchor="middle" x="88.62" y="-29.75" font-family="Helvetica,sans-Serif" font-size="10.00">Controller.getLeftStickButtonPressed</text>
</a>
</g>
</g>
<!-- Node2 -->
<g id="Node000002" class="node">
<title>Node2</title>
<g id="a_Node000002"><a xlink:href="classedu_1_1wpi_1_1first_1_1wpilibj_1_1_generic_h_i_d.html#a097c775f0ef764796523a65f8f3b688d" target="_top" xlink:title=" ">
<polygon fill="white" stroke="#666666" points="349.25,-54.5 213.25,-54.5 213.25,-24 349.25,-24 349.25,-54.5"/>
<text text-anchor="start" x="221.25" y="-41" font-family="Helvetica,sans-Serif" font-size="10.00">edu.wpi.first.wpilibj.Generic</text>
<text text-anchor="middle" x="281.25" y="-29.75" font-family="Helvetica,sans-Serif" font-size="10.00">HID.getRawButtonPressed</text>
</a>
</g>
</g>
<!-- Node1&#45;&gt;Node2 -->
<g id="edge1_Node000001_Node000002" class="edge">
<title>Node1&#45;&gt;Node2</title>
<g id="a_edge1_Node000001_Node000002"><a xlink:title=" ">
<path fill="none" stroke="#63b8ff" d="M177.68,-39.25C185.61,-39.25 193.61,-39.25 201.46,-39.25"/>
<polygon fill="#63b8ff" stroke="#63b8ff" points="201.3,-42.75 211.3,-39.25 201.3,-35.75 201.3,-42.75"/>
</a>
</g>
</g>
<!-- Node3 -->
<g id="Node000003" class="node">
<title>Node3</title>
<g id="a_Node000003"><a xlink:href="classedu_1_1wpi_1_1first_1_1wpilibj_1_1_generic_h_i_d.html#a77f3feaa9b70759aa7e26c20bec4bec2" target="_top" xlink:title=" ">
<polygon fill="white" stroke="#666666" points="528.38,-79.5 392.38,-79.5 392.38,-49 528.38,-49 528.38,-79.5"/>
<text text-anchor="start" x="400.38" y="-66" font-family="Helvetica,sans-Serif" font-size="10.00">edu.wpi.first.wpilibj.Generic</text>
<text text-anchor="middle" x="460.38" y="-54.75" font-family="Helvetica,sans-Serif" font-size="10.00">HID.button</text>
</a>
</g>
</g>
<!-- Node2&#45;&gt;Node3 -->
<g id="edge2_Node000002_Node000003" class="edge">
<title>Node2&#45;&gt;Node3</title>
<g id="a_edge2_Node000002_Node000003"><a xlink:title=" ">
<path fill="none" stroke="#63b8ff" d="M349.72,-48.77C359.91,-50.21 370.5,-51.71 380.91,-53.17"/>
<polygon fill="#63b8ff" stroke="#63b8ff" points="380.2,-56.61 390.6,-54.54 381.18,-49.68 380.2,-56.61"/>
</a>
</g>
</g>
<!-- Node6 -->
<g id="Node000006" class="node">
<title>Node6</title>
<g id="a_Node000006"><a xlink:href="classedu_1_1wpi_1_1first_1_1wpilibj_1_1_driver_station.html#acb9b90660a171dbd6a9b9717f0213f92" target="_top" xlink:title=" ">
<polygon fill="white" stroke="#666666" points="535.5,-30.5 385.25,-30.5 385.25,0 535.5,0 535.5,-30.5"/>
<text text-anchor="start" x="393.25" y="-17" font-family="Helvetica,sans-Serif" font-size="10.00">edu.wpi.first.wpilibj.Driver</text>
<text text-anchor="middle" x="460.38" y="-5.75" font-family="Helvetica,sans-Serif" font-size="10.00">Station.getStickButtonPressed</text>
</a>
</g>
</g>
<!-- Node2&#45;&gt;Node6 -->
<g id="edge7_Node000002_Node000006" class="edge">
<title>Node2&#45;&gt;Node6</title>
<g id="a_edge7_Node000002_Node000006"><a xlink:title=" ">
<path fill="none" stroke="#63b8ff" d="M349.72,-30.11C357.56,-29.05 365.63,-27.95 373.68,-26.86"/>
<polygon fill="#63b8ff" stroke="#63b8ff" points="374.06,-30.34 383.5,-25.53 373.12,-23.41 374.06,-30.34"/>
</a>
</g>
</g>
<!-- Node3&#45;&gt;Node3 -->
<g id="edge3_Node000003_Node000003" class="edge">
<title>Node3&#45;&gt;Node3</title>
<g id="a_edge3_Node000003_Node000003"><a xlink:title=" ">
<path fill="none" stroke="#63b8ff" d="M428.63,-79.99C422.16,-89.06 432.74,-97.5 460.38,-97.5 475.49,-97.5 485.5,-94.97 490.41,-91.2"/>
<polygon fill="#63b8ff" stroke="#63b8ff" points="493.85,-91.89 491.89,-81.48 486.93,-90.84 493.85,-91.89"/>
</a>
</g>
</g>
<!-- Node4 -->
<g id="Node000004" class="node">
<title>Node4</title>
<g id="a_Node000004"><a xlink:href="classedu_1_1wpi_1_1first_1_1wpilibj_1_1_generic_h_i_d.html#abdb0245e5cb7f7b92cc1060202821a2d" target="_top" xlink:title=" ">
<polygon fill="white" stroke="#666666" points="707.5,-79.5 571.5,-79.5 571.5,-49 707.5,-49 707.5,-79.5"/>
<text text-anchor="start" x="579.5" y="-66" font-family="Helvetica,sans-Serif" font-size="10.00">edu.wpi.first.wpilibj.Generic</text>
<text text-anchor="middle" x="639.5" y="-54.75" font-family="Helvetica,sans-Serif" font-size="10.00">HID.getRawButton</text>
</a>
</g>
</g>
<!-- Node3&#45;&gt;Node4 -->
<g id="edge4_Node000003_Node000004" class="edge">
<title>Node3&#45;&gt;Node4</title>
<g id="a_edge4_Node000003_Node000004"><a xlink:title=" ">
<path fill="none" stroke="#63b8ff" d="M528.84,-57.67C539.04,-57.5 549.63,-57.46 560.03,-57.54"/>
<polygon fill="#63b8ff" stroke="#63b8ff" points="559.66,-61.03 569.71,-57.66 559.75,-54.04 559.66,-61.03"/>
</a>
</g>
</g>
<!-- Node4&#45;&gt;Node3 -->
<g id="edge5_Node000004_Node000003" class="edge">
<title>Node4&#45;&gt;Node3</title>
<g id="a_edge5_Node000004_Node000003"><a xlink:title=" ">
<path fill="none" stroke="#63b8ff" d="M571.22,-70.82C561.03,-71 550.44,-71.04 540.03,-70.96"/>
<polygon fill="#63b8ff" stroke="#63b8ff" points="540.4,-67.47 530.36,-70.85 540.31,-74.47 540.4,-67.47"/>
</a>
</g>
</g>
<!-- Node5 -->
<g id="Node000005" class="node">
<title>Node5</title>
<g id="a_Node000005"><a xlink:href="classedu_1_1wpi_1_1first_1_1wpilibj_1_1_driver_station.html#a3d86d4b8414c05aafe18fc866d99ccab" target="_top" xlink:title=" ">
<polygon fill="white" stroke="#666666" points="872,-79.5 743.5,-79.5 743.5,-49 872,-49 872,-79.5"/>
<text text-anchor="start" x="751.5" y="-66" font-family="Helvetica,sans-Serif" font-size="10.00">edu.wpi.first.wpilibj.Driver</text>
<text text-anchor="middle" x="807.75" y="-54.75" font-family="Helvetica,sans-Serif" font-size="10.00">Station.getStickButton</text>
</a>
</g>
</g>
<!-- Node4&#45;&gt;Node5 -->
<g id="edge6_Node000004_Node000005" class="edge">
<title>Node4&#45;&gt;Node5</title>
<g id="a_edge6_Node000004_Node000005"><a xlink:title=" ">
<path fill="none" stroke="#63b8ff" d="M707.64,-64.25C715.6,-64.25 723.77,-64.25 731.83,-64.25"/>
<polygon fill="#63b8ff" stroke="#63b8ff" points="731.62,-67.75 741.62,-64.25 731.62,-60.75 731.62,-67.75"/>
</a>
</g>
</g>
</g>
</svg>

<g id="navigator" transform="translate(0 0)" fill="#404254">
  <rect fill="#f2f5e9" fill-opacity="0.5" stroke="#606060" stroke-width=".5" x="0" y="0" width="60" height="60"/>
  <use id="zoomplus" xlink:href="#zoomPlus" x="17" y="9" onmousedown="handleZoom(evt,'in')"/>
  <use id="zoomminus" xlink:href="#zoomMin" x="42" y="9" onmousedown="handleZoom(evt,'out')"/>
  <use id="reset" xlink:href="#resetDef" x="30" y="36" onmousedown="handleReset()"/>
   <use id="arrowup" xlink:href="#arrowUp" x="0" y="0" onmousedown="handlePan(0,-1)"/>
  <use id="arrowright" xlink:href="#arrowRight" x="0" y="0" onmousedown="handlePan(1,0)"/>
  <use id="arrowdown" xlink:href="#arrowDown" x="0" y="0" onmousedown="handlePan(0,1)"/>
  <use id="arrowleft" xlink:href="#arrowLeft" x="0" y="0" onmousedown="handlePan(-1,0)"/>
</g>
<svg viewBox="0 0 15 15" width="100%" height="30px" preserveAspectRatio="xMaxYMin meet">
 <g id="arrow_out" transform="scale(0.3 0.3)">
  <a xlink:href="classedu_1_1wpi_1_1first_1_1wpilibj_1_1_xbox_controller_a1c4cd1532ad9719b452319b4da7690e9_cgraph_org.svg" target="_base">
   <rect id="button" ry="5" rx="5" y="6" x="6" height="38" width="38"
        fill="#f2f5e9" fill-opacity="0.5" stroke="#606060" stroke-width="1.0"/>
   <path id="arrow"
     d="M 11.500037,31.436501 C 11.940474,20.09759 22.043105,11.32322 32.158766,21.979434 L 37.068811,17.246167 C 37.068811,17.246167 37.088388,32 37.088388,32 L 22.160133,31.978069 C 22.160133,31.978069 26.997745,27.140456 26.997745,27.140456 C 18.528582,18.264221 13.291696,25.230495 11.500037,31.436501 z"
     style="fill:#404040;"/>
  </a>
 </g>
</svg>

<style type='text/css'>
<![CDATA[
[data-mouse-over-selected='false'] { opacity: 0.7; }
[data-mouse-over-selected='true']  { opacity: 1.0; }
]]>
</style>
<script type="application/ecmascript"><![CDATA[
document.addEventListener('DOMContentLoaded', (event) => {
  highlightEdges();
  highlightAdjacentNodes();
});
]]></script>
</svg>
