<?xml version="1.0" encoding="UTF-8" standalone="no"?>
<!DOCTYPE svg PUBLIC "-//W3C//DTD SVG 1.1//EN"
 "http://www.w3.org/Graphics/SVG/1.1/DTD/svg11.dtd">
<!-- Generated by graphviz version 9.0.0 (20230911.1827)
 -->
<!-- Title: edu.wpi.first.wpilibj.motorcontrol.MotorControllerGroup Pages: 1 -->
<svg width="340pt" height="105pt"
 viewBox="0.00 0.00 339.50 105.00" xmlns="http://www.w3.org/2000/svg" xmlns:xlink="http://www.w3.org/1999/xlink">
<g id="graph0" class="graph" transform="scale(1 1) rotate(0) translate(4 101)">
<title>edu.wpi.first.wpilibj.motorcontrol.MotorControllerGroup</title>
<!-- Node1 -->
<g id="Node000001" class="node">
<title>Node1</title>
<g id="a_Node000001"><a xlink:title=" ">
<polygon fill="#999999" stroke="#666666" points="285.25,-30.5 126,-30.5 126,0 285.25,0 285.25,-30.5"/>
<text text-anchor="start" x="134" y="-17" font-family="Helvetica,sans-Serif" font-size="10.00">edu.wpi.first.wpilibj.motorcontrol.</text>
<text text-anchor="middle" x="205.62" y="-5.75" font-family="Helvetica,sans-Serif" font-size="10.00">MotorControllerGroup</text>
</a>
</g>
</g>
<!-- Node2 -->
<g id="Node000002" class="node">
<title>Node2</title>
<g id="a_Node000002"><a xlink:href="interfaceedu_1_1wpi_1_1first_1_1wpilibj_1_1motorcontrol_1_1_motor_controller.html" target="_top" xlink:title=" ">
<polygon fill="white" stroke="#666666" points="159.25,-97 0,-97 0,-66.5 159.25,-66.5 159.25,-97"/>
<text text-anchor="start" x="8" y="-83.5" font-family="Helvetica,sans-Serif" font-size="10.00">edu.wpi.first.wpilibj.motorcontrol.</text>
<text text-anchor="middle" x="79.62" y="-72.25" font-family="Helvetica,sans-Serif" font-size="10.00">MotorController</text>
</a>
</g>
</g>
<!-- Node2&#45;&gt;Node1 -->
<g id="edge1_Node000001_Node000002" class="edge">
<title>Node2&#45;&gt;Node1</title>
<g id="a_edge1_Node000001_Node000002"><a xlink:title=" ">
<path fill="none" stroke="#63b8ff" d="M118.35,-60.93C137.32,-51.21 159.77,-39.72 177.15,-30.83"/>
<polygon fill="#63b8ff" stroke="#63b8ff" points="116.87,-57.75 109.56,-65.42 120.06,-63.98 116.87,-57.75"/>
</a>
</g>
</g>
<!-- Node3 -->
<g id="Node000003" class="node">
<title>Node3</title>
<g id="a_Node000003"><a xlink:title=" ">
<polygon fill="white" stroke="#bfbfbf" points="233.88,-91.38 177.38,-91.38 177.38,-72.12 233.88,-72.12 233.88,-91.38"/>
<text text-anchor="middle" x="205.62" y="-77.88" font-family="Helvetica,sans-Serif" font-size="10.00">Sendable</text>
</a>
</g>
</g>
<!-- Node3&#45;&gt;Node1 -->
<g id="edge2_Node000001_Node000003" class="edge">
<title>Node3&#45;&gt;Node1</title>
<g id="a_edge2_Node000001_Node000003"><a xlink:title=" ">
<path fill="none" stroke="#63b8ff" d="M205.62,-60.37C205.62,-50.69 205.62,-39.35 205.62,-30.59"/>
<polygon fill="#63b8ff" stroke="#63b8ff" points="202.13,-60.27 205.63,-70.27 209.13,-60.27 202.13,-60.27"/>
</a>
</g>
</g>
<!-- Node4 -->
<g id="Node000004" class="node">
<title>Node4</title>
<g id="a_Node000004"><a xlink:title=" ">
<polygon fill="white" stroke="#bfbfbf" points="331.5,-91.38 251.75,-91.38 251.75,-72.12 331.5,-72.12 331.5,-91.38"/>
<text text-anchor="middle" x="291.62" y="-77.88" font-family="Helvetica,sans-Serif" font-size="10.00">AutoCloseable</text>
</a>
</g>
</g>
<!-- Node4&#45;&gt;Node1 -->
<g id="edge3_Node000001_Node000004" class="edge">
<title>Node4&#45;&gt;Node1</title>
<g id="a_edge3_Node000001_Node000004"><a xlink:title=" ">
<path fill="none" stroke="#63b8ff" d="M270.82,-65.15C256.9,-54.71 238.71,-41.06 225.08,-30.84"/>
<polygon fill="#63b8ff" stroke="#63b8ff" points="268.36,-67.67 278.46,-70.87 272.56,-62.07 268.36,-67.67"/>
</a>
</g>
</g>
</g>
</svg>
