<?xml version="1.0" encoding="UTF-8" standalone="no"?>
<!DOCTYPE svg PUBLIC "-//W3C//DTD SVG 1.1//EN"
 "http://www.w3.org/Graphics/SVG/1.1/DTD/svg11.dtd">
<!-- Generated by graphviz version 9.0.0 (20230911.1827)
 -->
<!-- Title: edu.wpi.first.wpilibj.counter.Tachometer.getRevolutionsPerSecond Pages: 1 -->
<svg width="399pt" height="88pt"
 viewBox="0.00 0.00 398.50 87.50" xmlns="http://www.w3.org/2000/svg" xmlns:xlink="http://www.w3.org/1999/xlink">
<g id="graph0" class="graph" transform="scale(1 1) rotate(0) translate(4 83.5)">
<title>edu.wpi.first.wpilibj.counter.Tachometer.getRevolutionsPerSecond</title>
<!-- Node1 -->
<g id="Node000001" class="node">
<title>Node1</title>
<g id="a_Node000001"><a xlink:title=" ">
<polygon fill="#999999" stroke="#666666" points="182.5,-54.5 0,-54.5 0,-24 182.5,-24 182.5,-54.5"/>
<text text-anchor="start" x="8" y="-41" font-family="Helvetica,sans-Serif" font-size="10.00">edu.wpi.first.wpilibj.counter.</text>
<text text-anchor="middle" x="91.25" y="-29.75" font-family="Helvetica,sans-Serif" font-size="10.00">Tachometer.getRevolutionsPerSecond</text>
</a>
</g>
</g>
<!-- Node2 -->
<g id="Node000002" class="node">
<title>Node2</title>
<g id="a_Node000002"><a xlink:href="classedu_1_1wpi_1_1first_1_1wpilibj_1_1counter_1_1_tachometer.html#ac50d24a7d189212da491e2829b162f01" target="_top" xlink:title=" ">
<polygon fill="white" stroke="#666666" points="390.5,-79.5 218.5,-79.5 218.5,-49 390.5,-49 390.5,-79.5"/>
<text text-anchor="start" x="226.5" y="-66" font-family="Helvetica,sans-Serif" font-size="10.00">edu.wpi.first.wpilibj.counter.</text>
<text text-anchor="middle" x="304.5" y="-54.75" font-family="Helvetica,sans-Serif" font-size="10.00">Tachometer.getEdgesPerRevolution</text>
</a>
</g>
</g>
<!-- Node1&#45;&gt;Node2 -->
<g id="edge1_Node000001_Node000002" class="edge">
<title>Node1&#45;&gt;Node2</title>
<g id="a_edge1_Node000001_Node000002"><a xlink:title=" ">
<path fill="none" stroke="#63b8ff" d="M182.76,-49.96C190.75,-50.91 198.86,-51.87 206.9,-52.82"/>
<polygon fill="#63b8ff" stroke="#63b8ff" points="206.36,-56.28 216.7,-53.98 207.18,-49.33 206.36,-56.28"/>
</a>
</g>
</g>
<!-- Node3 -->
<g id="Node000003" class="node">
<title>Node3</title>
<g id="a_Node000003"><a xlink:href="classedu_1_1wpi_1_1first_1_1wpilibj_1_1counter_1_1_tachometer.html#ad84f9fe6ebf7cff39f1a27956a540548" target="_top" xlink:title=" ">
<polygon fill="white" stroke="#666666" points="372.88,-30.5 236.12,-30.5 236.12,0 372.88,0 372.88,-30.5"/>
<text text-anchor="start" x="244.12" y="-17" font-family="Helvetica,sans-Serif" font-size="10.00">edu.wpi.first.wpilibj.counter.</text>
<text text-anchor="middle" x="304.5" y="-5.75" font-family="Helvetica,sans-Serif" font-size="10.00">Tachometer.getPeriod</text>
</a>
</g>
</g>
<!-- Node1&#45;&gt;Node3 -->
<g id="edge2_Node000001_Node000003" class="edge">
<title>Node1&#45;&gt;Node3</title>
<g id="a_edge2_Node000001_Node000003"><a xlink:title=" ">
<path fill="none" stroke="#63b8ff" d="M182.76,-28.97C196.67,-27.39 210.94,-25.77 224.57,-24.22"/>
<polygon fill="#63b8ff" stroke="#63b8ff" points="224.81,-27.71 234.35,-23.11 224.02,-20.76 224.81,-27.71"/>
</a>
</g>
</g>
</g>
</svg>
