<?xml version="1.0" encoding="UTF-8" standalone="no"?>
<!DOCTYPE svg PUBLIC "-//W3C//DTD SVG 1.1//EN"
 "http://www.w3.org/Graphics/SVG/1.1/DTD/svg11.dtd">
<!-- Generated by graphviz version 9.0.0 (20230911.1827)
 -->
<!-- Title: edu.wpi.first.wpilibj.Joystick.getX Pages: 1 -->
<svg width="553pt" height="88pt"
 viewBox="0.00 0.00 553.25 87.50" xmlns="http://www.w3.org/2000/svg" xmlns:xlink="http://www.w3.org/1999/xlink">
<g id="graph0" class="graph" transform="scale(1 1) rotate(0) translate(4 83.5)">
<title>edu.wpi.first.wpilibj.Joystick.getX</title>
<!-- Node1 -->
<g id="Node000001" class="node">
<title>Node1</title>
<g id="a_Node000001"><a xlink:title=" ">
<polygon fill="#999999" stroke="#666666" points="545.25,-48.88 383,-48.88 383,-29.62 545.25,-29.62 545.25,-48.88"/>
<text text-anchor="middle" x="464.12" y="-35.38" font-family="Helvetica,sans-Serif" font-size="10.00">edu.wpi.first.wpilibj.Joystick.getX</text>
</a>
</g>
</g>
<!-- Node2 -->
<g id="Node000002" class="node">
<title>Node2</title>
<g id="a_Node000002"><a xlink:href="classedu_1_1wpi_1_1first_1_1wpilibj_1_1_joystick.html#a24a5901175338bf04c92cd9502bf9f80" target="_top" xlink:title=" ">
<polygon fill="white" stroke="#666666" points="347,-79.5 191.5,-79.5 191.5,-49 347,-49 347,-79.5"/>
<text text-anchor="start" x="199.5" y="-66" font-family="Helvetica,sans-Serif" font-size="10.00">edu.wpi.first.wpilibj.Joystick.get</text>
<text text-anchor="middle" x="269.25" y="-54.75" font-family="Helvetica,sans-Serif" font-size="10.00">DirectionRadians</text>
</a>
</g>
</g>
<!-- Node1&#45;&gt;Node2 -->
<g id="edge1_Node000001_Node000002" class="edge">
<title>Node1&#45;&gt;Node2</title>
<g id="a_edge1_Node000001_Node000002"><a xlink:title=" ">
<path fill="none" stroke="#63b8ff" d="M374.06,-50.79C365.19,-51.94 356.23,-53.11 347.49,-54.24"/>
<polygon fill="#63b8ff" stroke="#63b8ff" points="374.26,-54.3 383.73,-49.54 373.36,-47.36 374.26,-54.3"/>
</a>
</g>
</g>
<!-- Node4 -->
<g id="Node000004" class="node">
<title>Node4</title>
<g id="a_Node000004"><a xlink:href="classedu_1_1wpi_1_1first_1_1wpilibj_1_1_joystick.html#a1489f700e1552369f30e9d3eda1a7f6b" target="_top" xlink:title=" ">
<polygon fill="white" stroke="#666666" points="347,-30.5 191.5,-30.5 191.5,0 347,0 347,-30.5"/>
<text text-anchor="start" x="199.5" y="-17" font-family="Helvetica,sans-Serif" font-size="10.00">edu.wpi.first.wpilibj.Joystick.get</text>
<text text-anchor="middle" x="269.25" y="-5.75" font-family="Helvetica,sans-Serif" font-size="10.00">Magnitude</text>
</a>
</g>
</g>
<!-- Node1&#45;&gt;Node4 -->
<g id="edge3_Node000001_Node000004" class="edge">
<title>Node1&#45;&gt;Node4</title>
<g id="a_edge3_Node000001_Node000004"><a xlink:title=" ">
<path fill="none" stroke="#63b8ff" d="M371.43,-27.84C363.4,-26.84 355.32,-25.84 347.43,-24.85"/>
<polygon fill="#63b8ff" stroke="#63b8ff" points="370.87,-31.3 381.22,-29.06 371.73,-24.35 370.87,-31.3"/>
</a>
</g>
</g>
<!-- Node3 -->
<g id="Node000003" class="node">
<title>Node3</title>
<g id="a_Node000003"><a xlink:href="classedu_1_1wpi_1_1first_1_1wpilibj_1_1_joystick.html#ae351a503beafa05e488128d8994ec11e" target="_top" xlink:title=" ">
<polygon fill="white" stroke="#666666" points="155.5,-79.5 0,-79.5 0,-49 155.5,-49 155.5,-79.5"/>
<text text-anchor="start" x="8" y="-66" font-family="Helvetica,sans-Serif" font-size="10.00">edu.wpi.first.wpilibj.Joystick.get</text>
<text text-anchor="middle" x="77.75" y="-54.75" font-family="Helvetica,sans-Serif" font-size="10.00">DirectionDegrees</text>
</a>
</g>
</g>
<!-- Node2&#45;&gt;Node3 -->
<g id="edge2_Node000002_Node000003" class="edge">
<title>Node2&#45;&gt;Node3</title>
<g id="a_edge2_Node000002_Node000003"><a xlink:title=" ">
<path fill="none" stroke="#63b8ff" d="M179.86,-64.25C171.81,-64.25 163.7,-64.25 155.76,-64.25"/>
<polygon fill="#63b8ff" stroke="#63b8ff" points="179.66,-67.75 189.66,-64.25 179.66,-60.75 179.66,-67.75"/>
</a>
</g>
</g>
</g>
</svg>
