<?xml version="1.0" encoding="UTF-8" standalone="no"?>
<!DOCTYPE svg PUBLIC "-//W3C//DTD SVG 1.1//EN"
 "http://www.w3.org/Graphics/SVG/1.1/DTD/svg11.dtd">
<!-- Generated by graphviz version 9.0.0 (20230911.1827)
 -->
<!-- Title: edu.wpi.first.wpilibj.event.EventLoop.bind Pages: 1 -->
<svg width="479pt" height="284pt"
 viewBox="0.00 0.00 479.00 283.50" xmlns="http://www.w3.org/2000/svg" xmlns:xlink="http://www.w3.org/1999/xlink">
<g id="graph0" class="graph" transform="scale(1 1) rotate(0) translate(4 279.5)">
<title>edu.wpi.first.wpilibj.event.EventLoop.bind</title>
<!-- Node1 -->
<g id="Node000001" class="node">
<title>Node1</title>
<g id="a_Node000001"><a xlink:title=" ">
<polygon fill="#999999" stroke="#666666" points="471,-127.5 341.75,-127.5 341.75,-97 471,-97 471,-127.5"/>
<text text-anchor="start" x="349.75" y="-114" font-family="Helvetica,sans-Serif" font-size="10.00">edu.wpi.first.wpilibj.event.</text>
<text text-anchor="middle" x="406.38" y="-102.75" font-family="Helvetica,sans-Serif" font-size="10.00">EventLoop.bind</text>
</a>
</g>
</g>
<!-- Node2 -->
<g id="Node000002" class="node">
<title>Node2</title>
<g id="a_Node000002"><a xlink:href="classedu_1_1wpi_1_1first_1_1wpilibj_1_1event_1_1_boolean_event.html#a9208ca4ca96472fbf85fe0961afb6629" target="_top" xlink:title=" ">
<polygon fill="white" stroke="#666666" points="305.75,-152.5 165.25,-152.5 165.25,-122 305.75,-122 305.75,-152.5"/>
<text text-anchor="start" x="173.25" y="-139" font-family="Helvetica,sans-Serif" font-size="10.00">edu.wpi.first.wpilibj.event.</text>
<text text-anchor="middle" x="235.5" y="-127.75" font-family="Helvetica,sans-Serif" font-size="10.00">BooleanEvent.BooleanEvent</text>
</a>
</g>
</g>
<!-- Node1&#45;&gt;Node2 -->
<g id="edge1_Node000001_Node000002" class="edge">
<title>Node1&#45;&gt;Node2</title>
<g id="a_edge1_Node000001_Node000002"><a xlink:title=" ">
<path fill="none" stroke="#63b8ff" d="M330.26,-123.37C322.22,-124.56 314.06,-125.77 306.08,-126.95"/>
<polygon fill="#63b8ff" stroke="#63b8ff" points="330.65,-126.85 340.03,-121.92 329.63,-119.93 330.65,-126.85"/>
</a>
</g>
</g>
<!-- Node9 -->
<g id="Node000009" class="node">
<title>Node9</title>
<g id="a_Node000009"><a xlink:href="classedu_1_1wpi_1_1first_1_1wpilibj_1_1event_1_1_boolean_event.html#a0579466008d0f50a7f94a99e61192219" target="_top" xlink:title=" ">
<polygon fill="white" stroke="#666666" points="300.12,-103.5 170.88,-103.5 170.88,-73 300.12,-73 300.12,-103.5"/>
<text text-anchor="start" x="178.88" y="-90" font-family="Helvetica,sans-Serif" font-size="10.00">edu.wpi.first.wpilibj.event.</text>
<text text-anchor="middle" x="235.5" y="-78.75" font-family="Helvetica,sans-Serif" font-size="10.00">BooleanEvent.ifHigh</text>
</a>
</g>
</g>
<!-- Node1&#45;&gt;Node9 -->
<g id="edge8_Node000001_Node000009" class="edge">
<title>Node1&#45;&gt;Node9</title>
<g id="a_edge8_Node000001_Node000009"><a xlink:title=" ">
<path fill="none" stroke="#63b8ff" d="M330.36,-101.59C320.37,-100.17 310.21,-98.73 300.43,-97.34"/>
<polygon fill="#63b8ff" stroke="#63b8ff" points="329.64,-105.02 340.03,-102.96 330.62,-98.09 329.64,-105.02"/>
</a>
</g>
</g>
<!-- Node3 -->
<g id="Node000003" class="node">
<title>Node3</title>
<g id="a_Node000003"><a xlink:href="classedu_1_1wpi_1_1first_1_1wpilibj_1_1event_1_1_boolean_event.html#a58da6c125a50d094eadaad855ed87628" target="_top" xlink:title=" ">
<polygon fill="white" stroke="#666666" points="129.25,-275.5 0,-275.5 0,-245 129.25,-245 129.25,-275.5"/>
<text text-anchor="start" x="8" y="-262" font-family="Helvetica,sans-Serif" font-size="10.00">edu.wpi.first.wpilibj.event.</text>
<text text-anchor="middle" x="64.62" y="-250.75" font-family="Helvetica,sans-Serif" font-size="10.00">BooleanEvent.and</text>
</a>
</g>
</g>
<!-- Node2&#45;&gt;Node3 -->
<g id="edge2_Node000002_Node000003" class="edge">
<title>Node2&#45;&gt;Node3</title>
<g id="a_edge2_Node000002_Node000003"><a xlink:title=" ">
<path fill="none" stroke="#63b8ff" d="M213.79,-161.11C193.9,-182.82 162.12,-214.55 129.25,-235.25 123.73,-238.73 117.64,-241.87 111.49,-244.65"/>
<polygon fill="#63b8ff" stroke="#63b8ff" points="216.2,-163.66 220.29,-153.88 211,-158.98 216.2,-163.66"/>
</a>
</g>
</g>
<!-- Node4 -->
<g id="Node000004" class="node">
<title>Node4</title>
<g id="a_Node000004"><a xlink:href="classedu_1_1wpi_1_1first_1_1wpilibj_1_1event_1_1_boolean_event.html#a7fb2a3fa08ed3cb1ec635ba092becb5c" target="_top" xlink:title=" ">
<polygon fill="white" stroke="#666666" points="129.25,-226.5 0,-226.5 0,-196 129.25,-196 129.25,-226.5"/>
<text text-anchor="start" x="8" y="-213" font-family="Helvetica,sans-Serif" font-size="10.00">edu.wpi.first.wpilibj.event.</text>
<text text-anchor="middle" x="64.62" y="-201.75" font-family="Helvetica,sans-Serif" font-size="10.00">BooleanEvent.debounce</text>
</a>
</g>
</g>
<!-- Node2&#45;&gt;Node4 -->
<g id="edge3_Node000002_Node000004" class="edge">
<title>Node2&#45;&gt;Node4</title>
<g id="a_edge3_Node000002_Node000004"><a xlink:title=" ">
<path fill="none" stroke="#63b8ff" d="M191.86,-157.82C172.83,-166.82 150.04,-177.34 129.25,-186.25 121.94,-189.38 114.1,-192.59 106.51,-195.61"/>
<polygon fill="#63b8ff" stroke="#63b8ff" points="193.12,-161.1 200.65,-153.65 190.12,-154.78 193.12,-161.1"/>
</a>
</g>
</g>
<!-- Node5 -->
<g id="Node000005" class="node">
<title>Node5</title>
<g id="a_Node000005"><a xlink:href="classedu_1_1wpi_1_1first_1_1wpilibj_1_1event_1_1_boolean_event.html#a8707b091672022496e1711e7a82e6328" target="_top" xlink:title=" ">
<polygon fill="white" stroke="#666666" points="129.25,-177.5 0,-177.5 0,-147 129.25,-147 129.25,-177.5"/>
<text text-anchor="start" x="8" y="-164" font-family="Helvetica,sans-Serif" font-size="10.00">edu.wpi.first.wpilibj.event.</text>
<text text-anchor="middle" x="64.62" y="-152.75" font-family="Helvetica,sans-Serif" font-size="10.00">BooleanEvent.falling</text>
</a>
</g>
</g>
<!-- Node2&#45;&gt;Node5 -->
<g id="edge4_Node000002_Node000005" class="edge">
<title>Node2&#45;&gt;Node5</title>
<g id="a_edge4_Node000002_Node000005"><a xlink:title=" ">
<path fill="none" stroke="#63b8ff" d="M153.57,-149.23C145.56,-150.42 137.51,-151.61 129.71,-152.76"/>
<polygon fill="#63b8ff" stroke="#63b8ff" points="153.96,-152.71 163.34,-147.78 152.94,-145.79 153.96,-152.71"/>
</a>
</g>
</g>
<!-- Node6 -->
<g id="Node000006" class="node">
<title>Node6</title>
<g id="a_Node000006"><a xlink:href="classedu_1_1wpi_1_1first_1_1wpilibj_1_1event_1_1_boolean_event.html#a712b54c6323c9e26af3d5805f3a9daef" target="_top" xlink:title=" ">
<polygon fill="white" stroke="#666666" points="129.25,-128.5 0,-128.5 0,-98 129.25,-98 129.25,-128.5"/>
<text text-anchor="start" x="8" y="-115" font-family="Helvetica,sans-Serif" font-size="10.00">edu.wpi.first.wpilibj.event.</text>
<text text-anchor="middle" x="64.62" y="-103.75" font-family="Helvetica,sans-Serif" font-size="10.00">BooleanEvent.negate</text>
</a>
</g>
</g>
<!-- Node2&#45;&gt;Node6 -->
<g id="edge5_Node000002_Node000006" class="edge">
<title>Node2&#45;&gt;Node6</title>
<g id="a_edge5_Node000002_Node000006"><a xlink:title=" ">
<path fill="none" stroke="#63b8ff" d="M153.57,-125.75C145.56,-124.61 137.51,-123.47 129.71,-122.36"/>
<polygon fill="#63b8ff" stroke="#63b8ff" points="152.95,-129.19 163.34,-127.14 153.93,-122.26 152.95,-129.19"/>
</a>
</g>
</g>
<!-- Node7 -->
<g id="Node000007" class="node">
<title>Node7</title>
<g id="a_Node000007"><a xlink:href="classedu_1_1wpi_1_1first_1_1wpilibj_1_1event_1_1_boolean_event.html#a2873b52230e403f112fa2a964626336a" target="_top" xlink:title=" ">
<polygon fill="white" stroke="#666666" points="129.25,-79.5 0,-79.5 0,-49 129.25,-49 129.25,-79.5"/>
<text text-anchor="start" x="8" y="-66" font-family="Helvetica,sans-Serif" font-size="10.00">edu.wpi.first.wpilibj.event.</text>
<text text-anchor="middle" x="64.62" y="-54.75" font-family="Helvetica,sans-Serif" font-size="10.00">BooleanEvent.or</text>
</a>
</g>
</g>
<!-- Node2&#45;&gt;Node7 -->
<g id="edge6_Node000002_Node000007" class="edge">
<title>Node2&#45;&gt;Node7</title>
<g id="a_edge6_Node000002_Node000007"><a xlink:title=" ">
<path fill="none" stroke="#63b8ff" d="M176.08,-117.23C172.38,-115.63 168.74,-113.97 165.25,-112.25 148.22,-103.86 146.17,-97.87 129.25,-89.25 122.8,-85.96 115.81,-82.82 108.91,-79.94"/>
<polygon fill="#63b8ff" stroke="#63b8ff" points="174.63,-120.41 185.21,-120.97 177.28,-113.94 174.63,-120.41"/>
</a>
</g>
</g>
<!-- Node8 -->
<g id="Node000008" class="node">
<title>Node8</title>
<g id="a_Node000008"><a xlink:href="classedu_1_1wpi_1_1first_1_1wpilibj_1_1event_1_1_boolean_event.html#a4dd378c9ea7f9d857bea9636b9bd13b4" target="_top" xlink:title=" ">
<polygon fill="white" stroke="#666666" points="129.25,-30.5 0,-30.5 0,0 129.25,0 129.25,-30.5"/>
<text text-anchor="start" x="8" y="-17" font-family="Helvetica,sans-Serif" font-size="10.00">edu.wpi.first.wpilibj.event.</text>
<text text-anchor="middle" x="64.62" y="-5.75" font-family="Helvetica,sans-Serif" font-size="10.00">BooleanEvent.rising</text>
</a>
</g>
</g>
<!-- Node2&#45;&gt;Node8 -->
<g id="edge7_Node000002_Node000008" class="edge">
<title>Node2&#45;&gt;Node8</title>
<g id="a_edge7_Node000002_Node000008"><a xlink:title=" ">
<path fill="none" stroke="#63b8ff" d="M169.16,-115.45C167.81,-114.43 166.5,-113.36 165.25,-112.25 138.51,-88.48 155.65,-64.39 129.25,-40.25 125.31,-36.65 120.79,-33.54 116.01,-30.86"/>
<polygon fill="#63b8ff" stroke="#63b8ff" points="167.06,-118.26 177.37,-120.71 170.84,-112.37 167.06,-118.26"/>
</a>
</g>
</g>
</g>
</svg>
