<?xml version="1.0" encoding="UTF-8" standalone="no"?>
<!DOCTYPE svg PUBLIC "-//W3C//DTD SVG 1.1//EN"
 "http://www.w3.org/Graphics/SVG/1.1/DTD/svg11.dtd">
<!-- Generated by graphviz version 9.0.0 (20230911.1827)
 -->
<!-- Title: edu.wpi.first.wpilibj.DriverStation.isTest Pages: 1 -->
<svg width="466pt" height="161pt"
 viewBox="0.00 0.00 465.50 160.50" xmlns="http://www.w3.org/2000/svg" xmlns:xlink="http://www.w3.org/1999/xlink">
<g id="graph0" class="graph" transform="scale(1 1) rotate(0) translate(4 156.5)">
<title>edu.wpi.first.wpilibj.DriverStation.isTest</title>
<!-- Node1 -->
<g id="Node000001" class="node">
<title>Node1</title>
<g id="a_Node000001"><a xlink:title=" ">
<polygon fill="#999999" stroke="#666666" points="457.5,-79.5 329,-79.5 329,-49 457.5,-49 457.5,-79.5"/>
<text text-anchor="start" x="337" y="-66" font-family="Helvetica,sans-Serif" font-size="10.00">edu.wpi.first.wpilibj.Driver</text>
<text text-anchor="middle" x="393.25" y="-54.75" font-family="Helvetica,sans-Serif" font-size="10.00">Station.isTest</text>
</a>
</g>
</g>
<!-- Node2 -->
<g id="Node000002" class="node">
<title>Node2</title>
<g id="a_Node000002"><a xlink:href="classedu_1_1wpi_1_1first_1_1wpilibj_1_1_driver_station.html#a10f02d92c84e969b02bcbbeca9071afc" target="_top" xlink:title=" ">
<polygon fill="white" stroke="#666666" points="293,-128.5 164.5,-128.5 164.5,-98 293,-98 293,-128.5"/>
<text text-anchor="start" x="172.5" y="-115" font-family="Helvetica,sans-Serif" font-size="10.00">edu.wpi.first.wpilibj.Driver</text>
<text text-anchor="middle" x="228.75" y="-103.75" font-family="Helvetica,sans-Serif" font-size="10.00">Station.isTeleop</text>
</a>
</g>
</g>
<!-- Node1&#45;&gt;Node2 -->
<g id="edge1_Node000001_Node000002" class="edge">
<title>Node1&#45;&gt;Node2</title>
<g id="a_edge1_Node000001_Node000002"><a xlink:title=" ">
<path fill="none" stroke="#63b8ff" d="M329.66,-83.12C313.9,-87.87 297.15,-92.93 281.96,-97.51"/>
<polygon fill="#63b8ff" stroke="#63b8ff" points="330.37,-86.56 338.94,-80.33 328.35,-79.86 330.37,-86.56"/>
</a>
</g>
</g>
<!-- Node5 -->
<g id="Node000005" class="node">
<title>Node5</title>
<g id="a_Node000005"><a xlink:href="classedu_1_1wpi_1_1first_1_1wpilibj_1_1_robot_base.html#a6f538235781c47df7a3aeff753d7acac" target="_top" xlink:title=" ">
<polygon fill="white" stroke="#666666" points="293,-79.5 164.5,-79.5 164.5,-49 293,-49 293,-79.5"/>
<text text-anchor="start" x="172.5" y="-66" font-family="Helvetica,sans-Serif" font-size="10.00">edu.wpi.first.wpilibj.Robot</text>
<text text-anchor="middle" x="228.75" y="-54.75" font-family="Helvetica,sans-Serif" font-size="10.00">Base.isTest</text>
</a>
</g>
</g>
<!-- Node1&#45;&gt;Node5 -->
<g id="edge4_Node000001_Node000005" class="edge">
<title>Node1&#45;&gt;Node5</title>
<g id="a_edge4_Node000001_Node000005"><a xlink:title=" ">
<path fill="none" stroke="#63b8ff" d="M317.61,-64.25C309.52,-64.25 301.35,-64.25 293.4,-64.25"/>
<polygon fill="#63b8ff" stroke="#63b8ff" points="317.44,-67.75 327.44,-64.25 317.44,-60.75 317.44,-67.75"/>
</a>
</g>
</g>
<!-- Node6 -->
<g id="Node000006" class="node">
<title>Node6</title>
<g id="a_Node000006"><a xlink:href="classedu_1_1wpi_1_1first_1_1wpilibj_1_1_robot_state.html#a1b390185aef075a2fcb778dbfa58034a" target="_top" xlink:title=" ">
<polygon fill="white" stroke="#666666" points="293,-30.5 164.5,-30.5 164.5,0 293,0 293,-30.5"/>
<text text-anchor="start" x="172.5" y="-17" font-family="Helvetica,sans-Serif" font-size="10.00">edu.wpi.first.wpilibj.Robot</text>
<text text-anchor="middle" x="228.75" y="-5.75" font-family="Helvetica,sans-Serif" font-size="10.00">State.isTest</text>
</a>
</g>
</g>
<!-- Node1&#45;&gt;Node6 -->
<g id="edge5_Node000001_Node000006" class="edge">
<title>Node1&#45;&gt;Node6</title>
<g id="a_edge5_Node000001_Node000006"><a xlink:title=" ">
<path fill="none" stroke="#63b8ff" d="M329.66,-45.38C313.9,-40.63 297.15,-35.57 281.96,-30.99"/>
<polygon fill="#63b8ff" stroke="#63b8ff" points="328.35,-48.64 338.94,-48.17 330.37,-41.94 328.35,-48.64"/>
</a>
</g>
</g>
<!-- Node3 -->
<g id="Node000003" class="node">
<title>Node3</title>
<g id="a_Node000003"><a xlink:href="classedu_1_1wpi_1_1first_1_1wpilibj_1_1_robot_base.html#aaf62daecd479b93c610615fd4f6bfb20" target="_top" xlink:title=" ">
<polygon fill="white" stroke="#666666" points="128.5,-152.5 0,-152.5 0,-122 128.5,-122 128.5,-152.5"/>
<text text-anchor="start" x="8" y="-139" font-family="Helvetica,sans-Serif" font-size="10.00">edu.wpi.first.wpilibj.Robot</text>
<text text-anchor="middle" x="64.25" y="-127.75" font-family="Helvetica,sans-Serif" font-size="10.00">Base.isTeleop</text>
</a>
</g>
</g>
<!-- Node2&#45;&gt;Node3 -->
<g id="edge2_Node000002_Node000003" class="edge">
<title>Node2&#45;&gt;Node3</title>
<g id="a_edge2_Node000002_Node000003"><a xlink:title=" ">
<path fill="none" stroke="#63b8ff" d="M153.11,-124.27C145.02,-125.47 136.85,-126.68 128.9,-127.85"/>
<polygon fill="#63b8ff" stroke="#63b8ff" points="153.58,-127.74 162.96,-122.82 152.56,-120.82 153.58,-127.74"/>
</a>
</g>
</g>
<!-- Node4 -->
<g id="Node000004" class="node">
<title>Node4</title>
<g id="a_Node000004"><a xlink:href="classedu_1_1wpi_1_1first_1_1wpilibj_1_1_robot_state.html#ae53594ba97e60f893c266bf7881dcee2" target="_top" xlink:title=" ">
<polygon fill="white" stroke="#666666" points="128.5,-103.5 0,-103.5 0,-73 128.5,-73 128.5,-103.5"/>
<text text-anchor="start" x="8" y="-90" font-family="Helvetica,sans-Serif" font-size="10.00">edu.wpi.first.wpilibj.Robot</text>
<text text-anchor="middle" x="64.25" y="-78.75" font-family="Helvetica,sans-Serif" font-size="10.00">State.isTeleop</text>
</a>
</g>
</g>
<!-- Node2&#45;&gt;Node4 -->
<g id="edge3_Node000002_Node000004" class="edge">
<title>Node2&#45;&gt;Node4</title>
<g id="a_edge3_Node000002_Node000004"><a xlink:title=" ">
<path fill="none" stroke="#63b8ff" d="M153.11,-101.77C145.02,-100.52 136.85,-99.26 128.9,-98.04"/>
<polygon fill="#63b8ff" stroke="#63b8ff" points="152.55,-105.22 162.96,-103.28 153.61,-98.3 152.55,-105.22"/>
</a>
</g>
</g>
<!-- Node7 -->
<g id="Node000007" class="node">
<title>Node7</title>
<g id="a_Node000007"><a xlink:href="classedu_1_1wpi_1_1first_1_1wpilibj_1_1_motor_safety.html#a378effe2109461036a883da6e4a86675" target="_top" xlink:title=" ">
<polygon fill="white" stroke="#666666" points="127.75,-30.5 0.75,-30.5 0.75,0 127.75,0 127.75,-30.5"/>
<text text-anchor="start" x="8.75" y="-17" font-family="Helvetica,sans-Serif" font-size="10.00">edu.wpi.first.wpilibj.Motor</text>
<text text-anchor="middle" x="64.25" y="-5.75" font-family="Helvetica,sans-Serif" font-size="10.00">Safety.check</text>
</a>
</g>
</g>
<!-- Node6&#45;&gt;Node7 -->
<g id="edge6_Node000006_Node000007" class="edge">
<title>Node6&#45;&gt;Node7</title>
<g id="a_edge6_Node000006_Node000007"><a xlink:title=" ">
<path fill="none" stroke="#63b8ff" d="M153.14,-15.25C144.77,-15.25 136.3,-15.25 128.1,-15.25"/>
<polygon fill="#63b8ff" stroke="#63b8ff" points="152.94,-18.75 162.94,-15.25 152.94,-11.75 152.94,-18.75"/>
</a>
</g>
</g>
</g>
</svg>
