<?xml version="1.0" encoding="UTF-8" standalone="no"?>
<!DOCTYPE svg PUBLIC "-//W3C//DTD SVG 1.1//EN"
 "http://www.w3.org/Graphics/SVG/1.1/DTD/svg11.dtd">
<!-- Generated by graphviz version 9.0.0 (20230911.1827)
 -->
<!-- Title: edu.wpi.first.wpilibj.Solenoid.Solenoid Pages: 1 -->
<svg width="538pt" height="88pt"
 viewBox="0.00 0.00 537.50 87.50" xmlns="http://www.w3.org/2000/svg" xmlns:xlink="http://www.w3.org/1999/xlink">
<g id="graph0" class="graph" transform="scale(1 1) rotate(0) translate(4 83.5)">
<title>edu.wpi.first.wpilibj.Solenoid.Solenoid</title>
<!-- Node1 -->
<g id="Node000001" class="node">
<title>Node1</title>
<g id="a_Node000001"><a xlink:title=" ">
<polygon fill="#999999" stroke="#666666" points="142.75,-54.5 0,-54.5 0,-24 142.75,-24 142.75,-54.5"/>
<text text-anchor="start" x="8" y="-41" font-family="Helvetica,sans-Serif" font-size="10.00">edu.wpi.first.wpilibj.Solenoid.</text>
<text text-anchor="middle" x="71.38" y="-29.75" font-family="Helvetica,sans-Serif" font-size="10.00">Solenoid</text>
</a>
</g>
</g>
<!-- Node2 -->
<g id="Node000002" class="node">
<title>Node2</title>
<g id="a_Node000002"><a xlink:href="interfaceedu_1_1wpi_1_1first_1_1wpilibj_1_1_pneumatics_base.html#a7f07af9f270e5dbb58336c1b605e6465" target="_top" xlink:title=" ">
<polygon fill="white" stroke="#666666" points="332.75,-54.5 178.75,-54.5 178.75,-24 332.75,-24 332.75,-54.5"/>
<text text-anchor="start" x="186.75" y="-41" font-family="Helvetica,sans-Serif" font-size="10.00">edu.wpi.first.wpilibj.Pneumatics</text>
<text text-anchor="middle" x="255.75" y="-29.75" font-family="Helvetica,sans-Serif" font-size="10.00">Base.getDefaultForType</text>
</a>
</g>
</g>
<!-- Node1&#45;&gt;Node2 -->
<g id="edge1_Node000001_Node000002" class="edge">
<title>Node1&#45;&gt;Node2</title>
<g id="a_edge1_Node000001_Node000002"><a xlink:title=" ">
<path fill="none" stroke="#63b8ff" d="M143.15,-39.25C150.97,-39.25 159.01,-39.25 167.01,-39.25"/>
<polygon fill="#63b8ff" stroke="#63b8ff" points="166.76,-42.75 176.76,-39.25 166.76,-35.75 166.76,-42.75"/>
</a>
</g>
</g>
<!-- Node3 -->
<g id="Node000003" class="node">
<title>Node3</title>
<g id="a_Node000003"><a xlink:href="classedu_1_1wpi_1_1first_1_1wpilibj_1_1_sensor_util.html#a7889ff0082624ed463b5149eb2d4abd6" target="_top" xlink:title=" ">
<polygon fill="white" stroke="#666666" points="529.5,-79.5 368.75,-79.5 368.75,-49 529.5,-49 529.5,-79.5"/>
<text text-anchor="start" x="376.75" y="-66" font-family="Helvetica,sans-Serif" font-size="10.00">edu.wpi.first.wpilibj.Sensor</text>
<text text-anchor="middle" x="449.12" y="-54.75" font-family="Helvetica,sans-Serif" font-size="10.00">Util.getDefaultCTREPCMModule</text>
</a>
</g>
</g>
<!-- Node2&#45;&gt;Node3 -->
<g id="edge2_Node000002_Node000003" class="edge">
<title>Node2&#45;&gt;Node3</title>
<g id="a_edge2_Node000002_Node000003"><a xlink:title=" ">
<path fill="none" stroke="#63b8ff" d="M333.21,-49.24C341.07,-50.26 349.1,-51.31 357.09,-52.36"/>
<polygon fill="#63b8ff" stroke="#63b8ff" points="356.47,-55.81 366.84,-53.63 357.38,-48.87 356.47,-55.81"/>
</a>
</g>
</g>
<!-- Node4 -->
<g id="Node000004" class="node">
<title>Node4</title>
<g id="a_Node000004"><a xlink:href="classedu_1_1wpi_1_1first_1_1wpilibj_1_1_sensor_util.html#a9d29bd9b554cc92650b42adc333681ef" target="_top" xlink:title=" ">
<polygon fill="white" stroke="#666666" points="522,-30.5 376.25,-30.5 376.25,0 522,0 522,-30.5"/>
<text text-anchor="start" x="384.25" y="-17" font-family="Helvetica,sans-Serif" font-size="10.00">edu.wpi.first.wpilibj.Sensor</text>
<text text-anchor="middle" x="449.12" y="-5.75" font-family="Helvetica,sans-Serif" font-size="10.00">Util.getDefaultREVPHModule</text>
</a>
</g>
</g>
<!-- Node2&#45;&gt;Node4 -->
<g id="edge3_Node000002_Node000004" class="edge">
<title>Node2&#45;&gt;Node4</title>
<g id="a_edge3_Node000002_Node000004"><a xlink:title=" ">
<path fill="none" stroke="#63b8ff" d="M333.21,-29.66C343.53,-28.37 354.17,-27.03 364.6,-25.72"/>
<polygon fill="#63b8ff" stroke="#63b8ff" points="364.84,-29.22 374.33,-24.51 363.97,-22.28 364.84,-29.22"/>
</a>
</g>
</g>
</g>
</svg>
