<?xml version="1.0" encoding="UTF-8" standalone="no"?>
<!DOCTYPE svg PUBLIC "-//W3C//DTD SVG 1.1//EN"
 "http://www.w3.org/Graphics/SVG/1.1/DTD/svg11.dtd">
<!-- Generated by graphviz version 9.0.0 (20230911.1827)
 -->
<!-- Title: edu.wpi.first.wpilibj.RobotBase.isSimulation Pages: 1 -->
<svg width="542pt" height="211pt"
 viewBox="0.00 0.00 542.00 211.35" xmlns="http://www.w3.org/2000/svg" xmlns:xlink="http://www.w3.org/1999/xlink">
<g id="graph0" class="graph" transform="scale(1 1) rotate(0) translate(4 207.35)">
<title>edu.wpi.first.wpilibj.RobotBase.isSimulation</title>
<!-- Node1 -->
<g id="Node000001" class="node">
<title>Node1</title>
<g id="a_Node000001"><a xlink:title=" ">
<polygon fill="#999999" stroke="#666666" points="534,-128.5 405.5,-128.5 405.5,-98 534,-98 534,-128.5"/>
<text text-anchor="start" x="413.5" y="-115" font-family="Helvetica,sans-Serif" font-size="10.00">edu.wpi.first.wpilibj.Robot</text>
<text text-anchor="middle" x="469.75" y="-103.75" font-family="Helvetica,sans-Serif" font-size="10.00">Base.isSimulation</text>
</a>
</g>
</g>
<!-- Node2 -->
<g id="Node000002" class="node">
<title>Node2</title>
<g id="a_Node000002"><a xlink:href="classedu_1_1wpi_1_1first_1_1wpilibj_1_1_filesystem.html#adef8c0b7018ff5ad8af3c4e9009db1e7" target="_top" xlink:title=" ">
<polygon fill="white" stroke="#666666" points="166.75,-198.5 0,-198.5 0,-168 166.75,-168 166.75,-198.5"/>
<text text-anchor="start" x="8" y="-185" font-family="Helvetica,sans-Serif" font-size="10.00">edu.wpi.first.wpilibj.Filesystem.get</text>
<text text-anchor="middle" x="83.38" y="-173.75" font-family="Helvetica,sans-Serif" font-size="10.00">DeployDirectory</text>
</a>
</g>
</g>
<!-- Node1&#45;&gt;Node2 -->
<g id="edge1_Node000001_Node000002" class="edge">
<title>Node1&#45;&gt;Node2</title>
<g id="a_edge1_Node000001_Node000002"><a xlink:title=" ">
<path fill="none" stroke="#63b8ff" d="M445.92,-136.75C427.24,-154.17 399.15,-176.52 369.5,-186.25 303.89,-207.78 225.12,-204.96 167.01,-197.93"/>
<polygon fill="#63b8ff" stroke="#63b8ff" points="448.19,-139.42 452.96,-129.96 443.33,-134.38 448.19,-139.42"/>
</a>
</g>
</g>
<!-- Node3 -->
<g id="Node000003" class="node">
<title>Node3</title>
<g id="a_Node000003"><a xlink:href="classedu_1_1wpi_1_1first_1_1wpilibj_1_1_filesystem.html#ab0db0771adc04fb283e8191a4002d0ee" target="_top" xlink:title=" ">
<polygon fill="white" stroke="#666666" points="369.5,-177.5 202.75,-177.5 202.75,-147 369.5,-147 369.5,-177.5"/>
<text text-anchor="start" x="210.75" y="-164" font-family="Helvetica,sans-Serif" font-size="10.00">edu.wpi.first.wpilibj.Filesystem.get</text>
<text text-anchor="middle" x="286.12" y="-152.75" font-family="Helvetica,sans-Serif" font-size="10.00">OperatingDirectory</text>
</a>
</g>
</g>
<!-- Node1&#45;&gt;Node3 -->
<g id="edge2_Node000001_Node000003" class="edge">
<title>Node1&#45;&gt;Node3</title>
<g id="a_edge2_Node000001_Node000003"><a xlink:title=" ">
<path fill="none" stroke="#63b8ff" d="M399.57,-131.91C381.68,-136.74 362.59,-141.89 345.32,-146.55"/>
<polygon fill="#63b8ff" stroke="#63b8ff" points="400.33,-135.33 409.07,-129.35 398.51,-128.58 400.33,-135.33"/>
</a>
</g>
</g>
<!-- Node4 -->
<g id="Node000004" class="node">
<title>Node4</title>
<g id="a_Node000004"><a xlink:href="classedu_1_1wpi_1_1first_1_1wpilibj_1_1_iterative_robot_base.html#aac5c45d7130bce188e0f9278075e8891" target="_top" xlink:title=" ">
<polygon fill="white" stroke="#666666" points="354.88,-128.5 217.38,-128.5 217.38,-98 354.88,-98 354.88,-128.5"/>
<text text-anchor="start" x="225.38" y="-115" font-family="Helvetica,sans-Serif" font-size="10.00">edu.wpi.first.wpilibj.Iterative</text>
<text text-anchor="middle" x="286.12" y="-103.75" font-family="Helvetica,sans-Serif" font-size="10.00">RobotBase.loopFunc</text>
</a>
</g>
</g>
<!-- Node1&#45;&gt;Node4 -->
<g id="edge4_Node000001_Node000004" class="edge">
<title>Node1&#45;&gt;Node4</title>
<g id="a_edge4_Node000001_Node000004"><a xlink:title=" ">
<path fill="none" stroke="#63b8ff" d="M394.07,-113.25C381.22,-113.25 367.92,-113.25 355.25,-113.25"/>
<polygon fill="#63b8ff" stroke="#63b8ff" points="393.71,-116.75 403.71,-113.25 393.71,-109.75 393.71,-116.75"/>
</a>
</g>
</g>
<!-- Node5 -->
<g id="Node000005" class="node">
<title>Node5</title>
<g id="a_Node000005"><a xlink:href="classedu_1_1wpi_1_1first_1_1wpilibj_1_1_robot_base.html#aaa94c56bb5bb24b2ec7c526c0c1eac62" target="_top" xlink:title=" ">
<polygon fill="white" stroke="#666666" points="350.38,-79.5 221.88,-79.5 221.88,-49 350.38,-49 350.38,-79.5"/>
<text text-anchor="start" x="229.88" y="-66" font-family="Helvetica,sans-Serif" font-size="10.00">edu.wpi.first.wpilibj.Robot</text>
<text text-anchor="middle" x="286.12" y="-54.75" font-family="Helvetica,sans-Serif" font-size="10.00">Base.RobotBase</text>
</a>
</g>
</g>
<!-- Node1&#45;&gt;Node5 -->
<g id="edge5_Node000001_Node000005" class="edge">
<title>Node1&#45;&gt;Node5</title>
<g id="a_edge5_Node000001_Node000005"><a xlink:title=" ">
<path fill="none" stroke="#63b8ff" d="M399.57,-94.59C381.68,-89.76 362.59,-84.61 345.32,-79.95"/>
<polygon fill="#63b8ff" stroke="#63b8ff" points="398.51,-97.92 409.07,-97.15 400.33,-91.17 398.51,-97.92"/>
</a>
</g>
</g>
<!-- Node6 -->
<g id="Node000006" class="node">
<title>Node6</title>
<g id="a_Node000006"><a xlink:href="classedu_1_1wpi_1_1first_1_1wpilibj_1_1_timed_robot.html#ab78bd4fb4a764b4560fdd2a7fc1e3790" target="_top" xlink:title=" ">
<polygon fill="white" stroke="#666666" points="350.75,-30.5 221.5,-30.5 221.5,0 350.75,0 350.75,-30.5"/>
<text text-anchor="start" x="229.5" y="-17" font-family="Helvetica,sans-Serif" font-size="10.00">edu.wpi.first.wpilibj.Timed</text>
<text text-anchor="middle" x="286.12" y="-5.75" font-family="Helvetica,sans-Serif" font-size="10.00">Robot.startCompetition</text>
</a>
</g>
</g>
<!-- Node1&#45;&gt;Node6 -->
<g id="edge6_Node000001_Node000006" class="edge">
<title>Node1&#45;&gt;Node6</title>
<g id="a_edge6_Node000001_Node000006"><a xlink:title=" ">
<path fill="none" stroke="#63b8ff" d="M442.61,-90.16C423.48,-74.26 396.29,-53.67 369.5,-40.25 362.55,-36.77 355.03,-33.67 347.45,-30.94"/>
<polygon fill="#63b8ff" stroke="#63b8ff" points="440.27,-92.76 450.16,-96.55 444.79,-87.42 440.27,-92.76"/>
</a>
</g>
</g>
<!-- Node3&#45;&gt;Node2 -->
<g id="edge3_Node000003_Node000002" class="edge">
<title>Node3&#45;&gt;Node2</title>
<g id="a_edge3_Node000003_Node000002"><a xlink:title=" ">
<path fill="none" stroke="#63b8ff" d="M191.03,-172.09C183,-172.93 174.92,-173.78 167,-174.61"/>
<polygon fill="#63b8ff" stroke="#63b8ff" points="191.23,-175.59 200.81,-171.07 190.5,-168.63 191.23,-175.59"/>
</a>
</g>
</g>
</g>
</svg>
