<?xml version="1.0" encoding="UTF-8" standalone="no"?>
<!DOCTYPE svg PUBLIC "-//W3C//DTD SVG 1.1//EN"
 "http://www.w3.org/Graphics/SVG/1.1/DTD/svg11.dtd">
<!-- Generated by graphviz version 9.0.0 (20230911.1827)
 -->
<!-- Title: edu.wpi.first.wpilibj.simulation.DriverStationSim.getJoystickOutputs Pages: 1 -->
<svg width="557pt" height="39pt"
 viewBox="0.00 0.00 557.00 38.50" xmlns="http://www.w3.org/2000/svg" xmlns:xlink="http://www.w3.org/1999/xlink">
<g id="graph0" class="graph" transform="scale(1 1) rotate(0) translate(4 34.5)">
<title>edu.wpi.first.wpilibj.simulation.DriverStationSim.getJoystickOutputs</title>
<!-- Node1 -->
<g id="Node000001" class="node">
<title>Node1</title>
<g id="a_Node000001"><a xlink:title=" ">
<polygon fill="#999999" stroke="#666666" points="549,-30.5 371,-30.5 371,0 549,0 549,-30.5"/>
<text text-anchor="start" x="379" y="-17" font-family="Helvetica,sans-Serif" font-size="10.00">edu.wpi.first.wpilibj.simulation.</text>
<text text-anchor="middle" x="460" y="-5.75" font-family="Helvetica,sans-Serif" font-size="10.00">DriverStationSim.getJoystickOutputs</text>
</a>
</g>
</g>
<!-- Node2 -->
<g id="Node000002" class="node">
<title>Node2</title>
<g id="a_Node000002"><a xlink:href="classedu_1_1wpi_1_1first_1_1wpilibj_1_1simulation_1_1_generic_h_i_d_sim.html#a11f746981e8c1f8c7d49a3cc24542d98" target="_top" xlink:title=" ">
<polygon fill="white" stroke="#666666" points="335,-30.5 185.5,-30.5 185.5,0 335,0 335,-30.5"/>
<text text-anchor="start" x="193.5" y="-17" font-family="Helvetica,sans-Serif" font-size="10.00">edu.wpi.first.wpilibj.simulation.</text>
<text text-anchor="middle" x="260.25" y="-5.75" font-family="Helvetica,sans-Serif" font-size="10.00">GenericHIDSim.getOutputs</text>
</a>
</g>
</g>
<!-- Node1&#45;&gt;Node2 -->
<g id="edge1_Node000001_Node000002" class="edge">
<title>Node1&#45;&gt;Node2</title>
<g id="a_edge1_Node000001_Node000002"><a xlink:title=" ">
<path fill="none" stroke="#63b8ff" d="M359.23,-15.25C351.22,-15.25 343.22,-15.25 335.44,-15.25"/>
<polygon fill="#63b8ff" stroke="#63b8ff" points="359.02,-18.75 369.02,-15.25 359.02,-11.75 359.02,-18.75"/>
</a>
</g>
</g>
<!-- Node3 -->
<g id="Node000003" class="node">
<title>Node3</title>
<g id="a_Node000003"><a xlink:href="classedu_1_1wpi_1_1first_1_1wpilibj_1_1simulation_1_1_generic_h_i_d_sim.html#ad6ce9dc781119d568b3f8dd8e58c5600" target="_top" xlink:title=" ">
<polygon fill="white" stroke="#666666" points="149.5,-30.5 0,-30.5 0,0 149.5,0 149.5,-30.5"/>
<text text-anchor="start" x="8" y="-17" font-family="Helvetica,sans-Serif" font-size="10.00">edu.wpi.first.wpilibj.simulation.</text>
<text text-anchor="middle" x="74.75" y="-5.75" font-family="Helvetica,sans-Serif" font-size="10.00">GenericHIDSim.getOutput</text>
</a>
</g>
</g>
<!-- Node2&#45;&gt;Node3 -->
<g id="edge2_Node000002_Node000003" class="edge">
<title>Node2&#45;&gt;Node3</title>
<g id="a_edge2_Node000002_Node000003"><a xlink:title=" ">
<path fill="none" stroke="#63b8ff" d="M173.86,-15.25C165.84,-15.25 157.75,-15.25 149.84,-15.25"/>
<polygon fill="#63b8ff" stroke="#63b8ff" points="173.63,-18.75 183.63,-15.25 173.63,-11.75 173.63,-18.75"/>
</a>
</g>
</g>
</g>
</svg>
