<?xml version="1.0" encoding="UTF-8" standalone="no"?>
<!DOCTYPE svg PUBLIC "-//W3C//DTD SVG 1.1//EN"
 "http://www.w3.org/Graphics/SVG/1.1/DTD/svg11.dtd">
<!-- Generated by graphviz version 9.0.0 (20230911.1827)
 -->
<!-- Title: edu.wpi.first.wpilibj.AnalogTrigger.getIndex Pages: 1 -->
<svg width="559pt" height="235pt"
 viewBox="0.00 0.00 559.25 234.50" xmlns="http://www.w3.org/2000/svg" xmlns:xlink="http://www.w3.org/1999/xlink">
<g id="graph0" class="graph" transform="scale(1 1) rotate(0) translate(4 230.5)">
<title>edu.wpi.first.wpilibj.AnalogTrigger.getIndex</title>
<!-- Node1 -->
<g id="Node000001" class="node">
<title>Node1</title>
<g id="a_Node000001"><a xlink:title=" ">
<polygon fill="#999999" stroke="#666666" points="551.25,-128.5 419,-128.5 419,-98 551.25,-98 551.25,-128.5"/>
<text text-anchor="start" x="427" y="-115" font-family="Helvetica,sans-Serif" font-size="10.00">edu.wpi.first.wpilibj.Analog</text>
<text text-anchor="middle" x="485.12" y="-103.75" font-family="Helvetica,sans-Serif" font-size="10.00">Trigger.getIndex</text>
</a>
</g>
</g>
<!-- Node2 -->
<g id="Node000002" class="node">
<title>Node2</title>
<g id="a_Node000002"><a xlink:href="classedu_1_1wpi_1_1first_1_1wpilibj_1_1_analog_trigger.html#a787d631592063aa77f24cd736b90885d" target="_top" xlink:title=" ">
<polygon fill="white" stroke="#666666" points="362.38,-226.5 230.12,-226.5 230.12,-196 362.38,-196 362.38,-226.5"/>
<text text-anchor="start" x="238.12" y="-213" font-family="Helvetica,sans-Serif" font-size="10.00">edu.wpi.first.wpilibj.Analog</text>
<text text-anchor="middle" x="296.25" y="-201.75" font-family="Helvetica,sans-Serif" font-size="10.00">Trigger.AnalogTrigger</text>
</a>
</g>
</g>
<!-- Node1&#45;&gt;Node2 -->
<g id="edge1_Node000001_Node000002" class="edge">
<title>Node1&#45;&gt;Node2</title>
<g id="a_edge1_Node000001_Node000002"><a xlink:title=" ">
<path fill="none" stroke="#63b8ff" d="M458.09,-135.9C438.55,-151.89 410.54,-172.79 383,-186.25 375.89,-189.72 368.22,-192.8 360.48,-195.51"/>
<polygon fill="#63b8ff" stroke="#63b8ff" points="460.09,-138.78 465.53,-129.69 455.61,-133.41 460.09,-138.78"/>
</a>
</g>
</g>
<!-- Node3 -->
<g id="Node000003" class="node">
<title>Node3</title>
<g id="a_Node000003"><a xlink:href="classedu_1_1wpi_1_1first_1_1wpilibj_1_1_analog_trigger.html#ae85dbb2de66f248c58d54249a45ec938" target="_top" xlink:title=" ">
<polygon fill="white" stroke="#666666" points="362.38,-177.5 230.12,-177.5 230.12,-147 362.38,-147 362.38,-177.5"/>
<text text-anchor="start" x="238.12" y="-164" font-family="Helvetica,sans-Serif" font-size="10.00">edu.wpi.first.wpilibj.Analog</text>
<text text-anchor="middle" x="296.25" y="-152.75" font-family="Helvetica,sans-Serif" font-size="10.00">Trigger.AnalogTrigger</text>
</a>
</g>
</g>
<!-- Node1&#45;&gt;Node3 -->
<g id="edge2_Node000001_Node000003" class="edge">
<title>Node1&#45;&gt;Node3</title>
<g id="a_edge2_Node000001_Node000003"><a xlink:title=" ">
<path fill="none" stroke="#63b8ff" d="M413.21,-131.84C394.72,-136.69 374.98,-141.87 357.13,-146.55"/>
<polygon fill="#63b8ff" stroke="#63b8ff" points="413.98,-135.26 422.76,-129.34 412.2,-128.49 413.98,-135.26"/>
</a>
</g>
</g>
<!-- Node4 -->
<g id="Node000004" class="node">
<title>Node4</title>
<g id="a_Node000004"><a xlink:href="classedu_1_1wpi_1_1first_1_1wpilibj_1_1_analog_trigger_output.html#ac1ae0f9d636567fdd2e1bb3da1f798d1" target="_top" xlink:title=" ">
<polygon fill="white" stroke="#666666" points="380,-128.5 212.5,-128.5 212.5,-98 380,-98 380,-128.5"/>
<text text-anchor="start" x="220.5" y="-115" font-family="Helvetica,sans-Serif" font-size="10.00">edu.wpi.first.wpilibj.Analog</text>
<text text-anchor="middle" x="296.25" y="-103.75" font-family="Helvetica,sans-Serif" font-size="10.00">TriggerOutput.AnalogTriggerOutput</text>
</a>
</g>
</g>
<!-- Node1&#45;&gt;Node4 -->
<g id="edge3_Node000001_Node000004" class="edge">
<title>Node1&#45;&gt;Node4</title>
<g id="a_edge3_Node000001_Node000004"><a xlink:title=" ">
<path fill="none" stroke="#63b8ff" d="M407.09,-113.25C398.29,-113.25 389.3,-113.25 380.43,-113.25"/>
<polygon fill="#63b8ff" stroke="#63b8ff" points="406.99,-116.75 416.99,-113.25 406.99,-109.75 406.99,-116.75"/>
</a>
</g>
</g>
<!-- Node5 -->
<g id="Node000005" class="node">
<title>Node5</title>
<g id="a_Node000005"><a xlink:href="classedu_1_1wpi_1_1first_1_1wpilibj_1_1simulation_1_1_analog_trigger_sim.html#a33f4ad28e82a16e3267857a0fa8d33c6" target="_top" xlink:title=" ">
<polygon fill="white" stroke="#666666" points="383,-79.5 209.5,-79.5 209.5,-49 383,-49 383,-79.5"/>
<text text-anchor="start" x="217.5" y="-66" font-family="Helvetica,sans-Serif" font-size="10.00">edu.wpi.first.wpilibj.simulation.</text>
<text text-anchor="middle" x="296.25" y="-54.75" font-family="Helvetica,sans-Serif" font-size="10.00">AnalogTriggerSim.AnalogTriggerSim</text>
</a>
</g>
</g>
<!-- Node1&#45;&gt;Node5 -->
<g id="edge4_Node000001_Node000005" class="edge">
<title>Node1&#45;&gt;Node5</title>
<g id="a_edge4_Node000001_Node000005"><a xlink:title=" ">
<path fill="none" stroke="#63b8ff" d="M413.21,-94.66C394.72,-89.81 374.98,-84.63 357.13,-79.95"/>
<polygon fill="#63b8ff" stroke="#63b8ff" points="412.2,-98.01 422.76,-97.16 413.98,-91.24 412.2,-98.01"/>
</a>
</g>
</g>
<!-- Node8 -->
<g id="Node000008" class="node">
<title>Node8</title>
<g id="a_Node000008"><a xlink:href="classedu_1_1wpi_1_1first_1_1wpilibj_1_1_analog_trigger_output.html#a00ea6e14ca8e34a74c2b239508274a3d" target="_top" xlink:title=" ">
<polygon fill="white" stroke="#666666" points="362.38,-30.5 230.12,-30.5 230.12,0 362.38,0 362.38,-30.5"/>
<text text-anchor="start" x="238.12" y="-17" font-family="Helvetica,sans-Serif" font-size="10.00">edu.wpi.first.wpilibj.Analog</text>
<text text-anchor="middle" x="296.25" y="-5.75" font-family="Helvetica,sans-Serif" font-size="10.00">TriggerOutput.getChannel</text>
</a>
</g>
</g>
<!-- Node1&#45;&gt;Node8 -->
<g id="edge7_Node000001_Node000008" class="edge">
<title>Node1&#45;&gt;Node8</title>
<g id="a_edge7_Node000001_Node000008"><a xlink:title=" ">
<path fill="none" stroke="#63b8ff" d="M458.09,-90.6C438.55,-74.61 410.54,-53.71 383,-40.25 375.89,-36.78 368.22,-33.7 360.48,-30.99"/>
<polygon fill="#63b8ff" stroke="#63b8ff" points="455.61,-93.09 465.53,-96.81 460.09,-87.72 455.61,-93.09"/>
</a>
</g>
</g>
<!-- Node6 -->
<g id="Node000006" class="node">
<title>Node6</title>
<g id="a_Node000006"><a xlink:href="classedu_1_1wpi_1_1first_1_1wpilibj_1_1simulation_1_1_analog_trigger_sim.html#aa7fc8645c6b1acd57934bf1170951a7b" target="_top" xlink:title=" ">
<polygon fill="white" stroke="#666666" points="173.5,-104.5 0,-104.5 0,-74 173.5,-74 173.5,-104.5"/>
<text text-anchor="start" x="8" y="-91" font-family="Helvetica,sans-Serif" font-size="10.00">edu.wpi.first.wpilibj.simulation.</text>
<text text-anchor="middle" x="86.75" y="-79.75" font-family="Helvetica,sans-Serif" font-size="10.00">AnalogTriggerSim.createForChannel</text>
</a>
</g>
</g>
<!-- Node5&#45;&gt;Node6 -->
<g id="edge5_Node000005_Node000006" class="edge">
<title>Node5&#45;&gt;Node6</title>
<g id="a_edge5_Node000005_Node000006"><a xlink:title=" ">
<path fill="none" stroke="#63b8ff" d="M197.75,-76C189.71,-76.97 181.62,-77.94 173.68,-78.9"/>
<polygon fill="#63b8ff" stroke="#63b8ff" points="198.04,-79.49 207.55,-74.82 197.2,-72.54 198.04,-79.49"/>
</a>
</g>
</g>
<!-- Node7 -->
<g id="Node000007" class="node">
<title>Node7</title>
<g id="a_Node000007"><a xlink:href="classedu_1_1wpi_1_1first_1_1wpilibj_1_1simulation_1_1_analog_trigger_sim.html#a91e9e08387ab03f2dab813d289aa7b81" target="_top" xlink:title=" ">
<polygon fill="white" stroke="#666666" points="167.5,-55.5 6,-55.5 6,-25 167.5,-25 167.5,-55.5"/>
<text text-anchor="start" x="14" y="-42" font-family="Helvetica,sans-Serif" font-size="10.00">edu.wpi.first.wpilibj.simulation.</text>
<text text-anchor="middle" x="86.75" y="-30.75" font-family="Helvetica,sans-Serif" font-size="10.00">AnalogTriggerSim.createForIndex</text>
</a>
</g>
</g>
<!-- Node5&#45;&gt;Node7 -->
<g id="edge6_Node000005_Node000007" class="edge">
<title>Node5&#45;&gt;Node7</title>
<g id="a_edge6_Node000005_Node000007"><a xlink:title=" ">
<path fill="none" stroke="#63b8ff" d="M197.75,-52.97C187.68,-51.81 177.54,-50.64 167.7,-49.5"/>
<polygon fill="#63b8ff" stroke="#63b8ff" points="197.21,-56.43 207.55,-54.11 198.02,-49.48 197.21,-56.43"/>
</a>
</g>
</g>
</g>
</svg>
