<?xml version="1.0" encoding="UTF-8" standalone="no"?>
<!DOCTYPE svg PUBLIC "-//W3C//DTD SVG 1.1//EN"
 "http://www.w3.org/Graphics/SVG/1.1/DTD/svg11.dtd">
<!-- Generated by graphviz version 9.0.0 (20230911.1827)
 -->
<!-- Title: edu.wpi.first.wpilibj.simulation.XboxControllerSim.setLeftStickButton Pages: 1 -->
<svg width="584pt" height="39pt"
 viewBox="0.00 0.00 584.00 38.50" xmlns="http://www.w3.org/2000/svg" xmlns:xlink="http://www.w3.org/1999/xlink">
<g id="graph0" class="graph" transform="scale(1 1) rotate(0) translate(4 34.5)">
<title>edu.wpi.first.wpilibj.simulation.XboxControllerSim.setLeftStickButton</title>
<!-- Node1 -->
<g id="Node000001" class="node">
<title>Node1</title>
<g id="a_Node000001"><a xlink:title=" ">
<polygon fill="#999999" stroke="#666666" points="181.75,-30.5 0,-30.5 0,0 181.75,0 181.75,-30.5"/>
<text text-anchor="start" x="8" y="-17" font-family="Helvetica,sans-Serif" font-size="10.00">edu.wpi.first.wpilibj.simulation.</text>
<text text-anchor="middle" x="90.88" y="-5.75" font-family="Helvetica,sans-Serif" font-size="10.00">XboxControllerSim.setLeftStickButton</text>
</a>
</g>
</g>
<!-- Node2 -->
<g id="Node000002" class="node">
<title>Node2</title>
<g id="a_Node000002"><a xlink:href="classedu_1_1wpi_1_1first_1_1wpilibj_1_1simulation_1_1_generic_h_i_d_sim.html#a59a64957c20d3ce400fa84e9957b4252" target="_top" xlink:title=" ">
<polygon fill="white" stroke="#666666" points="368,-30.5 217.75,-30.5 217.75,0 368,0 368,-30.5"/>
<text text-anchor="start" x="225.75" y="-17" font-family="Helvetica,sans-Serif" font-size="10.00">edu.wpi.first.wpilibj.simulation.</text>
<text text-anchor="middle" x="292.88" y="-5.75" font-family="Helvetica,sans-Serif" font-size="10.00">GenericHIDSim.setRawButton</text>
</a>
</g>
</g>
<!-- Node1&#45;&gt;Node2 -->
<g id="edge1_Node000001_Node000002" class="edge">
<title>Node1&#45;&gt;Node2</title>
<g id="a_edge1_Node000001_Node000002"><a xlink:title=" ">
<path fill="none" stroke="#63b8ff" d="M182.22,-15.25C190.15,-15.25 198.16,-15.25 206.05,-15.25"/>
<polygon fill="#63b8ff" stroke="#63b8ff" points="205.99,-18.75 215.99,-15.25 205.99,-11.75 205.99,-18.75"/>
</a>
</g>
</g>
<!-- Node3 -->
<g id="Node000003" class="node">
<title>Node3</title>
<g id="a_Node000003"><a xlink:href="classedu_1_1wpi_1_1first_1_1wpilibj_1_1simulation_1_1_driver_station_sim.html#a37f2d3995518ba4d1ca2f6656bc8c687" target="_top" xlink:title=" ">
<polygon fill="white" stroke="#666666" points="576,-30.5 404,-30.5 404,0 576,0 576,-30.5"/>
<text text-anchor="start" x="412" y="-17" font-family="Helvetica,sans-Serif" font-size="10.00">edu.wpi.first.wpilibj.simulation.</text>
<text text-anchor="middle" x="490" y="-5.75" font-family="Helvetica,sans-Serif" font-size="10.00">DriverStationSim.setJoystickButton</text>
</a>
</g>
</g>
<!-- Node2&#45;&gt;Node3 -->
<g id="edge2_Node000002_Node000003" class="edge">
<title>Node2&#45;&gt;Node3</title>
<g id="a_edge2_Node000002_Node000003"><a xlink:title=" ">
<path fill="none" stroke="#63b8ff" d="M368.48,-15.25C376.3,-15.25 384.34,-15.25 392.36,-15.25"/>
<polygon fill="#63b8ff" stroke="#63b8ff" points="392.17,-18.75 402.17,-15.25 392.17,-11.75 392.17,-18.75"/>
</a>
</g>
</g>
</g>
</svg>
