<?xml version="1.0" encoding="UTF-8" standalone="no"?>
<!DOCTYPE svg PUBLIC "-//W3C//DTD SVG 1.1//EN"
 "http://www.w3.org/Graphics/SVG/1.1/DTD/svg11.dtd">
<!-- Generated by graphviz version 9.0.0 (20230911.1827)
 -->
<!-- Title: edu.wpi.first.wpilibj.PS4Controller.getShareButton Pages: 1 -->
<svg width="480pt" height="106pt"
 viewBox="0.00 0.00 479.75 105.50" xmlns="http://www.w3.org/2000/svg" xmlns:xlink="http://www.w3.org/1999/xlink">
<g id="graph0" class="graph" transform="scale(1 1) rotate(0) translate(4 101.5)">
<title>edu.wpi.first.wpilibj.PS4Controller.getShareButton</title>
<!-- Node1 -->
<g id="Node000001" class="node">
<title>Node1</title>
<g id="a_Node000001"><a xlink:title=" ">
<polygon fill="#999999" stroke="#666666" points="127.75,-79.5 0,-79.5 0,-49 127.75,-49 127.75,-79.5"/>
<text text-anchor="start" x="8" y="-66" font-family="Helvetica,sans-Serif" font-size="10.00">edu.wpi.first.wpilibj.PS4</text>
<text text-anchor="middle" x="63.88" y="-54.75" font-family="Helvetica,sans-Serif" font-size="10.00">Controller.getShareButton</text>
</a>
</g>
</g>
<!-- Node2 -->
<g id="Node000002" class="node">
<title>Node2</title>
<g id="a_Node000002"><a xlink:href="classedu_1_1wpi_1_1first_1_1wpilibj_1_1_generic_h_i_d.html#abdb0245e5cb7f7b92cc1060202821a2d" target="_top" xlink:title=" ">
<polygon fill="white" stroke="#666666" points="299.75,-79.5 163.75,-79.5 163.75,-49 299.75,-49 299.75,-79.5"/>
<text text-anchor="start" x="171.75" y="-66" font-family="Helvetica,sans-Serif" font-size="10.00">edu.wpi.first.wpilibj.Generic</text>
<text text-anchor="middle" x="231.75" y="-54.75" font-family="Helvetica,sans-Serif" font-size="10.00">HID.getRawButton</text>
</a>
</g>
</g>
<!-- Node1&#45;&gt;Node2 -->
<g id="edge1_Node000001_Node000002" class="edge">
<title>Node1&#45;&gt;Node2</title>
<g id="a_edge1_Node000001_Node000002"><a xlink:title=" ">
<path fill="none" stroke="#63b8ff" d="M128.06,-64.25C135.9,-64.25 143.99,-64.25 152.03,-64.25"/>
<polygon fill="#63b8ff" stroke="#63b8ff" points="151.81,-67.75 161.81,-64.25 151.81,-60.75 151.81,-67.75"/>
</a>
</g>
</g>
<!-- Node3 -->
<g id="Node000003" class="node">
<title>Node3</title>
<g id="a_Node000003"><a xlink:href="classedu_1_1wpi_1_1first_1_1wpilibj_1_1_generic_h_i_d.html#a77f3feaa9b70759aa7e26c20bec4bec2" target="_top" xlink:title=" ">
<polygon fill="white" stroke="#666666" points="471.75,-79.5 335.75,-79.5 335.75,-49 471.75,-49 471.75,-79.5"/>
<text text-anchor="start" x="343.75" y="-66" font-family="Helvetica,sans-Serif" font-size="10.00">edu.wpi.first.wpilibj.Generic</text>
<text text-anchor="middle" x="403.75" y="-54.75" font-family="Helvetica,sans-Serif" font-size="10.00">HID.button</text>
</a>
</g>
</g>
<!-- Node2&#45;&gt;Node3 -->
<g id="edge2_Node000002_Node000003" class="edge">
<title>Node2&#45;&gt;Node3</title>
<g id="a_edge2_Node000002_Node000003"><a xlink:title=" ">
<path fill="none" stroke="#63b8ff" d="M299.94,-57.63C307.89,-57.51 316.05,-57.47 324.14,-57.52"/>
<polygon fill="#63b8ff" stroke="#63b8ff" points="323.94,-61.02 333.98,-57.62 324.02,-54.02 323.94,-61.02"/>
</a>
</g>
</g>
<!-- Node4 -->
<g id="Node000004" class="node">
<title>Node4</title>
<g id="a_Node000004"><a xlink:href="classedu_1_1wpi_1_1first_1_1wpilibj_1_1_driver_station.html#a3d86d4b8414c05aafe18fc866d99ccab" target="_top" xlink:title=" ">
<polygon fill="white" stroke="#666666" points="468,-30.5 339.5,-30.5 339.5,0 468,0 468,-30.5"/>
<text text-anchor="start" x="347.5" y="-17" font-family="Helvetica,sans-Serif" font-size="10.00">edu.wpi.first.wpilibj.Driver</text>
<text text-anchor="middle" x="403.75" y="-5.75" font-family="Helvetica,sans-Serif" font-size="10.00">Station.getStickButton</text>
</a>
</g>
</g>
<!-- Node2&#45;&gt;Node4 -->
<g id="edge5_Node000002_Node000004" class="edge">
<title>Node2&#45;&gt;Node4</title>
<g id="a_edge5_Node000002_Node000004"><a xlink:title=" ">
<path fill="none" stroke="#63b8ff" d="M287.01,-48.61C303.03,-43.99 320.73,-38.89 337.38,-34.09"/>
<polygon fill="#63b8ff" stroke="#63b8ff" points="338.04,-37.54 346.68,-31.41 336.1,-30.82 338.04,-37.54"/>
</a>
</g>
</g>
<!-- Node3&#45;&gt;Node2 -->
<g id="edge4_Node000003_Node000002" class="edge">
<title>Node3&#45;&gt;Node2</title>
<g id="a_edge4_Node000003_Node000002"><a xlink:title=" ">
<path fill="none" stroke="#63b8ff" d="M335.49,-70.87C327.54,-70.99 319.38,-71.03 311.29,-70.98"/>
<polygon fill="#63b8ff" stroke="#63b8ff" points="311.49,-67.48 301.45,-70.88 311.42,-74.48 311.49,-67.48"/>
</a>
</g>
</g>
<!-- Node3&#45;&gt;Node3 -->
<g id="edge3_Node000003_Node000003" class="edge">
<title>Node3&#45;&gt;Node3</title>
<g id="a_edge3_Node000003_Node000003"><a xlink:title=" ">
<path fill="none" stroke="#63b8ff" d="M373.27,-79.99C367.05,-89.06 377.21,-97.5 403.75,-97.5 418.26,-97.5 427.88,-94.97 432.59,-91.2"/>
<polygon fill="#63b8ff" stroke="#63b8ff" points="436.03,-91.88 434.01,-81.48 429.11,-90.87 436.03,-91.88"/>
</a>
</g>
</g>
</g>
</svg>
