<?xml version="1.0" encoding="UTF-8" standalone="no"?>
<!DOCTYPE svg PUBLIC "-//W3C//DTD SVG 1.1//EN"
 "http://www.w3.org/Graphics/SVG/1.1/DTD/svg11.dtd">
<!-- Generated by graphviz version 9.0.0 (20230911.1827)
 -->
<!-- Title: edu.wpi.first.wpilibj.XboxController.getRightX Pages: 1 -->
<svg width="469pt" height="39pt"
 viewBox="0.00 0.00 469.25 38.50" xmlns="http://www.w3.org/2000/svg" xmlns:xlink="http://www.w3.org/1999/xlink">
<g id="graph0" class="graph" transform="scale(1 1) rotate(0) translate(4 34.5)">
<title>edu.wpi.first.wpilibj.XboxController.getRightX</title>
<!-- Node1 -->
<g id="Node000001" class="node">
<title>Node1</title>
<g id="a_Node000001"><a xlink:title=" ">
<polygon fill="#999999" stroke="#666666" points="124.75,-30.5 0,-30.5 0,0 124.75,0 124.75,-30.5"/>
<text text-anchor="start" x="8" y="-17" font-family="Helvetica,sans-Serif" font-size="10.00">edu.wpi.first.wpilibj.Xbox</text>
<text text-anchor="middle" x="62.38" y="-5.75" font-family="Helvetica,sans-Serif" font-size="10.00">Controller.getRightX</text>
</a>
</g>
</g>
<!-- Node2 -->
<g id="Node000002" class="node">
<title>Node2</title>
<g id="a_Node000002"><a xlink:href="classedu_1_1wpi_1_1first_1_1wpilibj_1_1_generic_h_i_d.html#a561e13532e9305a057a3b02cc655833c" target="_top" xlink:title=" ">
<polygon fill="white" stroke="#666666" points="296.75,-30.5 160.75,-30.5 160.75,0 296.75,0 296.75,-30.5"/>
<text text-anchor="start" x="168.75" y="-17" font-family="Helvetica,sans-Serif" font-size="10.00">edu.wpi.first.wpilibj.Generic</text>
<text text-anchor="middle" x="228.75" y="-5.75" font-family="Helvetica,sans-Serif" font-size="10.00">HID.getRawAxis</text>
</a>
</g>
</g>
<!-- Node1&#45;&gt;Node2 -->
<g id="edge1_Node000001_Node000002" class="edge">
<title>Node1&#45;&gt;Node2</title>
<g id="a_edge1_Node000001_Node000002"><a xlink:title=" ">
<path fill="none" stroke="#63b8ff" d="M125.05,-15.25C132.91,-15.25 141.04,-15.25 149.13,-15.25"/>
<polygon fill="#63b8ff" stroke="#63b8ff" points="148.98,-18.75 158.98,-15.25 148.98,-11.75 148.98,-18.75"/>
</a>
</g>
</g>
<!-- Node3 -->
<g id="Node000003" class="node">
<title>Node3</title>
<g id="a_Node000003"><a xlink:href="classedu_1_1wpi_1_1first_1_1wpilibj_1_1_driver_station.html#af9606114345715ee1577c2b0c66a070c" target="_top" xlink:title=" ">
<polygon fill="white" stroke="#666666" points="461.25,-30.5 332.75,-30.5 332.75,0 461.25,0 461.25,-30.5"/>
<text text-anchor="start" x="340.75" y="-17" font-family="Helvetica,sans-Serif" font-size="10.00">edu.wpi.first.wpilibj.Driver</text>
<text text-anchor="middle" x="397" y="-5.75" font-family="Helvetica,sans-Serif" font-size="10.00">Station.getStickAxis</text>
</a>
</g>
</g>
<!-- Node2&#45;&gt;Node3 -->
<g id="edge2_Node000002_Node000003" class="edge">
<title>Node2&#45;&gt;Node3</title>
<g id="a_edge2_Node000002_Node000003"><a xlink:title=" ">
<path fill="none" stroke="#63b8ff" d="M296.89,-15.25C304.85,-15.25 313.02,-15.25 321.08,-15.25"/>
<polygon fill="#63b8ff" stroke="#63b8ff" points="320.87,-18.75 330.87,-15.25 320.87,-11.75 320.87,-18.75"/>
</a>
</g>
</g>
</g>
</svg>
