<?xml version="1.0" encoding="UTF-8" standalone="no"?>
<!DOCTYPE svg PUBLIC "-//W3C//DTD SVG 1.1//EN"
 "http://www.w3.org/Graphics/SVG/1.1/DTD/svg11.dtd">
<!-- Generated by graphviz version 9.0.0 (20230911.1827)
 -->
<!-- Title: edu.wpi.first.wpilibj.ADXRS450_Gyro.ADXRS450_Gyro Pages: 1 -->
<svg width="547pt" height="260pt"
 viewBox="0.00 0.00 547.25 260.25" xmlns="http://www.w3.org/2000/svg" xmlns:xlink="http://www.w3.org/1999/xlink">
<g id="graph0" class="graph" transform="scale(1 1) rotate(0) translate(4 256.25)">
<title>edu.wpi.first.wpilibj.ADXRS450_Gyro.ADXRS450_Gyro</title>
<!-- Node1 -->
<g id="Node000001" class="node">
<title>Node1</title>
<g id="a_Node000001"><a xlink:title=" ">
<polygon fill="#999999" stroke="#666666" points="153.25,-116.88 0,-116.88 0,-86.38 153.25,-86.38 153.25,-116.88"/>
<text text-anchor="start" x="8" y="-103.38" font-family="Helvetica,sans-Serif" font-size="10.00">edu.wpi.first.wpilibj.ADXRS450</text>
<text text-anchor="middle" x="76.62" y="-92.12" font-family="Helvetica,sans-Serif" font-size="10.00">_Gyro.ADXRS450_Gyro</text>
</a>
</g>
</g>
<!-- Node2 -->
<g id="Node000002" class="node">
<title>Node2</title>
<g id="a_Node000002"><a xlink:href="classedu_1_1wpi_1_1first_1_1wpilibj_1_1_s_p_i.html#a8b5b7c1cfb5a46b1a56278f8d472448c" target="_top" xlink:title=" ">
<polygon fill="white" stroke="#666666" points="336.12,-214.88 201.62,-214.88 201.62,-184.38 336.12,-184.38 336.12,-214.88"/>
<text text-anchor="start" x="209.62" y="-201.38" font-family="Helvetica,sans-Serif" font-size="10.00">edu.wpi.first.wpilibj.SPI.init</text>
<text text-anchor="middle" x="268.88" y="-190.12" font-family="Helvetica,sans-Serif" font-size="10.00">Accumulator</text>
</a>
</g>
</g>
<!-- Node1&#45;&gt;Node2 -->
<g id="edge1_Node000001_Node000002" class="edge">
<title>Node1&#45;&gt;Node2</title>
<g id="a_edge1_Node000001_Node000002"><a xlink:title=" ">
<path fill="none" stroke="#63b8ff" d="M97.62,-117.11C119.23,-133.26 155.16,-158.43 189.25,-174.62 193.21,-176.51 197.35,-178.3 201.57,-179.99"/>
<polygon fill="#63b8ff" stroke="#63b8ff" points="200.15,-183.19 210.74,-183.46 202.63,-176.65 200.15,-183.19"/>
</a>
</g>
</g>
<!-- Node6 -->
<g id="Node000006" class="node">
<title>Node6</title>
<g id="a_Node000006"><a xlink:href="classedu_1_1wpi_1_1first_1_1wpilibj_1_1_driver_station.html#a40fcb0dd08778d829076cf9fcc8ab402" target="_top" xlink:title=" ">
<polygon fill="white" stroke="#666666" points="333.12,-165.88 204.62,-165.88 204.62,-135.38 333.12,-135.38 333.12,-165.88"/>
<text text-anchor="start" x="212.62" y="-152.38" font-family="Helvetica,sans-Serif" font-size="10.00">edu.wpi.first.wpilibj.Driver</text>
<text text-anchor="middle" x="268.88" y="-141.12" font-family="Helvetica,sans-Serif" font-size="10.00">Station.reportError</text>
</a>
</g>
</g>
<!-- Node1&#45;&gt;Node6 -->
<g id="edge5_Node000001_Node000006" class="edge">
<title>Node1&#45;&gt;Node6</title>
<g id="a_edge5_Node000001_Node000006"><a xlink:title=" ">
<path fill="none" stroke="#63b8ff" d="M138.61,-117.33C156.87,-122.03 177.07,-127.24 195.96,-132.1"/>
<polygon fill="#63b8ff" stroke="#63b8ff" points="194.89,-135.44 205.45,-134.55 196.64,-128.66 194.89,-135.44"/>
</a>
</g>
</g>
<!-- Node7 -->
<g id="Node000007" class="node">
<title>Node7</title>
<g id="a_Node000007"><a xlink:href="classedu_1_1wpi_1_1first_1_1wpilibj_1_1_s_p_i.html#a0bb120e12ca254d5e4de9f0f15744c8d" target="_top" xlink:title=" ">
<polygon fill="white" stroke="#666666" points="336.5,-116.88 201.25,-116.88 201.25,-86.38 336.5,-86.38 336.5,-116.88"/>
<text text-anchor="start" x="209.25" y="-103.38" font-family="Helvetica,sans-Serif" font-size="10.00">edu.wpi.first.wpilibj.SPI.set</text>
<text text-anchor="middle" x="268.88" y="-92.12" font-family="Helvetica,sans-Serif" font-size="10.00">ChipSelectActiveLow</text>
</a>
</g>
</g>
<!-- Node1&#45;&gt;Node7 -->
<g id="edge6_Node000001_Node000007" class="edge">
<title>Node1&#45;&gt;Node7</title>
<g id="a_edge6_Node000001_Node000007"><a xlink:title=" ">
<path fill="none" stroke="#63b8ff" d="M153.64,-101.62C165.48,-101.62 177.74,-101.62 189.63,-101.62"/>
<polygon fill="#63b8ff" stroke="#63b8ff" points="189.38,-105.13 199.38,-101.63 189.38,-98.13 189.38,-105.13"/>
</a>
</g>
</g>
<!-- Node8 -->
<g id="Node000008" class="node">
<title>Node8</title>
<g id="a_Node000008"><a xlink:href="classedu_1_1wpi_1_1first_1_1wpilibj_1_1_s_p_i.html#a45b42bd39ca2f63f45e4e14f9b84a0fd" target="_top" xlink:title=" ">
<polygon fill="white" stroke="#666666" points="336.5,-67.88 201.25,-67.88 201.25,-37.38 336.5,-37.38 336.5,-67.88"/>
<text text-anchor="start" x="209.25" y="-54.38" font-family="Helvetica,sans-Serif" font-size="10.00">edu.wpi.first.wpilibj.SPI.set</text>
<text text-anchor="middle" x="268.88" y="-43.12" font-family="Helvetica,sans-Serif" font-size="10.00">ClockRate</text>
</a>
</g>
</g>
<!-- Node1&#45;&gt;Node8 -->
<g id="edge7_Node000001_Node000008" class="edge">
<title>Node1&#45;&gt;Node8</title>
<g id="a_edge7_Node000001_Node000008"><a xlink:title=" ">
<path fill="none" stroke="#63b8ff" d="M138.61,-85.92C156.87,-81.22 177.07,-76.01 195.96,-71.15"/>
<polygon fill="#63b8ff" stroke="#63b8ff" points="196.64,-74.59 205.45,-68.7 194.89,-67.81 196.64,-74.59"/>
</a>
</g>
</g>
<!-- Node9 -->
<g id="Node000009" class="node">
<title>Node9</title>
<g id="a_Node000009"><a xlink:href="classedu_1_1wpi_1_1first_1_1wpilibj_1_1_s_p_i.html#a7977e9c075348c4428a0fb6766c09f57" target="_top" xlink:title=" ">
<polygon fill="white" stroke="#666666" points="348.5,-19.25 189.25,-19.25 189.25,0 348.5,0 348.5,-19.25"/>
<text text-anchor="middle" x="268.88" y="-5.75" font-family="Helvetica,sans-Serif" font-size="10.00">edu.wpi.first.wpilibj.SPI.setMode</text>
</a>
</g>
</g>
<!-- Node1&#45;&gt;Node9 -->
<g id="edge8_Node000001_Node000009" class="edge">
<title>Node1&#45;&gt;Node9</title>
<g id="a_edge8_Node000001_Node000009"><a xlink:title=" ">
<path fill="none" stroke="#63b8ff" d="M97.01,-85.96C118.39,-69.42 154.39,-43.7 189.25,-28.62 194.15,-26.51 199.32,-24.6 204.59,-22.89"/>
<polygon fill="#63b8ff" stroke="#63b8ff" points="205.43,-26.29 214.01,-20.07 203.42,-19.58 205.43,-26.29"/>
</a>
</g>
</g>
<!-- Node3 -->
<g id="Node000003" class="node">
<title>Node3</title>
<g id="a_Node000003"><a xlink:href="classedu_1_1wpi_1_1first_1_1wpilibj_1_1_s_p_i.html#a83f6e306bf3747492845a2087ef8c64d" target="_top" xlink:title=" ">
<polygon fill="white" stroke="#666666" points="539.25,-252.25 384.5,-252.25 384.5,-233 539.25,-233 539.25,-252.25"/>
<text text-anchor="middle" x="461.88" y="-238.75" font-family="Helvetica,sans-Serif" font-size="10.00">edu.wpi.first.wpilibj.SPI.initAuto</text>
</a>
</g>
</g>
<!-- Node2&#45;&gt;Node3 -->
<g id="edge2_Node000002_Node000003" class="edge">
<title>Node2&#45;&gt;Node3</title>
<g id="a_edge2_Node000002_Node000003"><a xlink:title=" ">
<path fill="none" stroke="#63b8ff" d="M336.41,-214.6C358.77,-219.64 383.47,-225.2 404.93,-230.03"/>
<polygon fill="#63b8ff" stroke="#63b8ff" points="404.15,-233.44 414.68,-232.22 405.69,-226.61 404.15,-233.44"/>
</a>
</g>
</g>
<!-- Node4 -->
<g id="Node000004" class="node">
<title>Node4</title>
<g id="a_Node000004"><a xlink:href="classedu_1_1wpi_1_1first_1_1wpilibj_1_1_s_p_i.html#a7057b307dd6cd3acf0732b851f4aacbe" target="_top" xlink:title=" ">
<polygon fill="white" stroke="#666666" points="529.5,-214.88 394.25,-214.88 394.25,-184.38 529.5,-184.38 529.5,-214.88"/>
<text text-anchor="start" x="402.25" y="-201.38" font-family="Helvetica,sans-Serif" font-size="10.00">edu.wpi.first.wpilibj.SPI.set</text>
<text text-anchor="middle" x="461.88" y="-190.12" font-family="Helvetica,sans-Serif" font-size="10.00">AutoTransmitData</text>
</a>
</g>
</g>
<!-- Node2&#45;&gt;Node4 -->
<g id="edge3_Node000002_Node000004" class="edge">
<title>Node2&#45;&gt;Node4</title>
<g id="a_edge3_Node000002_Node000004"><a xlink:title=" ">
<path fill="none" stroke="#63b8ff" d="M336.41,-199.62C351.4,-199.62 367.44,-199.62 382.85,-199.62"/>
<polygon fill="#63b8ff" stroke="#63b8ff" points="382.42,-203.13 392.42,-199.63 382.42,-196.13 382.42,-203.13"/>
</a>
</g>
</g>
<!-- Node5 -->
<g id="Node000005" class="node">
<title>Node5</title>
<g id="a_Node000005"><a xlink:href="classedu_1_1wpi_1_1first_1_1wpilibj_1_1_s_p_i.html#ade0f1e7bba2dc5f02cd08ab1f015541d" target="_top" xlink:title=" ">
<polygon fill="white" stroke="#666666" points="532.5,-165.88 391.25,-165.88 391.25,-135.38 532.5,-135.38 532.5,-165.88"/>
<text text-anchor="start" x="399.25" y="-152.38" font-family="Helvetica,sans-Serif" font-size="10.00">edu.wpi.first.wpilibj.SPI.start</text>
<text text-anchor="middle" x="461.88" y="-141.12" font-family="Helvetica,sans-Serif" font-size="10.00">AutoRate</text>
</a>
</g>
</g>
<!-- Node2&#45;&gt;Node5 -->
<g id="edge4_Node000002_Node000005" class="edge">
<title>Node2&#45;&gt;Node5</title>
<g id="a_edge4_Node000002_Node000005"><a xlink:title=" ">
<path fill="none" stroke="#63b8ff" d="M331.1,-183.92C349.43,-179.22 369.71,-174.01 388.68,-169.15"/>
<polygon fill="#63b8ff" stroke="#63b8ff" points="389.39,-172.58 398.21,-166.7 387.65,-165.8 389.39,-172.58"/>
</a>
</g>
</g>
</g>
</svg>
