<?xml version="1.0" encoding="UTF-8" standalone="no"?>
<!DOCTYPE svg PUBLIC "-//W3C//DTD SVG 1.1//EN"
 "http://www.w3.org/Graphics/SVG/1.1/DTD/svg11.dtd">
<!-- Generated by graphviz version 9.0.0 (20230911.1827)
 -->
<!-- Title: edu.wpi.first.wpilibj.AnalogEncoder Pages: 1 -->
<svg width="162pt" height="94pt"
 viewBox="0.00 0.00 162.12 93.75" xmlns="http://www.w3.org/2000/svg" xmlns:xlink="http://www.w3.org/1999/xlink">
<g id="graph0" class="graph" transform="scale(1 1) rotate(0) translate(4 89.75)">
<title>edu.wpi.first.wpilibj.AnalogEncoder</title>
<!-- Node1 -->
<g id="Node000001" class="node">
<title>Node1</title>
<g id="a_Node000001"><a xlink:title=" ">
<polygon fill="#999999" stroke="#666666" points="137.38,-30.5 5.12,-30.5 5.12,0 137.38,0 137.38,-30.5"/>
<text text-anchor="start" x="13.12" y="-17" font-family="Helvetica,sans-Serif" font-size="10.00">edu.wpi.first.wpilibj.Analog</text>
<text text-anchor="middle" x="71.25" y="-5.75" font-family="Helvetica,sans-Serif" font-size="10.00">Encoder</text>
</a>
</g>
</g>
<!-- Node2 -->
<g id="Node000002" class="node">
<title>Node2</title>
<g id="a_Node000002"><a xlink:title=" ">
<polygon fill="white" stroke="#bfbfbf" points="56.5,-85.75 0,-85.75 0,-66.5 56.5,-66.5 56.5,-85.75"/>
<text text-anchor="middle" x="28.25" y="-72.25" font-family="Helvetica,sans-Serif" font-size="10.00">Sendable</text>
</a>
</g>
</g>
<!-- Node2&#45;&gt;Node1 -->
<g id="edge1_Node000001_Node000002" class="edge">
<title>Node2&#45;&gt;Node1</title>
<g id="a_edge1_Node000001_Node000002"><a xlink:title=" ">
<path fill="none" stroke="#63b8ff" d="M41.38,-57.15C47.55,-48.7 54.82,-38.75 60.64,-30.78"/>
<polygon fill="#63b8ff" stroke="#63b8ff" points="38.75,-54.82 35.67,-64.96 44.4,-58.95 38.75,-54.82"/>
</a>
</g>
</g>
<!-- Node3 -->
<g id="Node000003" class="node">
<title>Node3</title>
<g id="a_Node000003"><a xlink:title=" ">
<polygon fill="white" stroke="#bfbfbf" points="154.12,-85.75 74.38,-85.75 74.38,-66.5 154.12,-66.5 154.12,-85.75"/>
<text text-anchor="middle" x="114.25" y="-72.25" font-family="Helvetica,sans-Serif" font-size="10.00">AutoCloseable</text>
</a>
</g>
</g>
<!-- Node3&#45;&gt;Node1 -->
<g id="edge2_Node000001_Node000003" class="edge">
<title>Node3&#45;&gt;Node1</title>
<g id="a_edge2_Node000001_Node000003"><a xlink:title=" ">
<path fill="none" stroke="#63b8ff" d="M101.12,-57.15C94.95,-48.7 87.68,-38.75 81.86,-30.78"/>
<polygon fill="#63b8ff" stroke="#63b8ff" points="98.1,-58.95 106.83,-64.96 103.75,-54.82 98.1,-58.95"/>
</a>
</g>
</g>
</g>
</svg>
