<?xml version="1.0" encoding="UTF-8" standalone="no"?>
<!DOCTYPE svg PUBLIC "-//W3C//DTD SVG 1.1//EN"
 "http://www.w3.org/Graphics/SVG/1.1/DTD/svg11.dtd">
<!-- Generated by graphviz version 9.0.0 (20230911.1827)
 -->
<!-- Title: edu.wpi.first.wpilibj.DriverStation.refreshData Pages: 1 -->
<svg width="520pt" height="137pt"
 viewBox="0.00 0.00 520.25 136.50" xmlns="http://www.w3.org/2000/svg" xmlns:xlink="http://www.w3.org/1999/xlink">
<g id="graph0" class="graph" transform="scale(1 1) rotate(0) translate(4 132.5)">
<title>edu.wpi.first.wpilibj.DriverStation.refreshData</title>
<!-- Node1 -->
<g id="Node000001" class="node">
<title>Node1</title>
<g id="a_Node000001"><a xlink:title=" ">
<polygon fill="#999999" stroke="#666666" points="512.25,-79.5 383.75,-79.5 383.75,-49 512.25,-49 512.25,-79.5"/>
<text text-anchor="start" x="391.75" y="-66" font-family="Helvetica,sans-Serif" font-size="10.00">edu.wpi.first.wpilibj.Driver</text>
<text text-anchor="middle" x="448" y="-54.75" font-family="Helvetica,sans-Serif" font-size="10.00">Station.refreshData</text>
</a>
</g>
</g>
<!-- Node2 -->
<g id="Node000002" class="node">
<title>Node2</title>
<g id="a_Node000002"><a xlink:href="classedu_1_1wpi_1_1first_1_1wpilibj_1_1_iterative_robot_base.html#aac5c45d7130bce188e0f9278075e8891" target="_top" xlink:title=" ">
<polygon fill="white" stroke="#666666" points="337.25,-128.5 199.75,-128.5 199.75,-98 337.25,-98 337.25,-128.5"/>
<text text-anchor="start" x="207.75" y="-115" font-family="Helvetica,sans-Serif" font-size="10.00">edu.wpi.first.wpilibj.Iterative</text>
<text text-anchor="middle" x="268.5" y="-103.75" font-family="Helvetica,sans-Serif" font-size="10.00">RobotBase.loopFunc</text>
</a>
</g>
</g>
<!-- Node1&#45;&gt;Node2 -->
<g id="edge1_Node000001_Node000002" class="edge">
<title>Node1&#45;&gt;Node2</title>
<g id="a_edge1_Node000001_Node000002"><a xlink:title=" ">
<path fill="none" stroke="#63b8ff" d="M379.63,-82.85C362.12,-87.68 343.44,-92.84 326.53,-97.51"/>
<polygon fill="#63b8ff" stroke="#63b8ff" points="380.18,-86.33 388.89,-80.29 378.32,-79.58 380.18,-86.33"/>
</a>
</g>
</g>
<!-- Node3 -->
<g id="Node000003" class="node">
<title>Node3</title>
<g id="a_Node000003"><a xlink:href="classedu_1_1wpi_1_1first_1_1wpilibj_1_1simulation_1_1_driver_station_sim.html#a6a17194badc172f9b017b5e06b07c6a0" target="_top" xlink:title=" ">
<polygon fill="white" stroke="#666666" points="347.75,-79.5 189.25,-79.5 189.25,-49 347.75,-49 347.75,-79.5"/>
<text text-anchor="start" x="197.25" y="-66" font-family="Helvetica,sans-Serif" font-size="10.00">edu.wpi.first.wpilibj.simulation.</text>
<text text-anchor="middle" x="268.5" y="-54.75" font-family="Helvetica,sans-Serif" font-size="10.00">DriverStationSim.notifyNewData</text>
</a>
</g>
</g>
<!-- Node1&#45;&gt;Node3 -->
<g id="edge2_Node000001_Node000003" class="edge">
<title>Node1&#45;&gt;Node3</title>
<g id="a_edge2_Node000001_Node000003"><a xlink:title=" ">
<path fill="none" stroke="#63b8ff" d="M371.99,-64.25C364.1,-64.25 356.06,-64.25 348.13,-64.25"/>
<polygon fill="#63b8ff" stroke="#63b8ff" points="371.91,-67.75 381.91,-64.25 371.91,-60.75 371.91,-67.75"/>
</a>
</g>
</g>
<!-- Node5 -->
<g id="Node000005" class="node">
<title>Node5</title>
<g id="a_Node000005"><a xlink:href="classedu_1_1wpi_1_1first_1_1wpilibj_1_1_robot_base.html#aca4e3fd628a06764d869dc9ab535fb0d" target="_top" xlink:title=" ">
<polygon fill="white" stroke="#666666" points="332.75,-30.5 204.25,-30.5 204.25,0 332.75,0 332.75,-30.5"/>
<text text-anchor="start" x="212.25" y="-17" font-family="Helvetica,sans-Serif" font-size="10.00">edu.wpi.first.wpilibj.Robot</text>
<text text-anchor="middle" x="268.5" y="-5.75" font-family="Helvetica,sans-Serif" font-size="10.00">Base.startRobot</text>
</a>
</g>
</g>
<!-- Node1&#45;&gt;Node5 -->
<g id="edge4_Node000001_Node000005" class="edge">
<title>Node1&#45;&gt;Node5</title>
<g id="a_edge4_Node000001_Node000005"><a xlink:title=" ">
<path fill="none" stroke="#63b8ff" d="M379.63,-45.65C362.12,-40.82 343.44,-35.66 326.53,-30.99"/>
<polygon fill="#63b8ff" stroke="#63b8ff" points="378.32,-48.92 388.89,-48.21 380.18,-42.17 378.32,-48.92"/>
</a>
</g>
</g>
<!-- Node4 -->
<g id="Node000004" class="node">
<title>Node4</title>
<g id="a_Node000004"><a xlink:href="classedu_1_1wpi_1_1first_1_1wpilibj_1_1simulation_1_1_generic_h_i_d_sim.html#afac1404abd4fdc3a65716ee801a0420b" target="_top" xlink:title=" ">
<polygon fill="white" stroke="#666666" points="153.25,-79.5 0,-79.5 0,-49 153.25,-49 153.25,-79.5"/>
<text text-anchor="start" x="8" y="-66" font-family="Helvetica,sans-Serif" font-size="10.00">edu.wpi.first.wpilibj.simulation.</text>
<text text-anchor="middle" x="76.62" y="-54.75" font-family="Helvetica,sans-Serif" font-size="10.00">GenericHIDSim.notifyNewData</text>
</a>
</g>
</g>
<!-- Node3&#45;&gt;Node4 -->
<g id="edge3_Node000003_Node000004" class="edge">
<title>Node3&#45;&gt;Node4</title>
<g id="a_edge3_Node000003_Node000004"><a xlink:title=" ">
<path fill="none" stroke="#63b8ff" d="M177.64,-64.25C169.64,-64.25 161.59,-64.25 153.72,-64.25"/>
<polygon fill="#63b8ff" stroke="#63b8ff" points="177.39,-67.75 187.39,-64.25 177.39,-60.75 177.39,-67.75"/>
</a>
</g>
</g>
<!-- Node6 -->
<g id="Node000006" class="node">
<title>Node6</title>
<g id="a_Node000006"><a xlink:href="classfrc_1_1robot_1_1_main.html#ae60066a646cefc16d3e7d57b8fa22097" target="_top" xlink:title=" ">
<polygon fill="white" stroke="#666666" points="126.62,-24.88 26.62,-24.88 26.62,-5.62 126.62,-5.62 126.62,-24.88"/>
<text text-anchor="middle" x="76.62" y="-11.38" font-family="Helvetica,sans-Serif" font-size="10.00">frc.robot.Main.main</text>
</a>
</g>
</g>
<!-- Node5&#45;&gt;Node6 -->
<g id="edge5_Node000005_Node000006" class="edge">
<title>Node5&#45;&gt;Node6</title>
<g id="a_edge5_Node000005_Node000006"><a xlink:title=" ">
<path fill="none" stroke="#63b8ff" d="M192.63,-15.25C170.56,-15.25 146.97,-15.25 126.93,-15.25"/>
<polygon fill="#63b8ff" stroke="#63b8ff" points="192.5,-18.75 202.5,-15.25 192.5,-11.75 192.5,-18.75"/>
</a>
</g>
</g>
</g>
</svg>
