<?xml version="1.0" encoding="UTF-8" standalone="no"?>
<!DOCTYPE svg PUBLIC "-//W3C//DTD SVG 1.1//EN"
 "http://www.w3.org/Graphics/SVG/1.1/DTD/svg11.dtd">
<!-- Generated by graphviz version 9.0.0 (20230911.1827)
 -->
<!-- Title: edu.wpi.first.wpilibj.ADIS16470_IMU.ADIS16470_IMU Pages: 1 -->
<svg width="349pt" height="125pt"
 viewBox="0.00 0.00 349.00 124.88" xmlns="http://www.w3.org/2000/svg" xmlns:xlink="http://www.w3.org/1999/xlink">
<g id="graph0" class="graph" transform="scale(1 1) rotate(0) translate(4 120.88)">
<title>edu.wpi.first.wpilibj.ADIS16470_IMU.ADIS16470_IMU</title>
<!-- Node1 -->
<g id="Node000001" class="node">
<title>Node1</title>
<g id="a_Node000001"><a xlink:title=" ">
<polygon fill="#999999" stroke="#666666" points="152.5,-79.5 0,-79.5 0,-49 152.5,-49 152.5,-79.5"/>
<text text-anchor="start" x="8" y="-66" font-family="Helvetica,sans-Serif" font-size="10.00">edu.wpi.first.wpilibj.ADIS16470</text>
<text text-anchor="middle" x="76.25" y="-54.75" font-family="Helvetica,sans-Serif" font-size="10.00">_IMU.ADIS16470_IMU</text>
</a>
</g>
</g>
<!-- Node2 -->
<g id="Node000002" class="node">
<title>Node2</title>
<g id="a_Node000002"><a xlink:href="classedu_1_1wpi_1_1first_1_1wpilibj_1_1_timer.html#a7ffa861556c640f9de9aa09d796bad6d" target="_top" xlink:title=" ">
<polygon fill="white" stroke="#666666" points="341,-116.88 188.5,-116.88 188.5,-97.62 341,-97.62 341,-116.88"/>
<text text-anchor="middle" x="264.75" y="-103.38" font-family="Helvetica,sans-Serif" font-size="10.00">edu.wpi.first.wpilibj.Timer.delay</text>
</a>
</g>
</g>
<!-- Node1&#45;&gt;Node2 -->
<g id="edge1_Node000001_Node000002" class="edge">
<title>Node1&#45;&gt;Node2</title>
<g id="a_edge1_Node000001_Node000002"><a xlink:title=" ">
<path fill="none" stroke="#63b8ff" d="M145.37,-79.96C166.26,-84.77 188.96,-90.01 208.85,-94.59"/>
<polygon fill="#63b8ff" stroke="#63b8ff" points="207.88,-97.96 218.41,-96.8 209.45,-91.14 207.88,-97.96"/>
</a>
</g>
</g>
<!-- Node3 -->
<g id="Node000003" class="node">
<title>Node3</title>
<g id="a_Node000003"><a xlink:href="classedu_1_1wpi_1_1first_1_1wpilibj_1_1_driver_station.html#a40fcb0dd08778d829076cf9fcc8ab402" target="_top" xlink:title=" ">
<polygon fill="white" stroke="#666666" points="329,-79.5 200.5,-79.5 200.5,-49 329,-49 329,-79.5"/>
<text text-anchor="start" x="208.5" y="-66" font-family="Helvetica,sans-Serif" font-size="10.00">edu.wpi.first.wpilibj.Driver</text>
<text text-anchor="middle" x="264.75" y="-54.75" font-family="Helvetica,sans-Serif" font-size="10.00">Station.reportError</text>
</a>
</g>
</g>
<!-- Node1&#45;&gt;Node3 -->
<g id="edge2_Node000001_Node000003" class="edge">
<title>Node1&#45;&gt;Node3</title>
<g id="a_edge2_Node000001_Node000003"><a xlink:title=" ">
<path fill="none" stroke="#63b8ff" d="M152.84,-64.25C164.7,-64.25 176.95,-64.25 188.8,-64.25"/>
<polygon fill="#63b8ff" stroke="#63b8ff" points="188.49,-67.75 198.49,-64.25 188.49,-60.75 188.49,-67.75"/>
</a>
</g>
</g>
<!-- Node4 -->
<g id="Node000004" class="node">
<title>Node4</title>
<g id="a_Node000004"><a xlink:href="classedu_1_1wpi_1_1first_1_1wpilibj_1_1_driver_station.html#a8446c52983088af3fba8adc2b0d3df8c" target="_top" xlink:title=" ">
<polygon fill="white" stroke="#666666" points="329,-30.5 200.5,-30.5 200.5,0 329,0 329,-30.5"/>
<text text-anchor="start" x="208.5" y="-17" font-family="Helvetica,sans-Serif" font-size="10.00">edu.wpi.first.wpilibj.Driver</text>
<text text-anchor="middle" x="264.75" y="-5.75" font-family="Helvetica,sans-Serif" font-size="10.00">Station.reportWarning</text>
</a>
</g>
</g>
<!-- Node1&#45;&gt;Node4 -->
<g id="edge3_Node000001_Node000004" class="edge">
<title>Node1&#45;&gt;Node4</title>
<g id="a_edge3_Node000001_Node000004"><a xlink:title=" ">
<path fill="none" stroke="#63b8ff" d="M137.03,-48.54C154.85,-43.86 174.55,-38.69 192.99,-33.84"/>
<polygon fill="#63b8ff" stroke="#63b8ff" points="193.74,-37.26 202.53,-31.34 191.96,-30.49 193.74,-37.26"/>
</a>
</g>
</g>
</g>
</svg>
