<?xml version="1.0" encoding="UTF-8" standalone="no"?>
<!DOCTYPE svg PUBLIC "-//W3C//DTD SVG 1.1//EN"
 "http://www.w3.org/Graphics/SVG/1.1/DTD/svg11.dtd">
<!-- Generated by graphviz version 9.0.0 (20230911.1827)
 -->
<!-- Title: edu.wpi.first.wpilibj.simulation.GenericHIDSim.setRawButton Pages: 1 -->
<!--zoomable 1950 -->

<svg id="main" version="1.1" xmlns="http://www.w3.org/2000/svg" xmlns:xlink="http://www.w3.org/1999/xlink" xml:space="preserve" onload="init(evt)">
<style type="text/css"><![CDATA[
.node, .edge {opacity: 0.7;}
.node.selected, .edge.selected {opacity: 1;}
.edge:hover path { stroke: red; }
.edge:hover polygon { stroke: red; fill: red; }
]]></style>

<defs>
  <circle id="rim" cx="0" cy="0" r="7"/>
  <circle id="rim2" cx="0" cy="0" r="3.5"/>
  <g id="zoomPlus">
    <use xlink:href="#rim" fill="#404040"><set attributeName="fill" to="#808080" begin="zoomplus.mouseover" end="zoomplus.mouseout"/></use>
    <path d="M-4,0h8M0,-4v8" fill="none" stroke="white" stroke-width="1.5" pointer-events="none"/>
  </g>
  <g id="zoomMin">
    <use xlink:href="#rim" fill="#404040"><set attributeName="fill" to="#808080" begin="zoomminus.mouseover" end="zoomminus.mouseout"/></use>
    <path d="M-4,0h8" fill="none" stroke="white" stroke-width="1.5" pointer-events="none"/>
  </g>
  <g id="arrowUp" transform="translate(30 24)">
    <use xlink:href="#rim"/>
    <path pointer-events="none" fill="none" stroke="white" stroke-width="1.5" d="M0,-3.0v7 M-2.5,-0.5L0,-3.0L2.5,-0.5"/>
  </g>
  <g id="arrowRight" transform="rotate(90) translate(36 -43)">
    <use xlink:href="#rim"/>
    <path pointer-events="none" fill="none" stroke="white" stroke-width="1.5" d="M0,-3.0v7 M-2.5,-0.5L0,-3.0L2.5,-0.5"/>
  </g>
  <g id="arrowDown" transform="rotate(180) translate(-30 -48)">
    <use xlink:href="#rim"/>
    <path pointer-events="none" fill="none" stroke="white" stroke-width="1.5" d="M0,-3.0v7 M-2.5,-0.5L0,-3.0L2.5,-0.5"/>
  </g>
  <g id="arrowLeft" transform="rotate(270) translate(-36 17)">
    <use xlink:href="#rim"/>
    <path pointer-events="none" fill="none" stroke="white" stroke-width="1.5" d="M0,-3.0v7 M-2.5,-0.5L0,-3.0L2.5,-0.5"/>
  </g>
  <g id="resetDef">
    <use xlink:href="#rim2" fill="#404040"><set attributeName="fill" to="#808080" begin="reset.mouseover" end="reset.mouseout"/></use>
  </g>
</defs>
<script type="application/ecmascript">
var viewWidth = 383;
var viewHeight = 1950;
var sectionId = 'dynsection-21';
</script>
<script type="application/ecmascript" xlink:href="svg.min.js"/>
<svg id="graph" class="graph">
<g id="viewport">
<title>edu.wpi.first.wpilibj.simulation.GenericHIDSim.setRawButton</title>
<!-- Node1 -->
<g id="Node000001" class="node">
<title>Node1</title>
<g id="a_Node000001"><a xlink:title=" ">
<polygon fill="#999999" stroke="#666666" points="374.75,-985.5 224.5,-985.5 224.5,-955 374.75,-955 374.75,-985.5"/>
<text text-anchor="start" x="232.5" y="-972" font-family="Helvetica,sans-Serif" font-size="10.00">edu.wpi.first.wpilibj.simulation.</text>
<text text-anchor="middle" x="299.62" y="-960.75" font-family="Helvetica,sans-Serif" font-size="10.00">GenericHIDSim.setRawButton</text>
</a>
</g>
</g>
<!-- Node2 -->
<g id="Node000002" class="node">
<title>Node2</title>
<g id="a_Node000002"><a xlink:href="classedu_1_1wpi_1_1first_1_1wpilibj_1_1simulation_1_1_xbox_controller_sim.html#a14534d683b0a262368b10bce54c154d9" target="_top" xlink:title=" ">
<polygon fill="white" stroke="#666666" points="169,-1941.5 19.5,-1941.5 19.5,-1911 169,-1911 169,-1941.5"/>
<text text-anchor="start" x="27.5" y="-1928" font-family="Helvetica,sans-Serif" font-size="10.00">edu.wpi.first.wpilibj.simulation.</text>
<text text-anchor="middle" x="94.25" y="-1916.75" font-family="Helvetica,sans-Serif" font-size="10.00">XboxControllerSim.setAButton</text>
</a>
</g>
</g>
<!-- Node1&#45;&gt;Node2 -->
<g id="edge1_Node000001_Node000002" class="edge">
<title>Node1&#45;&gt;Node2</title>
<g id="a_edge1_Node000001_Node000002"><a xlink:title=" ">
<path fill="none" stroke="#63b8ff" d="M297.23,-997.1C289.42,-1142.43 249.43,-1830.84 188.5,-1901.25 183.24,-1907.33 176.67,-1912.02 169.47,-1915.61"/>
<polygon fill="#63b8ff" stroke="#63b8ff" points="300.71,-997.49 297.75,-987.32 293.72,-997.12 300.71,-997.49"/>
</a>
</g>
</g>
<!-- Node3 -->
<g id="Node000003" class="node">
<title>Node3</title>
<g id="a_Node000003"><a xlink:href="classedu_1_1wpi_1_1first_1_1wpilibj_1_1simulation_1_1_xbox_controller_sim.html#acf23d0fb47df6f95c36a82133e27fce2" target="_top" xlink:title=" ">
<polygon fill="white" stroke="#666666" points="176.88,-1892.5 11.62,-1892.5 11.62,-1862 176.88,-1862 176.88,-1892.5"/>
<text text-anchor="start" x="19.62" y="-1879" font-family="Helvetica,sans-Serif" font-size="10.00">edu.wpi.first.wpilibj.simulation.</text>
<text text-anchor="middle" x="94.25" y="-1867.75" font-family="Helvetica,sans-Serif" font-size="10.00">XboxControllerSim.setBackButton</text>
</a>
</g>
</g>
<!-- Node1&#45;&gt;Node3 -->
<g id="edge2_Node000001_Node000003" class="edge">
<title>Node1&#45;&gt;Node3</title>
<g id="a_edge2_Node000001_Node000003"><a xlink:title=" ">
<path fill="none" stroke="#63b8ff" d="M297.05,-997C288.53,-1137.47 246.3,-1785.89 188.5,-1852.25 185.2,-1856.04 181.39,-1859.29 177.24,-1862.06"/>
<polygon fill="#63b8ff" stroke="#63b8ff" points="300.53,-997.4 297.63,-987.21 293.54,-996.98 300.53,-997.4"/>
</a>
</g>
</g>
<!-- Node4 -->
<g id="Node000004" class="node">
<title>Node4</title>
<g id="a_Node000004"><a xlink:href="classedu_1_1wpi_1_1first_1_1wpilibj_1_1simulation_1_1_xbox_controller_sim.html#aef13731f679792aae81d73666ea99044" target="_top" xlink:title=" ">
<polygon fill="white" stroke="#666666" points="169,-1843.5 19.5,-1843.5 19.5,-1813 169,-1813 169,-1843.5"/>
<text text-anchor="start" x="27.5" y="-1830" font-family="Helvetica,sans-Serif" font-size="10.00">edu.wpi.first.wpilibj.simulation.</text>
<text text-anchor="middle" x="94.25" y="-1818.75" font-family="Helvetica,sans-Serif" font-size="10.00">XboxControllerSim.setBButton</text>
</a>
</g>
</g>
<!-- Node1&#45;&gt;Node4 -->
<g id="edge3_Node000001_Node000004" class="edge">
<title>Node1&#45;&gt;Node4</title>
<g id="a_edge3_Node000001_Node000004"><a xlink:title=" ">
<path fill="none" stroke="#63b8ff" d="M298.92,-997.24C299.8,-1126.31 297.08,-1679.48 188.5,-1803.25 183.19,-1809.3 176.6,-1813.96 169.39,-1817.53"/>
<polygon fill="#63b8ff" stroke="#63b8ff" points="302.42,-997.27 298.84,-987.3 295.43,-997.33 302.42,-997.27"/>
</a>
</g>
</g>
<!-- Node5 -->
<g id="Node000005" class="node">
<title>Node5</title>
<g id="a_Node000005"><a xlink:href="classedu_1_1wpi_1_1first_1_1wpilibj_1_1simulation_1_1_p_s4_controller_sim.html#a7de78366305f916a699486b99ff8a996" target="_top" xlink:title=" ">
<polygon fill="white" stroke="#666666" points="176.5,-1794.5 12,-1794.5 12,-1764 176.5,-1764 176.5,-1794.5"/>
<text text-anchor="start" x="20" y="-1781" font-family="Helvetica,sans-Serif" font-size="10.00">edu.wpi.first.wpilibj.simulation.</text>
<text text-anchor="middle" x="94.25" y="-1769.75" font-family="Helvetica,sans-Serif" font-size="10.00">PS4ControllerSim.setCircleButton</text>
</a>
</g>
</g>
<!-- Node1&#45;&gt;Node5 -->
<g id="edge4_Node000001_Node000005" class="edge">
<title>Node1&#45;&gt;Node5</title>
<g id="a_edge4_Node000001_Node000005"><a xlink:title=" ">
<path fill="none" stroke="#63b8ff" d="M298.68,-997.22C298.37,-1121.59 290.85,-1638.54 188.5,-1754.25 185.06,-1758.14 181.08,-1761.46 176.75,-1764.28"/>
<polygon fill="#63b8ff" stroke="#63b8ff" points="302.18,-997.35 298.69,-987.34 295.18,-997.34 302.18,-997.35"/>
</a>
</g>
</g>
<!-- Node6 -->
<g id="Node000006" class="node">
<title>Node6</title>
<g id="a_Node000006"><a xlink:href="classedu_1_1wpi_1_1first_1_1wpilibj_1_1simulation_1_1_p_s5_controller_sim.html#a0aa422bc65b3430da62b421d3a539db5" target="_top" xlink:title=" ">
<polygon fill="white" stroke="#666666" points="176.5,-1745.5 12,-1745.5 12,-1715 176.5,-1715 176.5,-1745.5"/>
<text text-anchor="start" x="20" y="-1732" font-family="Helvetica,sans-Serif" font-size="10.00">edu.wpi.first.wpilibj.simulation.</text>
<text text-anchor="middle" x="94.25" y="-1720.75" font-family="Helvetica,sans-Serif" font-size="10.00">PS5ControllerSim.setCircleButton</text>
</a>
</g>
</g>
<!-- Node1&#45;&gt;Node6 -->
<g id="edge5_Node000001_Node000006" class="edge">
<title>Node1&#45;&gt;Node6</title>
<g id="a_edge5_Node000001_Node000006"><a xlink:title=" ">
<path fill="none" stroke="#63b8ff" d="M298.4,-997.05C296.86,-1116.3 284.67,-1597.53 188.5,-1705.25 185.04,-1709.13 181.05,-1712.43 176.71,-1715.24"/>
<polygon fill="#63b8ff" stroke="#63b8ff" points="301.9,-997.34 298.51,-987.3 294.9,-997.26 301.9,-997.34"/>
</a>
</g>
</g>
<!-- Node7 -->
<g id="Node000007" class="node">
<title>Node7</title>
<g id="a_Node000007"><a xlink:href="classedu_1_1wpi_1_1first_1_1wpilibj_1_1simulation_1_1_p_s5_controller_sim.html#a1f668408cf2cd45d049e8629c1e8feca" target="_top" xlink:title=" ">
<polygon fill="white" stroke="#666666" points="178.38,-1696.5 10.12,-1696.5 10.12,-1666 178.38,-1666 178.38,-1696.5"/>
<text text-anchor="start" x="18.12" y="-1683" font-family="Helvetica,sans-Serif" font-size="10.00">edu.wpi.first.wpilibj.simulation.</text>
<text text-anchor="middle" x="94.25" y="-1671.75" font-family="Helvetica,sans-Serif" font-size="10.00">PS5ControllerSim.setCreateButton</text>
</a>
</g>
</g>
<!-- Node1&#45;&gt;Node7 -->
<g id="edge6_Node000001_Node000007" class="edge">
<title>Node1&#45;&gt;Node7</title>
<g id="a_edge6_Node000001_Node000007"><a xlink:title=" ">
<path fill="none" stroke="#63b8ff" d="M298.08,-997.43C295.2,-1112.32 278.35,-1556.65 188.5,-1656.25 185.24,-1659.86 181.53,-1662.97 177.5,-1665.65"/>
<polygon fill="#63b8ff" stroke="#63b8ff" points="301.57,-997.53 298.31,-987.45 294.58,-997.37 301.57,-997.53"/>
</a>
</g>
</g>
<!-- Node8 -->
<g id="Node000008" class="node">
<title>Node8</title>
<g id="a_Node000008"><a xlink:href="classedu_1_1wpi_1_1first_1_1wpilibj_1_1simulation_1_1_p_s4_controller_sim.html#a384622bb68c0639ed8bfc06d04233581" target="_top" xlink:title=" ">
<polygon fill="white" stroke="#666666" points="176.88,-1647.5 11.62,-1647.5 11.62,-1617 176.88,-1617 176.88,-1647.5"/>
<text text-anchor="start" x="19.62" y="-1634" font-family="Helvetica,sans-Serif" font-size="10.00">edu.wpi.first.wpilibj.simulation.</text>
<text text-anchor="middle" x="94.25" y="-1622.75" font-family="Helvetica,sans-Serif" font-size="10.00">PS4ControllerSim.setCrossButton</text>
</a>
</g>
</g>
<!-- Node1&#45;&gt;Node8 -->
<g id="edge7_Node000001_Node000008" class="edge">
<title>Node1&#45;&gt;Node8</title>
<g id="a_edge7_Node000001_Node000008"><a xlink:title=" ">
<path fill="none" stroke="#63b8ff" d="M297.71,-997.25C293.48,-1106.65 272.21,-1515.58 188.5,-1607.25 185.11,-1610.96 181.23,-1614.15 177.03,-1616.88"/>
<polygon fill="#63b8ff" stroke="#63b8ff" points="301.2,-997.6 298.08,-987.48 294.21,-997.34 301.2,-997.6"/>
</a>
</g>
</g>
<!-- Node9 -->
<g id="Node000009" class="node">
<title>Node9</title>
<g id="a_Node000009"><a xlink:href="classedu_1_1wpi_1_1first_1_1wpilibj_1_1simulation_1_1_p_s5_controller_sim.html#aa20a8b07985d35fbb34eae16da6ecd81" target="_top" xlink:title=" ">
<polygon fill="white" stroke="#666666" points="176.88,-1598.5 11.62,-1598.5 11.62,-1568 176.88,-1568 176.88,-1598.5"/>
<text text-anchor="start" x="19.62" y="-1585" font-family="Helvetica,sans-Serif" font-size="10.00">edu.wpi.first.wpilibj.simulation.</text>
<text text-anchor="middle" x="94.25" y="-1573.75" font-family="Helvetica,sans-Serif" font-size="10.00">PS5ControllerSim.setCrossButton</text>
</a>
</g>
</g>
<!-- Node1&#45;&gt;Node9 -->
<g id="edge8_Node000001_Node000009" class="edge">
<title>Node1&#45;&gt;Node9</title>
<g id="a_edge8_Node000001_Node000009"><a xlink:title=" ">
<path fill="none" stroke="#63b8ff" d="M297.29,-997.15C291.62,-1101.05 266.06,-1474.5 188.5,-1558.25 185.08,-1561.94 181.19,-1565.11 176.97,-1567.83"/>
<polygon fill="#63b8ff" stroke="#63b8ff" points="300.78,-997.54 297.81,-987.37 293.79,-997.17 300.78,-997.54"/>
</a>
</g>
</g>
<!-- Node10 -->
<g id="Node000010" class="node">
<title>Node10</title>
<g id="a_Node000010"><a xlink:href="classedu_1_1wpi_1_1first_1_1wpilibj_1_1simulation_1_1_p_s4_controller_sim.html#abefb3a81ed6cbe9ee169fbd4d18d4865" target="_top" xlink:title=" ">
<polygon fill="white" stroke="#666666" points="169,-1549.5 19.5,-1549.5 19.5,-1519 169,-1519 169,-1549.5"/>
<text text-anchor="start" x="27.5" y="-1536" font-family="Helvetica,sans-Serif" font-size="10.00">edu.wpi.first.wpilibj.simulation.</text>
<text text-anchor="middle" x="94.25" y="-1524.75" font-family="Helvetica,sans-Serif" font-size="10.00">PS4ControllerSim.setL1Button</text>
</a>
</g>
</g>
<!-- Node1&#45;&gt;Node10 -->
<g id="edge9_Node000001_Node000010" class="edge">
<title>Node1&#45;&gt;Node10</title>
<g id="a_edge9_Node000001_Node000010"><a xlink:title=" ">
<path fill="none" stroke="#63b8ff" d="M296.8,-997.11C289.59,-1095.36 259.91,-1433.39 188.5,-1509.25 183.1,-1514.99 176.54,-1519.46 169.43,-1522.94"/>
<polygon fill="#63b8ff" stroke="#63b8ff" points="300.27,-997.6 297.5,-987.37 293.29,-997.1 300.27,-997.6"/>
</a>
</g>
</g>
<!-- Node11 -->
<g id="Node000011" class="node">
<title>Node11</title>
<g id="a_Node000011"><a xlink:href="classedu_1_1wpi_1_1first_1_1wpilibj_1_1simulation_1_1_p_s5_controller_sim.html#a0423aa6890c0c7b212cb4623162b9aeb" target="_top" xlink:title=" ">
<polygon fill="white" stroke="#666666" points="169,-1500.5 19.5,-1500.5 19.5,-1470 169,-1470 169,-1500.5"/>
<text text-anchor="start" x="27.5" y="-1487" font-family="Helvetica,sans-Serif" font-size="10.00">edu.wpi.first.wpilibj.simulation.</text>
<text text-anchor="middle" x="94.25" y="-1475.75" font-family="Helvetica,sans-Serif" font-size="10.00">PS5ControllerSim.setL1Button</text>
</a>
</g>
</g>
<!-- Node1&#45;&gt;Node11 -->
<g id="edge10_Node000001_Node000011" class="edge">
<title>Node1&#45;&gt;Node11</title>
<g id="a_edge10_Node000001_Node000011"><a xlink:title=" ">
<path fill="none" stroke="#63b8ff" d="M296.18,-997.34C287.3,-1089.99 253.73,-1392.3 188.5,-1460.25 183.04,-1465.93 176.45,-1470.37 169.32,-1473.83"/>
<polygon fill="#63b8ff" stroke="#63b8ff" points="299.66,-997.72 297.11,-987.44 292.69,-997.07 299.66,-997.72"/>
</a>
</g>
</g>
<!-- Node12 -->
<g id="Node000012" class="node">
<title>Node12</title>
<g id="a_Node000012"><a xlink:href="classedu_1_1wpi_1_1first_1_1wpilibj_1_1simulation_1_1_p_s4_controller_sim.html#a4755ef6ebefb839ce0c6ae3c367096ac" target="_top" xlink:title=" ">
<polygon fill="white" stroke="#666666" points="169,-1451.5 19.5,-1451.5 19.5,-1421 169,-1421 169,-1451.5"/>
<text text-anchor="start" x="27.5" y="-1438" font-family="Helvetica,sans-Serif" font-size="10.00">edu.wpi.first.wpilibj.simulation.</text>
<text text-anchor="middle" x="94.25" y="-1426.75" font-family="Helvetica,sans-Serif" font-size="10.00">PS4ControllerSim.setL2Button</text>
</a>
</g>
</g>
<!-- Node1&#45;&gt;Node12 -->
<g id="edge11_Node000001_Node000012" class="edge">
<title>Node1&#45;&gt;Node12</title>
<g id="a_edge11_Node000001_Node000012"><a xlink:title=" ">
<path fill="none" stroke="#63b8ff" d="M295.48,-997.13C284.87,-1083.38 247.68,-1351.04 188.5,-1411.25 182.98,-1416.87 176.34,-1421.27 169.18,-1424.7"/>
<polygon fill="#63b8ff" stroke="#63b8ff" points="298.95,-997.62 296.67,-987.27 292,-996.78 298.95,-997.62"/>
</a>
</g>
</g>
<!-- Node13 -->
<g id="Node000013" class="node">
<title>Node13</title>
<g id="a_Node000013"><a xlink:href="classedu_1_1wpi_1_1first_1_1wpilibj_1_1simulation_1_1_p_s5_controller_sim.html#a010ee371f5eaccb4eca758843228291a" target="_top" xlink:title=" ">
<polygon fill="white" stroke="#666666" points="169,-1402.5 19.5,-1402.5 19.5,-1372 169,-1372 169,-1402.5"/>
<text text-anchor="start" x="27.5" y="-1389" font-family="Helvetica,sans-Serif" font-size="10.00">edu.wpi.first.wpilibj.simulation.</text>
<text text-anchor="middle" x="94.25" y="-1377.75" font-family="Helvetica,sans-Serif" font-size="10.00">PS5ControllerSim.setL2Button</text>
</a>
</g>
</g>
<!-- Node1&#45;&gt;Node13 -->
<g id="edge12_Node000001_Node000013" class="edge">
<title>Node1&#45;&gt;Node13</title>
<g id="a_edge12_Node000001_Node000013"><a xlink:title=" ">
<path fill="none" stroke="#63b8ff" d="M299.51,-996.94C300.32,-1067.33 292.38,-1259.6 188.5,-1362.25 183.02,-1367.67 176.49,-1371.95 169.48,-1375.32"/>
<polygon fill="#63b8ff" stroke="#63b8ff" points="303.01,-997.07 299.32,-987.14 296.02,-997.21 303.01,-997.07"/>
</a>
</g>
</g>
<!-- Node14 -->
<g id="Node000014" class="node">
<title>Node14</title>
<g id="a_Node000014"><a xlink:href="classedu_1_1wpi_1_1first_1_1wpilibj_1_1simulation_1_1_p_s4_controller_sim.html#a01b8122cb3c5535eede579253f084e3e" target="_top" xlink:title=" ">
<polygon fill="white" stroke="#666666" points="169,-1353.5 19.5,-1353.5 19.5,-1323 169,-1323 169,-1353.5"/>
<text text-anchor="start" x="27.5" y="-1340" font-family="Helvetica,sans-Serif" font-size="10.00">edu.wpi.first.wpilibj.simulation.</text>
<text text-anchor="middle" x="94.25" y="-1328.75" font-family="Helvetica,sans-Serif" font-size="10.00">PS4ControllerSim.setL3Button</text>
</a>
</g>
</g>
<!-- Node1&#45;&gt;Node14 -->
<g id="edge13_Node000001_Node000014" class="edge">
<title>Node1&#45;&gt;Node14</title>
<g id="a_edge13_Node000001_Node000014"><a xlink:title=" ">
<path fill="none" stroke="#63b8ff" d="M298.24,-997.08C295.8,-1061.44 280.4,-1225.72 188.5,-1313.25 182.92,-1318.57 176.33,-1322.78 169.28,-1326.12"/>
<polygon fill="#63b8ff" stroke="#63b8ff" points="301.73,-997.54 298.52,-987.44 294.73,-997.34 301.73,-997.54"/>
</a>
</g>
</g>
<!-- Node15 -->
<g id="Node000015" class="node">
<title>Node15</title>
<g id="a_Node000015"><a xlink:href="classedu_1_1wpi_1_1first_1_1wpilibj_1_1simulation_1_1_p_s5_controller_sim.html#a5d5de3059e52c46c164f5e9529359c0a" target="_top" xlink:title=" ">
<polygon fill="white" stroke="#666666" points="169,-1304.5 19.5,-1304.5 19.5,-1274 169,-1274 169,-1304.5"/>
<text text-anchor="start" x="27.5" y="-1291" font-family="Helvetica,sans-Serif" font-size="10.00">edu.wpi.first.wpilibj.simulation.</text>
<text text-anchor="middle" x="94.25" y="-1279.75" font-family="Helvetica,sans-Serif" font-size="10.00">PS5ControllerSim.setL3Button</text>
</a>
</g>
</g>
<!-- Node1&#45;&gt;Node15 -->
<g id="edge14_Node000001_Node000015" class="edge">
<title>Node1&#45;&gt;Node15</title>
<g id="a_edge14_Node000001_Node000015"><a xlink:title=" ">
<path fill="none" stroke="#63b8ff" d="M296.57,-997.13C290.68,-1054.9 268.58,-1191.55 188.5,-1264.25 182.92,-1269.32 176.41,-1273.38 169.49,-1276.63"/>
<polygon fill="#63b8ff" stroke="#63b8ff" points="300.05,-997.53 297.48,-987.25 293.08,-996.89 300.05,-997.53"/>
</a>
</g>
</g>
<!-- Node16 -->
<g id="Node000016" class="node">
<title>Node16</title>
<g id="a_Node000016"><a xlink:href="classedu_1_1wpi_1_1first_1_1wpilibj_1_1simulation_1_1_xbox_controller_sim.html#a9c3ecd00ed37fd717b093e8330cc5588" target="_top" xlink:title=" ">
<polygon fill="white" stroke="#666666" points="176.5,-1255.5 12,-1255.5 12,-1225 176.5,-1225 176.5,-1255.5"/>
<text text-anchor="start" x="20" y="-1242" font-family="Helvetica,sans-Serif" font-size="10.00">edu.wpi.first.wpilibj.simulation.</text>
<text text-anchor="middle" x="94.25" y="-1230.75" font-family="Helvetica,sans-Serif" font-size="10.00">XboxControllerSim.setLeftBumper</text>
</a>
</g>
</g>
<!-- Node1&#45;&gt;Node16 -->
<g id="edge15_Node000001_Node000016" class="edge">
<title>Node1&#45;&gt;Node16</title>
<g id="a_edge15_Node000001_Node000016"><a xlink:title=" ">
<path fill="none" stroke="#63b8ff" d="M294.3,-997.16C284.72,-1047.72 256.9,-1157.03 188.5,-1215.25 184.29,-1218.83 179.61,-1221.91 174.66,-1224.55"/>
<polygon fill="#63b8ff" stroke="#63b8ff" points="297.72,-997.87 296.04,-987.41 290.83,-996.63 297.72,-997.87"/>
</a>
</g>
</g>
<!-- Node17 -->
<g id="Node000017" class="node">
<title>Node17</title>
<g id="a_Node000017"><a xlink:href="classedu_1_1wpi_1_1first_1_1wpilibj_1_1simulation_1_1_xbox_controller_sim.html#a2be1571cfde571ec0309227058ca8f52" target="_top" xlink:title=" ">
<polygon fill="white" stroke="#666666" points="185.12,-1206.5 3.38,-1206.5 3.38,-1176 185.12,-1176 185.12,-1206.5"/>
<text text-anchor="start" x="11.38" y="-1193" font-family="Helvetica,sans-Serif" font-size="10.00">edu.wpi.first.wpilibj.simulation.</text>
<text text-anchor="middle" x="94.25" y="-1181.75" font-family="Helvetica,sans-Serif" font-size="10.00">XboxControllerSim.setLeftStickButton</text>
</a>
</g>
</g>
<!-- Node1&#45;&gt;Node17 -->
<g id="edge16_Node000001_Node000017" class="edge">
<title>Node1&#45;&gt;Node17</title>
<g id="a_edge16_Node000001_Node000017"><a xlink:title=" ">
<path fill="none" stroke="#63b8ff" d="M291.09,-996.83C277.68,-1039.24 245.56,-1121.93 188.5,-1166.25 183.87,-1169.85 178.76,-1172.93 173.39,-1175.57"/>
<polygon fill="#63b8ff" stroke="#63b8ff" points="294.38,-998.03 293.94,-987.45 287.69,-996 294.38,-998.03"/>
</a>
</g>
</g>
<!-- Node18 -->
<g id="Node000018" class="node">
<title>Node18</title>
<g id="a_Node000018"><a xlink:href="classedu_1_1wpi_1_1first_1_1wpilibj_1_1simulation_1_1_p_s4_controller_sim.html#adbc88cd52beaf70b5f9cceb782ce3450" target="_top" xlink:title=" ">
<polygon fill="white" stroke="#666666" points="180.62,-1157.5 7.88,-1157.5 7.88,-1127 180.62,-1127 180.62,-1157.5"/>
<text text-anchor="start" x="15.88" y="-1144" font-family="Helvetica,sans-Serif" font-size="10.00">edu.wpi.first.wpilibj.simulation.</text>
<text text-anchor="middle" x="94.25" y="-1132.75" font-family="Helvetica,sans-Serif" font-size="10.00">PS4ControllerSim.setOptionsButton</text>
</a>
</g>
</g>
<!-- Node1&#45;&gt;Node18 -->
<g id="edge17_Node000001_Node000018" class="edge">
<title>Node1&#45;&gt;Node18</title>
<g id="a_edge17_Node000001_Node000018"><a xlink:title=" ">
<path fill="none" stroke="#63b8ff" d="M286.2,-996.09C268.93,-1029.23 234.53,-1086.1 188.5,-1117.25 183.22,-1120.82 177.46,-1123.88 171.47,-1126.5"/>
<polygon fill="#63b8ff" stroke="#63b8ff" points="289.31,-997.69 290.71,-987.19 283.07,-994.53 289.31,-997.69"/>
</a>
</g>
</g>
<!-- Node19 -->
<g id="Node000019" class="node">
<title>Node19</title>
<g id="a_Node000019"><a xlink:href="classedu_1_1wpi_1_1first_1_1wpilibj_1_1simulation_1_1_p_s5_controller_sim.html#afa8134c4e94ebe6cbc80c4b3d340cef2" target="_top" xlink:title=" ">
<polygon fill="white" stroke="#666666" points="180.62,-1108.5 7.88,-1108.5 7.88,-1078 180.62,-1078 180.62,-1108.5"/>
<text text-anchor="start" x="15.88" y="-1095" font-family="Helvetica,sans-Serif" font-size="10.00">edu.wpi.first.wpilibj.simulation.</text>
<text text-anchor="middle" x="94.25" y="-1083.75" font-family="Helvetica,sans-Serif" font-size="10.00">PS5ControllerSim.setOptionsButton</text>
</a>
</g>
</g>
<!-- Node1&#45;&gt;Node19 -->
<g id="edge18_Node000001_Node000019" class="edge">
<title>Node1&#45;&gt;Node19</title>
<g id="a_edge18_Node000001_Node000019"><a xlink:title=" ">
<path fill="none" stroke="#63b8ff" d="M277.88,-994.27C257.33,-1016.58 223.9,-1049.16 188.5,-1068.25 181.86,-1071.83 174.68,-1074.92 167.34,-1077.59"/>
<polygon fill="#63b8ff" stroke="#63b8ff" points="280.24,-996.87 284.34,-987.1 275.04,-992.18 280.24,-996.87"/>
</a>
</g>
</g>
<!-- Node20 -->
<g id="Node000020" class="node">
<title>Node20</title>
<g id="a_Node000020"><a xlink:href="classedu_1_1wpi_1_1first_1_1wpilibj_1_1simulation_1_1_p_s4_controller_sim.html#a2197a09b78d2469fe246d01a138640c0" target="_top" xlink:title=" ">
<polygon fill="white" stroke="#666666" points="170.5,-1059.5 18,-1059.5 18,-1029 170.5,-1029 170.5,-1059.5"/>
<text text-anchor="start" x="26" y="-1046" font-family="Helvetica,sans-Serif" font-size="10.00">edu.wpi.first.wpilibj.simulation.</text>
<text text-anchor="middle" x="94.25" y="-1034.75" font-family="Helvetica,sans-Serif" font-size="10.00">PS4ControllerSim.setPSButton</text>
</a>
</g>
</g>
<!-- Node1&#45;&gt;Node20 -->
<g id="edge19_Node000001_Node000020" class="edge">
<title>Node1&#45;&gt;Node20</title>
<g id="a_edge19_Node000001_Node000020"><a xlink:title=" ">
<path fill="none" stroke="#63b8ff" d="M256.72,-990.75C236.42,-1000.2 211.51,-1011.1 188.5,-1019.25 179.1,-1022.58 169.03,-1025.71 159.11,-1028.56"/>
<polygon fill="#63b8ff" stroke="#63b8ff" points="257.96,-994.04 265.51,-986.61 254.97,-987.71 257.96,-994.04"/>
</a>
</g>
</g>
<!-- Node21 -->
<g id="Node000021" class="node">
<title>Node21</title>
<g id="a_Node000021"><a xlink:href="classedu_1_1wpi_1_1first_1_1wpilibj_1_1simulation_1_1_p_s5_controller_sim.html#af35a3d9dcac835970674bbf945cfb1f3" target="_top" xlink:title=" ">
<polygon fill="white" stroke="#666666" points="170.5,-1010.5 18,-1010.5 18,-980 170.5,-980 170.5,-1010.5"/>
<text text-anchor="start" x="26" y="-997" font-family="Helvetica,sans-Serif" font-size="10.00">edu.wpi.first.wpilibj.simulation.</text>
<text text-anchor="middle" x="94.25" y="-985.75" font-family="Helvetica,sans-Serif" font-size="10.00">PS5ControllerSim.setPSButton</text>
</a>
</g>
</g>
<!-- Node1&#45;&gt;Node21 -->
<g id="edge20_Node000001_Node000021" class="edge">
<title>Node1&#45;&gt;Node21</title>
<g id="a_edge20_Node000001_Node000021"><a xlink:title=" ">
<path fill="none" stroke="#63b8ff" d="M212.94,-980.78C198.96,-982.5 184.56,-984.27 170.84,-985.96"/>
<polygon fill="#63b8ff" stroke="#63b8ff" points="213.05,-984.3 222.55,-979.6 212.2,-977.35 213.05,-984.3"/>
</a>
</g>
</g>
<!-- Node22 -->
<g id="Node000022" class="node">
<title>Node22</title>
<g id="a_Node000022"><a xlink:href="classedu_1_1wpi_1_1first_1_1wpilibj_1_1simulation_1_1_p_s4_controller_sim.html#acc1da0221e07f78badb1fa845265abf0" target="_top" xlink:title=" ">
<polygon fill="white" stroke="#666666" points="170.12,-961.5 18.38,-961.5 18.38,-931 170.12,-931 170.12,-961.5"/>
<text text-anchor="start" x="26.38" y="-948" font-family="Helvetica,sans-Serif" font-size="10.00">edu.wpi.first.wpilibj.simulation.</text>
<text text-anchor="middle" x="94.25" y="-936.75" font-family="Helvetica,sans-Serif" font-size="10.00">PS4ControllerSim.setR1Button</text>
</a>
</g>
</g>
<!-- Node1&#45;&gt;Node22 -->
<g id="edge21_Node000001_Node000022" class="edge">
<title>Node1&#45;&gt;Node22</title>
<g id="a_edge21_Node000001_Node000022"><a xlink:title=" ">
<path fill="none" stroke="#63b8ff" d="M212.87,-960.13C198.79,-958.47 184.29,-956.76 170.5,-955.13"/>
<polygon fill="#63b8ff" stroke="#63b8ff" points="212.21,-963.58 222.55,-961.27 213.03,-956.62 212.21,-963.58"/>
</a>
</g>
</g>
<!-- Node23 -->
<g id="Node000023" class="node">
<title>Node23</title>
<g id="a_Node000023"><a xlink:href="classedu_1_1wpi_1_1first_1_1wpilibj_1_1simulation_1_1_p_s5_controller_sim.html#a3bfa959f3a87c37cadbe4c6e4da64696" target="_top" xlink:title=" ">
<polygon fill="white" stroke="#666666" points="170.12,-912.5 18.38,-912.5 18.38,-882 170.12,-882 170.12,-912.5"/>
<text text-anchor="start" x="26.38" y="-899" font-family="Helvetica,sans-Serif" font-size="10.00">edu.wpi.first.wpilibj.simulation.</text>
<text text-anchor="middle" x="94.25" y="-887.75" font-family="Helvetica,sans-Serif" font-size="10.00">PS5ControllerSim.setR1Button</text>
</a>
</g>
</g>
<!-- Node1&#45;&gt;Node23 -->
<g id="edge22_Node000001_Node000023" class="edge">
<title>Node1&#45;&gt;Node23</title>
<g id="a_edge22_Node000001_Node000023"><a xlink:title=" ">
<path fill="none" stroke="#63b8ff" d="M255.95,-949.88C235.78,-940.71 211.19,-930.19 188.5,-922.25 179.01,-918.93 168.84,-915.79 158.84,-912.93"/>
<polygon fill="#63b8ff" stroke="#63b8ff" points="254.44,-953.04 264.99,-954.04 257.37,-946.68 254.44,-953.04"/>
</a>
</g>
</g>
<!-- Node24 -->
<g id="Node000024" class="node">
<title>Node24</title>
<g id="a_Node000024"><a xlink:href="classedu_1_1wpi_1_1first_1_1wpilibj_1_1simulation_1_1_p_s4_controller_sim.html#abdff8f456b933dcf5e237dccb2ead82b" target="_top" xlink:title=" ">
<polygon fill="white" stroke="#666666" points="170.12,-863.5 18.38,-863.5 18.38,-833 170.12,-833 170.12,-863.5"/>
<text text-anchor="start" x="26.38" y="-850" font-family="Helvetica,sans-Serif" font-size="10.00">edu.wpi.first.wpilibj.simulation.</text>
<text text-anchor="middle" x="94.25" y="-838.75" font-family="Helvetica,sans-Serif" font-size="10.00">PS4ControllerSim.setR2Button</text>
</a>
</g>
</g>
<!-- Node1&#45;&gt;Node24 -->
<g id="edge23_Node000001_Node000024" class="edge">
<title>Node1&#45;&gt;Node24</title>
<g id="a_edge23_Node000001_Node000024"><a xlink:title=" ">
<path fill="none" stroke="#63b8ff" d="M277.55,-946.19C256.95,-924.12 223.63,-892.08 188.5,-873.25 181.85,-869.69 174.66,-866.6 167.32,-863.94"/>
<polygon fill="#63b8ff" stroke="#63b8ff" points="274.97,-948.55 284.3,-953.57 280.13,-943.83 274.97,-948.55"/>
</a>
</g>
</g>
<!-- Node25 -->
<g id="Node000025" class="node">
<title>Node25</title>
<g id="a_Node000025"><a xlink:href="classedu_1_1wpi_1_1first_1_1wpilibj_1_1simulation_1_1_p_s5_controller_sim.html#a51a78cfb48ebda980ad502c8fdac37dc" target="_top" xlink:title=" ">
<polygon fill="white" stroke="#666666" points="170.12,-814.5 18.38,-814.5 18.38,-784 170.12,-784 170.12,-814.5"/>
<text text-anchor="start" x="26.38" y="-801" font-family="Helvetica,sans-Serif" font-size="10.00">edu.wpi.first.wpilibj.simulation.</text>
<text text-anchor="middle" x="94.25" y="-789.75" font-family="Helvetica,sans-Serif" font-size="10.00">PS5ControllerSim.setR2Button</text>
</a>
</g>
</g>
<!-- Node1&#45;&gt;Node25 -->
<g id="edge24_Node000001_Node000025" class="edge">
<title>Node1&#45;&gt;Node25</title>
<g id="a_edge24_Node000001_Node000025"><a xlink:title=" ">
<path fill="none" stroke="#63b8ff" d="M286.15,-944.58C268.84,-911.68 234.38,-855.19 188.5,-824.25 182.94,-820.5 176.84,-817.31 170.51,-814.6"/>
<polygon fill="#63b8ff" stroke="#63b8ff" points="283,-946.11 290.67,-953.42 289.24,-942.92 283,-946.11"/>
</a>
</g>
</g>
<!-- Node26 -->
<g id="Node000026" class="node">
<title>Node26</title>
<g id="a_Node000026"><a xlink:href="classedu_1_1wpi_1_1first_1_1wpilibj_1_1simulation_1_1_p_s4_controller_sim.html#ac9e8df22753016750bc7579e497186e2" target="_top" xlink:title=" ">
<polygon fill="white" stroke="#666666" points="170.12,-765.5 18.38,-765.5 18.38,-735 170.12,-735 170.12,-765.5"/>
<text text-anchor="start" x="26.38" y="-752" font-family="Helvetica,sans-Serif" font-size="10.00">edu.wpi.first.wpilibj.simulation.</text>
<text text-anchor="middle" x="94.25" y="-740.75" font-family="Helvetica,sans-Serif" font-size="10.00">PS4ControllerSim.setR3Button</text>
</a>
</g>
</g>
<!-- Node1&#45;&gt;Node26 -->
<g id="edge25_Node000001_Node000026" class="edge">
<title>Node1&#45;&gt;Node26</title>
<g id="a_edge25_Node000001_Node000026"><a xlink:title=" ">
<path fill="none" stroke="#63b8ff" d="M291.05,-943.81C277.58,-901.61 245.38,-819.33 188.5,-775.25 183.07,-771.04 176.98,-767.54 170.6,-764.62"/>
<polygon fill="#63b8ff" stroke="#63b8ff" points="287.63,-944.6 293.92,-953.13 294.33,-942.55 287.63,-944.6"/>
</a>
</g>
</g>
<!-- Node27 -->
<g id="Node000027" class="node">
<title>Node27</title>
<g id="a_Node000027"><a xlink:href="classedu_1_1wpi_1_1first_1_1wpilibj_1_1simulation_1_1_p_s5_controller_sim.html#a2476ef0e755e7c77e4b3d847740f1a41" target="_top" xlink:title=" ">
<polygon fill="white" stroke="#666666" points="170.12,-716.5 18.38,-716.5 18.38,-686 170.12,-686 170.12,-716.5"/>
<text text-anchor="start" x="26.38" y="-703" font-family="Helvetica,sans-Serif" font-size="10.00">edu.wpi.first.wpilibj.simulation.</text>
<text text-anchor="middle" x="94.25" y="-691.75" font-family="Helvetica,sans-Serif" font-size="10.00">PS5ControllerSim.setR3Button</text>
</a>
</g>
</g>
<!-- Node1&#45;&gt;Node27 -->
<g id="edge26_Node000001_Node000027" class="edge">
<title>Node1&#45;&gt;Node27</title>
<g id="a_edge26_Node000001_Node000027"><a xlink:title=" ">
<path fill="none" stroke="#63b8ff" d="M294.26,-943.45C284.62,-893.09 256.72,-784.22 188.5,-726.25 183.14,-721.69 177.02,-717.96 170.55,-714.9"/>
<polygon fill="#63b8ff" stroke="#63b8ff" points="290.79,-943.94 296.02,-953.16 297.68,-942.69 290.79,-943.94"/>
</a>
</g>
</g>
<!-- Node28 -->
<g id="Node000028" class="node">
<title>Node28</title>
<g id="a_Node000028"><a xlink:href="classedu_1_1wpi_1_1first_1_1wpilibj_1_1simulation_1_1_xbox_controller_sim.html#afffe429137312e66d20efe8aea478be2" target="_top" xlink:title=" ">
<polygon fill="white" stroke="#666666" points="179.88,-667.5 8.62,-667.5 8.62,-637 179.88,-637 179.88,-667.5"/>
<text text-anchor="start" x="16.62" y="-654" font-family="Helvetica,sans-Serif" font-size="10.00">edu.wpi.first.wpilibj.simulation.</text>
<text text-anchor="middle" x="94.25" y="-642.75" font-family="Helvetica,sans-Serif" font-size="10.00">XboxControllerSim.setRightBumper</text>
</a>
</g>
</g>
<!-- Node1&#45;&gt;Node28 -->
<g id="edge27_Node000001_Node000028" class="edge">
<title>Node1&#45;&gt;Node28</title>
<g id="a_edge27_Node000001_Node000028"><a xlink:title=" ">
<path fill="none" stroke="#63b8ff" d="M296.54,-943.46C290.59,-885.88 268.38,-749.69 188.5,-677.25 184.53,-673.65 180.09,-670.55 175.37,-667.9"/>
<polygon fill="#63b8ff" stroke="#63b8ff" points="293.05,-943.67 297.46,-953.3 300.02,-943.02 293.05,-943.67"/>
</a>
</g>
</g>
<!-- Node29 -->
<g id="Node000029" class="node">
<title>Node29</title>
<g id="a_Node000029"><a xlink:href="classedu_1_1wpi_1_1first_1_1wpilibj_1_1simulation_1_1_xbox_controller_sim.html#a5e15a0054ce954cc9b6fd93b0b399d64" target="_top" xlink:title=" ">
<polygon fill="white" stroke="#666666" points="188.5,-618.5 0,-618.5 0,-588 188.5,-588 188.5,-618.5"/>
<text text-anchor="start" x="8" y="-605" font-family="Helvetica,sans-Serif" font-size="10.00">edu.wpi.first.wpilibj.simulation.</text>
<text text-anchor="middle" x="94.25" y="-593.75" font-family="Helvetica,sans-Serif" font-size="10.00">XboxControllerSim.setRightStickButton</text>
</a>
</g>
</g>
<!-- Node1&#45;&gt;Node29 -->
<g id="edge28_Node000001_Node000029" class="edge">
<title>Node1&#45;&gt;Node29</title>
<g id="a_edge28_Node000001_Node000029"><a xlink:title=" ">
<path fill="none" stroke="#63b8ff" d="M298.21,-943.49C295.72,-879.32 280.19,-715.51 188.5,-628.25 184.74,-624.67 180.52,-621.59 176.01,-618.94"/>
<polygon fill="#63b8ff" stroke="#63b8ff" points="294.7,-943.21 298.5,-953.1 301.7,-943 294.7,-943.21"/>
</a>
</g>
</g>
<!-- Node30 -->
<g id="Node000030" class="node">
<title>Node30</title>
<g id="a_Node000030"><a xlink:href="classedu_1_1wpi_1_1first_1_1wpilibj_1_1simulation_1_1_p_s4_controller_sim.html#ae743e1455b9e0e9012d5b29e10c96a35" target="_top" xlink:title=" ">
<polygon fill="white" stroke="#666666" points="176.5,-569.5 12,-569.5 12,-539 176.5,-539 176.5,-569.5"/>
<text text-anchor="start" x="20" y="-556" font-family="Helvetica,sans-Serif" font-size="10.00">edu.wpi.first.wpilibj.simulation.</text>
<text text-anchor="middle" x="94.25" y="-544.75" font-family="Helvetica,sans-Serif" font-size="10.00">PS4ControllerSim.setShareButton</text>
</a>
</g>
</g>
<!-- Node1&#45;&gt;Node30 -->
<g id="edge29_Node000001_Node000030" class="edge">
<title>Node1&#45;&gt;Node30</title>
<g id="a_edge29_Node000001_Node000030"><a xlink:title=" ">
<path fill="none" stroke="#63b8ff" d="M299.49,-943.14C300.2,-872.54 291.93,-681.39 188.5,-579.25 184.8,-575.6 180.63,-572.47 176.16,-569.78"/>
<polygon fill="#63b8ff" stroke="#63b8ff" points="296,-942.93 299.31,-952.99 302.99,-943.06 296,-942.93"/>
</a>
</g>
</g>
<!-- Node31 -->
<g id="Node000031" class="node">
<title>Node31</title>
<g id="a_Node000031"><a xlink:href="classedu_1_1wpi_1_1first_1_1wpilibj_1_1simulation_1_1_p_s4_controller_sim.html#adb8367462a05987d9ea1468f9e3b7c34" target="_top" xlink:title=" ">
<polygon fill="white" stroke="#666666" points="179.12,-520.5 9.38,-520.5 9.38,-490 179.12,-490 179.12,-520.5"/>
<text text-anchor="start" x="17.38" y="-507" font-family="Helvetica,sans-Serif" font-size="10.00">edu.wpi.first.wpilibj.simulation.</text>
<text text-anchor="middle" x="94.25" y="-495.75" font-family="Helvetica,sans-Serif" font-size="10.00">PS4ControllerSim.setSquareButton</text>
</a>
</g>
</g>
<!-- Node1&#45;&gt;Node31 -->
<g id="edge30_Node000001_Node000031" class="edge">
<title>Node1&#45;&gt;Node31</title>
<g id="a_edge30_Node000001_Node000031"><a xlink:title=" ">
<path fill="none" stroke="#63b8ff" d="M295.47,-943.43C284.83,-857.37 247.57,-590.32 188.5,-530.25 184.97,-526.66 180.99,-523.58 176.71,-520.92"/>
<polygon fill="#63b8ff" stroke="#63b8ff" points="291.99,-943.76 296.67,-953.26 298.94,-942.92 291.99,-943.76"/>
</a>
</g>
</g>
<!-- Node32 -->
<g id="Node000032" class="node">
<title>Node32</title>
<g id="a_Node000032"><a xlink:href="classedu_1_1wpi_1_1first_1_1wpilibj_1_1simulation_1_1_p_s5_controller_sim.html#a90271bb0d85a35af9e350f8f90317ec1" target="_top" xlink:title=" ">
<polygon fill="white" stroke="#666666" points="179.12,-471.5 9.38,-471.5 9.38,-441 179.12,-441 179.12,-471.5"/>
<text text-anchor="start" x="17.38" y="-458" font-family="Helvetica,sans-Serif" font-size="10.00">edu.wpi.first.wpilibj.simulation.</text>
<text text-anchor="middle" x="94.25" y="-446.75" font-family="Helvetica,sans-Serif" font-size="10.00">PS5ControllerSim.setSquareButton</text>
</a>
</g>
</g>
<!-- Node1&#45;&gt;Node32 -->
<g id="edge31_Node000001_Node000032" class="edge">
<title>Node1&#45;&gt;Node32</title>
<g id="a_edge31_Node000001_Node000032"><a xlink:title=" ">
<path fill="none" stroke="#63b8ff" d="M296.18,-943.22C287.26,-850.75 253.62,-549.06 188.5,-481.25 185.02,-477.62 181.07,-474.5 176.81,-471.82"/>
<polygon fill="#63b8ff" stroke="#63b8ff" points="292.68,-943.47 297.11,-953.09 299.65,-942.81 292.68,-943.47"/>
</a>
</g>
</g>
<!-- Node33 -->
<g id="Node000033" class="node">
<title>Node33</title>
<g id="a_Node000033"><a xlink:href="classedu_1_1wpi_1_1first_1_1wpilibj_1_1simulation_1_1_xbox_controller_sim.html#a93517c9e09b196125bb7a03233ad6b9e" target="_top" xlink:title=" ">
<polygon fill="white" stroke="#666666" points="176.12,-422.5 12.38,-422.5 12.38,-392 176.12,-392 176.12,-422.5"/>
<text text-anchor="start" x="20.38" y="-409" font-family="Helvetica,sans-Serif" font-size="10.00">edu.wpi.first.wpilibj.simulation.</text>
<text text-anchor="middle" x="94.25" y="-397.75" font-family="Helvetica,sans-Serif" font-size="10.00">XboxControllerSim.setStartButton</text>
</a>
</g>
</g>
<!-- Node1&#45;&gt;Node33 -->
<g id="edge32_Node000001_Node000033" class="edge">
<title>Node1&#45;&gt;Node33</title>
<g id="a_edge32_Node000001_Node000033"><a xlink:title=" ">
<path fill="none" stroke="#63b8ff" d="M296.79,-943.44C289.55,-845.37 259.8,-507.96 188.5,-432.25 184.94,-428.47 180.87,-425.23 176.47,-422.47"/>
<polygon fill="#63b8ff" stroke="#63b8ff" points="293.28,-943.43 297.49,-953.16 300.26,-942.93 293.28,-943.43"/>
</a>
</g>
</g>
<!-- Node34 -->
<g id="Node000034" class="node">
<title>Node34</title>
<g id="a_Node000034"><a xlink:href="classedu_1_1wpi_1_1first_1_1wpilibj_1_1simulation_1_1_joystick_sim.html#a31297b4da626064c70830d67a0e97ac1" target="_top" xlink:title=" ">
<polygon fill="white" stroke="#666666" points="169,-373.5 19.5,-373.5 19.5,-343 169,-343 169,-373.5"/>
<text text-anchor="start" x="27.5" y="-360" font-family="Helvetica,sans-Serif" font-size="10.00">edu.wpi.first.wpilibj.simulation.</text>
<text text-anchor="middle" x="94.25" y="-348.75" font-family="Helvetica,sans-Serif" font-size="10.00">JoystickSim.setTop</text>
</a>
</g>
</g>
<!-- Node1&#45;&gt;Node34 -->
<g id="edge33_Node000001_Node000034" class="edge">
<title>Node1&#45;&gt;Node34</title>
<g id="a_edge33_Node000001_Node000034"><a xlink:title=" ">
<path fill="none" stroke="#63b8ff" d="M297.29,-943.39C291.59,-839.67 265.94,-466.85 188.5,-383.25 183.03,-377.35 176.34,-372.78 169.07,-369.25"/>
<polygon fill="#63b8ff" stroke="#63b8ff" points="293.78,-943.36 297.81,-953.16 300.77,-942.99 293.78,-943.36"/>
</a>
</g>
</g>
<!-- Node35 -->
<g id="Node000035" class="node">
<title>Node35</title>
<g id="a_Node000035"><a xlink:href="classedu_1_1wpi_1_1first_1_1wpilibj_1_1simulation_1_1_p_s4_controller_sim.html#ae9ead454c473d1bbdd9878096397dfcc" target="_top" xlink:title=" ">
<polygon fill="white" stroke="#666666" points="170.5,-324.5 18,-324.5 18,-294 170.5,-294 170.5,-324.5"/>
<text text-anchor="start" x="26" y="-311" font-family="Helvetica,sans-Serif" font-size="10.00">edu.wpi.first.wpilibj.simulation.</text>
<text text-anchor="middle" x="94.25" y="-299.75" font-family="Helvetica,sans-Serif" font-size="10.00">PS4ControllerSim.setTouchpad</text>
</a>
</g>
</g>
<!-- Node1&#45;&gt;Node35 -->
<g id="edge34_Node000001_Node000035" class="edge">
<title>Node1&#45;&gt;Node35</title>
<g id="a_edge34_Node000001_Node000035"><a xlink:title=" ">
<path fill="none" stroke="#63b8ff" d="M297.71,-943.3C293.45,-834.06 272.09,-425.77 188.5,-334.25 183.53,-328.8 177.51,-324.49 170.95,-321.09"/>
<polygon fill="#63b8ff" stroke="#63b8ff" points="294.2,-943.18 298.07,-953.05 301.2,-942.92 294.2,-943.18"/>
</a>
</g>
</g>
<!-- Node36 -->
<g id="Node000036" class="node">
<title>Node36</title>
<g id="a_Node000036"><a xlink:href="classedu_1_1wpi_1_1first_1_1wpilibj_1_1simulation_1_1_p_s5_controller_sim.html#aebfcd4f0df748553253a5df3ece61b31" target="_top" xlink:title=" ">
<polygon fill="white" stroke="#666666" points="170.5,-275.5 18,-275.5 18,-245 170.5,-245 170.5,-275.5"/>
<text text-anchor="start" x="26" y="-262" font-family="Helvetica,sans-Serif" font-size="10.00">edu.wpi.first.wpilibj.simulation.</text>
<text text-anchor="middle" x="94.25" y="-250.75" font-family="Helvetica,sans-Serif" font-size="10.00">PS5ControllerSim.setTouchpad</text>
</a>
</g>
</g>
<!-- Node1&#45;&gt;Node36 -->
<g id="edge35_Node000001_Node000036" class="edge">
<title>Node1&#45;&gt;Node36</title>
<g id="a_edge35_Node000001_Node000036"><a xlink:title=" ">
<path fill="none" stroke="#63b8ff" d="M298.07,-943.11C295.17,-828.39 278.24,-384.7 188.5,-285.25 183.45,-279.65 177.29,-275.25 170.57,-271.79"/>
<polygon fill="#63b8ff" stroke="#63b8ff" points="294.57,-943.16 298.3,-953.07 301.57,-942.99 294.57,-943.16"/>
</a>
</g>
</g>
<!-- Node37 -->
<g id="Node000037" class="node">
<title>Node37</title>
<g id="a_Node000037"><a xlink:href="classedu_1_1wpi_1_1first_1_1wpilibj_1_1simulation_1_1_p_s4_controller_sim.html#a2de1f7c5f2732e47aeba77fb6fd1eedc" target="_top" xlink:title=" ">
<polygon fill="white" stroke="#666666" points="181,-226.5 7.5,-226.5 7.5,-196 181,-196 181,-226.5"/>
<text text-anchor="start" x="15.5" y="-213" font-family="Helvetica,sans-Serif" font-size="10.00">edu.wpi.first.wpilibj.simulation.</text>
<text text-anchor="middle" x="94.25" y="-201.75" font-family="Helvetica,sans-Serif" font-size="10.00">PS4ControllerSim.setTriangleButton</text>
</a>
</g>
</g>
<!-- Node1&#45;&gt;Node37 -->
<g id="edge36_Node000001_Node000037" class="edge">
<title>Node1&#45;&gt;Node37</title>
<g id="a_edge36_Node000001_Node000037"><a xlink:title=" ">
<path fill="none" stroke="#63b8ff" d="M298.4,-943.48C296.83,-824.4 284.55,-343.82 188.5,-236.25 185.26,-232.62 181.56,-229.5 177.54,-226.81"/>
<polygon fill="#63b8ff" stroke="#63b8ff" points="294.89,-943.26 298.51,-953.22 301.89,-943.18 294.89,-943.26"/>
</a>
</g>
</g>
<!-- Node38 -->
<g id="Node000038" class="node">
<title>Node38</title>
<g id="a_Node000038"><a xlink:href="classedu_1_1wpi_1_1first_1_1wpilibj_1_1simulation_1_1_p_s5_controller_sim.html#a13bfa33b366654fef9fb86441cf6278c" target="_top" xlink:title=" ">
<polygon fill="white" stroke="#666666" points="181,-177.5 7.5,-177.5 7.5,-147 181,-147 181,-177.5"/>
<text text-anchor="start" x="15.5" y="-164" font-family="Helvetica,sans-Serif" font-size="10.00">edu.wpi.first.wpilibj.simulation.</text>
<text text-anchor="middle" x="94.25" y="-152.75" font-family="Helvetica,sans-Serif" font-size="10.00">PS5ControllerSim.setTriangleButton</text>
</a>
</g>
</g>
<!-- Node1&#45;&gt;Node38 -->
<g id="edge37_Node000001_Node000038" class="edge">
<title>Node1&#45;&gt;Node38</title>
<g id="a_edge37_Node000001_Node000038"><a xlink:title=" ">
<path fill="none" stroke="#63b8ff" d="M298.67,-943.31C298.34,-819.1 290.73,-302.8 188.5,-187.25 185.28,-183.61 181.59,-180.47 177.58,-177.77"/>
<polygon fill="#63b8ff" stroke="#63b8ff" points="295.17,-943.18 298.68,-953.18 302.17,-943.17 295.17,-943.18"/>
</a>
</g>
</g>
<!-- Node39 -->
<g id="Node000039" class="node">
<title>Node39</title>
<g id="a_Node000039"><a xlink:href="classedu_1_1wpi_1_1first_1_1wpilibj_1_1simulation_1_1_joystick_sim.html#ac3b3c52b05f48becae137c0c5933034f" target="_top" xlink:title=" ">
<polygon fill="white" stroke="#666666" points="169,-128.5 19.5,-128.5 19.5,-98 169,-98 169,-128.5"/>
<text text-anchor="start" x="27.5" y="-115" font-family="Helvetica,sans-Serif" font-size="10.00">edu.wpi.first.wpilibj.simulation.</text>
<text text-anchor="middle" x="94.25" y="-103.75" font-family="Helvetica,sans-Serif" font-size="10.00">JoystickSim.setTrigger</text>
</a>
</g>
</g>
<!-- Node1&#45;&gt;Node39 -->
<g id="edge38_Node000001_Node000039" class="edge">
<title>Node1&#45;&gt;Node39</title>
<g id="a_edge38_Node000001_Node000039"><a xlink:title=" ">
<path fill="none" stroke="#63b8ff" d="M298.92,-943.29C299.77,-814.37 296.96,-261.86 188.5,-138.25 183.19,-132.2 176.6,-127.54 169.39,-123.97"/>
<polygon fill="#63b8ff" stroke="#63b8ff" points="295.42,-943.19 298.84,-953.22 302.42,-943.25 295.42,-943.19"/>
</a>
</g>
</g>
<!-- Node40 -->
<g id="Node000040" class="node">
<title>Node40</title>
<g id="a_Node000040"><a xlink:href="classedu_1_1wpi_1_1first_1_1wpilibj_1_1simulation_1_1_xbox_controller_sim.html#a636db4170812e299bc018d647560e129" target="_top" xlink:title=" ">
<polygon fill="white" stroke="#666666" points="169,-79.5 19.5,-79.5 19.5,-49 169,-49 169,-79.5"/>
<text text-anchor="start" x="27.5" y="-66" font-family="Helvetica,sans-Serif" font-size="10.00">edu.wpi.first.wpilibj.simulation.</text>
<text text-anchor="middle" x="94.25" y="-54.75" font-family="Helvetica,sans-Serif" font-size="10.00">XboxControllerSim.setXButton</text>
</a>
</g>
</g>
<!-- Node1&#45;&gt;Node40 -->
<g id="edge39_Node000001_Node000040" class="edge">
<title>Node1&#45;&gt;Node40</title>
<g id="a_edge39_Node000001_Node000040"><a xlink:title=" ">
<path fill="none" stroke="#63b8ff" d="M297.05,-943.53C288.52,-803.22 246.24,-155.53 188.5,-89.25 183.22,-83.18 176.63,-78.51 169.43,-74.93"/>
<polygon fill="#63b8ff" stroke="#63b8ff" points="293.54,-943.53 297.63,-953.31 300.53,-943.11 293.54,-943.53"/>
</a>
</g>
</g>
<!-- Node41 -->
<g id="Node000041" class="node">
<title>Node41</title>
<g id="a_Node000041"><a xlink:href="classedu_1_1wpi_1_1first_1_1wpilibj_1_1simulation_1_1_xbox_controller_sim.html#a09423cf8dd3402113f2e87cc5fcdc2c8" target="_top" xlink:title=" ">
<polygon fill="white" stroke="#666666" points="169,-30.5 19.5,-30.5 19.5,0 169,0 169,-30.5"/>
<text text-anchor="start" x="27.5" y="-17" font-family="Helvetica,sans-Serif" font-size="10.00">edu.wpi.first.wpilibj.simulation.</text>
<text text-anchor="middle" x="94.25" y="-5.75" font-family="Helvetica,sans-Serif" font-size="10.00">XboxControllerSim.setYButton</text>
</a>
</g>
</g>
<!-- Node1&#45;&gt;Node41 -->
<g id="edge40_Node000001_Node000041" class="edge">
<title>Node1&#45;&gt;Node41</title>
<g id="a_edge40_Node000001_Node000041"><a xlink:title=" ">
<path fill="none" stroke="#63b8ff" d="M297.22,-943.42C289.41,-798.25 249.37,-110.58 188.5,-40.25 183.24,-34.17 176.67,-29.49 169.47,-25.89"/>
<polygon fill="#63b8ff" stroke="#63b8ff" points="293.72,-943.4 297.74,-953.2 300.71,-943.02 293.72,-943.4"/>
</a>
</g>
</g>
</g>
</svg>

<g id="navigator" transform="translate(0 0)" fill="#404254">
  <rect fill="#f2f5e9" fill-opacity="0.5" stroke="#606060" stroke-width=".5" x="0" y="0" width="60" height="60"/>
  <use id="zoomplus" xlink:href="#zoomPlus" x="17" y="9" onmousedown="handleZoom(evt,'in')"/>
  <use id="zoomminus" xlink:href="#zoomMin" x="42" y="9" onmousedown="handleZoom(evt,'out')"/>
  <use id="reset" xlink:href="#resetDef" x="30" y="36" onmousedown="handleReset()"/>
   <use id="arrowup" xlink:href="#arrowUp" x="0" y="0" onmousedown="handlePan(0,-1)"/>
  <use id="arrowright" xlink:href="#arrowRight" x="0" y="0" onmousedown="handlePan(1,0)"/>
  <use id="arrowdown" xlink:href="#arrowDown" x="0" y="0" onmousedown="handlePan(0,1)"/>
  <use id="arrowleft" xlink:href="#arrowLeft" x="0" y="0" onmousedown="handlePan(-1,0)"/>
</g>
<svg viewBox="0 0 15 15" width="100%" height="30px" preserveAspectRatio="xMaxYMin meet">
 <g id="arrow_out" transform="scale(0.3 0.3)">
  <a xlink:href="classedu_1_1wpi_1_1first_1_1wpilibj_1_1simulation_1_1_generic_h_i_d_sim_a59a64957c20d3ce400fa84e9957b4252_icgraph_org.svg" target="_base">
   <rect id="button" ry="5" rx="5" y="6" x="6" height="38" width="38"
        fill="#f2f5e9" fill-opacity="0.5" stroke="#606060" stroke-width="1.0"/>
   <path id="arrow"
     d="M 11.500037,31.436501 C 11.940474,20.09759 22.043105,11.32322 32.158766,21.979434 L 37.068811,17.246167 C 37.068811,17.246167 37.088388,32 37.088388,32 L 22.160133,31.978069 C 22.160133,31.978069 26.997745,27.140456 26.997745,27.140456 C 18.528582,18.264221 13.291696,25.230495 11.500037,31.436501 z"
     style="fill:#404040;"/>
  </a>
 </g>
</svg>

<style type='text/css'>
<![CDATA[
[data-mouse-over-selected='false'] { opacity: 0.7; }
[data-mouse-over-selected='true']  { opacity: 1.0; }
]]>
</style>
<script type="application/ecmascript"><![CDATA[
document.addEventListener('DOMContentLoaded', (event) => {
  highlightEdges();
  highlightAdjacentNodes();
});
]]></script>
</svg>
