<?xml version="1.0" encoding="UTF-8" standalone="no"?>
<!DOCTYPE svg PUBLIC "-//W3C//DTD SVG 1.1//EN"
 "http://www.w3.org/Graphics/SVG/1.1/DTD/svg11.dtd">
<!-- Generated by graphviz version 9.0.0 (20230911.1827)
 -->
<!-- Title: edu.wpi.first.wpilibj.motorcontrol.PWMMotorController.close Pages: 1 -->
<svg width="536pt" height="39pt"
 viewBox="0.00 0.00 536.00 38.50" xmlns="http://www.w3.org/2000/svg" xmlns:xlink="http://www.w3.org/1999/xlink">
<g id="graph0" class="graph" transform="scale(1 1) rotate(0) translate(4 34.5)">
<title>edu.wpi.first.wpilibj.motorcontrol.PWMMotorController.close</title>
<!-- Node1 -->
<g id="Node000001" class="node">
<title>Node1</title>
<g id="a_Node000001"><a xlink:title=" ">
<polygon fill="#999999" stroke="#666666" points="159.25,-30.5 0,-30.5 0,0 159.25,0 159.25,-30.5"/>
<text text-anchor="start" x="8" y="-17" font-family="Helvetica,sans-Serif" font-size="10.00">edu.wpi.first.wpilibj.motorcontrol.</text>
<text text-anchor="middle" x="79.62" y="-5.75" font-family="Helvetica,sans-Serif" font-size="10.00">PWMMotorController.close</text>
</a>
</g>
</g>
<!-- Node2 -->
<g id="Node000002" class="node">
<title>Node2</title>
<g id="a_Node000002"><a xlink:href="classedu_1_1wpi_1_1first_1_1wpilibj_1_1_p_w_m.html#af2d3b729ed8e42c9983e153672956209" target="_top" xlink:title=" ">
<polygon fill="white" stroke="#666666" points="348.5,-24.88 195.25,-24.88 195.25,-5.63 348.5,-5.63 348.5,-24.88"/>
<text text-anchor="middle" x="271.88" y="-11.38" font-family="Helvetica,sans-Serif" font-size="10.00">edu.wpi.first.wpilibj.PWM.close</text>
</a>
</g>
</g>
<!-- Node1&#45;&gt;Node2 -->
<g id="edge1_Node000001_Node000002" class="edge">
<title>Node1&#45;&gt;Node2</title>
<g id="a_edge1_Node000001_Node000002"><a xlink:title=" ">
<path fill="none" stroke="#63b8ff" d="M159.66,-15.25C167.47,-15.25 175.44,-15.25 183.34,-15.25"/>
<polygon fill="#63b8ff" stroke="#63b8ff" points="183.33,-18.75 193.33,-15.25 183.33,-11.75 183.33,-18.75"/>
</a>
</g>
</g>
<!-- Node3 -->
<g id="Node000003" class="node">
<title>Node3</title>
<g id="a_Node000003"><a xlink:href="classedu_1_1wpi_1_1first_1_1wpilibj_1_1_p_w_m.html#ade38d1a164d9185827f26238e3e76f62" target="_top" xlink:title=" ">
<polygon fill="white" stroke="#666666" points="528,-30.5 384.5,-30.5 384.5,0 528,0 528,-30.5"/>
<text text-anchor="start" x="392.5" y="-17" font-family="Helvetica,sans-Serif" font-size="10.00">edu.wpi.first.wpilibj.PWM.set</text>
<text text-anchor="middle" x="456.25" y="-5.75" font-family="Helvetica,sans-Serif" font-size="10.00">Disabled</text>
</a>
</g>
</g>
<!-- Node2&#45;&gt;Node3 -->
<g id="edge2_Node000002_Node000003" class="edge">
<title>Node2&#45;&gt;Node3</title>
<g id="a_edge2_Node000002_Node000003"><a xlink:title=" ">
<path fill="none" stroke="#63b8ff" d="M348.9,-15.25C356.71,-15.25 364.68,-15.25 372.56,-15.25"/>
<polygon fill="#63b8ff" stroke="#63b8ff" points="372.51,-18.75 382.51,-15.25 372.51,-11.75 372.51,-18.75"/>
</a>
</g>
</g>
</g>
</svg>
