<?xml version="1.0" encoding="UTF-8" standalone="no"?>
<!DOCTYPE svg PUBLIC "-//W3C//DTD SVG 1.1//EN"
 "http://www.w3.org/Graphics/SVG/1.1/DTD/svg11.dtd">
<!-- Generated by graphviz version 9.0.0 (20230911.1827)
 -->
<!-- Title: edu.wpi.first.wpilibj.Ultrasonic.getRangeMM Pages: 1 -->
<svg width="752pt" height="88pt"
 viewBox="0.00 0.00 751.50 87.50" xmlns="http://www.w3.org/2000/svg" xmlns:xlink="http://www.w3.org/1999/xlink">
<g id="graph0" class="graph" transform="scale(1 1) rotate(0) translate(4 83.5)">
<title>edu.wpi.first.wpilibj.Ultrasonic.getRangeMM</title>
<!-- Node1 -->
<g id="Node000001" class="node">
<title>Node1</title>
<g id="a_Node000001"><a xlink:title=" ">
<polygon fill="#999999" stroke="#666666" points="163,-54.5 0,-54.5 0,-24 163,-24 163,-54.5"/>
<text text-anchor="start" x="8" y="-41" font-family="Helvetica,sans-Serif" font-size="10.00">edu.wpi.first.wpilibj.Ultrasonic.get</text>
<text text-anchor="middle" x="81.5" y="-29.75" font-family="Helvetica,sans-Serif" font-size="10.00">RangeMM</text>
</a>
</g>
</g>
<!-- Node2 -->
<g id="Node000002" class="node">
<title>Node2</title>
<g id="a_Node000002"><a xlink:href="classedu_1_1wpi_1_1first_1_1wpilibj_1_1_ultrasonic.html#a9a9aff88f201efda3935717cfa957b0a" target="_top" xlink:title=" ">
<polygon fill="white" stroke="#666666" points="362,-54.5 199,-54.5 199,-24 362,-24 362,-54.5"/>
<text text-anchor="start" x="207" y="-41" font-family="Helvetica,sans-Serif" font-size="10.00">edu.wpi.first.wpilibj.Ultrasonic.get</text>
<text text-anchor="middle" x="280.5" y="-29.75" font-family="Helvetica,sans-Serif" font-size="10.00">RangeInches</text>
</a>
</g>
</g>
<!-- Node1&#45;&gt;Node2 -->
<g id="edge1_Node000001_Node000002" class="edge">
<title>Node1&#45;&gt;Node2</title>
<g id="a_edge1_Node000001_Node000002"><a xlink:title=" ">
<path fill="none" stroke="#63b8ff" d="M163.48,-39.25C171.25,-39.25 179.17,-39.25 187.05,-39.25"/>
<polygon fill="#63b8ff" stroke="#63b8ff" points="187,-42.75 197,-39.25 187,-35.75 187,-42.75"/>
</a>
</g>
</g>
<!-- Node3 -->
<g id="Node000003" class="node">
<title>Node3</title>
<g id="a_Node000003"><a xlink:href="classedu_1_1wpi_1_1first_1_1wpilibj_1_1_counter.html#a39f1ad64ca7c0f208c1e9f8c46c2ca8d" target="_top" xlink:title=" ">
<polygon fill="white" stroke="#666666" points="552.75,-79.5 400.25,-79.5 400.25,-49 552.75,-49 552.75,-79.5"/>
<text text-anchor="start" x="408.25" y="-66" font-family="Helvetica,sans-Serif" font-size="10.00">edu.wpi.first.wpilibj.Counter.get</text>
<text text-anchor="middle" x="476.5" y="-54.75" font-family="Helvetica,sans-Serif" font-size="10.00">Period</text>
</a>
</g>
</g>
<!-- Node2&#45;&gt;Node3 -->
<g id="edge2_Node000002_Node000003" class="edge">
<title>Node2&#45;&gt;Node3</title>
<g id="a_edge2_Node000002_Node000003"><a xlink:title=" ">
<path fill="none" stroke="#63b8ff" d="M362.37,-49.67C371.04,-50.79 379.9,-51.93 388.64,-53.06"/>
<polygon fill="#63b8ff" stroke="#63b8ff" points="388.17,-56.53 398.54,-54.33 389.07,-49.58 388.17,-56.53"/>
</a>
</g>
</g>
<!-- Node4 -->
<g id="Node000004" class="node">
<title>Node4</title>
<g id="a_Node000004"><a xlink:href="classedu_1_1wpi_1_1first_1_1wpilibj_1_1_ultrasonic.html#ad152fff690704203242141d5350dd926" target="_top" xlink:title=" ">
<polygon fill="white" stroke="#666666" points="555,-30.5 398,-30.5 398,0 555,0 555,-30.5"/>
<text text-anchor="start" x="406" y="-17" font-family="Helvetica,sans-Serif" font-size="10.00">edu.wpi.first.wpilibj.Ultrasonic.is</text>
<text text-anchor="middle" x="476.5" y="-5.75" font-family="Helvetica,sans-Serif" font-size="10.00">RangeValid</text>
</a>
</g>
</g>
<!-- Node2&#45;&gt;Node4 -->
<g id="edge3_Node000002_Node000004" class="edge">
<title>Node2&#45;&gt;Node4</title>
<g id="a_edge3_Node000002_Node000004"><a xlink:title=" ">
<path fill="none" stroke="#63b8ff" d="M362.37,-29.25C370.28,-28.27 378.35,-27.27 386.34,-26.28"/>
<polygon fill="#63b8ff" stroke="#63b8ff" points="386.57,-29.78 396.06,-25.08 385.71,-22.83 386.57,-29.78"/>
</a>
</g>
</g>
<!-- Node5 -->
<g id="Node000005" class="node">
<title>Node5</title>
<g id="a_Node000005"><a xlink:href="classedu_1_1wpi_1_1first_1_1wpilibj_1_1_counter.html#aa2e326e246a1f4dba1ff168b798996fd" target="_top" xlink:title=" ">
<polygon fill="white" stroke="#666666" points="743.5,-24.88 591,-24.88 591,-5.63 743.5,-5.63 743.5,-24.88"/>
<text text-anchor="middle" x="667.25" y="-11.38" font-family="Helvetica,sans-Serif" font-size="10.00">edu.wpi.first.wpilibj.Counter.get</text>
</a>
</g>
</g>
<!-- Node4&#45;&gt;Node5 -->
<g id="edge4_Node000004_Node000005" class="edge">
<title>Node4&#45;&gt;Node5</title>
<g id="a_edge4_Node000004_Node000005"><a xlink:title=" ">
<path fill="none" stroke="#63b8ff" d="M555.36,-15.25C563.3,-15.25 571.4,-15.25 579.42,-15.25"/>
<polygon fill="#63b8ff" stroke="#63b8ff" points="579.18,-18.75 589.18,-15.25 579.18,-11.75 579.18,-18.75"/>
</a>
</g>
</g>
</g>
</svg>
