<?xml version="1.0" encoding="UTF-8" standalone="no"?>
<!DOCTYPE svg PUBLIC "-//W3C//DTD SVG 1.1//EN"
 "http://www.w3.org/Graphics/SVG/1.1/DTD/svg11.dtd">
<!-- Generated by graphviz version 9.0.0 (20230911.1827)
 -->
<!-- Title: edu.wpi.first.wpilibj.MotorSafety.check Pages: 1 -->
<!--zoomable 284 -->

<svg id="main" version="1.1" xmlns="http://www.w3.org/2000/svg" xmlns:xlink="http://www.w3.org/1999/xlink" xml:space="preserve" onload="init(evt)">
<style type="text/css"><![CDATA[
.node, .edge {opacity: 0.7;}
.node.selected, .edge.selected {opacity: 1;}
.edge:hover path { stroke: red; }
.edge:hover polygon { stroke: red; fill: red; }
]]></style>

<defs>
  <circle id="rim" cx="0" cy="0" r="7"/>
  <circle id="rim2" cx="0" cy="0" r="3.5"/>
  <g id="zoomPlus">
    <use xlink:href="#rim" fill="#404040"><set attributeName="fill" to="#808080" begin="zoomplus.mouseover" end="zoomplus.mouseout"/></use>
    <path d="M-4,0h8M0,-4v8" fill="none" stroke="white" stroke-width="1.5" pointer-events="none"/>
  </g>
  <g id="zoomMin">
    <use xlink:href="#rim" fill="#404040"><set attributeName="fill" to="#808080" begin="zoomminus.mouseover" end="zoomminus.mouseout"/></use>
    <path d="M-4,0h8" fill="none" stroke="white" stroke-width="1.5" pointer-events="none"/>
  </g>
  <g id="arrowUp" transform="translate(30 24)">
    <use xlink:href="#rim"/>
    <path pointer-events="none" fill="none" stroke="white" stroke-width="1.5" d="M0,-3.0v7 M-2.5,-0.5L0,-3.0L2.5,-0.5"/>
  </g>
  <g id="arrowRight" transform="rotate(90) translate(36 -43)">
    <use xlink:href="#rim"/>
    <path pointer-events="none" fill="none" stroke="white" stroke-width="1.5" d="M0,-3.0v7 M-2.5,-0.5L0,-3.0L2.5,-0.5"/>
  </g>
  <g id="arrowDown" transform="rotate(180) translate(-30 -48)">
    <use xlink:href="#rim"/>
    <path pointer-events="none" fill="none" stroke="white" stroke-width="1.5" d="M0,-3.0v7 M-2.5,-0.5L0,-3.0L2.5,-0.5"/>
  </g>
  <g id="arrowLeft" transform="rotate(270) translate(-36 17)">
    <use xlink:href="#rim"/>
    <path pointer-events="none" fill="none" stroke="white" stroke-width="1.5" d="M0,-3.0v7 M-2.5,-0.5L0,-3.0L2.5,-0.5"/>
  </g>
  <g id="resetDef">
    <use xlink:href="#rim2" fill="#404040"><set attributeName="fill" to="#808080" begin="reset.mouseover" end="reset.mouseout"/></use>
  </g>
</defs>
<script type="application/ecmascript">
var viewWidth = 643;
var viewHeight = 284;
var sectionId = 'dynsection-1';
</script>
<script type="application/ecmascript" xlink:href="svg.min.js"/>
<svg id="graph" class="graph">
<g id="viewport">
<title>edu.wpi.first.wpilibj.MotorSafety.check</title>
<!-- Node1 -->
<g id="Node000001" class="node">
<title>Node1</title>
<g id="a_Node000001"><a xlink:title=" ">
<polygon fill="#999999" stroke="#666666" points="127,-152.5 0,-152.5 0,-122 127,-122 127,-152.5"/>
<text text-anchor="start" x="8" y="-139" font-family="Helvetica,sans-Serif" font-size="10.00">edu.wpi.first.wpilibj.Motor</text>
<text text-anchor="middle" x="63.5" y="-127.75" font-family="Helvetica,sans-Serif" font-size="10.00">Safety.check</text>
</a>
</g>
</g>
<!-- Node2 -->
<g id="Node000002" class="node">
<title>Node2</title>
<g id="a_Node000002"><a xlink:href="classedu_1_1wpi_1_1first_1_1wpilibj_1_1_motor_safety.html#ad7bfb51409082440a7b445db94c76f10" target="_top" xlink:title=" ">
<polygon fill="white" stroke="#666666" points="297.88,-275.5 170.88,-275.5 170.88,-245 297.88,-245 297.88,-275.5"/>
<text text-anchor="start" x="178.88" y="-262" font-family="Helvetica,sans-Serif" font-size="10.00">edu.wpi.first.wpilibj.Motor</text>
<text text-anchor="middle" x="234.38" y="-250.75" font-family="Helvetica,sans-Serif" font-size="10.00">Safety.getDescription</text>
</a>
</g>
</g>
<!-- Node1&#45;&gt;Node2 -->
<g id="edge1_Node000001_Node000002" class="edge">
<title>Node1&#45;&gt;Node2</title>
<g id="a_edge1_Node000001_Node000002"><a xlink:title=" ">
<path fill="none" stroke="#63b8ff" d="M76.53,-152.99C93.62,-174.36 126.87,-212.49 163,-235.25 165.54,-236.85 168.19,-238.36 170.91,-239.79"/>
<polygon fill="#63b8ff" stroke="#63b8ff" points="169.13,-242.82 179.66,-243.96 172.14,-236.5 169.13,-242.82"/>
</a>
</g>
</g>
<!-- Node3 -->
<g id="Node000003" class="node">
<title>Node3</title>
<g id="a_Node000003"><a xlink:href="classedu_1_1wpi_1_1first_1_1wpilibj_1_1_timer.html#a554f331c3b4645ee279bab8974cf21af" target="_top" xlink:title=" ">
<polygon fill="white" stroke="#666666" points="305.75,-226.5 163,-226.5 163,-196 305.75,-196 305.75,-226.5"/>
<text text-anchor="start" x="171" y="-213" font-family="Helvetica,sans-Serif" font-size="10.00">edu.wpi.first.wpilibj.Timer.get</text>
<text text-anchor="middle" x="234.38" y="-201.75" font-family="Helvetica,sans-Serif" font-size="10.00">FPGATimestamp</text>
</a>
</g>
</g>
<!-- Node1&#45;&gt;Node3 -->
<g id="edge2_Node000001_Node000003" class="edge">
<title>Node1&#45;&gt;Node3</title>
<g id="a_edge2_Node000001_Node000003"><a xlink:title=" ">
<path fill="none" stroke="#63b8ff" d="M93.81,-152.99C113.17,-163.1 139.27,-176.17 163,-186.25 167.3,-188.07 171.78,-189.88 176.3,-191.64"/>
<polygon fill="#63b8ff" stroke="#63b8ff" points="174.88,-194.84 185.47,-195.09 177.35,-188.29 174.88,-194.84"/>
</a>
</g>
</g>
<!-- Node5 -->
<g id="Node000005" class="node">
<title>Node5</title>
<g id="a_Node000005"><a xlink:href="classedu_1_1wpi_1_1first_1_1wpilibj_1_1_robot_state.html#a5cc47c279569fd01642aa152963f6223" target="_top" xlink:title=" ">
<polygon fill="white" stroke="#666666" points="298.62,-177.5 170.12,-177.5 170.12,-147 298.62,-147 298.62,-177.5"/>
<text text-anchor="start" x="178.12" y="-164" font-family="Helvetica,sans-Serif" font-size="10.00">edu.wpi.first.wpilibj.Robot</text>
<text text-anchor="middle" x="234.38" y="-152.75" font-family="Helvetica,sans-Serif" font-size="10.00">State.isDisabled</text>
</a>
</g>
</g>
<!-- Node1&#45;&gt;Node5 -->
<g id="edge4_Node000001_Node000005" class="edge">
<title>Node1&#45;&gt;Node5</title>
<g id="a_edge4_Node000001_Node000005"><a xlink:title=" ">
<path fill="none" stroke="#63b8ff" d="M127.38,-146.56C137.58,-148.07 148.22,-149.64 158.66,-151.19"/>
<polygon fill="#63b8ff" stroke="#63b8ff" points="157.97,-154.63 168.38,-152.63 159,-147.7 157.97,-154.63"/>
</a>
</g>
</g>
<!-- Node8 -->
<g id="Node000008" class="node">
<title>Node8</title>
<g id="a_Node000008"><a xlink:href="classedu_1_1wpi_1_1first_1_1wpilibj_1_1_robot_state.html#a1b390185aef075a2fcb778dbfa58034a" target="_top" xlink:title=" ">
<polygon fill="white" stroke="#666666" points="298.62,-128.5 170.12,-128.5 170.12,-98 298.62,-98 298.62,-128.5"/>
<text text-anchor="start" x="178.12" y="-115" font-family="Helvetica,sans-Serif" font-size="10.00">edu.wpi.first.wpilibj.Robot</text>
<text text-anchor="middle" x="234.38" y="-103.75" font-family="Helvetica,sans-Serif" font-size="10.00">State.isTest</text>
</a>
</g>
</g>
<!-- Node1&#45;&gt;Node8 -->
<g id="edge7_Node000001_Node000008" class="edge">
<title>Node1&#45;&gt;Node8</title>
<g id="a_edge7_Node000001_Node000008"><a xlink:title=" ">
<path fill="none" stroke="#63b8ff" d="M127.38,-128.31C137.58,-126.86 148.22,-125.35 158.66,-123.87"/>
<polygon fill="#63b8ff" stroke="#63b8ff" points="158.97,-127.36 168.38,-122.49 157.98,-120.43 158.97,-127.36"/>
</a>
</g>
</g>
<!-- Node10 -->
<g id="Node000010" class="node">
<title>Node10</title>
<g id="a_Node000010"><a xlink:href="classedu_1_1wpi_1_1first_1_1wpilibj_1_1_driver_station.html#a40fcb0dd08778d829076cf9fcc8ab402" target="_top" xlink:title=" ">
<polygon fill="white" stroke="#666666" points="298.62,-79.5 170.12,-79.5 170.12,-49 298.62,-49 298.62,-79.5"/>
<text text-anchor="start" x="178.12" y="-66" font-family="Helvetica,sans-Serif" font-size="10.00">edu.wpi.first.wpilibj.Driver</text>
<text text-anchor="middle" x="234.38" y="-54.75" font-family="Helvetica,sans-Serif" font-size="10.00">Station.reportError</text>
</a>
</g>
</g>
<!-- Node1&#45;&gt;Node10 -->
<g id="edge9_Node000001_Node000010" class="edge">
<title>Node1&#45;&gt;Node10</title>
<g id="a_edge9_Node000001_Node000010"><a xlink:title=" ">
<path fill="none" stroke="#63b8ff" d="M94.28,-121.66C113.61,-111.8 139.5,-99.12 163,-89.25 167.3,-87.44 171.79,-85.65 176.32,-83.9"/>
<polygon fill="#63b8ff" stroke="#63b8ff" points="177.36,-87.25 185.49,-80.46 174.9,-80.7 177.36,-87.25"/>
</a>
</g>
</g>
<!-- Node11 -->
<g id="Node000011" class="node">
<title>Node11</title>
<g id="a_Node000011"><a xlink:href="classedu_1_1wpi_1_1first_1_1wpilibj_1_1_motor_safety.html#ae90c58f47c0049c779bf98da895de846" target="_top" xlink:title=" ">
<polygon fill="white" stroke="#666666" points="297.88,-30.5 170.88,-30.5 170.88,0 297.88,0 297.88,-30.5"/>
<text text-anchor="start" x="178.88" y="-17" font-family="Helvetica,sans-Serif" font-size="10.00">edu.wpi.first.wpilibj.Motor</text>
<text text-anchor="middle" x="234.38" y="-5.75" font-family="Helvetica,sans-Serif" font-size="10.00">Safety.stopMotor</text>
</a>
</g>
</g>
<!-- Node1&#45;&gt;Node11 -->
<g id="edge10_Node000001_Node000011" class="edge">
<title>Node1&#45;&gt;Node11</title>
<g id="a_edge10_Node000001_Node000011"><a xlink:title=" ">
<path fill="none" stroke="#63b8ff" d="M76.57,-121.68C93.69,-100.54 127,-62.8 163,-40.25 165.54,-38.66 168.19,-37.15 170.92,-35.73"/>
<polygon fill="#63b8ff" stroke="#63b8ff" points="172.15,-39.02 179.68,-31.57 169.15,-32.7 172.15,-39.02"/>
</a>
</g>
</g>
<!-- Node4 -->
<g id="Node000004" class="node">
<title>Node4</title>
<g id="a_Node000004"><a xlink:href="classedu_1_1wpi_1_1first_1_1wpilibj_1_1_robot_controller.html#a0768221aed0858ad185f14c8218300e0" target="_top" xlink:title=" ">
<polygon fill="white" stroke="#666666" points="470.25,-226.5 341.75,-226.5 341.75,-196 470.25,-196 470.25,-226.5"/>
<text text-anchor="start" x="349.75" y="-213" font-family="Helvetica,sans-Serif" font-size="10.00">edu.wpi.first.wpilibj.Robot</text>
<text text-anchor="middle" x="406" y="-201.75" font-family="Helvetica,sans-Serif" font-size="10.00">Controller.getFPGATime</text>
</a>
</g>
</g>
<!-- Node3&#45;&gt;Node4 -->
<g id="edge3_Node000003_Node000004" class="edge">
<title>Node3&#45;&gt;Node4</title>
<g id="a_edge3_Node000003_Node000004"><a xlink:title=" ">
<path fill="none" stroke="#63b8ff" d="M305.84,-211.25C313.82,-211.25 321.97,-211.25 330.01,-211.25"/>
<polygon fill="#63b8ff" stroke="#63b8ff" points="329.75,-214.75 339.75,-211.25 329.75,-207.75 329.75,-214.75"/>
</a>
</g>
</g>
<!-- Node6 -->
<g id="Node000006" class="node">
<title>Node6</title>
<g id="a_Node000006"><a xlink:href="classedu_1_1wpi_1_1first_1_1wpilibj_1_1_driver_station.html#ad7ae784e0490d0ef0ff101f6a714d53e" target="_top" xlink:title=" ">
<polygon fill="white" stroke="#666666" points="470.25,-177.5 341.75,-177.5 341.75,-147 470.25,-147 470.25,-177.5"/>
<text text-anchor="start" x="349.75" y="-164" font-family="Helvetica,sans-Serif" font-size="10.00">edu.wpi.first.wpilibj.Driver</text>
<text text-anchor="middle" x="406" y="-152.75" font-family="Helvetica,sans-Serif" font-size="10.00">Station.isDisabled</text>
</a>
</g>
</g>
<!-- Node5&#45;&gt;Node6 -->
<g id="edge5_Node000005_Node000006" class="edge">
<title>Node5&#45;&gt;Node6</title>
<g id="a_edge5_Node000005_Node000006"><a xlink:title=" ">
<path fill="none" stroke="#63b8ff" d="M299.02,-162.25C309.06,-162.25 319.52,-162.25 329.8,-162.25"/>
<polygon fill="#63b8ff" stroke="#63b8ff" points="329.77,-165.75 339.77,-162.25 329.77,-158.75 329.77,-165.75"/>
</a>
</g>
</g>
<!-- Node7 -->
<g id="Node000007" class="node">
<title>Node7</title>
<g id="a_Node000007"><a xlink:href="classedu_1_1wpi_1_1first_1_1wpilibj_1_1_driver_station.html#a044f245fea60eee064a80747499f63c8" target="_top" xlink:title=" ">
<polygon fill="white" stroke="#666666" points="634.75,-177.5 506.25,-177.5 506.25,-147 634.75,-147 634.75,-177.5"/>
<text text-anchor="start" x="514.25" y="-164" font-family="Helvetica,sans-Serif" font-size="10.00">edu.wpi.first.wpilibj.Driver</text>
<text text-anchor="middle" x="570.5" y="-152.75" font-family="Helvetica,sans-Serif" font-size="10.00">Station.isEnabled</text>
</a>
</g>
</g>
<!-- Node6&#45;&gt;Node7 -->
<g id="edge6_Node000006_Node000007" class="edge">
<title>Node6&#45;&gt;Node7</title>
<g id="a_edge6_Node000006_Node000007"><a xlink:title=" ">
<path fill="none" stroke="#63b8ff" d="M470.29,-162.25C478.23,-162.25 486.4,-162.25 494.49,-162.25"/>
<polygon fill="#63b8ff" stroke="#63b8ff" points="494.33,-165.75 504.33,-162.25 494.33,-158.75 494.33,-165.75"/>
</a>
</g>
</g>
<!-- Node9 -->
<g id="Node000009" class="node">
<title>Node9</title>
<g id="a_Node000009"><a xlink:href="classedu_1_1wpi_1_1first_1_1wpilibj_1_1_driver_station.html#a88bf3e48132744d9b49164cce3ee830a" target="_top" xlink:title=" ">
<polygon fill="white" stroke="#666666" points="470.25,-128.5 341.75,-128.5 341.75,-98 470.25,-98 470.25,-128.5"/>
<text text-anchor="start" x="349.75" y="-115" font-family="Helvetica,sans-Serif" font-size="10.00">edu.wpi.first.wpilibj.Driver</text>
<text text-anchor="middle" x="406" y="-103.75" font-family="Helvetica,sans-Serif" font-size="10.00">Station.isTest</text>
</a>
</g>
</g>
<!-- Node8&#45;&gt;Node9 -->
<g id="edge8_Node000008_Node000009" class="edge">
<title>Node8&#45;&gt;Node9</title>
<g id="a_edge8_Node000008_Node000009"><a xlink:title=" ">
<path fill="none" stroke="#63b8ff" d="M299.02,-113.25C309.06,-113.25 319.52,-113.25 329.8,-113.25"/>
<polygon fill="#63b8ff" stroke="#63b8ff" points="329.77,-116.75 339.77,-113.25 329.77,-109.75 329.77,-116.75"/>
</a>
</g>
</g>
</g>
</svg>

<g id="navigator" transform="translate(0 0)" fill="#404254">
  <rect fill="#f2f5e9" fill-opacity="0.5" stroke="#606060" stroke-width=".5" x="0" y="0" width="60" height="60"/>
  <use id="zoomplus" xlink:href="#zoomPlus" x="17" y="9" onmousedown="handleZoom(evt,'in')"/>
  <use id="zoomminus" xlink:href="#zoomMin" x="42" y="9" onmousedown="handleZoom(evt,'out')"/>
  <use id="reset" xlink:href="#resetDef" x="30" y="36" onmousedown="handleReset()"/>
   <use id="arrowup" xlink:href="#arrowUp" x="0" y="0" onmousedown="handlePan(0,-1)"/>
  <use id="arrowright" xlink:href="#arrowRight" x="0" y="0" onmousedown="handlePan(1,0)"/>
  <use id="arrowdown" xlink:href="#arrowDown" x="0" y="0" onmousedown="handlePan(0,1)"/>
  <use id="arrowleft" xlink:href="#arrowLeft" x="0" y="0" onmousedown="handlePan(-1,0)"/>
</g>
<svg viewBox="0 0 15 15" width="100%" height="30px" preserveAspectRatio="xMaxYMin meet">
 <g id="arrow_out" transform="scale(0.3 0.3)">
  <a xlink:href="classedu_1_1wpi_1_1first_1_1wpilibj_1_1_motor_safety_a378effe2109461036a883da6e4a86675_cgraph_org.svg" target="_base">
   <rect id="button" ry="5" rx="5" y="6" x="6" height="38" width="38"
        fill="#f2f5e9" fill-opacity="0.5" stroke="#606060" stroke-width="1.0"/>
   <path id="arrow"
     d="M 11.500037,31.436501 C 11.940474,20.09759 22.043105,11.32322 32.158766,21.979434 L 37.068811,17.246167 C 37.068811,17.246167 37.088388,32 37.088388,32 L 22.160133,31.978069 C 22.160133,31.978069 26.997745,27.140456 26.997745,27.140456 C 18.528582,18.264221 13.291696,25.230495 11.500037,31.436501 z"
     style="fill:#404040;"/>
  </a>
 </g>
</svg>

<style type='text/css'>
<![CDATA[
[data-mouse-over-selected='false'] { opacity: 0.7; }
[data-mouse-over-selected='true']  { opacity: 1.0; }
]]>
</style>
<script type="application/ecmascript"><![CDATA[
document.addEventListener('DOMContentLoaded', (event) => {
  highlightEdges();
  highlightAdjacentNodes();
});
]]></script>
</svg>
