<?xml version="1.0" encoding="UTF-8" standalone="no"?>
<!DOCTYPE svg PUBLIC "-//W3C//DTD SVG 1.1//EN"
 "http://www.w3.org/Graphics/SVG/1.1/DTD/svg11.dtd">
<!-- Generated by graphviz version 9.0.0 (20230911.1827)
 -->
<!-- Title: edu.wpi.first.wpilibj.AnalogEncoder.getAbsolutePosition Pages: 1 -->
<svg width="318pt" height="88pt"
 viewBox="0.00 0.00 317.50 87.50" xmlns="http://www.w3.org/2000/svg" xmlns:xlink="http://www.w3.org/1999/xlink">
<g id="graph0" class="graph" transform="scale(1 1) rotate(0) translate(4 83.5)">
<title>edu.wpi.first.wpilibj.AnalogEncoder.getAbsolutePosition</title>
<!-- Node1 -->
<g id="Node000001" class="node">
<title>Node1</title>
<g id="a_Node000001"><a xlink:title=" ">
<polygon fill="#999999" stroke="#666666" points="141.25,-54.5 0,-54.5 0,-24 141.25,-24 141.25,-54.5"/>
<text text-anchor="start" x="8" y="-41" font-family="Helvetica,sans-Serif" font-size="10.00">edu.wpi.first.wpilibj.Analog</text>
<text text-anchor="middle" x="70.62" y="-29.75" font-family="Helvetica,sans-Serif" font-size="10.00">Encoder.getAbsolutePosition</text>
</a>
</g>
</g>
<!-- Node2 -->
<g id="Node000002" class="node">
<title>Node2</title>
<g id="a_Node000002"><a xlink:href="classedu_1_1wpi_1_1first_1_1wpilibj_1_1_analog_input.html#a34009b33645836788a949e19754f5ee5" target="_top" xlink:title=" ">
<polygon fill="white" stroke="#666666" points="309.5,-79.5 177.25,-79.5 177.25,-49 309.5,-49 309.5,-79.5"/>
<text text-anchor="start" x="185.25" y="-66" font-family="Helvetica,sans-Serif" font-size="10.00">edu.wpi.first.wpilibj.Analog</text>
<text text-anchor="middle" x="243.38" y="-54.75" font-family="Helvetica,sans-Serif" font-size="10.00">Input.getVoltage</text>
</a>
</g>
</g>
<!-- Node1&#45;&gt;Node2 -->
<g id="edge1_Node000001_Node000002" class="edge">
<title>Node1&#45;&gt;Node2</title>
<g id="a_edge1_Node000001_Node000002"><a xlink:title=" ">
<path fill="none" stroke="#63b8ff" d="M141.57,-49.49C149.52,-50.65 157.65,-51.85 165.68,-53.02"/>
<polygon fill="#63b8ff" stroke="#63b8ff" points="165.04,-56.46 175.44,-54.45 166.05,-49.54 165.04,-56.46"/>
</a>
</g>
</g>
<!-- Node3 -->
<g id="Node000003" class="node">
<title>Node3</title>
<g id="a_Node000003"><a xlink:href="classedu_1_1wpi_1_1first_1_1wpilibj_1_1_robot_controller.html#a4d1cd6f0538d2795624514f8b0a3cfe6" target="_top" xlink:title=" ">
<polygon fill="white" stroke="#666666" points="307.62,-30.5 179.12,-30.5 179.12,0 307.62,0 307.62,-30.5"/>
<text text-anchor="start" x="187.12" y="-17" font-family="Helvetica,sans-Serif" font-size="10.00">edu.wpi.first.wpilibj.Robot</text>
<text text-anchor="middle" x="243.38" y="-5.75" font-family="Helvetica,sans-Serif" font-size="10.00">Controller.getVoltage5V</text>
</a>
</g>
</g>
<!-- Node1&#45;&gt;Node3 -->
<g id="edge2_Node000001_Node000003" class="edge">
<title>Node1&#45;&gt;Node3</title>
<g id="a_edge2_Node000001_Node000003"><a xlink:title=" ">
<path fill="none" stroke="#63b8ff" d="M141.57,-29.42C150.15,-28.21 158.95,-26.98 167.59,-25.76"/>
<polygon fill="#63b8ff" stroke="#63b8ff" points="167.93,-29.25 177.35,-24.39 166.96,-22.32 167.93,-29.25"/>
</a>
</g>
</g>
</g>
</svg>
