<?xml version="1.0" encoding="UTF-8" standalone="no"?>
<!DOCTYPE svg PUBLIC "-//W3C//DTD SVG 1.1//EN"
 "http://www.w3.org/Graphics/SVG/1.1/DTD/svg11.dtd">
<!-- Generated by graphviz version 9.0.0 (20230911.1827)
 -->
<!-- Title: edu.wpi.first.wpilibj.XboxController.getAButtonReleased Pages: 1 -->
<svg width="863pt" height="106pt"
 viewBox="0.00 0.00 862.75 105.50" xmlns="http://www.w3.org/2000/svg" xmlns:xlink="http://www.w3.org/1999/xlink">
<g id="graph0" class="graph" transform="scale(1 1) rotate(0) translate(4 101.5)">
<title>edu.wpi.first.wpilibj.XboxController.getAButtonReleased</title>
<!-- Node1 -->
<g id="Node000001" class="node">
<title>Node1</title>
<g id="a_Node000001"><a xlink:title=" ">
<polygon fill="#999999" stroke="#666666" points="150.25,-54.5 0,-54.5 0,-24 150.25,-24 150.25,-54.5"/>
<text text-anchor="start" x="8" y="-41" font-family="Helvetica,sans-Serif" font-size="10.00">edu.wpi.first.wpilibj.Xbox</text>
<text text-anchor="middle" x="75.12" y="-29.75" font-family="Helvetica,sans-Serif" font-size="10.00">Controller.getAButtonReleased</text>
</a>
</g>
</g>
<!-- Node2 -->
<g id="Node000002" class="node">
<title>Node2</title>
<g id="a_Node000002"><a xlink:href="classedu_1_1wpi_1_1first_1_1wpilibj_1_1_generic_h_i_d.html#a2087699248ada770e00ea78b91b8fd01" target="_top" xlink:title=" ">
<polygon fill="white" stroke="#666666" points="326.75,-54.5 186.25,-54.5 186.25,-24 326.75,-24 326.75,-54.5"/>
<text text-anchor="start" x="194.25" y="-41" font-family="Helvetica,sans-Serif" font-size="10.00">edu.wpi.first.wpilibj.Generic</text>
<text text-anchor="middle" x="256.5" y="-29.75" font-family="Helvetica,sans-Serif" font-size="10.00">HID.getRawButtonReleased</text>
</a>
</g>
</g>
<!-- Node1&#45;&gt;Node2 -->
<g id="edge1_Node000001_Node000002" class="edge">
<title>Node1&#45;&gt;Node2</title>
<g id="a_edge1_Node000001_Node000002"><a xlink:title=" ">
<path fill="none" stroke="#63b8ff" d="M150.64,-39.25C158.46,-39.25 166.45,-39.25 174.34,-39.25"/>
<polygon fill="#63b8ff" stroke="#63b8ff" points="174.3,-42.75 184.3,-39.25 174.3,-35.75 174.3,-42.75"/>
</a>
</g>
</g>
<!-- Node3 -->
<g id="Node000003" class="node">
<title>Node3</title>
<g id="a_Node000003"><a xlink:href="classedu_1_1wpi_1_1first_1_1wpilibj_1_1_generic_h_i_d.html#a77f3feaa9b70759aa7e26c20bec4bec2" target="_top" xlink:title=" ">
<polygon fill="white" stroke="#666666" points="508.5,-79.5 372.5,-79.5 372.5,-49 508.5,-49 508.5,-79.5"/>
<text text-anchor="start" x="380.5" y="-66" font-family="Helvetica,sans-Serif" font-size="10.00">edu.wpi.first.wpilibj.Generic</text>
<text text-anchor="middle" x="440.5" y="-54.75" font-family="Helvetica,sans-Serif" font-size="10.00">HID.button</text>
</a>
</g>
</g>
<!-- Node2&#45;&gt;Node3 -->
<g id="edge2_Node000002_Node000003" class="edge">
<title>Node2&#45;&gt;Node3</title>
<g id="a_edge2_Node000002_Node000003"><a xlink:title=" ">
<path fill="none" stroke="#63b8ff" d="M327.09,-48.81C338.15,-50.33 349.66,-51.91 360.91,-53.46"/>
<polygon fill="#63b8ff" stroke="#63b8ff" points="360.17,-56.89 370.56,-54.78 361.12,-49.95 360.17,-56.89"/>
</a>
</g>
</g>
<!-- Node6 -->
<g id="Node000006" class="node">
<title>Node6</title>
<g id="a_Node000006"><a xlink:href="classedu_1_1wpi_1_1first_1_1wpilibj_1_1_driver_station.html#af7d67c20055e6730e05c8ed4483ea79a" target="_top" xlink:title=" ">
<polygon fill="white" stroke="#666666" points="518.25,-30.5 362.75,-30.5 362.75,0 518.25,0 518.25,-30.5"/>
<text text-anchor="start" x="370.75" y="-17" font-family="Helvetica,sans-Serif" font-size="10.00">edu.wpi.first.wpilibj.Driver</text>
<text text-anchor="middle" x="440.5" y="-5.75" font-family="Helvetica,sans-Serif" font-size="10.00">Station.getStickButtonReleased</text>
</a>
</g>
</g>
<!-- Node2&#45;&gt;Node6 -->
<g id="edge7_Node000002_Node000006" class="edge">
<title>Node2&#45;&gt;Node6</title>
<g id="a_edge7_Node000002_Node000006"><a xlink:title=" ">
<path fill="none" stroke="#63b8ff" d="M327.09,-30.07C334.93,-29.04 343,-27.98 351.04,-26.92"/>
<polygon fill="#63b8ff" stroke="#63b8ff" points="351.41,-30.4 360.87,-25.62 350.49,-23.46 351.41,-30.4"/>
</a>
</g>
</g>
<!-- Node3&#45;&gt;Node3 -->
<g id="edge3_Node000003_Node000003" class="edge">
<title>Node3&#45;&gt;Node3</title>
<g id="a_edge3_Node000003_Node000003"><a xlink:title=" ">
<path fill="none" stroke="#63b8ff" d="M408.29,-79.99C401.72,-89.06 412.46,-97.5 440.5,-97.5 455.84,-97.5 466,-94.97 470.98,-91.2"/>
<polygon fill="#63b8ff" stroke="#63b8ff" points="474.41,-91.9 472.48,-81.48 467.5,-90.83 474.41,-91.9"/>
</a>
</g>
</g>
<!-- Node4 -->
<g id="Node000004" class="node">
<title>Node4</title>
<g id="a_Node000004"><a xlink:href="classedu_1_1wpi_1_1first_1_1wpilibj_1_1_generic_h_i_d.html#abdb0245e5cb7f7b92cc1060202821a2d" target="_top" xlink:title=" ">
<polygon fill="white" stroke="#666666" points="690.25,-79.5 554.25,-79.5 554.25,-49 690.25,-49 690.25,-79.5"/>
<text text-anchor="start" x="562.25" y="-66" font-family="Helvetica,sans-Serif" font-size="10.00">edu.wpi.first.wpilibj.Generic</text>
<text text-anchor="middle" x="622.25" y="-54.75" font-family="Helvetica,sans-Serif" font-size="10.00">HID.getRawButton</text>
</a>
</g>
</g>
<!-- Node3&#45;&gt;Node4 -->
<g id="edge4_Node000003_Node000004" class="edge">
<title>Node3&#45;&gt;Node4</title>
<g id="a_edge4_Node000003_Node000004"><a xlink:title=" ">
<path fill="none" stroke="#63b8ff" d="M508.94,-57.69C520,-57.5 531.54,-57.45 542.84,-57.55"/>
<polygon fill="#63b8ff" stroke="#63b8ff" points="542.47,-61.04 552.51,-57.67 542.56,-54.05 542.47,-61.04"/>
</a>
</g>
</g>
<!-- Node4&#45;&gt;Node3 -->
<g id="edge5_Node000004_Node000003" class="edge">
<title>Node4&#45;&gt;Node3</title>
<g id="a_edge5_Node000004_Node000003"><a xlink:title=" ">
<path fill="none" stroke="#63b8ff" d="M554.03,-70.81C542.97,-71 531.43,-71.05 520.14,-70.95"/>
<polygon fill="#63b8ff" stroke="#63b8ff" points="520.5,-67.46 510.46,-70.83 520.41,-74.46 520.5,-67.46"/>
</a>
</g>
</g>
<!-- Node5 -->
<g id="Node000005" class="node">
<title>Node5</title>
<g id="a_Node000005"><a xlink:href="classedu_1_1wpi_1_1first_1_1wpilibj_1_1_driver_station.html#a3d86d4b8414c05aafe18fc866d99ccab" target="_top" xlink:title=" ">
<polygon fill="white" stroke="#666666" points="854.75,-79.5 726.25,-79.5 726.25,-49 854.75,-49 854.75,-79.5"/>
<text text-anchor="start" x="734.25" y="-66" font-family="Helvetica,sans-Serif" font-size="10.00">edu.wpi.first.wpilibj.Driver</text>
<text text-anchor="middle" x="790.5" y="-54.75" font-family="Helvetica,sans-Serif" font-size="10.00">Station.getStickButton</text>
</a>
</g>
</g>
<!-- Node4&#45;&gt;Node5 -->
<g id="edge6_Node000004_Node000005" class="edge">
<title>Node4&#45;&gt;Node5</title>
<g id="a_edge6_Node000004_Node000005"><a xlink:title=" ">
<path fill="none" stroke="#63b8ff" d="M690.39,-64.25C698.35,-64.25 706.52,-64.25 714.58,-64.25"/>
<polygon fill="#63b8ff" stroke="#63b8ff" points="714.37,-67.75 724.37,-64.25 714.37,-60.75 714.37,-67.75"/>
</a>
</g>
</g>
</g>
</svg>
