<?xml version="1.0" encoding="UTF-8" standalone="no"?>
<!DOCTYPE svg PUBLIC "-//W3C//DTD SVG 1.1//EN"
 "http://www.w3.org/Graphics/SVG/1.1/DTD/svg11.dtd">
<!-- Generated by graphviz version 9.0.0 (20230911.1827)
 -->
<!-- Title: edu.wpi.first.wpilibj.GenericHID.getType Pages: 1 -->
<svg width="316pt" height="88pt"
 viewBox="0.00 0.00 316.00 87.50" xmlns="http://www.w3.org/2000/svg" xmlns:xlink="http://www.w3.org/1999/xlink">
<g id="graph0" class="graph" transform="scale(1 1) rotate(0) translate(4 83.5)">
<title>edu.wpi.first.wpilibj.GenericHID.getType</title>
<!-- Node1 -->
<g id="Node000001" class="node">
<title>Node1</title>
<g id="a_Node000001"><a xlink:title=" ">
<polygon fill="#999999" stroke="#666666" points="136,-54.5 0,-54.5 0,-24 136,-24 136,-54.5"/>
<text text-anchor="start" x="8" y="-41" font-family="Helvetica,sans-Serif" font-size="10.00">edu.wpi.first.wpilibj.Generic</text>
<text text-anchor="middle" x="68" y="-29.75" font-family="Helvetica,sans-Serif" font-size="10.00">HID.getType</text>
</a>
</g>
</g>
<!-- Node2 -->
<g id="Node000002" class="node">
<title>Node2</title>
<g id="a_Node000002"><a xlink:href="classedu_1_1wpi_1_1first_1_1wpilibj_1_1_driver_station.html#a4724abb4048681f7e3add07920a386ea" target="_top" xlink:title=" ">
<polygon fill="white" stroke="#666666" points="304.25,-79.5 175.75,-79.5 175.75,-49 304.25,-49 304.25,-79.5"/>
<text text-anchor="start" x="183.75" y="-66" font-family="Helvetica,sans-Serif" font-size="10.00">edu.wpi.first.wpilibj.Driver</text>
<text text-anchor="middle" x="240" y="-54.75" font-family="Helvetica,sans-Serif" font-size="10.00">Station.getJoystickType</text>
</a>
</g>
</g>
<!-- Node1&#45;&gt;Node2 -->
<g id="edge1_Node000001_Node000002" class="edge">
<title>Node1&#45;&gt;Node2</title>
<g id="a_edge1_Node000001_Node000002"><a xlink:title=" ">
<path fill="none" stroke="#63b8ff" d="M136.19,-49.13C145.36,-50.48 154.82,-51.87 164.12,-53.24"/>
<polygon fill="#63b8ff" stroke="#63b8ff" points="163.45,-56.68 173.85,-54.67 164.47,-49.75 163.45,-56.68"/>
</a>
</g>
</g>
<!-- Node3 -->
<g id="Node000003" class="node">
<title>Node3</title>
<g id="a_Node000003"><a xlink:href="enumedu_1_1wpi_1_1first_1_1wpilibj_1_1_generic_h_i_d_1_1_h_i_d_type.html#a4d111b5e4da1420875c624e343799b92" target="_top" xlink:title=" ">
<polygon fill="white" stroke="#666666" points="308,-30.5 172,-30.5 172,0 308,0 308,-30.5"/>
<text text-anchor="start" x="180" y="-17" font-family="Helvetica,sans-Serif" font-size="10.00">edu.wpi.first.wpilibj.Generic</text>
<text text-anchor="middle" x="240" y="-5.75" font-family="Helvetica,sans-Serif" font-size="10.00">HID.HIDType.of</text>
</a>
</g>
</g>
<!-- Node1&#45;&gt;Node3 -->
<g id="edge2_Node000001_Node000003" class="edge">
<title>Node1&#45;&gt;Node3</title>
<g id="a_edge2_Node000001_Node000003"><a xlink:title=" ">
<path fill="none" stroke="#63b8ff" d="M136.19,-29.76C144.14,-28.64 152.3,-27.49 160.39,-26.35"/>
<polygon fill="#63b8ff" stroke="#63b8ff" points="160.83,-29.82 170.24,-24.96 159.85,-22.89 160.83,-29.82"/>
</a>
</g>
</g>
</g>
</svg>
