<?xml version="1.0" encoding="UTF-8" standalone="no"?>
<!DOCTYPE svg PUBLIC "-//W3C//DTD SVG 1.1//EN"
 "http://www.w3.org/Graphics/SVG/1.1/DTD/svg11.dtd">
<!-- Generated by graphviz version 9.0.0 (20230911.1827)
 -->
<!-- Title: edu.wpi.first.wpilibj.XboxController.getRightStickButtonReleased Pages: 1 -->
<svg width="861pt" height="106pt"
 viewBox="0.00 0.00 860.50 105.50" xmlns="http://www.w3.org/2000/svg" xmlns:xlink="http://www.w3.org/1999/xlink">
<g id="graph0" class="graph" transform="scale(1 1) rotate(0) translate(4 101.5)">
<title>edu.wpi.first.wpilibj.XboxController.getRightStickButtonReleased</title>
<!-- Node1 -->
<g id="Node000001" class="node">
<title>Node1</title>
<g id="a_Node000001"><a xlink:title=" ">
<polygon fill="#999999" stroke="#666666" points="148,-60.12 0,-60.12 0,-18.38 148,-18.38 148,-60.12"/>
<text text-anchor="start" x="8" y="-46.62" font-family="Helvetica,sans-Serif" font-size="10.00">edu.wpi.first.wpilibj.Xbox</text>
<text text-anchor="start" x="8" y="-35.38" font-family="Helvetica,sans-Serif" font-size="10.00">Controller.getRightStickButton</text>
<text text-anchor="middle" x="74" y="-24.12" font-family="Helvetica,sans-Serif" font-size="10.00">Released</text>
</a>
</g>
</g>
<!-- Node2 -->
<g id="Node000002" class="node">
<title>Node2</title>
<g id="a_Node000002"><a xlink:href="classedu_1_1wpi_1_1first_1_1wpilibj_1_1_generic_h_i_d.html#a2087699248ada770e00ea78b91b8fd01" target="_top" xlink:title=" ">
<polygon fill="white" stroke="#666666" points="324.5,-54.5 184,-54.5 184,-24 324.5,-24 324.5,-54.5"/>
<text text-anchor="start" x="192" y="-41" font-family="Helvetica,sans-Serif" font-size="10.00">edu.wpi.first.wpilibj.Generic</text>
<text text-anchor="middle" x="254.25" y="-29.75" font-family="Helvetica,sans-Serif" font-size="10.00">HID.getRawButtonReleased</text>
</a>
</g>
</g>
<!-- Node1&#45;&gt;Node2 -->
<g id="edge1_Node000001_Node000002" class="edge">
<title>Node1&#45;&gt;Node2</title>
<g id="a_edge1_Node000001_Node000002"><a xlink:title=" ">
<path fill="none" stroke="#63b8ff" d="M148.27,-39.25C156.24,-39.25 164.37,-39.25 172.42,-39.25"/>
<polygon fill="#63b8ff" stroke="#63b8ff" points="172.19,-42.75 182.19,-39.25 172.19,-35.75 172.19,-42.75"/>
</a>
</g>
</g>
<!-- Node3 -->
<g id="Node000003" class="node">
<title>Node3</title>
<g id="a_Node000003"><a xlink:href="classedu_1_1wpi_1_1first_1_1wpilibj_1_1_generic_h_i_d.html#a77f3feaa9b70759aa7e26c20bec4bec2" target="_top" xlink:title=" ">
<polygon fill="white" stroke="#666666" points="506.25,-79.5 370.25,-79.5 370.25,-49 506.25,-49 506.25,-79.5"/>
<text text-anchor="start" x="378.25" y="-66" font-family="Helvetica,sans-Serif" font-size="10.00">edu.wpi.first.wpilibj.Generic</text>
<text text-anchor="middle" x="438.25" y="-54.75" font-family="Helvetica,sans-Serif" font-size="10.00">HID.button</text>
</a>
</g>
</g>
<!-- Node2&#45;&gt;Node3 -->
<g id="edge2_Node000002_Node000003" class="edge">
<title>Node2&#45;&gt;Node3</title>
<g id="a_edge2_Node000002_Node000003"><a xlink:title=" ">
<path fill="none" stroke="#63b8ff" d="M324.84,-48.81C335.9,-50.33 347.41,-51.91 358.66,-53.46"/>
<polygon fill="#63b8ff" stroke="#63b8ff" points="357.92,-56.89 368.31,-54.78 358.87,-49.95 357.92,-56.89"/>
</a>
</g>
</g>
<!-- Node6 -->
<g id="Node000006" class="node">
<title>Node6</title>
<g id="a_Node000006"><a xlink:href="classedu_1_1wpi_1_1first_1_1wpilibj_1_1_driver_station.html#af7d67c20055e6730e05c8ed4483ea79a" target="_top" xlink:title=" ">
<polygon fill="white" stroke="#666666" points="516,-30.5 360.5,-30.5 360.5,0 516,0 516,-30.5"/>
<text text-anchor="start" x="368.5" y="-17" font-family="Helvetica,sans-Serif" font-size="10.00">edu.wpi.first.wpilibj.Driver</text>
<text text-anchor="middle" x="438.25" y="-5.75" font-family="Helvetica,sans-Serif" font-size="10.00">Station.getStickButtonReleased</text>
</a>
</g>
</g>
<!-- Node2&#45;&gt;Node6 -->
<g id="edge7_Node000002_Node000006" class="edge">
<title>Node2&#45;&gt;Node6</title>
<g id="a_edge7_Node000002_Node000006"><a xlink:title=" ">
<path fill="none" stroke="#63b8ff" d="M324.84,-30.07C332.68,-29.04 340.75,-27.98 348.79,-26.92"/>
<polygon fill="#63b8ff" stroke="#63b8ff" points="349.16,-30.4 358.62,-25.62 348.24,-23.46 349.16,-30.4"/>
</a>
</g>
</g>
<!-- Node3&#45;&gt;Node3 -->
<g id="edge3_Node000003_Node000003" class="edge">
<title>Node3&#45;&gt;Node3</title>
<g id="a_edge3_Node000003_Node000003"><a xlink:title=" ">
<path fill="none" stroke="#63b8ff" d="M406.04,-79.99C399.47,-89.06 410.21,-97.5 438.25,-97.5 453.59,-97.5 463.75,-94.97 468.73,-91.2"/>
<polygon fill="#63b8ff" stroke="#63b8ff" points="472.16,-91.9 470.23,-81.48 465.25,-90.83 472.16,-91.9"/>
</a>
</g>
</g>
<!-- Node4 -->
<g id="Node000004" class="node">
<title>Node4</title>
<g id="a_Node000004"><a xlink:href="classedu_1_1wpi_1_1first_1_1wpilibj_1_1_generic_h_i_d.html#abdb0245e5cb7f7b92cc1060202821a2d" target="_top" xlink:title=" ">
<polygon fill="white" stroke="#666666" points="688,-79.5 552,-79.5 552,-49 688,-49 688,-79.5"/>
<text text-anchor="start" x="560" y="-66" font-family="Helvetica,sans-Serif" font-size="10.00">edu.wpi.first.wpilibj.Generic</text>
<text text-anchor="middle" x="620" y="-54.75" font-family="Helvetica,sans-Serif" font-size="10.00">HID.getRawButton</text>
</a>
</g>
</g>
<!-- Node3&#45;&gt;Node4 -->
<g id="edge4_Node000003_Node000004" class="edge">
<title>Node3&#45;&gt;Node4</title>
<g id="a_edge4_Node000003_Node000004"><a xlink:title=" ">
<path fill="none" stroke="#63b8ff" d="M506.69,-57.69C517.75,-57.5 529.29,-57.45 540.59,-57.55"/>
<polygon fill="#63b8ff" stroke="#63b8ff" points="540.22,-61.04 550.26,-57.67 540.31,-54.05 540.22,-61.04"/>
</a>
</g>
</g>
<!-- Node4&#45;&gt;Node3 -->
<g id="edge5_Node000004_Node000003" class="edge">
<title>Node4&#45;&gt;Node3</title>
<g id="a_edge5_Node000004_Node000003"><a xlink:title=" ">
<path fill="none" stroke="#63b8ff" d="M551.78,-70.81C540.72,-71 529.18,-71.05 517.89,-70.95"/>
<polygon fill="#63b8ff" stroke="#63b8ff" points="518.25,-67.46 508.21,-70.83 518.16,-74.46 518.25,-67.46"/>
</a>
</g>
</g>
<!-- Node5 -->
<g id="Node000005" class="node">
<title>Node5</title>
<g id="a_Node000005"><a xlink:href="classedu_1_1wpi_1_1first_1_1wpilibj_1_1_driver_station.html#a3d86d4b8414c05aafe18fc866d99ccab" target="_top" xlink:title=" ">
<polygon fill="white" stroke="#666666" points="852.5,-79.5 724,-79.5 724,-49 852.5,-49 852.5,-79.5"/>
<text text-anchor="start" x="732" y="-66" font-family="Helvetica,sans-Serif" font-size="10.00">edu.wpi.first.wpilibj.Driver</text>
<text text-anchor="middle" x="788.25" y="-54.75" font-family="Helvetica,sans-Serif" font-size="10.00">Station.getStickButton</text>
</a>
</g>
</g>
<!-- Node4&#45;&gt;Node5 -->
<g id="edge6_Node000004_Node000005" class="edge">
<title>Node4&#45;&gt;Node5</title>
<g id="a_edge6_Node000004_Node000005"><a xlink:title=" ">
<path fill="none" stroke="#63b8ff" d="M688.14,-64.25C696.1,-64.25 704.27,-64.25 712.33,-64.25"/>
<polygon fill="#63b8ff" stroke="#63b8ff" points="712.12,-67.75 722.12,-64.25 712.12,-60.75 712.12,-67.75"/>
</a>
</g>
</g>
</g>
</svg>
