<?xml version="1.0" encoding="UTF-8" standalone="no"?>
<!DOCTYPE svg PUBLIC "-//W3C//DTD SVG 1.1//EN"
 "http://www.w3.org/Graphics/SVG/1.1/DTD/svg11.dtd">
<!-- Generated by graphviz version 9.0.0 (20230911.1827)
 -->
<!-- Title: edu.wpi.first.wpilibj.DriverStation.isEnabled Pages: 1 -->
<svg width="629pt" height="161pt"
 viewBox="0.00 0.00 628.50 160.50" xmlns="http://www.w3.org/2000/svg" xmlns:xlink="http://www.w3.org/1999/xlink">
<g id="graph0" class="graph" transform="scale(1 1) rotate(0) translate(4 156.5)">
<title>edu.wpi.first.wpilibj.DriverStation.isEnabled</title>
<!-- Node1 -->
<g id="Node000001" class="node">
<title>Node1</title>
<g id="a_Node000001"><a xlink:title=" ">
<polygon fill="#999999" stroke="#666666" points="620.5,-79.5 492,-79.5 492,-49 620.5,-49 620.5,-79.5"/>
<text text-anchor="start" x="500" y="-66" font-family="Helvetica,sans-Serif" font-size="10.00">edu.wpi.first.wpilibj.Driver</text>
<text text-anchor="middle" x="556.25" y="-54.75" font-family="Helvetica,sans-Serif" font-size="10.00">Station.isEnabled</text>
</a>
</g>
</g>
<!-- Node2 -->
<g id="Node000002" class="node">
<title>Node2</title>
<g id="a_Node000002"><a xlink:href="classedu_1_1wpi_1_1first_1_1wpilibj_1_1_driver_station.html#ad7ae784e0490d0ef0ff101f6a714d53e" target="_top" xlink:title=" ">
<polygon fill="white" stroke="#666666" points="456,-128.5 327.5,-128.5 327.5,-98 456,-98 456,-128.5"/>
<text text-anchor="start" x="335.5" y="-115" font-family="Helvetica,sans-Serif" font-size="10.00">edu.wpi.first.wpilibj.Driver</text>
<text text-anchor="middle" x="391.75" y="-103.75" font-family="Helvetica,sans-Serif" font-size="10.00">Station.isDisabled</text>
</a>
</g>
</g>
<!-- Node1&#45;&gt;Node2 -->
<g id="edge1_Node000001_Node000002" class="edge">
<title>Node1&#45;&gt;Node2</title>
<g id="a_edge1_Node000001_Node000002"><a xlink:title=" ">
<path fill="none" stroke="#63b8ff" d="M492.66,-83.12C476.9,-87.87 460.15,-92.93 444.96,-97.51"/>
<polygon fill="#63b8ff" stroke="#63b8ff" points="493.37,-86.56 501.94,-80.33 491.35,-79.86 493.37,-86.56"/>
</a>
</g>
</g>
<!-- Node6 -->
<g id="Node000006" class="node">
<title>Node6</title>
<g id="a_Node000006"><a xlink:href="classedu_1_1wpi_1_1first_1_1wpilibj_1_1_robot_base.html#a4ca287e12cc9d24bfda70bc0b2534a4f" target="_top" xlink:title=" ">
<polygon fill="white" stroke="#666666" points="456,-79.5 327.5,-79.5 327.5,-49 456,-49 456,-79.5"/>
<text text-anchor="start" x="335.5" y="-66" font-family="Helvetica,sans-Serif" font-size="10.00">edu.wpi.first.wpilibj.Robot</text>
<text text-anchor="middle" x="391.75" y="-54.75" font-family="Helvetica,sans-Serif" font-size="10.00">Base.isEnabled</text>
</a>
</g>
</g>
<!-- Node1&#45;&gt;Node6 -->
<g id="edge5_Node000001_Node000006" class="edge">
<title>Node1&#45;&gt;Node6</title>
<g id="a_edge5_Node000001_Node000006"><a xlink:title=" ">
<path fill="none" stroke="#63b8ff" d="M480.61,-64.25C472.52,-64.25 464.35,-64.25 456.4,-64.25"/>
<polygon fill="#63b8ff" stroke="#63b8ff" points="480.44,-67.75 490.44,-64.25 480.44,-60.75 480.44,-67.75"/>
</a>
</g>
</g>
<!-- Node7 -->
<g id="Node000007" class="node">
<title>Node7</title>
<g id="a_Node000007"><a xlink:href="classedu_1_1wpi_1_1first_1_1wpilibj_1_1_robot_state.html#a24feb4373237cd0601a6c78619155533" target="_top" xlink:title=" ">
<polygon fill="white" stroke="#666666" points="456,-30.5 327.5,-30.5 327.5,0 456,0 456,-30.5"/>
<text text-anchor="start" x="335.5" y="-17" font-family="Helvetica,sans-Serif" font-size="10.00">edu.wpi.first.wpilibj.Robot</text>
<text text-anchor="middle" x="391.75" y="-5.75" font-family="Helvetica,sans-Serif" font-size="10.00">State.isEnabled</text>
</a>
</g>
</g>
<!-- Node1&#45;&gt;Node7 -->
<g id="edge6_Node000001_Node000007" class="edge">
<title>Node1&#45;&gt;Node7</title>
<g id="a_edge6_Node000001_Node000007"><a xlink:title=" ">
<path fill="none" stroke="#63b8ff" d="M492.66,-45.38C476.9,-40.63 460.15,-35.57 444.96,-30.99"/>
<polygon fill="#63b8ff" stroke="#63b8ff" points="491.35,-48.64 501.94,-48.17 493.37,-41.94 491.35,-48.64"/>
</a>
</g>
</g>
<!-- Node3 -->
<g id="Node000003" class="node">
<title>Node3</title>
<g id="a_Node000003"><a xlink:href="classedu_1_1wpi_1_1first_1_1wpilibj_1_1_robot_base.html#a0c11a30cb4d6d0a1c7ab4a369ac3da0f" target="_top" xlink:title=" ">
<polygon fill="white" stroke="#666666" points="291.5,-152.5 163,-152.5 163,-122 291.5,-122 291.5,-152.5"/>
<text text-anchor="start" x="171" y="-139" font-family="Helvetica,sans-Serif" font-size="10.00">edu.wpi.first.wpilibj.Robot</text>
<text text-anchor="middle" x="227.25" y="-127.75" font-family="Helvetica,sans-Serif" font-size="10.00">Base.isDisabled</text>
</a>
</g>
</g>
<!-- Node2&#45;&gt;Node3 -->
<g id="edge2_Node000002_Node000003" class="edge">
<title>Node2&#45;&gt;Node3</title>
<g id="a_edge2_Node000002_Node000003"><a xlink:title=" ">
<path fill="none" stroke="#63b8ff" d="M316.11,-124.27C308.02,-125.47 299.85,-126.68 291.9,-127.85"/>
<polygon fill="#63b8ff" stroke="#63b8ff" points="316.58,-127.74 325.96,-122.82 315.56,-120.82 316.58,-127.74"/>
</a>
</g>
</g>
<!-- Node4 -->
<g id="Node000004" class="node">
<title>Node4</title>
<g id="a_Node000004"><a xlink:href="classedu_1_1wpi_1_1first_1_1wpilibj_1_1_robot_state.html#a5cc47c279569fd01642aa152963f6223" target="_top" xlink:title=" ">
<polygon fill="white" stroke="#666666" points="291.5,-103.5 163,-103.5 163,-73 291.5,-73 291.5,-103.5"/>
<text text-anchor="start" x="171" y="-90" font-family="Helvetica,sans-Serif" font-size="10.00">edu.wpi.first.wpilibj.Robot</text>
<text text-anchor="middle" x="227.25" y="-78.75" font-family="Helvetica,sans-Serif" font-size="10.00">State.isDisabled</text>
</a>
</g>
</g>
<!-- Node2&#45;&gt;Node4 -->
<g id="edge3_Node000002_Node000004" class="edge">
<title>Node2&#45;&gt;Node4</title>
<g id="a_edge3_Node000002_Node000004"><a xlink:title=" ">
<path fill="none" stroke="#63b8ff" d="M316.11,-101.77C308.02,-100.52 299.85,-99.26 291.9,-98.04"/>
<polygon fill="#63b8ff" stroke="#63b8ff" points="315.55,-105.22 325.96,-103.28 316.61,-98.3 315.55,-105.22"/>
</a>
</g>
</g>
<!-- Node5 -->
<g id="Node000005" class="node">
<title>Node5</title>
<g id="a_Node000005"><a xlink:href="classedu_1_1wpi_1_1first_1_1wpilibj_1_1_motor_safety.html#a378effe2109461036a883da6e4a86675" target="_top" xlink:title=" ">
<polygon fill="white" stroke="#666666" points="127,-103.5 0,-103.5 0,-73 127,-73 127,-103.5"/>
<text text-anchor="start" x="8" y="-90" font-family="Helvetica,sans-Serif" font-size="10.00">edu.wpi.first.wpilibj.Motor</text>
<text text-anchor="middle" x="63.5" y="-78.75" font-family="Helvetica,sans-Serif" font-size="10.00">Safety.check</text>
</a>
</g>
</g>
<!-- Node4&#45;&gt;Node5 -->
<g id="edge4_Node000004_Node000005" class="edge">
<title>Node4&#45;&gt;Node5</title>
<g id="a_edge4_Node000004_Node000005"><a xlink:title=" ">
<path fill="none" stroke="#63b8ff" d="M151.44,-88.25C143.35,-88.25 135.18,-88.25 127.25,-88.25"/>
<polygon fill="#63b8ff" stroke="#63b8ff" points="151.27,-91.75 161.27,-88.25 151.27,-84.75 151.27,-91.75"/>
</a>
</g>
</g>
</g>
</svg>
