<?xml version="1.0" encoding="UTF-8" standalone="no"?>
<!DOCTYPE svg PUBLIC "-//W3C//DTD SVG 1.1//EN"
 "http://www.w3.org/Graphics/SVG/1.1/DTD/svg11.dtd">
<!-- Generated by graphviz version 9.0.0 (20230911.1827)
 -->
<!-- Title: edu.wpi.first.wpilibj.Joystick.getMagnitude Pages: 1 -->
<svg width="698pt" height="64pt"
 viewBox="0.00 0.00 698.25 64.25" xmlns="http://www.w3.org/2000/svg" xmlns:xlink="http://www.w3.org/1999/xlink">
<g id="graph0" class="graph" transform="scale(1 1) rotate(0) translate(4 60.25)">
<title>edu.wpi.first.wpilibj.Joystick.getMagnitude</title>
<!-- Node1 -->
<g id="Node000001" class="node">
<title>Node1</title>
<g id="a_Node000001"><a xlink:title=" ">
<polygon fill="#999999" stroke="#666666" points="155.5,-42.88 0,-42.88 0,-12.37 155.5,-12.37 155.5,-42.88"/>
<text text-anchor="start" x="8" y="-29.38" font-family="Helvetica,sans-Serif" font-size="10.00">edu.wpi.first.wpilibj.Joystick.get</text>
<text text-anchor="middle" x="77.75" y="-18.12" font-family="Helvetica,sans-Serif" font-size="10.00">Magnitude</text>
</a>
</g>
</g>
<!-- Node2 -->
<g id="Node000002" class="node">
<title>Node2</title>
<g id="a_Node000002"><a xlink:href="classedu_1_1wpi_1_1first_1_1wpilibj_1_1_joystick.html#a69e35d7f6fe88519ace564bc17775c91" target="_top" xlink:title=" ">
<polygon fill="white" stroke="#666666" points="353.75,-56.25 191.5,-56.25 191.5,-37 353.75,-37 353.75,-56.25"/>
<text text-anchor="middle" x="272.62" y="-42.75" font-family="Helvetica,sans-Serif" font-size="10.00">edu.wpi.first.wpilibj.Joystick.getX</text>
</a>
</g>
</g>
<!-- Node1&#45;&gt;Node2 -->
<g id="edge1_Node000001_Node000002" class="edge">
<title>Node1&#45;&gt;Node2</title>
<g id="a_edge1_Node000001_Node000002"><a xlink:title=" ">
<path fill="none" stroke="#63b8ff" d="M155.81,-35.22C163.73,-36 171.83,-36.79 179.88,-37.59"/>
<polygon fill="#63b8ff" stroke="#63b8ff" points="179.41,-41.06 189.71,-38.56 180.1,-34.09 179.41,-41.06"/>
</a>
</g>
</g>
<!-- Node5 -->
<g id="Node000005" class="node">
<title>Node5</title>
<g id="a_Node000005"><a xlink:href="classedu_1_1wpi_1_1first_1_1wpilibj_1_1_joystick.html#a297510a717aaf45989f34cda37d84d07" target="_top" xlink:title=" ">
<polygon fill="white" stroke="#666666" points="353.75,-19.25 191.5,-19.25 191.5,0 353.75,0 353.75,-19.25"/>
<text text-anchor="middle" x="272.62" y="-5.75" font-family="Helvetica,sans-Serif" font-size="10.00">edu.wpi.first.wpilibj.Joystick.getY</text>
</a>
</g>
</g>
<!-- Node1&#45;&gt;Node5 -->
<g id="edge4_Node000001_Node000005" class="edge">
<title>Node1&#45;&gt;Node5</title>
<g id="a_edge4_Node000001_Node000005"><a xlink:title=" ">
<path fill="none" stroke="#63b8ff" d="M155.81,-20.43C163.73,-19.69 171.83,-18.94 179.88,-18.19"/>
<polygon fill="#63b8ff" stroke="#63b8ff" points="180.08,-21.68 189.71,-17.27 179.42,-14.71 180.08,-21.68"/>
</a>
</g>
</g>
<!-- Node3 -->
<g id="Node000003" class="node">
<title>Node3</title>
<g id="a_Node000003"><a xlink:href="classedu_1_1wpi_1_1first_1_1wpilibj_1_1_generic_h_i_d.html#a561e13532e9305a057a3b02cc655833c" target="_top" xlink:title=" ">
<polygon fill="white" stroke="#666666" points="525.75,-42.88 389.75,-42.88 389.75,-12.37 525.75,-12.37 525.75,-42.88"/>
<text text-anchor="start" x="397.75" y="-29.38" font-family="Helvetica,sans-Serif" font-size="10.00">edu.wpi.first.wpilibj.Generic</text>
<text text-anchor="middle" x="457.75" y="-18.12" font-family="Helvetica,sans-Serif" font-size="10.00">HID.getRawAxis</text>
</a>
</g>
</g>
<!-- Node2&#45;&gt;Node3 -->
<g id="edge2_Node000002_Node000003" class="edge">
<title>Node2&#45;&gt;Node3</title>
<g id="a_edge2_Node000002_Node000003"><a xlink:title=" ">
<path fill="none" stroke="#63b8ff" d="M354.21,-38.26C362.08,-37.45 370.05,-36.62 377.9,-35.81"/>
<polygon fill="#63b8ff" stroke="#63b8ff" points="378.19,-39.29 387.78,-34.78 377.47,-32.33 378.19,-39.29"/>
</a>
</g>
</g>
<!-- Node4 -->
<g id="Node000004" class="node">
<title>Node4</title>
<g id="a_Node000004"><a xlink:href="classedu_1_1wpi_1_1first_1_1wpilibj_1_1_driver_station.html#af9606114345715ee1577c2b0c66a070c" target="_top" xlink:title=" ">
<polygon fill="white" stroke="#666666" points="690.25,-42.88 561.75,-42.88 561.75,-12.37 690.25,-12.37 690.25,-42.88"/>
<text text-anchor="start" x="569.75" y="-29.38" font-family="Helvetica,sans-Serif" font-size="10.00">edu.wpi.first.wpilibj.Driver</text>
<text text-anchor="middle" x="626" y="-18.12" font-family="Helvetica,sans-Serif" font-size="10.00">Station.getStickAxis</text>
</a>
</g>
</g>
<!-- Node3&#45;&gt;Node4 -->
<g id="edge3_Node000003_Node000004" class="edge">
<title>Node3&#45;&gt;Node4</title>
<g id="a_edge3_Node000003_Node000004"><a xlink:title=" ">
<path fill="none" stroke="#63b8ff" d="M525.89,-27.62C533.85,-27.62 542.02,-27.62 550.08,-27.62"/>
<polygon fill="#63b8ff" stroke="#63b8ff" points="549.87,-31.13 559.87,-27.63 549.87,-24.13 549.87,-31.13"/>
</a>
</g>
</g>
<!-- Node5&#45;&gt;Node3 -->
<g id="edge5_Node000005_Node000003" class="edge">
<title>Node5&#45;&gt;Node3</title>
<g id="a_edge5_Node000005_Node000003"><a xlink:title=" ">
<path fill="none" stroke="#63b8ff" d="M354.21,-17.55C362.08,-18.32 370.05,-19.1 377.9,-19.87"/>
<polygon fill="#63b8ff" stroke="#63b8ff" points="377.48,-23.35 387.78,-20.85 378.17,-16.38 377.48,-23.35"/>
</a>
</g>
</g>
</g>
</svg>
