<?xml version="1.0" encoding="UTF-8" standalone="no"?>
<!DOCTYPE svg PUBLIC "-//W3C//DTD SVG 1.1//EN"
 "http://www.w3.org/Graphics/SVG/1.1/DTD/svg11.dtd">
<!-- Generated by graphviz version 9.0.0 (20230911.1827)
 -->
<!-- Title: edu.wpi.first.wpilibj.IterativeRobotBase Pages: 1 -->
<svg width="159pt" height="149pt"
 viewBox="0.00 0.00 159.00 149.00" xmlns="http://www.w3.org/2000/svg" xmlns:xlink="http://www.w3.org/1999/xlink">
<g id="graph0" class="graph" transform="scale(1 1) rotate(0) translate(4 145)">
<title>edu.wpi.first.wpilibj.IterativeRobotBase</title>
<!-- Node1 -->
<g id="Node000001" class="node">
<title>Node1</title>
<g id="a_Node000001"><a xlink:title=" ">
<polygon fill="#999999" stroke="#666666" points="144.25,-30.5 6.75,-30.5 6.75,0 144.25,0 144.25,-30.5"/>
<text text-anchor="start" x="14.75" y="-17" font-family="Helvetica,sans-Serif" font-size="10.00">edu.wpi.first.wpilibj.Iterative</text>
<text text-anchor="middle" x="75.5" y="-5.75" font-family="Helvetica,sans-Serif" font-size="10.00">RobotBase</text>
</a>
</g>
</g>
<!-- Node2 -->
<g id="Node000002" class="node">
<title>Node2</title>
<g id="a_Node000002"><a xlink:href="classedu_1_1wpi_1_1first_1_1wpilibj_1_1_robot_base.html" target="_top" xlink:title=" ">
<polygon fill="white" stroke="#666666" points="151,-85.75 0,-85.75 0,-66.5 151,-66.5 151,-85.75"/>
<text text-anchor="middle" x="75.5" y="-72.25" font-family="Helvetica,sans-Serif" font-size="10.00">edu.wpi.first.wpilibj.RobotBase</text>
</a>
</g>
</g>
<!-- Node2&#45;&gt;Node1 -->
<g id="edge1_Node000001_Node000002" class="edge">
<title>Node2&#45;&gt;Node1</title>
<g id="a_edge1_Node000001_Node000002"><a xlink:title=" ">
<path fill="none" stroke="#63b8ff" d="M75.5,-54.92C75.5,-46.99 75.5,-38.06 75.5,-30.78"/>
<polygon fill="#63b8ff" stroke="#63b8ff" points="72,-54.67 75.5,-64.67 79,-54.67 72,-54.67"/>
</a>
</g>
</g>
<!-- Node3 -->
<g id="Node000003" class="node">
<title>Node3</title>
<g id="a_Node000003"><a xlink:title=" ">
<polygon fill="white" stroke="#bfbfbf" points="115.38,-141 35.62,-141 35.62,-121.75 115.38,-121.75 115.38,-141"/>
<text text-anchor="middle" x="75.5" y="-127.5" font-family="Helvetica,sans-Serif" font-size="10.00">AutoCloseable</text>
</a>
</g>
</g>
<!-- Node3&#45;&gt;Node2 -->
<g id="edge2_Node000002_Node000003" class="edge">
<title>Node3&#45;&gt;Node2</title>
<g id="a_edge2_Node000002_Node000003"><a xlink:title=" ">
<path fill="none" stroke="#63b8ff" d="M75.5,-110.13C75.5,-101.84 75.5,-92.67 75.5,-86.11"/>
<polygon fill="#63b8ff" stroke="#63b8ff" points="72,-110.07 75.5,-120.07 79,-110.07 72,-110.07"/>
</a>
</g>
</g>
</g>
</svg>
