<?xml version="1.0" encoding="UTF-8" standalone="no"?>
<!DOCTYPE svg PUBLIC "-//W3C//DTD SVG 1.1//EN"
 "http://www.w3.org/Graphics/SVG/1.1/DTD/svg11.dtd">
<!-- Generated by graphviz version 9.0.0 (20230911.1827)
 -->
<!-- Title: edu.wpi.first.wpilibj.DutyCycle.getOutput Pages: 1 -->
<svg width="493pt" height="88pt"
 viewBox="0.00 0.00 493.25 87.50" xmlns="http://www.w3.org/2000/svg" xmlns:xlink="http://www.w3.org/1999/xlink">
<g id="graph0" class="graph" transform="scale(1 1) rotate(0) translate(4 83.5)">
<title>edu.wpi.first.wpilibj.DutyCycle.getOutput</title>
<!-- Node1 -->
<g id="Node000001" class="node">
<title>Node1</title>
<g id="a_Node000001"><a xlink:title=" ">
<polygon fill="#999999" stroke="#666666" points="485.25,-54.5 362,-54.5 362,-24 485.25,-24 485.25,-54.5"/>
<text text-anchor="start" x="370" y="-41" font-family="Helvetica,sans-Serif" font-size="10.00">edu.wpi.first.wpilibj.Duty</text>
<text text-anchor="middle" x="423.62" y="-29.75" font-family="Helvetica,sans-Serif" font-size="10.00">Cycle.getOutput</text>
</a>
</g>
</g>
<!-- Node2 -->
<g id="Node000002" class="node">
<title>Node2</title>
<g id="a_Node000002"><a xlink:href="classedu_1_1wpi_1_1first_1_1wpilibj_1_1_duty_cycle_encoder.html#ab24797f370bd529bc495a0cb9de23596" target="_top" xlink:title=" ">
<polygon fill="white" stroke="#666666" points="304.25,-79.5 181,-79.5 181,-49 304.25,-49 304.25,-79.5"/>
<text text-anchor="start" x="189" y="-66" font-family="Helvetica,sans-Serif" font-size="10.00">edu.wpi.first.wpilibj.Duty</text>
<text text-anchor="middle" x="242.62" y="-54.75" font-family="Helvetica,sans-Serif" font-size="10.00">CycleEncoder.get</text>
</a>
</g>
</g>
<!-- Node1&#45;&gt;Node2 -->
<g id="edge1_Node000001_Node000002" class="edge">
<title>Node1&#45;&gt;Node2</title>
<g id="a_edge1_Node000001_Node000002"><a xlink:title=" ">
<path fill="none" stroke="#63b8ff" d="M350.55,-49.32C335.26,-51.45 319.27,-53.69 304.45,-55.75"/>
<polygon fill="#63b8ff" stroke="#63b8ff" points="350.61,-52.84 360.03,-47.99 349.64,-45.91 350.61,-52.84"/>
</a>
</g>
</g>
<!-- Node3 -->
<g id="Node000003" class="node">
<title>Node3</title>
<g id="a_Node000003"><a xlink:href="classedu_1_1wpi_1_1first_1_1wpilibj_1_1_duty_cycle_encoder.html#aa620b3832fbeb5ab36cfcf2cdc8bb860" target="_top" xlink:title=" ">
<polygon fill="white" stroke="#666666" points="326,-30.5 159.25,-30.5 159.25,0 326,0 326,-30.5"/>
<text text-anchor="start" x="167.25" y="-17" font-family="Helvetica,sans-Serif" font-size="10.00">edu.wpi.first.wpilibj.Duty</text>
<text text-anchor="middle" x="242.62" y="-5.75" font-family="Helvetica,sans-Serif" font-size="10.00">CycleEncoder.getAbsolutePosition</text>
</a>
</g>
</g>
<!-- Node1&#45;&gt;Node3 -->
<g id="edge2_Node000001_Node000003" class="edge">
<title>Node1&#45;&gt;Node3</title>
<g id="a_edge2_Node000001_Node000003"><a xlink:title=" ">
<path fill="none" stroke="#63b8ff" d="M350.17,-29.54C342.31,-28.48 334.27,-27.4 326.3,-26.33"/>
<polygon fill="#63b8ff" stroke="#63b8ff" points="349.65,-33 360.02,-30.86 350.58,-26.06 349.65,-33"/>
</a>
</g>
</g>
<!-- Node4 -->
<g id="Node000004" class="node">
<title>Node4</title>
<g id="a_Node000004"><a xlink:href="classedu_1_1wpi_1_1first_1_1wpilibj_1_1_duty_cycle_encoder.html#a67da0ba128c655086d4e40d7a71497cc" target="_top" xlink:title=" ">
<polygon fill="white" stroke="#666666" points="123.25,-30.5 0,-30.5 0,0 123.25,0 123.25,-30.5"/>
<text text-anchor="start" x="8" y="-17" font-family="Helvetica,sans-Serif" font-size="10.00">edu.wpi.first.wpilibj.Duty</text>
<text text-anchor="middle" x="61.62" y="-5.75" font-family="Helvetica,sans-Serif" font-size="10.00">CycleEncoder.reset</text>
</a>
</g>
</g>
<!-- Node3&#45;&gt;Node4 -->
<g id="edge3_Node000003_Node000004" class="edge">
<title>Node3&#45;&gt;Node4</title>
<g id="a_edge3_Node000003_Node000004"><a xlink:title=" ">
<path fill="none" stroke="#63b8ff" d="M147.47,-15.25C139.37,-15.25 131.31,-15.25 123.58,-15.25"/>
<polygon fill="#63b8ff" stroke="#63b8ff" points="147.42,-18.75 157.42,-15.25 147.42,-11.75 147.42,-18.75"/>
</a>
</g>
</g>
</g>
</svg>
