<?xml version="1.0" encoding="UTF-8" standalone="no"?>
<!DOCTYPE svg PUBLIC "-//W3C//DTD SVG 1.1//EN"
 "http://www.w3.org/Graphics/SVG/1.1/DTD/svg11.dtd">
<!-- Generated by graphviz version 9.0.0 (20230911.1827)
 -->
<!-- Title: edu.wpi.first.wpilibj.Joystick.getDirectionDegrees Pages: 1 -->
<svg width="890pt" height="64pt"
 viewBox="0.00 0.00 889.75 64.25" xmlns="http://www.w3.org/2000/svg" xmlns:xlink="http://www.w3.org/1999/xlink">
<g id="graph0" class="graph" transform="scale(1 1) rotate(0) translate(4 60.25)">
<title>edu.wpi.first.wpilibj.Joystick.getDirectionDegrees</title>
<!-- Node1 -->
<g id="Node000001" class="node">
<title>Node1</title>
<g id="a_Node000001"><a xlink:title=" ">
<polygon fill="#999999" stroke="#666666" points="155.5,-42.88 0,-42.88 0,-12.37 155.5,-12.37 155.5,-42.88"/>
<text text-anchor="start" x="8" y="-29.38" font-family="Helvetica,sans-Serif" font-size="10.00">edu.wpi.first.wpilibj.Joystick.get</text>
<text text-anchor="middle" x="77.75" y="-18.12" font-family="Helvetica,sans-Serif" font-size="10.00">DirectionDegrees</text>
</a>
</g>
</g>
<!-- Node2 -->
<g id="Node000002" class="node">
<title>Node2</title>
<g id="a_Node000002"><a xlink:href="classedu_1_1wpi_1_1first_1_1wpilibj_1_1_joystick.html#a24a5901175338bf04c92cd9502bf9f80" target="_top" xlink:title=" ">
<polygon fill="white" stroke="#666666" points="347,-42.88 191.5,-42.88 191.5,-12.37 347,-12.37 347,-42.88"/>
<text text-anchor="start" x="199.5" y="-29.38" font-family="Helvetica,sans-Serif" font-size="10.00">edu.wpi.first.wpilibj.Joystick.get</text>
<text text-anchor="middle" x="269.25" y="-18.12" font-family="Helvetica,sans-Serif" font-size="10.00">DirectionRadians</text>
</a>
</g>
</g>
<!-- Node1&#45;&gt;Node2 -->
<g id="edge1_Node000001_Node000002" class="edge">
<title>Node1&#45;&gt;Node2</title>
<g id="a_edge1_Node000001_Node000002"><a xlink:title=" ">
<path fill="none" stroke="#63b8ff" d="M155.83,-27.62C163.77,-27.62 171.88,-27.62 179.93,-27.62"/>
<polygon fill="#63b8ff" stroke="#63b8ff" points="179.73,-31.13 189.73,-27.63 179.73,-24.13 179.73,-31.13"/>
</a>
</g>
</g>
<!-- Node3 -->
<g id="Node000003" class="node">
<title>Node3</title>
<g id="a_Node000003"><a xlink:href="classedu_1_1wpi_1_1first_1_1wpilibj_1_1_joystick.html#a69e35d7f6fe88519ace564bc17775c91" target="_top" xlink:title=" ">
<polygon fill="white" stroke="#666666" points="545.25,-56.25 383,-56.25 383,-37 545.25,-37 545.25,-56.25"/>
<text text-anchor="middle" x="464.12" y="-42.75" font-family="Helvetica,sans-Serif" font-size="10.00">edu.wpi.first.wpilibj.Joystick.getX</text>
</a>
</g>
</g>
<!-- Node2&#45;&gt;Node3 -->
<g id="edge2_Node000002_Node000003" class="edge">
<title>Node2&#45;&gt;Node3</title>
<g id="a_edge2_Node000002_Node000003"><a xlink:title=" ">
<path fill="none" stroke="#63b8ff" d="M347.31,-35.22C355.23,-36 363.33,-36.79 371.38,-37.59"/>
<polygon fill="#63b8ff" stroke="#63b8ff" points="370.91,-41.06 381.21,-38.56 371.6,-34.09 370.91,-41.06"/>
</a>
</g>
</g>
<!-- Node6 -->
<g id="Node000006" class="node">
<title>Node6</title>
<g id="a_Node000006"><a xlink:href="classedu_1_1wpi_1_1first_1_1wpilibj_1_1_joystick.html#a297510a717aaf45989f34cda37d84d07" target="_top" xlink:title=" ">
<polygon fill="white" stroke="#666666" points="545.25,-19.25 383,-19.25 383,0 545.25,0 545.25,-19.25"/>
<text text-anchor="middle" x="464.12" y="-5.75" font-family="Helvetica,sans-Serif" font-size="10.00">edu.wpi.first.wpilibj.Joystick.getY</text>
</a>
</g>
</g>
<!-- Node2&#45;&gt;Node6 -->
<g id="edge5_Node000002_Node000006" class="edge">
<title>Node2&#45;&gt;Node6</title>
<g id="a_edge5_Node000002_Node000006"><a xlink:title=" ">
<path fill="none" stroke="#63b8ff" d="M347.31,-20.43C355.23,-19.69 363.33,-18.94 371.38,-18.19"/>
<polygon fill="#63b8ff" stroke="#63b8ff" points="371.58,-21.68 381.21,-17.27 370.92,-14.71 371.58,-21.68"/>
</a>
</g>
</g>
<!-- Node4 -->
<g id="Node000004" class="node">
<title>Node4</title>
<g id="a_Node000004"><a xlink:href="classedu_1_1wpi_1_1first_1_1wpilibj_1_1_generic_h_i_d.html#a561e13532e9305a057a3b02cc655833c" target="_top" xlink:title=" ">
<polygon fill="white" stroke="#666666" points="717.25,-42.88 581.25,-42.88 581.25,-12.37 717.25,-12.37 717.25,-42.88"/>
<text text-anchor="start" x="589.25" y="-29.38" font-family="Helvetica,sans-Serif" font-size="10.00">edu.wpi.first.wpilibj.Generic</text>
<text text-anchor="middle" x="649.25" y="-18.12" font-family="Helvetica,sans-Serif" font-size="10.00">HID.getRawAxis</text>
</a>
</g>
</g>
<!-- Node3&#45;&gt;Node4 -->
<g id="edge3_Node000003_Node000004" class="edge">
<title>Node3&#45;&gt;Node4</title>
<g id="a_edge3_Node000003_Node000004"><a xlink:title=" ">
<path fill="none" stroke="#63b8ff" d="M545.71,-38.26C553.58,-37.45 561.55,-36.62 569.4,-35.81"/>
<polygon fill="#63b8ff" stroke="#63b8ff" points="569.69,-39.29 579.28,-34.78 568.97,-32.33 569.69,-39.29"/>
</a>
</g>
</g>
<!-- Node5 -->
<g id="Node000005" class="node">
<title>Node5</title>
<g id="a_Node000005"><a xlink:href="classedu_1_1wpi_1_1first_1_1wpilibj_1_1_driver_station.html#af9606114345715ee1577c2b0c66a070c" target="_top" xlink:title=" ">
<polygon fill="white" stroke="#666666" points="881.75,-42.88 753.25,-42.88 753.25,-12.37 881.75,-12.37 881.75,-42.88"/>
<text text-anchor="start" x="761.25" y="-29.38" font-family="Helvetica,sans-Serif" font-size="10.00">edu.wpi.first.wpilibj.Driver</text>
<text text-anchor="middle" x="817.5" y="-18.12" font-family="Helvetica,sans-Serif" font-size="10.00">Station.getStickAxis</text>
</a>
</g>
</g>
<!-- Node4&#45;&gt;Node5 -->
<g id="edge4_Node000004_Node000005" class="edge">
<title>Node4&#45;&gt;Node5</title>
<g id="a_edge4_Node000004_Node000005"><a xlink:title=" ">
<path fill="none" stroke="#63b8ff" d="M717.39,-27.62C725.35,-27.62 733.52,-27.62 741.58,-27.62"/>
<polygon fill="#63b8ff" stroke="#63b8ff" points="741.37,-31.13 751.37,-27.63 741.37,-24.13 741.37,-31.13"/>
</a>
</g>
</g>
<!-- Node6&#45;&gt;Node4 -->
<g id="edge6_Node000006_Node000004" class="edge">
<title>Node6&#45;&gt;Node4</title>
<g id="a_edge6_Node000006_Node000004"><a xlink:title=" ">
<path fill="none" stroke="#63b8ff" d="M545.71,-17.55C553.58,-18.32 561.55,-19.1 569.4,-19.87"/>
<polygon fill="#63b8ff" stroke="#63b8ff" points="568.98,-23.35 579.28,-20.85 569.67,-16.38 568.98,-23.35"/>
</a>
</g>
</g>
</g>
</svg>
