<?xml version="1.0" encoding="UTF-8" standalone="no"?>
<!DOCTYPE svg PUBLIC "-//W3C//DTD SVG 1.1//EN"
 "http://www.w3.org/Graphics/SVG/1.1/DTD/svg11.dtd">
<!-- Generated by graphviz version 9.0.0 (20230911.1827)
 -->
<!-- Title: edu.wpi.first.wpilibj.simulation.DutyCycleSim.createForChannel Pages: 1 -->
<svg width="513pt" height="39pt"
 viewBox="0.00 0.00 512.75 38.50" xmlns="http://www.w3.org/2000/svg" xmlns:xlink="http://www.w3.org/1999/xlink">
<g id="graph0" class="graph" transform="scale(1 1) rotate(0) translate(4 34.5)">
<title>edu.wpi.first.wpilibj.simulation.DutyCycleSim.createForChannel</title>
<!-- Node1 -->
<g id="Node000001" class="node">
<title>Node1</title>
<g id="a_Node000001"><a xlink:title=" ">
<polygon fill="#999999" stroke="#666666" points="160,-30.5 0,-30.5 0,0 160,0 160,-30.5"/>
<text text-anchor="start" x="8" y="-17" font-family="Helvetica,sans-Serif" font-size="10.00">edu.wpi.first.wpilibj.simulation.</text>
<text text-anchor="middle" x="80" y="-5.75" font-family="Helvetica,sans-Serif" font-size="10.00">DutyCycleSim.createForChannel</text>
</a>
</g>
</g>
<!-- Node2 -->
<g id="Node000002" class="node">
<title>Node2</title>
<g id="a_Node000002"><a xlink:href="classedu_1_1wpi_1_1first_1_1wpilibj_1_1simulation_1_1_duty_cycle_sim.html#a22c962cf4aceae4a455ae5aa058cbb9b" target="_top" xlink:title=" ">
<polygon fill="white" stroke="#666666" points="345.5,-30.5 196,-30.5 196,0 345.5,0 345.5,-30.5"/>
<text text-anchor="start" x="204" y="-17" font-family="Helvetica,sans-Serif" font-size="10.00">edu.wpi.first.wpilibj.simulation.</text>
<text text-anchor="middle" x="270.75" y="-5.75" font-family="Helvetica,sans-Serif" font-size="10.00">DutyCycleSim.DutyCycleSim</text>
</a>
</g>
</g>
<!-- Node1&#45;&gt;Node2 -->
<g id="edge1_Node000001_Node000002" class="edge">
<title>Node1&#45;&gt;Node2</title>
<g id="a_edge1_Node000001_Node000002"><a xlink:title=" ">
<path fill="none" stroke="#63b8ff" d="M160.5,-15.25C168.35,-15.25 176.35,-15.25 184.25,-15.25"/>
<polygon fill="#63b8ff" stroke="#63b8ff" points="184.24,-18.75 194.24,-15.25 184.24,-11.75 184.24,-18.75"/>
</a>
</g>
</g>
<!-- Node3 -->
<g id="Node000003" class="node">
<title>Node3</title>
<g id="a_Node000003"><a xlink:href="classedu_1_1wpi_1_1first_1_1wpilibj_1_1_duty_cycle.html#a0b521e736fd024b5600b48ab09d37253" target="_top" xlink:title=" ">
<polygon fill="white" stroke="#666666" points="504.75,-30.5 381.5,-30.5 381.5,0 504.75,0 504.75,-30.5"/>
<text text-anchor="start" x="389.5" y="-17" font-family="Helvetica,sans-Serif" font-size="10.00">edu.wpi.first.wpilibj.Duty</text>
<text text-anchor="middle" x="443.12" y="-5.75" font-family="Helvetica,sans-Serif" font-size="10.00">Cycle.getFPGAIndex</text>
</a>
</g>
</g>
<!-- Node2&#45;&gt;Node3 -->
<g id="edge2_Node000002_Node000003" class="edge">
<title>Node2&#45;&gt;Node3</title>
<g id="a_edge2_Node000002_Node000003"><a xlink:title=" ">
<path fill="none" stroke="#63b8ff" d="M345.98,-15.25C353.88,-15.25 361.9,-15.25 369.77,-15.25"/>
<polygon fill="#63b8ff" stroke="#63b8ff" points="369.65,-18.75 379.65,-15.25 369.65,-11.75 369.65,-18.75"/>
</a>
</g>
</g>
</g>
</svg>
