<?xml version="1.0" encoding="UTF-8" standalone="no"?>
<!DOCTYPE svg PUBLIC "-//W3C//DTD SVG 1.1//EN"
 "http://www.w3.org/Graphics/SVG/1.1/DTD/svg11.dtd">
<!-- Generated by graphviz version 9.0.0 (20230911.1827)
 -->
<!-- Title: edu.wpi.first.wpilibj.TimedRobot.TimedRobot Pages: 1 -->
<svg width="481pt" height="88pt"
 viewBox="0.00 0.00 480.50 87.50" xmlns="http://www.w3.org/2000/svg" xmlns:xlink="http://www.w3.org/1999/xlink">
<g id="graph0" class="graph" transform="scale(1 1) rotate(0) translate(4 83.5)">
<title>edu.wpi.first.wpilibj.TimedRobot.TimedRobot</title>
<!-- Node1 -->
<g id="Node000001" class="node">
<title>Node1</title>
<g id="a_Node000001"><a xlink:title=" ">
<polygon fill="#999999" stroke="#666666" points="129.25,-54.5 0,-54.5 0,-24 129.25,-24 129.25,-54.5"/>
<text text-anchor="start" x="8" y="-41" font-family="Helvetica,sans-Serif" font-size="10.00">edu.wpi.first.wpilibj.Timed</text>
<text text-anchor="middle" x="64.62" y="-29.75" font-family="Helvetica,sans-Serif" font-size="10.00">Robot.TimedRobot</text>
</a>
</g>
</g>
<!-- Node2 -->
<g id="Node000002" class="node">
<title>Node2</title>
<g id="a_Node000002"><a xlink:href="classedu_1_1wpi_1_1first_1_1wpilibj_1_1_timed_robot.html#a171fc2598914dd5e73dedf413c14c881" target="_top" xlink:title=" ">
<polygon fill="white" stroke="#666666" points="301.25,-79.5 172,-79.5 172,-49 301.25,-49 301.25,-79.5"/>
<text text-anchor="start" x="180" y="-66" font-family="Helvetica,sans-Serif" font-size="10.00">edu.wpi.first.wpilibj.Timed</text>
<text text-anchor="middle" x="236.62" y="-54.75" font-family="Helvetica,sans-Serif" font-size="10.00">Robot.addPeriodic</text>
</a>
</g>
</g>
<!-- Node1&#45;&gt;Node2 -->
<g id="edge1_Node000001_Node000002" class="edge">
<title>Node1&#45;&gt;Node2</title>
<g id="a_edge1_Node000001_Node000002"><a xlink:title=" ">
<path fill="none" stroke="#63b8ff" d="M129.41,-48.63C139.58,-50.13 150.18,-51.69 160.59,-53.21"/>
<polygon fill="#63b8ff" stroke="#63b8ff" points="159.86,-56.65 170.27,-54.64 160.88,-49.72 159.86,-56.65"/>
</a>
</g>
</g>
<!-- Node3 -->
<g id="Node000003" class="node">
<title>Node3</title>
<g id="a_Node000003"><a xlink:href="classedu_1_1wpi_1_1first_1_1wpilibj_1_1_timer.html#a554f331c3b4645ee279bab8974cf21af" target="_top" xlink:title=" ">
<polygon fill="white" stroke="#666666" points="308,-30.5 165.25,-30.5 165.25,0 308,0 308,-30.5"/>
<text text-anchor="start" x="173.25" y="-17" font-family="Helvetica,sans-Serif" font-size="10.00">edu.wpi.first.wpilibj.Timer.get</text>
<text text-anchor="middle" x="236.62" y="-5.75" font-family="Helvetica,sans-Serif" font-size="10.00">FPGATimestamp</text>
</a>
</g>
</g>
<!-- Node1&#45;&gt;Node3 -->
<g id="edge2_Node000001_Node000003" class="edge">
<title>Node1&#45;&gt;Node3</title>
<g id="a_edge2_Node000001_Node000003"><a xlink:title=" ">
<path fill="none" stroke="#63b8ff" d="M129.41,-30.25C137.29,-29.13 145.42,-27.98 153.52,-26.84"/>
<polygon fill="#63b8ff" stroke="#63b8ff" points="154.01,-30.31 163.42,-25.44 153.03,-23.38 154.01,-30.31"/>
</a>
</g>
</g>
<!-- Node4 -->
<g id="Node000004" class="node">
<title>Node4</title>
<g id="a_Node000004"><a xlink:href="classedu_1_1wpi_1_1first_1_1wpilibj_1_1_robot_controller.html#a0768221aed0858ad185f14c8218300e0" target="_top" xlink:title=" ">
<polygon fill="white" stroke="#666666" points="472.5,-30.5 344,-30.5 344,0 472.5,0 472.5,-30.5"/>
<text text-anchor="start" x="352" y="-17" font-family="Helvetica,sans-Serif" font-size="10.00">edu.wpi.first.wpilibj.Robot</text>
<text text-anchor="middle" x="408.25" y="-5.75" font-family="Helvetica,sans-Serif" font-size="10.00">Controller.getFPGATime</text>
</a>
</g>
</g>
<!-- Node3&#45;&gt;Node4 -->
<g id="edge3_Node000003_Node000004" class="edge">
<title>Node3&#45;&gt;Node4</title>
<g id="a_edge3_Node000003_Node000004"><a xlink:title=" ">
<path fill="none" stroke="#63b8ff" d="M308.09,-15.25C316.07,-15.25 324.22,-15.25 332.26,-15.25"/>
<polygon fill="#63b8ff" stroke="#63b8ff" points="332,-18.75 342,-15.25 332,-11.75 332,-18.75"/>
</a>
</g>
</g>
</g>
</svg>
