<?xml version="1.0" encoding="UTF-8" standalone="no"?>
<!DOCTYPE svg PUBLIC "-//W3C//DTD SVG 1.1//EN"
 "http://www.w3.org/Graphics/SVG/1.1/DTD/svg11.dtd">
<!-- Generated by graphviz version 9.0.0 (20230911.1827)
 -->
<!-- Title: edu.wpi.first.wpilibj.DriverStation.isAutonomous Pages: 1 -->
<svg width="466pt" height="161pt"
 viewBox="0.00 0.00 465.50 160.50" xmlns="http://www.w3.org/2000/svg" xmlns:xlink="http://www.w3.org/1999/xlink">

<svg id="main" version="1.1" xmlns="http://www.w3.org/2000/svg" xmlns:xlink="http://www.w3.org/1999/xlink" xml:space="preserve" onload="init(evt)">
<style type="text/css"><![CDATA[
.node, .edge {opacity: 0.7;}
.node.selected, .edge.selected {opacity: 1;}
.edge:hover path { stroke: red; }
.edge:hover polygon { stroke: red; fill: red; }
]]></style>
<script type="application/ecmascript" xlink:href="svg.min.js"/>
<svg id="graph" class="graph">
<g id="graph0" class="graph" transform="scale(1 1) rotate(0) translate(4 156.5)">
<title>edu.wpi.first.wpilibj.DriverStation.isAutonomous</title>
<!-- Node1 -->
<g id="Node000001" class="node">
<title>Node1</title>
<g id="a_Node000001"><a xlink:title=" ">
<polygon fill="#999999" stroke="#666666" points="457.5,-103.5 329,-103.5 329,-73 457.5,-73 457.5,-103.5"/>
<text text-anchor="start" x="337" y="-90" font-family="Helvetica,sans-Serif" font-size="10.00">edu.wpi.first.wpilibj.Driver</text>
<text text-anchor="middle" x="393.25" y="-78.75" font-family="Helvetica,sans-Serif" font-size="10.00">Station.isAutonomous</text>
</a>
</g>
</g>
<!-- Node2 -->
<g id="Node000002" class="node">
<title>Node2</title>
<g id="a_Node000002"><a xlink:href="classedu_1_1wpi_1_1first_1_1wpilibj_1_1_robot_base.html#a685ca04fe69821f1982215f89570d6e5" target="_top" xlink:title=" ">
<polygon fill="white" stroke="#666666" points="293,-152.5 164.5,-152.5 164.5,-122 293,-122 293,-152.5"/>
<text text-anchor="start" x="172.5" y="-139" font-family="Helvetica,sans-Serif" font-size="10.00">edu.wpi.first.wpilibj.Robot</text>
<text text-anchor="middle" x="228.75" y="-127.75" font-family="Helvetica,sans-Serif" font-size="10.00">Base.isAutonomous</text>
</a>
</g>
</g>
<!-- Node1&#45;&gt;Node2 -->
<g id="edge1_Node000001_Node000002" class="edge">
<title>Node1&#45;&gt;Node2</title>
<g id="a_edge1_Node000001_Node000002"><a xlink:title=" ">
<path fill="none" stroke="#63b8ff" d="M329.66,-107.12C313.9,-111.87 297.15,-116.93 281.96,-121.51"/>
<polygon fill="#63b8ff" stroke="#63b8ff" points="330.37,-110.56 338.94,-104.33 328.35,-103.86 330.37,-110.56"/>
</a>
</g>
</g>
<!-- Node3 -->
<g id="Node000003" class="node">
<title>Node3</title>
<g id="a_Node000003"><a xlink:href="classedu_1_1wpi_1_1first_1_1wpilibj_1_1_robot_state.html#afa1c99026e26cab1a9ddbb8af34d2f91" target="_top" xlink:title=" ">
<polygon fill="white" stroke="#666666" points="293,-103.5 164.5,-103.5 164.5,-73 293,-73 293,-103.5"/>
<text text-anchor="start" x="172.5" y="-90" font-family="Helvetica,sans-Serif" font-size="10.00">edu.wpi.first.wpilibj.Robot</text>
<text text-anchor="middle" x="228.75" y="-78.75" font-family="Helvetica,sans-Serif" font-size="10.00">State.isAutonomous</text>
</a>
</g>
</g>
<!-- Node1&#45;&gt;Node3 -->
<g id="edge2_Node000001_Node000003" class="edge">
<title>Node1&#45;&gt;Node3</title>
<g id="a_edge2_Node000001_Node000003"><a xlink:title=" ">
<path fill="none" stroke="#63b8ff" d="M317.61,-88.25C309.52,-88.25 301.35,-88.25 293.4,-88.25"/>
<polygon fill="#63b8ff" stroke="#63b8ff" points="317.44,-91.75 327.44,-88.25 317.44,-84.75 317.44,-91.75"/>
</a>
</g>
</g>
<!-- Node4 -->
<g id="Node000004" class="node">
<title>Node4</title>
<g id="a_Node000004"><a xlink:href="classedu_1_1wpi_1_1first_1_1wpilibj_1_1_driver_station.html#a10f02d92c84e969b02bcbbeca9071afc" target="_top" xlink:title=" ">
<polygon fill="white" stroke="#666666" points="293,-54.5 164.5,-54.5 164.5,-24 293,-24 293,-54.5"/>
<text text-anchor="start" x="172.5" y="-41" font-family="Helvetica,sans-Serif" font-size="10.00">edu.wpi.first.wpilibj.Driver</text>
<text text-anchor="middle" x="228.75" y="-29.75" font-family="Helvetica,sans-Serif" font-size="10.00">Station.isTeleop</text>
</a>
</g>
</g>
<!-- Node1&#45;&gt;Node4 -->
<g id="edge3_Node000001_Node000004" class="edge">
<title>Node1&#45;&gt;Node4</title>
<g id="a_edge3_Node000001_Node000004"><a xlink:title=" ">
<path fill="none" stroke="#63b8ff" d="M329.66,-69.38C313.9,-64.63 297.15,-59.57 281.96,-54.99"/>
<polygon fill="#63b8ff" stroke="#63b8ff" points="328.35,-72.64 338.94,-72.17 330.37,-65.94 328.35,-72.64"/>
</a>
</g>
</g>
<!-- Node5 -->
<g id="Node000005" class="node">
<title>Node5</title>
<g id="a_Node000005"><a xlink:href="classedu_1_1wpi_1_1first_1_1wpilibj_1_1_robot_base.html#aaf62daecd479b93c610615fd4f6bfb20" target="_top" xlink:title=" ">
<polygon fill="white" stroke="#666666" points="128.5,-79.5 0,-79.5 0,-49 128.5,-49 128.5,-79.5"/>
<text text-anchor="start" x="8" y="-66" font-family="Helvetica,sans-Serif" font-size="10.00">edu.wpi.first.wpilibj.Robot</text>
<text text-anchor="middle" x="64.25" y="-54.75" font-family="Helvetica,sans-Serif" font-size="10.00">Base.isTeleop</text>
</a>
</g>
</g>
<!-- Node4&#45;&gt;Node5 -->
<g id="edge4_Node000004_Node000005" class="edge">
<title>Node4&#45;&gt;Node5</title>
<g id="a_edge4_Node000004_Node000005"><a xlink:title=" ">
<path fill="none" stroke="#63b8ff" d="M153.11,-50.73C145.02,-51.98 136.85,-53.24 128.9,-54.46"/>
<polygon fill="#63b8ff" stroke="#63b8ff" points="153.61,-54.2 162.96,-49.22 152.55,-47.28 153.61,-54.2"/>
</a>
</g>
</g>
<!-- Node6 -->
<g id="Node000006" class="node">
<title>Node6</title>
<g id="a_Node000006"><a xlink:href="classedu_1_1wpi_1_1first_1_1wpilibj_1_1_robot_state.html#ae53594ba97e60f893c266bf7881dcee2" target="_top" xlink:title=" ">
<polygon fill="white" stroke="#666666" points="128.5,-30.5 0,-30.5 0,0 128.5,0 128.5,-30.5"/>
<text text-anchor="start" x="8" y="-17" font-family="Helvetica,sans-Serif" font-size="10.00">edu.wpi.first.wpilibj.Robot</text>
<text text-anchor="middle" x="64.25" y="-5.75" font-family="Helvetica,sans-Serif" font-size="10.00">State.isTeleop</text>
</a>
</g>
</g>
<!-- Node4&#45;&gt;Node6 -->
<g id="edge5_Node000004_Node000006" class="edge">
<title>Node4&#45;&gt;Node6</title>
<g id="a_edge5_Node000004_Node000006"><a xlink:title=" ">
<path fill="none" stroke="#63b8ff" d="M153.11,-28.23C145.02,-27.03 136.85,-25.82 128.9,-24.65"/>
<polygon fill="#63b8ff" stroke="#63b8ff" points="152.56,-31.68 162.96,-29.68 153.58,-24.76 152.56,-31.68"/>
</a>
</g>
</g>
</g>
</svg>
</svg>

<style type='text/css'>
<![CDATA[
[data-mouse-over-selected='false'] { opacity: 0.7; }
[data-mouse-over-selected='true']  { opacity: 1.0; }
]]>
</style>
<script type="application/ecmascript"><![CDATA[
document.addEventListener('DOMContentLoaded', (event) => {
  highlightEdges();
  highlightAdjacentNodes();
});
]]></script>
</svg>
