<?xml version="1.0" encoding="UTF-8" standalone="no"?>
<!DOCTYPE svg PUBLIC "-//W3C//DTD SVG 1.1//EN"
 "http://www.w3.org/Graphics/SVG/1.1/DTD/svg11.dtd">
<!-- Generated by graphviz version 9.0.0 (20230911.1827)
 -->
<!-- Title: edu.wpi.first.wpilibj.sysid.SysIdRoutineLog.MotorLog.current Pages: 1 -->
<svg width="691pt" height="57pt"
 viewBox="0.00 0.00 690.75 56.50" xmlns="http://www.w3.org/2000/svg" xmlns:xlink="http://www.w3.org/1999/xlink">
<g id="graph0" class="graph" transform="scale(1 1) rotate(0) translate(4 52.5)">
<title>edu.wpi.first.wpilibj.sysid.SysIdRoutineLog.MotorLog.current</title>
<!-- Node1 -->
<g id="Node000001" class="node">
<title>Node1</title>
<g id="a_Node000001"><a xlink:title=" ">
<polygon fill="#999999" stroke="#666666" points="167.5,-30.5 0,-30.5 0,0 167.5,0 167.5,-30.5"/>
<text text-anchor="start" x="8" y="-17" font-family="Helvetica,sans-Serif" font-size="10.00">edu.wpi.first.wpilibj.sysid.</text>
<text text-anchor="middle" x="83.75" y="-5.75" font-family="Helvetica,sans-Serif" font-size="10.00">SysIdRoutineLog.MotorLog.current</text>
</a>
</g>
</g>
<!-- Node1&#45;&gt;Node1 -->
<g id="edge1_Node000001_Node000001" class="edge">
<title>Node1&#45;&gt;Node1</title>
<g id="a_edge1_Node000001_Node000001"><a xlink:title=" ">
<path fill="none" stroke="#63b8ff" d="M48.29,-30.99C41.05,-40.06 52.87,-48.5 83.75,-48.5 100.64,-48.5 111.82,-45.97 117.31,-42.2"/>
<polygon fill="#63b8ff" stroke="#63b8ff" points="120.74,-42.92 118.96,-32.48 113.84,-41.75 120.74,-42.92"/>
</a>
</g>
</g>
<!-- Node2 -->
<g id="Node000002" class="node">
<title>Node2</title>
<g id="a_Node000002"><a xlink:href="classedu_1_1wpi_1_1first_1_1wpilibj_1_1sysid_1_1_sys_id_routine_log_1_1_motor_log.html#ad94eb9190fc67490eccef94c66e57796" target="_top" xlink:title=" ">
<polygon fill="white" stroke="#666666" points="364.25,-30.5 203.5,-30.5 203.5,0 364.25,0 364.25,-30.5"/>
<text text-anchor="start" x="211.5" y="-17" font-family="Helvetica,sans-Serif" font-size="10.00">edu.wpi.first.wpilibj.sysid.</text>
<text text-anchor="middle" x="283.88" y="-5.75" font-family="Helvetica,sans-Serif" font-size="10.00">SysIdRoutineLog.MotorLog.value</text>
</a>
</g>
</g>
<!-- Node1&#45;&gt;Node2 -->
<g id="edge2_Node000001_Node000002" class="edge">
<title>Node1&#45;&gt;Node2</title>
<g id="a_edge2_Node000001_Node000002"><a xlink:title=" ">
<path fill="none" stroke="#63b8ff" d="M167.91,-15.25C175.74,-15.25 183.7,-15.25 191.6,-15.25"/>
<polygon fill="#63b8ff" stroke="#63b8ff" points="191.58,-18.75 201.58,-15.25 191.58,-11.75 191.58,-18.75"/>
</a>
</g>
</g>
<!-- Node2&#45;&gt;Node2 -->
<g id="edge6_Node000002_Node000002" class="edge">
<title>Node2&#45;&gt;Node2</title>
<g id="a_edge6_Node000002_Node000002"><a xlink:title=" ">
<path fill="none" stroke="#63b8ff" d="M252.33,-30.99C245.9,-40.06 256.41,-48.5 283.88,-48.5 298.89,-48.5 308.85,-45.97 313.73,-42.2"/>
<polygon fill="#63b8ff" stroke="#63b8ff" points="317.16,-42.89 315.19,-32.48 310.24,-41.85 317.16,-42.89"/>
</a>
</g>
</g>
<!-- Node3 -->
<g id="Node000003" class="node">
<title>Node3</title>
<g id="a_Node000003"><a xlink:href="classedu_1_1wpi_1_1first_1_1wpilibj_1_1_data_log_manager.html#a4a1da47a520115917eaad1cb82a6e667" target="_top" xlink:title=" ">
<polygon fill="white" stroke="#666666" points="523.5,-30.5 400.25,-30.5 400.25,0 523.5,0 523.5,-30.5"/>
<text text-anchor="start" x="408.25" y="-17" font-family="Helvetica,sans-Serif" font-size="10.00">edu.wpi.first.wpilibj.Data</text>
<text text-anchor="middle" x="461.88" y="-5.75" font-family="Helvetica,sans-Serif" font-size="10.00">LogManager.getLog</text>
</a>
</g>
</g>
<!-- Node2&#45;&gt;Node3 -->
<g id="edge3_Node000002_Node000003" class="edge">
<title>Node2&#45;&gt;Node3</title>
<g id="a_edge3_Node000002_Node000003"><a xlink:title=" ">
<path fill="none" stroke="#63b8ff" d="M364.64,-15.25C372.58,-15.25 380.61,-15.25 388.48,-15.25"/>
<polygon fill="#63b8ff" stroke="#63b8ff" points="388.33,-18.75 398.33,-15.25 388.33,-11.75 388.33,-18.75"/>
</a>
</g>
</g>
<!-- Node4 -->
<g id="Node000004" class="node">
<title>Node4</title>
<g id="a_Node000004"><a xlink:href="classedu_1_1wpi_1_1first_1_1wpilibj_1_1_data_log_manager.html#abc3578ab5f29ed2c259cc53b594f39c6" target="_top" xlink:title=" ">
<polygon fill="white" stroke="#666666" points="682.75,-30.5 559.5,-30.5 559.5,0 682.75,0 682.75,-30.5"/>
<text text-anchor="start" x="567.5" y="-17" font-family="Helvetica,sans-Serif" font-size="10.00">edu.wpi.first.wpilibj.Data</text>
<text text-anchor="middle" x="621.12" y="-5.75" font-family="Helvetica,sans-Serif" font-size="10.00">LogManager.start</text>
</a>
</g>
</g>
<!-- Node3&#45;&gt;Node4 -->
<g id="edge4_Node000003_Node000004" class="edge">
<title>Node3&#45;&gt;Node4</title>
<g id="a_edge4_Node000003_Node000004"><a xlink:title=" ">
<path fill="none" stroke="#63b8ff" d="M523.67,-15.25C531.6,-15.25 539.79,-15.25 547.88,-15.25"/>
<polygon fill="#63b8ff" stroke="#63b8ff" points="547.72,-18.75 557.72,-15.25 547.72,-11.75 547.72,-18.75"/>
</a>
</g>
</g>
<!-- Node4&#45;&gt;Node4 -->
<g id="edge5_Node000004_Node000004" class="edge">
<title>Node4&#45;&gt;Node4</title>
<g id="a_edge5_Node000004_Node000004"><a xlink:title=" ">
<path fill="none" stroke="#63b8ff" d="M592.91,-30.99C587.15,-40.06 596.55,-48.5 621.12,-48.5 634.56,-48.5 643.46,-45.97 647.83,-42.2"/>
<polygon fill="#63b8ff" stroke="#63b8ff" points="651.27,-42.86 649.14,-32.49 644.34,-41.93 651.27,-42.86"/>
</a>
</g>
</g>
</g>
</svg>
