<?xml version="1.0" encoding="UTF-8" standalone="no"?>
<!DOCTYPE svg PUBLIC "-//W3C//DTD SVG 1.1//EN"
 "http://www.w3.org/Graphics/SVG/1.1/DTD/svg11.dtd">
<!-- Generated by graphviz version 9.0.0 (20230911.1827)
 -->
<!-- Title: edu.wpi.first.wpilibj.simulation.SingleJointedArmSim.SingleJointedArmSim Pages: 1 -->
<svg width="400pt" height="57pt"
 viewBox="0.00 0.00 400.00 56.50" xmlns="http://www.w3.org/2000/svg" xmlns:xlink="http://www.w3.org/1999/xlink">
<g id="graph0" class="graph" transform="scale(1 1) rotate(0) translate(4 52.5)">
<title>edu.wpi.first.wpilibj.simulation.SingleJointedArmSim.SingleJointedArmSim</title>
<!-- Node1 -->
<g id="Node000001" class="node">
<title>Node1</title>
<g id="a_Node000001"><a xlink:title=" ">
<polygon fill="#999999" stroke="#666666" points="206.5,-30.5 0,-30.5 0,0 206.5,0 206.5,-30.5"/>
<text text-anchor="start" x="8" y="-17" font-family="Helvetica,sans-Serif" font-size="10.00">edu.wpi.first.wpilibj.simulation.</text>
<text text-anchor="middle" x="103.25" y="-5.75" font-family="Helvetica,sans-Serif" font-size="10.00">SingleJointedArmSim.SingleJointedArmSim</text>
</a>
</g>
</g>
<!-- Node2 -->
<g id="Node000002" class="node">
<title>Node2</title>
<g id="a_Node000002"><a xlink:href="classedu_1_1wpi_1_1first_1_1wpilibj_1_1simulation_1_1_single_jointed_arm_sim.html#a7ab57673dfdf19ded14515ab42da0794" target="_top" xlink:title=" ">
<polygon fill="white" stroke="#666666" points="392,-30.5 242.5,-30.5 242.5,0 392,0 392,-30.5"/>
<text text-anchor="start" x="250.5" y="-17" font-family="Helvetica,sans-Serif" font-size="10.00">edu.wpi.first.wpilibj.simulation.</text>
<text text-anchor="middle" x="317.25" y="-5.75" font-family="Helvetica,sans-Serif" font-size="10.00">SingleJointedArmSim.setState</text>
</a>
</g>
</g>
<!-- Node1&#45;&gt;Node2 -->
<g id="edge1_Node000001_Node000002" class="edge">
<title>Node1&#45;&gt;Node2</title>
<g id="a_edge1_Node000001_Node000002"><a xlink:title=" ">
<path fill="none" stroke="#63b8ff" d="M206.83,-15.25C214.86,-15.25 222.91,-15.25 230.8,-15.25"/>
<polygon fill="#63b8ff" stroke="#63b8ff" points="230.72,-18.75 240.72,-15.25 230.72,-11.75 230.72,-18.75"/>
</a>
</g>
</g>
<!-- Node2&#45;&gt;Node2 -->
<g id="edge2_Node000002_Node000002" class="edge">
<title>Node2&#45;&gt;Node2</title>
<g id="a_edge2_Node000002_Node000002"><a xlink:title=" ">
<path fill="none" stroke="#63b8ff" d="M279.33,-30.99C271.59,-40.06 284.23,-48.5 317.25,-48.5 335.31,-48.5 347.27,-45.97 353.14,-42.2"/>
<polygon fill="#63b8ff" stroke="#63b8ff" points="356.56,-42.94 354.9,-32.48 349.67,-41.69 356.56,-42.94"/>
</a>
</g>
</g>
</g>
</svg>
