<?xml version="1.0" encoding="UTF-8" standalone="no"?>
<!DOCTYPE svg PUBLIC "-//W3C//DTD SVG 1.1//EN"
 "http://www.w3.org/Graphics/SVG/1.1/DTD/svg11.dtd">
<!-- Generated by graphviz version 9.0.0 (20230911.1827)
 -->
<!-- Title: edu.wpi.first.wpilibj.PS5Controller.getCrossButtonPressed Pages: 1 -->
<svg width="867pt" height="106pt"
 viewBox="0.00 0.00 867.25 105.50" xmlns="http://www.w3.org/2000/svg" xmlns:xlink="http://www.w3.org/1999/xlink">
<g id="graph0" class="graph" transform="scale(1 1) rotate(0) translate(4 101.5)">
<title>edu.wpi.first.wpilibj.PS5Controller.getCrossButtonPressed</title>
<!-- Node1 -->
<g id="Node000001" class="node">
<title>Node1</title>
<g id="a_Node000001"><a xlink:title=" ">
<polygon fill="#999999" stroke="#666666" points="164.5,-54.5 0,-54.5 0,-24 164.5,-24 164.5,-54.5"/>
<text text-anchor="start" x="8" y="-41" font-family="Helvetica,sans-Serif" font-size="10.00">edu.wpi.first.wpilibj.PS5</text>
<text text-anchor="middle" x="82.25" y="-29.75" font-family="Helvetica,sans-Serif" font-size="10.00">Controller.getCrossButtonPressed</text>
</a>
</g>
</g>
<!-- Node2 -->
<g id="Node000002" class="node">
<title>Node2</title>
<g id="a_Node000002"><a xlink:href="classedu_1_1wpi_1_1first_1_1wpilibj_1_1_generic_h_i_d.html#a097c775f0ef764796523a65f8f3b688d" target="_top" xlink:title=" ">
<polygon fill="white" stroke="#666666" points="336.5,-54.5 200.5,-54.5 200.5,-24 336.5,-24 336.5,-54.5"/>
<text text-anchor="start" x="208.5" y="-41" font-family="Helvetica,sans-Serif" font-size="10.00">edu.wpi.first.wpilibj.Generic</text>
<text text-anchor="middle" x="268.5" y="-29.75" font-family="Helvetica,sans-Serif" font-size="10.00">HID.getRawButtonPressed</text>
</a>
</g>
</g>
<!-- Node1&#45;&gt;Node2 -->
<g id="edge1_Node000001_Node000002" class="edge">
<title>Node1&#45;&gt;Node2</title>
<g id="a_edge1_Node000001_Node000002"><a xlink:title=" ">
<path fill="none" stroke="#63b8ff" d="M164.87,-39.25C172.76,-39.25 180.75,-39.25 188.62,-39.25"/>
<polygon fill="#63b8ff" stroke="#63b8ff" points="188.5,-42.75 198.5,-39.25 188.5,-35.75 188.5,-42.75"/>
</a>
</g>
</g>
<!-- Node3 -->
<g id="Node000003" class="node">
<title>Node3</title>
<g id="a_Node000003"><a xlink:href="classedu_1_1wpi_1_1first_1_1wpilibj_1_1_generic_h_i_d.html#a77f3feaa9b70759aa7e26c20bec4bec2" target="_top" xlink:title=" ">
<polygon fill="white" stroke="#666666" points="515.62,-79.5 379.62,-79.5 379.62,-49 515.62,-49 515.62,-79.5"/>
<text text-anchor="start" x="387.62" y="-66" font-family="Helvetica,sans-Serif" font-size="10.00">edu.wpi.first.wpilibj.Generic</text>
<text text-anchor="middle" x="447.62" y="-54.75" font-family="Helvetica,sans-Serif" font-size="10.00">HID.button</text>
</a>
</g>
</g>
<!-- Node2&#45;&gt;Node3 -->
<g id="edge2_Node000002_Node000003" class="edge">
<title>Node2&#45;&gt;Node3</title>
<g id="a_edge2_Node000002_Node000003"><a xlink:title=" ">
<path fill="none" stroke="#63b8ff" d="M336.97,-48.77C347.16,-50.21 357.75,-51.71 368.16,-53.17"/>
<polygon fill="#63b8ff" stroke="#63b8ff" points="367.45,-56.61 377.85,-54.54 368.43,-49.68 367.45,-56.61"/>
</a>
</g>
</g>
<!-- Node6 -->
<g id="Node000006" class="node">
<title>Node6</title>
<g id="a_Node000006"><a xlink:href="classedu_1_1wpi_1_1first_1_1wpilibj_1_1_driver_station.html#acb9b90660a171dbd6a9b9717f0213f92" target="_top" xlink:title=" ">
<polygon fill="white" stroke="#666666" points="522.75,-30.5 372.5,-30.5 372.5,0 522.75,0 522.75,-30.5"/>
<text text-anchor="start" x="380.5" y="-17" font-family="Helvetica,sans-Serif" font-size="10.00">edu.wpi.first.wpilibj.Driver</text>
<text text-anchor="middle" x="447.62" y="-5.75" font-family="Helvetica,sans-Serif" font-size="10.00">Station.getStickButtonPressed</text>
</a>
</g>
</g>
<!-- Node2&#45;&gt;Node6 -->
<g id="edge7_Node000002_Node000006" class="edge">
<title>Node2&#45;&gt;Node6</title>
<g id="a_edge7_Node000002_Node000006"><a xlink:title=" ">
<path fill="none" stroke="#63b8ff" d="M336.97,-30.11C344.81,-29.05 352.88,-27.95 360.93,-26.86"/>
<polygon fill="#63b8ff" stroke="#63b8ff" points="361.31,-30.34 370.75,-25.53 360.37,-23.41 361.31,-30.34"/>
</a>
</g>
</g>
<!-- Node3&#45;&gt;Node3 -->
<g id="edge3_Node000003_Node000003" class="edge">
<title>Node3&#45;&gt;Node3</title>
<g id="a_edge3_Node000003_Node000003"><a xlink:title=" ">
<path fill="none" stroke="#63b8ff" d="M415.88,-79.99C409.41,-89.06 419.99,-97.5 447.62,-97.5 462.74,-97.5 472.75,-94.97 477.66,-91.2"/>
<polygon fill="#63b8ff" stroke="#63b8ff" points="481.1,-91.89 479.14,-81.48 474.18,-90.84 481.1,-91.89"/>
</a>
</g>
</g>
<!-- Node4 -->
<g id="Node000004" class="node">
<title>Node4</title>
<g id="a_Node000004"><a xlink:href="classedu_1_1wpi_1_1first_1_1wpilibj_1_1_generic_h_i_d.html#abdb0245e5cb7f7b92cc1060202821a2d" target="_top" xlink:title=" ">
<polygon fill="white" stroke="#666666" points="694.75,-79.5 558.75,-79.5 558.75,-49 694.75,-49 694.75,-79.5"/>
<text text-anchor="start" x="566.75" y="-66" font-family="Helvetica,sans-Serif" font-size="10.00">edu.wpi.first.wpilibj.Generic</text>
<text text-anchor="middle" x="626.75" y="-54.75" font-family="Helvetica,sans-Serif" font-size="10.00">HID.getRawButton</text>
</a>
</g>
</g>
<!-- Node3&#45;&gt;Node4 -->
<g id="edge4_Node000003_Node000004" class="edge">
<title>Node3&#45;&gt;Node4</title>
<g id="a_edge4_Node000003_Node000004"><a xlink:title=" ">
<path fill="none" stroke="#63b8ff" d="M516.09,-57.67C526.29,-57.5 536.88,-57.46 547.28,-57.54"/>
<polygon fill="#63b8ff" stroke="#63b8ff" points="546.91,-61.03 556.96,-57.66 547,-54.04 546.91,-61.03"/>
</a>
</g>
</g>
<!-- Node4&#45;&gt;Node3 -->
<g id="edge5_Node000004_Node000003" class="edge">
<title>Node4&#45;&gt;Node3</title>
<g id="a_edge5_Node000004_Node000003"><a xlink:title=" ">
<path fill="none" stroke="#63b8ff" d="M558.47,-70.82C548.28,-71 537.69,-71.04 527.28,-70.96"/>
<polygon fill="#63b8ff" stroke="#63b8ff" points="527.65,-67.47 517.61,-70.85 527.56,-74.47 527.65,-67.47"/>
</a>
</g>
</g>
<!-- Node5 -->
<g id="Node000005" class="node">
<title>Node5</title>
<g id="a_Node000005"><a xlink:href="classedu_1_1wpi_1_1first_1_1wpilibj_1_1_driver_station.html#a3d86d4b8414c05aafe18fc866d99ccab" target="_top" xlink:title=" ">
<polygon fill="white" stroke="#666666" points="859.25,-79.5 730.75,-79.5 730.75,-49 859.25,-49 859.25,-79.5"/>
<text text-anchor="start" x="738.75" y="-66" font-family="Helvetica,sans-Serif" font-size="10.00">edu.wpi.first.wpilibj.Driver</text>
<text text-anchor="middle" x="795" y="-54.75" font-family="Helvetica,sans-Serif" font-size="10.00">Station.getStickButton</text>
</a>
</g>
</g>
<!-- Node4&#45;&gt;Node5 -->
<g id="edge6_Node000004_Node000005" class="edge">
<title>Node4&#45;&gt;Node5</title>
<g id="a_edge6_Node000004_Node000005"><a xlink:title=" ">
<path fill="none" stroke="#63b8ff" d="M694.89,-64.25C702.85,-64.25 711.02,-64.25 719.08,-64.25"/>
<polygon fill="#63b8ff" stroke="#63b8ff" points="718.87,-67.75 728.87,-64.25 718.87,-60.75 718.87,-67.75"/>
</a>
</g>
</g>
</g>
</svg>
