<?xml version="1.0" encoding="UTF-8" standalone="no"?>
<!DOCTYPE svg PUBLIC "-//W3C//DTD SVG 1.1//EN"
 "http://www.w3.org/Graphics/SVG/1.1/DTD/svg11.dtd">
<!-- Generated by graphviz version 9.0.0 (20230911.1827)
 -->
<!-- Title: edu.wpi.first.wpilibj.DSControlWord.DSControlWord Pages: 1 -->
<svg width="561pt" height="39pt"
 viewBox="0.00 0.00 560.75 38.50" xmlns="http://www.w3.org/2000/svg" xmlns:xlink="http://www.w3.org/1999/xlink">
<g id="graph0" class="graph" transform="scale(1 1) rotate(0) translate(4 34.5)">
<title>edu.wpi.first.wpilibj.DSControlWord.DSControlWord</title>
<!-- Node1 -->
<g id="Node000001" class="node">
<title>Node1</title>
<g id="a_Node000001"><a xlink:title=" ">
<polygon fill="#999999" stroke="#666666" points="148,-30.5 0,-30.5 0,0 148,0 148,-30.5"/>
<text text-anchor="start" x="8" y="-17" font-family="Helvetica,sans-Serif" font-size="10.00">edu.wpi.first.wpilibj.DSControl</text>
<text text-anchor="middle" x="74" y="-5.75" font-family="Helvetica,sans-Serif" font-size="10.00">Word.DSControlWord</text>
</a>
</g>
</g>
<!-- Node2 -->
<g id="Node000002" class="node">
<title>Node2</title>
<g id="a_Node000002"><a xlink:href="classedu_1_1wpi_1_1first_1_1wpilibj_1_1_d_s_control_word.html#a0dd9cdc5e9f868e1649a0573cd83aaef" target="_top" xlink:title=" ">
<polygon fill="white" stroke="#666666" points="332,-30.5 184,-30.5 184,0 332,0 332,-30.5"/>
<text text-anchor="start" x="192" y="-17" font-family="Helvetica,sans-Serif" font-size="10.00">edu.wpi.first.wpilibj.DSControl</text>
<text text-anchor="middle" x="258" y="-5.75" font-family="Helvetica,sans-Serif" font-size="10.00">Word.refresh</text>
</a>
</g>
</g>
<!-- Node1&#45;&gt;Node2 -->
<g id="edge1_Node000001_Node000002" class="edge">
<title>Node1&#45;&gt;Node2</title>
<g id="a_edge1_Node000001_Node000002"><a xlink:title=" ">
<path fill="none" stroke="#63b8ff" d="M148.24,-15.25C156.16,-15.25 164.27,-15.25 172.31,-15.25"/>
<polygon fill="#63b8ff" stroke="#63b8ff" points="172.1,-18.75 182.1,-15.25 172.1,-11.75 172.1,-18.75"/>
</a>
</g>
</g>
<!-- Node3 -->
<g id="Node000003" class="node">
<title>Node3</title>
<g id="a_Node000003"><a xlink:href="classedu_1_1wpi_1_1first_1_1wpilibj_1_1_driver_station.html#a3873859de7def6152b19adf37f54bb6f" target="_top" xlink:title=" ">
<polygon fill="white" stroke="#666666" points="552.75,-30.5 368,-30.5 368,0 552.75,0 552.75,-30.5"/>
<text text-anchor="start" x="376" y="-17" font-family="Helvetica,sans-Serif" font-size="10.00">edu.wpi.first.wpilibj.Driver</text>
<text text-anchor="middle" x="460.38" y="-5.75" font-family="Helvetica,sans-Serif" font-size="10.00">Station.refreshControlWordFromCache</text>
</a>
</g>
</g>
<!-- Node2&#45;&gt;Node3 -->
<g id="edge2_Node000002_Node000003" class="edge">
<title>Node2&#45;&gt;Node3</title>
<g id="a_edge2_Node000002_Node000003"><a xlink:title=" ">
<path fill="none" stroke="#63b8ff" d="M332.47,-15.25C340.29,-15.25 348.35,-15.25 356.43,-15.25"/>
<polygon fill="#63b8ff" stroke="#63b8ff" points="356.33,-18.75 366.33,-15.25 356.33,-11.75 356.33,-18.75"/>
</a>
</g>
</g>
</g>
</svg>
