<?xml version="1.0" encoding="UTF-8" standalone="no"?>
<!DOCTYPE svg PUBLIC "-//W3C//DTD SVG 1.1//EN"
 "http://www.w3.org/Graphics/SVG/1.1/DTD/svg11.dtd">
<!-- Generated by graphviz version 9.0.0 (20230911.1827)
 -->
<!-- Title: edu.wpi.first.wpilibj.shuffleboard.SuppliedValueWidget&lt; T &gt; Pages: 1 -->
<svg width="224pt" height="116pt"
 viewBox="0.00 0.00 223.50 116.25" xmlns="http://www.w3.org/2000/svg" xmlns:xlink="http://www.w3.org/1999/xlink">
<g id="graph0" class="graph" transform="scale(1 1) rotate(0) translate(4 112.25)">
<title>edu.wpi.first.wpilibj.shuffleboard.SuppliedValueWidget&lt; T &gt;</title>
<!-- Node1 -->
<g id="Node000001" class="node">
<title>Node1</title>
<g id="a_Node000001"><a xlink:title=" ">
<polygon fill="#999999" stroke="#666666" points="195.88,-30.5 37.38,-30.5 37.38,0 195.88,0 195.88,-30.5"/>
<text text-anchor="start" x="45.38" y="-17" font-family="Helvetica,sans-Serif" font-size="10.00">edu.wpi.first.wpilibj.shuffleboard.</text>
<text text-anchor="middle" x="116.62" y="-5.75" font-family="Helvetica,sans-Serif" font-size="10.00">SuppliedValueWidget&lt; T &gt;</text>
</a>
</g>
</g>
<!-- Node2 -->
<g id="Node000002" class="node">
<title>Node2</title>
<g id="a_Node000002"><a xlink:title=" ">
<polygon fill="white" stroke="#bfbfbf" points="117.25,-108.25 0,-108.25 0,-66.5 117.25,-66.5 117.25,-108.25"/>
<text text-anchor="start" x="8" y="-94.75" font-family="Helvetica,sans-Serif" font-size="10.00">ShuffleboardWidget</text>
<text text-anchor="start" x="8" y="-83.5" font-family="Helvetica,sans-Serif" font-size="10.00">&lt; SuppliedValueWidget</text>
<text text-anchor="middle" x="58.62" y="-72.25" font-family="Helvetica,sans-Serif" font-size="10.00">&lt; T &gt; &gt;</text>
</a>
</g>
</g>
<!-- Node2&#45;&gt;Node1 -->
<g id="edge1_Node000001_Node000002" class="edge">
<title>Node2&#45;&gt;Node1</title>
<g id="a_edge1_Node000001_Node000002"><a xlink:title=" ">
<path fill="none" stroke="#63b8ff" d="M82.74,-57.22C90.31,-48.07 98.33,-38.37 104.67,-30.7"/>
<polygon fill="#63b8ff" stroke="#63b8ff" points="80.04,-54.99 76.37,-64.93 85.44,-59.45 80.04,-54.99"/>
</a>
</g>
</g>
<!-- Node3 -->
<g id="Node000003" class="node">
<title>Node3</title>
<g id="a_Node000003"><a xlink:title=" ">
<polygon fill="white" stroke="#bfbfbf" points="215.5,-97 135.75,-97 135.75,-77.75 215.5,-77.75 215.5,-97"/>
<text text-anchor="middle" x="175.62" y="-83.5" font-family="Helvetica,sans-Serif" font-size="10.00">AutoCloseable</text>
</a>
</g>
</g>
<!-- Node3&#45;&gt;Node1 -->
<g id="edge2_Node000001_Node000003" class="edge">
<title>Node3&#45;&gt;Node1</title>
<g id="a_edge2_Node000001_Node000003"><a xlink:title=" ">
<path fill="none" stroke="#63b8ff" d="M161.02,-69.02C151.17,-57.3 138.31,-42.02 128.97,-30.92"/>
<polygon fill="#63b8ff" stroke="#63b8ff" points="158.06,-70.94 167.18,-76.34 163.42,-66.43 158.06,-70.94"/>
</a>
</g>
</g>
</g>
</svg>
