<?xml version="1.0" encoding="UTF-8" standalone="no"?>
<!DOCTYPE svg PUBLIC "-//W3C//DTD SVG 1.1//EN"
 "http://www.w3.org/Graphics/SVG/1.1/DTD/svg11.dtd">
<!-- Generated by graphviz version 9.0.0 (20230911.1827)
 -->
<!-- Title: edu.wpi.first.wpilibj.smartdashboard.Mechanism2d Pages: 1 -->
<svg width="183pt" height="94pt"
 viewBox="0.00 0.00 183.00 93.75" xmlns="http://www.w3.org/2000/svg" xmlns:xlink="http://www.w3.org/1999/xlink">
<g id="graph0" class="graph" transform="scale(1 1) rotate(0) translate(4 89.75)">
<title>edu.wpi.first.wpilibj.smartdashboard.Mechanism2d</title>
<!-- Node1 -->
<g id="Node000001" class="node">
<title>Node1</title>
<g id="a_Node000001"><a xlink:title=" ">
<polygon fill="#999999" stroke="#666666" points="175,-30.5 0,-30.5 0,0 175,0 175,-30.5"/>
<text text-anchor="start" x="8" y="-17" font-family="Helvetica,sans-Serif" font-size="10.00">edu.wpi.first.wpilibj.smartdashboard.</text>
<text text-anchor="middle" x="87.5" y="-5.75" font-family="Helvetica,sans-Serif" font-size="10.00">Mechanism2d</text>
</a>
</g>
</g>
<!-- Node2 -->
<g id="Node000002" class="node">
<title>Node2</title>
<g id="a_Node000002"><a xlink:title=" ">
<polygon fill="white" stroke="#bfbfbf" points="76.5,-85.75 6.5,-85.75 6.5,-66.5 76.5,-66.5 76.5,-85.75"/>
<text text-anchor="middle" x="41.5" y="-72.25" font-family="Helvetica,sans-Serif" font-size="10.00">NTSendable</text>
</a>
</g>
</g>
<!-- Node2&#45;&gt;Node1 -->
<g id="edge1_Node000001_Node000002" class="edge">
<title>Node2&#45;&gt;Node1</title>
<g id="a_edge1_Node000001_Node000002"><a xlink:title=" ">
<path fill="none" stroke="#63b8ff" d="M55.54,-57.15C62.15,-48.7 69.92,-38.75 76.15,-30.78"/>
<polygon fill="#63b8ff" stroke="#63b8ff" points="52.82,-54.96 49.42,-64.99 58.33,-59.27 52.82,-54.96"/>
</a>
</g>
</g>
<!-- Node3 -->
<g id="Node000003" class="node">
<title>Node3</title>
<g id="a_Node000003"><a xlink:title=" ">
<polygon fill="white" stroke="#bfbfbf" points="174.38,-85.75 94.62,-85.75 94.62,-66.5 174.38,-66.5 174.38,-85.75"/>
<text text-anchor="middle" x="134.5" y="-72.25" font-family="Helvetica,sans-Serif" font-size="10.00">AutoCloseable</text>
</a>
</g>
</g>
<!-- Node3&#45;&gt;Node1 -->
<g id="edge2_Node000001_Node000003" class="edge">
<title>Node3&#45;&gt;Node1</title>
<g id="a_edge2_Node000001_Node000003"><a xlink:title=" ">
<path fill="none" stroke="#63b8ff" d="M120.37,-57.43C113.58,-48.92 105.53,-38.84 99.1,-30.78"/>
<polygon fill="#63b8ff" stroke="#63b8ff" points="117.44,-59.37 126.42,-65 122.91,-55 117.44,-59.37"/>
</a>
</g>
</g>
</g>
</svg>
