<?xml version="1.0" encoding="UTF-8" standalone="no"?>
<!DOCTYPE svg PUBLIC "-//W3C//DTD SVG 1.1//EN"
 "http://www.w3.org/Graphics/SVG/1.1/DTD/svg11.dtd">
<!-- Generated by graphviz version 9.0.0 (20230911.1827)
 -->
<!-- Title: edu.wpi.first.wpilibj.Servo.Servo Pages: 1 -->
<svg width="318pt" height="137pt"
 viewBox="0.00 0.00 318.25 136.50" xmlns="http://www.w3.org/2000/svg" xmlns:xlink="http://www.w3.org/1999/xlink">
<g id="graph0" class="graph" transform="scale(1 1) rotate(0) translate(4 132.5)">
<title>edu.wpi.first.wpilibj.Servo.Servo</title>
<!-- Node1 -->
<g id="Node000001" class="node">
<title>Node1</title>
<g id="a_Node000001"><a xlink:title=" ">
<polygon fill="#999999" stroke="#666666" points="130.75,-79.5 0,-79.5 0,-49 130.75,-49 130.75,-79.5"/>
<text text-anchor="start" x="8" y="-66" font-family="Helvetica,sans-Serif" font-size="10.00">edu.wpi.first.wpilibj.Servo.</text>
<text text-anchor="middle" x="65.38" y="-54.75" font-family="Helvetica,sans-Serif" font-size="10.00">Servo</text>
</a>
</g>
</g>
<!-- Node2 -->
<g id="Node000002" class="node">
<title>Node2</title>
<g id="a_Node000002"><a xlink:href="classedu_1_1wpi_1_1first_1_1wpilibj_1_1_p_w_m.html#ad77506085116c8e7ec1b168438a9f573" target="_top" xlink:title=" ">
<polygon fill="white" stroke="#666666" points="310.25,-128.5 166.75,-128.5 166.75,-98 310.25,-98 310.25,-128.5"/>
<text text-anchor="start" x="174.75" y="-115" font-family="Helvetica,sans-Serif" font-size="10.00">edu.wpi.first.wpilibj.PWM.get</text>
<text text-anchor="middle" x="238.5" y="-103.75" font-family="Helvetica,sans-Serif" font-size="10.00">Channel</text>
</a>
</g>
</g>
<!-- Node1&#45;&gt;Node2 -->
<g id="edge1_Node000001_Node000002" class="edge">
<title>Node1&#45;&gt;Node2</title>
<g id="a_edge1_Node000001_Node000002"><a xlink:title=" ">
<path fill="none" stroke="#63b8ff" d="M120.99,-79.89C137.12,-84.51 154.94,-89.61 171.7,-94.41"/>
<polygon fill="#63b8ff" stroke="#63b8ff" points="170.49,-97.7 181.07,-97.09 172.42,-90.97 170.49,-97.7"/>
</a>
</g>
</g>
<!-- Node3 -->
<g id="Node000003" class="node">
<title>Node3</title>
<g id="a_Node000003"><a xlink:href="classedu_1_1wpi_1_1first_1_1wpilibj_1_1_p_w_m.html#a9f540c857b04d827341ef78e5b1124fe" target="_top" xlink:title=" ">
<polygon fill="white" stroke="#666666" points="310.25,-79.5 166.75,-79.5 166.75,-49 310.25,-49 310.25,-79.5"/>
<text text-anchor="start" x="174.75" y="-66" font-family="Helvetica,sans-Serif" font-size="10.00">edu.wpi.first.wpilibj.PWM.set</text>
<text text-anchor="middle" x="238.5" y="-54.75" font-family="Helvetica,sans-Serif" font-size="10.00">BoundsMicroseconds</text>
</a>
</g>
</g>
<!-- Node1&#45;&gt;Node3 -->
<g id="edge2_Node000001_Node000003" class="edge">
<title>Node1&#45;&gt;Node3</title>
<g id="a_edge2_Node000001_Node000003"><a xlink:title=" ">
<path fill="none" stroke="#63b8ff" d="M131.07,-64.25C138.92,-64.25 147.02,-64.25 155.08,-64.25"/>
<polygon fill="#63b8ff" stroke="#63b8ff" points="154.9,-67.75 164.9,-64.25 154.9,-60.75 154.9,-67.75"/>
</a>
</g>
</g>
<!-- Node4 -->
<g id="Node000004" class="node">
<title>Node4</title>
<g id="a_Node000004"><a xlink:href="classedu_1_1wpi_1_1first_1_1wpilibj_1_1_p_w_m.html#ab167b1170302bc64d8b4d53da6814931" target="_top" xlink:title=" ">
<polygon fill="white" stroke="#666666" points="310.25,-30.5 166.75,-30.5 166.75,0 310.25,0 310.25,-30.5"/>
<text text-anchor="start" x="174.75" y="-17" font-family="Helvetica,sans-Serif" font-size="10.00">edu.wpi.first.wpilibj.PWM.set</text>
<text text-anchor="middle" x="238.5" y="-5.75" font-family="Helvetica,sans-Serif" font-size="10.00">PeriodMultiplier</text>
</a>
</g>
</g>
<!-- Node1&#45;&gt;Node4 -->
<g id="edge3_Node000001_Node000004" class="edge">
<title>Node1&#45;&gt;Node4</title>
<g id="a_edge3_Node000001_Node000004"><a xlink:title=" ">
<path fill="none" stroke="#63b8ff" d="M120.99,-48.61C137.12,-43.99 154.94,-38.89 171.7,-34.09"/>
<polygon fill="#63b8ff" stroke="#63b8ff" points="172.42,-37.53 181.07,-31.41 170.49,-30.8 172.42,-37.53"/>
</a>
</g>
</g>
</g>
</svg>
