<?xml version="1.0" encoding="UTF-8" standalone="no"?>
<!DOCTYPE svg PUBLIC "-//W3C//DTD SVG 1.1//EN"
 "http://www.w3.org/Graphics/SVG/1.1/DTD/svg11.dtd">
<!-- Generated by graphviz version 9.0.0 (20230911.1827)
 -->
<!-- Title: edu.wpi.first.wpilibj.simulation.GenericHIDSim.setButtonCount Pages: 1 -->
<svg width="383pt" height="382pt"
 viewBox="0.00 0.00 382.75 381.50" xmlns="http://www.w3.org/2000/svg" xmlns:xlink="http://www.w3.org/1999/xlink">
<g id="graph0" class="graph" transform="scale(1 1) rotate(0) translate(4 377.5)">
<title>edu.wpi.first.wpilibj.simulation.GenericHIDSim.setButtonCount</title>
<!-- Node1 -->
<g id="Node000001" class="node">
<title>Node1</title>
<g id="a_Node000001"><a xlink:title=" ">
<polygon fill="#999999" stroke="#666666" points="374.75,-201.5 218.5,-201.5 218.5,-171 374.75,-171 374.75,-201.5"/>
<text text-anchor="start" x="226.5" y="-188" font-family="Helvetica,sans-Serif" font-size="10.00">edu.wpi.first.wpilibj.simulation.</text>
<text text-anchor="middle" x="296.62" y="-176.75" font-family="Helvetica,sans-Serif" font-size="10.00">GenericHIDSim.setButtonCount</text>
</a>
</g>
</g>
<!-- Node2 -->
<g id="Node000002" class="node">
<title>Node2</title>
<g id="a_Node000002"><a xlink:href="classedu_1_1wpi_1_1first_1_1wpilibj_1_1simulation_1_1_joystick_sim.html#af7b5d6a288a37fc8a7c95f5db7d8ad51" target="_top" xlink:title=" ">
<polygon fill="white" stroke="#666666" points="166,-373.5 16.5,-373.5 16.5,-343 166,-343 166,-373.5"/>
<text text-anchor="start" x="24.5" y="-360" font-family="Helvetica,sans-Serif" font-size="10.00">edu.wpi.first.wpilibj.simulation.</text>
<text text-anchor="middle" x="91.25" y="-348.75" font-family="Helvetica,sans-Serif" font-size="10.00">JoystickSim.JoystickSim</text>
</a>
</g>
</g>
<!-- Node1&#45;&gt;Node2 -->
<g id="edge1_Node000001_Node000002" class="edge">
<title>Node1&#45;&gt;Node2</title>
<g id="a_edge1_Node000001_Node000002"><a xlink:title=" ">
<path fill="none" stroke="#63b8ff" d="M282.87,-211.6C264.97,-244.6 229.26,-301.77 182.5,-333.25 177.11,-336.88 171.19,-339.99 165.06,-342.65"/>
<polygon fill="#63b8ff" stroke="#63b8ff" points="285.77,-213.62 287.34,-203.14 279.58,-210.35 285.77,-213.62"/>
</a>
</g>
</g>
<!-- Node3 -->
<g id="Node000003" class="node">
<title>Node3</title>
<g id="a_Node000003"><a xlink:href="classedu_1_1wpi_1_1first_1_1wpilibj_1_1simulation_1_1_joystick_sim.html#a67efee935f2751b33146cfe5db90648f" target="_top" xlink:title=" ">
<polygon fill="white" stroke="#666666" points="166,-324.5 16.5,-324.5 16.5,-294 166,-294 166,-324.5"/>
<text text-anchor="start" x="24.5" y="-311" font-family="Helvetica,sans-Serif" font-size="10.00">edu.wpi.first.wpilibj.simulation.</text>
<text text-anchor="middle" x="91.25" y="-299.75" font-family="Helvetica,sans-Serif" font-size="10.00">JoystickSim.JoystickSim</text>
</a>
</g>
</g>
<!-- Node1&#45;&gt;Node3 -->
<g id="edge2_Node000001_Node000003" class="edge">
<title>Node1&#45;&gt;Node3</title>
<g id="a_edge2_Node000001_Node000003"><a xlink:title=" ">
<path fill="none" stroke="#63b8ff" d="M274.14,-210.18C252.92,-232.43 218.49,-264.96 182.5,-284.25 175.91,-287.78 168.77,-290.85 161.5,-293.51"/>
<polygon fill="#63b8ff" stroke="#63b8ff" points="276.56,-212.71 280.84,-203.02 271.45,-207.93 276.56,-212.71"/>
</a>
</g>
</g>
<!-- Node4 -->
<g id="Node000004" class="node">
<title>Node4</title>
<g id="a_Node000004"><a xlink:href="classedu_1_1wpi_1_1first_1_1wpilibj_1_1simulation_1_1_p_s4_controller_sim.html#ae4068fb329e73d35cb1cc4287b291109" target="_top" xlink:title=" ">
<polygon fill="white" stroke="#666666" points="178.75,-275.5 3.75,-275.5 3.75,-245 178.75,-245 178.75,-275.5"/>
<text text-anchor="start" x="11.75" y="-262" font-family="Helvetica,sans-Serif" font-size="10.00">edu.wpi.first.wpilibj.simulation.</text>
<text text-anchor="middle" x="91.25" y="-250.75" font-family="Helvetica,sans-Serif" font-size="10.00">PS4ControllerSim.PS4ControllerSim</text>
</a>
</g>
</g>
<!-- Node1&#45;&gt;Node4 -->
<g id="edge3_Node000001_Node000004" class="edge">
<title>Node1&#45;&gt;Node4</title>
<g id="a_edge3_Node000001_Node000004"><a xlink:title=" ">
<path fill="none" stroke="#63b8ff" d="M252.49,-206.61C231.62,-216.02 206.04,-226.93 182.5,-235.25 173.15,-238.55 163.13,-241.7 153.29,-244.58"/>
<polygon fill="#63b8ff" stroke="#63b8ff" points="253.92,-209.8 261.56,-202.47 251.01,-203.43 253.92,-209.8"/>
</a>
</g>
</g>
<!-- Node5 -->
<g id="Node000005" class="node">
<title>Node5</title>
<g id="a_Node000005"><a xlink:href="classedu_1_1wpi_1_1first_1_1wpilibj_1_1simulation_1_1_p_s4_controller_sim.html#a68d6b639de950b029f0ba0aeb56a5b22" target="_top" xlink:title=" ">
<polygon fill="white" stroke="#666666" points="178.75,-226.5 3.75,-226.5 3.75,-196 178.75,-196 178.75,-226.5"/>
<text text-anchor="start" x="11.75" y="-213" font-family="Helvetica,sans-Serif" font-size="10.00">edu.wpi.first.wpilibj.simulation.</text>
<text text-anchor="middle" x="91.25" y="-201.75" font-family="Helvetica,sans-Serif" font-size="10.00">PS4ControllerSim.PS4ControllerSim</text>
</a>
</g>
</g>
<!-- Node1&#45;&gt;Node5 -->
<g id="edge4_Node000001_Node000005" class="edge">
<title>Node1&#45;&gt;Node5</title>
<g id="a_edge4_Node000001_Node000005"><a xlink:title=" ">
<path fill="none" stroke="#63b8ff" d="M206.95,-197.15C197.68,-198.29 188.26,-199.45 179.01,-200.58"/>
<polygon fill="#63b8ff" stroke="#63b8ff" points="207.16,-200.65 216.66,-195.96 206.3,-193.7 207.16,-200.65"/>
</a>
</g>
</g>
<!-- Node6 -->
<g id="Node000006" class="node">
<title>Node6</title>
<g id="a_Node000006"><a xlink:href="classedu_1_1wpi_1_1first_1_1wpilibj_1_1simulation_1_1_p_s5_controller_sim.html#acc8f674aec65044288906963d9de0877" target="_top" xlink:title=" ">
<polygon fill="white" stroke="#666666" points="178.75,-177.5 3.75,-177.5 3.75,-147 178.75,-147 178.75,-177.5"/>
<text text-anchor="start" x="11.75" y="-164" font-family="Helvetica,sans-Serif" font-size="10.00">edu.wpi.first.wpilibj.simulation.</text>
<text text-anchor="middle" x="91.25" y="-152.75" font-family="Helvetica,sans-Serif" font-size="10.00">PS5ControllerSim.PS5ControllerSim</text>
</a>
</g>
</g>
<!-- Node1&#45;&gt;Node6 -->
<g id="edge5_Node000001_Node000006" class="edge">
<title>Node1&#45;&gt;Node6</title>
<g id="a_edge5_Node000001_Node000006"><a xlink:title=" ">
<path fill="none" stroke="#63b8ff" d="M206.95,-175.79C197.68,-174.69 188.26,-173.58 179.01,-172.49"/>
<polygon fill="#63b8ff" stroke="#63b8ff" points="206.31,-179.23 216.65,-176.93 207.13,-172.28 206.31,-179.23"/>
</a>
</g>
</g>
<!-- Node7 -->
<g id="Node000007" class="node">
<title>Node7</title>
<g id="a_Node000007"><a xlink:href="classedu_1_1wpi_1_1first_1_1wpilibj_1_1simulation_1_1_p_s5_controller_sim.html#acce7c45de82d8ab53466c2a6b14759bf" target="_top" xlink:title=" ">
<polygon fill="white" stroke="#666666" points="178.75,-128.5 3.75,-128.5 3.75,-98 178.75,-98 178.75,-128.5"/>
<text text-anchor="start" x="11.75" y="-115" font-family="Helvetica,sans-Serif" font-size="10.00">edu.wpi.first.wpilibj.simulation.</text>
<text text-anchor="middle" x="91.25" y="-103.75" font-family="Helvetica,sans-Serif" font-size="10.00">PS5ControllerSim.PS5ControllerSim</text>
</a>
</g>
</g>
<!-- Node1&#45;&gt;Node7 -->
<g id="edge6_Node000001_Node000007" class="edge">
<title>Node1&#45;&gt;Node7</title>
<g id="a_edge6_Node000001_Node000007"><a xlink:title=" ">
<path fill="none" stroke="#63b8ff" d="M251.54,-165.95C230.83,-156.83 205.66,-146.33 182.5,-138.25 173.14,-134.98 163.11,-131.85 153.27,-128.98"/>
<polygon fill="#63b8ff" stroke="#63b8ff" points="249.98,-169.09 260.54,-169.96 252.83,-162.7 249.98,-169.09"/>
</a>
</g>
</g>
<!-- Node8 -->
<g id="Node000008" class="node">
<title>Node8</title>
<g id="a_Node000008"><a xlink:href="classedu_1_1wpi_1_1first_1_1wpilibj_1_1simulation_1_1_xbox_controller_sim.html#a659d73bbbab888fc8ac0075f741594a1" target="_top" xlink:title=" ">
<polygon fill="white" stroke="#666666" points="182.5,-79.5 0,-79.5 0,-49 182.5,-49 182.5,-79.5"/>
<text text-anchor="start" x="8" y="-66" font-family="Helvetica,sans-Serif" font-size="10.00">edu.wpi.first.wpilibj.simulation.</text>
<text text-anchor="middle" x="91.25" y="-54.75" font-family="Helvetica,sans-Serif" font-size="10.00">XboxControllerSim.XboxControllerSim</text>
</a>
</g>
</g>
<!-- Node1&#45;&gt;Node8 -->
<g id="edge7_Node000001_Node000008" class="edge">
<title>Node1&#45;&gt;Node8</title>
<g id="a_edge7_Node000001_Node000008"><a xlink:title=" ">
<path fill="none" stroke="#63b8ff" d="M274.1,-162.58C252.84,-140.56 218.38,-108.37 182.5,-89.25 175.76,-85.66 168.45,-82.54 161.01,-79.85"/>
<polygon fill="#63b8ff" stroke="#63b8ff" points="271.38,-164.8 280.8,-169.65 276.46,-159.99 271.38,-164.8"/>
</a>
</g>
</g>
<!-- Node9 -->
<g id="Node000009" class="node">
<title>Node9</title>
<g id="a_Node000009"><a xlink:href="classedu_1_1wpi_1_1first_1_1wpilibj_1_1simulation_1_1_xbox_controller_sim.html#af44f2ef1bd17ec94a74cb324a8a7b46c" target="_top" xlink:title=" ">
<polygon fill="white" stroke="#666666" points="182.5,-30.5 0,-30.5 0,0 182.5,0 182.5,-30.5"/>
<text text-anchor="start" x="8" y="-17" font-family="Helvetica,sans-Serif" font-size="10.00">edu.wpi.first.wpilibj.simulation.</text>
<text text-anchor="middle" x="91.25" y="-5.75" font-family="Helvetica,sans-Serif" font-size="10.00">XboxControllerSim.XboxControllerSim</text>
</a>
</g>
</g>
<!-- Node1&#45;&gt;Node9 -->
<g id="edge8_Node000001_Node000009" class="edge">
<title>Node1&#45;&gt;Node9</title>
<g id="a_edge8_Node000001_Node000009"><a xlink:title=" ">
<path fill="none" stroke="#63b8ff" d="M282.83,-161.07C264.87,-128.29 229.11,-71.52 182.5,-40.25 177.1,-36.63 171.18,-33.53 165.04,-30.87"/>
<polygon fill="#63b8ff" stroke="#63b8ff" points="279.52,-162.3 287.31,-169.47 285.69,-159 279.52,-162.3"/>
</a>
</g>
</g>
</g>
</svg>
