<?xml version="1.0" encoding="UTF-8" standalone="no"?>
<!DOCTYPE svg PUBLIC "-//W3C//DTD SVG 1.1//EN"
 "http://www.w3.org/Graphics/SVG/1.1/DTD/svg11.dtd">
<!-- Generated by graphviz version 9.0.0 (20230911.1827)
 -->
<!-- Title: edu.wpi.first.wpilibj.AddressableLEDBuffer.getBlue Pages: 1 -->
<svg width="357pt" height="137pt"
 viewBox="0.00 0.00 356.50 136.50" xmlns="http://www.w3.org/2000/svg" xmlns:xlink="http://www.w3.org/1999/xlink">
<g id="graph0" class="graph" transform="scale(1 1) rotate(0) translate(4 132.5)">
<title>edu.wpi.first.wpilibj.AddressableLEDBuffer.getBlue</title>
<!-- Node1 -->
<g id="Node000001" class="node">
<title>Node1</title>
<g id="a_Node000001"><a xlink:title=" ">
<polygon fill="#999999" stroke="#666666" points="348.5,-79.5 192.25,-79.5 192.25,-49 348.5,-49 348.5,-79.5"/>
<text text-anchor="start" x="200.25" y="-66" font-family="Helvetica,sans-Serif" font-size="10.00">edu.wpi.first.wpilibj.Addressable</text>
<text text-anchor="middle" x="270.38" y="-54.75" font-family="Helvetica,sans-Serif" font-size="10.00">LEDBuffer.getBlue</text>
</a>
</g>
</g>
<!-- Node2 -->
<g id="Node000002" class="node">
<title>Node2</title>
<g id="a_Node000002"><a xlink:href="classedu_1_1wpi_1_1first_1_1wpilibj_1_1_addressable_l_e_d_buffer.html#a7a70cdf6a3e6c5baa7cb766d20e16e0e" target="_top" xlink:title=" ">
<polygon fill="white" stroke="#666666" points="156.25,-128.5 0,-128.5 0,-98 156.25,-98 156.25,-128.5"/>
<text text-anchor="start" x="8" y="-115" font-family="Helvetica,sans-Serif" font-size="10.00">edu.wpi.first.wpilibj.Addressable</text>
<text text-anchor="middle" x="78.12" y="-103.75" font-family="Helvetica,sans-Serif" font-size="10.00">LEDBuffer.forEach</text>
</a>
</g>
</g>
<!-- Node1&#45;&gt;Node2 -->
<g id="edge1_Node000001_Node000002" class="edge">
<title>Node1&#45;&gt;Node2</title>
<g id="a_edge1_Node000001_Node000002"><a xlink:title=" ">
<path fill="none" stroke="#63b8ff" d="M197.44,-82.78C178.55,-87.64 158.35,-92.85 140.09,-97.55"/>
<polygon fill="#63b8ff" stroke="#63b8ff" points="198.12,-86.22 206.93,-80.33 196.37,-79.44 198.12,-86.22"/>
</a>
</g>
</g>
<!-- Node3 -->
<g id="Node000003" class="node">
<title>Node3</title>
<g id="a_Node000003"><a xlink:href="classedu_1_1wpi_1_1first_1_1wpilibj_1_1_addressable_l_e_d_buffer.html#a0159345ce9038913db41ae0df3fb5d49" target="_top" xlink:title=" ">
<polygon fill="white" stroke="#666666" points="156.25,-79.5 0,-79.5 0,-49 156.25,-49 156.25,-79.5"/>
<text text-anchor="start" x="8" y="-66" font-family="Helvetica,sans-Serif" font-size="10.00">edu.wpi.first.wpilibj.Addressable</text>
<text text-anchor="middle" x="78.12" y="-54.75" font-family="Helvetica,sans-Serif" font-size="10.00">LEDBuffer.getLED</text>
</a>
</g>
</g>
<!-- Node1&#45;&gt;Node3 -->
<g id="edge2_Node000001_Node000003" class="edge">
<title>Node1&#45;&gt;Node3</title>
<g id="a_edge2_Node000001_Node000003"><a xlink:title=" ">
<path fill="none" stroke="#63b8ff" d="M180.73,-64.25C172.72,-64.25 164.65,-64.25 156.75,-64.25"/>
<polygon fill="#63b8ff" stroke="#63b8ff" points="180.48,-67.75 190.48,-64.25 180.48,-60.75 180.48,-67.75"/>
</a>
</g>
</g>
<!-- Node4 -->
<g id="Node000004" class="node">
<title>Node4</title>
<g id="a_Node000004"><a xlink:href="classedu_1_1wpi_1_1first_1_1wpilibj_1_1_addressable_l_e_d_buffer.html#a30402bc13f004215cd3b290621ffbeac" target="_top" xlink:title=" ">
<polygon fill="white" stroke="#666666" points="156.25,-30.5 0,-30.5 0,0 156.25,0 156.25,-30.5"/>
<text text-anchor="start" x="8" y="-17" font-family="Helvetica,sans-Serif" font-size="10.00">edu.wpi.first.wpilibj.Addressable</text>
<text text-anchor="middle" x="78.12" y="-5.75" font-family="Helvetica,sans-Serif" font-size="10.00">LEDBuffer.getLED8Bit</text>
</a>
</g>
</g>
<!-- Node1&#45;&gt;Node4 -->
<g id="edge3_Node000001_Node000004" class="edge">
<title>Node1&#45;&gt;Node4</title>
<g id="a_edge3_Node000001_Node000004"><a xlink:title=" ">
<path fill="none" stroke="#63b8ff" d="M197.44,-45.72C178.55,-40.86 158.35,-35.65 140.09,-30.95"/>
<polygon fill="#63b8ff" stroke="#63b8ff" points="196.37,-49.06 206.93,-48.17 198.12,-42.28 196.37,-49.06"/>
</a>
</g>
</g>
</g>
</svg>
