<?xml version="1.0" encoding="UTF-8" standalone="no"?>
<!DOCTYPE svg PUBLIC "-//W3C//DTD SVG 1.1//EN"
 "http://www.w3.org/Graphics/SVG/1.1/DTD/svg11.dtd">
<!-- Generated by graphviz version 9.0.0 (20230911.1827)
 -->
<!-- Title: edu.wpi.first.wpilibj.livewindow.LiveWindow.updateValues Pages: 1 -->
<svg width="521pt" height="88pt"
 viewBox="0.00 0.00 521.00 87.50" xmlns="http://www.w3.org/2000/svg" xmlns:xlink="http://www.w3.org/1999/xlink">
<g id="graph0" class="graph" transform="scale(1 1) rotate(0) translate(4 83.5)">
<title>edu.wpi.first.wpilibj.livewindow.LiveWindow.updateValues</title>
<!-- Node1 -->
<g id="Node000001" class="node">
<title>Node1</title>
<g id="a_Node000001"><a xlink:title=" ">
<polygon fill="#999999" stroke="#666666" points="513,-57.5 361.25,-57.5 361.25,-27 513,-27 513,-57.5"/>
<text text-anchor="start" x="369.25" y="-44" font-family="Helvetica,sans-Serif" font-size="10.00">edu.wpi.first.wpilibj.livewindow.</text>
<text text-anchor="middle" x="437.12" y="-32.75" font-family="Helvetica,sans-Serif" font-size="10.00">LiveWindow.updateValues</text>
</a>
</g>
</g>
<!-- Node2 -->
<g id="Node000002" class="node">
<title>Node2</title>
<g id="a_Node000002"><a xlink:href="classedu_1_1wpi_1_1first_1_1wpilibj_1_1_iterative_robot_base.html#aac5c45d7130bce188e0f9278075e8891" target="_top" xlink:title=" ">
<polygon fill="white" stroke="#666666" points="137.5,-79.5 0,-79.5 0,-49 137.5,-49 137.5,-79.5"/>
<text text-anchor="start" x="8" y="-66" font-family="Helvetica,sans-Serif" font-size="10.00">edu.wpi.first.wpilibj.Iterative</text>
<text text-anchor="middle" x="68.75" y="-54.75" font-family="Helvetica,sans-Serif" font-size="10.00">RobotBase.loopFunc</text>
</a>
</g>
</g>
<!-- Node1&#45;&gt;Node2 -->
<g id="edge1_Node000001_Node000002" class="edge">
<title>Node1&#45;&gt;Node2</title>
<g id="a_edge1_Node000001_Node000002"><a xlink:title=" ">
<path fill="none" stroke="#63b8ff" d="M349.7,-47.44C284.99,-51.33 197.69,-56.57 137.88,-60.16"/>
<polygon fill="#63b8ff" stroke="#63b8ff" points="349.82,-50.94 359.59,-46.85 349.4,-43.95 349.82,-50.94"/>
</a>
</g>
</g>
<!-- Node3 -->
<g id="Node000003" class="node">
<title>Node3</title>
<g id="a_Node000003"><a xlink:href="classedu_1_1wpi_1_1first_1_1wpilibj_1_1livewindow_1_1_live_window.html#a804ed98ff17113fe5fb3189c3be68aad" target="_top" xlink:title=" ">
<polygon fill="white" stroke="#666666" points="325.25,-36.5 173.5,-36.5 173.5,-6 325.25,-6 325.25,-36.5"/>
<text text-anchor="start" x="181.5" y="-23" font-family="Helvetica,sans-Serif" font-size="10.00">edu.wpi.first.wpilibj.livewindow.</text>
<text text-anchor="middle" x="249.38" y="-11.75" font-family="Helvetica,sans-Serif" font-size="10.00">LiveWindow.setEnabled</text>
</a>
</g>
</g>
<!-- Node1&#45;&gt;Node3 -->
<g id="edge2_Node000001_Node000003" class="edge">
<title>Node1&#45;&gt;Node3</title>
<g id="a_edge2_Node000001_Node000003"><a xlink:title=" ">
<path fill="none" stroke="#63b8ff" d="M349.54,-32.46C341.5,-31.55 333.39,-30.64 325.46,-29.74"/>
<polygon fill="#63b8ff" stroke="#63b8ff" points="349.01,-35.92 359.34,-33.57 349.79,-28.97 349.01,-35.92"/>
</a>
</g>
</g>
<!-- Node3&#45;&gt;Node2 -->
<g id="edge3_Node000003_Node000002" class="edge">
<title>Node3&#45;&gt;Node2</title>
<g id="a_edge3_Node000003_Node000002"><a xlink:title=" ">
<path fill="none" stroke="#63b8ff" d="M171.98,-39.64C159.71,-42.59 147.1,-45.63 135.12,-48.51"/>
<polygon fill="#63b8ff" stroke="#63b8ff" points="172.75,-43.05 181.66,-37.31 171.12,-36.25 172.75,-43.05"/>
</a>
</g>
</g>
<!-- Node4 -->
<g id="Node000004" class="node">
<title>Node4</title>
<g id="a_Node000004"><a xlink:href="classedu_1_1wpi_1_1first_1_1wpilibj_1_1_robot_base.html#aaa94c56bb5bb24b2ec7c526c0c1eac62" target="_top" xlink:title=" ">
<polygon fill="white" stroke="#666666" points="133,-30.5 4.5,-30.5 4.5,0 133,0 133,-30.5"/>
<text text-anchor="start" x="12.5" y="-17" font-family="Helvetica,sans-Serif" font-size="10.00">edu.wpi.first.wpilibj.Robot</text>
<text text-anchor="middle" x="68.75" y="-5.75" font-family="Helvetica,sans-Serif" font-size="10.00">Base.RobotBase</text>
</a>
</g>
</g>
<!-- Node3&#45;&gt;Node4 -->
<g id="edge4_Node000003_Node000004" class="edge">
<title>Node3&#45;&gt;Node4</title>
<g id="a_edge4_Node000003_Node000004"><a xlink:title=" ">
<path fill="none" stroke="#63b8ff" d="M161.88,-18.34C152.26,-18.02 142.58,-17.7 133.31,-17.39"/>
<polygon fill="#63b8ff" stroke="#63b8ff" points="161.52,-21.83 171.63,-18.67 161.75,-14.84 161.52,-21.83"/>
</a>
</g>
</g>
</g>
</svg>
