<?xml version="1.0" encoding="UTF-8" standalone="no"?>
<!DOCTYPE svg PUBLIC "-//W3C//DTD SVG 1.1//EN"
 "http://www.w3.org/Graphics/SVG/1.1/DTD/svg11.dtd">
<!-- Generated by graphviz version 9.0.0 (20230911.1827)
 -->
<!-- Title: edu.wpi.first.wpilibj.smartdashboard.MechanismLigament2d.MechanismLigament2d Pages: 1 -->
<svg width="445pt" height="186pt"
 viewBox="0.00 0.00 445.00 185.50" xmlns="http://www.w3.org/2000/svg" xmlns:xlink="http://www.w3.org/1999/xlink">
<g id="graph0" class="graph" transform="scale(1 1) rotate(0) translate(4 181.5)">
<title>edu.wpi.first.wpilibj.smartdashboard.MechanismLigament2d.MechanismLigament2d</title>
<!-- Node1 -->
<g id="Node000001" class="node">
<title>Node1</title>
<g id="a_Node000001"><a xlink:title=" ">
<polygon fill="#999999" stroke="#666666" points="220,-103.5 0,-103.5 0,-73 220,-73 220,-103.5"/>
<text text-anchor="start" x="8" y="-90" font-family="Helvetica,sans-Serif" font-size="10.00">edu.wpi.first.wpilibj.smartdashboard.</text>
<text text-anchor="middle" x="110" y="-78.75" font-family="Helvetica,sans-Serif" font-size="10.00">MechanismLigament2d.MechanismLigament2d</text>
</a>
</g>
</g>
<!-- Node2 -->
<g id="Node000002" class="node">
<title>Node2</title>
<g id="a_Node000002"><a xlink:href="classedu_1_1wpi_1_1first_1_1wpilibj_1_1smartdashboard_1_1_mechanism_ligament2d.html#a0a976e4cb0de7930ea2cd984c54264ba" target="_top" xlink:title=" ">
<polygon fill="white" stroke="#666666" points="434,-177.5 259,-177.5 259,-147 434,-147 434,-177.5"/>
<text text-anchor="start" x="267" y="-164" font-family="Helvetica,sans-Serif" font-size="10.00">edu.wpi.first.wpilibj.smartdashboard.</text>
<text text-anchor="middle" x="346.5" y="-152.75" font-family="Helvetica,sans-Serif" font-size="10.00">MechanismLigament2d.setAngle</text>
</a>
</g>
</g>
<!-- Node1&#45;&gt;Node2 -->
<g id="edge1_Node000001_Node000002" class="edge">
<title>Node1&#45;&gt;Node2</title>
<g id="a_edge1_Node000001_Node000002"><a xlink:title=" ">
<path fill="none" stroke="#63b8ff" d="M155.54,-103.99C184.13,-113.92 222.1,-126.8 256,-137.25 262.68,-139.31 269.66,-141.39 276.65,-143.42"/>
<polygon fill="#63b8ff" stroke="#63b8ff" points="275.56,-146.75 286.14,-146.15 277.49,-140.02 275.56,-146.75"/>
</a>
</g>
</g>
<!-- Node3 -->
<g id="Node000003" class="node">
<title>Node3</title>
<g id="a_Node000003"><a xlink:href="classedu_1_1wpi_1_1first_1_1wpilibj_1_1smartdashboard_1_1_mechanism_ligament2d.html#a02df5cc5f71ae1737ccd80271a0150b3" target="_top" xlink:title=" ">
<polygon fill="white" stroke="#666666" points="434,-128.5 259,-128.5 259,-98 434,-98 434,-128.5"/>
<text text-anchor="start" x="267" y="-115" font-family="Helvetica,sans-Serif" font-size="10.00">edu.wpi.first.wpilibj.smartdashboard.</text>
<text text-anchor="middle" x="346.5" y="-103.75" font-family="Helvetica,sans-Serif" font-size="10.00">MechanismLigament2d.setColor</text>
</a>
</g>
</g>
<!-- Node1&#45;&gt;Node3 -->
<g id="edge2_Node000001_Node000003" class="edge">
<title>Node1&#45;&gt;Node3</title>
<g id="a_edge2_Node000001_Node000003"><a xlink:title=" ">
<path fill="none" stroke="#63b8ff" d="M220.35,-99.91C229.42,-100.87 238.55,-101.85 247.53,-102.81"/>
<polygon fill="#63b8ff" stroke="#63b8ff" points="246.98,-106.27 257.29,-103.85 247.72,-99.31 246.98,-106.27"/>
</a>
</g>
</g>
<!-- Node4 -->
<g id="Node000004" class="node">
<title>Node4</title>
<g id="a_Node000004"><a xlink:href="classedu_1_1wpi_1_1first_1_1wpilibj_1_1smartdashboard_1_1_mechanism_ligament2d.html#aadc5c6dea749f2eb31f89e30ebd676db" target="_top" xlink:title=" ">
<polygon fill="white" stroke="#666666" points="434,-79.5 259,-79.5 259,-49 434,-49 434,-79.5"/>
<text text-anchor="start" x="267" y="-66" font-family="Helvetica,sans-Serif" font-size="10.00">edu.wpi.first.wpilibj.smartdashboard.</text>
<text text-anchor="middle" x="346.5" y="-54.75" font-family="Helvetica,sans-Serif" font-size="10.00">MechanismLigament2d.setLength</text>
</a>
</g>
</g>
<!-- Node1&#45;&gt;Node4 -->
<g id="edge3_Node000001_Node000004" class="edge">
<title>Node1&#45;&gt;Node4</title>
<g id="a_edge3_Node000001_Node000004"><a xlink:title=" ">
<path fill="none" stroke="#63b8ff" d="M220.35,-77.06C229.42,-76.13 238.55,-75.2 247.53,-74.28"/>
<polygon fill="#63b8ff" stroke="#63b8ff" points="247.7,-77.78 257.29,-73.28 246.99,-70.81 247.7,-77.78"/>
</a>
</g>
</g>
<!-- Node5 -->
<g id="Node000005" class="node">
<title>Node5</title>
<g id="a_Node000005"><a xlink:href="classedu_1_1wpi_1_1first_1_1wpilibj_1_1smartdashboard_1_1_mechanism_ligament2d.html#a2a87f9abadcd80051dd501a6d9cd088e" target="_top" xlink:title=" ">
<polygon fill="white" stroke="#666666" points="437,-30.5 256,-30.5 256,0 437,0 437,-30.5"/>
<text text-anchor="start" x="264" y="-17" font-family="Helvetica,sans-Serif" font-size="10.00">edu.wpi.first.wpilibj.smartdashboard.</text>
<text text-anchor="middle" x="346.5" y="-5.75" font-family="Helvetica,sans-Serif" font-size="10.00">MechanismLigament2d.setLineWeight</text>
</a>
</g>
</g>
<!-- Node1&#45;&gt;Node5 -->
<g id="edge4_Node000001_Node000005" class="edge">
<title>Node1&#45;&gt;Node5</title>
<g id="a_edge4_Node000001_Node000005"><a xlink:title=" ">
<path fill="none" stroke="#63b8ff" d="M156.54,-72.56C185.02,-62.9 222.52,-50.46 256,-40.25 262.68,-38.21 269.67,-36.15 276.66,-34.12"/>
<polygon fill="#63b8ff" stroke="#63b8ff" points="277.5,-37.52 286.15,-31.41 275.58,-30.79 277.5,-37.52"/>
</a>
</g>
</g>
</g>
</svg>
