<?xml version="1.0" encoding="UTF-8" standalone="no"?>
<!DOCTYPE svg PUBLIC "-//W3C//DTD SVG 1.1//EN"
 "http://www.w3.org/Graphics/SVG/1.1/DTD/svg11.dtd">
<!-- Generated by graphviz version 9.0.0 (20230911.1827)
 -->
<!-- Title: edu.wpi.first.wpilibj.PWM.getChannel Pages: 1 -->
<svg width="543pt" height="676pt"
 viewBox="0.00 0.00 542.75 675.50" xmlns="http://www.w3.org/2000/svg" xmlns:xlink="http://www.w3.org/1999/xlink">
<g id="graph0" class="graph" transform="scale(1 1) rotate(0) translate(4 671.5)">
<title>edu.wpi.first.wpilibj.PWM.getChannel</title>
<!-- Node1 -->
<g id="Node000001" class="node">
<title>Node1</title>
<g id="a_Node000001"><a xlink:title=" ">
<polygon fill="#999999" stroke="#666666" points="534.75,-299.5 391.25,-299.5 391.25,-269 534.75,-269 534.75,-299.5"/>
<text text-anchor="start" x="399.25" y="-286" font-family="Helvetica,sans-Serif" font-size="10.00">edu.wpi.first.wpilibj.PWM.get</text>
<text text-anchor="middle" x="463" y="-274.75" font-family="Helvetica,sans-Serif" font-size="10.00">Channel</text>
</a>
</g>
</g>
<!-- Node2 -->
<g id="Node000002" class="node">
<title>Node2</title>
<g id="a_Node000002"><a xlink:href="classedu_1_1wpi_1_1first_1_1wpilibj_1_1motorcontrol_1_1_p_w_m_motor_controller.html#ad3239e59cd2d8d8c95ff34126311bc76" target="_top" xlink:title=" ">
<polygon fill="white" stroke="#666666" points="355.25,-348.5 196,-348.5 196,-318 355.25,-318 355.25,-348.5"/>
<text text-anchor="start" x="204" y="-335" font-family="Helvetica,sans-Serif" font-size="10.00">edu.wpi.first.wpilibj.motorcontrol.</text>
<text text-anchor="middle" x="275.62" y="-323.75" font-family="Helvetica,sans-Serif" font-size="10.00">PWMMotorController.getChannel</text>
</a>
</g>
</g>
<!-- Node1&#45;&gt;Node2 -->
<g id="edge1_Node000001_Node000002" class="edge">
<title>Node1&#45;&gt;Node2</title>
<g id="a_edge1_Node000001_Node000002"><a xlink:title=" ">
<path fill="none" stroke="#63b8ff" d="M391.65,-302.84C373.31,-307.69 353.73,-312.87 336.03,-317.55"/>
<polygon fill="#63b8ff" stroke="#63b8ff" points="392.34,-306.28 401.12,-300.34 390.56,-299.51 392.34,-306.28"/>
</a>
</g>
</g>
<!-- Node17 -->
<g id="Node000017" class="node">
<title>Node17</title>
<g id="a_Node000017"><a xlink:href="classedu_1_1wpi_1_1first_1_1wpilibj_1_1simulation_1_1_p_w_m_sim.html#a688b29fb47cb9f05468dd42693826bc8" target="_top" xlink:title=" ">
<polygon fill="white" stroke="#666666" points="350.38,-299.5 200.88,-299.5 200.88,-269 350.38,-269 350.38,-299.5"/>
<text text-anchor="start" x="208.88" y="-286" font-family="Helvetica,sans-Serif" font-size="10.00">edu.wpi.first.wpilibj.simulation.</text>
<text text-anchor="middle" x="275.62" y="-274.75" font-family="Helvetica,sans-Serif" font-size="10.00">PWMSim.PWMSim</text>
</a>
</g>
</g>
<!-- Node1&#45;&gt;Node17 -->
<g id="edge16_Node000001_Node000017" class="edge">
<title>Node1&#45;&gt;Node17</title>
<g id="a_edge16_Node000001_Node000017"><a xlink:title=" ">
<path fill="none" stroke="#63b8ff" d="M379.63,-284.25C369.98,-284.25 360.17,-284.25 350.65,-284.25"/>
<polygon fill="#63b8ff" stroke="#63b8ff" points="379.35,-287.75 389.35,-284.25 379.35,-280.75 379.35,-287.75"/>
</a>
</g>
</g>
<!-- Node18 -->
<g id="Node000018" class="node">
<title>Node18</title>
<g id="a_Node000018"><a xlink:href="classedu_1_1wpi_1_1first_1_1wpilibj_1_1_servo.html#a7e3099c177e13a98d69911936d6ea566" target="_top" xlink:title=" ">
<polygon fill="white" stroke="#666666" points="341,-250.5 210.25,-250.5 210.25,-220 341,-220 341,-250.5"/>
<text text-anchor="start" x="218.25" y="-237" font-family="Helvetica,sans-Serif" font-size="10.00">edu.wpi.first.wpilibj.Servo.</text>
<text text-anchor="middle" x="275.62" y="-225.75" font-family="Helvetica,sans-Serif" font-size="10.00">Servo</text>
</a>
</g>
</g>
<!-- Node1&#45;&gt;Node18 -->
<g id="edge17_Node000001_Node000018" class="edge">
<title>Node1&#45;&gt;Node18</title>
<g id="a_edge17_Node000001_Node000018"><a xlink:title=" ">
<path fill="none" stroke="#63b8ff" d="M391.65,-265.66C373.31,-260.81 353.73,-255.63 336.03,-250.95"/>
<polygon fill="#63b8ff" stroke="#63b8ff" points="390.56,-268.99 401.12,-268.16 392.34,-262.22 390.56,-268.99"/>
</a>
</g>
</g>
<!-- Node3 -->
<g id="Node000003" class="node">
<title>Node3</title>
<g id="a_Node000003"><a xlink:href="classedu_1_1wpi_1_1first_1_1wpilibj_1_1motorcontrol_1_1_d_m_c60.html#a9a1de23861320905e0a0fe3c8e6fe47a" target="_top" xlink:title=" ">
<polygon fill="white" stroke="#666666" points="159.62,-667.5 0.38,-667.5 0.38,-637 159.62,-637 159.62,-667.5"/>
<text text-anchor="start" x="8.38" y="-654" font-family="Helvetica,sans-Serif" font-size="10.00">edu.wpi.first.wpilibj.motorcontrol.</text>
<text text-anchor="middle" x="80" y="-642.75" font-family="Helvetica,sans-Serif" font-size="10.00">DMC60.DMC60</text>
</a>
</g>
</g>
<!-- Node2&#45;&gt;Node3 -->
<g id="edge2_Node000002_Node000003" class="edge">
<title>Node2&#45;&gt;Node3</title>
<g id="a_edge2_Node000002_Node000003"><a xlink:title=" ">
<path fill="none" stroke="#63b8ff" d="M271.83,-360.29C264.43,-417.81 239.15,-553.1 160,-627.25 156.12,-630.89 151.7,-634 147,-636.65"/>
<polygon fill="#63b8ff" stroke="#63b8ff" points="275.29,-360.78 273,-350.44 268.34,-359.96 275.29,-360.78"/>
</a>
</g>
</g>
<!-- Node4 -->
<g id="Node000004" class="node">
<title>Node4</title>
<g id="a_Node000004"><a xlink:href="classedu_1_1wpi_1_1first_1_1wpilibj_1_1motorcontrol_1_1_jaguar.html#a6f0588860cf77ad3721b9a016427c392" target="_top" xlink:title=" ">
<polygon fill="white" stroke="#666666" points="159.62,-618.5 0.38,-618.5 0.38,-588 159.62,-588 159.62,-618.5"/>
<text text-anchor="start" x="8.38" y="-605" font-family="Helvetica,sans-Serif" font-size="10.00">edu.wpi.first.wpilibj.motorcontrol.</text>
<text text-anchor="middle" x="80" y="-593.75" font-family="Helvetica,sans-Serif" font-size="10.00">Jaguar.Jaguar</text>
</a>
</g>
</g>
<!-- Node2&#45;&gt;Node4 -->
<g id="edge3_Node000002_Node000004" class="edge">
<title>Node2&#45;&gt;Node4</title>
<g id="a_edge3_Node000002_Node000004"><a xlink:title=" ">
<path fill="none" stroke="#63b8ff" d="M269.53,-359.9C258.57,-410.02 228.01,-518.62 160,-578.25 155.89,-581.85 151.26,-584.94 146.35,-587.58"/>
<polygon fill="#63b8ff" stroke="#63b8ff" points="272.93,-360.74 271.55,-350.24 266.08,-359.31 272.93,-360.74"/>
</a>
</g>
</g>
<!-- Node5 -->
<g id="Node000005" class="node">
<title>Node5</title>
<g id="a_Node000005"><a xlink:href="classedu_1_1wpi_1_1first_1_1wpilibj_1_1simulation_1_1_p_w_m_sim.html#aaa490f63bb57a27eee26cc4ba68ff0f1" target="_top" xlink:title=" ">
<polygon fill="white" stroke="#666666" points="154.75,-569.5 5.25,-569.5 5.25,-539 154.75,-539 154.75,-569.5"/>
<text text-anchor="start" x="13.25" y="-556" font-family="Helvetica,sans-Serif" font-size="10.00">edu.wpi.first.wpilibj.simulation.</text>
<text text-anchor="middle" x="80" y="-544.75" font-family="Helvetica,sans-Serif" font-size="10.00">PWMSim.PWMSim</text>
</a>
</g>
</g>
<!-- Node2&#45;&gt;Node5 -->
<g id="edge4_Node000002_Node000005" class="edge">
<title>Node2&#45;&gt;Node5</title>
<g id="a_edge4_Node000002_Node000005"><a xlink:title=" ">
<path fill="none" stroke="#63b8ff" d="M266.24,-359.55C251.5,-401.56 217.01,-483.71 160,-529.25 155.5,-532.84 150.48,-535.92 145.21,-538.56"/>
<polygon fill="#63b8ff" stroke="#63b8ff" points="269.49,-360.85 269.38,-350.26 262.86,-358.61 269.49,-360.85"/>
</a>
</g>
</g>
<!-- Node6 -->
<g id="Node000006" class="node">
<title>Node6</title>
<g id="a_Node000006"><a xlink:href="classedu_1_1wpi_1_1first_1_1wpilibj_1_1motorcontrol_1_1_p_w_m_spark_flex.html#a20063b0b6d262f18cf29ae24284007a4" target="_top" xlink:title=" ">
<polygon fill="white" stroke="#666666" points="159.62,-520.5 0.38,-520.5 0.38,-490 159.62,-490 159.62,-520.5"/>
<text text-anchor="start" x="8.38" y="-507" font-family="Helvetica,sans-Serif" font-size="10.00">edu.wpi.first.wpilibj.motorcontrol.</text>
<text text-anchor="middle" x="80" y="-495.75" font-family="Helvetica,sans-Serif" font-size="10.00">PWMSparkFlex.PWMSparkFlex</text>
</a>
</g>
</g>
<!-- Node2&#45;&gt;Node6 -->
<g id="edge5_Node000002_Node000006" class="edge">
<title>Node2&#45;&gt;Node6</title>
<g id="a_edge5_Node000002_Node000006"><a xlink:title=" ">
<path fill="none" stroke="#63b8ff" d="M261.44,-358.35C243.01,-391.06 206.52,-447.91 160,-480.25 154.8,-483.86 149.06,-486.97 143.11,-489.65"/>
<polygon fill="#63b8ff" stroke="#63b8ff" points="264.3,-360.41 266.05,-349.96 258.17,-357.04 264.3,-360.41"/>
</a>
</g>
</g>
<!-- Node7 -->
<g id="Node000007" class="node">
<title>Node7</title>
<g id="a_Node000007"><a xlink:href="classedu_1_1wpi_1_1first_1_1wpilibj_1_1motorcontrol_1_1_p_w_m_spark_max.html#ac0dea231aee0e670d804c346b990dd78" target="_top" xlink:title=" ">
<polygon fill="white" stroke="#666666" points="159.62,-471.5 0.38,-471.5 0.38,-441 159.62,-441 159.62,-471.5"/>
<text text-anchor="start" x="8.38" y="-458" font-family="Helvetica,sans-Serif" font-size="10.00">edu.wpi.first.wpilibj.motorcontrol.</text>
<text text-anchor="middle" x="80" y="-446.75" font-family="Helvetica,sans-Serif" font-size="10.00">PWMSparkMax.PWMSparkMax</text>
</a>
</g>
</g>
<!-- Node2&#45;&gt;Node7 -->
<g id="edge6_Node000002_Node000007" class="edge">
<title>Node2&#45;&gt;Node7</title>
<g id="a_edge6_Node000002_Node000007"><a xlink:title=" ">
<path fill="none" stroke="#63b8ff" d="M252.64,-356.87C230.97,-378.9 195.97,-411.28 160,-431.25 153.71,-434.74 146.87,-437.82 139.92,-440.52"/>
<polygon fill="#63b8ff" stroke="#63b8ff" points="255.05,-359.41 259.48,-349.79 250.02,-354.55 255.05,-359.41"/>
</a>
</g>
</g>
<!-- Node8 -->
<g id="Node000008" class="node">
<title>Node8</title>
<g id="a_Node000008"><a xlink:href="classedu_1_1wpi_1_1first_1_1wpilibj_1_1motorcontrol_1_1_p_w_m_talon_f_x.html#ae924f656191b05953864907f8241d2fa" target="_top" xlink:title=" ">
<polygon fill="white" stroke="#666666" points="159.62,-422.5 0.38,-422.5 0.38,-392 159.62,-392 159.62,-422.5"/>
<text text-anchor="start" x="8.38" y="-409" font-family="Helvetica,sans-Serif" font-size="10.00">edu.wpi.first.wpilibj.motorcontrol.</text>
<text text-anchor="middle" x="80" y="-397.75" font-family="Helvetica,sans-Serif" font-size="10.00">PWMTalonFX.PWMTalonFX</text>
</a>
</g>
</g>
<!-- Node2&#45;&gt;Node8 -->
<g id="edge7_Node000002_Node000008" class="edge">
<title>Node2&#45;&gt;Node8</title>
<g id="a_edge7_Node000002_Node000008"><a xlink:title=" ">
<path fill="none" stroke="#63b8ff" d="M230.12,-353.47C209.05,-362.73 183.43,-373.56 160,-382.25 151.37,-385.45 142.11,-388.62 133.09,-391.56"/>
<polygon fill="#63b8ff" stroke="#63b8ff" points="231.26,-356.8 238.98,-349.54 228.42,-350.4 231.26,-356.8"/>
</a>
</g>
</g>
<!-- Node9 -->
<g id="Node000009" class="node">
<title>Node9</title>
<g id="a_Node000009"><a xlink:href="classedu_1_1wpi_1_1first_1_1wpilibj_1_1motorcontrol_1_1_p_w_m_talon_s_r_x.html#ad3980f8d0fb4456e4a7177d631fbabdb" target="_top" xlink:title=" ">
<polygon fill="white" stroke="#666666" points="159.62,-373.5 0.38,-373.5 0.38,-343 159.62,-343 159.62,-373.5"/>
<text text-anchor="start" x="8.38" y="-360" font-family="Helvetica,sans-Serif" font-size="10.00">edu.wpi.first.wpilibj.motorcontrol.</text>
<text text-anchor="middle" x="80" y="-348.75" font-family="Helvetica,sans-Serif" font-size="10.00">PWMTalonSRX.PWMTalonSRX</text>
</a>
</g>
</g>
<!-- Node2&#45;&gt;Node9 -->
<g id="edge8_Node000002_Node000009" class="edge">
<title>Node2&#45;&gt;Node9</title>
<g id="a_edge8_Node000002_Node000009"><a xlink:title=" ">
<path fill="none" stroke="#63b8ff" d="M184.25,-344.92C176.18,-345.96 168.06,-347.01 160.1,-348.04"/>
<polygon fill="#63b8ff" stroke="#63b8ff" points="184.62,-348.4 194.09,-343.65 183.72,-341.46 184.62,-348.4"/>
</a>
</g>
</g>
<!-- Node10 -->
<g id="Node000010" class="node">
<title>Node10</title>
<g id="a_Node000010"><a xlink:href="classedu_1_1wpi_1_1first_1_1wpilibj_1_1motorcontrol_1_1_p_w_m_venom.html#a0121603978921ac1581f6a2b04c69d87" target="_top" xlink:title=" ">
<polygon fill="white" stroke="#666666" points="159.62,-324.5 0.38,-324.5 0.38,-294 159.62,-294 159.62,-324.5"/>
<text text-anchor="start" x="8.38" y="-311" font-family="Helvetica,sans-Serif" font-size="10.00">edu.wpi.first.wpilibj.motorcontrol.</text>
<text text-anchor="middle" x="80" y="-299.75" font-family="Helvetica,sans-Serif" font-size="10.00">PWMVenom.PWMVenom</text>
</a>
</g>
</g>
<!-- Node2&#45;&gt;Node10 -->
<g id="edge9_Node000002_Node000010" class="edge">
<title>Node2&#45;&gt;Node10</title>
<g id="a_edge9_Node000002_Node000010"><a xlink:title=" ">
<path fill="none" stroke="#63b8ff" d="M184.25,-322.05C176.18,-321.05 168.06,-320.04 160.1,-319.05"/>
<polygon fill="#63b8ff" stroke="#63b8ff" points="183.73,-325.51 194.09,-323.27 184.6,-318.56 183.73,-325.51"/>
</a>
</g>
</g>
<!-- Node11 -->
<g id="Node000011" class="node">
<title>Node11</title>
<g id="a_Node000011"><a xlink:href="classedu_1_1wpi_1_1first_1_1wpilibj_1_1motorcontrol_1_1_p_w_m_victor_s_p_x.html#a776cb8880ae04d3e3c5f2b83b46ba780" target="_top" xlink:title=" ">
<polygon fill="white" stroke="#666666" points="160,-275.5 0,-275.5 0,-245 160,-245 160,-275.5"/>
<text text-anchor="start" x="8" y="-262" font-family="Helvetica,sans-Serif" font-size="10.00">edu.wpi.first.wpilibj.motorcontrol.</text>
<text text-anchor="middle" x="80" y="-250.75" font-family="Helvetica,sans-Serif" font-size="10.00">PWMVictorSPX.PWMVictorSPX</text>
</a>
</g>
</g>
<!-- Node2&#45;&gt;Node11 -->
<g id="edge10_Node000002_Node000011" class="edge">
<title>Node2&#45;&gt;Node11</title>
<g id="a_edge10_Node000002_Node000011"><a xlink:title=" ">
<path fill="none" stroke="#63b8ff" d="M208.34,-313.57C204.12,-311.88 199.97,-310.11 196,-308.25 178.81,-300.19 177.2,-293.29 160,-285.25 152.7,-281.84 144.82,-278.72 136.95,-275.93"/>
<polygon fill="#63b8ff" stroke="#63b8ff" points="206.93,-316.77 217.52,-317.01 209.39,-310.22 206.93,-316.77"/>
</a>
</g>
</g>
<!-- Node12 -->
<g id="Node000012" class="node">
<title>Node12</title>
<g id="a_Node000012"><a xlink:href="classedu_1_1wpi_1_1first_1_1wpilibj_1_1motorcontrol_1_1_s_d540.html#a4941de5e2a0cba493ea3af12a7eae00b" target="_top" xlink:title=" ">
<polygon fill="white" stroke="#666666" points="159.62,-226.5 0.38,-226.5 0.38,-196 159.62,-196 159.62,-226.5"/>
<text text-anchor="start" x="8.38" y="-213" font-family="Helvetica,sans-Serif" font-size="10.00">edu.wpi.first.wpilibj.motorcontrol.</text>
<text text-anchor="middle" x="80" y="-201.75" font-family="Helvetica,sans-Serif" font-size="10.00">SD540.SD540</text>
</a>
</g>
</g>
<!-- Node2&#45;&gt;Node12 -->
<g id="edge11_Node000002_Node000012" class="edge">
<title>Node2&#45;&gt;Node12</title>
<g id="a_edge11_Node000002_Node000012"><a xlink:title=" ">
<path fill="none" stroke="#63b8ff" d="M200.56,-311.81C198.98,-310.68 197.46,-309.5 196,-308.25 168.81,-285 187.21,-259.48 160,-236.25 155.73,-232.61 150.93,-229.49 145.86,-226.83"/>
<polygon fill="#63b8ff" stroke="#63b8ff" points="198.42,-314.61 208.78,-316.85 202.08,-308.64 198.42,-314.61"/>
</a>
</g>
</g>
<!-- Node13 -->
<g id="Node000013" class="node">
<title>Node13</title>
<g id="a_Node000013"><a xlink:href="classedu_1_1wpi_1_1first_1_1wpilibj_1_1motorcontrol_1_1_spark.html#aab46d8b2428e12dfe4cd4b729d0bb7ac" target="_top" xlink:title=" ">
<polygon fill="white" stroke="#666666" points="159.62,-177.5 0.38,-177.5 0.38,-147 159.62,-147 159.62,-177.5"/>
<text text-anchor="start" x="8.38" y="-164" font-family="Helvetica,sans-Serif" font-size="10.00">edu.wpi.first.wpilibj.motorcontrol.</text>
<text text-anchor="middle" x="80" y="-152.75" font-family="Helvetica,sans-Serif" font-size="10.00">Spark.Spark</text>
</a>
</g>
</g>
<!-- Node2&#45;&gt;Node13 -->
<g id="edge12_Node000002_Node000013" class="edge">
<title>Node2&#45;&gt;Node13</title>
<g id="a_edge12_Node000002_Node000013"><a xlink:title=" ">
<path fill="none" stroke="#63b8ff" d="M198.73,-310.84C197.79,-310.01 196.88,-309.14 196,-308.25 156.7,-268.21 199.33,-227.27 160,-187.25 156.47,-183.66 152.43,-180.58 148.08,-177.95"/>
<polygon fill="#63b8ff" stroke="#63b8ff" points="196.5,-313.55 206.64,-316.63 200.64,-307.9 196.5,-313.55"/>
</a>
</g>
</g>
<!-- Node14 -->
<g id="Node000014" class="node">
<title>Node14</title>
<g id="a_Node000014"><a xlink:href="classedu_1_1wpi_1_1first_1_1wpilibj_1_1motorcontrol_1_1_talon.html#ac7bb4c74ea62cf264dba580b6460d08b" target="_top" xlink:title=" ">
<polygon fill="white" stroke="#666666" points="159.62,-128.5 0.38,-128.5 0.38,-98 159.62,-98 159.62,-128.5"/>
<text text-anchor="start" x="8.38" y="-115" font-family="Helvetica,sans-Serif" font-size="10.00">edu.wpi.first.wpilibj.motorcontrol.</text>
<text text-anchor="middle" x="80" y="-103.75" font-family="Helvetica,sans-Serif" font-size="10.00">Talon.Talon</text>
</a>
</g>
</g>
<!-- Node2&#45;&gt;Node14 -->
<g id="edge13_Node000002_Node000014" class="edge">
<title>Node2&#45;&gt;Node14</title>
<g id="a_edge13_Node000002_Node000014"><a xlink:title=" ">
<path fill="none" stroke="#63b8ff" d="M198.22,-310.55C197.45,-309.8 196.72,-309.04 196,-308.25 144.16,-251 211.88,-195.46 160,-138.25 156.71,-134.63 152.91,-131.52 148.78,-128.87"/>
<polygon fill="#63b8ff" stroke="#63b8ff" points="195.96,-313.22 205.98,-316.66 200.29,-307.72 195.96,-313.22"/>
</a>
</g>
</g>
<!-- Node15 -->
<g id="Node000015" class="node">
<title>Node15</title>
<g id="a_Node000015"><a xlink:href="classedu_1_1wpi_1_1first_1_1wpilibj_1_1motorcontrol_1_1_victor.html#a0d74f33a24b20cd1a2dbfac22ca51bc9" target="_top" xlink:title=" ">
<polygon fill="white" stroke="#666666" points="159.62,-79.5 0.38,-79.5 0.38,-49 159.62,-49 159.62,-79.5"/>
<text text-anchor="start" x="8.38" y="-66" font-family="Helvetica,sans-Serif" font-size="10.00">edu.wpi.first.wpilibj.motorcontrol.</text>
<text text-anchor="middle" x="80" y="-54.75" font-family="Helvetica,sans-Serif" font-size="10.00">Victor.Victor</text>
</a>
</g>
</g>
<!-- Node2&#45;&gt;Node15 -->
<g id="edge14_Node000002_Node000015" class="edge">
<title>Node2&#45;&gt;Node15</title>
<g id="a_edge14_Node000002_Node000015"><a xlink:title=" ">
<path fill="none" stroke="#63b8ff" d="M197.79,-310.21C197.18,-309.57 196.58,-308.92 196,-308.25 131.48,-233.63 224.57,-163.82 160,-89.25 156.89,-85.66 153.27,-82.58 149.33,-79.94"/>
<polygon fill="#63b8ff" stroke="#63b8ff" points="195.52,-312.87 205.46,-316.56 199.99,-307.49 195.52,-312.87"/>
</a>
</g>
</g>
<!-- Node16 -->
<g id="Node000016" class="node">
<title>Node16</title>
<g id="a_Node000016"><a xlink:href="classedu_1_1wpi_1_1first_1_1wpilibj_1_1motorcontrol_1_1_victor_s_p.html#a9824d01b4d1eecd1a15539bb1bb0102d" target="_top" xlink:title=" ">
<polygon fill="white" stroke="#666666" points="159.62,-30.5 0.38,-30.5 0.38,0 159.62,0 159.62,-30.5"/>
<text text-anchor="start" x="8.38" y="-17" font-family="Helvetica,sans-Serif" font-size="10.00">edu.wpi.first.wpilibj.motorcontrol.</text>
<text text-anchor="middle" x="80" y="-5.75" font-family="Helvetica,sans-Serif" font-size="10.00">VictorSP.VictorSP</text>
</a>
</g>
</g>
<!-- Node2&#45;&gt;Node16 -->
<g id="edge15_Node000002_Node000016" class="edge">
<title>Node2&#45;&gt;Node16</title>
<g id="a_edge15_Node000002_Node000016"><a xlink:title=" ">
<path fill="none" stroke="#63b8ff" d="M197.76,-310.23C197.16,-309.59 196.57,-308.93 196,-308.25 118.74,-216.19 237.32,-132.25 160,-40.25 156.95,-36.62 153.37,-33.5 149.45,-30.84"/>
<polygon fill="#63b8ff" stroke="#63b8ff" points="195.45,-312.86 205.34,-316.65 199.98,-307.52 195.45,-312.86"/>
</a>
</g>
</g>
</g>
</svg>
