<?xml version="1.0" encoding="UTF-8" standalone="no"?>
<!DOCTYPE svg PUBLIC "-//W3C//DTD SVG 1.1//EN"
 "http://www.w3.org/Graphics/SVG/1.1/DTD/svg11.dtd">
<!-- Generated by graphviz version 9.0.0 (20230911.1827)
 -->
<!-- Title: edu.wpi.first.wpilibj.Watchdog.printEpochs Pages: 1 -->
<svg width="527pt" height="57pt"
 viewBox="0.00 0.00 527.00 56.50" xmlns="http://www.w3.org/2000/svg" xmlns:xlink="http://www.w3.org/1999/xlink">
<g id="graph0" class="graph" transform="scale(1 1) rotate(0) translate(4 52.5)">
<title>edu.wpi.first.wpilibj.Watchdog.printEpochs</title>
<!-- Node1 -->
<g id="Node000001" class="node">
<title>Node1</title>
<g id="a_Node000001"><a xlink:title=" ">
<polygon fill="#999999" stroke="#666666" points="167.5,-30.5 0,-30.5 0,0 167.5,0 167.5,-30.5"/>
<text text-anchor="start" x="8" y="-17" font-family="Helvetica,sans-Serif" font-size="10.00">edu.wpi.first.wpilibj.Watchdog.print</text>
<text text-anchor="middle" x="83.75" y="-5.75" font-family="Helvetica,sans-Serif" font-size="10.00">Epochs</text>
</a>
</g>
</g>
<!-- Node2 -->
<g id="Node000002" class="node">
<title>Node2</title>
<g id="a_Node000002"><a xlink:href="classedu_1_1wpi_1_1first_1_1wpilibj_1_1_tracer.html#a3949db6cbd88bbf06f7e9fc70194c1b1" target="_top" xlink:title=" ">
<polygon fill="white" stroke="#666666" points="354.5,-30.5 203.5,-30.5 203.5,0 354.5,0 354.5,-30.5"/>
<text text-anchor="start" x="211.5" y="-17" font-family="Helvetica,sans-Serif" font-size="10.00">edu.wpi.first.wpilibj.Tracer.print</text>
<text text-anchor="middle" x="279" y="-5.75" font-family="Helvetica,sans-Serif" font-size="10.00">Epochs</text>
</a>
</g>
</g>
<!-- Node1&#45;&gt;Node2 -->
<g id="edge1_Node000001_Node000002" class="edge">
<title>Node1&#45;&gt;Node2</title>
<g id="a_edge1_Node000001_Node000002"><a xlink:title=" ">
<path fill="none" stroke="#63b8ff" d="M167.83,-15.25C175.82,-15.25 183.95,-15.25 191.97,-15.25"/>
<polygon fill="#63b8ff" stroke="#63b8ff" points="191.71,-18.75 201.71,-15.25 191.71,-11.75 191.71,-18.75"/>
</a>
</g>
</g>
<!-- Node2&#45;&gt;Node2 -->
<g id="edge2_Node000002_Node000002" class="edge">
<title>Node2&#45;&gt;Node2</title>
<g id="a_edge2_Node000002_Node000002"><a xlink:title=" ">
<path fill="none" stroke="#63b8ff" d="M247.86,-30.99C241.5,-40.06 251.88,-48.5 279,-48.5 293.83,-48.5 303.65,-45.97 308.47,-42.2"/>
<polygon fill="#63b8ff" stroke="#63b8ff" points="311.91,-42.89 309.92,-32.48 304.99,-41.86 311.91,-42.89"/>
</a>
</g>
</g>
<!-- Node3 -->
<g id="Node000003" class="node">
<title>Node3</title>
<g id="a_Node000003"><a xlink:href="classedu_1_1wpi_1_1first_1_1wpilibj_1_1_driver_station.html#a8446c52983088af3fba8adc2b0d3df8c" target="_top" xlink:title=" ">
<polygon fill="white" stroke="#666666" points="519,-30.5 390.5,-30.5 390.5,0 519,0 519,-30.5"/>
<text text-anchor="start" x="398.5" y="-17" font-family="Helvetica,sans-Serif" font-size="10.00">edu.wpi.first.wpilibj.Driver</text>
<text text-anchor="middle" x="454.75" y="-5.75" font-family="Helvetica,sans-Serif" font-size="10.00">Station.reportWarning</text>
</a>
</g>
</g>
<!-- Node2&#45;&gt;Node3 -->
<g id="edge3_Node000002_Node000003" class="edge">
<title>Node2&#45;&gt;Node3</title>
<g id="a_edge3_Node000002_Node000003"><a xlink:title=" ">
<path fill="none" stroke="#63b8ff" d="M354.95,-15.25C362.85,-15.25 370.88,-15.25 378.78,-15.25"/>
<polygon fill="#63b8ff" stroke="#63b8ff" points="378.71,-18.75 388.71,-15.25 378.71,-11.75 378.71,-18.75"/>
</a>
</g>
</g>
</g>
</svg>
