<?xml version="1.0" encoding="UTF-8" standalone="no"?>
<!DOCTYPE svg PUBLIC "-//W3C//DTD SVG 1.1//EN"
 "http://www.w3.org/Graphics/SVG/1.1/DTD/svg11.dtd">
<!-- Generated by graphviz version 9.0.0 (20230911.1827)
 -->
<!-- Title: edu.wpi.first.wpilibj.simulation.AnalogEncoderSim.AnalogEncoderSim Pages: 1 -->
<svg width="547pt" height="88pt"
 viewBox="0.00 0.00 547.25 87.50" xmlns="http://www.w3.org/2000/svg" xmlns:xlink="http://www.w3.org/1999/xlink">
<g id="graph0" class="graph" transform="scale(1 1) rotate(0) translate(4 83.5)">
<title>edu.wpi.first.wpilibj.simulation.AnalogEncoderSim.AnalogEncoderSim</title>
<!-- Node1 -->
<g id="Node000001" class="node">
<title>Node1</title>
<g id="a_Node000001"><a xlink:title=" ">
<polygon fill="#999999" stroke="#666666" points="185.5,-54.5 0,-54.5 0,-24 185.5,-24 185.5,-54.5"/>
<text text-anchor="start" x="8" y="-41" font-family="Helvetica,sans-Serif" font-size="10.00">edu.wpi.first.wpilibj.simulation.</text>
<text text-anchor="middle" x="92.75" y="-29.75" font-family="Helvetica,sans-Serif" font-size="10.00">AnalogEncoderSim.AnalogEncoderSim</text>
</a>
</g>
</g>
<!-- Node2 -->
<g id="Node000002" class="node">
<title>Node2</title>
<g id="a_Node000002"><a xlink:href="classedu_1_1wpi_1_1first_1_1wpilibj_1_1_analog_encoder.html#a56a08d6a579fe09f679dea306f8a0b30" target="_top" xlink:title=" ">
<polygon fill="white" stroke="#666666" points="362.38,-79.5 230.12,-79.5 230.12,-49 362.38,-49 362.38,-79.5"/>
<text text-anchor="start" x="238.12" y="-66" font-family="Helvetica,sans-Serif" font-size="10.00">edu.wpi.first.wpilibj.Analog</text>
<text text-anchor="middle" x="296.25" y="-54.75" font-family="Helvetica,sans-Serif" font-size="10.00">Encoder.getChannel</text>
</a>
</g>
</g>
<!-- Node1&#45;&gt;Node2 -->
<g id="edge1_Node000001_Node000002" class="edge">
<title>Node1&#45;&gt;Node2</title>
<g id="a_edge1_Node000001_Node000002"><a xlink:title=" ">
<path fill="none" stroke="#63b8ff" d="M185.95,-50.69C196.83,-52.04 207.85,-53.41 218.49,-54.73"/>
<polygon fill="#63b8ff" stroke="#63b8ff" points="218,-58.19 228.35,-55.95 218.86,-51.25 218,-58.19"/>
</a>
</g>
</g>
<!-- Node4 -->
<g id="Node000004" class="node">
<title>Node4</title>
<g id="a_Node000004"><a xlink:href="classedu_1_1wpi_1_1first_1_1wpilibj_1_1simulation_1_1_sim_device_sim.html#a18ff83cec047ed1551deb66bde7147da" target="_top" xlink:title=" ">
<polygon fill="white" stroke="#666666" points="371,-30.5 221.5,-30.5 221.5,0 371,0 371,-30.5"/>
<text text-anchor="start" x="229.5" y="-17" font-family="Helvetica,sans-Serif" font-size="10.00">edu.wpi.first.wpilibj.simulation.</text>
<text text-anchor="middle" x="296.25" y="-5.75" font-family="Helvetica,sans-Serif" font-size="10.00">SimDeviceSim.getDouble</text>
</a>
</g>
</g>
<!-- Node1&#45;&gt;Node4 -->
<g id="edge3_Node000001_Node000004" class="edge">
<title>Node1&#45;&gt;Node4</title>
<g id="a_edge3_Node000001_Node000004"><a xlink:title=" ">
<path fill="none" stroke="#63b8ff" d="M185.95,-28.27C193.89,-27.32 201.9,-26.37 209.78,-25.43"/>
<polygon fill="#63b8ff" stroke="#63b8ff" points="210.19,-28.91 219.7,-24.25 209.36,-21.96 210.19,-28.91"/>
</a>
</g>
</g>
<!-- Node3 -->
<g id="Node000003" class="node">
<title>Node3</title>
<g id="a_Node000003"><a xlink:href="classedu_1_1wpi_1_1first_1_1wpilibj_1_1_analog_input.html#a53387e6a4b48bef6c78527aefa35ed11" target="_top" xlink:title=" ">
<polygon fill="white" stroke="#666666" points="539.25,-79.5 407,-79.5 407,-49 539.25,-49 539.25,-79.5"/>
<text text-anchor="start" x="415" y="-66" font-family="Helvetica,sans-Serif" font-size="10.00">edu.wpi.first.wpilibj.Analog</text>
<text text-anchor="middle" x="473.12" y="-54.75" font-family="Helvetica,sans-Serif" font-size="10.00">Input.getChannel</text>
</a>
</g>
</g>
<!-- Node2&#45;&gt;Node3 -->
<g id="edge2_Node000002_Node000003" class="edge">
<title>Node2&#45;&gt;Node3</title>
<g id="a_edge2_Node000002_Node000003"><a xlink:title=" ">
<path fill="none" stroke="#63b8ff" d="M362.86,-64.25C373.51,-64.25 384.62,-64.25 395.5,-64.25"/>
<polygon fill="#63b8ff" stroke="#63b8ff" points="395.21,-67.75 405.21,-64.25 395.21,-60.75 395.21,-67.75"/>
</a>
</g>
</g>
</g>
</svg>
