<?xml version="1.0" encoding="UTF-8" standalone="no"?>
<!DOCTYPE svg PUBLIC "-//W3C//DTD SVG 1.1//EN"
 "http://www.w3.org/Graphics/SVG/1.1/DTD/svg11.dtd">
<!-- Generated by graphviz version 9.0.0 (20230911.1827)
 -->
<!-- Title: edu.wpi.first.wpilibj.simulation.AnalogGyroSim.AnalogGyroSim Pages: 1 -->
<svg width="332pt" height="88pt"
 viewBox="0.00 0.00 331.75 87.50" xmlns="http://www.w3.org/2000/svg" xmlns:xlink="http://www.w3.org/1999/xlink">
<g id="graph0" class="graph" transform="scale(1 1) rotate(0) translate(4 83.5)">
<title>edu.wpi.first.wpilibj.simulation.AnalogGyroSim.AnalogGyroSim</title>
<!-- Node1 -->
<g id="Node000001" class="node">
<title>Node1</title>
<g id="a_Node000001"><a xlink:title=" ">
<polygon fill="#999999" stroke="#666666" points="155.5,-54.5 0,-54.5 0,-24 155.5,-24 155.5,-54.5"/>
<text text-anchor="start" x="8" y="-41" font-family="Helvetica,sans-Serif" font-size="10.00">edu.wpi.first.wpilibj.simulation.</text>
<text text-anchor="middle" x="77.75" y="-29.75" font-family="Helvetica,sans-Serif" font-size="10.00">AnalogGyroSim.AnalogGyroSim</text>
</a>
</g>
</g>
<!-- Node2 -->
<g id="Node000002" class="node">
<title>Node2</title>
<g id="a_Node000002"><a xlink:href="classedu_1_1wpi_1_1first_1_1wpilibj_1_1_analog_gyro.html#a1812cad73807d59a14a1c21347d9e86c" target="_top" xlink:title=" ">
<polygon fill="white" stroke="#666666" points="323.75,-79.5 191.5,-79.5 191.5,-49 323.75,-49 323.75,-79.5"/>
<text text-anchor="start" x="199.5" y="-66" font-family="Helvetica,sans-Serif" font-size="10.00">edu.wpi.first.wpilibj.Analog</text>
<text text-anchor="middle" x="257.62" y="-54.75" font-family="Helvetica,sans-Serif" font-size="10.00">Gyro.getAnalogInput</text>
</a>
</g>
</g>
<!-- Node1&#45;&gt;Node2 -->
<g id="edge1_Node000001_Node000002" class="edge">
<title>Node1&#45;&gt;Node2</title>
<g id="a_edge1_Node000001_Node000002"><a xlink:title=" ">
<path fill="none" stroke="#63b8ff" d="M155.99,-50.11C163.96,-51.23 172.05,-52.36 180.01,-53.48"/>
<polygon fill="#63b8ff" stroke="#63b8ff" points="179.26,-56.91 189.65,-54.84 180.23,-49.98 179.26,-56.91"/>
</a>
</g>
</g>
<!-- Node3 -->
<g id="Node000003" class="node">
<title>Node3</title>
<g id="a_Node000003"><a xlink:href="classedu_1_1wpi_1_1first_1_1wpilibj_1_1_analog_input.html#a53387e6a4b48bef6c78527aefa35ed11" target="_top" xlink:title=" ">
<polygon fill="white" stroke="#666666" points="323.75,-30.5 191.5,-30.5 191.5,0 323.75,0 323.75,-30.5"/>
<text text-anchor="start" x="199.5" y="-17" font-family="Helvetica,sans-Serif" font-size="10.00">edu.wpi.first.wpilibj.Analog</text>
<text text-anchor="middle" x="257.62" y="-5.75" font-family="Helvetica,sans-Serif" font-size="10.00">Input.getChannel</text>
</a>
</g>
</g>
<!-- Node1&#45;&gt;Node3 -->
<g id="edge2_Node000001_Node000003" class="edge">
<title>Node1&#45;&gt;Node3</title>
<g id="a_edge2_Node000001_Node000003"><a xlink:title=" ">
<path fill="none" stroke="#63b8ff" d="M155.99,-28.83C163.87,-27.77 171.87,-26.69 179.74,-25.62"/>
<polygon fill="#63b8ff" stroke="#63b8ff" points="180.2,-29.09 189.65,-24.29 179.27,-22.16 180.2,-29.09"/>
</a>
</g>
</g>
</g>
</svg>
