<?xml version="1.0" encoding="UTF-8" standalone="no"?>
<!DOCTYPE svg PUBLIC "-//W3C//DTD SVG 1.1//EN"
 "http://www.w3.org/Graphics/SVG/1.1/DTD/svg11.dtd">
<!-- Generated by graphviz version 9.0.0 (20230911.1827)
 -->
<!-- Title: edu.wpi.first.wpilibj.Watchdog.reset Pages: 1 -->
<svg width="936pt" height="88pt"
 viewBox="0.00 0.00 935.50 87.50" xmlns="http://www.w3.org/2000/svg" xmlns:xlink="http://www.w3.org/1999/xlink">
<g id="graph0" class="graph" transform="scale(1 1) rotate(0) translate(4 83.5)">
<title>edu.wpi.first.wpilibj.Watchdog.reset</title>
<!-- Node1 -->
<g id="Node000001" class="node">
<title>Node1</title>
<g id="a_Node000001"><a xlink:title=" ">
<polygon fill="#999999" stroke="#666666" points="170.5,-48.88 0,-48.88 0,-29.62 170.5,-29.62 170.5,-48.88"/>
<text text-anchor="middle" x="85.25" y="-35.38" font-family="Helvetica,sans-Serif" font-size="10.00">edu.wpi.first.wpilibj.Watchdog.reset</text>
</a>
</g>
</g>
<!-- Node2 -->
<g id="Node000002" class="node">
<title>Node2</title>
<g id="a_Node000002"><a xlink:href="classedu_1_1wpi_1_1first_1_1wpilibj_1_1_watchdog.html#aacdc6efc6b79902319f7b07344298c49" target="_top" xlink:title=" ">
<polygon fill="white" stroke="#666666" points="383.75,-48.88 206.5,-48.88 206.5,-29.62 383.75,-29.62 383.75,-48.88"/>
<text text-anchor="middle" x="295.12" y="-35.38" font-family="Helvetica,sans-Serif" font-size="10.00">edu.wpi.first.wpilibj.Watchdog.enable</text>
</a>
</g>
</g>
<!-- Node1&#45;&gt;Node2 -->
<g id="edge1_Node000001_Node000002" class="edge">
<title>Node1&#45;&gt;Node2</title>
<g id="a_edge1_Node000001_Node000002"><a xlink:title=" ">
<path fill="none" stroke="#63b8ff" d="M170.8,-39.25C178.75,-39.25 186.85,-39.25 194.91,-39.25"/>
<polygon fill="#63b8ff" stroke="#63b8ff" points="194.76,-42.75 204.76,-39.25 194.76,-35.75 194.76,-42.75"/>
</a>
</g>
</g>
<!-- Node3 -->
<g id="Node000003" class="node">
<title>Node3</title>
<g id="a_Node000003"><a xlink:href="classedu_1_1wpi_1_1first_1_1wpilibj_1_1_tracer.html#a7af804d6dc75797c90b3701efe9917fb" target="_top" xlink:title=" ">
<polygon fill="white" stroke="#666666" points="573,-77.5 419.75,-77.5 419.75,-47 573,-47 573,-77.5"/>
<text text-anchor="start" x="427.75" y="-64" font-family="Helvetica,sans-Serif" font-size="10.00">edu.wpi.first.wpilibj.Tracer.clear</text>
<text text-anchor="middle" x="496.38" y="-52.75" font-family="Helvetica,sans-Serif" font-size="10.00">Epochs</text>
</a>
</g>
</g>
<!-- Node2&#45;&gt;Node3 -->
<g id="edge2_Node000002_Node000003" class="edge">
<title>Node2&#45;&gt;Node3</title>
<g id="a_edge2_Node000002_Node000003"><a xlink:title=" ">
<path fill="none" stroke="#63b8ff" d="M383.81,-49.37C391.9,-50.31 400.1,-51.25 408.18,-52.18"/>
<polygon fill="#63b8ff" stroke="#63b8ff" points="407.68,-55.65 418.01,-53.32 408.48,-48.7 407.68,-55.65"/>
</a>
</g>
</g>
<!-- Node6 -->
<g id="Node000006" class="node">
<title>Node6</title>
<g id="a_Node000006"><a xlink:href="classedu_1_1wpi_1_1first_1_1wpilibj_1_1_timer.html#a554f331c3b4645ee279bab8974cf21af" target="_top" xlink:title=" ">
<polygon fill="white" stroke="#666666" points="757.38,-30.5 614.62,-30.5 614.62,0 757.38,0 757.38,-30.5"/>
<text text-anchor="start" x="622.62" y="-17" font-family="Helvetica,sans-Serif" font-size="10.00">edu.wpi.first.wpilibj.Timer.get</text>
<text text-anchor="middle" x="686" y="-5.75" font-family="Helvetica,sans-Serif" font-size="10.00">FPGATimestamp</text>
</a>
</g>
</g>
<!-- Node2&#45;&gt;Node6 -->
<g id="edge5_Node000002_Node000006" class="edge">
<title>Node2&#45;&gt;Node6</title>
<g id="a_edge5_Node000002_Node000006"><a xlink:title=" ">
<path fill="none" stroke="#63b8ff" d="M383.88,-33.83C449.6,-29.78 538.88,-24.27 603.13,-20.3"/>
<polygon fill="#63b8ff" stroke="#63b8ff" points="603.15,-23.81 612.91,-19.7 602.72,-16.82 603.15,-23.81"/>
</a>
</g>
</g>
<!-- Node4 -->
<g id="Node000004" class="node">
<title>Node4</title>
<g id="a_Node000004"><a xlink:href="classedu_1_1wpi_1_1first_1_1wpilibj_1_1_tracer.html#a8ec8917a1e56d3d57363532d1d6fd4bd" target="_top" xlink:title=" ">
<polygon fill="white" stroke="#666666" points="763,-79.5 609,-79.5 609,-49 763,-49 763,-79.5"/>
<text text-anchor="start" x="617" y="-66" font-family="Helvetica,sans-Serif" font-size="10.00">edu.wpi.first.wpilibj.Tracer.reset</text>
<text text-anchor="middle" x="686" y="-54.75" font-family="Helvetica,sans-Serif" font-size="10.00">Timer</text>
</a>
</g>
</g>
<!-- Node3&#45;&gt;Node4 -->
<g id="edge3_Node000003_Node000004" class="edge">
<title>Node3&#45;&gt;Node4</title>
<g id="a_edge3_Node000003_Node000004"><a xlink:title=" ">
<path fill="none" stroke="#63b8ff" d="M573.42,-63.06C581.2,-63.14 589.15,-63.23 597.04,-63.31"/>
<polygon fill="#63b8ff" stroke="#63b8ff" points="596.99,-66.81 607.03,-63.42 597.07,-59.81 596.99,-66.81"/>
</a>
</g>
</g>
<!-- Node5 -->
<g id="Node000005" class="node">
<title>Node5</title>
<g id="a_Node000005"><a xlink:href="classedu_1_1wpi_1_1first_1_1wpilibj_1_1_robot_controller.html#a0768221aed0858ad185f14c8218300e0" target="_top" xlink:title=" ">
<polygon fill="white" stroke="#666666" points="927.5,-54.5 799,-54.5 799,-24 927.5,-24 927.5,-54.5"/>
<text text-anchor="start" x="807" y="-41" font-family="Helvetica,sans-Serif" font-size="10.00">edu.wpi.first.wpilibj.Robot</text>
<text text-anchor="middle" x="863.25" y="-29.75" font-family="Helvetica,sans-Serif" font-size="10.00">Controller.getFPGATime</text>
</a>
</g>
</g>
<!-- Node4&#45;&gt;Node5 -->
<g id="edge4_Node000004_Node000005" class="edge">
<title>Node4&#45;&gt;Node5</title>
<g id="a_edge4_Node000004_Node000005"><a xlink:title=" ">
<path fill="none" stroke="#63b8ff" d="M763.36,-53.36C771.38,-52.21 779.54,-51.05 787.54,-49.91"/>
<polygon fill="#63b8ff" stroke="#63b8ff" points="787.83,-53.4 797.23,-48.52 786.84,-46.47 787.83,-53.4"/>
</a>
</g>
</g>
<!-- Node6&#45;&gt;Node5 -->
<g id="edge6_Node000006_Node000005" class="edge">
<title>Node6&#45;&gt;Node5</title>
<g id="a_edge6_Node000006_Node000005"><a xlink:title=" ">
<path fill="none" stroke="#63b8ff" d="M757.78,-24.94C767.47,-26.27 777.45,-27.64 787.22,-28.98"/>
<polygon fill="#63b8ff" stroke="#63b8ff" points="786.68,-32.43 797.06,-30.32 787.63,-25.5 786.68,-32.43"/>
</a>
</g>
</g>
</g>
</svg>
