<?xml version="1.0" encoding="UTF-8" standalone="no"?>
<!DOCTYPE svg PUBLIC "-//W3C//DTD SVG 1.1//EN"
 "http://www.w3.org/Graphics/SVG/1.1/DTD/svg11.dtd">
<!-- Generated by graphviz version 9.0.0 (20230911.1827)
 -->
<!-- Title: edu.wpi.first.wpilibj.sysid.SysIdRoutineLog.MotorLog.value Pages: 1 -->
<!--zoomable 482 -->

<svg id="main" version="1.1" xmlns="http://www.w3.org/2000/svg" xmlns:xlink="http://www.w3.org/1999/xlink" xml:space="preserve" onload="init(evt)">
<style type="text/css"><![CDATA[
.node, .edge {opacity: 0.7;}
.node.selected, .edge.selected {opacity: 1;}
.edge:hover path { stroke: red; }
.edge:hover polygon { stroke: red; fill: red; }
]]></style>

<defs>
  <circle id="rim" cx="0" cy="0" r="7"/>
  <circle id="rim2" cx="0" cy="0" r="3.5"/>
  <g id="zoomPlus">
    <use xlink:href="#rim" fill="#404040"><set attributeName="fill" to="#808080" begin="zoomplus.mouseover" end="zoomplus.mouseout"/></use>
    <path d="M-4,0h8M0,-4v8" fill="none" stroke="white" stroke-width="1.5" pointer-events="none"/>
  </g>
  <g id="zoomMin">
    <use xlink:href="#rim" fill="#404040"><set attributeName="fill" to="#808080" begin="zoomminus.mouseover" end="zoomminus.mouseout"/></use>
    <path d="M-4,0h8" fill="none" stroke="white" stroke-width="1.5" pointer-events="none"/>
  </g>
  <g id="arrowUp" transform="translate(30 24)">
    <use xlink:href="#rim"/>
    <path pointer-events="none" fill="none" stroke="white" stroke-width="1.5" d="M0,-3.0v7 M-2.5,-0.5L0,-3.0L2.5,-0.5"/>
  </g>
  <g id="arrowRight" transform="rotate(90) translate(36 -43)">
    <use xlink:href="#rim"/>
    <path pointer-events="none" fill="none" stroke="white" stroke-width="1.5" d="M0,-3.0v7 M-2.5,-0.5L0,-3.0L2.5,-0.5"/>
  </g>
  <g id="arrowDown" transform="rotate(180) translate(-30 -48)">
    <use xlink:href="#rim"/>
    <path pointer-events="none" fill="none" stroke="white" stroke-width="1.5" d="M0,-3.0v7 M-2.5,-0.5L0,-3.0L2.5,-0.5"/>
  </g>
  <g id="arrowLeft" transform="rotate(270) translate(-36 17)">
    <use xlink:href="#rim"/>
    <path pointer-events="none" fill="none" stroke="white" stroke-width="1.5" d="M0,-3.0v7 M-2.5,-0.5L0,-3.0L2.5,-0.5"/>
  </g>
  <g id="resetDef">
    <use xlink:href="#rim2" fill="#404040"><set attributeName="fill" to="#808080" begin="reset.mouseover" end="reset.mouseout"/></use>
  </g>
</defs>
<script type="application/ecmascript">
var viewWidth = 374;
var viewHeight = 482;
var sectionId = 'dynsection-9';
</script>
<script type="application/ecmascript" xlink:href="svg.min.js"/>
<svg id="graph" class="graph">
<g id="viewport">
<title>edu.wpi.first.wpilibj.sysid.SysIdRoutineLog.MotorLog.value</title>
<!-- Node1 -->
<g id="Node000001" class="node">
<title>Node1</title>
<g id="a_Node000001"><a xlink:title=" ">
<polygon fill="#999999" stroke="#666666" points="365.75,-249.5 205,-249.5 205,-219 365.75,-219 365.75,-249.5"/>
<text text-anchor="start" x="213" y="-236" font-family="Helvetica,sans-Serif" font-size="10.00">edu.wpi.first.wpilibj.sysid.</text>
<text text-anchor="middle" x="285.38" y="-224.75" font-family="Helvetica,sans-Serif" font-size="10.00">SysIdRoutineLog.MotorLog.value</text>
</a>
</g>
</g>
<!-- Node1&#45;&gt;Node1 -->
<g id="edge9_Node000001_Node000001" class="edge">
<title>Node1&#45;&gt;Node1</title>
<g id="a_edge9_Node000001_Node000001"><a xlink:title=" ">
<path fill="none" stroke="#63b8ff" d="M319.06,-261.2C313.55,-264.97 302.33,-267.5 285.38,-267.5 254.38,-267.5 242.52,-259.06 249.78,-249.99"/>
<polygon fill="#63b8ff" stroke="#63b8ff" points="322.49,-261.92 320.72,-251.48 315.59,-260.75 322.49,-261.92"/>
</a>
</g>
</g>
<!-- Node2 -->
<g id="Node000002" class="node">
<title>Node2</title>
<g id="a_Node000002"><a xlink:href="classedu_1_1wpi_1_1first_1_1wpilibj_1_1sysid_1_1_sys_id_routine_log_1_1_motor_log.html#a916a01a23cdaba4e580c53fc9dc11af4" target="_top" xlink:title=" ">
<polygon fill="white" stroke="#666666" points="169,-474.12 0,-474.12 0,-432.38 169,-432.38 169,-474.12"/>
<text text-anchor="start" x="8" y="-460.62" font-family="Helvetica,sans-Serif" font-size="10.00">edu.wpi.first.wpilibj.sysid.</text>
<text text-anchor="start" x="8" y="-449.38" font-family="Helvetica,sans-Serif" font-size="10.00">SysIdRoutineLog.MotorLog.angular</text>
<text text-anchor="middle" x="84.5" y="-438.12" font-family="Helvetica,sans-Serif" font-size="10.00">Acceleration</text>
</a>
</g>
</g>
<!-- Node1&#45;&gt;Node2 -->
<g id="edge1_Node000001_Node000002" class="edge">
<title>Node1&#45;&gt;Node2</title>
<g id="a_edge1_Node000001_Node000002"><a xlink:title=" ">
<path fill="none" stroke="#63b8ff" d="M274.97,-260.53C259.19,-301.04 223.63,-378.72 169,-423.25 165.06,-426.46 160.75,-429.34 156.23,-431.93"/>
<polygon fill="#63b8ff" stroke="#63b8ff" points="278.18,-261.92 278.45,-251.33 271.64,-259.45 278.18,-261.92"/>
</a>
</g>
</g>
<!-- Node3 -->
<g id="Node000003" class="node">
<title>Node3</title>
<g id="a_Node000003"><a xlink:href="classedu_1_1wpi_1_1first_1_1wpilibj_1_1sysid_1_1_sys_id_routine_log_1_1_motor_log.html#ab1c3c138116d9ee0c34317c0140d3ede" target="_top" xlink:title=" ">
<polygon fill="white" stroke="#666666" points="169,-414.12 0,-414.12 0,-372.38 169,-372.38 169,-414.12"/>
<text text-anchor="start" x="8" y="-400.62" font-family="Helvetica,sans-Serif" font-size="10.00">edu.wpi.first.wpilibj.sysid.</text>
<text text-anchor="start" x="8" y="-389.38" font-family="Helvetica,sans-Serif" font-size="10.00">SysIdRoutineLog.MotorLog.angular</text>
<text text-anchor="middle" x="84.5" y="-378.12" font-family="Helvetica,sans-Serif" font-size="10.00">Position</text>
</a>
</g>
</g>
<!-- Node1&#45;&gt;Node3 -->
<g id="edge2_Node000001_Node000003" class="edge">
<title>Node1&#45;&gt;Node3</title>
<g id="a_edge2_Node000001_Node000003"><a xlink:title=" ">
<path fill="none" stroke="#63b8ff" d="M268.07,-258.95C247.93,-287.71 211.13,-334.86 169,-363.25 164.27,-366.44 159.17,-369.33 153.89,-371.94"/>
<polygon fill="#63b8ff" stroke="#63b8ff" points="270.85,-261.09 273.62,-250.86 265.08,-257.12 270.85,-261.09"/>
</a>
</g>
</g>
<!-- Node4 -->
<g id="Node000004" class="node">
<title>Node4</title>
<g id="a_Node000004"><a xlink:href="classedu_1_1wpi_1_1first_1_1wpilibj_1_1sysid_1_1_sys_id_routine_log_1_1_motor_log.html#a0c832af20add41e86c9cbefc4f91bddb" target="_top" xlink:title=" ">
<polygon fill="white" stroke="#666666" points="169,-354.12 0,-354.12 0,-312.38 169,-312.38 169,-354.12"/>
<text text-anchor="start" x="8" y="-340.62" font-family="Helvetica,sans-Serif" font-size="10.00">edu.wpi.first.wpilibj.sysid.</text>
<text text-anchor="start" x="8" y="-329.38" font-family="Helvetica,sans-Serif" font-size="10.00">SysIdRoutineLog.MotorLog.angular</text>
<text text-anchor="middle" x="84.5" y="-318.12" font-family="Helvetica,sans-Serif" font-size="10.00">Velocity</text>
</a>
</g>
</g>
<!-- Node1&#45;&gt;Node4 -->
<g id="edge3_Node000001_Node000004" class="edge">
<title>Node1&#45;&gt;Node4</title>
<g id="a_edge3_Node000001_Node000004"><a xlink:title=" ">
<path fill="none" stroke="#63b8ff" d="M251.81,-256.05C229.2,-270.6 198.04,-289.51 169,-303.25 162.6,-306.28 155.8,-309.19 148.95,-311.93"/>
<polygon fill="#63b8ff" stroke="#63b8ff" points="253.51,-259.12 259.98,-250.73 249.69,-253.25 253.51,-259.12"/>
</a>
</g>
</g>
<!-- Node5 -->
<g id="Node000005" class="node">
<title>Node5</title>
<g id="a_Node000005"><a xlink:href="classedu_1_1wpi_1_1first_1_1wpilibj_1_1sysid_1_1_sys_id_routine_log_1_1_motor_log.html#aef401a5aed02722c43fa78e234466dde" target="_top" xlink:title=" ">
<polygon fill="white" stroke="#666666" points="168.25,-276.5 0.75,-276.5 0.75,-246 168.25,-246 168.25,-276.5"/>
<text text-anchor="start" x="8.75" y="-263" font-family="Helvetica,sans-Serif" font-size="10.00">edu.wpi.first.wpilibj.sysid.</text>
<text text-anchor="middle" x="84.5" y="-251.75" font-family="Helvetica,sans-Serif" font-size="10.00">SysIdRoutineLog.MotorLog.current</text>
</a>
</g>
</g>
<!-- Node1&#45;&gt;Node5 -->
<g id="edge4_Node000001_Node000005" class="edge">
<title>Node1&#45;&gt;Node5</title>
<g id="a_edge4_Node000001_Node000005"><a xlink:title=" ">
<path fill="none" stroke="#63b8ff" d="M193.39,-246.6C185.1,-247.73 176.73,-248.86 168.51,-249.98"/>
<polygon fill="#63b8ff" stroke="#63b8ff" points="193.69,-250.09 203.13,-245.28 192.75,-243.16 193.69,-250.09"/>
</a>
</g>
</g>
<!-- Node6 -->
<g id="Node000006" class="node">
<title>Node6</title>
<g id="a_Node000006"><a xlink:href="classedu_1_1wpi_1_1first_1_1wpilibj_1_1sysid_1_1_sys_id_routine_log_1_1_motor_log.html#a6a135c54336e7800a9f7966af84b6248" target="_top" xlink:title=" ">
<polygon fill="white" stroke="#666666" points="164.88,-228.12 4.12,-228.12 4.12,-186.38 164.88,-186.38 164.88,-228.12"/>
<text text-anchor="start" x="12.12" y="-214.62" font-family="Helvetica,sans-Serif" font-size="10.00">edu.wpi.first.wpilibj.sysid.</text>
<text text-anchor="start" x="12.12" y="-203.38" font-family="Helvetica,sans-Serif" font-size="10.00">SysIdRoutineLog.MotorLog.linear</text>
<text text-anchor="middle" x="84.5" y="-192.12" font-family="Helvetica,sans-Serif" font-size="10.00">Acceleration</text>
</a>
</g>
</g>
<!-- Node1&#45;&gt;Node6 -->
<g id="edge6_Node000001_Node000006" class="edge">
<title>Node1&#45;&gt;Node6</title>
<g id="a_edge6_Node000001_Node000006"><a xlink:title=" ">
<path fill="none" stroke="#63b8ff" d="M193.29,-221.88C183.94,-220.61 174.48,-219.33 165.26,-218.08"/>
<polygon fill="#63b8ff" stroke="#63b8ff" points="192.75,-225.34 203.13,-223.22 193.69,-218.41 192.75,-225.34"/>
</a>
</g>
</g>
<!-- Node7 -->
<g id="Node000007" class="node">
<title>Node7</title>
<g id="a_Node000007"><a xlink:href="classedu_1_1wpi_1_1first_1_1wpilibj_1_1sysid_1_1_sys_id_routine_log_1_1_motor_log.html#a857d4aa444d2fe1c97aeb6fecd8cd660" target="_top" xlink:title=" ">
<polygon fill="white" stroke="#666666" points="164.88,-168.12 4.12,-168.12 4.12,-126.38 164.88,-126.38 164.88,-168.12"/>
<text text-anchor="start" x="12.12" y="-154.62" font-family="Helvetica,sans-Serif" font-size="10.00">edu.wpi.first.wpilibj.sysid.</text>
<text text-anchor="start" x="12.12" y="-143.38" font-family="Helvetica,sans-Serif" font-size="10.00">SysIdRoutineLog.MotorLog.linear</text>
<text text-anchor="middle" x="84.5" y="-132.12" font-family="Helvetica,sans-Serif" font-size="10.00">Position</text>
</a>
</g>
</g>
<!-- Node1&#45;&gt;Node7 -->
<g id="edge7_Node000001_Node000007" class="edge">
<title>Node1&#45;&gt;Node7</title>
<g id="a_edge7_Node000001_Node000007"><a xlink:title=" ">
<path fill="none" stroke="#63b8ff" d="M244.94,-213.38C222.89,-202.06 194.74,-188.19 169,-177.25 162.05,-174.3 154.71,-171.38 147.37,-168.58"/>
<polygon fill="#63b8ff" stroke="#63b8ff" points="243.09,-216.36 253.58,-217.85 246.31,-210.14 243.09,-216.36"/>
</a>
</g>
</g>
<!-- Node8 -->
<g id="Node000008" class="node">
<title>Node8</title>
<g id="a_Node000008"><a xlink:href="classedu_1_1wpi_1_1first_1_1wpilibj_1_1sysid_1_1_sys_id_routine_log_1_1_motor_log.html#a4e85bd313f37a4038a5933577ed0451d" target="_top" xlink:title=" ">
<polygon fill="white" stroke="#666666" points="164.88,-108.12 4.12,-108.12 4.12,-66.38 164.88,-66.38 164.88,-108.12"/>
<text text-anchor="start" x="12.12" y="-94.62" font-family="Helvetica,sans-Serif" font-size="10.00">edu.wpi.first.wpilibj.sysid.</text>
<text text-anchor="start" x="12.12" y="-83.38" font-family="Helvetica,sans-Serif" font-size="10.00">SysIdRoutineLog.MotorLog.linear</text>
<text text-anchor="middle" x="84.5" y="-72.12" font-family="Helvetica,sans-Serif" font-size="10.00">Velocity</text>
</a>
</g>
</g>
<!-- Node1&#45;&gt;Node8 -->
<g id="edge8_Node000001_Node000008" class="edge">
<title>Node1&#45;&gt;Node8</title>
<g id="a_edge8_Node000001_Node000008"><a xlink:title=" ">
<path fill="none" stroke="#63b8ff" d="M265.95,-209.91C245.02,-183.76 208.61,-142.56 169,-117.25 164.07,-114.1 158.76,-111.22 153.3,-108.61"/>
<polygon fill="#63b8ff" stroke="#63b8ff" points="263.07,-211.91 272,-217.61 268.58,-207.58 263.07,-211.91"/>
</a>
</g>
</g>
<!-- Node9 -->
<g id="Node000009" class="node">
<title>Node9</title>
<g id="a_Node000009"><a xlink:href="classedu_1_1wpi_1_1first_1_1wpilibj_1_1sysid_1_1_sys_id_routine_log_1_1_motor_log.html#a113165d6a30dbf3480324fa2fe586478" target="_top" xlink:title=" ">
<polygon fill="white" stroke="#666666" points="169,-30.5 0,-30.5 0,0 169,0 169,-30.5"/>
<text text-anchor="start" x="8" y="-17" font-family="Helvetica,sans-Serif" font-size="10.00">edu.wpi.first.wpilibj.sysid.</text>
<text text-anchor="middle" x="84.5" y="-5.75" font-family="Helvetica,sans-Serif" font-size="10.00">SysIdRoutineLog.MotorLog.voltage</text>
</a>
</g>
</g>
<!-- Node1&#45;&gt;Node9 -->
<g id="edge10_Node000001_Node000009" class="edge">
<title>Node1&#45;&gt;Node9</title>
<g id="a_edge10_Node000001_Node000009"><a xlink:title=" ">
<path fill="none" stroke="#63b8ff" d="M272.98,-208.48C255.35,-171.05 218.28,-101.31 169,-57.25 156.9,-46.43 141.52,-37.66 127.26,-30.98"/>
<polygon fill="#63b8ff" stroke="#63b8ff" points="269.63,-209.57 277,-217.19 275.99,-206.64 269.63,-209.57"/>
</a>
</g>
</g>
<!-- Node5&#45;&gt;Node5 -->
<g id="edge5_Node000005_Node000005" class="edge">
<title>Node5&#45;&gt;Node5</title>
<g id="a_edge5_Node000005_Node000005"><a xlink:title=" ">
<path fill="none" stroke="#63b8ff" d="M118.19,-288.2C112.68,-291.97 101.45,-294.5 84.5,-294.5 53.51,-294.5 41.64,-286.06 48.9,-276.99"/>
<polygon fill="#63b8ff" stroke="#63b8ff" points="121.61,-288.92 119.84,-278.48 114.71,-287.75 121.61,-288.92"/>
</a>
</g>
</g>
<!-- Node9&#45;&gt;Node9 -->
<g id="edge11_Node000009_Node000009" class="edge">
<title>Node9&#45;&gt;Node9</title>
<g id="a_edge11_Node000009_Node000009"><a xlink:title=" ">
<path fill="none" stroke="#63b8ff" d="M118.19,-42.2C112.68,-45.97 101.45,-48.5 84.5,-48.5 53.51,-48.5 41.64,-40.06 48.9,-30.99"/>
<polygon fill="#63b8ff" stroke="#63b8ff" points="121.61,-42.92 119.84,-32.48 114.71,-41.75 121.61,-42.92"/>
</a>
</g>
</g>
</g>
</svg>

<g id="navigator" transform="translate(0 0)" fill="#404254">
  <rect fill="#f2f5e9" fill-opacity="0.5" stroke="#606060" stroke-width=".5" x="0" y="0" width="60" height="60"/>
  <use id="zoomplus" xlink:href="#zoomPlus" x="17" y="9" onmousedown="handleZoom(evt,'in')"/>
  <use id="zoomminus" xlink:href="#zoomMin" x="42" y="9" onmousedown="handleZoom(evt,'out')"/>
  <use id="reset" xlink:href="#resetDef" x="30" y="36" onmousedown="handleReset()"/>
   <use id="arrowup" xlink:href="#arrowUp" x="0" y="0" onmousedown="handlePan(0,-1)"/>
  <use id="arrowright" xlink:href="#arrowRight" x="0" y="0" onmousedown="handlePan(1,0)"/>
  <use id="arrowdown" xlink:href="#arrowDown" x="0" y="0" onmousedown="handlePan(0,1)"/>
  <use id="arrowleft" xlink:href="#arrowLeft" x="0" y="0" onmousedown="handlePan(-1,0)"/>
</g>
<svg viewBox="0 0 15 15" width="100%" height="30px" preserveAspectRatio="xMaxYMin meet">
 <g id="arrow_out" transform="scale(0.3 0.3)">
  <a xlink:href="classedu_1_1wpi_1_1first_1_1wpilibj_1_1sysid_1_1_sys_id_routine_log_1_1_motor_log_ad94eb9190fc67490eccef94c66e57796_icgraph_org.svg" target="_base">
   <rect id="button" ry="5" rx="5" y="6" x="6" height="38" width="38"
        fill="#f2f5e9" fill-opacity="0.5" stroke="#606060" stroke-width="1.0"/>
   <path id="arrow"
     d="M 11.500037,31.436501 C 11.940474,20.09759 22.043105,11.32322 32.158766,21.979434 L 37.068811,17.246167 C 37.068811,17.246167 37.088388,32 37.088388,32 L 22.160133,31.978069 C 22.160133,31.978069 26.997745,27.140456 26.997745,27.140456 C 18.528582,18.264221 13.291696,25.230495 11.500037,31.436501 z"
     style="fill:#404040;"/>
  </a>
 </g>
</svg>

<style type='text/css'>
<![CDATA[
[data-mouse-over-selected='false'] { opacity: 0.7; }
[data-mouse-over-selected='true']  { opacity: 1.0; }
]]>
</style>
<script type="application/ecmascript"><![CDATA[
document.addEventListener('DOMContentLoaded', (event) => {
  highlightEdges();
  highlightAdjacentNodes();
});
]]></script>
</svg>
