<?xml version="1.0" encoding="UTF-8" standalone="no"?>
<!DOCTYPE svg PUBLIC "-//W3C//DTD SVG 1.1//EN"
 "http://www.w3.org/Graphics/SVG/1.1/DTD/svg11.dtd">
<!-- Generated by graphviz version 9.0.0 (20230911.1827)
 -->
<!-- Title: edu.wpi.first.wpilibj.ADXL345_SPI Pages: 1 -->
<svg width="178pt" height="83pt"
 viewBox="0.00 0.00 177.88 82.50" xmlns="http://www.w3.org/2000/svg" xmlns:xlink="http://www.w3.org/1999/xlink">
<g id="graph0" class="graph" transform="scale(1 1) rotate(0) translate(4 78.5)">
<title>edu.wpi.first.wpilibj.ADXL345_SPI</title>
<!-- Node1 -->
<g id="Node000001" class="node">
<title>Node1</title>
<g id="a_Node000001"><a xlink:title=" ">
<polygon fill="#999999" stroke="#666666" points="166,-19.25 0,-19.25 0,0 166,0 166,-19.25"/>
<text text-anchor="middle" x="83" y="-5.75" font-family="Helvetica,sans-Serif" font-size="10.00">edu.wpi.first.wpilibj.ADXL345_SPI</text>
</a>
</g>
</g>
<!-- Node2 -->
<g id="Node000002" class="node">
<title>Node2</title>
<g id="a_Node000002"><a xlink:title=" ">
<polygon fill="white" stroke="#bfbfbf" points="72,-74.5 2,-74.5 2,-55.25 72,-55.25 72,-74.5"/>
<text text-anchor="middle" x="37" y="-61" font-family="Helvetica,sans-Serif" font-size="10.00">NTSendable</text>
</a>
</g>
</g>
<!-- Node2&#45;&gt;Node1 -->
<g id="edge1_Node000001_Node000002" class="edge">
<title>Node2&#45;&gt;Node1</title>
<g id="a_edge1_Node000001_Node000002"><a xlink:title=" ">
<path fill="none" stroke="#63b8ff" d="M52,-46.51C59.76,-37.53 68.9,-26.95 75.24,-19.61"/>
<polygon fill="#63b8ff" stroke="#63b8ff" points="49.47,-44.08 45.59,-53.94 54.77,-48.66 49.47,-44.08"/>
</a>
</g>
</g>
<!-- Node3 -->
<g id="Node000003" class="node">
<title>Node3</title>
<g id="a_Node000003"><a xlink:title=" ">
<polygon fill="white" stroke="#bfbfbf" points="169.88,-74.5 90.12,-74.5 90.12,-55.25 169.88,-55.25 169.88,-74.5"/>
<text text-anchor="middle" x="130" y="-61" font-family="Helvetica,sans-Serif" font-size="10.00">AutoCloseable</text>
</a>
</g>
</g>
<!-- Node3&#45;&gt;Node1 -->
<g id="edge2_Node000001_Node000003" class="edge">
<title>Node3&#45;&gt;Node1</title>
<g id="a_edge2_Node000001_Node000003"><a xlink:title=" ">
<path fill="none" stroke="#63b8ff" d="M114.67,-46.51C106.75,-37.53 97.4,-26.95 90.93,-19.61"/>
<polygon fill="#63b8ff" stroke="#63b8ff" points="112,-48.77 121.24,-53.95 117.24,-44.13 112,-48.77"/>
</a>
</g>
</g>
</g>
</svg>
