<?xml version="1.0" encoding="UTF-8" standalone="no"?>
<!DOCTYPE svg PUBLIC "-//W3C//DTD SVG 1.1//EN"
 "http://www.w3.org/Graphics/SVG/1.1/DTD/svg11.dtd">
<!-- Generated by graphviz version 9.0.0 (20230911.1827)
 -->
<!-- Title: edu.wpi.first.wpilibj.Counter.setUpSource Pages: 1 -->
<svg width="389pt" height="88pt"
 viewBox="0.00 0.00 388.75 87.50" xmlns="http://www.w3.org/2000/svg" xmlns:xlink="http://www.w3.org/1999/xlink">
<g id="graph0" class="graph" transform="scale(1 1) rotate(0) translate(4 83.5)">
<title>edu.wpi.first.wpilibj.Counter.setUpSource</title>
<!-- Node1 -->
<g id="Node000001" class="node">
<title>Node1</title>
<g id="a_Node000001"><a xlink:title=" ">
<polygon fill="#999999" stroke="#666666" points="152.5,-54.5 0,-54.5 0,-24 152.5,-24 152.5,-54.5"/>
<text text-anchor="start" x="8" y="-41" font-family="Helvetica,sans-Serif" font-size="10.00">edu.wpi.first.wpilibj.Counter.set</text>
<text text-anchor="middle" x="76.25" y="-29.75" font-family="Helvetica,sans-Serif" font-size="10.00">UpSource</text>
</a>
</g>
</g>
<!-- Node2 -->
<g id="Node000002" class="node">
<title>Node2</title>
<g id="a_Node000002"><a xlink:href="classedu_1_1wpi_1_1first_1_1wpilibj_1_1_digital_source.html#a541a17e685b99f4a094171942ca0423c" target="_top" xlink:title=" ">
<polygon fill="white" stroke="#666666" points="380.75,-79.5 188.5,-79.5 188.5,-49 380.75,-49 380.75,-79.5"/>
<text text-anchor="start" x="196.5" y="-66" font-family="Helvetica,sans-Serif" font-size="10.00">edu.wpi.first.wpilibj.Digital</text>
<text text-anchor="middle" x="284.62" y="-54.75" font-family="Helvetica,sans-Serif" font-size="10.00">Source.getAnalogTriggerTypeForRouting</text>
</a>
</g>
</g>
<!-- Node1&#45;&gt;Node2 -->
<g id="edge1_Node000001_Node000002" class="edge">
<title>Node1&#45;&gt;Node2</title>
<g id="a_edge1_Node000001_Node000002"><a xlink:title=" ">
<path fill="none" stroke="#63b8ff" d="M152.92,-48.42C160.74,-49.36 168.79,-50.34 176.87,-51.32"/>
<polygon fill="#63b8ff" stroke="#63b8ff" points="176.43,-54.79 186.78,-52.52 177.27,-47.84 176.43,-54.79"/>
</a>
</g>
</g>
<!-- Node3 -->
<g id="Node000003" class="node">
<title>Node3</title>
<g id="a_Node000003"><a xlink:href="classedu_1_1wpi_1_1first_1_1wpilibj_1_1_digital_source.html#ade5bf94866b6af2dd04bcf30096a2fe4" target="_top" xlink:title=" ">
<polygon fill="white" stroke="#666666" points="364.62,-30.5 204.62,-30.5 204.62,0 364.62,0 364.62,-30.5"/>
<text text-anchor="start" x="212.62" y="-17" font-family="Helvetica,sans-Serif" font-size="10.00">edu.wpi.first.wpilibj.Digital</text>
<text text-anchor="middle" x="284.62" y="-5.75" font-family="Helvetica,sans-Serif" font-size="10.00">Source.getPortHandleForRouting</text>
</a>
</g>
</g>
<!-- Node1&#45;&gt;Node3 -->
<g id="edge2_Node000001_Node000003" class="edge">
<title>Node1&#45;&gt;Node3</title>
<g id="a_edge2_Node000001_Node000003"><a xlink:title=" ">
<path fill="none" stroke="#63b8ff" d="M152.92,-30.45C165.96,-28.93 179.62,-27.35 193,-25.79"/>
<polygon fill="#63b8ff" stroke="#63b8ff" points="193.11,-29.3 202.64,-24.67 192.31,-22.35 193.11,-29.3"/>
</a>
</g>
</g>
</g>
</svg>
