<?xml version="1.0" encoding="UTF-8" standalone="no"?>
<!DOCTYPE svg PUBLIC "-//W3C//DTD SVG 1.1//EN"
 "http://www.w3.org/Graphics/SVG/1.1/DTD/svg11.dtd">
<!-- Generated by graphviz version 9.0.0 (20230911.1827)
 -->
<!-- Title: edu.wpi.first.wpilibj.StadiaController.getHamburgerButtonPressed Pages: 1 -->
<svg width="889pt" height="106pt"
 viewBox="0.00 0.00 889.00 105.50" xmlns="http://www.w3.org/2000/svg" xmlns:xlink="http://www.w3.org/1999/xlink">
<g id="graph0" class="graph" transform="scale(1 1) rotate(0) translate(4 101.5)">
<title>edu.wpi.first.wpilibj.StadiaController.getHamburgerButtonPressed</title>
<!-- Node1 -->
<g id="Node000001" class="node">
<title>Node1</title>
<g id="a_Node000001"><a xlink:title=" ">
<polygon fill="#999999" stroke="#666666" points="186.25,-54.5 0,-54.5 0,-24 186.25,-24 186.25,-54.5"/>
<text text-anchor="start" x="8" y="-41" font-family="Helvetica,sans-Serif" font-size="10.00">edu.wpi.first.wpilibj.Stadia</text>
<text text-anchor="middle" x="93.12" y="-29.75" font-family="Helvetica,sans-Serif" font-size="10.00">Controller.getHamburgerButtonPressed</text>
</a>
</g>
</g>
<!-- Node2 -->
<g id="Node000002" class="node">
<title>Node2</title>
<g id="a_Node000002"><a xlink:href="classedu_1_1wpi_1_1first_1_1wpilibj_1_1_generic_h_i_d.html#a097c775f0ef764796523a65f8f3b688d" target="_top" xlink:title=" ">
<polygon fill="white" stroke="#666666" points="358.25,-54.5 222.25,-54.5 222.25,-24 358.25,-24 358.25,-54.5"/>
<text text-anchor="start" x="230.25" y="-41" font-family="Helvetica,sans-Serif" font-size="10.00">edu.wpi.first.wpilibj.Generic</text>
<text text-anchor="middle" x="290.25" y="-29.75" font-family="Helvetica,sans-Serif" font-size="10.00">HID.getRawButtonPressed</text>
</a>
</g>
</g>
<!-- Node1&#45;&gt;Node2 -->
<g id="edge1_Node000001_Node000002" class="edge">
<title>Node1&#45;&gt;Node2</title>
<g id="a_edge1_Node000001_Node000002"><a xlink:title=" ">
<path fill="none" stroke="#63b8ff" d="M186.54,-39.25C194.55,-39.25 202.61,-39.25 210.49,-39.25"/>
<polygon fill="#63b8ff" stroke="#63b8ff" points="210.38,-42.75 220.38,-39.25 210.38,-35.75 210.38,-42.75"/>
</a>
</g>
</g>
<!-- Node3 -->
<g id="Node000003" class="node">
<title>Node3</title>
<g id="a_Node000003"><a xlink:href="classedu_1_1wpi_1_1first_1_1wpilibj_1_1_generic_h_i_d.html#a77f3feaa9b70759aa7e26c20bec4bec2" target="_top" xlink:title=" ">
<polygon fill="white" stroke="#666666" points="537.38,-79.5 401.38,-79.5 401.38,-49 537.38,-49 537.38,-79.5"/>
<text text-anchor="start" x="409.38" y="-66" font-family="Helvetica,sans-Serif" font-size="10.00">edu.wpi.first.wpilibj.Generic</text>
<text text-anchor="middle" x="469.38" y="-54.75" font-family="Helvetica,sans-Serif" font-size="10.00">HID.button</text>
</a>
</g>
</g>
<!-- Node2&#45;&gt;Node3 -->
<g id="edge2_Node000002_Node000003" class="edge">
<title>Node2&#45;&gt;Node3</title>
<g id="a_edge2_Node000002_Node000003"><a xlink:title=" ">
<path fill="none" stroke="#63b8ff" d="M358.72,-48.77C368.91,-50.21 379.5,-51.71 389.91,-53.17"/>
<polygon fill="#63b8ff" stroke="#63b8ff" points="389.2,-56.61 399.6,-54.54 390.18,-49.68 389.2,-56.61"/>
</a>
</g>
</g>
<!-- Node6 -->
<g id="Node000006" class="node">
<title>Node6</title>
<g id="a_Node000006"><a xlink:href="classedu_1_1wpi_1_1first_1_1wpilibj_1_1_driver_station.html#acb9b90660a171dbd6a9b9717f0213f92" target="_top" xlink:title=" ">
<polygon fill="white" stroke="#666666" points="544.5,-30.5 394.25,-30.5 394.25,0 544.5,0 544.5,-30.5"/>
<text text-anchor="start" x="402.25" y="-17" font-family="Helvetica,sans-Serif" font-size="10.00">edu.wpi.first.wpilibj.Driver</text>
<text text-anchor="middle" x="469.38" y="-5.75" font-family="Helvetica,sans-Serif" font-size="10.00">Station.getStickButtonPressed</text>
</a>
</g>
</g>
<!-- Node2&#45;&gt;Node6 -->
<g id="edge7_Node000002_Node000006" class="edge">
<title>Node2&#45;&gt;Node6</title>
<g id="a_edge7_Node000002_Node000006"><a xlink:title=" ">
<path fill="none" stroke="#63b8ff" d="M358.72,-30.11C366.56,-29.05 374.63,-27.95 382.68,-26.86"/>
<polygon fill="#63b8ff" stroke="#63b8ff" points="383.06,-30.34 392.5,-25.53 382.12,-23.41 383.06,-30.34"/>
</a>
</g>
</g>
<!-- Node3&#45;&gt;Node3 -->
<g id="edge3_Node000003_Node000003" class="edge">
<title>Node3&#45;&gt;Node3</title>
<g id="a_edge3_Node000003_Node000003"><a xlink:title=" ">
<path fill="none" stroke="#63b8ff" d="M437.63,-79.99C431.16,-89.06 441.74,-97.5 469.38,-97.5 484.49,-97.5 494.5,-94.97 499.41,-91.2"/>
<polygon fill="#63b8ff" stroke="#63b8ff" points="502.85,-91.89 500.89,-81.48 495.93,-90.84 502.85,-91.89"/>
</a>
</g>
</g>
<!-- Node4 -->
<g id="Node000004" class="node">
<title>Node4</title>
<g id="a_Node000004"><a xlink:href="classedu_1_1wpi_1_1first_1_1wpilibj_1_1_generic_h_i_d.html#abdb0245e5cb7f7b92cc1060202821a2d" target="_top" xlink:title=" ">
<polygon fill="white" stroke="#666666" points="716.5,-79.5 580.5,-79.5 580.5,-49 716.5,-49 716.5,-79.5"/>
<text text-anchor="start" x="588.5" y="-66" font-family="Helvetica,sans-Serif" font-size="10.00">edu.wpi.first.wpilibj.Generic</text>
<text text-anchor="middle" x="648.5" y="-54.75" font-family="Helvetica,sans-Serif" font-size="10.00">HID.getRawButton</text>
</a>
</g>
</g>
<!-- Node3&#45;&gt;Node4 -->
<g id="edge4_Node000003_Node000004" class="edge">
<title>Node3&#45;&gt;Node4</title>
<g id="a_edge4_Node000003_Node000004"><a xlink:title=" ">
<path fill="none" stroke="#63b8ff" d="M537.84,-57.67C548.04,-57.5 558.63,-57.46 569.03,-57.54"/>
<polygon fill="#63b8ff" stroke="#63b8ff" points="568.66,-61.03 578.71,-57.66 568.75,-54.04 568.66,-61.03"/>
</a>
</g>
</g>
<!-- Node4&#45;&gt;Node3 -->
<g id="edge5_Node000004_Node000003" class="edge">
<title>Node4&#45;&gt;Node3</title>
<g id="a_edge5_Node000004_Node000003"><a xlink:title=" ">
<path fill="none" stroke="#63b8ff" d="M580.22,-70.82C570.03,-71 559.44,-71.04 549.03,-70.96"/>
<polygon fill="#63b8ff" stroke="#63b8ff" points="549.4,-67.47 539.36,-70.85 549.31,-74.47 549.4,-67.47"/>
</a>
</g>
</g>
<!-- Node5 -->
<g id="Node000005" class="node">
<title>Node5</title>
<g id="a_Node000005"><a xlink:href="classedu_1_1wpi_1_1first_1_1wpilibj_1_1_driver_station.html#a3d86d4b8414c05aafe18fc866d99ccab" target="_top" xlink:title=" ">
<polygon fill="white" stroke="#666666" points="881,-79.5 752.5,-79.5 752.5,-49 881,-49 881,-79.5"/>
<text text-anchor="start" x="760.5" y="-66" font-family="Helvetica,sans-Serif" font-size="10.00">edu.wpi.first.wpilibj.Driver</text>
<text text-anchor="middle" x="816.75" y="-54.75" font-family="Helvetica,sans-Serif" font-size="10.00">Station.getStickButton</text>
</a>
</g>
</g>
<!-- Node4&#45;&gt;Node5 -->
<g id="edge6_Node000004_Node000005" class="edge">
<title>Node4&#45;&gt;Node5</title>
<g id="a_edge6_Node000004_Node000005"><a xlink:title=" ">
<path fill="none" stroke="#63b8ff" d="M716.64,-64.25C724.6,-64.25 732.77,-64.25 740.83,-64.25"/>
<polygon fill="#63b8ff" stroke="#63b8ff" points="740.62,-67.75 750.62,-64.25 740.62,-60.75 740.62,-67.75"/>
</a>
</g>
</g>
</g>
</svg>
