<?xml version="1.0" encoding="UTF-8" standalone="no"?>
<!DOCTYPE svg PUBLIC "-//W3C//DTD SVG 1.1//EN"
 "http://www.w3.org/Graphics/SVG/1.1/DTD/svg11.dtd">
<!-- Generated by graphviz version 9.0.0 (20230911.1827)
 -->
<!-- Title: frc.robot.Robot.robotInit Pages: 1 -->
<svg width="550pt" height="109pt"
 viewBox="0.00 0.00 549.50 108.50" xmlns="http://www.w3.org/2000/svg" xmlns:xlink="http://www.w3.org/1999/xlink">
<g id="graph0" class="graph" transform="scale(1 1) rotate(0) translate(4 104.5)">
<title>frc.robot.Robot.robotInit</title>
<!-- Node1 -->
<g id="Node000001" class="node">
<title>Node1</title>
<g id="a_Node000001"><a xlink:title=" ">
<polygon fill="#999999" stroke="#666666" points="119.5,-73.88 0,-73.88 0,-54.62 119.5,-54.62 119.5,-73.88"/>
<text text-anchor="middle" x="59.75" y="-60.38" font-family="Helvetica,sans-Serif" font-size="10.00">frc.robot.Robot.robotInit</text>
</a>
</g>
</g>
<!-- Node2 -->
<g id="Node000002" class="node">
<title>Node2</title>
<g id="a_Node000002"><a xlink:href="classedu_1_1wpi_1_1first_1_1wpilibj_1_1smartdashboard_1_1_sendable_chooser.html#a4b48b0a32e339163e9fd58279a2d82bf" target="_top" xlink:title=" ">
<polygon fill="white" stroke="#666666" points="541.5,-100.5 366.5,-100.5 366.5,-70 541.5,-70 541.5,-100.5"/>
<text text-anchor="start" x="374.5" y="-87" font-family="Helvetica,sans-Serif" font-size="10.00">edu.wpi.first.wpilibj.smartdashboard.</text>
<text text-anchor="middle" x="454" y="-75.75" font-family="Helvetica,sans-Serif" font-size="10.00">SendableChooser.addOption</text>
</a>
</g>
</g>
<!-- Node1&#45;&gt;Node2 -->
<g id="edge1_Node000001_Node000002" class="edge">
<title>Node1&#45;&gt;Node2</title>
<g id="a_edge1_Node000001_Node000002"><a xlink:title=" ">
<path fill="none" stroke="#63b8ff" d="M92.39,-74.36C110.63,-79.66 134.11,-85.58 155.5,-88.25 221.57,-96.49 296.54,-95.67 354.68,-92.83"/>
<polygon fill="#63b8ff" stroke="#63b8ff" points="354.77,-96.33 364.57,-92.31 354.4,-89.34 354.77,-96.33"/>
</a>
</g>
</g>
<!-- Node3 -->
<g id="Node000003" class="node">
<title>Node3</title>
<g id="a_Node000003"><a xlink:href="classedu_1_1wpi_1_1first_1_1wpilibj_1_1smartdashboard_1_1_smart_dashboard.html#a8bfbadc54bdb86e802e4510cb8f09b05" target="_top" xlink:title=" ">
<polygon fill="white" stroke="#666666" points="330.5,-79.5 155.5,-79.5 155.5,-49 330.5,-49 330.5,-79.5"/>
<text text-anchor="start" x="163.5" y="-66" font-family="Helvetica,sans-Serif" font-size="10.00">edu.wpi.first.wpilibj.smartdashboard.</text>
<text text-anchor="middle" x="243" y="-54.75" font-family="Helvetica,sans-Serif" font-size="10.00">SmartDashboard.putData</text>
</a>
</g>
</g>
<!-- Node1&#45;&gt;Node3 -->
<g id="edge2_Node000001_Node000003" class="edge">
<title>Node1&#45;&gt;Node3</title>
<g id="a_edge2_Node000001_Node000003"><a xlink:title=" ">
<path fill="none" stroke="#63b8ff" d="M119.85,-64.25C127.5,-64.25 135.5,-64.25 143.58,-64.25"/>
<polygon fill="#63b8ff" stroke="#63b8ff" points="143.51,-67.75 153.51,-64.25 143.51,-60.75 143.51,-67.75"/>
</a>
</g>
</g>
<!-- Node4 -->
<g id="Node000004" class="node">
<title>Node4</title>
<g id="a_Node000004"><a xlink:href="classedu_1_1wpi_1_1first_1_1wpilibj_1_1smartdashboard_1_1_sendable_chooser.html#aeb02795b957efa2924cab361986cdd94" target="_top" xlink:title=" ">
<polygon fill="white" stroke="#666666" points="330.5,-30.5 155.5,-30.5 155.5,0 330.5,0 330.5,-30.5"/>
<text text-anchor="start" x="163.5" y="-17" font-family="Helvetica,sans-Serif" font-size="10.00">edu.wpi.first.wpilibj.smartdashboard.</text>
<text text-anchor="middle" x="243" y="-5.75" font-family="Helvetica,sans-Serif" font-size="10.00">SendableChooser.setDefaultOption</text>
</a>
</g>
</g>
<!-- Node1&#45;&gt;Node4 -->
<g id="edge3_Node000001_Node000004" class="edge">
<title>Node1&#45;&gt;Node4</title>
<g id="a_edge3_Node000001_Node000004"><a xlink:title=" ">
<path fill="none" stroke="#63b8ff" d="M97.87,-54.22C119.52,-48.36 147.54,-40.79 173.1,-33.88"/>
<polygon fill="#63b8ff" stroke="#63b8ff" points="173.68,-37.35 182.42,-31.36 171.85,-30.59 173.68,-37.35"/>
</a>
</g>
</g>
<!-- Node4&#45;&gt;Node2 -->
<g id="edge4_Node000004_Node000002" class="edge">
<title>Node4&#45;&gt;Node2</title>
<g id="a_edge4_Node000004_Node000002"><a xlink:title=" ">
<path fill="none" stroke="#63b8ff" d="M300.48,-30.95C310.52,-33.92 320.84,-37.09 330.5,-40.25 354.08,-47.98 379.9,-57.33 401.73,-65.5"/>
<polygon fill="#63b8ff" stroke="#63b8ff" points="400.41,-68.74 411,-68.99 402.88,-62.19 400.41,-68.74"/>
</a>
</g>
</g>
<!-- Node5 -->
<g id="Node000005" class="node">
<title>Node5</title>
<g id="a_Node000005"><a xlink:href="classedu_1_1wpi_1_1first_1_1wpilibj_1_1smartdashboard_1_1_sendable_chooser.html#a6151534a0d068f8518995ba231021c6b" target="_top" xlink:title=" ">
<polygon fill="white" stroke="#666666" points="541.5,-30.5 366.5,-30.5 366.5,0 541.5,0 541.5,-30.5"/>
<text text-anchor="start" x="374.5" y="-17" font-family="Helvetica,sans-Serif" font-size="10.00">edu.wpi.first.wpilibj.smartdashboard.</text>
<text text-anchor="middle" x="454" y="-5.75" font-family="Helvetica,sans-Serif" font-size="10.00">SendableChooser.SendableChooser</text>
</a>
</g>
</g>
<!-- Node4&#45;&gt;Node5 -->
<g id="edge5_Node000004_Node000005" class="edge">
<title>Node4&#45;&gt;Node5</title>
<g id="a_edge5_Node000004_Node000005"><a xlink:title=" ">
<path fill="none" stroke="#63b8ff" d="M330.82,-15.25C338.75,-15.25 346.81,-15.25 354.83,-15.25"/>
<polygon fill="#63b8ff" stroke="#63b8ff" points="354.6,-18.75 364.6,-15.25 354.6,-11.75 354.6,-18.75"/>
</a>
</g>
</g>
</g>
</svg>
