<?xml version="1.0" encoding="UTF-8" standalone="no"?>
<!DOCTYPE svg PUBLIC "-//W3C//DTD SVG 1.1//EN"
 "http://www.w3.org/Graphics/SVG/1.1/DTD/svg11.dtd">
<!-- Generated by graphviz version 9.0.0 (20230911.1827)
 -->
<!-- Title: edu.wpi.first.wpilibj.counter.Tachometer.getRevolutionsPerMinute Pages: 1 -->
<svg width="613pt" height="88pt"
 viewBox="0.00 0.00 613.25 87.50" xmlns="http://www.w3.org/2000/svg" xmlns:xlink="http://www.w3.org/1999/xlink">
<g id="graph0" class="graph" transform="scale(1 1) rotate(0) translate(4 83.5)">
<title>edu.wpi.first.wpilibj.counter.Tachometer.getRevolutionsPerMinute</title>
<!-- Node1 -->
<g id="Node000001" class="node">
<title>Node1</title>
<g id="a_Node000001"><a xlink:title=" ">
<polygon fill="#999999" stroke="#666666" points="178.75,-54.5 0,-54.5 0,-24 178.75,-24 178.75,-54.5"/>
<text text-anchor="start" x="8" y="-41" font-family="Helvetica,sans-Serif" font-size="10.00">edu.wpi.first.wpilibj.counter.</text>
<text text-anchor="middle" x="89.38" y="-29.75" font-family="Helvetica,sans-Serif" font-size="10.00">Tachometer.getRevolutionsPerMinute</text>
</a>
</g>
</g>
<!-- Node2 -->
<g id="Node000002" class="node">
<title>Node2</title>
<g id="a_Node000002"><a xlink:href="classedu_1_1wpi_1_1first_1_1wpilibj_1_1counter_1_1_tachometer.html#a2252fd19dc1d3877a6906d01984d65b7" target="_top" xlink:title=" ">
<polygon fill="white" stroke="#666666" points="397.25,-54.5 214.75,-54.5 214.75,-24 397.25,-24 397.25,-54.5"/>
<text text-anchor="start" x="222.75" y="-41" font-family="Helvetica,sans-Serif" font-size="10.00">edu.wpi.first.wpilibj.counter.</text>
<text text-anchor="middle" x="306" y="-29.75" font-family="Helvetica,sans-Serif" font-size="10.00">Tachometer.getRevolutionsPerSecond</text>
</a>
</g>
</g>
<!-- Node1&#45;&gt;Node2 -->
<g id="edge1_Node000001_Node000002" class="edge">
<title>Node1&#45;&gt;Node2</title>
<g id="a_edge1_Node000001_Node000002"><a xlink:title=" ">
<path fill="none" stroke="#63b8ff" d="M179.22,-39.25C187.14,-39.25 195.19,-39.25 203.21,-39.25"/>
<polygon fill="#63b8ff" stroke="#63b8ff" points="202.98,-42.75 212.98,-39.25 202.98,-35.75 202.98,-42.75"/>
</a>
</g>
</g>
<!-- Node3 -->
<g id="Node000003" class="node">
<title>Node3</title>
<g id="a_Node000003"><a xlink:href="classedu_1_1wpi_1_1first_1_1wpilibj_1_1counter_1_1_tachometer.html#ac50d24a7d189212da491e2829b162f01" target="_top" xlink:title=" ">
<polygon fill="white" stroke="#666666" points="605.25,-79.5 433.25,-79.5 433.25,-49 605.25,-49 605.25,-79.5"/>
<text text-anchor="start" x="441.25" y="-66" font-family="Helvetica,sans-Serif" font-size="10.00">edu.wpi.first.wpilibj.counter.</text>
<text text-anchor="middle" x="519.25" y="-54.75" font-family="Helvetica,sans-Serif" font-size="10.00">Tachometer.getEdgesPerRevolution</text>
</a>
</g>
</g>
<!-- Node2&#45;&gt;Node3 -->
<g id="edge2_Node000002_Node000003" class="edge">
<title>Node2&#45;&gt;Node3</title>
<g id="a_edge2_Node000002_Node000003"><a xlink:title=" ">
<path fill="none" stroke="#63b8ff" d="M397.51,-49.96C405.5,-50.91 413.61,-51.87 421.65,-52.82"/>
<polygon fill="#63b8ff" stroke="#63b8ff" points="421.11,-56.28 431.45,-53.98 421.93,-49.33 421.11,-56.28"/>
</a>
</g>
</g>
<!-- Node4 -->
<g id="Node000004" class="node">
<title>Node4</title>
<g id="a_Node000004"><a xlink:href="classedu_1_1wpi_1_1first_1_1wpilibj_1_1counter_1_1_tachometer.html#ad84f9fe6ebf7cff39f1a27956a540548" target="_top" xlink:title=" ">
<polygon fill="white" stroke="#666666" points="587.62,-30.5 450.88,-30.5 450.88,0 587.62,0 587.62,-30.5"/>
<text text-anchor="start" x="458.88" y="-17" font-family="Helvetica,sans-Serif" font-size="10.00">edu.wpi.first.wpilibj.counter.</text>
<text text-anchor="middle" x="519.25" y="-5.75" font-family="Helvetica,sans-Serif" font-size="10.00">Tachometer.getPeriod</text>
</a>
</g>
</g>
<!-- Node2&#45;&gt;Node4 -->
<g id="edge3_Node000002_Node000004" class="edge">
<title>Node2&#45;&gt;Node4</title>
<g id="a_edge3_Node000002_Node000004"><a xlink:title=" ">
<path fill="none" stroke="#63b8ff" d="M397.51,-28.97C411.42,-27.39 425.69,-25.77 439.32,-24.22"/>
<polygon fill="#63b8ff" stroke="#63b8ff" points="439.56,-27.71 449.1,-23.11 438.77,-20.76 439.56,-27.71"/>
</a>
</g>
</g>
</g>
</svg>
