<?xml version="1.0" encoding="UTF-8" standalone="no"?>
<!DOCTYPE svg PUBLIC "-//W3C//DTD SVG 1.1//EN"
 "http://www.w3.org/Graphics/SVG/1.1/DTD/svg11.dtd">
<!-- Generated by graphviz version 9.0.0 (20230911.1827)
 -->
<!-- Title: edu.wpi.first.wpilibj.SPI.startAutoRate Pages: 1 -->
<svg width="509pt" height="39pt"
 viewBox="0.00 0.00 509.00 38.50" xmlns="http://www.w3.org/2000/svg" xmlns:xlink="http://www.w3.org/1999/xlink">
<g id="graph0" class="graph" transform="scale(1 1) rotate(0) translate(4 34.5)">
<title>edu.wpi.first.wpilibj.SPI.startAutoRate</title>
<!-- Node1 -->
<g id="Node000001" class="node">
<title>Node1</title>
<g id="a_Node000001"><a xlink:title=" ">
<polygon fill="#999999" stroke="#666666" points="501,-30.5 359.75,-30.5 359.75,0 501,0 501,-30.5"/>
<text text-anchor="start" x="367.75" y="-17" font-family="Helvetica,sans-Serif" font-size="10.00">edu.wpi.first.wpilibj.SPI.start</text>
<text text-anchor="middle" x="430.38" y="-5.75" font-family="Helvetica,sans-Serif" font-size="10.00">AutoRate</text>
</a>
</g>
</g>
<!-- Node2 -->
<g id="Node000002" class="node">
<title>Node2</title>
<g id="a_Node000002"><a xlink:href="classedu_1_1wpi_1_1first_1_1wpilibj_1_1_s_p_i.html#a8b5b7c1cfb5a46b1a56278f8d472448c" target="_top" xlink:title=" ">
<polygon fill="white" stroke="#666666" points="323.75,-30.5 189.25,-30.5 189.25,0 323.75,0 323.75,-30.5"/>
<text text-anchor="start" x="197.25" y="-17" font-family="Helvetica,sans-Serif" font-size="10.00">edu.wpi.first.wpilibj.SPI.init</text>
<text text-anchor="middle" x="256.5" y="-5.75" font-family="Helvetica,sans-Serif" font-size="10.00">Accumulator</text>
</a>
</g>
</g>
<!-- Node1&#45;&gt;Node2 -->
<g id="edge1_Node000001_Node000002" class="edge">
<title>Node1&#45;&gt;Node2</title>
<g id="a_edge1_Node000001_Node000002"><a xlink:title=" ">
<path fill="none" stroke="#63b8ff" d="M348.12,-15.25C340.04,-15.25 331.91,-15.25 324.01,-15.25"/>
<polygon fill="#63b8ff" stroke="#63b8ff" points="347.95,-18.75 357.95,-15.25 347.95,-11.75 347.95,-18.75"/>
</a>
</g>
</g>
<!-- Node3 -->
<g id="Node000003" class="node">
<title>Node3</title>
<g id="a_Node000003"><a xlink:href="classedu_1_1wpi_1_1first_1_1wpilibj_1_1_a_d_x_r_s450___gyro.html#a1a5a788a8335b5a7c06dff192449c31d" target="_top" xlink:title=" ">
<polygon fill="white" stroke="#666666" points="153.25,-30.5 0,-30.5 0,0 153.25,0 153.25,-30.5"/>
<text text-anchor="start" x="8" y="-17" font-family="Helvetica,sans-Serif" font-size="10.00">edu.wpi.first.wpilibj.ADXRS450</text>
<text text-anchor="middle" x="76.62" y="-5.75" font-family="Helvetica,sans-Serif" font-size="10.00">_Gyro.ADXRS450_Gyro</text>
</a>
</g>
</g>
<!-- Node2&#45;&gt;Node3 -->
<g id="edge2_Node000002_Node000003" class="edge">
<title>Node2&#45;&gt;Node3</title>
<g id="a_edge2_Node000002_Node000003"><a xlink:title=" ">
<path fill="none" stroke="#63b8ff" d="M177.36,-15.25C169.51,-15.25 161.54,-15.25 153.71,-15.25"/>
<polygon fill="#63b8ff" stroke="#63b8ff" points="177.25,-18.75 187.25,-15.25 177.25,-11.75 177.25,-18.75"/>
</a>
</g>
</g>
</g>
</svg>
