<?xml version="1.0" encoding="UTF-8" standalone="no"?>
<!DOCTYPE svg PUBLIC "-//W3C//DTD SVG 1.1//EN"
 "http://www.w3.org/Graphics/SVG/1.1/DTD/svg11.dtd">
<!-- Generated by graphviz version 9.0.0 (20230911.1827)
 -->
<!-- Title: edu.wpi.first.wpilibj.smartdashboard.SmartDashboard.getEntry Pages: 1 -->
<!--zoomable 1460 -->

<svg id="main" version="1.1" xmlns="http://www.w3.org/2000/svg" xmlns:xlink="http://www.w3.org/1999/xlink" xml:space="preserve" onload="init(evt)">
<style type="text/css"><![CDATA[
.node, .edge {opacity: 0.7;}
.node.selected, .edge.selected {opacity: 1;}
.edge:hover path { stroke: red; }
.edge:hover polygon { stroke: red; fill: red; }
]]></style>

<defs>
  <circle id="rim" cx="0" cy="0" r="7"/>
  <circle id="rim2" cx="0" cy="0" r="3.5"/>
  <g id="zoomPlus">
    <use xlink:href="#rim" fill="#404040"><set attributeName="fill" to="#808080" begin="zoomplus.mouseover" end="zoomplus.mouseout"/></use>
    <path d="M-4,0h8M0,-4v8" fill="none" stroke="white" stroke-width="1.5" pointer-events="none"/>
  </g>
  <g id="zoomMin">
    <use xlink:href="#rim" fill="#404040"><set attributeName="fill" to="#808080" begin="zoomminus.mouseover" end="zoomminus.mouseout"/></use>
    <path d="M-4,0h8" fill="none" stroke="white" stroke-width="1.5" pointer-events="none"/>
  </g>
  <g id="arrowUp" transform="translate(30 24)">
    <use xlink:href="#rim"/>
    <path pointer-events="none" fill="none" stroke="white" stroke-width="1.5" d="M0,-3.0v7 M-2.5,-0.5L0,-3.0L2.5,-0.5"/>
  </g>
  <g id="arrowRight" transform="rotate(90) translate(36 -43)">
    <use xlink:href="#rim"/>
    <path pointer-events="none" fill="none" stroke="white" stroke-width="1.5" d="M0,-3.0v7 M-2.5,-0.5L0,-3.0L2.5,-0.5"/>
  </g>
  <g id="arrowDown" transform="rotate(180) translate(-30 -48)">
    <use xlink:href="#rim"/>
    <path pointer-events="none" fill="none" stroke="white" stroke-width="1.5" d="M0,-3.0v7 M-2.5,-0.5L0,-3.0L2.5,-0.5"/>
  </g>
  <g id="arrowLeft" transform="rotate(270) translate(-36 17)">
    <use xlink:href="#rim"/>
    <path pointer-events="none" fill="none" stroke="white" stroke-width="1.5" d="M0,-3.0v7 M-2.5,-0.5L0,-3.0L2.5,-0.5"/>
  </g>
  <g id="resetDef">
    <use xlink:href="#rim2" fill="#404040"><set attributeName="fill" to="#808080" begin="reset.mouseover" end="reset.mouseout"/></use>
  </g>
</defs>
<script type="application/ecmascript">
var viewWidth = 415;
var viewHeight = 1460;
var sectionId = 'dynsection-4';
</script>
<script type="application/ecmascript" xlink:href="svg.min.js"/>
<svg id="graph" class="graph">
<g id="viewport">
<title>edu.wpi.first.wpilibj.smartdashboard.SmartDashboard.getEntry</title>
<!-- Node1 -->
<g id="Node000001" class="node">
<title>Node1</title>
<g id="a_Node000001"><a xlink:title=" ">
<polygon fill="#999999" stroke="#666666" points="407,-740.5 232,-740.5 232,-710 407,-710 407,-740.5"/>
<text text-anchor="start" x="240" y="-727" font-family="Helvetica,sans-Serif" font-size="10.00">edu.wpi.first.wpilibj.smartdashboard.</text>
<text text-anchor="middle" x="319.5" y="-715.75" font-family="Helvetica,sans-Serif" font-size="10.00">SmartDashboard.getEntry</text>
</a>
</g>
</g>
<!-- Node2 -->
<g id="Node000002" class="node">
<title>Node2</title>
<g id="a_Node000002"><a xlink:href="classedu_1_1wpi_1_1first_1_1wpilibj_1_1smartdashboard_1_1_smart_dashboard.html#ae00e9c56ca75028e0a4aecb735af54bd" target="_top" xlink:title=" ">
<polygon fill="white" stroke="#666666" points="185.5,-1451.5 10.5,-1451.5 10.5,-1421 185.5,-1421 185.5,-1451.5"/>
<text text-anchor="start" x="18.5" y="-1438" font-family="Helvetica,sans-Serif" font-size="10.00">edu.wpi.first.wpilibj.smartdashboard.</text>
<text text-anchor="middle" x="98" y="-1426.75" font-family="Helvetica,sans-Serif" font-size="10.00">SmartDashboard.clearPersistent</text>
</a>
</g>
</g>
<!-- Node1&#45;&gt;Node2 -->
<g id="edge1_Node000001_Node000002" class="edge">
<title>Node1&#45;&gt;Node2</title>
<g id="a_edge1_Node000001_Node000002"><a xlink:title=" ">
<path fill="none" stroke="#63b8ff" d="M317.47,-752.13C312.52,-866.66 287.57,-1312.49 196,-1411.25 192.69,-1414.82 188.94,-1417.91 184.89,-1420.58"/>
<polygon fill="#63b8ff" stroke="#63b8ff" points="320.95,-752.62 317.87,-742.48 313.96,-752.33 320.95,-752.62"/>
</a>
</g>
</g>
<!-- Node3 -->
<g id="Node000003" class="node">
<title>Node3</title>
<g id="a_Node000003"><a xlink:href="classedu_1_1wpi_1_1first_1_1wpilibj_1_1smartdashboard_1_1_smart_dashboard.html#a500570e38c49176547c182ec6f66970a" target="_top" xlink:title=" ">
<polygon fill="white" stroke="#666666" points="185.5,-1402.5 10.5,-1402.5 10.5,-1372 185.5,-1372 185.5,-1402.5"/>
<text text-anchor="start" x="18.5" y="-1389" font-family="Helvetica,sans-Serif" font-size="10.00">edu.wpi.first.wpilibj.smartdashboard.</text>
<text text-anchor="middle" x="98" y="-1377.75" font-family="Helvetica,sans-Serif" font-size="10.00">SmartDashboard.getBoolean</text>
</a>
</g>
</g>
<!-- Node1&#45;&gt;Node3 -->
<g id="edge2_Node000001_Node000003" class="edge">
<title>Node1&#45;&gt;Node3</title>
<g id="a_edge2_Node000001_Node000003"><a xlink:title=" ">
<path fill="none" stroke="#63b8ff" d="M317.05,-752.3C310.65,-861.9 281.3,-1271.47 196,-1362.25 192.67,-1365.8 188.9,-1368.87 184.84,-1371.53"/>
<polygon fill="#63b8ff" stroke="#63b8ff" points="320.54,-752.69 317.61,-742.51 313.55,-752.29 320.54,-752.69"/>
</a>
</g>
</g>
<!-- Node4 -->
<g id="Node000004" class="node">
<title>Node4</title>
<g id="a_Node000004"><a xlink:href="classedu_1_1wpi_1_1first_1_1wpilibj_1_1smartdashboard_1_1_smart_dashboard.html#a69366aeee6159301a940141bd9bdd6f1" target="_top" xlink:title=" ">
<polygon fill="white" stroke="#666666" points="185.5,-1353.5 10.5,-1353.5 10.5,-1323 185.5,-1323 185.5,-1353.5"/>
<text text-anchor="start" x="18.5" y="-1340" font-family="Helvetica,sans-Serif" font-size="10.00">edu.wpi.first.wpilibj.smartdashboard.</text>
<text text-anchor="middle" x="98" y="-1328.75" font-family="Helvetica,sans-Serif" font-size="10.00">SmartDashboard.getBooleanArray</text>
</a>
</g>
</g>
<!-- Node1&#45;&gt;Node4 -->
<g id="edge3_Node000001_Node000004" class="edge">
<title>Node1&#45;&gt;Node4</title>
<g id="a_edge3_Node000001_Node000004"><a xlink:title=" ">
<path fill="none" stroke="#63b8ff" d="M316.59,-752.2C308.68,-856.29 275.12,-1230.34 196,-1313.25 192.52,-1316.9 188.58,-1320.04 184.34,-1322.75"/>
<polygon fill="#63b8ff" stroke="#63b8ff" points="320.07,-752.63 317.32,-742.4 313.09,-752.11 320.07,-752.63"/>
</a>
</g>
</g>
<!-- Node5 -->
<g id="Node000005" class="node">
<title>Node5</title>
<g id="a_Node000005"><a xlink:href="classedu_1_1wpi_1_1first_1_1wpilibj_1_1smartdashboard_1_1_smart_dashboard.html#a81bf9ab4e93f2d97c80cb1b82688fd97" target="_top" xlink:title=" ">
<polygon fill="white" stroke="#666666" points="185.5,-1304.5 10.5,-1304.5 10.5,-1274 185.5,-1274 185.5,-1304.5"/>
<text text-anchor="start" x="18.5" y="-1291" font-family="Helvetica,sans-Serif" font-size="10.00">edu.wpi.first.wpilibj.smartdashboard.</text>
<text text-anchor="middle" x="98" y="-1279.75" font-family="Helvetica,sans-Serif" font-size="10.00">SmartDashboard.getBooleanArray</text>
</a>
</g>
</g>
<!-- Node1&#45;&gt;Node5 -->
<g id="edge4_Node000001_Node000005" class="edge">
<title>Node1&#45;&gt;Node5</title>
<g id="a_edge4_Node000001_Node000005"><a xlink:title=" ">
<path fill="none" stroke="#63b8ff" d="M316.04,-752.16C306.53,-850.59 268.95,-1189.17 196,-1264.25 192.49,-1267.87 188.52,-1270.99 184.26,-1273.67"/>
<polygon fill="#63b8ff" stroke="#63b8ff" points="319.51,-752.68 316.97,-742.4 312.54,-752.03 319.51,-752.68"/>
</a>
</g>
</g>
<!-- Node6 -->
<g id="Node000006" class="node">
<title>Node6</title>
<g id="a_Node000006"><a xlink:href="classedu_1_1wpi_1_1first_1_1wpilibj_1_1smartdashboard_1_1_smart_dashboard.html#abaae408350b834294b5dad379689e1e8" target="_top" xlink:title=" ">
<polygon fill="white" stroke="#666666" points="185.5,-1255.5 10.5,-1255.5 10.5,-1225 185.5,-1225 185.5,-1255.5"/>
<text text-anchor="start" x="18.5" y="-1242" font-family="Helvetica,sans-Serif" font-size="10.00">edu.wpi.first.wpilibj.smartdashboard.</text>
<text text-anchor="middle" x="98" y="-1230.75" font-family="Helvetica,sans-Serif" font-size="10.00">SmartDashboard.getNumber</text>
</a>
</g>
</g>
<!-- Node1&#45;&gt;Node6 -->
<g id="edge5_Node000001_Node000006" class="edge">
<title>Node1&#45;&gt;Node6</title>
<g id="a_edge5_Node000001_Node000006"><a xlink:title=" ">
<path fill="none" stroke="#63b8ff" d="M315.36,-752.39C304.09,-845.22 262.74,-1148.02 196,-1215.25 192.45,-1218.83 188.45,-1221.92 184.17,-1224.58"/>
<polygon fill="#63b8ff" stroke="#63b8ff" points="318.83,-752.81 316.54,-742.47 311.88,-751.98 318.83,-752.81"/>
</a>
</g>
</g>
<!-- Node7 -->
<g id="Node000007" class="node">
<title>Node7</title>
<g id="a_Node000007"><a xlink:href="classedu_1_1wpi_1_1first_1_1wpilibj_1_1smartdashboard_1_1_smart_dashboard.html#a85b834837acce656873be544ec9da99d" target="_top" xlink:title=" ">
<polygon fill="white" stroke="#666666" points="185.5,-1206.5 10.5,-1206.5 10.5,-1176 185.5,-1176 185.5,-1206.5"/>
<text text-anchor="start" x="18.5" y="-1193" font-family="Helvetica,sans-Serif" font-size="10.00">edu.wpi.first.wpilibj.smartdashboard.</text>
<text text-anchor="middle" x="98" y="-1181.75" font-family="Helvetica,sans-Serif" font-size="10.00">SmartDashboard.getNumberArray</text>
</a>
</g>
</g>
<!-- Node1&#45;&gt;Node7 -->
<g id="edge6_Node000001_Node000007" class="edge">
<title>Node1&#45;&gt;Node7</title>
<g id="a_edge6_Node000001_Node000007"><a xlink:title=" ">
<path fill="none" stroke="#63b8ff" d="M314.59,-752.18C301.5,-838.6 256.67,-1106.7 196,-1166.25 192.28,-1169.9 188.09,-1173.05 183.61,-1175.74"/>
<polygon fill="#63b8ff" stroke="#63b8ff" points="318.05,-752.7 316.06,-742.3 311.12,-751.67 318.05,-752.7"/>
</a>
</g>
</g>
<!-- Node8 -->
<g id="Node000008" class="node">
<title>Node8</title>
<g id="a_Node000008"><a xlink:href="classedu_1_1wpi_1_1first_1_1wpilibj_1_1smartdashboard_1_1_smart_dashboard.html#a2b1b0c39afe9050e24a5550b3270c57c" target="_top" xlink:title=" ">
<polygon fill="white" stroke="#666666" points="185.5,-1157.5 10.5,-1157.5 10.5,-1127 185.5,-1127 185.5,-1157.5"/>
<text text-anchor="start" x="18.5" y="-1144" font-family="Helvetica,sans-Serif" font-size="10.00">edu.wpi.first.wpilibj.smartdashboard.</text>
<text text-anchor="middle" x="98" y="-1132.75" font-family="Helvetica,sans-Serif" font-size="10.00">SmartDashboard.getNumberArray</text>
</a>
</g>
</g>
<!-- Node1&#45;&gt;Node8 -->
<g id="edge7_Node000001_Node000008" class="edge">
<title>Node1&#45;&gt;Node8</title>
<g id="a_edge7_Node000001_Node000008"><a xlink:title=" ">
<path fill="none" stroke="#63b8ff" d="M318.5,-752.07C316.99,-822.78 302.76,-1015.76 196,-1117.25 192.22,-1120.84 187.99,-1123.94 183.47,-1126.6"/>
<polygon fill="#63b8ff" stroke="#63b8ff" points="322,-752.27 318.63,-742.22 315,-752.17 322,-752.27"/>
</a>
</g>
</g>
<!-- Node9 -->
<g id="Node000009" class="node">
<title>Node9</title>
<g id="a_Node000009"><a xlink:href="classedu_1_1wpi_1_1first_1_1wpilibj_1_1smartdashboard_1_1_smart_dashboard.html#abd6e92c1ddb38c498108f9478865c272" target="_top" xlink:title=" ">
<polygon fill="white" stroke="#666666" points="185.5,-1108.5 10.5,-1108.5 10.5,-1078 185.5,-1078 185.5,-1108.5"/>
<text text-anchor="start" x="18.5" y="-1095" font-family="Helvetica,sans-Serif" font-size="10.00">edu.wpi.first.wpilibj.smartdashboard.</text>
<text text-anchor="middle" x="98" y="-1083.75" font-family="Helvetica,sans-Serif" font-size="10.00">SmartDashboard.getRaw</text>
</a>
</g>
</g>
<!-- Node1&#45;&gt;Node9 -->
<g id="edge8_Node000001_Node000009" class="edge">
<title>Node1&#45;&gt;Node9</title>
<g id="a_edge8_Node000001_Node000009"><a xlink:title=" ">
<path fill="none" stroke="#63b8ff" d="M317.14,-751.77C312.36,-816.1 290.97,-981.53 196,-1068.25 192.02,-1071.89 187.58,-1075.01 182.85,-1077.69"/>
<polygon fill="#63b8ff" stroke="#63b8ff" points="320.61,-752.35 317.77,-742.15 313.62,-751.89 320.61,-752.35"/>
</a>
</g>
</g>
<!-- Node10 -->
<g id="Node000010" class="node">
<title>Node10</title>
<g id="a_Node000010"><a xlink:href="classedu_1_1wpi_1_1first_1_1wpilibj_1_1smartdashboard_1_1_smart_dashboard.html#a88d4bd4c90a526685ca182fb851b30db" target="_top" xlink:title=" ">
<polygon fill="white" stroke="#666666" points="185.5,-1059.5 10.5,-1059.5 10.5,-1029 185.5,-1029 185.5,-1059.5"/>
<text text-anchor="start" x="18.5" y="-1046" font-family="Helvetica,sans-Serif" font-size="10.00">edu.wpi.first.wpilibj.smartdashboard.</text>
<text text-anchor="middle" x="98" y="-1034.75" font-family="Helvetica,sans-Serif" font-size="10.00">SmartDashboard.getString</text>
</a>
</g>
</g>
<!-- Node1&#45;&gt;Node10 -->
<g id="edge9_Node000001_Node000010" class="edge">
<title>Node1&#45;&gt;Node10</title>
<g id="a_edge9_Node000001_Node000010"><a xlink:title=" ">
<path fill="none" stroke="#63b8ff" d="M315.33,-751.89C307.01,-809.7 279.09,-947.23 196,-1019.25 191.79,-1022.89 187.13,-1026.02 182.17,-1028.7"/>
<polygon fill="#63b8ff" stroke="#63b8ff" points="318.76,-752.7 316.62,-742.32 311.82,-751.76 318.76,-752.7"/>
</a>
</g>
</g>
<!-- Node11 -->
<g id="Node000011" class="node">
<title>Node11</title>
<g id="a_Node000011"><a xlink:href="classedu_1_1wpi_1_1first_1_1wpilibj_1_1smartdashboard_1_1_smart_dashboard.html#a192cb15d997dd5e7e9b2c3443f017f68" target="_top" xlink:title=" ">
<polygon fill="white" stroke="#666666" points="185.5,-1010.5 10.5,-1010.5 10.5,-980 185.5,-980 185.5,-1010.5"/>
<text text-anchor="start" x="18.5" y="-997" font-family="Helvetica,sans-Serif" font-size="10.00">edu.wpi.first.wpilibj.smartdashboard.</text>
<text text-anchor="middle" x="98" y="-985.75" font-family="Helvetica,sans-Serif" font-size="10.00">SmartDashboard.getStringArray</text>
</a>
</g>
</g>
<!-- Node1&#45;&gt;Node11 -->
<g id="edge10_Node000001_Node000011" class="edge">
<title>Node1&#45;&gt;Node11</title>
<g id="a_edge10_Node000001_Node000011"><a xlink:title=" ">
<path fill="none" stroke="#63b8ff" d="M312.87,-751.96C300.77,-802.58 267.39,-912.55 196,-970.25 191.54,-973.86 186.61,-976.95 181.42,-979.6"/>
<polygon fill="#63b8ff" stroke="#63b8ff" points="316.22,-752.99 315.04,-742.46 309.4,-751.43 316.22,-752.99"/>
</a>
</g>
</g>
<!-- Node12 -->
<g id="Node000012" class="node">
<title>Node12</title>
<g id="a_Node000012"><a xlink:href="classedu_1_1wpi_1_1first_1_1wpilibj_1_1smartdashboard_1_1_smart_dashboard.html#a19a7a4ffce2f0f82aded74cf8a3baf6f" target="_top" xlink:title=" ">
<polygon fill="white" stroke="#666666" points="185.5,-961.5 10.5,-961.5 10.5,-931 185.5,-931 185.5,-961.5"/>
<text text-anchor="start" x="18.5" y="-948" font-family="Helvetica,sans-Serif" font-size="10.00">edu.wpi.first.wpilibj.smartdashboard.</text>
<text text-anchor="middle" x="98" y="-936.75" font-family="Helvetica,sans-Serif" font-size="10.00">SmartDashboard.isPersistent</text>
</a>
</g>
</g>
<!-- Node1&#45;&gt;Node12 -->
<g id="edge11_Node000001_Node000012" class="edge">
<title>Node1&#45;&gt;Node12</title>
<g id="a_edge11_Node000001_Node000012"><a xlink:title=" ">
<path fill="none" stroke="#63b8ff" d="M309.52,-751.34C293.57,-793.71 256.19,-877.16 196,-921.25 191.09,-924.85 185.71,-927.93 180.08,-930.57"/>
<polygon fill="#63b8ff" stroke="#63b8ff" points="312.72,-752.8 312.85,-742.21 306.14,-750.4 312.72,-752.8"/>
</a>
</g>
</g>
<!-- Node13 -->
<g id="Node000013" class="node">
<title>Node13</title>
<g id="a_Node000013"><a xlink:href="classedu_1_1wpi_1_1first_1_1wpilibj_1_1smartdashboard_1_1_smart_dashboard.html#ad00c1736f4dfde10f0e22d976a4a9c4b" target="_top" xlink:title=" ">
<polygon fill="white" stroke="#666666" points="185.5,-912.5 10.5,-912.5 10.5,-882 185.5,-882 185.5,-912.5"/>
<text text-anchor="start" x="18.5" y="-899" font-family="Helvetica,sans-Serif" font-size="10.00">edu.wpi.first.wpilibj.smartdashboard.</text>
<text text-anchor="middle" x="98" y="-887.75" font-family="Helvetica,sans-Serif" font-size="10.00">SmartDashboard.putBoolean</text>
</a>
</g>
</g>
<!-- Node1&#45;&gt;Node13 -->
<g id="edge12_Node000001_Node000013" class="edge">
<title>Node1&#45;&gt;Node13</title>
<g id="a_edge12_Node000001_Node000013"><a xlink:title=" ">
<path fill="none" stroke="#63b8ff" d="M304.24,-750.72C284.36,-783.85 245.14,-841.15 196,-872.25 190.27,-875.88 184.03,-878.98 177.58,-881.63"/>
<polygon fill="#63b8ff" stroke="#63b8ff" points="307.21,-752.58 309.24,-742.18 301.17,-749.04 307.21,-752.58"/>
</a>
</g>
</g>
<!-- Node14 -->
<g id="Node000014" class="node">
<title>Node14</title>
<g id="a_Node000014"><a xlink:href="classedu_1_1wpi_1_1first_1_1wpilibj_1_1smartdashboard_1_1_smart_dashboard.html#a7759144b934d6725e450adc0a233ac1a" target="_top" xlink:title=" ">
<polygon fill="white" stroke="#666666" points="185.5,-863.5 10.5,-863.5 10.5,-833 185.5,-833 185.5,-863.5"/>
<text text-anchor="start" x="18.5" y="-850" font-family="Helvetica,sans-Serif" font-size="10.00">edu.wpi.first.wpilibj.smartdashboard.</text>
<text text-anchor="middle" x="98" y="-838.75" font-family="Helvetica,sans-Serif" font-size="10.00">SmartDashboard.putBooleanArray</text>
</a>
</g>
</g>
<!-- Node1&#45;&gt;Node14 -->
<g id="edge13_Node000001_Node000014" class="edge">
<title>Node1&#45;&gt;Node14</title>
<g id="a_edge13_Node000001_Node000014"><a xlink:title=" ">
<path fill="none" stroke="#63b8ff" d="M295.24,-748.95C272.06,-771.26 234.45,-804.03 196,-823.25 188.92,-826.79 181.3,-829.86 173.54,-832.51"/>
<polygon fill="#63b8ff" stroke="#63b8ff" points="297.62,-751.52 302.31,-742.02 292.72,-746.52 297.62,-751.52"/>
</a>
</g>
</g>
<!-- Node15 -->
<g id="Node000015" class="node">
<title>Node15</title>
<g id="a_Node000015"><a xlink:href="classedu_1_1wpi_1_1first_1_1wpilibj_1_1smartdashboard_1_1_smart_dashboard.html#aab440773c7890131a7973aa61ada53b3" target="_top" xlink:title=" ">
<polygon fill="white" stroke="#666666" points="185.5,-814.5 10.5,-814.5 10.5,-784 185.5,-784 185.5,-814.5"/>
<text text-anchor="start" x="18.5" y="-801" font-family="Helvetica,sans-Serif" font-size="10.00">edu.wpi.first.wpilibj.smartdashboard.</text>
<text text-anchor="middle" x="98" y="-789.75" font-family="Helvetica,sans-Serif" font-size="10.00">SmartDashboard.putBooleanArray</text>
</a>
</g>
</g>
<!-- Node1&#45;&gt;Node15 -->
<g id="edge14_Node000001_Node000015" class="edge">
<title>Node1&#45;&gt;Node15</title>
<g id="a_edge14_Node000001_Node000015"><a xlink:title=" ">
<path fill="none" stroke="#63b8ff" d="M272.39,-745.32C249.64,-754.8 221.65,-765.85 196,-774.25 186,-777.52 175.31,-780.65 164.81,-783.51"/>
<polygon fill="#63b8ff" stroke="#63b8ff" points="273.51,-748.65 281.37,-741.54 270.8,-742.2 273.51,-748.65"/>
</a>
</g>
</g>
<!-- Node16 -->
<g id="Node000016" class="node">
<title>Node16</title>
<g id="a_Node000016"><a xlink:href="classedu_1_1wpi_1_1first_1_1wpilibj_1_1smartdashboard_1_1_smart_dashboard.html#a0f5894d567c88f3f2a723715238924df" target="_top" xlink:title=" ">
<polygon fill="white" stroke="#666666" points="185.5,-765.5 10.5,-765.5 10.5,-735 185.5,-735 185.5,-765.5"/>
<text text-anchor="start" x="18.5" y="-752" font-family="Helvetica,sans-Serif" font-size="10.00">edu.wpi.first.wpilibj.smartdashboard.</text>
<text text-anchor="middle" x="98" y="-740.75" font-family="Helvetica,sans-Serif" font-size="10.00">SmartDashboard.putNumber</text>
</a>
</g>
</g>
<!-- Node1&#45;&gt;Node16 -->
<g id="edge15_Node000001_Node000016" class="edge">
<title>Node1&#45;&gt;Node16</title>
<g id="a_edge15_Node000001_Node000016"><a xlink:title=" ">
<path fill="none" stroke="#63b8ff" d="M220.33,-736.43C208.83,-737.74 197.17,-739.07 185.84,-740.36"/>
<polygon fill="#63b8ff" stroke="#63b8ff" points="220.7,-739.91 230.24,-735.3 219.91,-732.96 220.7,-739.91"/>
</a>
</g>
</g>
<!-- Node17 -->
<g id="Node000017" class="node">
<title>Node17</title>
<g id="a_Node000017"><a xlink:href="classedu_1_1wpi_1_1first_1_1wpilibj_1_1smartdashboard_1_1_smart_dashboard.html#a299c4286bc77b504b3b5810d87f1bbf0" target="_top" xlink:title=" ">
<polygon fill="white" stroke="#666666" points="185.5,-716.5 10.5,-716.5 10.5,-686 185.5,-686 185.5,-716.5"/>
<text text-anchor="start" x="18.5" y="-703" font-family="Helvetica,sans-Serif" font-size="10.00">edu.wpi.first.wpilibj.smartdashboard.</text>
<text text-anchor="middle" x="98" y="-691.75" font-family="Helvetica,sans-Serif" font-size="10.00">SmartDashboard.putNumberArray</text>
</a>
</g>
</g>
<!-- Node1&#45;&gt;Node17 -->
<g id="edge16_Node000001_Node000017" class="edge">
<title>Node1&#45;&gt;Node17</title>
<g id="a_edge16_Node000001_Node000017"><a xlink:title=" ">
<path fill="none" stroke="#63b8ff" d="M220.33,-714.52C208.83,-713.26 197.17,-711.98 185.84,-710.75"/>
<polygon fill="#63b8ff" stroke="#63b8ff" points="219.92,-717.99 230.24,-715.6 220.68,-711.03 219.92,-717.99"/>
</a>
</g>
</g>
<!-- Node18 -->
<g id="Node000018" class="node">
<title>Node18</title>
<g id="a_Node000018"><a xlink:href="classedu_1_1wpi_1_1first_1_1wpilibj_1_1smartdashboard_1_1_smart_dashboard.html#a6cf4ce5a1afaca919ece3221bcbff2c5" target="_top" xlink:title=" ">
<polygon fill="white" stroke="#666666" points="185.5,-667.5 10.5,-667.5 10.5,-637 185.5,-637 185.5,-667.5"/>
<text text-anchor="start" x="18.5" y="-654" font-family="Helvetica,sans-Serif" font-size="10.00">edu.wpi.first.wpilibj.smartdashboard.</text>
<text text-anchor="middle" x="98" y="-642.75" font-family="Helvetica,sans-Serif" font-size="10.00">SmartDashboard.putNumberArray</text>
</a>
</g>
</g>
<!-- Node1&#45;&gt;Node18 -->
<g id="edge17_Node000001_Node000018" class="edge">
<title>Node1&#45;&gt;Node18</title>
<g id="a_edge17_Node000001_Node000018"><a xlink:title=" ">
<path fill="none" stroke="#63b8ff" d="M271.29,-705.21C248.73,-696.03 221.21,-685.41 196,-677.25 185.91,-673.99 175.12,-670.86 164.53,-667.99"/>
<polygon fill="#63b8ff" stroke="#63b8ff" points="269.95,-708.44 280.53,-709 272.61,-701.96 269.95,-708.44"/>
</a>
</g>
</g>
<!-- Node19 -->
<g id="Node000019" class="node">
<title>Node19</title>
<g id="a_Node000019"><a xlink:href="classedu_1_1wpi_1_1first_1_1wpilibj_1_1smartdashboard_1_1_smart_dashboard.html#adfd83a895ee54cd728a80900ea8e34c6" target="_top" xlink:title=" ">
<polygon fill="white" stroke="#666666" points="185.5,-618.5 10.5,-618.5 10.5,-588 185.5,-588 185.5,-618.5"/>
<text text-anchor="start" x="18.5" y="-605" font-family="Helvetica,sans-Serif" font-size="10.00">edu.wpi.first.wpilibj.smartdashboard.</text>
<text text-anchor="middle" x="98" y="-593.75" font-family="Helvetica,sans-Serif" font-size="10.00">SmartDashboard.putRaw</text>
</a>
</g>
</g>
<!-- Node1&#45;&gt;Node19 -->
<g id="edge18_Node000001_Node000019" class="edge">
<title>Node1&#45;&gt;Node19</title>
<g id="a_edge18_Node000001_Node000019"><a xlink:title=" ">
<path fill="none" stroke="#63b8ff" d="M295.19,-701.8C271.97,-679.73 234.35,-647.3 196,-628.25 188.84,-624.69 181.11,-621.6 173.27,-618.93"/>
<polygon fill="#63b8ff" stroke="#63b8ff" points="292.65,-704.21 302.27,-708.65 297.52,-699.18 292.65,-704.21"/>
</a>
</g>
</g>
<!-- Node20 -->
<g id="Node000020" class="node">
<title>Node20</title>
<g id="a_Node000020"><a xlink:href="classedu_1_1wpi_1_1first_1_1wpilibj_1_1smartdashboard_1_1_smart_dashboard.html#ae1095f33f5891eff216db948ab0cf9ca" target="_top" xlink:title=" ">
<polygon fill="white" stroke="#666666" points="185.5,-569.5 10.5,-569.5 10.5,-539 185.5,-539 185.5,-569.5"/>
<text text-anchor="start" x="18.5" y="-556" font-family="Helvetica,sans-Serif" font-size="10.00">edu.wpi.first.wpilibj.smartdashboard.</text>
<text text-anchor="middle" x="98" y="-544.75" font-family="Helvetica,sans-Serif" font-size="10.00">SmartDashboard.putString</text>
</a>
</g>
</g>
<!-- Node1&#45;&gt;Node20 -->
<g id="edge19_Node000001_Node000020" class="edge">
<title>Node1&#45;&gt;Node20</title>
<g id="a_edge19_Node000001_Node000020"><a xlink:title=" ">
<path fill="none" stroke="#63b8ff" d="M304.2,-699.95C284.27,-667.05 245,-610.14 196,-579.25 190.26,-575.63 184.02,-572.54 177.56,-569.89"/>
<polygon fill="#63b8ff" stroke="#63b8ff" points="301.11,-701.6 309.21,-708.43 307.13,-698.04 301.11,-701.6"/>
</a>
</g>
</g>
<!-- Node21 -->
<g id="Node000021" class="node">
<title>Node21</title>
<g id="a_Node000021"><a xlink:href="classedu_1_1wpi_1_1first_1_1wpilibj_1_1smartdashboard_1_1_smart_dashboard.html#a6f21f99c935434d2113bd3081e3f2f21" target="_top" xlink:title=" ">
<polygon fill="white" stroke="#666666" points="185.5,-520.5 10.5,-520.5 10.5,-490 185.5,-490 185.5,-520.5"/>
<text text-anchor="start" x="18.5" y="-507" font-family="Helvetica,sans-Serif" font-size="10.00">edu.wpi.first.wpilibj.smartdashboard.</text>
<text text-anchor="middle" x="98" y="-495.75" font-family="Helvetica,sans-Serif" font-size="10.00">SmartDashboard.putStringArray</text>
</a>
</g>
</g>
<!-- Node1&#45;&gt;Node21 -->
<g id="edge20_Node000001_Node000021" class="edge">
<title>Node1&#45;&gt;Node21</title>
<g id="a_edge20_Node000001_Node000021"><a xlink:title=" ">
<path fill="none" stroke="#63b8ff" d="M309.37,-698.98C293.3,-656.73 255.88,-574.01 196,-530.25 191.09,-526.66 185.7,-523.58 180.07,-520.95"/>
<polygon fill="#63b8ff" stroke="#63b8ff" points="305.99,-699.92 312.73,-708.1 312.55,-697.51 305.99,-699.92"/>
</a>
</g>
</g>
<!-- Node22 -->
<g id="Node000022" class="node">
<title>Node22</title>
<g id="a_Node000022"><a xlink:href="classedu_1_1wpi_1_1first_1_1wpilibj_1_1smartdashboard_1_1_smart_dashboard.html#a54134248b8d751aa9c57491aead858ab" target="_top" xlink:title=" ">
<polygon fill="white" stroke="#666666" points="185.5,-471.5 10.5,-471.5 10.5,-441 185.5,-441 185.5,-471.5"/>
<text text-anchor="start" x="18.5" y="-458" font-family="Helvetica,sans-Serif" font-size="10.00">edu.wpi.first.wpilibj.smartdashboard.</text>
<text text-anchor="middle" x="98" y="-446.75" font-family="Helvetica,sans-Serif" font-size="10.00">SmartDashboard.setDefaultBoolean</text>
</a>
</g>
</g>
<!-- Node1&#45;&gt;Node22 -->
<g id="edge21_Node000001_Node000022" class="edge">
<title>Node1&#45;&gt;Node22</title>
<g id="a_edge21_Node000001_Node000022"><a xlink:title=" ">
<path fill="none" stroke="#63b8ff" d="M312.84,-698.65C300.68,-648.24 267.21,-538.7 196,-481.25 191.53,-477.65 186.61,-474.56 181.41,-471.91"/>
<polygon fill="#63b8ff" stroke="#63b8ff" points="309.36,-699.14 315.02,-708.1 316.18,-697.57 309.36,-699.14"/>
</a>
</g>
</g>
<!-- Node23 -->
<g id="Node000023" class="node">
<title>Node23</title>
<g id="a_Node000023"><a xlink:href="classedu_1_1wpi_1_1first_1_1wpilibj_1_1smartdashboard_1_1_smart_dashboard.html#a003e2b392212eb82960e535160b5d441" target="_top" xlink:title=" ">
<polygon fill="white" stroke="#666666" points="196,-422.5 0,-422.5 0,-392 196,-392 196,-422.5"/>
<text text-anchor="start" x="8" y="-409" font-family="Helvetica,sans-Serif" font-size="10.00">edu.wpi.first.wpilibj.smartdashboard.</text>
<text text-anchor="middle" x="98" y="-397.75" font-family="Helvetica,sans-Serif" font-size="10.00">SmartDashboard.setDefaultBooleanArray</text>
</a>
</g>
</g>
<!-- Node1&#45;&gt;Node23 -->
<g id="edge22_Node000001_Node000023" class="edge">
<title>Node1&#45;&gt;Node23</title>
<g id="a_edge22_Node000001_Node000023"><a xlink:title=" ">
<path fill="none" stroke="#63b8ff" d="M315.25,-698.33C306.8,-640.5 278.72,-503.86 196,-432.25 191.79,-428.61 187.12,-425.49 182.17,-422.81"/>
<polygon fill="#63b8ff" stroke="#63b8ff" points="311.78,-698.8 316.6,-708.23 318.72,-697.85 311.78,-698.8"/>
</a>
</g>
</g>
<!-- Node24 -->
<g id="Node000024" class="node">
<title>Node24</title>
<g id="a_Node000024"><a xlink:href="classedu_1_1wpi_1_1first_1_1wpilibj_1_1smartdashboard_1_1_smart_dashboard.html#acb050ff878bbc496f2e33b43ad7765de" target="_top" xlink:title=" ">
<polygon fill="white" stroke="#666666" points="196,-373.5 0,-373.5 0,-343 196,-343 196,-373.5"/>
<text text-anchor="start" x="8" y="-360" font-family="Helvetica,sans-Serif" font-size="10.00">edu.wpi.first.wpilibj.smartdashboard.</text>
<text text-anchor="middle" x="98" y="-348.75" font-family="Helvetica,sans-Serif" font-size="10.00">SmartDashboard.setDefaultBooleanArray</text>
</a>
</g>
</g>
<!-- Node1&#45;&gt;Node24 -->
<g id="edge23_Node000001_Node000024" class="edge">
<title>Node1&#45;&gt;Node24</title>
<g id="a_edge23_Node000001_Node000024"><a xlink:title=" ">
<path fill="none" stroke="#63b8ff" d="M317.08,-698.36C312.18,-633.9 290.55,-469.5 196,-383.25 192.02,-379.62 187.58,-376.5 182.85,-373.82"/>
<polygon fill="#63b8ff" stroke="#63b8ff" points="313.57,-698.28 317.73,-708.02 320.55,-697.81 313.57,-698.28"/>
</a>
</g>
</g>
<!-- Node25 -->
<g id="Node000025" class="node">
<title>Node25</title>
<g id="a_Node000025"><a xlink:href="classedu_1_1wpi_1_1first_1_1wpilibj_1_1smartdashboard_1_1_smart_dashboard.html#a04d88adaa9995a617126cb6d2141bc0e" target="_top" xlink:title=" ">
<polygon fill="white" stroke="#666666" points="185.5,-324.5 10.5,-324.5 10.5,-294 185.5,-294 185.5,-324.5"/>
<text text-anchor="start" x="18.5" y="-311" font-family="Helvetica,sans-Serif" font-size="10.00">edu.wpi.first.wpilibj.smartdashboard.</text>
<text text-anchor="middle" x="98" y="-299.75" font-family="Helvetica,sans-Serif" font-size="10.00">SmartDashboard.setDefaultNumber</text>
</a>
</g>
</g>
<!-- Node1&#45;&gt;Node25 -->
<g id="edge24_Node000001_Node000025" class="edge">
<title>Node1&#45;&gt;Node25</title>
<g id="a_edge24_Node000001_Node000025"><a xlink:title=" ">
<path fill="none" stroke="#63b8ff" d="M318.48,-698.49C316.91,-627.96 302.55,-435.47 196,-334.25 192.22,-330.66 187.99,-327.56 183.47,-324.9"/>
<polygon fill="#63b8ff" stroke="#63b8ff" points="314.98,-698.37 318.62,-708.32 321.98,-698.27 314.98,-698.37"/>
</a>
</g>
</g>
<!-- Node26 -->
<g id="Node000026" class="node">
<title>Node26</title>
<g id="a_Node000026"><a xlink:href="classedu_1_1wpi_1_1first_1_1wpilibj_1_1smartdashboard_1_1_smart_dashboard.html#acda1bbbf5cbded6fb1f9ce5545073033" target="_top" xlink:title=" ">
<polygon fill="white" stroke="#666666" points="195.62,-275.5 0.38,-275.5 0.38,-245 195.62,-245 195.62,-275.5"/>
<text text-anchor="start" x="8.38" y="-262" font-family="Helvetica,sans-Serif" font-size="10.00">edu.wpi.first.wpilibj.smartdashboard.</text>
<text text-anchor="middle" x="98" y="-250.75" font-family="Helvetica,sans-Serif" font-size="10.00">SmartDashboard.setDefaultNumberArray</text>
</a>
</g>
</g>
<!-- Node1&#45;&gt;Node26 -->
<g id="edge25_Node000001_Node000026" class="edge">
<title>Node1&#45;&gt;Node26</title>
<g id="a_edge25_Node000001_Node000026"><a xlink:title=" ">
<path fill="none" stroke="#63b8ff" d="M314.58,-698.38C301.47,-612.15 256.56,-344.66 196,-285.25 192.28,-281.6 188.09,-278.46 183.61,-275.76"/>
<polygon fill="#63b8ff" stroke="#63b8ff" points="311.11,-698.87 316.05,-708.24 318.03,-697.83 311.11,-698.87"/>
</a>
</g>
</g>
<!-- Node27 -->
<g id="Node000027" class="node">
<title>Node27</title>
<g id="a_Node000027"><a xlink:href="classedu_1_1wpi_1_1first_1_1wpilibj_1_1smartdashboard_1_1_smart_dashboard.html#a2cb19f3f12102454afdbba99273a562d" target="_top" xlink:title=" ">
<polygon fill="white" stroke="#666666" points="195.62,-226.5 0.38,-226.5 0.38,-196 195.62,-196 195.62,-226.5"/>
<text text-anchor="start" x="8.38" y="-213" font-family="Helvetica,sans-Serif" font-size="10.00">edu.wpi.first.wpilibj.smartdashboard.</text>
<text text-anchor="middle" x="98" y="-201.75" font-family="Helvetica,sans-Serif" font-size="10.00">SmartDashboard.setDefaultNumberArray</text>
</a>
</g>
</g>
<!-- Node1&#45;&gt;Node27 -->
<g id="edge26_Node000001_Node000027" class="edge">
<title>Node1&#45;&gt;Node27</title>
<g id="a_edge26_Node000001_Node000027"><a xlink:title=" ">
<path fill="none" stroke="#63b8ff" d="M315.35,-698.17C304.05,-605.52 262.63,-303.33 196,-236.25 192.45,-232.67 188.45,-229.58 184.16,-226.92"/>
<polygon fill="#63b8ff" stroke="#63b8ff" points="311.87,-698.55 316.54,-708.07 318.82,-697.72 311.87,-698.55"/>
</a>
</g>
</g>
<!-- Node28 -->
<g id="Node000028" class="node">
<title>Node28</title>
<g id="a_Node000028"><a xlink:href="classedu_1_1wpi_1_1first_1_1wpilibj_1_1smartdashboard_1_1_smart_dashboard.html#ae691420348f7a236abcab64d3205ab18" target="_top" xlink:title=" ">
<polygon fill="white" stroke="#666666" points="185.5,-177.5 10.5,-177.5 10.5,-147 185.5,-147 185.5,-177.5"/>
<text text-anchor="start" x="18.5" y="-164" font-family="Helvetica,sans-Serif" font-size="10.00">edu.wpi.first.wpilibj.smartdashboard.</text>
<text text-anchor="middle" x="98" y="-152.75" font-family="Helvetica,sans-Serif" font-size="10.00">SmartDashboard.setDefaultRaw</text>
</a>
</g>
</g>
<!-- Node1&#45;&gt;Node28 -->
<g id="edge27_Node000001_Node000028" class="edge">
<title>Node1&#45;&gt;Node28</title>
<g id="a_edge27_Node000001_Node000028"><a xlink:title=" ">
<path fill="none" stroke="#63b8ff" d="M316.04,-698.38C306.5,-600.14 268.83,-262.18 196,-187.25 192.48,-183.63 188.52,-180.52 184.26,-177.83"/>
<polygon fill="#63b8ff" stroke="#63b8ff" points="312.53,-698.51 316.96,-708.13 319.5,-697.84 312.53,-698.51"/>
</a>
</g>
</g>
<!-- Node29 -->
<g id="Node000029" class="node">
<title>Node29</title>
<g id="a_Node000029"><a xlink:href="classedu_1_1wpi_1_1first_1_1wpilibj_1_1smartdashboard_1_1_smart_dashboard.html#a922525a30991430ae8abd6ca741a0a60" target="_top" xlink:title=" ">
<polygon fill="white" stroke="#666666" points="185.5,-128.5 10.5,-128.5 10.5,-98 185.5,-98 185.5,-128.5"/>
<text text-anchor="start" x="18.5" y="-115" font-family="Helvetica,sans-Serif" font-size="10.00">edu.wpi.first.wpilibj.smartdashboard.</text>
<text text-anchor="middle" x="98" y="-103.75" font-family="Helvetica,sans-Serif" font-size="10.00">SmartDashboard.setDefaultString</text>
</a>
</g>
</g>
<!-- Node1&#45;&gt;Node29 -->
<g id="edge28_Node000001_Node000029" class="edge">
<title>Node1&#45;&gt;Node29</title>
<g id="a_edge28_Node000001_Node000029"><a xlink:title=" ">
<path fill="none" stroke="#63b8ff" d="M316.58,-698.34C308.65,-594.43 275,-221.02 196,-138.25 192.52,-134.6 188.58,-131.46 184.33,-128.76"/>
<polygon fill="#63b8ff" stroke="#63b8ff" points="313.08,-698.42 317.31,-708.13 320.06,-697.9 313.08,-698.42"/>
</a>
</g>
</g>
<!-- Node30 -->
<g id="Node000030" class="node">
<title>Node30</title>
<g id="a_Node000030"><a xlink:href="classedu_1_1wpi_1_1first_1_1wpilibj_1_1smartdashboard_1_1_smart_dashboard.html#a57203749a26adba691de1220faffce38" target="_top" xlink:title=" ">
<polygon fill="white" stroke="#666666" points="191.12,-79.5 4.88,-79.5 4.88,-49 191.12,-49 191.12,-79.5"/>
<text text-anchor="start" x="12.88" y="-66" font-family="Helvetica,sans-Serif" font-size="10.00">edu.wpi.first.wpilibj.smartdashboard.</text>
<text text-anchor="middle" x="98" y="-54.75" font-family="Helvetica,sans-Serif" font-size="10.00">SmartDashboard.setDefaultStringArray</text>
</a>
</g>
</g>
<!-- Node1&#45;&gt;Node30 -->
<g id="edge29_Node000001_Node000030" class="edge">
<title>Node1&#45;&gt;Node30</title>
<g id="a_edge29_Node000001_Node000030"><a xlink:title=" ">
<path fill="none" stroke="#63b8ff" d="M317.05,-698.25C310.62,-588.82 281.18,-179.88 196,-89.25 192.67,-85.7 188.9,-82.63 184.84,-79.97"/>
<polygon fill="#63b8ff" stroke="#63b8ff" points="313.54,-698.23 317.6,-708.02 320.53,-697.84 313.54,-698.23"/>
</a>
</g>
</g>
<!-- Node31 -->
<g id="Node000031" class="node">
<title>Node31</title>
<g id="a_Node000031"><a xlink:href="classedu_1_1wpi_1_1first_1_1wpilibj_1_1smartdashboard_1_1_smart_dashboard.html#abac8df299deedfbc429e257c559506ab" target="_top" xlink:title=" ">
<polygon fill="white" stroke="#666666" points="185.5,-30.5 10.5,-30.5 10.5,0 185.5,0 185.5,-30.5"/>
<text text-anchor="start" x="18.5" y="-17" font-family="Helvetica,sans-Serif" font-size="10.00">edu.wpi.first.wpilibj.smartdashboard.</text>
<text text-anchor="middle" x="98" y="-5.75" font-family="Helvetica,sans-Serif" font-size="10.00">SmartDashboard.setPersistent</text>
</a>
</g>
</g>
<!-- Node1&#45;&gt;Node31 -->
<g id="edge30_Node000001_Node000031" class="edge">
<title>Node1&#45;&gt;Node31</title>
<g id="a_edge30_Node000001_Node000031"><a xlink:title=" ">
<path fill="none" stroke="#63b8ff" d="M317.45,-698.06C312.44,-583.14 287.36,-138.76 196,-40.25 192.69,-36.68 188.94,-33.59 184.89,-30.92"/>
<polygon fill="#63b8ff" stroke="#63b8ff" points="313.95,-698.2 317.86,-708.04 320.94,-697.91 313.95,-698.2"/>
</a>
</g>
</g>
</g>
</svg>

<g id="navigator" transform="translate(0 0)" fill="#404254">
  <rect fill="#f2f5e9" fill-opacity="0.5" stroke="#606060" stroke-width=".5" x="0" y="0" width="60" height="60"/>
  <use id="zoomplus" xlink:href="#zoomPlus" x="17" y="9" onmousedown="handleZoom(evt,'in')"/>
  <use id="zoomminus" xlink:href="#zoomMin" x="42" y="9" onmousedown="handleZoom(evt,'out')"/>
  <use id="reset" xlink:href="#resetDef" x="30" y="36" onmousedown="handleReset()"/>
   <use id="arrowup" xlink:href="#arrowUp" x="0" y="0" onmousedown="handlePan(0,-1)"/>
  <use id="arrowright" xlink:href="#arrowRight" x="0" y="0" onmousedown="handlePan(1,0)"/>
  <use id="arrowdown" xlink:href="#arrowDown" x="0" y="0" onmousedown="handlePan(0,1)"/>
  <use id="arrowleft" xlink:href="#arrowLeft" x="0" y="0" onmousedown="handlePan(-1,0)"/>
</g>
<svg viewBox="0 0 15 15" width="100%" height="30px" preserveAspectRatio="xMaxYMin meet">
 <g id="arrow_out" transform="scale(0.3 0.3)">
  <a xlink:href="classedu_1_1wpi_1_1first_1_1wpilibj_1_1smartdashboard_1_1_smart_dashboard_ac7430ea7997e50b65117999784b857b7_icgraph_org.svg" target="_base">
   <rect id="button" ry="5" rx="5" y="6" x="6" height="38" width="38"
        fill="#f2f5e9" fill-opacity="0.5" stroke="#606060" stroke-width="1.0"/>
   <path id="arrow"
     d="M 11.500037,31.436501 C 11.940474,20.09759 22.043105,11.32322 32.158766,21.979434 L 37.068811,17.246167 C 37.068811,17.246167 37.088388,32 37.088388,32 L 22.160133,31.978069 C 22.160133,31.978069 26.997745,27.140456 26.997745,27.140456 C 18.528582,18.264221 13.291696,25.230495 11.500037,31.436501 z"
     style="fill:#404040;"/>
  </a>
 </g>
</svg>

<style type='text/css'>
<![CDATA[
[data-mouse-over-selected='false'] { opacity: 0.7; }
[data-mouse-over-selected='true']  { opacity: 1.0; }
]]>
</style>
<script type="application/ecmascript"><![CDATA[
document.addEventListener('DOMContentLoaded', (event) => {
  highlightEdges();
  highlightAdjacentNodes();
});
]]></script>
</svg>
