<?xml version="1.0" encoding="UTF-8" standalone="no"?>
<!DOCTYPE svg PUBLIC "-//W3C//DTD SVG 1.1//EN"
 "http://www.w3.org/Graphics/SVG/1.1/DTD/svg11.dtd">
<!-- Generated by graphviz version 9.0.0 (20230911.1827)
 -->
<!-- Title: edu.wpi.first.wpilibj.smartdashboard.SendableChooser.setDefaultOption Pages: 1 -->
<svg width="394pt" height="88pt"
 viewBox="0.00 0.00 394.00 87.50" xmlns="http://www.w3.org/2000/svg" xmlns:xlink="http://www.w3.org/1999/xlink">
<g id="graph0" class="graph" transform="scale(1 1) rotate(0) translate(4 83.5)">
<title>edu.wpi.first.wpilibj.smartdashboard.SendableChooser.setDefaultOption</title>
<!-- Node1 -->
<g id="Node000001" class="node">
<title>Node1</title>
<g id="a_Node000001"><a xlink:title=" ">
<polygon fill="#999999" stroke="#666666" points="175,-54.5 0,-54.5 0,-24 175,-24 175,-54.5"/>
<text text-anchor="start" x="8" y="-41" font-family="Helvetica,sans-Serif" font-size="10.00">edu.wpi.first.wpilibj.smartdashboard.</text>
<text text-anchor="middle" x="87.5" y="-29.75" font-family="Helvetica,sans-Serif" font-size="10.00">SendableChooser.setDefaultOption</text>
</a>
</g>
</g>
<!-- Node2 -->
<g id="Node000002" class="node">
<title>Node2</title>
<g id="a_Node000002"><a xlink:href="classedu_1_1wpi_1_1first_1_1wpilibj_1_1smartdashboard_1_1_sendable_chooser.html#a4b48b0a32e339163e9fd58279a2d82bf" target="_top" xlink:title=" ">
<polygon fill="white" stroke="#666666" points="386,-79.5 211,-79.5 211,-49 386,-49 386,-79.5"/>
<text text-anchor="start" x="219" y="-66" font-family="Helvetica,sans-Serif" font-size="10.00">edu.wpi.first.wpilibj.smartdashboard.</text>
<text text-anchor="middle" x="298.5" y="-54.75" font-family="Helvetica,sans-Serif" font-size="10.00">SendableChooser.addOption</text>
</a>
</g>
</g>
<!-- Node1&#45;&gt;Node2 -->
<g id="edge1_Node000001_Node000002" class="edge">
<title>Node1&#45;&gt;Node2</title>
<g id="a_edge1_Node000001_Node000002"><a xlink:title=" ">
<path fill="none" stroke="#63b8ff" d="M175.32,-49.64C183.25,-50.58 191.31,-51.55 199.33,-52.51"/>
<polygon fill="#63b8ff" stroke="#63b8ff" points="198.77,-55.96 209.11,-53.68 199.6,-49.01 198.77,-55.96"/>
</a>
</g>
</g>
<!-- Node3 -->
<g id="Node000003" class="node">
<title>Node3</title>
<g id="a_Node000003"><a xlink:href="classedu_1_1wpi_1_1first_1_1wpilibj_1_1smartdashboard_1_1_sendable_chooser.html#a6151534a0d068f8518995ba231021c6b" target="_top" xlink:title=" ">
<polygon fill="white" stroke="#666666" points="386,-30.5 211,-30.5 211,0 386,0 386,-30.5"/>
<text text-anchor="start" x="219" y="-17" font-family="Helvetica,sans-Serif" font-size="10.00">edu.wpi.first.wpilibj.smartdashboard.</text>
<text text-anchor="middle" x="298.5" y="-5.75" font-family="Helvetica,sans-Serif" font-size="10.00">SendableChooser.SendableChooser</text>
</a>
</g>
</g>
<!-- Node1&#45;&gt;Node3 -->
<g id="edge2_Node000001_Node000003" class="edge">
<title>Node1&#45;&gt;Node3</title>
<g id="a_edge2_Node000001_Node000003"><a xlink:title=" ">
<path fill="none" stroke="#63b8ff" d="M175.32,-29.28C183.25,-28.37 191.31,-27.44 199.33,-26.52"/>
<polygon fill="#63b8ff" stroke="#63b8ff" points="199.58,-30.02 209.11,-25.4 198.78,-23.06 199.58,-30.02"/>
</a>
</g>
</g>
</g>
</svg>
