<?xml version="1.0" encoding="UTF-8" standalone="no"?>
<!DOCTYPE svg PUBLIC "-//W3C//DTD SVG 1.1//EN"
 "http://www.w3.org/Graphics/SVG/1.1/DTD/svg11.dtd">
<!-- Generated by graphviz version 9.0.0 (20230911.1827)
 -->
<!-- Title: edu.wpi.first.wpilibj.simulation.DutyCycleEncoderSim.DutyCycleEncoderSim Pages: 1 -->
<svg width="412pt" height="88pt"
 viewBox="0.00 0.00 412.00 87.50" xmlns="http://www.w3.org/2000/svg" xmlns:xlink="http://www.w3.org/1999/xlink">
<g id="graph0" class="graph" transform="scale(1 1) rotate(0) translate(4 83.5)">
<title>edu.wpi.first.wpilibj.simulation.DutyCycleEncoderSim.DutyCycleEncoderSim</title>
<!-- Node1 -->
<g id="Node000001" class="node">
<title>Node1</title>
<g id="a_Node000001"><a xlink:title=" ">
<polygon fill="#999999" stroke="#666666" points="218.5,-54.5 0,-54.5 0,-24 218.5,-24 218.5,-54.5"/>
<text text-anchor="start" x="8" y="-41" font-family="Helvetica,sans-Serif" font-size="10.00">edu.wpi.first.wpilibj.simulation.</text>
<text text-anchor="middle" x="109.25" y="-29.75" font-family="Helvetica,sans-Serif" font-size="10.00">DutyCycleEncoderSim.DutyCycleEncoderSim</text>
</a>
</g>
</g>
<!-- Node2 -->
<g id="Node000002" class="node">
<title>Node2</title>
<g id="a_Node000002"><a xlink:href="classedu_1_1wpi_1_1first_1_1wpilibj_1_1simulation_1_1_sim_device_sim.html#a97f0687035a9de74a1586a8f18c9debf" target="_top" xlink:title=" ">
<polygon fill="white" stroke="#666666" points="404,-79.5 254.5,-79.5 254.5,-49 404,-49 404,-79.5"/>
<text text-anchor="start" x="262.5" y="-66" font-family="Helvetica,sans-Serif" font-size="10.00">edu.wpi.first.wpilibj.simulation.</text>
<text text-anchor="middle" x="329.25" y="-54.75" font-family="Helvetica,sans-Serif" font-size="10.00">SimDeviceSim.getBoolean</text>
</a>
</g>
</g>
<!-- Node1&#45;&gt;Node2 -->
<g id="edge1_Node000001_Node000002" class="edge">
<title>Node1&#45;&gt;Node2</title>
<g id="a_edge1_Node000001_Node000002"><a xlink:title=" ">
<path fill="none" stroke="#63b8ff" d="M218.93,-51.71C226.96,-52.63 234.98,-53.55 242.84,-54.46"/>
<polygon fill="#63b8ff" stroke="#63b8ff" points="242.37,-57.92 252.7,-55.59 243.17,-50.97 242.37,-57.92"/>
</a>
</g>
</g>
<!-- Node3 -->
<g id="Node000003" class="node">
<title>Node3</title>
<g id="a_Node000003"><a xlink:href="classedu_1_1wpi_1_1first_1_1wpilibj_1_1simulation_1_1_sim_device_sim.html#a18ff83cec047ed1551deb66bde7147da" target="_top" xlink:title=" ">
<polygon fill="white" stroke="#666666" points="404,-30.5 254.5,-30.5 254.5,0 404,0 404,-30.5"/>
<text text-anchor="start" x="262.5" y="-17" font-family="Helvetica,sans-Serif" font-size="10.00">edu.wpi.first.wpilibj.simulation.</text>
<text text-anchor="middle" x="329.25" y="-5.75" font-family="Helvetica,sans-Serif" font-size="10.00">SimDeviceSim.getDouble</text>
</a>
</g>
</g>
<!-- Node1&#45;&gt;Node3 -->
<g id="edge2_Node000001_Node000003" class="edge">
<title>Node1&#45;&gt;Node3</title>
<g id="a_edge2_Node000001_Node000003"><a xlink:title=" ">
<path fill="none" stroke="#63b8ff" d="M218.93,-27.29C226.96,-26.4 234.98,-25.52 242.84,-24.65"/>
<polygon fill="#63b8ff" stroke="#63b8ff" points="243.15,-28.14 252.7,-23.57 242.38,-21.18 243.15,-28.14"/>
</a>
</g>
</g>
</g>
</svg>
