<?xml version="1.0" encoding="UTF-8" standalone="no"?>
<!DOCTYPE svg PUBLIC "-//W3C//DTD SVG 1.1//EN"
 "http://www.w3.org/Graphics/SVG/1.1/DTD/svg11.dtd">
<!-- Generated by graphviz version 9.0.0 (20230911.1827)
 -->
<!-- Title: edu.wpi.first.wpilibj.RobotController.getFPGATime Pages: 1 -->
<svg width="1129pt" height="536pt"
 viewBox="0.00 0.00 1128.50 535.50" xmlns="http://www.w3.org/2000/svg" xmlns:xlink="http://www.w3.org/1999/xlink">
<g id="graph0" class="graph" transform="scale(1 1) rotate(0) translate(4 531.5)">
<title>edu.wpi.first.wpilibj.RobotController.getFPGATime</title>
<!-- Node1 -->
<g id="Node000001" class="node">
<title>Node1</title>
<g id="a_Node000001"><a xlink:title=" ">
<polygon fill="#999999" stroke="#666666" points="1120.5,-152.5 992,-152.5 992,-122 1120.5,-122 1120.5,-152.5"/>
<text text-anchor="start" x="1000" y="-139" font-family="Helvetica,sans-Serif" font-size="10.00">edu.wpi.first.wpilibj.Robot</text>
<text text-anchor="middle" x="1056.25" y="-127.75" font-family="Helvetica,sans-Serif" font-size="10.00">Controller.getFPGATime</text>
</a>
</g>
</g>
<!-- Node2 -->
<g id="Node000002" class="node">
<title>Node2</title>
<g id="a_Node000002"><a xlink:href="classedu_1_1wpi_1_1first_1_1wpilibj_1_1_tracer.html#ad576a460dd3e7246210c773616a92fe6" target="_top" xlink:title=" ">
<polygon fill="white" stroke="#666666" points="952.25,-177.5 804.25,-177.5 804.25,-147 952.25,-147 952.25,-177.5"/>
<text text-anchor="start" x="812.25" y="-164" font-family="Helvetica,sans-Serif" font-size="10.00">edu.wpi.first.wpilibj.Tracer.add</text>
<text text-anchor="middle" x="878.25" y="-152.75" font-family="Helvetica,sans-Serif" font-size="10.00">Epoch</text>
</a>
</g>
</g>
<!-- Node1&#45;&gt;Node2 -->
<g id="edge1_Node000001_Node000002" class="edge">
<title>Node1&#45;&gt;Node2</title>
<g id="a_edge1_Node000001_Node000002"><a xlink:title=" ">
<path fill="none" stroke="#63b8ff" d="M980.54,-147.86C971.27,-149.18 961.81,-150.52 952.57,-151.84"/>
<polygon fill="#63b8ff" stroke="#63b8ff" points="980.8,-151.36 990.21,-146.49 979.82,-144.43 980.8,-151.36"/>
</a>
</g>
</g>
<!-- Node5 -->
<g id="Node000005" class="node">
<title>Node5</title>
<g id="a_Node000005"><a xlink:href="classedu_1_1wpi_1_1first_1_1wpilibj_1_1_timer.html#a554f331c3b4645ee279bab8974cf21af" target="_top" xlink:title=" ">
<polygon fill="white" stroke="#666666" points="753.62,-317.5 610.88,-317.5 610.88,-287 753.62,-287 753.62,-317.5"/>
<text text-anchor="start" x="618.88" y="-304" font-family="Helvetica,sans-Serif" font-size="10.00">edu.wpi.first.wpilibj.Timer.get</text>
<text text-anchor="middle" x="682.25" y="-292.75" font-family="Helvetica,sans-Serif" font-size="10.00">FPGATimestamp</text>
</a>
</g>
</g>
<!-- Node1&#45;&gt;Node5 -->
<g id="edge4_Node000001_Node000005" class="edge">
<title>Node1&#45;&gt;Node5</title>
<g id="a_edge4_Node000001_Node000005"><a xlink:title=" ">
<path fill="none" stroke="#63b8ff" d="M1036.96,-161.72C1018.85,-184.19 989.1,-216.74 956,-235.25 892.91,-270.54 811.42,-287.42 754,-295.39"/>
<polygon fill="#63b8ff" stroke="#63b8ff" points="1039.62,-163.99 1043.05,-153.96 1034.12,-159.67 1039.62,-163.99"/>
</a>
</g>
</g>
<!-- Node21 -->
<g id="Node000021" class="node">
<title>Node21</title>
<g id="a_Node000021"><a xlink:href="classedu_1_1wpi_1_1first_1_1wpilibj_1_1_tracer.html#a4a011b877482ea73e966ad62e7b5e04d" target="_top" xlink:title=" ">
<polygon fill="white" stroke="#666666" points="953.75,-128.5 802.75,-128.5 802.75,-98 953.75,-98 953.75,-128.5"/>
<text text-anchor="start" x="810.75" y="-115" font-family="Helvetica,sans-Serif" font-size="10.00">edu.wpi.first.wpilibj.Tracer.print</text>
<text text-anchor="middle" x="878.25" y="-103.75" font-family="Helvetica,sans-Serif" font-size="10.00">Epochs</text>
</a>
</g>
</g>
<!-- Node1&#45;&gt;Node21 -->
<g id="edge21_Node000001_Node000021" class="edge">
<title>Node1&#45;&gt;Node21</title>
<g id="a_edge21_Node000001_Node000021"><a xlink:title=" ">
<path fill="none" stroke="#63b8ff" d="M980.39,-127.04C971.68,-125.85 962.79,-124.64 954.08,-123.45"/>
<polygon fill="#63b8ff" stroke="#63b8ff" points="979.83,-130.5 990.21,-128.38 980.77,-123.56 979.83,-130.5"/>
</a>
</g>
</g>
<!-- Node22 -->
<g id="Node000022" class="node">
<title>Node22</title>
<g id="a_Node000022"><a xlink:href="classedu_1_1wpi_1_1first_1_1wpilibj_1_1_tracer.html#a8ec8917a1e56d3d57363532d1d6fd4bd" target="_top" xlink:title=" ">
<polygon fill="white" stroke="#666666" points="955.25,-226.5 801.25,-226.5 801.25,-196 955.25,-196 955.25,-226.5"/>
<text text-anchor="start" x="809.25" y="-213" font-family="Helvetica,sans-Serif" font-size="10.00">edu.wpi.first.wpilibj.Tracer.reset</text>
<text text-anchor="middle" x="878.25" y="-201.75" font-family="Helvetica,sans-Serif" font-size="10.00">Timer</text>
</a>
</g>
</g>
<!-- Node1&#45;&gt;Node22 -->
<g id="edge22_Node000001_Node000022" class="edge">
<title>Node1&#45;&gt;Node22</title>
<g id="a_edge22_Node000001_Node000022"><a xlink:title=" ">
<path fill="none" stroke="#63b8ff" d="M1016.09,-158.2C998.07,-167.42 976.23,-178.01 956,-186.25 947.95,-189.53 939.3,-192.68 930.81,-195.58"/>
<polygon fill="#63b8ff" stroke="#63b8ff" points="1017.61,-161.36 1024.88,-153.65 1014.39,-155.14 1017.61,-161.36"/>
</a>
</g>
</g>
<!-- Node25 -->
<g id="Node000025" class="node">
<title>Node25</title>
<g id="a_Node000025"><a xlink:href="classedu_1_1wpi_1_1first_1_1wpilibj_1_1_notifier.html#a23369a5ec31e3d9632747d60deb0abee" target="_top" xlink:title=" ">
<polygon fill="white" stroke="#666666" points="956,-79.5 800.5,-79.5 800.5,-49 956,-49 956,-79.5"/>
<text text-anchor="start" x="808.5" y="-66" font-family="Helvetica,sans-Serif" font-size="10.00">edu.wpi.first.wpilibj.Notifier.start</text>
<text text-anchor="middle" x="878.25" y="-54.75" font-family="Helvetica,sans-Serif" font-size="10.00">Periodic</text>
</a>
</g>
</g>
<!-- Node1&#45;&gt;Node25 -->
<g id="edge27_Node000001_Node000025" class="edge">
<title>Node1&#45;&gt;Node25</title>
<g id="a_edge27_Node000001_Node000025"><a xlink:title=" ">
<path fill="none" stroke="#63b8ff" d="M1015.65,-116.58C997.7,-107.6 976.04,-97.32 956,-89.25 947.94,-86.01 939.28,-82.87 930.79,-79.97"/>
<polygon fill="#63b8ff" stroke="#63b8ff" points="1013.9,-119.61 1024.41,-121 1017.06,-113.37 1013.9,-119.61"/>
</a>
</g>
</g>
<!-- Node26 -->
<g id="Node000026" class="node">
<title>Node26</title>
<g id="a_Node000026"><a xlink:href="classedu_1_1wpi_1_1first_1_1wpilibj_1_1_notifier.html#a12172b4efc6e7efa70352c24aae52b9e" target="_top" xlink:title=" ">
<polygon fill="white" stroke="#666666" points="956,-30.5 800.5,-30.5 800.5,0 956,0 956,-30.5"/>
<text text-anchor="start" x="808.5" y="-17" font-family="Helvetica,sans-Serif" font-size="10.00">edu.wpi.first.wpilibj.Notifier.start</text>
<text text-anchor="middle" x="878.25" y="-5.75" font-family="Helvetica,sans-Serif" font-size="10.00">Single</text>
</a>
</g>
</g>
<!-- Node1&#45;&gt;Node26 -->
<g id="edge28_Node000001_Node000026" class="edge">
<title>Node1&#45;&gt;Node26</title>
<g id="a_edge28_Node000001_Node000026"><a xlink:title=" ">
<path fill="none" stroke="#63b8ff" d="M1035.97,-112.85C1017.54,-91.02 987.92,-59.58 956,-40.25 950.13,-36.69 943.69,-33.58 937.12,-30.88"/>
<polygon fill="#63b8ff" stroke="#63b8ff" points="1033.12,-114.9 1042.19,-120.38 1038.52,-110.44 1033.12,-114.9"/>
</a>
</g>
</g>
<!-- Node3 -->
<g id="Node000003" class="node">
<title>Node3</title>
<g id="a_Node000003"><a xlink:href="classedu_1_1wpi_1_1first_1_1wpilibj_1_1_watchdog.html#a58c47852598d27597f0d4307262af029" target="_top" xlink:title=" ">
<polygon fill="white" stroke="#666666" points="764.5,-152.5 600,-152.5 600,-122 764.5,-122 764.5,-152.5"/>
<text text-anchor="start" x="608" y="-139" font-family="Helvetica,sans-Serif" font-size="10.00">edu.wpi.first.wpilibj.Watchdog.add</text>
<text text-anchor="middle" x="682.25" y="-127.75" font-family="Helvetica,sans-Serif" font-size="10.00">Epoch</text>
</a>
</g>
</g>
<!-- Node2&#45;&gt;Node3 -->
<g id="edge2_Node000002_Node000003" class="edge">
<title>Node2&#45;&gt;Node3</title>
<g id="a_edge2_Node000002_Node000003"><a xlink:title=" ">
<path fill="none" stroke="#63b8ff" d="M792.71,-151.36C783.45,-150.16 774.04,-148.95 764.81,-147.76"/>
<polygon fill="#63b8ff" stroke="#63b8ff" points="792.04,-154.8 802.41,-152.61 792.94,-147.86 792.04,-154.8"/>
</a>
</g>
</g>
<!-- Node4 -->
<g id="Node000004" class="node">
<title>Node4</title>
<g id="a_Node000004"><a xlink:href="classedu_1_1wpi_1_1first_1_1wpilibj_1_1_iterative_robot_base.html#aac5c45d7130bce188e0f9278075e8891" target="_top" xlink:title=" ">
<polygon fill="white" stroke="#666666" points="137.5,-171.5 0,-171.5 0,-141 137.5,-141 137.5,-171.5"/>
<text text-anchor="start" x="8" y="-158" font-family="Helvetica,sans-Serif" font-size="10.00">edu.wpi.first.wpilibj.Iterative</text>
<text text-anchor="middle" x="68.75" y="-146.75" font-family="Helvetica,sans-Serif" font-size="10.00">RobotBase.loopFunc</text>
</a>
</g>
</g>
<!-- Node3&#45;&gt;Node4 -->
<g id="edge3_Node000003_Node000004" class="edge">
<title>Node3&#45;&gt;Node4</title>
<g id="a_edge3_Node000003_Node000004"><a xlink:title=" ">
<path fill="none" stroke="#63b8ff" d="M588.4,-140.13C464.5,-143.98 247.95,-150.71 138,-154.13"/>
<polygon fill="#63b8ff" stroke="#63b8ff" points="588.33,-143.64 598.22,-139.83 588.11,-136.64 588.33,-143.64"/>
</a>
</g>
</g>
<!-- Node6 -->
<g id="Node000006" class="node">
<title>Node6</title>
<g id="a_Node000006"><a xlink:href="classedu_1_1wpi_1_1first_1_1wpilibj_1_1_motor_safety.html#a378effe2109461036a883da6e4a86675" target="_top" xlink:title=" ">
<polygon fill="white" stroke="#666666" points="535.5,-428.5 408.5,-428.5 408.5,-398 535.5,-398 535.5,-428.5"/>
<text text-anchor="start" x="416.5" y="-415" font-family="Helvetica,sans-Serif" font-size="10.00">edu.wpi.first.wpilibj.Motor</text>
<text text-anchor="middle" x="472" y="-403.75" font-family="Helvetica,sans-Serif" font-size="10.00">Safety.check</text>
</a>
</g>
</g>
<!-- Node5&#45;&gt;Node6 -->
<g id="edge5_Node000005_Node000006" class="edge">
<title>Node5&#45;&gt;Node6</title>
<g id="a_edge5_Node000005_Node000006"><a xlink:title=" ">
<path fill="none" stroke="#63b8ff" d="M655.65,-325.34C633.02,-344.65 598.36,-371.63 564,-388.25 555.15,-392.53 545.45,-396.18 535.78,-399.25"/>
<polygon fill="#63b8ff" stroke="#63b8ff" points="657.89,-328.04 663.15,-318.84 653.3,-322.75 657.89,-328.04"/>
</a>
</g>
</g>
<!-- Node7 -->
<g id="Node000007" class="node">
<title>Node7</title>
<g id="a_Node000007"><a xlink:href="classedu_1_1wpi_1_1first_1_1wpilibj_1_1_watchdog.html#aacdc6efc6b79902319f7b07344298c49" target="_top" xlink:title=" ">
<polygon fill="white" stroke="#666666" points="560.62,-244.88 383.38,-244.88 383.38,-225.62 560.62,-225.62 560.62,-244.88"/>
<text text-anchor="middle" x="472" y="-231.38" font-family="Helvetica,sans-Serif" font-size="10.00">edu.wpi.first.wpilibj.Watchdog.enable</text>
</a>
</g>
</g>
<!-- Node5&#45;&gt;Node7 -->
<g id="edge6_Node000005_Node000007" class="edge">
<title>Node5&#45;&gt;Node7</title>
<g id="a_edge6_Node000005_Node000007"><a xlink:title=" ">
<path fill="none" stroke="#63b8ff" d="M637.2,-281.98C615.5,-272.57 588.74,-261.83 564,-254.25 552.89,-250.85 540.83,-247.86 529.23,-245.31"/>
<polygon fill="#63b8ff" stroke="#63b8ff" points="635.78,-285.18 646.34,-286 638.6,-278.77 635.78,-285.18"/>
</a>
</g>
</g>
<!-- Node9 -->
<g id="Node000009" class="node">
<title>Node9</title>
<g id="a_Node000009"><a xlink:href="classedu_1_1wpi_1_1first_1_1wpilibj_1_1_motor_safety.html#a1cf5b3c42e8b01f45af0004135ce0ef3" target="_top" xlink:title=" ">
<polygon fill="white" stroke="#666666" points="535.5,-379.5 408.5,-379.5 408.5,-349 535.5,-349 535.5,-379.5"/>
<text text-anchor="start" x="416.5" y="-366" font-family="Helvetica,sans-Serif" font-size="10.00">edu.wpi.first.wpilibj.Motor</text>
<text text-anchor="middle" x="472" y="-354.75" font-family="Helvetica,sans-Serif" font-size="10.00">Safety.feed</text>
</a>
</g>
</g>
<!-- Node5&#45;&gt;Node9 -->
<g id="edge9_Node000005_Node000009" class="edge">
<title>Node5&#45;&gt;Node9</title>
<g id="a_edge9_Node000005_Node000009"><a xlink:title=" ">
<path fill="none" stroke="#63b8ff" d="M624.03,-321.5C605,-327.71 583.65,-334.48 564,-340.25 554.44,-343.06 544.26,-345.89 534.32,-348.58"/>
<polygon fill="#63b8ff" stroke="#63b8ff" points="625.08,-324.84 633.49,-318.39 622.9,-318.18 625.08,-324.84"/>
</a>
</g>
</g>
<!-- Node17 -->
<g id="Node000017" class="node">
<title>Node17</title>
<g id="a_Node000017"><a xlink:href="classedu_1_1wpi_1_1first_1_1wpilibj_1_1_watchdog.html#a651b0d80df35d997e47df83c15bc6b1b" target="_top" xlink:title=" ">
<polygon fill="white" stroke="#666666" points="564,-330.88 380,-330.88 380,-311.62 564,-311.62 564,-330.88"/>
<text text-anchor="middle" x="472" y="-317.38" font-family="Helvetica,sans-Serif" font-size="10.00">edu.wpi.first.wpilibj.Watchdog.getTime</text>
</a>
</g>
</g>
<!-- Node5&#45;&gt;Node17 -->
<g id="edge17_Node000005_Node000017" class="edge">
<title>Node5&#45;&gt;Node17</title>
<g id="a_edge17_Node000005_Node000017"><a xlink:title=" ">
<path fill="none" stroke="#63b8ff" d="M599.14,-309.74C587.69,-310.79 575.86,-311.87 564.25,-312.93"/>
<polygon fill="#63b8ff" stroke="#63b8ff" points="599.31,-313.24 608.95,-308.85 598.67,-306.27 599.31,-313.24"/>
</a>
</g>
</g>
<!-- Node18 -->
<g id="Node000018" class="node">
<title>Node18</title>
<g id="a_Node000018"><a xlink:href="classedu_1_1wpi_1_1first_1_1wpilibj_1_1_motor_safety.html#a846ee424c635e266f91aca1fdcef760f" target="_top" xlink:title=" ">
<polygon fill="white" stroke="#666666" points="535.5,-293.5 408.5,-293.5 408.5,-263 535.5,-263 535.5,-293.5"/>
<text text-anchor="start" x="416.5" y="-280" font-family="Helvetica,sans-Serif" font-size="10.00">edu.wpi.first.wpilibj.Motor</text>
<text text-anchor="middle" x="472" y="-268.75" font-family="Helvetica,sans-Serif" font-size="10.00">Safety.isAlive</text>
</a>
</g>
</g>
<!-- Node5&#45;&gt;Node18 -->
<g id="edge18_Node000005_Node000018" class="edge">
<title>Node5&#45;&gt;Node18</title>
<g id="a_edge18_Node000005_Node000018"><a xlink:title=" ">
<path fill="none" stroke="#63b8ff" d="M599.24,-292.8C578.18,-290.37 555.85,-287.8 535.92,-285.5"/>
<polygon fill="#63b8ff" stroke="#63b8ff" points="598.62,-296.25 608.95,-293.92 599.42,-289.3 598.62,-296.25"/>
</a>
</g>
</g>
<!-- Node19 -->
<g id="Node000019" class="node">
<title>Node19</title>
<g id="a_Node000019"><a xlink:href="classedu_1_1wpi_1_1first_1_1wpilibj_1_1_watchdog.html#a721d8b1a9ebc2ab5d11b1b3fddc2fd96" target="_top" xlink:title=" ">
<polygon fill="white" stroke="#666666" points="553.12,-207.5 390.88,-207.5 390.88,-177 553.12,-177 553.12,-207.5"/>
<text text-anchor="start" x="398.88" y="-194" font-family="Helvetica,sans-Serif" font-size="10.00">edu.wpi.first.wpilibj.Watchdog.set</text>
<text text-anchor="middle" x="472" y="-182.75" font-family="Helvetica,sans-Serif" font-size="10.00">Timeout</text>
</a>
</g>
</g>
<!-- Node5&#45;&gt;Node19 -->
<g id="edge19_Node000005_Node000019" class="edge">
<title>Node5&#45;&gt;Node19</title>
<g id="a_edge19_Node000005_Node000019"><a xlink:title=" ">
<path fill="none" stroke="#63b8ff" d="M634.42,-281.41C622.61,-275.13 610.36,-267.64 600,-259.25 580.62,-243.57 585.04,-229.61 564,-216.25 559.03,-213.1 553.67,-210.36 548.11,-207.97"/>
<polygon fill="#63b8ff" stroke="#63b8ff" points="632.77,-284.5 643.27,-285.93 635.95,-278.27 632.77,-284.5"/>
</a>
</g>
</g>
<!-- Node20 -->
<g id="Node000020" class="node">
<title>Node20</title>
<g id="a_Node000020"><a xlink:href="classedu_1_1wpi_1_1first_1_1wpilibj_1_1_timed_robot.html#ad671bcbaca1d342efeb25c34dfdc7782" target="_top" xlink:title=" ">
<polygon fill="white" stroke="#666666" points="536.62,-477.5 407.38,-477.5 407.38,-447 536.62,-447 536.62,-477.5"/>
<text text-anchor="start" x="415.38" y="-464" font-family="Helvetica,sans-Serif" font-size="10.00">edu.wpi.first.wpilibj.Timed</text>
<text text-anchor="middle" x="472" y="-452.75" font-family="Helvetica,sans-Serif" font-size="10.00">Robot.TimedRobot</text>
</a>
</g>
</g>
<!-- Node5&#45;&gt;Node20 -->
<g id="edge20_Node000005_Node000020" class="edge">
<title>Node5&#45;&gt;Node20</title>
<g id="a_edge20_Node000005_Node000020"><a xlink:title=" ">
<path fill="none" stroke="#63b8ff" d="M666.12,-327.34C646.41,-357.88 609.08,-408.87 564,-437.25 555.68,-442.49 546.26,-446.64 536.72,-449.94"/>
<polygon fill="#63b8ff" stroke="#63b8ff" points="668.94,-329.44 671.31,-319.11 663.01,-325.7 668.94,-329.44"/>
</a>
</g>
</g>
<!-- Node8 -->
<g id="Node000008" class="node">
<title>Node8</title>
<g id="a_Node000008"><a xlink:href="classedu_1_1wpi_1_1first_1_1wpilibj_1_1_watchdog.html#afbebfdef0304b43e207e20d43cfba7bb" target="_top" xlink:title=" ">
<polygon fill="white" stroke="#666666" points="344,-184.88 173.5,-184.88 173.5,-165.62 344,-165.62 344,-184.88"/>
<text text-anchor="middle" x="258.75" y="-171.38" font-family="Helvetica,sans-Serif" font-size="10.00">edu.wpi.first.wpilibj.Watchdog.reset</text>
</a>
</g>
</g>
<!-- Node7&#45;&gt;Node8 -->
<g id="edge7_Node000007_Node000008" class="edge">
<title>Node7&#45;&gt;Node8</title>
<g id="a_edge7_Node000007_Node000008"><a xlink:title=" ">
<path fill="none" stroke="#63b8ff" d="M397.58,-222.23C391.56,-220.46 385.63,-218.48 380,-216.25 362.57,-209.34 361.38,-201.3 344,-194.25 335.25,-190.7 325.7,-187.75 316.28,-185.31"/>
<polygon fill="#63b8ff" stroke="#63b8ff" points="396.46,-225.55 407.02,-224.77 398.28,-218.79 396.46,-225.55"/>
</a>
</g>
</g>
<!-- Node8&#45;&gt;Node4 -->
<g id="edge8_Node000008_Node000004" class="edge">
<title>Node8&#45;&gt;Node4</title>
<g id="a_edge8_Node000008_Node000004"><a xlink:title=" ">
<path fill="none" stroke="#63b8ff" d="M161.73,-165.55C153.68,-164.73 145.65,-163.92 137.88,-163.14"/>
<polygon fill="#63b8ff" stroke="#63b8ff" points="161.29,-169.02 171.59,-166.54 162,-162.05 161.29,-169.02"/>
</a>
</g>
</g>
<!-- Node10 -->
<g id="Node000010" class="node">
<title>Node10</title>
<g id="a_Node000010"><a xlink:href="classedu_1_1wpi_1_1first_1_1wpilibj_1_1drive_1_1_differential_drive.html#ac127c082834f02d435b1da69e221221e" target="_top" xlink:title=" ">
<polygon fill="white" stroke="#666666" points="329.75,-331.5 187.75,-331.5 187.75,-301 329.75,-301 329.75,-331.5"/>
<text text-anchor="start" x="195.75" y="-318" font-family="Helvetica,sans-Serif" font-size="10.00">edu.wpi.first.wpilibj.drive.</text>
<text text-anchor="middle" x="258.75" y="-306.75" font-family="Helvetica,sans-Serif" font-size="10.00">DifferentialDrive.arcadeDrive</text>
</a>
</g>
</g>
<!-- Node9&#45;&gt;Node10 -->
<g id="edge10_Node000009_Node000010" class="edge">
<title>Node9&#45;&gt;Node10</title>
<g id="a_edge10_Node000009_Node000010"><a xlink:title=" ">
<path fill="none" stroke="#63b8ff" d="M397.16,-347.47C375.01,-342.44 350.8,-336.94 328.96,-331.98"/>
<polygon fill="#63b8ff" stroke="#63b8ff" points="396.19,-350.84 406.71,-349.64 397.74,-344.01 396.19,-350.84"/>
</a>
</g>
</g>
<!-- Node11 -->
<g id="Node000011" class="node">
<title>Node11</title>
<g id="a_Node000011"><a xlink:href="classedu_1_1wpi_1_1first_1_1wpilibj_1_1drive_1_1_differential_drive.html#aa26c304f5d903f8a042548e4b339dbd9" target="_top" xlink:title=" ">
<polygon fill="white" stroke="#666666" points="335.38,-282.5 182.12,-282.5 182.12,-252 335.38,-252 335.38,-282.5"/>
<text text-anchor="start" x="190.12" y="-269" font-family="Helvetica,sans-Serif" font-size="10.00">edu.wpi.first.wpilibj.drive.</text>
<text text-anchor="middle" x="258.75" y="-257.75" font-family="Helvetica,sans-Serif" font-size="10.00">DifferentialDrive.curvatureDrive</text>
</a>
</g>
</g>
<!-- Node9&#45;&gt;Node11 -->
<g id="edge11_Node000009_Node000011" class="edge">
<title>Node9&#45;&gt;Node11</title>
<g id="a_edge11_Node000009_Node000011"><a xlink:title=" ">
<path fill="none" stroke="#63b8ff" d="M397.72,-349.69C391.48,-347.05 385.47,-343.93 380,-340.25 357.88,-325.36 365.89,-307.48 344,-292.25 338.87,-288.68 333.21,-285.61 327.34,-282.97"/>
<polygon fill="#63b8ff" stroke="#63b8ff" points="396.37,-352.92 406.96,-353.17 398.83,-346.37 396.37,-352.92"/>
</a>
</g>
</g>
<!-- Node12 -->
<g id="Node000012" class="node">
<title>Node12</title>
<g id="a_Node000012"><a xlink:href="classedu_1_1wpi_1_1first_1_1wpilibj_1_1drive_1_1_mecanum_drive.html#a346448c6268f5e7eac322b055d9544d4" target="_top" xlink:title=" ">
<polygon fill="white" stroke="#666666" points="332.75,-233.5 184.75,-233.5 184.75,-203 332.75,-203 332.75,-233.5"/>
<text text-anchor="start" x="192.75" y="-220" font-family="Helvetica,sans-Serif" font-size="10.00">edu.wpi.first.wpilibj.drive.</text>
<text text-anchor="middle" x="258.75" y="-208.75" font-family="Helvetica,sans-Serif" font-size="10.00">MecanumDrive.driveCartesian</text>
</a>
</g>
</g>
<!-- Node9&#45;&gt;Node12 -->
<g id="edge12_Node000009_Node000012" class="edge">
<title>Node9&#45;&gt;Node12</title>
<g id="a_edge12_Node000009_Node000012"><a xlink:title=" ">
<path fill="none" stroke="#63b8ff" d="M397.79,-351.92C391.32,-348.84 385.24,-345 380,-340.25 345.94,-309.36 377.59,-274.66 344,-243.25 340.1,-239.6 335.69,-236.49 330.99,-233.82"/>
<polygon fill="#63b8ff" stroke="#63b8ff" points="396.24,-355.07 406.83,-355.61 398.89,-348.59 396.24,-355.07"/>
</a>
</g>
</g>
<!-- Node13 -->
<g id="Node000013" class="node">
<title>Node13</title>
<g id="a_Node000013"><a xlink:href="classedu_1_1wpi_1_1first_1_1wpilibj_1_1drive_1_1_robot_drive_base.html#a1ec69d1094ba16beb8fa50383608b969" target="_top" xlink:title=" ">
<polygon fill="white" stroke="#666666" points="335.38,-527.5 182.12,-527.5 182.12,-497 335.38,-497 335.38,-527.5"/>
<text text-anchor="start" x="190.12" y="-514" font-family="Helvetica,sans-Serif" font-size="10.00">edu.wpi.first.wpilibj.drive.</text>
<text text-anchor="middle" x="258.75" y="-502.75" font-family="Helvetica,sans-Serif" font-size="10.00">RobotDriveBase.feedWatchdog</text>
</a>
</g>
</g>
<!-- Node9&#45;&gt;Node13 -->
<g id="edge13_Node000009_Node000013" class="edge">
<title>Node9&#45;&gt;Node13</title>
<g id="a_edge13_Node000009_Node000013"><a xlink:title=" ">
<path fill="none" stroke="#63b8ff" d="M397.75,-377.4C391.29,-380.55 385.22,-384.45 380,-389.25 345.84,-420.66 377.84,-455.5 344,-487.25 340.11,-490.9 335.7,-494.03 331,-496.69"/>
<polygon fill="#63b8ff" stroke="#63b8ff" points="398.92,-380.71 406.79,-373.61 396.21,-374.25 398.92,-380.71"/>
</a>
</g>
</g>
<!-- Node14 -->
<g id="Node000014" class="node">
<title>Node14</title>
<g id="a_Node000014"><a xlink:href="classedu_1_1wpi_1_1first_1_1wpilibj_1_1drive_1_1_differential_drive.html#ae0a416b71c085dccbe717fb72164b6bf" target="_top" xlink:title=" ">
<polygon fill="white" stroke="#666666" points="325.25,-478.5 192.25,-478.5 192.25,-448 325.25,-448 325.25,-478.5"/>
<text text-anchor="start" x="200.25" y="-465" font-family="Helvetica,sans-Serif" font-size="10.00">edu.wpi.first.wpilibj.drive.</text>
<text text-anchor="middle" x="258.75" y="-453.75" font-family="Helvetica,sans-Serif" font-size="10.00">DifferentialDrive.stopMotor</text>
</a>
</g>
</g>
<!-- Node9&#45;&gt;Node14 -->
<g id="edge14_Node000009_Node000014" class="edge">
<title>Node9&#45;&gt;Node14</title>
<g id="a_edge14_Node000009_Node000014"><a xlink:title=" ">
<path fill="none" stroke="#63b8ff" d="M397.67,-379.6C391.44,-382.31 385.45,-385.5 380,-389.25 357.74,-404.57 366.11,-422.71 344,-438.25 338.38,-442.2 332.14,-445.53 325.66,-448.34"/>
<polygon fill="#63b8ff" stroke="#63b8ff" points="398.85,-382.9 406.91,-376.02 396.32,-376.37 398.85,-382.9"/>
</a>
</g>
</g>
<!-- Node15 -->
<g id="Node000015" class="node">
<title>Node15</title>
<g id="a_Node000015"><a xlink:href="classedu_1_1wpi_1_1first_1_1wpilibj_1_1drive_1_1_mecanum_drive.html#a705384b17e708185aaff6f931f68c8ff" target="_top" xlink:title=" ">
<polygon fill="white" stroke="#666666" points="323,-429.5 194.5,-429.5 194.5,-399 323,-399 323,-429.5"/>
<text text-anchor="start" x="202.5" y="-416" font-family="Helvetica,sans-Serif" font-size="10.00">edu.wpi.first.wpilibj.drive.</text>
<text text-anchor="middle" x="258.75" y="-404.75" font-family="Helvetica,sans-Serif" font-size="10.00">MecanumDrive.stopMotor</text>
</a>
</g>
</g>
<!-- Node9&#45;&gt;Node15 -->
<g id="edge15_Node000009_Node000015" class="edge">
<title>Node9&#45;&gt;Node15</title>
<g id="a_edge15_Node000009_Node000015"><a xlink:title=" ">
<path fill="none" stroke="#63b8ff" d="M396.99,-381.77C372.99,-387.45 346.59,-393.7 323.41,-399.18"/>
<polygon fill="#63b8ff" stroke="#63b8ff" points="397.79,-385.17 406.72,-379.46 396.18,-378.36 397.79,-385.17"/>
</a>
</g>
</g>
<!-- Node16 -->
<g id="Node000016" class="node">
<title>Node16</title>
<g id="a_Node000016"><a xlink:href="classedu_1_1wpi_1_1first_1_1wpilibj_1_1drive_1_1_differential_drive.html#a9de9fe4f7b51d1e79f93cfc326391917" target="_top" xlink:title=" ">
<polygon fill="white" stroke="#666666" points="324.5,-380.5 193,-380.5 193,-350 324.5,-350 324.5,-380.5"/>
<text text-anchor="start" x="201" y="-367" font-family="Helvetica,sans-Serif" font-size="10.00">edu.wpi.first.wpilibj.drive.</text>
<text text-anchor="middle" x="258.75" y="-355.75" font-family="Helvetica,sans-Serif" font-size="10.00">DifferentialDrive.tankDrive</text>
</a>
</g>
</g>
<!-- Node9&#45;&gt;Node16 -->
<g id="edge16_Node000009_Node000016" class="edge">
<title>Node9&#45;&gt;Node16</title>
<g id="a_edge16_Node000009_Node000016"><a xlink:title=" ">
<path fill="none" stroke="#63b8ff" d="M396.88,-364.6C373.41,-364.71 347.67,-364.83 324.88,-364.94"/>
<polygon fill="#63b8ff" stroke="#63b8ff" points="396.69,-368.1 406.68,-364.55 396.66,-361.1 396.69,-368.1"/>
</a>
</g>
</g>
<!-- Node23 -->
<g id="Node000023" class="node">
<title>Node23</title>
<g id="a_Node000023"><a xlink:href="classedu_1_1wpi_1_1first_1_1wpilibj_1_1_tracer.html#a7af804d6dc75797c90b3701efe9917fb" target="_top" xlink:title=" ">
<polygon fill="white" stroke="#666666" points="758.88,-250.5 605.62,-250.5 605.62,-220 758.88,-220 758.88,-250.5"/>
<text text-anchor="start" x="613.62" y="-237" font-family="Helvetica,sans-Serif" font-size="10.00">edu.wpi.first.wpilibj.Tracer.clear</text>
<text text-anchor="middle" x="682.25" y="-225.75" font-family="Helvetica,sans-Serif" font-size="10.00">Epochs</text>
</a>
</g>
</g>
<!-- Node22&#45;&gt;Node23 -->
<g id="edge23_Node000022_Node000023" class="edge">
<title>Node22&#45;&gt;Node23</title>
<g id="a_edge23_Node000022_Node000023"><a xlink:title=" ">
<path fill="none" stroke="#63b8ff" d="M789.53,-222.1C779.43,-223.35 769.19,-224.62 759.26,-225.85"/>
<polygon fill="#63b8ff" stroke="#63b8ff" points="789.86,-225.59 799.35,-220.89 789,-218.64 789.86,-225.59"/>
</a>
</g>
</g>
<!-- Node24 -->
<g id="Node000024" class="node">
<title>Node24</title>
<g id="a_Node000024"><a xlink:href="classedu_1_1wpi_1_1first_1_1wpilibj_1_1_tracer.html#a7e961486be4734200ce7f9517c9aee26" target="_top" xlink:title=" ">
<polygon fill="white" stroke="#666666" points="748.38,-201.5 616.12,-201.5 616.12,-171 748.38,-171 748.38,-201.5"/>
<text text-anchor="start" x="624.12" y="-188" font-family="Helvetica,sans-Serif" font-size="10.00">edu.wpi.first.wpilibj.Tracer.</text>
<text text-anchor="middle" x="682.25" y="-176.75" font-family="Helvetica,sans-Serif" font-size="10.00">Tracer</text>
</a>
</g>
</g>
<!-- Node22&#45;&gt;Node24 -->
<g id="edge26_Node000022_Node000024" class="edge">
<title>Node22&#45;&gt;Node24</title>
<g id="a_edge26_Node000022_Node000024"><a xlink:title=" ">
<path fill="none" stroke="#63b8ff" d="M789.82,-199.98C775.96,-198.2 761.83,-196.38 748.59,-194.67"/>
<polygon fill="#63b8ff" stroke="#63b8ff" points="788.99,-203.4 799.35,-201.21 789.88,-196.46 788.99,-203.4"/>
</a>
</g>
</g>
<!-- Node23&#45;&gt;Node7 -->
<g id="edge24_Node000023_Node000007" class="edge">
<title>Node23&#45;&gt;Node7</title>
<g id="a_edge24_Node000023_Node000007"><a xlink:title=" ">
<path fill="none" stroke="#63b8ff" d="M593.91,-235.25C582.98,-235.25 571.79,-235.25 560.86,-235.25"/>
<polygon fill="#63b8ff" stroke="#63b8ff" points="593.67,-238.75 603.67,-235.25 593.67,-231.75 593.67,-238.75"/>
</a>
</g>
</g>
<!-- Node23&#45;&gt;Node19 -->
<g id="edge25_Node000023_Node000019" class="edge">
<title>Node23&#45;&gt;Node19</title>
<g id="a_edge25_Node000023_Node000019"><a xlink:title=" ">
<path fill="none" stroke="#63b8ff" d="M593.93,-217.22C579.08,-214.15 563.75,-210.99 549.21,-207.99"/>
<polygon fill="#63b8ff" stroke="#63b8ff" points="593.2,-220.64 603.7,-219.24 594.62,-213.79 593.2,-220.64"/>
</a>
</g>
</g>
</g>
</svg>
