<?xml version="1.0" encoding="UTF-8" standalone="no"?>
<!DOCTYPE svg PUBLIC "-//W3C//DTD SVG 1.1//EN"
 "http://www.w3.org/Graphics/SVG/1.1/DTD/svg11.dtd">
<!-- Generated by graphviz version 9.0.0 (20230911.1827)
 -->
<!-- Title: edu.wpi.first.wpilibj.GenericHID.getRawAxis Pages: 1 -->
<!--zoomable 1375 -->

<svg id="main" version="1.1" xmlns="http://www.w3.org/2000/svg" xmlns:xlink="http://www.w3.org/1999/xlink" xml:space="preserve" onload="init(evt)">
<style type="text/css"><![CDATA[
.node, .edge {opacity: 0.7;}
.node.selected, .edge.selected {opacity: 1;}
.edge:hover path { stroke: red; }
.edge:hover polygon { stroke: red; fill: red; }
]]></style>

<defs>
  <circle id="rim" cx="0" cy="0" r="7"/>
  <circle id="rim2" cx="0" cy="0" r="3.5"/>
  <g id="zoomPlus">
    <use xlink:href="#rim" fill="#404040"><set attributeName="fill" to="#808080" begin="zoomplus.mouseover" end="zoomplus.mouseout"/></use>
    <path d="M-4,0h8M0,-4v8" fill="none" stroke="white" stroke-width="1.5" pointer-events="none"/>
  </g>
  <g id="zoomMin">
    <use xlink:href="#rim" fill="#404040"><set attributeName="fill" to="#808080" begin="zoomminus.mouseover" end="zoomminus.mouseout"/></use>
    <path d="M-4,0h8" fill="none" stroke="white" stroke-width="1.5" pointer-events="none"/>
  </g>
  <g id="arrowUp" transform="translate(30 24)">
    <use xlink:href="#rim"/>
    <path pointer-events="none" fill="none" stroke="white" stroke-width="1.5" d="M0,-3.0v7 M-2.5,-0.5L0,-3.0L2.5,-0.5"/>
  </g>
  <g id="arrowRight" transform="rotate(90) translate(36 -43)">
    <use xlink:href="#rim"/>
    <path pointer-events="none" fill="none" stroke="white" stroke-width="1.5" d="M0,-3.0v7 M-2.5,-0.5L0,-3.0L2.5,-0.5"/>
  </g>
  <g id="arrowDown" transform="rotate(180) translate(-30 -48)">
    <use xlink:href="#rim"/>
    <path pointer-events="none" fill="none" stroke="white" stroke-width="1.5" d="M0,-3.0v7 M-2.5,-0.5L0,-3.0L2.5,-0.5"/>
  </g>
  <g id="arrowLeft" transform="rotate(270) translate(-36 17)">
    <use xlink:href="#rim"/>
    <path pointer-events="none" fill="none" stroke="white" stroke-width="1.5" d="M0,-3.0v7 M-2.5,-0.5L0,-3.0L2.5,-0.5"/>
  </g>
  <g id="resetDef">
    <use xlink:href="#rim2" fill="#404040"><set attributeName="fill" to="#808080" begin="reset.mouseover" end="reset.mouseout"/></use>
  </g>
</defs>
<script type="application/ecmascript">
var viewWidth = 725;
var viewHeight = 1375;
var sectionId = 'dynsection-15';
</script>
<script type="application/ecmascript" xlink:href="svg.min.js"/>
<svg id="graph" class="graph">
<g id="viewport">
<title>edu.wpi.first.wpilibj.GenericHID.getRawAxis</title>
<!-- Node1 -->
<g id="Node000001" class="node">
<title>Node1</title>
<g id="a_Node000001"><a xlink:title=" ">
<polygon fill="#999999" stroke="#666666" points="717.25,-680.88 581.25,-680.88 581.25,-650.38 717.25,-650.38 717.25,-680.88"/>
<text text-anchor="start" x="589.25" y="-667.38" font-family="Helvetica,sans-Serif" font-size="10.00">edu.wpi.first.wpilibj.Generic</text>
<text text-anchor="middle" x="649.25" y="-656.12" font-family="Helvetica,sans-Serif" font-size="10.00">HID.getRawAxis</text>
</a>
</g>
</g>
<!-- Node2 -->
<g id="Node000002" class="node">
<title>Node2</title>
<g id="a_Node000002"><a xlink:href="classedu_1_1wpi_1_1first_1_1wpilibj_1_1_generic_h_i_d.html#ab08a6d6911294ee1ceb29ea3a8bf312f" target="_top" xlink:title=" ">
<polygon fill="white" stroke="#666666" points="532.12,-1366.88 396.12,-1366.88 396.12,-1336.38 532.12,-1336.38 532.12,-1366.88"/>
<text text-anchor="start" x="404.12" y="-1353.38" font-family="Helvetica,sans-Serif" font-size="10.00">edu.wpi.first.wpilibj.Generic</text>
<text text-anchor="middle" x="464.12" y="-1342.12" font-family="Helvetica,sans-Serif" font-size="10.00">HID.axisGreaterThan</text>
</a>
</g>
</g>
<!-- Node1&#45;&gt;Node2 -->
<g id="edge1_Node000001_Node000002" class="edge">
<title>Node1&#45;&gt;Node2</title>
<g id="a_edge1_Node000001_Node000002"><a xlink:title=" ">
<path fill="none" stroke="#63b8ff" d="M647.73,-692.44C645.06,-803.87 629.4,-1229.01 545.25,-1326.62 541.63,-1330.82 537.33,-1334.32 532.61,-1337.24"/>
<polygon fill="#63b8ff" stroke="#63b8ff" points="651.23,-692.86 647.95,-682.78 644.23,-692.7 651.23,-692.86"/>
</a>
</g>
</g>
<!-- Node3 -->
<g id="Node000003" class="node">
<title>Node3</title>
<g id="a_Node000003"><a xlink:href="classedu_1_1wpi_1_1first_1_1wpilibj_1_1_generic_h_i_d.html#a40d508d3b95314b28a3bf40d4289439b" target="_top" xlink:title=" ">
<polygon fill="white" stroke="#666666" points="532.12,-1317.88 396.12,-1317.88 396.12,-1287.38 532.12,-1287.38 532.12,-1317.88"/>
<text text-anchor="start" x="404.12" y="-1304.38" font-family="Helvetica,sans-Serif" font-size="10.00">edu.wpi.first.wpilibj.Generic</text>
<text text-anchor="middle" x="464.12" y="-1293.12" font-family="Helvetica,sans-Serif" font-size="10.00">HID.axisLessThan</text>
</a>
</g>
</g>
<!-- Node1&#45;&gt;Node3 -->
<g id="edge2_Node000001_Node000003" class="edge">
<title>Node1&#45;&gt;Node3</title>
<g id="a_edge2_Node000001_Node000003"><a xlink:title=" ">
<path fill="none" stroke="#63b8ff" d="M647.36,-692.48C643.33,-798.7 623.36,-1188.12 545.25,-1277.62 541.61,-1281.8 537.28,-1285.28 532.56,-1288.19"/>
<polygon fill="#63b8ff" stroke="#63b8ff" points="650.85,-692.86 647.72,-682.74 643.86,-692.61 650.85,-692.86"/>
</a>
</g>
</g>
<!-- Node4 -->
<g id="Node000004" class="node">
<title>Node4</title>
<g id="a_Node000004"><a xlink:href="classedu_1_1wpi_1_1first_1_1wpilibj_1_1_p_s4_controller.html#aaaa6b6d2323e1cd8e0d765002825c5bc" target="_top" xlink:title=" ">
<polygon fill="white" stroke="#666666" points="524.62,-1268.88 403.62,-1268.88 403.62,-1238.38 524.62,-1238.38 524.62,-1268.88"/>
<text text-anchor="start" x="411.62" y="-1255.38" font-family="Helvetica,sans-Serif" font-size="10.00">edu.wpi.first.wpilibj.PS4</text>
<text text-anchor="middle" x="464.12" y="-1244.12" font-family="Helvetica,sans-Serif" font-size="10.00">Controller.getL2Axis</text>
</a>
</g>
</g>
<!-- Node1&#45;&gt;Node4 -->
<g id="edge3_Node000001_Node000004" class="edge">
<title>Node1&#45;&gt;Node4</title>
<g id="a_edge3_Node000001_Node000004"><a xlink:title=" ">
<path fill="none" stroke="#63b8ff" d="M646.93,-692.58C641.45,-793.47 617.33,-1147.21 545.25,-1228.62 539.74,-1234.84 532.72,-1239.53 525.12,-1243.06"/>
<polygon fill="#63b8ff" stroke="#63b8ff" points="650.41,-692.99 647.44,-682.82 643.42,-692.63 650.41,-692.99"/>
</a>
</g>
</g>
<!-- Node5 -->
<g id="Node000005" class="node">
<title>Node5</title>
<g id="a_Node000005"><a xlink:href="classedu_1_1wpi_1_1first_1_1wpilibj_1_1_p_s5_controller.html#a39f7e4de8537287511bcc708a0e1ed83" target="_top" xlink:title=" ">
<polygon fill="white" stroke="#666666" points="524.62,-1219.88 403.62,-1219.88 403.62,-1189.38 524.62,-1189.38 524.62,-1219.88"/>
<text text-anchor="start" x="411.62" y="-1206.38" font-family="Helvetica,sans-Serif" font-size="10.00">edu.wpi.first.wpilibj.PS5</text>
<text text-anchor="middle" x="464.12" y="-1195.12" font-family="Helvetica,sans-Serif" font-size="10.00">Controller.getL2Axis</text>
</a>
</g>
</g>
<!-- Node1&#45;&gt;Node5 -->
<g id="edge4_Node000001_Node000005" class="edge">
<title>Node1&#45;&gt;Node5</title>
<g id="a_edge4_Node000001_Node000005"><a xlink:title=" ">
<path fill="none" stroke="#63b8ff" d="M646.41,-692.66C639.39,-787.93 611.33,-1106.24 545.25,-1179.62 539.69,-1185.8 532.64,-1190.46 525.03,-1193.98"/>
<polygon fill="#63b8ff" stroke="#63b8ff" points="649.9,-692.95 647.12,-682.73 642.91,-692.45 649.9,-692.95"/>
</a>
</g>
</g>
<!-- Node6 -->
<g id="Node000006" class="node">
<title>Node6</title>
<g id="a_Node000006"><a xlink:href="classedu_1_1wpi_1_1first_1_1wpilibj_1_1_xbox_controller.html#ab5535e7ea76583907af894fa6d756bcb" target="_top" xlink:title=" ">
<polygon fill="white" stroke="#666666" points="534,-1170.88 394.25,-1170.88 394.25,-1140.38 534,-1140.38 534,-1170.88"/>
<text text-anchor="start" x="402.25" y="-1157.38" font-family="Helvetica,sans-Serif" font-size="10.00">edu.wpi.first.wpilibj.Xbox</text>
<text text-anchor="middle" x="464.12" y="-1146.12" font-family="Helvetica,sans-Serif" font-size="10.00">Controller.getLeftTriggerAxis</text>
</a>
</g>
</g>
<!-- Node1&#45;&gt;Node6 -->
<g id="edge5_Node000001_Node000006" class="edge">
<title>Node1&#45;&gt;Node6</title>
<g id="a_edge5_Node000001_Node000006"><a xlink:title=" ">
<path fill="none" stroke="#63b8ff" d="M645.82,-692.36C637.21,-781.28 605.44,-1065.13 545.25,-1130.62 541.9,-1134.27 538.02,-1137.39 533.82,-1140.06"/>
<polygon fill="#63b8ff" stroke="#63b8ff" points="649.3,-692.72 646.76,-682.44 642.33,-692.06 649.3,-692.72"/>
</a>
</g>
</g>
<!-- Node9 -->
<g id="Node000009" class="node">
<title>Node9</title>
<g id="a_Node000009"><a xlink:href="classedu_1_1wpi_1_1first_1_1wpilibj_1_1_p_s4_controller.html#ac8f18d863ddb43d8ce94a52b3a80d23f" target="_top" xlink:title=" ">
<polygon fill="white" stroke="#666666" points="524.62,-1121.88 403.62,-1121.88 403.62,-1091.38 524.62,-1091.38 524.62,-1121.88"/>
<text text-anchor="start" x="411.62" y="-1108.38" font-family="Helvetica,sans-Serif" font-size="10.00">edu.wpi.first.wpilibj.PS4</text>
<text text-anchor="middle" x="464.12" y="-1097.12" font-family="Helvetica,sans-Serif" font-size="10.00">Controller.getLeftX</text>
</a>
</g>
</g>
<!-- Node1&#45;&gt;Node9 -->
<g id="edge8_Node000001_Node000009" class="edge">
<title>Node1&#45;&gt;Node9</title>
<g id="a_edge8_Node000001_Node000009"><a xlink:title=" ">
<path fill="none" stroke="#63b8ff" d="M645.05,-692.49C634.67,-775.23 599.48,-1024.06 545.25,-1081.62 539.55,-1087.67 532.42,-1092.26 524.78,-1095.75"/>
<polygon fill="#63b8ff" stroke="#63b8ff" points="648.51,-692.97 646.26,-682.61 641.57,-692.11 648.51,-692.97"/>
</a>
</g>
</g>
<!-- Node10 -->
<g id="Node000010" class="node">
<title>Node10</title>
<g id="a_Node000010"><a xlink:href="classedu_1_1wpi_1_1first_1_1wpilibj_1_1_p_s5_controller.html#aebe2e3aaa0d92309fc492153b5aeece8" target="_top" xlink:title=" ">
<polygon fill="white" stroke="#666666" points="524.62,-1072.88 403.62,-1072.88 403.62,-1042.38 524.62,-1042.38 524.62,-1072.88"/>
<text text-anchor="start" x="411.62" y="-1059.38" font-family="Helvetica,sans-Serif" font-size="10.00">edu.wpi.first.wpilibj.PS5</text>
<text text-anchor="middle" x="464.12" y="-1048.12" font-family="Helvetica,sans-Serif" font-size="10.00">Controller.getLeftX</text>
</a>
</g>
</g>
<!-- Node1&#45;&gt;Node10 -->
<g id="edge9_Node000001_Node000010" class="edge">
<title>Node1&#45;&gt;Node10</title>
<g id="a_edge9_Node000001_Node000010"><a xlink:title=" ">
<path fill="none" stroke="#63b8ff" d="M648.87,-692.17C648.94,-758.94 639.67,-935.44 545.25,-1032.62 539.56,-1038.48 532.53,-1042.97 525.01,-1046.41"/>
<polygon fill="#63b8ff" stroke="#63b8ff" points="652.37,-692.51 648.78,-682.54 645.37,-692.57 652.37,-692.51"/>
</a>
</g>
</g>
<!-- Node11 -->
<g id="Node000011" class="node">
<title>Node11</title>
<g id="a_Node000011"><a xlink:href="classedu_1_1wpi_1_1first_1_1wpilibj_1_1_stadia_controller.html#a119754268988d0de88928bd6d8853dc2" target="_top" xlink:title=" ">
<polygon fill="white" stroke="#666666" points="529.12,-1023.88 399.12,-1023.88 399.12,-993.38 529.12,-993.38 529.12,-1023.88"/>
<text text-anchor="start" x="407.12" y="-1010.38" font-family="Helvetica,sans-Serif" font-size="10.00">edu.wpi.first.wpilibj.Stadia</text>
<text text-anchor="middle" x="464.12" y="-999.12" font-family="Helvetica,sans-Serif" font-size="10.00">Controller.getLeftX</text>
</a>
</g>
</g>
<!-- Node1&#45;&gt;Node11 -->
<g id="edge10_Node000001_Node000011" class="edge">
<title>Node1&#45;&gt;Node11</title>
<g id="a_edge10_Node000001_Node000011"><a xlink:title=" ">
<path fill="none" stroke="#63b8ff" d="M647.5,-692.29C644.33,-752.82 628.04,-901.72 545.25,-983.62 540.69,-988.13 535.33,-991.83 529.58,-994.86"/>
<polygon fill="#63b8ff" stroke="#63b8ff" points="650.98,-692.74 647.92,-682.6 643.99,-692.44 650.98,-692.74"/>
</a>
</g>
</g>
<!-- Node12 -->
<g id="Node000012" class="node">
<title>Node12</title>
<g id="a_Node000012"><a xlink:href="classedu_1_1wpi_1_1first_1_1wpilibj_1_1_xbox_controller.html#a7095d7f339e8ed4ea840ebab3919293d" target="_top" xlink:title=" ">
<polygon fill="white" stroke="#666666" points="526.5,-974.88 401.75,-974.88 401.75,-944.38 526.5,-944.38 526.5,-974.88"/>
<text text-anchor="start" x="409.75" y="-961.38" font-family="Helvetica,sans-Serif" font-size="10.00">edu.wpi.first.wpilibj.Xbox</text>
<text text-anchor="middle" x="464.12" y="-950.12" font-family="Helvetica,sans-Serif" font-size="10.00">Controller.getLeftX</text>
</a>
</g>
</g>
<!-- Node1&#45;&gt;Node12 -->
<g id="edge11_Node000001_Node000012" class="edge">
<title>Node1&#45;&gt;Node12</title>
<g id="a_edge11_Node000001_Node000012"><a xlink:title=" ">
<path fill="none" stroke="#63b8ff" d="M645.63,-692.56C638.96,-746.38 616.45,-867.79 545.25,-934.62 539.94,-939.61 533.64,-943.6 526.95,-946.8"/>
<polygon fill="#63b8ff" stroke="#63b8ff" points="649.09,-693.11 646.75,-682.77 642.14,-692.31 649.09,-693.11"/>
</a>
</g>
</g>
<!-- Node13 -->
<g id="Node000013" class="node">
<title>Node13</title>
<g id="a_Node000013"><a xlink:href="classedu_1_1wpi_1_1first_1_1wpilibj_1_1_p_s4_controller.html#aaf5701fa617d547247c16cbd4640ffd2" target="_top" xlink:title=" ">
<polygon fill="white" stroke="#666666" points="524.62,-925.88 403.62,-925.88 403.62,-895.38 524.62,-895.38 524.62,-925.88"/>
<text text-anchor="start" x="411.62" y="-912.38" font-family="Helvetica,sans-Serif" font-size="10.00">edu.wpi.first.wpilibj.PS4</text>
<text text-anchor="middle" x="464.12" y="-901.12" font-family="Helvetica,sans-Serif" font-size="10.00">Controller.getLeftY</text>
</a>
</g>
</g>
<!-- Node1&#45;&gt;Node13 -->
<g id="edge12_Node000001_Node000013" class="edge">
<title>Node1&#45;&gt;Node13</title>
<g id="a_edge12_Node000001_Node000013"><a xlink:title=" ">
<path fill="none" stroke="#63b8ff" d="M643.06,-692.44C632.72,-738.63 605.18,-833.31 545.25,-885.62 539.32,-890.8 532.33,-894.9 524.99,-898.16"/>
<polygon fill="#63b8ff" stroke="#63b8ff" points="646.46,-693.27 645.11,-682.76 639.61,-691.81 646.46,-693.27"/>
</a>
</g>
</g>
<!-- Node14 -->
<g id="Node000014" class="node">
<title>Node14</title>
<g id="a_Node000014"><a xlink:href="classedu_1_1wpi_1_1first_1_1wpilibj_1_1_p_s5_controller.html#a667e65789007e9d4ca332f94d996664f" target="_top" xlink:title=" ">
<polygon fill="white" stroke="#666666" points="524.62,-876.88 403.62,-876.88 403.62,-846.38 524.62,-846.38 524.62,-876.88"/>
<text text-anchor="start" x="411.62" y="-863.38" font-family="Helvetica,sans-Serif" font-size="10.00">edu.wpi.first.wpilibj.PS5</text>
<text text-anchor="middle" x="464.12" y="-852.12" font-family="Helvetica,sans-Serif" font-size="10.00">Controller.getLeftY</text>
</a>
</g>
</g>
<!-- Node1&#45;&gt;Node14 -->
<g id="edge13_Node000001_Node000014" class="edge">
<title>Node1&#45;&gt;Node14</title>
<g id="a_edge13_Node000001_Node000014"><a xlink:title=" ">
<path fill="none" stroke="#63b8ff" d="M639.35,-691.77C625.27,-729.3 594.29,-798.13 545.25,-836.62 539.18,-841.39 532.18,-845.26 524.91,-848.39"/>
<polygon fill="#63b8ff" stroke="#63b8ff" points="642.55,-693.22 642.67,-682.62 635.97,-690.83 642.55,-693.22"/>
</a>
</g>
</g>
<!-- Node15 -->
<g id="Node000015" class="node">
<title>Node15</title>
<g id="a_Node000015"><a xlink:href="classedu_1_1wpi_1_1first_1_1wpilibj_1_1_stadia_controller.html#a6c69c31b647f4e89ff53b7653b34dbac" target="_top" xlink:title=" ">
<polygon fill="white" stroke="#666666" points="529.12,-827.88 399.12,-827.88 399.12,-797.38 529.12,-797.38 529.12,-827.88"/>
<text text-anchor="start" x="407.12" y="-814.38" font-family="Helvetica,sans-Serif" font-size="10.00">edu.wpi.first.wpilibj.Stadia</text>
<text text-anchor="middle" x="464.12" y="-803.12" font-family="Helvetica,sans-Serif" font-size="10.00">Controller.getLeftY</text>
</a>
</g>
</g>
<!-- Node1&#45;&gt;Node15 -->
<g id="edge14_Node000001_Node000015" class="edge">
<title>Node1&#45;&gt;Node15</title>
<g id="a_edge14_Node000001_Node000015"><a xlink:title=" ">
<path fill="none" stroke="#63b8ff" d="M633.17,-690.91C615.44,-718.53 583.54,-762.2 545.25,-787.62 539.91,-791.17 534.04,-794.24 527.97,-796.88"/>
<polygon fill="#63b8ff" stroke="#63b8ff" points="636.11,-692.81 638.45,-682.47 630.18,-689.09 636.11,-692.81"/>
</a>
</g>
</g>
<!-- Node16 -->
<g id="Node000016" class="node">
<title>Node16</title>
<g id="a_Node000016"><a xlink:href="classedu_1_1wpi_1_1first_1_1wpilibj_1_1_xbox_controller.html#ae06430b3a05125554cdc2b20877fd145" target="_top" xlink:title=" ">
<polygon fill="white" stroke="#666666" points="526.5,-778.88 401.75,-778.88 401.75,-748.38 526.5,-748.38 526.5,-778.88"/>
<text text-anchor="start" x="409.75" y="-765.38" font-family="Helvetica,sans-Serif" font-size="10.00">edu.wpi.first.wpilibj.Xbox</text>
<text text-anchor="middle" x="464.12" y="-754.12" font-family="Helvetica,sans-Serif" font-size="10.00">Controller.getLeftY</text>
</a>
</g>
</g>
<!-- Node1&#45;&gt;Node16 -->
<g id="edge15_Node000001_Node000016" class="edge">
<title>Node1&#45;&gt;Node16</title>
<g id="a_edge15_Node000001_Node000016"><a xlink:title=" ">
<path fill="none" stroke="#63b8ff" d="M621.22,-688.38C601.27,-704.25 572.89,-724.95 545.25,-738.62 538.2,-742.11 530.55,-745.24 522.89,-748.01"/>
<polygon fill="#63b8ff" stroke="#63b8ff" points="623.28,-691.22 628.85,-682.21 618.87,-685.78 623.28,-691.22"/>
</a>
</g>
</g>
<!-- Node17 -->
<g id="Node000017" class="node">
<title>Node17</title>
<g id="a_Node000017"><a xlink:href="classedu_1_1wpi_1_1first_1_1wpilibj_1_1_p_s4_controller.html#abbd0eb23345cd81e7783f9b44668ba5d" target="_top" xlink:title=" ">
<polygon fill="white" stroke="#666666" points="524.62,-729.88 403.62,-729.88 403.62,-699.38 524.62,-699.38 524.62,-729.88"/>
<text text-anchor="start" x="411.62" y="-716.38" font-family="Helvetica,sans-Serif" font-size="10.00">edu.wpi.first.wpilibj.PS4</text>
<text text-anchor="middle" x="464.12" y="-705.12" font-family="Helvetica,sans-Serif" font-size="10.00">Controller.getR2Axis</text>
</a>
</g>
</g>
<!-- Node1&#45;&gt;Node17 -->
<g id="edge16_Node000001_Node000017" class="edge">
<title>Node1&#45;&gt;Node17</title>
<g id="a_edge16_Node000001_Node000017"><a xlink:title=" ">
<path fill="none" stroke="#63b8ff" d="M578.5,-684.29C560.46,-689.12 541.22,-694.26 523.8,-698.92"/>
<polygon fill="#63b8ff" stroke="#63b8ff" points="579.33,-687.69 588.09,-681.72 577.53,-680.93 579.33,-687.69"/>
</a>
</g>
</g>
<!-- Node18 -->
<g id="Node000018" class="node">
<title>Node18</title>
<g id="a_Node000018"><a xlink:href="classedu_1_1wpi_1_1first_1_1wpilibj_1_1_p_s5_controller.html#aac7ef2eae209281979fdef16793f7417" target="_top" xlink:title=" ">
<polygon fill="white" stroke="#666666" points="524.62,-680.88 403.62,-680.88 403.62,-650.38 524.62,-650.38 524.62,-680.88"/>
<text text-anchor="start" x="411.62" y="-667.38" font-family="Helvetica,sans-Serif" font-size="10.00">edu.wpi.first.wpilibj.PS5</text>
<text text-anchor="middle" x="464.12" y="-656.12" font-family="Helvetica,sans-Serif" font-size="10.00">Controller.getR2Axis</text>
</a>
</g>
</g>
<!-- Node1&#45;&gt;Node18 -->
<g id="edge17_Node000001_Node000018" class="edge">
<title>Node1&#45;&gt;Node18</title>
<g id="a_edge17_Node000001_Node000018"><a xlink:title=" ">
<path fill="none" stroke="#63b8ff" d="M569.51,-665.62C554.54,-665.62 539.1,-665.62 524.84,-665.62"/>
<polygon fill="#63b8ff" stroke="#63b8ff" points="569.33,-669.13 579.33,-665.63 569.33,-662.13 569.33,-669.13"/>
</a>
</g>
</g>
<!-- Node19 -->
<g id="Node000019" class="node">
<title>Node19</title>
<g id="a_Node000019"><a xlink:href="classedu_1_1wpi_1_1first_1_1wpilibj_1_1_xbox_controller.html#a3a62824bf5180a83ed6b0f70f15c2490" target="_top" xlink:title=" ">
<polygon fill="white" stroke="#666666" points="537.38,-631.88 390.88,-631.88 390.88,-601.38 537.38,-601.38 537.38,-631.88"/>
<text text-anchor="start" x="398.88" y="-618.38" font-family="Helvetica,sans-Serif" font-size="10.00">edu.wpi.first.wpilibj.Xbox</text>
<text text-anchor="middle" x="464.12" y="-607.12" font-family="Helvetica,sans-Serif" font-size="10.00">Controller.getRightTriggerAxis</text>
</a>
</g>
</g>
<!-- Node1&#45;&gt;Node19 -->
<g id="edge18_Node000001_Node000019" class="edge">
<title>Node1&#45;&gt;Node19</title>
<g id="a_edge18_Node000001_Node000019"><a xlink:title=" ">
<path fill="none" stroke="#63b8ff" d="M578.5,-646.96C560.46,-642.13 541.22,-636.99 523.8,-632.33"/>
<polygon fill="#63b8ff" stroke="#63b8ff" points="577.53,-650.32 588.09,-649.53 579.33,-643.56 577.53,-650.32"/>
</a>
</g>
</g>
<!-- Node22 -->
<g id="Node000022" class="node">
<title>Node22</title>
<g id="a_Node000022"><a xlink:href="classedu_1_1wpi_1_1first_1_1wpilibj_1_1_p_s4_controller.html#aab4f4fdff758952b66debdb5fa33e354" target="_top" xlink:title=" ">
<polygon fill="white" stroke="#666666" points="524.62,-582.88 403.62,-582.88 403.62,-552.38 524.62,-552.38 524.62,-582.88"/>
<text text-anchor="start" x="411.62" y="-569.38" font-family="Helvetica,sans-Serif" font-size="10.00">edu.wpi.first.wpilibj.PS4</text>
<text text-anchor="middle" x="464.12" y="-558.12" font-family="Helvetica,sans-Serif" font-size="10.00">Controller.getRightX</text>
</a>
</g>
</g>
<!-- Node1&#45;&gt;Node22 -->
<g id="edge21_Node000001_Node000022" class="edge">
<title>Node1&#45;&gt;Node22</title>
<g id="a_edge21_Node000001_Node000022"><a xlink:title=" ">
<path fill="none" stroke="#63b8ff" d="M621.22,-642.87C601.27,-627 572.89,-606.3 545.25,-592.62 538.2,-589.14 530.55,-586.01 522.89,-583.24"/>
<polygon fill="#63b8ff" stroke="#63b8ff" points="618.87,-645.47 628.85,-649.04 623.28,-640.03 618.87,-645.47"/>
</a>
</g>
</g>
<!-- Node23 -->
<g id="Node000023" class="node">
<title>Node23</title>
<g id="a_Node000023"><a xlink:href="classedu_1_1wpi_1_1first_1_1wpilibj_1_1_p_s5_controller.html#a3b3198f98b3edf2fa8a7e8193047e010" target="_top" xlink:title=" ">
<polygon fill="white" stroke="#666666" points="524.62,-533.88 403.62,-533.88 403.62,-503.38 524.62,-503.38 524.62,-533.88"/>
<text text-anchor="start" x="411.62" y="-520.38" font-family="Helvetica,sans-Serif" font-size="10.00">edu.wpi.first.wpilibj.PS5</text>
<text text-anchor="middle" x="464.12" y="-509.12" font-family="Helvetica,sans-Serif" font-size="10.00">Controller.getRightX</text>
</a>
</g>
</g>
<!-- Node1&#45;&gt;Node23 -->
<g id="edge22_Node000001_Node000023" class="edge">
<title>Node1&#45;&gt;Node23</title>
<g id="a_edge22_Node000001_Node000023"><a xlink:title=" ">
<path fill="none" stroke="#63b8ff" d="M633.17,-640.34C615.44,-612.72 583.54,-569.05 545.25,-543.62 539.06,-539.51 532.15,-536.05 525.07,-533.14"/>
<polygon fill="#63b8ff" stroke="#63b8ff" points="630.18,-642.16 638.45,-648.78 636.11,-638.44 630.18,-642.16"/>
</a>
</g>
</g>
<!-- Node24 -->
<g id="Node000024" class="node">
<title>Node24</title>
<g id="a_Node000024"><a xlink:href="classedu_1_1wpi_1_1first_1_1wpilibj_1_1_stadia_controller.html#a4686439266725a3bdf1ebe19ff713e69" target="_top" xlink:title=" ">
<polygon fill="white" stroke="#666666" points="529.12,-484.88 399.12,-484.88 399.12,-454.38 529.12,-454.38 529.12,-484.88"/>
<text text-anchor="start" x="407.12" y="-471.38" font-family="Helvetica,sans-Serif" font-size="10.00">edu.wpi.first.wpilibj.Stadia</text>
<text text-anchor="middle" x="464.12" y="-460.12" font-family="Helvetica,sans-Serif" font-size="10.00">Controller.getRightX</text>
</a>
</g>
</g>
<!-- Node1&#45;&gt;Node24 -->
<g id="edge23_Node000001_Node000024" class="edge">
<title>Node1&#45;&gt;Node24</title>
<g id="a_edge23_Node000001_Node000024"><a xlink:title=" ">
<path fill="none" stroke="#63b8ff" d="M639.35,-639.48C625.27,-601.95 594.29,-533.12 545.25,-494.62 540.44,-490.85 535.04,-487.63 529.4,-484.9"/>
<polygon fill="#63b8ff" stroke="#63b8ff" points="635.97,-640.42 642.67,-648.63 642.55,-638.03 635.97,-640.42"/>
</a>
</g>
</g>
<!-- Node25 -->
<g id="Node000025" class="node">
<title>Node25</title>
<g id="a_Node000025"><a xlink:href="classedu_1_1wpi_1_1first_1_1wpilibj_1_1_xbox_controller.html#ae170647e01f68b4c43c64e62b7d919cd" target="_top" xlink:title=" ">
<polygon fill="white" stroke="#666666" points="526.5,-435.88 401.75,-435.88 401.75,-405.38 526.5,-405.38 526.5,-435.88"/>
<text text-anchor="start" x="409.75" y="-422.38" font-family="Helvetica,sans-Serif" font-size="10.00">edu.wpi.first.wpilibj.Xbox</text>
<text text-anchor="middle" x="464.12" y="-411.12" font-family="Helvetica,sans-Serif" font-size="10.00">Controller.getRightX</text>
</a>
</g>
</g>
<!-- Node1&#45;&gt;Node25 -->
<g id="edge24_Node000001_Node000025" class="edge">
<title>Node1&#45;&gt;Node25</title>
<g id="a_edge24_Node000001_Node000025"><a xlink:title=" ">
<path fill="none" stroke="#63b8ff" d="M643.06,-638.81C632.72,-592.62 605.18,-497.94 545.25,-445.62 539.76,-440.83 533.36,-436.96 526.61,-433.83"/>
<polygon fill="#63b8ff" stroke="#63b8ff" points="639.61,-639.44 645.11,-648.49 646.46,-637.98 639.61,-639.44"/>
</a>
</g>
</g>
<!-- Node26 -->
<g id="Node000026" class="node">
<title>Node26</title>
<g id="a_Node000026"><a xlink:href="classedu_1_1wpi_1_1first_1_1wpilibj_1_1_p_s4_controller.html#a8e49f466a5cdd7ef51bfda2afa6e39a7" target="_top" xlink:title=" ">
<polygon fill="white" stroke="#666666" points="524.62,-386.88 403.62,-386.88 403.62,-356.38 524.62,-356.38 524.62,-386.88"/>
<text text-anchor="start" x="411.62" y="-373.38" font-family="Helvetica,sans-Serif" font-size="10.00">edu.wpi.first.wpilibj.PS4</text>
<text text-anchor="middle" x="464.12" y="-362.12" font-family="Helvetica,sans-Serif" font-size="10.00">Controller.getRightY</text>
</a>
</g>
</g>
<!-- Node1&#45;&gt;Node26 -->
<g id="edge25_Node000001_Node000026" class="edge">
<title>Node1&#45;&gt;Node26</title>
<g id="a_edge25_Node000001_Node000026"><a xlink:title=" ">
<path fill="none" stroke="#63b8ff" d="M645.63,-638.69C638.96,-584.87 616.45,-463.46 545.25,-396.62 539.41,-391.14 532.38,-386.86 524.94,-383.51"/>
<polygon fill="#63b8ff" stroke="#63b8ff" points="642.14,-638.94 646.75,-648.48 649.09,-638.14 642.14,-638.94"/>
</a>
</g>
</g>
<!-- Node27 -->
<g id="Node000027" class="node">
<title>Node27</title>
<g id="a_Node000027"><a xlink:href="classedu_1_1wpi_1_1first_1_1wpilibj_1_1_p_s5_controller.html#a5cf2fd45a3f3d9fa30fd330730d243d6" target="_top" xlink:title=" ">
<polygon fill="white" stroke="#666666" points="524.62,-337.88 403.62,-337.88 403.62,-307.38 524.62,-307.38 524.62,-337.88"/>
<text text-anchor="start" x="411.62" y="-324.38" font-family="Helvetica,sans-Serif" font-size="10.00">edu.wpi.first.wpilibj.PS5</text>
<text text-anchor="middle" x="464.12" y="-313.12" font-family="Helvetica,sans-Serif" font-size="10.00">Controller.getRightY</text>
</a>
</g>
</g>
<!-- Node1&#45;&gt;Node27 -->
<g id="edge26_Node000001_Node000027" class="edge">
<title>Node1&#45;&gt;Node27</title>
<g id="a_edge26_Node000001_Node000027"><a xlink:title=" ">
<path fill="none" stroke="#63b8ff" d="M647.5,-638.96C644.33,-578.43 628.04,-429.53 545.25,-347.62 539.45,-341.89 532.35,-337.46 524.8,-334.05"/>
<polygon fill="#63b8ff" stroke="#63b8ff" points="643.99,-638.81 647.92,-648.65 650.98,-638.51 643.99,-638.81"/>
</a>
</g>
</g>
<!-- Node28 -->
<g id="Node000028" class="node">
<title>Node28</title>
<g id="a_Node000028"><a xlink:href="classedu_1_1wpi_1_1first_1_1wpilibj_1_1_stadia_controller.html#a211414d528cd85d84e17d5fe0c019a42" target="_top" xlink:title=" ">
<polygon fill="white" stroke="#666666" points="529.12,-288.88 399.12,-288.88 399.12,-258.38 529.12,-258.38 529.12,-288.88"/>
<text text-anchor="start" x="407.12" y="-275.38" font-family="Helvetica,sans-Serif" font-size="10.00">edu.wpi.first.wpilibj.Stadia</text>
<text text-anchor="middle" x="464.12" y="-264.12" font-family="Helvetica,sans-Serif" font-size="10.00">Controller.getRightY</text>
</a>
</g>
</g>
<!-- Node1&#45;&gt;Node28 -->
<g id="edge27_Node000001_Node000028" class="edge">
<title>Node1&#45;&gt;Node28</title>
<g id="a_edge27_Node000001_Node000028"><a xlink:title=" ">
<path fill="none" stroke="#63b8ff" d="M648.87,-639.08C648.94,-572.31 639.67,-395.81 545.25,-298.62 540.68,-293.92 535.24,-290.1 529.38,-286.99"/>
<polygon fill="#63b8ff" stroke="#63b8ff" points="645.37,-638.68 648.78,-648.71 652.37,-638.74 645.37,-638.68"/>
</a>
</g>
</g>
<!-- Node29 -->
<g id="Node000029" class="node">
<title>Node29</title>
<g id="a_Node000029"><a xlink:href="classedu_1_1wpi_1_1first_1_1wpilibj_1_1_xbox_controller.html#a9f8467da5f03cee79dc0ee5561a45e0f" target="_top" xlink:title=" ">
<polygon fill="white" stroke="#666666" points="526.5,-239.88 401.75,-239.88 401.75,-209.38 526.5,-209.38 526.5,-239.88"/>
<text text-anchor="start" x="409.75" y="-226.38" font-family="Helvetica,sans-Serif" font-size="10.00">edu.wpi.first.wpilibj.Xbox</text>
<text text-anchor="middle" x="464.12" y="-215.12" font-family="Helvetica,sans-Serif" font-size="10.00">Controller.getRightY</text>
</a>
</g>
</g>
<!-- Node1&#45;&gt;Node29 -->
<g id="edge28_Node000001_Node000029" class="edge">
<title>Node1&#45;&gt;Node29</title>
<g id="a_edge28_Node000001_Node000029"><a xlink:title=" ">
<path fill="none" stroke="#63b8ff" d="M645.05,-638.76C634.67,-556.02 599.48,-307.19 545.25,-249.62 540.05,-244.11 533.66,-239.8 526.78,-236.44"/>
<polygon fill="#63b8ff" stroke="#63b8ff" points="641.57,-639.14 646.26,-648.64 648.51,-638.28 641.57,-639.14"/>
</a>
</g>
</g>
<!-- Node30 -->
<g id="Node000030" class="node">
<title>Node30</title>
<g id="a_Node000030"><a xlink:href="classedu_1_1wpi_1_1first_1_1wpilibj_1_1_joystick.html#ad36b540d728250a4dff9517e71e9e99f" target="_top" xlink:title=" ">
<polygon fill="white" stroke="#666666" points="541.88,-190.88 386.38,-190.88 386.38,-160.38 541.88,-160.38 541.88,-190.88"/>
<text text-anchor="start" x="394.38" y="-177.38" font-family="Helvetica,sans-Serif" font-size="10.00">edu.wpi.first.wpilibj.Joystick.get</text>
<text text-anchor="middle" x="464.12" y="-166.12" font-family="Helvetica,sans-Serif" font-size="10.00">Throttle</text>
</a>
</g>
</g>
<!-- Node1&#45;&gt;Node30 -->
<g id="edge29_Node000001_Node000030" class="edge">
<title>Node1&#45;&gt;Node30</title>
<g id="a_edge29_Node000001_Node000030"><a xlink:title=" ">
<path fill="none" stroke="#63b8ff" d="M645.82,-638.89C637.21,-549.97 605.44,-266.12 545.25,-200.62 541.9,-196.98 538.02,-193.86 533.82,-191.19"/>
<polygon fill="#63b8ff" stroke="#63b8ff" points="642.33,-639.19 646.76,-648.81 649.3,-638.53 642.33,-639.19"/>
</a>
</g>
</g>
<!-- Node31 -->
<g id="Node000031" class="node">
<title>Node31</title>
<g id="a_Node000031"><a xlink:href="classedu_1_1wpi_1_1first_1_1wpilibj_1_1_joystick.html#ade05b4432022ac6743df95597ce48c72" target="_top" xlink:title=" ">
<polygon fill="white" stroke="#666666" points="541.88,-141.88 386.38,-141.88 386.38,-111.38 541.88,-111.38 541.88,-141.88"/>
<text text-anchor="start" x="394.38" y="-128.38" font-family="Helvetica,sans-Serif" font-size="10.00">edu.wpi.first.wpilibj.Joystick.get</text>
<text text-anchor="middle" x="464.12" y="-117.12" font-family="Helvetica,sans-Serif" font-size="10.00">Twist</text>
</a>
</g>
</g>
<!-- Node1&#45;&gt;Node31 -->
<g id="edge30_Node000001_Node000031" class="edge">
<title>Node1&#45;&gt;Node31</title>
<g id="a_edge30_Node000001_Node000031"><a xlink:title=" ">
<path fill="none" stroke="#63b8ff" d="M646.41,-638.59C639.39,-543.32 611.33,-225.01 545.25,-151.62 542.03,-148.05 538.31,-144.98 534.27,-142.35"/>
<polygon fill="#63b8ff" stroke="#63b8ff" points="642.91,-638.8 647.12,-648.52 649.9,-638.3 642.91,-638.8"/>
</a>
</g>
</g>
<!-- Node32 -->
<g id="Node000032" class="node">
<title>Node32</title>
<g id="a_Node000032"><a xlink:href="classedu_1_1wpi_1_1first_1_1wpilibj_1_1_joystick.html#a69e35d7f6fe88519ace564bc17775c91" target="_top" xlink:title=" ">
<polygon fill="white" stroke="#666666" points="545.25,-56.25 383,-56.25 383,-37 545.25,-37 545.25,-56.25"/>
<text text-anchor="middle" x="464.12" y="-42.75" font-family="Helvetica,sans-Serif" font-size="10.00">edu.wpi.first.wpilibj.Joystick.getX</text>
</a>
</g>
</g>
<!-- Node1&#45;&gt;Node32 -->
<g id="edge31_Node000001_Node000032" class="edge">
<title>Node1&#45;&gt;Node32</title>
<g id="a_edge31_Node000001_Node000032"><a xlink:title=" ">
<path fill="none" stroke="#63b8ff" d="M647.48,-638.72C643.92,-533.19 625.56,-149.16 545.25,-64.62 542.3,-61.52 538.95,-58.9 535.32,-56.69"/>
<polygon fill="#63b8ff" stroke="#63b8ff" points="643.98,-638.52 647.79,-648.4 650.97,-638.29 643.98,-638.52"/>
</a>
</g>
</g>
<!-- Node36 -->
<g id="Node000036" class="node">
<title>Node36</title>
<g id="a_Node000036"><a xlink:href="classedu_1_1wpi_1_1first_1_1wpilibj_1_1_joystick.html#a297510a717aaf45989f34cda37d84d07" target="_top" xlink:title=" ">
<polygon fill="white" stroke="#666666" points="545.25,-93.25 383,-93.25 383,-74 545.25,-74 545.25,-93.25"/>
<text text-anchor="middle" x="464.12" y="-79.75" font-family="Helvetica,sans-Serif" font-size="10.00">edu.wpi.first.wpilibj.Joystick.getY</text>
</a>
</g>
</g>
<!-- Node1&#45;&gt;Node36 -->
<g id="edge35_Node000001_Node000036" class="edge">
<title>Node1&#45;&gt;Node36</title>
<g id="a_edge35_Node000001_Node000036"><a xlink:title=" ">
<path fill="none" stroke="#63b8ff" d="M647.12,-638.84C642.31,-537.81 620.2,-181.57 545.25,-102.62 541.8,-99 537.8,-96 533.46,-93.54"/>
<polygon fill="#63b8ff" stroke="#63b8ff" points="643.61,-638.77 647.56,-648.6 650.6,-638.45 643.61,-638.77"/>
</a>
</g>
</g>
<!-- Node37 -->
<g id="Node000037" class="node">
<title>Node37</title>
<g id="a_Node000037"><a xlink:href="classedu_1_1wpi_1_1first_1_1wpilibj_1_1_joystick.html#a74d1794d23c915b40d33f6a5737d6310" target="_top" xlink:title=" ">
<polygon fill="white" stroke="#666666" points="544.88,-19.25 383.38,-19.25 383.38,0 544.88,0 544.88,-19.25"/>
<text text-anchor="middle" x="464.12" y="-5.75" font-family="Helvetica,sans-Serif" font-size="10.00">edu.wpi.first.wpilibj.Joystick.getZ</text>
</a>
</g>
</g>
<!-- Node1&#45;&gt;Node37 -->
<g id="edge38_Node000001_Node000037" class="edge">
<title>Node1&#45;&gt;Node37</title>
<g id="a_edge38_Node000001_Node000037"><a xlink:title=" ">
<path fill="none" stroke="#63b8ff" d="M647.78,-638.87C645.3,-529.51 630.38,-118.11 545.25,-27.62 542.32,-24.51 538.97,-21.88 535.35,-19.66"/>
<polygon fill="#63b8ff" stroke="#63b8ff" points="644.28,-638.69 647.98,-648.61 651.27,-638.54 644.28,-638.69"/>
</a>
</g>
</g>
<!-- Node7 -->
<g id="Node000007" class="node">
<title>Node7</title>
<g id="a_Node000007"><a xlink:href="classedu_1_1wpi_1_1first_1_1wpilibj_1_1_xbox_controller.html#aa18e78de4eb53e5b0cef765ad42cba2d" target="_top" xlink:title=" ">
<polygon fill="white" stroke="#666666" points="331.62,-1170.88 206.88,-1170.88 206.88,-1140.38 331.62,-1140.38 331.62,-1170.88"/>
<text text-anchor="start" x="214.88" y="-1157.38" font-family="Helvetica,sans-Serif" font-size="10.00">edu.wpi.first.wpilibj.Xbox</text>
<text text-anchor="middle" x="269.25" y="-1146.12" font-family="Helvetica,sans-Serif" font-size="10.00">Controller.leftTrigger</text>
</a>
</g>
</g>
<!-- Node6&#45;&gt;Node7 -->
<g id="edge6_Node000006_Node000007" class="edge">
<title>Node6&#45;&gt;Node7</title>
<g id="a_edge6_Node000006_Node000007"><a xlink:title=" ">
<path fill="none" stroke="#63b8ff" d="M382.73,-1155.62C365.76,-1155.62 348.11,-1155.62 331.96,-1155.62"/>
<polygon fill="#63b8ff" stroke="#63b8ff" points="382.25,-1159.13 392.25,-1155.63 382.25,-1152.13 382.25,-1159.13"/>
</a>
</g>
</g>
<!-- Node8 -->
<g id="Node000008" class="node">
<title>Node8</title>
<g id="a_Node000008"><a xlink:href="classedu_1_1wpi_1_1first_1_1wpilibj_1_1_xbox_controller.html#ae33261b039b3362ece8473099eaba99a" target="_top" xlink:title=" ">
<polygon fill="white" stroke="#666666" points="140.12,-1170.88 15.38,-1170.88 15.38,-1140.38 140.12,-1140.38 140.12,-1170.88"/>
<text text-anchor="start" x="23.38" y="-1157.38" font-family="Helvetica,sans-Serif" font-size="10.00">edu.wpi.first.wpilibj.Xbox</text>
<text text-anchor="middle" x="77.75" y="-1146.12" font-family="Helvetica,sans-Serif" font-size="10.00">Controller.leftTrigger</text>
</a>
</g>
</g>
<!-- Node7&#45;&gt;Node8 -->
<g id="edge7_Node000007_Node000008" class="edge">
<title>Node7&#45;&gt;Node8</title>
<g id="a_edge7_Node000007_Node000008"><a xlink:title=" ">
<path fill="none" stroke="#63b8ff" d="M195.09,-1155.62C177.05,-1155.62 157.9,-1155.62 140.45,-1155.62"/>
<polygon fill="#63b8ff" stroke="#63b8ff" points="194.95,-1159.13 204.95,-1155.63 194.95,-1152.13 194.95,-1159.13"/>
</a>
</g>
</g>
<!-- Node20 -->
<g id="Node000020" class="node">
<title>Node20</title>
<g id="a_Node000020"><a xlink:href="classedu_1_1wpi_1_1first_1_1wpilibj_1_1_xbox_controller.html#ab595c6ad0ca954070de647a49e46941e" target="_top" xlink:title=" ">
<polygon fill="white" stroke="#666666" points="331.62,-631.88 206.88,-631.88 206.88,-601.38 331.62,-601.38 331.62,-631.88"/>
<text text-anchor="start" x="214.88" y="-618.38" font-family="Helvetica,sans-Serif" font-size="10.00">edu.wpi.first.wpilibj.Xbox</text>
<text text-anchor="middle" x="269.25" y="-607.12" font-family="Helvetica,sans-Serif" font-size="10.00">Controller.rightTrigger</text>
</a>
</g>
</g>
<!-- Node19&#45;&gt;Node20 -->
<g id="edge19_Node000019_Node000020" class="edge">
<title>Node19&#45;&gt;Node20</title>
<g id="a_edge19_Node000019_Node000020"><a xlink:title=" ">
<path fill="none" stroke="#63b8ff" d="M379.09,-616.62C363.3,-616.62 347.06,-616.62 332.1,-616.62"/>
<polygon fill="#63b8ff" stroke="#63b8ff" points="378.97,-620.13 388.97,-616.63 378.97,-613.13 378.97,-620.13"/>
</a>
</g>
</g>
<!-- Node21 -->
<g id="Node000021" class="node">
<title>Node21</title>
<g id="a_Node000021"><a xlink:href="classedu_1_1wpi_1_1first_1_1wpilibj_1_1_xbox_controller.html#ae7fcd7b46603aee1588553b4b6d6463b" target="_top" xlink:title=" ">
<polygon fill="white" stroke="#666666" points="140.12,-631.88 15.38,-631.88 15.38,-601.38 140.12,-601.38 140.12,-631.88"/>
<text text-anchor="start" x="23.38" y="-618.38" font-family="Helvetica,sans-Serif" font-size="10.00">edu.wpi.first.wpilibj.Xbox</text>
<text text-anchor="middle" x="77.75" y="-607.12" font-family="Helvetica,sans-Serif" font-size="10.00">Controller.rightTrigger</text>
</a>
</g>
</g>
<!-- Node20&#45;&gt;Node21 -->
<g id="edge20_Node000020_Node000021" class="edge">
<title>Node20&#45;&gt;Node21</title>
<g id="a_edge20_Node000020_Node000021"><a xlink:title=" ">
<path fill="none" stroke="#63b8ff" d="M195.09,-616.62C177.05,-616.62 157.9,-616.62 140.45,-616.62"/>
<polygon fill="#63b8ff" stroke="#63b8ff" points="194.95,-620.13 204.95,-616.63 194.95,-613.13 194.95,-620.13"/>
</a>
</g>
</g>
<!-- Node33 -->
<g id="Node000033" class="node">
<title>Node33</title>
<g id="a_Node000033"><a xlink:href="classedu_1_1wpi_1_1first_1_1wpilibj_1_1_joystick.html#a24a5901175338bf04c92cd9502bf9f80" target="_top" xlink:title=" ">
<polygon fill="white" stroke="#666666" points="347,-104.88 191.5,-104.88 191.5,-74.38 347,-74.38 347,-104.88"/>
<text text-anchor="start" x="199.5" y="-91.38" font-family="Helvetica,sans-Serif" font-size="10.00">edu.wpi.first.wpilibj.Joystick.get</text>
<text text-anchor="middle" x="269.25" y="-80.12" font-family="Helvetica,sans-Serif" font-size="10.00">DirectionRadians</text>
</a>
</g>
</g>
<!-- Node32&#45;&gt;Node33 -->
<g id="edge32_Node000032_Node000033" class="edge">
<title>Node32&#45;&gt;Node33</title>
<g id="a_edge32_Node000032_Node000033"><a xlink:title=" ">
<path fill="none" stroke="#63b8ff" d="M406.78,-59.19C386.16,-63.78 362.56,-69.04 340.85,-73.88"/>
<polygon fill="#63b8ff" stroke="#63b8ff" points="407.43,-62.63 416.43,-57.04 405.91,-55.8 407.43,-62.63"/>
</a>
</g>
</g>
<!-- Node35 -->
<g id="Node000035" class="node">
<title>Node35</title>
<g id="a_Node000035"><a xlink:href="classedu_1_1wpi_1_1first_1_1wpilibj_1_1_joystick.html#a1489f700e1552369f30e9d3eda1a7f6b" target="_top" xlink:title=" ">
<polygon fill="white" stroke="#666666" points="347,-55.88 191.5,-55.88 191.5,-25.38 347,-25.38 347,-55.88"/>
<text text-anchor="start" x="199.5" y="-42.38" font-family="Helvetica,sans-Serif" font-size="10.00">edu.wpi.first.wpilibj.Joystick.get</text>
<text text-anchor="middle" x="269.25" y="-31.12" font-family="Helvetica,sans-Serif" font-size="10.00">Magnitude</text>
</a>
</g>
</g>
<!-- Node32&#45;&gt;Node35 -->
<g id="edge34_Node000032_Node000035" class="edge">
<title>Node32&#45;&gt;Node35</title>
<g id="a_edge34_Node000032_Node000035"><a xlink:title=" ">
<path fill="none" stroke="#63b8ff" d="M371.43,-43.77C363.4,-43.52 355.32,-43.27 347.43,-43.03"/>
<polygon fill="#63b8ff" stroke="#63b8ff" points="371.11,-47.26 381.21,-44.08 371.33,-40.27 371.11,-47.26"/>
</a>
</g>
</g>
<!-- Node34 -->
<g id="Node000034" class="node">
<title>Node34</title>
<g id="a_Node000034"><a xlink:href="classedu_1_1wpi_1_1first_1_1wpilibj_1_1_joystick.html#ae351a503beafa05e488128d8994ec11e" target="_top" xlink:title=" ">
<polygon fill="white" stroke="#666666" points="155.5,-104.88 0,-104.88 0,-74.38 155.5,-74.38 155.5,-104.88"/>
<text text-anchor="start" x="8" y="-91.38" font-family="Helvetica,sans-Serif" font-size="10.00">edu.wpi.first.wpilibj.Joystick.get</text>
<text text-anchor="middle" x="77.75" y="-80.12" font-family="Helvetica,sans-Serif" font-size="10.00">DirectionDegrees</text>
</a>
</g>
</g>
<!-- Node33&#45;&gt;Node34 -->
<g id="edge33_Node000033_Node000034" class="edge">
<title>Node33&#45;&gt;Node34</title>
<g id="a_edge33_Node000033_Node000034"><a xlink:title=" ">
<path fill="none" stroke="#63b8ff" d="M179.86,-89.62C171.81,-89.62 163.7,-89.62 155.76,-89.62"/>
<polygon fill="#63b8ff" stroke="#63b8ff" points="179.66,-93.13 189.66,-89.63 179.66,-86.13 179.66,-93.13"/>
</a>
</g>
</g>
<!-- Node36&#45;&gt;Node33 -->
<g id="edge36_Node000036_Node000033" class="edge">
<title>Node36&#45;&gt;Node33</title>
<g id="a_edge36_Node000036_Node000033"><a xlink:title=" ">
<path fill="none" stroke="#63b8ff" d="M371.43,-86.48C363.4,-86.73 355.32,-86.98 347.43,-87.22"/>
<polygon fill="#63b8ff" stroke="#63b8ff" points="371.33,-89.98 381.21,-86.17 371.11,-82.99 371.33,-89.98"/>
</a>
</g>
</g>
<!-- Node36&#45;&gt;Node35 -->
<g id="edge37_Node000036_Node000035" class="edge">
<title>Node36&#45;&gt;Node35</title>
<g id="a_edge37_Node000036_Node000035"><a xlink:title=" ">
<path fill="none" stroke="#63b8ff" d="M406.78,-71.06C386.16,-66.47 362.56,-61.21 340.85,-56.37"/>
<polygon fill="#63b8ff" stroke="#63b8ff" points="405.91,-74.45 416.43,-73.21 407.43,-67.62 405.91,-74.45"/>
</a>
</g>
</g>
</g>
</svg>

<g id="navigator" transform="translate(0 0)" fill="#404254">
  <rect fill="#f2f5e9" fill-opacity="0.5" stroke="#606060" stroke-width=".5" x="0" y="0" width="60" height="60"/>
  <use id="zoomplus" xlink:href="#zoomPlus" x="17" y="9" onmousedown="handleZoom(evt,'in')"/>
  <use id="zoomminus" xlink:href="#zoomMin" x="42" y="9" onmousedown="handleZoom(evt,'out')"/>
  <use id="reset" xlink:href="#resetDef" x="30" y="36" onmousedown="handleReset()"/>
   <use id="arrowup" xlink:href="#arrowUp" x="0" y="0" onmousedown="handlePan(0,-1)"/>
  <use id="arrowright" xlink:href="#arrowRight" x="0" y="0" onmousedown="handlePan(1,0)"/>
  <use id="arrowdown" xlink:href="#arrowDown" x="0" y="0" onmousedown="handlePan(0,1)"/>
  <use id="arrowleft" xlink:href="#arrowLeft" x="0" y="0" onmousedown="handlePan(-1,0)"/>
</g>
<svg viewBox="0 0 15 15" width="100%" height="30px" preserveAspectRatio="xMaxYMin meet">
 <g id="arrow_out" transform="scale(0.3 0.3)">
  <a xlink:href="classedu_1_1wpi_1_1first_1_1wpilibj_1_1_generic_h_i_d_a561e13532e9305a057a3b02cc655833c_icgraph_org.svg" target="_base">
   <rect id="button" ry="5" rx="5" y="6" x="6" height="38" width="38"
        fill="#f2f5e9" fill-opacity="0.5" stroke="#606060" stroke-width="1.0"/>
   <path id="arrow"
     d="M 11.500037,31.436501 C 11.940474,20.09759 22.043105,11.32322 32.158766,21.979434 L 37.068811,17.246167 C 37.068811,17.246167 37.088388,32 37.088388,32 L 22.160133,31.978069 C 22.160133,31.978069 26.997745,27.140456 26.997745,27.140456 C 18.528582,18.264221 13.291696,25.230495 11.500037,31.436501 z"
     style="fill:#404040;"/>
  </a>
 </g>
</svg>

<style type='text/css'>
<![CDATA[
[data-mouse-over-selected='false'] { opacity: 0.7; }
[data-mouse-over-selected='true']  { opacity: 1.0; }
]]>
</style>
<script type="application/ecmascript"><![CDATA[
document.addEventListener('DOMContentLoaded', (event) => {
  highlightEdges();
  highlightAdjacentNodes();
});
]]></script>
</svg>
