<?xml version="1.0" encoding="UTF-8" standalone="no"?>
<!DOCTYPE svg PUBLIC "-//W3C//DTD SVG 1.1//EN"
 "http://www.w3.org/Graphics/SVG/1.1/DTD/svg11.dtd">
<!-- Generated by graphviz version 9.0.0 (20230911.1827)
 -->
<!-- Title: edu.wpi.first.wpilibj.GenericHID.pov Pages: 1 -->
<svg width="316pt" height="529pt"
 viewBox="0.00 0.00 316.00 528.50" xmlns="http://www.w3.org/2000/svg" xmlns:xlink="http://www.w3.org/1999/xlink">
<g id="graph0" class="graph" transform="scale(1 1) rotate(0) translate(4 524.5)">
<title>edu.wpi.first.wpilibj.GenericHID.pov</title>
<!-- Node1 -->
<g id="Node000001" class="node">
<title>Node1</title>
<g id="a_Node000001"><a xlink:title=" ">
<polygon fill="#999999" stroke="#666666" points="308,-275.5 172,-275.5 172,-245 308,-245 308,-275.5"/>
<text text-anchor="start" x="180" y="-262" font-family="Helvetica,sans-Serif" font-size="10.00">edu.wpi.first.wpilibj.Generic</text>
<text text-anchor="middle" x="240" y="-250.75" font-family="Helvetica,sans-Serif" font-size="10.00">HID.pov</text>
</a>
</g>
</g>
<!-- Node1&#45;&gt;Node1 -->
<g id="edge2_Node000001_Node000001" class="edge">
<title>Node1&#45;&gt;Node1</title>
<g id="a_edge2_Node000001_Node000001"><a xlink:title=" ">
<path fill="none" stroke="#63b8ff" d="M268.84,-287.2C264.13,-290.97 254.51,-293.5 240,-293.5 213.46,-293.5 203.3,-285.06 209.52,-275.99"/>
<polygon fill="#63b8ff" stroke="#63b8ff" points="272.28,-287.88 270.26,-277.48 265.36,-286.87 272.28,-287.88"/>
</a>
</g>
</g>
<!-- Node2 -->
<g id="Node000002" class="node">
<title>Node2</title>
<g id="a_Node000002"><a xlink:href="classedu_1_1wpi_1_1first_1_1wpilibj_1_1_generic_h_i_d.html#aec1965c55b4dbc27f35fb524d1fb4af6" target="_top" xlink:title=" ">
<polygon fill="white" stroke="#666666" points="136,-520.5 0,-520.5 0,-490 136,-490 136,-520.5"/>
<text text-anchor="start" x="8" y="-507" font-family="Helvetica,sans-Serif" font-size="10.00">edu.wpi.first.wpilibj.Generic</text>
<text text-anchor="middle" x="68" y="-495.75" font-family="Helvetica,sans-Serif" font-size="10.00">HID.getPOV</text>
</a>
</g>
</g>
<!-- Node1&#45;&gt;Node2 -->
<g id="edge1_Node000001_Node000002" class="edge">
<title>Node1&#45;&gt;Node2</title>
<g id="a_edge1_Node000001_Node000002"><a xlink:title=" ">
<path fill="none" stroke="#63b8ff" d="M233.43,-287.06C222.57,-332.86 194.34,-426.44 136,-480.25 132.08,-483.87 127.58,-486.98 122.81,-489.65"/>
<polygon fill="#63b8ff" stroke="#63b8ff" points="236.8,-287.99 235.6,-277.46 229.98,-286.44 236.8,-287.99"/>
</a>
</g>
</g>
<!-- Node3 -->
<g id="Node000003" class="node">
<title>Node3</title>
<g id="a_Node000003"><a xlink:href="classedu_1_1wpi_1_1first_1_1wpilibj_1_1_generic_h_i_d.html#a7edfcb380dec230a34f19c8753f3ddfb" target="_top" xlink:title=" ">
<polygon fill="white" stroke="#666666" points="136,-471.5 0,-471.5 0,-441 136,-441 136,-471.5"/>
<text text-anchor="start" x="8" y="-458" font-family="Helvetica,sans-Serif" font-size="10.00">edu.wpi.first.wpilibj.Generic</text>
<text text-anchor="middle" x="68" y="-446.75" font-family="Helvetica,sans-Serif" font-size="10.00">HID.pov</text>
</a>
</g>
</g>
<!-- Node1&#45;&gt;Node3 -->
<g id="edge3_Node000001_Node000003" class="edge">
<title>Node1&#45;&gt;Node3</title>
<g id="a_edge3_Node000001_Node000003"><a xlink:title=" ">
<path fill="none" stroke="#63b8ff" d="M229.71,-286.33C215.22,-323.48 183.85,-391.53 136,-431.25 131.7,-434.82 126.84,-437.91 121.76,-440.57"/>
<polygon fill="#63b8ff" stroke="#63b8ff" points="232.87,-287.86 233.13,-277.27 226.32,-285.39 232.87,-287.86"/>
</a>
</g>
</g>
<!-- Node4 -->
<g id="Node000004" class="node">
<title>Node4</title>
<g id="a_Node000004"><a xlink:href="classedu_1_1wpi_1_1first_1_1wpilibj_1_1_generic_h_i_d.html#aaa5b2b4993f6bc9b4f90db3f8bc52a2c" target="_top" xlink:title=" ">
<polygon fill="white" stroke="#666666" points="136,-422.5 0,-422.5 0,-392 136,-392 136,-422.5"/>
<text text-anchor="start" x="8" y="-409" font-family="Helvetica,sans-Serif" font-size="10.00">edu.wpi.first.wpilibj.Generic</text>
<text text-anchor="middle" x="68" y="-397.75" font-family="Helvetica,sans-Serif" font-size="10.00">HID.povCenter</text>
</a>
</g>
</g>
<!-- Node1&#45;&gt;Node4 -->
<g id="edge4_Node000001_Node000004" class="edge">
<title>Node1&#45;&gt;Node4</title>
<g id="a_edge4_Node000001_Node000004"><a xlink:title=" ">
<path fill="none" stroke="#63b8ff" d="M223.36,-285.59C205.35,-312.89 173.38,-355.93 136,-382.25 131.03,-385.75 125.5,-388.83 119.82,-391.52"/>
<polygon fill="#63b8ff" stroke="#63b8ff" points="226.27,-287.54 228.74,-277.24 220.39,-283.75 226.27,-287.54"/>
</a>
</g>
</g>
<!-- Node5 -->
<g id="Node000005" class="node">
<title>Node5</title>
<g id="a_Node000005"><a xlink:href="classedu_1_1wpi_1_1first_1_1wpilibj_1_1_generic_h_i_d.html#a81eb89a82b493e4dda06e9c52f7076d8" target="_top" xlink:title=" ">
<polygon fill="white" stroke="#666666" points="136,-373.5 0,-373.5 0,-343 136,-343 136,-373.5"/>
<text text-anchor="start" x="8" y="-360" font-family="Helvetica,sans-Serif" font-size="10.00">edu.wpi.first.wpilibj.Generic</text>
<text text-anchor="middle" x="68" y="-348.75" font-family="Helvetica,sans-Serif" font-size="10.00">HID.povDown</text>
</a>
</g>
</g>
<!-- Node1&#45;&gt;Node5 -->
<g id="edge5_Node000001_Node000005" class="edge">
<title>Node1&#45;&gt;Node5</title>
<g id="a_edge5_Node000001_Node000005"><a xlink:title=" ">
<path fill="none" stroke="#63b8ff" d="M211.36,-282.84C191.32,-298.45 163.09,-318.91 136,-333.25 129.64,-336.62 122.72,-339.74 115.82,-342.56"/>
<polygon fill="#63b8ff" stroke="#63b8ff" points="213.37,-285.72 219.04,-276.77 209.03,-280.22 213.37,-285.72"/>
</a>
</g>
</g>
<!-- Node6 -->
<g id="Node000006" class="node">
<title>Node6</title>
<g id="a_Node000006"><a xlink:href="classedu_1_1wpi_1_1first_1_1wpilibj_1_1_generic_h_i_d.html#a91e8cc5673b05c77b1e711c10bfddb72" target="_top" xlink:title=" ">
<polygon fill="white" stroke="#666666" points="136,-324.5 0,-324.5 0,-294 136,-294 136,-324.5"/>
<text text-anchor="start" x="8" y="-311" font-family="Helvetica,sans-Serif" font-size="10.00">edu.wpi.first.wpilibj.Generic</text>
<text text-anchor="middle" x="68" y="-299.75" font-family="Helvetica,sans-Serif" font-size="10.00">HID.povDownLeft</text>
</a>
</g>
</g>
<!-- Node1&#45;&gt;Node6 -->
<g id="edge6_Node000001_Node000006" class="edge">
<title>Node1&#45;&gt;Node6</title>
<g id="a_edge6_Node000001_Node000006"><a xlink:title=" ">
<path fill="none" stroke="#63b8ff" d="M174,-278.98C157.37,-283.78 139.66,-288.88 123.62,-293.51"/>
<polygon fill="#63b8ff" stroke="#63b8ff" points="174.65,-282.44 183.29,-276.31 172.71,-275.71 174.65,-282.44"/>
</a>
</g>
</g>
<!-- Node7 -->
<g id="Node000007" class="node">
<title>Node7</title>
<g id="a_Node000007"><a xlink:href="classedu_1_1wpi_1_1first_1_1wpilibj_1_1_generic_h_i_d.html#aaa8c5e3b88d48b2d4c62353245fac80c" target="_top" xlink:title=" ">
<polygon fill="white" stroke="#666666" points="136,-275.5 0,-275.5 0,-245 136,-245 136,-275.5"/>
<text text-anchor="start" x="8" y="-262" font-family="Helvetica,sans-Serif" font-size="10.00">edu.wpi.first.wpilibj.Generic</text>
<text text-anchor="middle" x="68" y="-250.75" font-family="Helvetica,sans-Serif" font-size="10.00">HID.povDownRight</text>
</a>
</g>
</g>
<!-- Node1&#45;&gt;Node7 -->
<g id="edge7_Node000001_Node000007" class="edge">
<title>Node1&#45;&gt;Node7</title>
<g id="a_edge7_Node000001_Node000007"><a xlink:title=" ">
<path fill="none" stroke="#63b8ff" d="M160.46,-260.25C152.37,-260.25 144.21,-260.25 136.26,-260.25"/>
<polygon fill="#63b8ff" stroke="#63b8ff" points="160.3,-263.75 170.3,-260.25 160.3,-256.75 160.3,-263.75"/>
</a>
</g>
</g>
<!-- Node8 -->
<g id="Node000008" class="node">
<title>Node8</title>
<g id="a_Node000008"><a xlink:href="classedu_1_1wpi_1_1first_1_1wpilibj_1_1_generic_h_i_d.html#a30133c8cdc004834273a50607f99b2db" target="_top" xlink:title=" ">
<polygon fill="white" stroke="#666666" points="136,-226.5 0,-226.5 0,-196 136,-196 136,-226.5"/>
<text text-anchor="start" x="8" y="-213" font-family="Helvetica,sans-Serif" font-size="10.00">edu.wpi.first.wpilibj.Generic</text>
<text text-anchor="middle" x="68" y="-201.75" font-family="Helvetica,sans-Serif" font-size="10.00">HID.povLeft</text>
</a>
</g>
</g>
<!-- Node1&#45;&gt;Node8 -->
<g id="edge8_Node000001_Node000008" class="edge">
<title>Node1&#45;&gt;Node8</title>
<g id="a_edge8_Node000001_Node000008"><a xlink:title=" ">
<path fill="none" stroke="#63b8ff" d="M174,-241.52C157.37,-236.72 139.66,-231.62 123.62,-226.99"/>
<polygon fill="#63b8ff" stroke="#63b8ff" points="172.71,-244.79 183.29,-244.19 174.65,-238.06 172.71,-244.79"/>
</a>
</g>
</g>
<!-- Node9 -->
<g id="Node000009" class="node">
<title>Node9</title>
<g id="a_Node000009"><a xlink:href="classedu_1_1wpi_1_1first_1_1wpilibj_1_1_generic_h_i_d.html#a1134e35fe08a664db77c0bd65e9361b9" target="_top" xlink:title=" ">
<polygon fill="white" stroke="#666666" points="136,-177.5 0,-177.5 0,-147 136,-147 136,-177.5"/>
<text text-anchor="start" x="8" y="-164" font-family="Helvetica,sans-Serif" font-size="10.00">edu.wpi.first.wpilibj.Generic</text>
<text text-anchor="middle" x="68" y="-152.75" font-family="Helvetica,sans-Serif" font-size="10.00">HID.povRight</text>
</a>
</g>
</g>
<!-- Node1&#45;&gt;Node9 -->
<g id="edge9_Node000001_Node000009" class="edge">
<title>Node1&#45;&gt;Node9</title>
<g id="a_edge9_Node000001_Node000009"><a xlink:title=" ">
<path fill="none" stroke="#63b8ff" d="M211.36,-237.66C191.32,-222.05 163.09,-201.59 136,-187.25 129.64,-183.88 122.72,-180.76 115.82,-177.94"/>
<polygon fill="#63b8ff" stroke="#63b8ff" points="209.03,-240.28 219.04,-243.73 213.37,-234.78 209.03,-240.28"/>
</a>
</g>
</g>
<!-- Node10 -->
<g id="Node000010" class="node">
<title>Node10</title>
<g id="a_Node000010"><a xlink:href="classedu_1_1wpi_1_1first_1_1wpilibj_1_1_generic_h_i_d.html#a82bd89b746a2616e7fdbff8b26f18d8e" target="_top" xlink:title=" ">
<polygon fill="white" stroke="#666666" points="136,-128.5 0,-128.5 0,-98 136,-98 136,-128.5"/>
<text text-anchor="start" x="8" y="-115" font-family="Helvetica,sans-Serif" font-size="10.00">edu.wpi.first.wpilibj.Generic</text>
<text text-anchor="middle" x="68" y="-103.75" font-family="Helvetica,sans-Serif" font-size="10.00">HID.povUp</text>
</a>
</g>
</g>
<!-- Node1&#45;&gt;Node10 -->
<g id="edge10_Node000001_Node000010" class="edge">
<title>Node1&#45;&gt;Node10</title>
<g id="a_edge10_Node000001_Node000010"><a xlink:title=" ">
<path fill="none" stroke="#63b8ff" d="M223.36,-234.91C205.35,-207.61 173.38,-164.57 136,-138.25 131.03,-134.75 125.5,-131.67 119.82,-128.98"/>
<polygon fill="#63b8ff" stroke="#63b8ff" points="220.39,-236.75 228.74,-243.26 226.27,-232.96 220.39,-236.75"/>
</a>
</g>
</g>
<!-- Node11 -->
<g id="Node000011" class="node">
<title>Node11</title>
<g id="a_Node000011"><a xlink:href="classedu_1_1wpi_1_1first_1_1wpilibj_1_1_generic_h_i_d.html#a6f5837ee0cf7113d2251248a787e3e8b" target="_top" xlink:title=" ">
<polygon fill="white" stroke="#666666" points="136,-79.5 0,-79.5 0,-49 136,-49 136,-79.5"/>
<text text-anchor="start" x="8" y="-66" font-family="Helvetica,sans-Serif" font-size="10.00">edu.wpi.first.wpilibj.Generic</text>
<text text-anchor="middle" x="68" y="-54.75" font-family="Helvetica,sans-Serif" font-size="10.00">HID.povUpLeft</text>
</a>
</g>
</g>
<!-- Node1&#45;&gt;Node11 -->
<g id="edge11_Node000001_Node000011" class="edge">
<title>Node1&#45;&gt;Node11</title>
<g id="a_edge11_Node000001_Node000011"><a xlink:title=" ">
<path fill="none" stroke="#63b8ff" d="M229.71,-234.17C215.22,-197.02 183.85,-128.97 136,-89.25 131.7,-85.68 126.84,-82.59 121.76,-79.93"/>
<polygon fill="#63b8ff" stroke="#63b8ff" points="226.32,-235.11 233.13,-243.23 232.87,-232.64 226.32,-235.11"/>
</a>
</g>
</g>
<!-- Node12 -->
<g id="Node000012" class="node">
<title>Node12</title>
<g id="a_Node000012"><a xlink:href="classedu_1_1wpi_1_1first_1_1wpilibj_1_1_generic_h_i_d.html#ac01d915346729b83089bc65b76708a8a" target="_top" xlink:title=" ">
<polygon fill="white" stroke="#666666" points="136,-30.5 0,-30.5 0,0 136,0 136,-30.5"/>
<text text-anchor="start" x="8" y="-17" font-family="Helvetica,sans-Serif" font-size="10.00">edu.wpi.first.wpilibj.Generic</text>
<text text-anchor="middle" x="68" y="-5.75" font-family="Helvetica,sans-Serif" font-size="10.00">HID.povUpRight</text>
</a>
</g>
</g>
<!-- Node1&#45;&gt;Node12 -->
<g id="edge12_Node000001_Node000012" class="edge">
<title>Node1&#45;&gt;Node12</title>
<g id="a_edge12_Node000001_Node000012"><a xlink:title=" ">
<path fill="none" stroke="#63b8ff" d="M233.43,-233.44C222.57,-187.64 194.34,-94.06 136,-40.25 132.08,-36.63 127.58,-33.52 122.81,-30.85"/>
<polygon fill="#63b8ff" stroke="#63b8ff" points="229.98,-234.06 235.6,-243.04 236.8,-232.51 229.98,-234.06"/>
</a>
</g>
</g>
</g>
</svg>
