<?xml version="1.0" encoding="UTF-8" standalone="no"?>
<!DOCTYPE svg PUBLIC "-//W3C//DTD SVG 1.1//EN"
 "http://www.w3.org/Graphics/SVG/1.1/DTD/svg11.dtd">
<!-- Generated by graphviz version 9.0.0 (20230911.1827)
 -->
<!-- Title: edu.wpi.first.wpilibj.XboxController.getLeftTriggerAxis Pages: 1 -->
<svg width="484pt" height="39pt"
 viewBox="0.00 0.00 484.25 38.50" xmlns="http://www.w3.org/2000/svg" xmlns:xlink="http://www.w3.org/1999/xlink">
<g id="graph0" class="graph" transform="scale(1 1) rotate(0) translate(4 34.5)">
<title>edu.wpi.first.wpilibj.XboxController.getLeftTriggerAxis</title>
<!-- Node1 -->
<g id="Node000001" class="node">
<title>Node1</title>
<g id="a_Node000001"><a xlink:title=" ">
<polygon fill="#999999" stroke="#666666" points="139.75,-30.5 0,-30.5 0,0 139.75,0 139.75,-30.5"/>
<text text-anchor="start" x="8" y="-17" font-family="Helvetica,sans-Serif" font-size="10.00">edu.wpi.first.wpilibj.Xbox</text>
<text text-anchor="middle" x="69.88" y="-5.75" font-family="Helvetica,sans-Serif" font-size="10.00">Controller.getLeftTriggerAxis</text>
</a>
</g>
</g>
<!-- Node2 -->
<g id="Node000002" class="node">
<title>Node2</title>
<g id="a_Node000002"><a xlink:href="classedu_1_1wpi_1_1first_1_1wpilibj_1_1_generic_h_i_d.html#a561e13532e9305a057a3b02cc655833c" target="_top" xlink:title=" ">
<polygon fill="white" stroke="#666666" points="311.75,-30.5 175.75,-30.5 175.75,0 311.75,0 311.75,-30.5"/>
<text text-anchor="start" x="183.75" y="-17" font-family="Helvetica,sans-Serif" font-size="10.00">edu.wpi.first.wpilibj.Generic</text>
<text text-anchor="middle" x="243.75" y="-5.75" font-family="Helvetica,sans-Serif" font-size="10.00">HID.getRawAxis</text>
</a>
</g>
</g>
<!-- Node1&#45;&gt;Node2 -->
<g id="edge1_Node000001_Node000002" class="edge">
<title>Node1&#45;&gt;Node2</title>
<g id="a_edge1_Node000001_Node000002"><a xlink:title=" ">
<path fill="none" stroke="#63b8ff" d="M139.79,-15.25C147.79,-15.25 155.99,-15.25 164.11,-15.25"/>
<polygon fill="#63b8ff" stroke="#63b8ff" points="163.98,-18.75 173.98,-15.25 163.98,-11.75 163.98,-18.75"/>
</a>
</g>
</g>
<!-- Node3 -->
<g id="Node000003" class="node">
<title>Node3</title>
<g id="a_Node000003"><a xlink:href="classedu_1_1wpi_1_1first_1_1wpilibj_1_1_driver_station.html#af9606114345715ee1577c2b0c66a070c" target="_top" xlink:title=" ">
<polygon fill="white" stroke="#666666" points="476.25,-30.5 347.75,-30.5 347.75,0 476.25,0 476.25,-30.5"/>
<text text-anchor="start" x="355.75" y="-17" font-family="Helvetica,sans-Serif" font-size="10.00">edu.wpi.first.wpilibj.Driver</text>
<text text-anchor="middle" x="412" y="-5.75" font-family="Helvetica,sans-Serif" font-size="10.00">Station.getStickAxis</text>
</a>
</g>
</g>
<!-- Node2&#45;&gt;Node3 -->
<g id="edge2_Node000002_Node000003" class="edge">
<title>Node2&#45;&gt;Node3</title>
<g id="a_edge2_Node000002_Node000003"><a xlink:title=" ">
<path fill="none" stroke="#63b8ff" d="M311.89,-15.25C319.85,-15.25 328.02,-15.25 336.08,-15.25"/>
<polygon fill="#63b8ff" stroke="#63b8ff" points="335.87,-18.75 345.87,-15.25 335.87,-11.75 335.87,-18.75"/>
</a>
</g>
</g>
</g>
</svg>
