<?xml version="1.0" encoding="UTF-8" standalone="no"?>
<!DOCTYPE svg PUBLIC "-//W3C//DTD SVG 1.1//EN"
 "http://www.w3.org/Graphics/SVG/1.1/DTD/svg11.dtd">
<!-- Generated by graphviz version 9.0.0 (20230911.1827)
 -->
<!-- Title: edu.wpi.first.wpilibj.smartdashboard.SendableChooser.SendableChooser Pages: 1 -->
<svg width="550pt" height="88pt"
 viewBox="0.00 0.00 549.50 87.50" xmlns="http://www.w3.org/2000/svg" xmlns:xlink="http://www.w3.org/1999/xlink">
<g id="graph0" class="graph" transform="scale(1 1) rotate(0) translate(4 83.5)">
<title>edu.wpi.first.wpilibj.smartdashboard.SendableChooser.SendableChooser</title>
<!-- Node1 -->
<g id="Node000001" class="node">
<title>Node1</title>
<g id="a_Node000001"><a xlink:title=" ">
<polygon fill="#999999" stroke="#666666" points="541.5,-54.5 366.5,-54.5 366.5,-24 541.5,-24 541.5,-54.5"/>
<text text-anchor="start" x="374.5" y="-41" font-family="Helvetica,sans-Serif" font-size="10.00">edu.wpi.first.wpilibj.smartdashboard.</text>
<text text-anchor="middle" x="454" y="-29.75" font-family="Helvetica,sans-Serif" font-size="10.00">SendableChooser.SendableChooser</text>
</a>
</g>
</g>
<!-- Node2 -->
<g id="Node000002" class="node">
<title>Node2</title>
<g id="a_Node000002"><a xlink:href="classedu_1_1wpi_1_1first_1_1wpilibj_1_1smartdashboard_1_1_sendable_chooser.html#a7ff081cef6546035c379f817bc81a058" target="_top" xlink:title=" ">
<polygon fill="white" stroke="#666666" points="330.5,-79.5 155.5,-79.5 155.5,-49 330.5,-49 330.5,-79.5"/>
<text text-anchor="start" x="163.5" y="-66" font-family="Helvetica,sans-Serif" font-size="10.00">edu.wpi.first.wpilibj.smartdashboard.</text>
<text text-anchor="middle" x="243" y="-54.75" font-family="Helvetica,sans-Serif" font-size="10.00">SendableChooser.onChange</text>
</a>
</g>
</g>
<!-- Node1&#45;&gt;Node2 -->
<g id="edge1_Node000001_Node000002" class="edge">
<title>Node1&#45;&gt;Node2</title>
<g id="a_edge1_Node000001_Node000002"><a xlink:title=" ">
<path fill="none" stroke="#63b8ff" d="M354.9,-50.98C346.88,-51.94 338.81,-52.91 330.89,-53.86"/>
<polygon fill="#63b8ff" stroke="#63b8ff" points="355.16,-54.48 364.68,-49.81 354.33,-47.53 355.16,-54.48"/>
</a>
</g>
</g>
<!-- Node3 -->
<g id="Node000003" class="node">
<title>Node3</title>
<g id="a_Node000003"><a xlink:href="classedu_1_1wpi_1_1first_1_1wpilibj_1_1smartdashboard_1_1_sendable_chooser.html#aeb02795b957efa2924cab361986cdd94" target="_top" xlink:title=" ">
<polygon fill="white" stroke="#666666" points="330.5,-30.5 155.5,-30.5 155.5,0 330.5,0 330.5,-30.5"/>
<text text-anchor="start" x="163.5" y="-17" font-family="Helvetica,sans-Serif" font-size="10.00">edu.wpi.first.wpilibj.smartdashboard.</text>
<text text-anchor="middle" x="243" y="-5.75" font-family="Helvetica,sans-Serif" font-size="10.00">SendableChooser.setDefaultOption</text>
</a>
</g>
</g>
<!-- Node1&#45;&gt;Node3 -->
<g id="edge2_Node000001_Node000003" class="edge">
<title>Node1&#45;&gt;Node3</title>
<g id="a_edge2_Node000001_Node000003"><a xlink:title=" ">
<path fill="none" stroke="#63b8ff" d="M354.9,-27.98C346.88,-27.06 338.81,-26.14 330.89,-25.23"/>
<polygon fill="#63b8ff" stroke="#63b8ff" points="354.34,-31.44 364.68,-29.11 355.14,-24.49 354.34,-31.44"/>
</a>
</g>
</g>
<!-- Node4 -->
<g id="Node000004" class="node">
<title>Node4</title>
<g id="a_Node000004"><a xlink:href="classfrc_1_1robot_1_1_robot.html#a1d28582cf3dc31568c3581f631c92f13" target="_top" xlink:title=" ">
<polygon fill="white" stroke="#666666" points="119.5,-24.88 0,-24.88 0,-5.63 119.5,-5.63 119.5,-24.88"/>
<text text-anchor="middle" x="59.75" y="-11.38" font-family="Helvetica,sans-Serif" font-size="10.00">frc.robot.Robot.robotInit</text>
</a>
</g>
</g>
<!-- Node3&#45;&gt;Node4 -->
<g id="edge3_Node000003_Node000004" class="edge">
<title>Node3&#45;&gt;Node4</title>
<g id="a_edge3_Node000003_Node000004"><a xlink:title=" ">
<path fill="none" stroke="#63b8ff" d="M143.65,-15.25C135.59,-15.25 127.6,-15.25 119.95,-15.25"/>
<polygon fill="#63b8ff" stroke="#63b8ff" points="143.58,-18.75 153.58,-15.25 143.58,-11.75 143.58,-18.75"/>
</a>
</g>
</g>
</g>
</svg>
