<?xml version="1.0" encoding="UTF-8" standalone="no"?>
<!DOCTYPE svg PUBLIC "-//W3C//DTD SVG 1.1//EN"
 "http://www.w3.org/Graphics/SVG/1.1/DTD/svg11.dtd">
<!-- Generated by graphviz version 9.0.0 (20230911.1827)
 -->
<!-- Title: edu.wpi.first.wpilibj.DSControlWord.isTest Pages: 1 -->
<svg width="514pt" height="61pt"
 viewBox="0.00 0.00 513.50 60.50" xmlns="http://www.w3.org/2000/svg" xmlns:xlink="http://www.w3.org/1999/xlink">
<g id="graph0" class="graph" transform="scale(1 1) rotate(0) translate(4 56.5)">
<title>edu.wpi.first.wpilibj.DSControlWord.isTest</title>
<!-- Node1 -->
<g id="Node000001" class="node">
<title>Node1</title>
<g id="a_Node000001"><a xlink:title=" ">
<polygon fill="#999999" stroke="#666666" points="505.5,-30.5 357.5,-30.5 357.5,0 505.5,0 505.5,-30.5"/>
<text text-anchor="start" x="365.5" y="-17" font-family="Helvetica,sans-Serif" font-size="10.00">edu.wpi.first.wpilibj.DSControl</text>
<text text-anchor="middle" x="431.5" y="-5.75" font-family="Helvetica,sans-Serif" font-size="10.00">Word.isTest</text>
</a>
</g>
</g>
<!-- Node2 -->
<g id="Node000002" class="node">
<title>Node2</title>
<g id="a_Node000002"><a xlink:href="classedu_1_1wpi_1_1first_1_1wpilibj_1_1_d_s_control_word.html#abbd4b2ca6407e1c19ea55e0d3f9f5780" target="_top" xlink:title=" ">
<polygon fill="white" stroke="#666666" points="321.5,-52.5 173.5,-52.5 173.5,-22 321.5,-22 321.5,-52.5"/>
<text text-anchor="start" x="181.5" y="-39" font-family="Helvetica,sans-Serif" font-size="10.00">edu.wpi.first.wpilibj.DSControl</text>
<text text-anchor="middle" x="247.5" y="-27.75" font-family="Helvetica,sans-Serif" font-size="10.00">Word.isTeleop</text>
</a>
</g>
</g>
<!-- Node1&#45;&gt;Node2 -->
<g id="edge1_Node000001_Node000002" class="edge">
<title>Node1&#45;&gt;Node2</title>
<g id="a_edge1_Node000001_Node000002"><a xlink:title=" ">
<path fill="none" stroke="#63b8ff" d="M345.96,-25.47C337.92,-26.44 329.81,-27.42 321.89,-28.38"/>
<polygon fill="#63b8ff" stroke="#63b8ff" points="346.25,-28.96 355.76,-24.28 345.41,-22.01 346.25,-28.96"/>
</a>
</g>
</g>
<!-- Node3 -->
<g id="Node000003" class="node">
<title>Node3</title>
<g id="a_Node000003"><a xlink:href="classedu_1_1wpi_1_1first_1_1wpilibj_1_1_iterative_robot_base.html#aac5c45d7130bce188e0f9278075e8891" target="_top" xlink:title=" ">
<polygon fill="white" stroke="#666666" points="137.5,-30.5 0,-30.5 0,0 137.5,0 137.5,-30.5"/>
<text text-anchor="start" x="8" y="-17" font-family="Helvetica,sans-Serif" font-size="10.00">edu.wpi.first.wpilibj.Iterative</text>
<text text-anchor="middle" x="68.75" y="-5.75" font-family="Helvetica,sans-Serif" font-size="10.00">RobotBase.loopFunc</text>
</a>
</g>
</g>
<!-- Node1&#45;&gt;Node3 -->
<g id="edge3_Node000001_Node000003" class="edge">
<title>Node1&#45;&gt;Node3</title>
<g id="a_edge3_Node000001_Node000003"><a xlink:title=" ">
<path fill="none" stroke="#63b8ff" d="M345.97,-13.55C337.7,-13.43 329.44,-13.32 321.5,-13.25 255.72,-12.65 239.27,-12.62 173.5,-13.25 161.97,-13.36 149.72,-13.54 137.83,-13.75"/>
<polygon fill="#63b8ff" stroke="#63b8ff" points="345.65,-17.04 355.7,-13.7 345.75,-10.04 345.65,-17.04"/>
</a>
</g>
</g>
<!-- Node2&#45;&gt;Node3 -->
<g id="edge2_Node000002_Node000003" class="edge">
<title>Node2&#45;&gt;Node3</title>
<g id="a_edge2_Node000002_Node000003"><a xlink:title=" ">
<path fill="none" stroke="#63b8ff" d="M161.78,-26.71C153.76,-25.71 145.69,-24.7 137.85,-23.73"/>
<polygon fill="#63b8ff" stroke="#63b8ff" points="161.22,-30.16 171.58,-27.92 162.08,-23.22 161.22,-30.16"/>
</a>
</g>
</g>
</g>
</svg>
