<?xml version="1.0" encoding="UTF-8" standalone="no"?>
<!DOCTYPE svg PUBLIC "-//W3C//DTD SVG 1.1//EN"
 "http://www.w3.org/Graphics/SVG/1.1/DTD/svg11.dtd">
<!-- Generated by graphviz version 9.0.0 (20230911.1827)
 -->
<!-- Title: edu.wpi.first.wpilibj.smartdashboard.SendableChooser.addOption Pages: 1 -->
<svg width="550pt" height="60pt"
 viewBox="0.00 0.00 549.50 59.50" xmlns="http://www.w3.org/2000/svg" xmlns:xlink="http://www.w3.org/1999/xlink">
<g id="graph0" class="graph" transform="scale(1 1) rotate(0) translate(4 55.5)">
<title>edu.wpi.first.wpilibj.smartdashboard.SendableChooser.addOption</title>
<!-- Node1 -->
<g id="Node000001" class="node">
<title>Node1</title>
<g id="a_Node000001"><a xlink:title=" ">
<polygon fill="#999999" stroke="#666666" points="541.5,-51.5 366.5,-51.5 366.5,-21 541.5,-21 541.5,-51.5"/>
<text text-anchor="start" x="374.5" y="-38" font-family="Helvetica,sans-Serif" font-size="10.00">edu.wpi.first.wpilibj.smartdashboard.</text>
<text text-anchor="middle" x="454" y="-26.75" font-family="Helvetica,sans-Serif" font-size="10.00">SendableChooser.addOption</text>
</a>
</g>
</g>
<!-- Node2 -->
<g id="Node000002" class="node">
<title>Node2</title>
<g id="a_Node000002"><a xlink:href="classfrc_1_1robot_1_1_robot.html#a1d28582cf3dc31568c3581f631c92f13" target="_top" xlink:title=" ">
<polygon fill="white" stroke="#666666" points="119.5,-45.88 0,-45.88 0,-26.62 119.5,-26.62 119.5,-45.88"/>
<text text-anchor="middle" x="59.75" y="-32.38" font-family="Helvetica,sans-Serif" font-size="10.00">frc.robot.Robot.robotInit</text>
</a>
</g>
</g>
<!-- Node1&#45;&gt;Node2 -->
<g id="edge1_Node000001_Node000002" class="edge">
<title>Node1&#45;&gt;Node2</title>
<g id="a_edge1_Node000001_Node000002"><a xlink:title=" ">
<path fill="none" stroke="#63b8ff" d="M354.52,-38.87C346.39,-39.02 338.31,-39.15 330.5,-39.25 252.73,-40.2 233.27,-40.48 155.5,-39.25 143.98,-39.07 131.68,-38.76 119.88,-38.41"/>
<polygon fill="#63b8ff" stroke="#63b8ff" points="354.57,-42.37 364.5,-38.67 354.43,-35.37 354.57,-42.37"/>
</a>
</g>
</g>
<!-- Node3 -->
<g id="Node000003" class="node">
<title>Node3</title>
<g id="a_Node000003"><a xlink:href="classedu_1_1wpi_1_1first_1_1wpilibj_1_1smartdashboard_1_1_sendable_chooser.html#aeb02795b957efa2924cab361986cdd94" target="_top" xlink:title=" ">
<polygon fill="white" stroke="#666666" points="330.5,-30.5 155.5,-30.5 155.5,0 330.5,0 330.5,-30.5"/>
<text text-anchor="start" x="163.5" y="-17" font-family="Helvetica,sans-Serif" font-size="10.00">edu.wpi.first.wpilibj.smartdashboard.</text>
<text text-anchor="middle" x="243" y="-5.75" font-family="Helvetica,sans-Serif" font-size="10.00">SendableChooser.setDefaultOption</text>
</a>
</g>
</g>
<!-- Node1&#45;&gt;Node3 -->
<g id="edge2_Node000001_Node000003" class="edge">
<title>Node1&#45;&gt;Node3</title>
<g id="a_edge2_Node000001_Node000003"><a xlink:title=" ">
<path fill="none" stroke="#63b8ff" d="M354.9,-26.39C346.88,-25.59 338.81,-24.78 330.89,-23.98"/>
<polygon fill="#63b8ff" stroke="#63b8ff" points="354.38,-29.86 364.67,-27.38 355.07,-22.89 354.38,-29.86"/>
</a>
</g>
</g>
<!-- Node3&#45;&gt;Node2 -->
<g id="edge3_Node000003_Node000002" class="edge">
<title>Node3&#45;&gt;Node2</title>
<g id="a_edge3_Node000003_Node000002"><a xlink:title=" ">
<path fill="none" stroke="#63b8ff" d="M143.65,-26.64C135.59,-27.58 127.6,-28.5 119.95,-29.39"/>
<polygon fill="#63b8ff" stroke="#63b8ff" points="144.06,-30.12 153.59,-25.49 143.25,-23.17 144.06,-30.12"/>
</a>
</g>
</g>
</g>
</svg>
