<?xml version="1.0" encoding="UTF-8" standalone="no"?>
<!DOCTYPE svg PUBLIC "-//W3C//DTD SVG 1.1//EN"
 "http://www.w3.org/Graphics/SVG/1.1/DTD/svg11.dtd">
<!-- Generated by graphviz version 9.0.0 (20230911.1827)
 -->
<!-- Title: edu.wpi.first.wpilibj.motorcontrol.PWMMotorController Pages: 1 -->
<!--zoomable 627 -->

<svg id="main" version="1.1" xmlns="http://www.w3.org/2000/svg" xmlns:xlink="http://www.w3.org/1999/xlink" xml:space="preserve" onload="init(evt)">
<style type="text/css"><![CDATA[
.node, .edge {opacity: 0.7;}
.node.selected, .edge.selected {opacity: 1;}
.edge:hover path { stroke: red; }
.edge:hover polygon { stroke: red; fill: red; }
]]></style>

<defs>
  <circle id="rim" cx="0" cy="0" r="7"/>
  <circle id="rim2" cx="0" cy="0" r="3.5"/>
  <g id="zoomPlus">
    <use xlink:href="#rim" fill="#404040"><set attributeName="fill" to="#808080" begin="zoomplus.mouseover" end="zoomplus.mouseout"/></use>
    <path d="M-4,0h8M0,-4v8" fill="none" stroke="white" stroke-width="1.5" pointer-events="none"/>
  </g>
  <g id="zoomMin">
    <use xlink:href="#rim" fill="#404040"><set attributeName="fill" to="#808080" begin="zoomminus.mouseover" end="zoomminus.mouseout"/></use>
    <path d="M-4,0h8" fill="none" stroke="white" stroke-width="1.5" pointer-events="none"/>
  </g>
  <g id="arrowUp" transform="translate(30 24)">
    <use xlink:href="#rim"/>
    <path pointer-events="none" fill="none" stroke="white" stroke-width="1.5" d="M0,-3.0v7 M-2.5,-0.5L0,-3.0L2.5,-0.5"/>
  </g>
  <g id="arrowRight" transform="rotate(90) translate(36 -43)">
    <use xlink:href="#rim"/>
    <path pointer-events="none" fill="none" stroke="white" stroke-width="1.5" d="M0,-3.0v7 M-2.5,-0.5L0,-3.0L2.5,-0.5"/>
  </g>
  <g id="arrowDown" transform="rotate(180) translate(-30 -48)">
    <use xlink:href="#rim"/>
    <path pointer-events="none" fill="none" stroke="white" stroke-width="1.5" d="M0,-3.0v7 M-2.5,-0.5L0,-3.0L2.5,-0.5"/>
  </g>
  <g id="arrowLeft" transform="rotate(270) translate(-36 17)">
    <use xlink:href="#rim"/>
    <path pointer-events="none" fill="none" stroke="white" stroke-width="1.5" d="M0,-3.0v7 M-2.5,-0.5L0,-3.0L2.5,-0.5"/>
  </g>
  <g id="resetDef">
    <use xlink:href="#rim2" fill="#404040"><set attributeName="fill" to="#808080" begin="reset.mouseover" end="reset.mouseout"/></use>
  </g>
</defs>
<script type="application/ecmascript">
var viewWidth = 558;
var viewHeight = 627;
var sectionId = 'dynsection-0';
</script>
<script type="application/ecmascript" xlink:href="svg.min.js"/>
<svg id="graph" class="graph">
<g id="viewport">
<title>edu.wpi.first.wpilibj.motorcontrol.PWMMotorController</title>
<!-- Node1 -->
<g id="Node000001" class="node">
<title>Node1</title>
<g id="a_Node000001"><a xlink:title=" ">
<polygon fill="#999999" stroke="#666666" points="354.5,-324.5 195.25,-324.5 195.25,-294 354.5,-294 354.5,-324.5"/>
<text text-anchor="start" x="203.25" y="-311" font-family="Helvetica,sans-Serif" font-size="10.00">edu.wpi.first.wpilibj.motorcontrol.</text>
<text text-anchor="middle" x="274.88" y="-299.75" font-family="Helvetica,sans-Serif" font-size="10.00">PWMMotorController</text>
</a>
</g>
</g>
<!-- Node6 -->
<g id="Node000006" class="node">
<title>Node6</title>
<g id="a_Node000006"><a xlink:href="classedu_1_1wpi_1_1first_1_1wpilibj_1_1motorcontrol_1_1_d_m_c60.html" target="_top" xlink:title=" ">
<polygon fill="white" stroke="#666666" points="549.75,-618.5 390.5,-618.5 390.5,-588 549.75,-588 549.75,-618.5"/>
<text text-anchor="start" x="398.5" y="-605" font-family="Helvetica,sans-Serif" font-size="10.00">edu.wpi.first.wpilibj.motorcontrol.</text>
<text text-anchor="middle" x="470.12" y="-593.75" font-family="Helvetica,sans-Serif" font-size="10.00">DMC60</text>
</a>
</g>
</g>
<!-- Node1&#45;&gt;Node6 -->
<g id="edge5_Node000001_Node000006" class="edge">
<title>Node1&#45;&gt;Node6</title>
<g id="a_edge5_Node000001_Node000006"><a xlink:title=" ">
<path fill="none" stroke="#63b8ff" d="M279.78,-336.21C289.01,-390.08 317.15,-511.56 390.5,-578.25 394.53,-581.91 399.09,-585.04 403.94,-587.71"/>
<polygon fill="#63b8ff" stroke="#63b8ff" points="283.25,-335.72 278.2,-326.4 276.34,-336.83 283.25,-335.72"/>
</a>
</g>
</g>
<!-- Node7 -->
<g id="Node000007" class="node">
<title>Node7</title>
<g id="a_Node000007"><a xlink:href="classedu_1_1wpi_1_1first_1_1wpilibj_1_1motorcontrol_1_1_jaguar.html" target="_top" xlink:title=" ">
<polygon fill="white" stroke="#666666" points="549.75,-569.5 390.5,-569.5 390.5,-539 549.75,-539 549.75,-569.5"/>
<text text-anchor="start" x="398.5" y="-556" font-family="Helvetica,sans-Serif" font-size="10.00">edu.wpi.first.wpilibj.motorcontrol.</text>
<text text-anchor="middle" x="470.12" y="-544.75" font-family="Helvetica,sans-Serif" font-size="10.00">Jaguar</text>
</a>
</g>
</g>
<!-- Node1&#45;&gt;Node7 -->
<g id="edge6_Node000001_Node000007" class="edge">
<title>Node1&#45;&gt;Node7</title>
<g id="a_edge6_Node000001_Node000007"><a xlink:title=" ">
<path fill="none" stroke="#63b8ff" d="M282.51,-335.77C295.4,-381.87 328.19,-476.85 390.5,-529.25 394.78,-532.85 399.57,-535.93 404.63,-538.56"/>
<polygon fill="#63b8ff" stroke="#63b8ff" points="285.96,-335.12 279.98,-326.37 279.2,-336.93 285.96,-335.12"/>
</a>
</g>
</g>
<!-- Node8 -->
<g id="Node000008" class="node">
<title>Node8</title>
<g id="a_Node000008"><a xlink:href="classedu_1_1wpi_1_1first_1_1wpilibj_1_1motorcontrol_1_1_p_w_m_spark_flex.html" target="_top" xlink:title=" ">
<polygon fill="white" stroke="#666666" points="549.75,-520.5 390.5,-520.5 390.5,-490 549.75,-490 549.75,-520.5"/>
<text text-anchor="start" x="398.5" y="-507" font-family="Helvetica,sans-Serif" font-size="10.00">edu.wpi.first.wpilibj.motorcontrol.</text>
<text text-anchor="middle" x="470.12" y="-495.75" font-family="Helvetica,sans-Serif" font-size="10.00">PWMSparkFlex</text>
</a>
</g>
</g>
<!-- Node1&#45;&gt;Node8 -->
<g id="edge7_Node000001_Node000008" class="edge">
<title>Node1&#45;&gt;Node8</title>
<g id="a_edge7_Node000001_Node000008"><a xlink:title=" ">
<path fill="none" stroke="#63b8ff" d="M286.61,-335.37C303.33,-372.86 339.09,-441.65 390.5,-480.25 395.31,-483.86 400.66,-486.96 406.24,-489.62"/>
<polygon fill="#63b8ff" stroke="#63b8ff" points="289.83,-333.98 282.64,-326.2 283.4,-336.76 289.83,-333.98"/>
</a>
</g>
</g>
<!-- Node9 -->
<g id="Node000009" class="node">
<title>Node9</title>
<g id="a_Node000009"><a xlink:href="classedu_1_1wpi_1_1first_1_1wpilibj_1_1motorcontrol_1_1_p_w_m_spark_max.html" target="_top" xlink:title=" ">
<polygon fill="white" stroke="#666666" points="549.75,-471.5 390.5,-471.5 390.5,-441 549.75,-441 549.75,-471.5"/>
<text text-anchor="start" x="398.5" y="-458" font-family="Helvetica,sans-Serif" font-size="10.00">edu.wpi.first.wpilibj.motorcontrol.</text>
<text text-anchor="middle" x="470.12" y="-446.75" font-family="Helvetica,sans-Serif" font-size="10.00">PWMSparkMax</text>
</a>
</g>
</g>
<!-- Node1&#45;&gt;Node9 -->
<g id="edge8_Node000001_Node000009" class="edge">
<title>Node1&#45;&gt;Node9</title>
<g id="a_edge8_Node000001_Node000009"><a xlink:title=" ">
<path fill="none" stroke="#63b8ff" d="M293.08,-334.08C313.37,-361.58 349.55,-405.45 390.5,-431.25 396.2,-434.84 402.45,-437.95 408.87,-440.64"/>
<polygon fill="#63b8ff" stroke="#63b8ff" points="295.92,-332.03 287.23,-325.97 290.25,-336.13 295.92,-332.03"/>
</a>
</g>
</g>
<!-- Node10 -->
<g id="Node000010" class="node">
<title>Node10</title>
<g id="a_Node000010"><a xlink:href="classedu_1_1wpi_1_1first_1_1wpilibj_1_1motorcontrol_1_1_p_w_m_talon_f_x.html" target="_top" xlink:title=" ">
<polygon fill="white" stroke="#666666" points="549.75,-422.5 390.5,-422.5 390.5,-392 549.75,-392 549.75,-422.5"/>
<text text-anchor="start" x="398.5" y="-409" font-family="Helvetica,sans-Serif" font-size="10.00">edu.wpi.first.wpilibj.motorcontrol.</text>
<text text-anchor="middle" x="470.12" y="-397.75" font-family="Helvetica,sans-Serif" font-size="10.00">PWMTalonFX</text>
</a>
</g>
</g>
<!-- Node1&#45;&gt;Node10 -->
<g id="edge9_Node000001_Node000010" class="edge">
<title>Node1&#45;&gt;Node10</title>
<g id="a_edge9_Node000001_Node000010"><a xlink:title=" ">
<path fill="none" stroke="#63b8ff" d="M306.19,-331.64C328.6,-347.41 360.34,-368.15 390.5,-382.25 397.77,-385.65 405.62,-388.76 413.45,-391.54"/>
<polygon fill="#63b8ff" stroke="#63b8ff" points="308.29,-328.84 298.12,-325.88 304.22,-334.54 308.29,-328.84"/>
</a>
</g>
</g>
<!-- Node11 -->
<g id="Node000011" class="node">
<title>Node11</title>
<g id="a_Node000011"><a xlink:href="classedu_1_1wpi_1_1first_1_1wpilibj_1_1motorcontrol_1_1_p_w_m_talon_s_r_x.html" target="_top" xlink:title=" ">
<polygon fill="white" stroke="#666666" points="549.75,-373.5 390.5,-373.5 390.5,-343 549.75,-343 549.75,-373.5"/>
<text text-anchor="start" x="398.5" y="-360" font-family="Helvetica,sans-Serif" font-size="10.00">edu.wpi.first.wpilibj.motorcontrol.</text>
<text text-anchor="middle" x="470.12" y="-348.75" font-family="Helvetica,sans-Serif" font-size="10.00">PWMTalonSRX</text>
</a>
</g>
</g>
<!-- Node1&#45;&gt;Node11 -->
<g id="edge10_Node000001_Node000011" class="edge">
<title>Node1&#45;&gt;Node11</title>
<g id="a_edge10_Node000001_Node000011"><a xlink:title=" ">
<path fill="none" stroke="#63b8ff" d="M348.94,-327.78C368.14,-332.64 388.65,-337.85 407.2,-342.55"/>
<polygon fill="#63b8ff" stroke="#63b8ff" points="349.84,-324.39 339.29,-325.33 348.12,-331.18 349.84,-324.39"/>
</a>
</g>
</g>
<!-- Node12 -->
<g id="Node000012" class="node">
<title>Node12</title>
<g id="a_Node000012"><a xlink:href="classedu_1_1wpi_1_1first_1_1wpilibj_1_1motorcontrol_1_1_p_w_m_venom.html" target="_top" xlink:title=" ">
<polygon fill="white" stroke="#666666" points="549.75,-324.5 390.5,-324.5 390.5,-294 549.75,-294 549.75,-324.5"/>
<text text-anchor="start" x="398.5" y="-311" font-family="Helvetica,sans-Serif" font-size="10.00">edu.wpi.first.wpilibj.motorcontrol.</text>
<text text-anchor="middle" x="470.12" y="-299.75" font-family="Helvetica,sans-Serif" font-size="10.00">PWMVenom</text>
</a>
</g>
</g>
<!-- Node1&#45;&gt;Node12 -->
<g id="edge11_Node000001_Node000012" class="edge">
<title>Node1&#45;&gt;Node12</title>
<g id="a_edge11_Node000001_Node000012"><a xlink:title=" ">
<path fill="none" stroke="#63b8ff" d="M366.08,-309.25C374.13,-309.25 382.24,-309.25 390.18,-309.25"/>
<polygon fill="#63b8ff" stroke="#63b8ff" points="366.27,-305.75 356.27,-309.25 366.27,-312.75 366.27,-305.75"/>
</a>
</g>
</g>
<!-- Node13 -->
<g id="Node000013" class="node">
<title>Node13</title>
<g id="a_Node000013"><a xlink:href="classedu_1_1wpi_1_1first_1_1wpilibj_1_1motorcontrol_1_1_p_w_m_victor_s_p_x.html" target="_top" xlink:title=" ">
<polygon fill="white" stroke="#666666" points="549.75,-275.5 390.5,-275.5 390.5,-245 549.75,-245 549.75,-275.5"/>
<text text-anchor="start" x="398.5" y="-262" font-family="Helvetica,sans-Serif" font-size="10.00">edu.wpi.first.wpilibj.motorcontrol.</text>
<text text-anchor="middle" x="470.12" y="-250.75" font-family="Helvetica,sans-Serif" font-size="10.00">PWMVictorSPX</text>
</a>
</g>
</g>
<!-- Node1&#45;&gt;Node13 -->
<g id="edge12_Node000001_Node000013" class="edge">
<title>Node1&#45;&gt;Node13</title>
<g id="a_edge12_Node000001_Node000013"><a xlink:title=" ">
<path fill="none" stroke="#63b8ff" d="M348.94,-290.72C368.14,-285.86 388.65,-280.65 407.2,-275.95"/>
<polygon fill="#63b8ff" stroke="#63b8ff" points="348.12,-287.32 339.29,-293.17 349.84,-294.11 348.12,-287.32"/>
</a>
</g>
</g>
<!-- Node14 -->
<g id="Node000014" class="node">
<title>Node14</title>
<g id="a_Node000014"><a xlink:href="classedu_1_1wpi_1_1first_1_1wpilibj_1_1motorcontrol_1_1_s_d540.html" target="_top" xlink:title=" ">
<polygon fill="white" stroke="#666666" points="549.75,-226.5 390.5,-226.5 390.5,-196 549.75,-196 549.75,-226.5"/>
<text text-anchor="start" x="398.5" y="-213" font-family="Helvetica,sans-Serif" font-size="10.00">edu.wpi.first.wpilibj.motorcontrol.</text>
<text text-anchor="middle" x="470.12" y="-201.75" font-family="Helvetica,sans-Serif" font-size="10.00">SD540</text>
</a>
</g>
</g>
<!-- Node1&#45;&gt;Node14 -->
<g id="edge13_Node000001_Node000014" class="edge">
<title>Node1&#45;&gt;Node14</title>
<g id="a_edge13_Node000001_Node000014"><a xlink:title=" ">
<path fill="none" stroke="#63b8ff" d="M306.19,-286.86C328.6,-271.09 360.34,-250.35 390.5,-236.25 397.77,-232.85 405.62,-229.74 413.45,-226.96"/>
<polygon fill="#63b8ff" stroke="#63b8ff" points="304.22,-283.96 298.12,-292.62 308.29,-289.66 304.22,-283.96"/>
</a>
</g>
</g>
<!-- Node15 -->
<g id="Node000015" class="node">
<title>Node15</title>
<g id="a_Node000015"><a xlink:href="classedu_1_1wpi_1_1first_1_1wpilibj_1_1motorcontrol_1_1_spark.html" target="_top" xlink:title=" ">
<polygon fill="white" stroke="#666666" points="549.75,-177.5 390.5,-177.5 390.5,-147 549.75,-147 549.75,-177.5"/>
<text text-anchor="start" x="398.5" y="-164" font-family="Helvetica,sans-Serif" font-size="10.00">edu.wpi.first.wpilibj.motorcontrol.</text>
<text text-anchor="middle" x="470.12" y="-152.75" font-family="Helvetica,sans-Serif" font-size="10.00">Spark</text>
</a>
</g>
</g>
<!-- Node1&#45;&gt;Node15 -->
<g id="edge14_Node000001_Node000015" class="edge">
<title>Node1&#45;&gt;Node15</title>
<g id="a_edge14_Node000001_Node000015"><a xlink:title=" ">
<path fill="none" stroke="#63b8ff" d="M293.08,-284.42C313.37,-256.92 349.55,-213.05 390.5,-187.25 396.2,-183.66 402.45,-180.55 408.87,-177.86"/>
<polygon fill="#63b8ff" stroke="#63b8ff" points="290.25,-282.37 287.23,-292.53 295.92,-286.47 290.25,-282.37"/>
</a>
</g>
</g>
<!-- Node16 -->
<g id="Node000016" class="node">
<title>Node16</title>
<g id="a_Node000016"><a xlink:href="classedu_1_1wpi_1_1first_1_1wpilibj_1_1motorcontrol_1_1_talon.html" target="_top" xlink:title=" ">
<polygon fill="white" stroke="#666666" points="549.75,-128.5 390.5,-128.5 390.5,-98 549.75,-98 549.75,-128.5"/>
<text text-anchor="start" x="398.5" y="-115" font-family="Helvetica,sans-Serif" font-size="10.00">edu.wpi.first.wpilibj.motorcontrol.</text>
<text text-anchor="middle" x="470.12" y="-103.75" font-family="Helvetica,sans-Serif" font-size="10.00">Talon</text>
</a>
</g>
</g>
<!-- Node1&#45;&gt;Node16 -->
<g id="edge15_Node000001_Node000016" class="edge">
<title>Node1&#45;&gt;Node16</title>
<g id="a_edge15_Node000001_Node000016"><a xlink:title=" ">
<path fill="none" stroke="#63b8ff" d="M286.61,-283.13C303.33,-245.64 339.09,-176.85 390.5,-138.25 395.31,-134.64 400.66,-131.54 406.24,-128.88"/>
<polygon fill="#63b8ff" stroke="#63b8ff" points="283.4,-281.74 282.64,-292.3 289.83,-284.52 283.4,-281.74"/>
</a>
</g>
</g>
<!-- Node17 -->
<g id="Node000017" class="node">
<title>Node17</title>
<g id="a_Node000017"><a xlink:href="classedu_1_1wpi_1_1first_1_1wpilibj_1_1motorcontrol_1_1_victor.html" target="_top" xlink:title=" ">
<polygon fill="white" stroke="#666666" points="549.75,-79.5 390.5,-79.5 390.5,-49 549.75,-49 549.75,-79.5"/>
<text text-anchor="start" x="398.5" y="-66" font-family="Helvetica,sans-Serif" font-size="10.00">edu.wpi.first.wpilibj.motorcontrol.</text>
<text text-anchor="middle" x="470.12" y="-54.75" font-family="Helvetica,sans-Serif" font-size="10.00">Victor</text>
</a>
</g>
</g>
<!-- Node1&#45;&gt;Node17 -->
<g id="edge16_Node000001_Node000017" class="edge">
<title>Node1&#45;&gt;Node17</title>
<g id="a_edge16_Node000001_Node000017"><a xlink:title=" ">
<path fill="none" stroke="#63b8ff" d="M282.51,-282.73C295.4,-236.63 328.19,-141.65 390.5,-89.25 394.78,-85.65 399.57,-82.57 404.63,-79.94"/>
<polygon fill="#63b8ff" stroke="#63b8ff" points="279.2,-281.57 279.98,-292.13 285.96,-283.38 279.2,-281.57"/>
</a>
</g>
</g>
<!-- Node18 -->
<g id="Node000018" class="node">
<title>Node18</title>
<g id="a_Node000018"><a xlink:href="classedu_1_1wpi_1_1first_1_1wpilibj_1_1motorcontrol_1_1_victor_s_p.html" target="_top" xlink:title=" ">
<polygon fill="white" stroke="#666666" points="549.75,-30.5 390.5,-30.5 390.5,0 549.75,0 549.75,-30.5"/>
<text text-anchor="start" x="398.5" y="-17" font-family="Helvetica,sans-Serif" font-size="10.00">edu.wpi.first.wpilibj.motorcontrol.</text>
<text text-anchor="middle" x="470.12" y="-5.75" font-family="Helvetica,sans-Serif" font-size="10.00">VictorSP</text>
</a>
</g>
</g>
<!-- Node1&#45;&gt;Node18 -->
<g id="edge17_Node000001_Node000018" class="edge">
<title>Node1&#45;&gt;Node18</title>
<g id="a_edge17_Node000001_Node000018"><a xlink:title=" ">
<path fill="none" stroke="#63b8ff" d="M279.78,-282.29C289.01,-228.42 317.15,-106.94 390.5,-40.25 394.53,-36.59 399.09,-33.46 403.94,-30.79"/>
<polygon fill="#63b8ff" stroke="#63b8ff" points="276.34,-281.67 278.2,-292.1 283.25,-282.78 276.34,-281.67"/>
</a>
</g>
</g>
<!-- Node2 -->
<g id="Node000002" class="node">
<title>Node2</title>
<g id="a_Node000002"><a xlink:href="classedu_1_1wpi_1_1first_1_1wpilibj_1_1_motor_safety.html" target="_top" xlink:title=" ">
<polygon fill="white" stroke="#666666" points="143.12,-395.5 16.12,-395.5 16.12,-365 143.12,-365 143.12,-395.5"/>
<text text-anchor="start" x="24.12" y="-382" font-family="Helvetica,sans-Serif" font-size="10.00">edu.wpi.first.wpilibj.Motor</text>
<text text-anchor="middle" x="79.62" y="-370.75" font-family="Helvetica,sans-Serif" font-size="10.00">Safety</text>
</a>
</g>
</g>
<!-- Node2&#45;&gt;Node1 -->
<g id="edge1_Node000001_Node000002" class="edge">
<title>Node2&#45;&gt;Node1</title>
<g id="a_edge1_Node000001_Node000002"><a xlink:title=" ">
<path fill="none" stroke="#63b8ff" d="M142.74,-360.97C148.34,-359.09 153.91,-357.17 159.25,-355.25 185.38,-345.87 214.41,-334.2 236.71,-324.97"/>
<polygon fill="#63b8ff" stroke="#63b8ff" points="141.82,-357.59 133.42,-364.05 144.01,-364.24 141.82,-357.59"/>
</a>
</g>
</g>
<!-- Node3 -->
<g id="Node000003" class="node">
<title>Node3</title>
<g id="a_Node000003"><a xlink:href="interfaceedu_1_1wpi_1_1first_1_1wpilibj_1_1motorcontrol_1_1_motor_controller.html" target="_top" xlink:title=" ">
<polygon fill="white" stroke="#666666" points="159.25,-346.5 0,-346.5 0,-316 159.25,-316 159.25,-346.5"/>
<text text-anchor="start" x="8" y="-333" font-family="Helvetica,sans-Serif" font-size="10.00">edu.wpi.first.wpilibj.motorcontrol.</text>
<text text-anchor="middle" x="79.62" y="-321.75" font-family="Helvetica,sans-Serif" font-size="10.00">MotorController</text>
</a>
</g>
</g>
<!-- Node3&#45;&gt;Node1 -->
<g id="edge2_Node000001_Node000003" class="edge">
<title>Node3&#45;&gt;Node1</title>
<g id="a_edge2_Node000001_Node000003"><a xlink:title=" ">
<path fill="none" stroke="#63b8ff" d="M170.83,-320.98C178.88,-320.06 186.99,-319.14 194.93,-318.24"/>
<polygon fill="#63b8ff" stroke="#63b8ff" points="170.55,-317.49 161.01,-322.1 171.34,-324.45 170.55,-317.49"/>
</a>
</g>
</g>
<!-- Node4 -->
<g id="Node000004" class="node">
<title>Node4</title>
<g id="a_Node000004"><a xlink:title=" ">
<polygon fill="white" stroke="#bfbfbf" points="107.88,-297.88 51.38,-297.88 51.38,-278.62 107.88,-278.62 107.88,-297.88"/>
<text text-anchor="middle" x="79.62" y="-284.38" font-family="Helvetica,sans-Serif" font-size="10.00">Sendable</text>
</a>
</g>
</g>
<!-- Node4&#45;&gt;Node1 -->
<g id="edge3_Node000001_Node000004" class="edge">
<title>Node4&#45;&gt;Node1</title>
<g id="a_edge3_Node000001_Node000004"><a xlink:title=" ">
<path fill="none" stroke="#63b8ff" d="M119.65,-292.49C141.27,-294.84 168.95,-297.85 194.88,-300.67"/>
<polygon fill="#63b8ff" stroke="#63b8ff" points="120.14,-289.02 109.82,-291.42 119.38,-295.98 120.14,-289.02"/>
</a>
</g>
</g>
<!-- Node5 -->
<g id="Node000005" class="node">
<title>Node5</title>
<g id="a_Node000005"><a xlink:title=" ">
<polygon fill="white" stroke="#bfbfbf" points="119.5,-260.88 39.75,-260.88 39.75,-241.62 119.5,-241.62 119.5,-260.88"/>
<text text-anchor="middle" x="79.62" y="-247.38" font-family="Helvetica,sans-Serif" font-size="10.00">AutoCloseable</text>
</a>
</g>
</g>
<!-- Node5&#45;&gt;Node1 -->
<g id="edge4_Node000001_Node000005" class="edge">
<title>Node5&#45;&gt;Node1</title>
<g id="a_edge4_Node000001_Node000005"><a xlink:title=" ">
<path fill="none" stroke="#63b8ff" d="M130.63,-261.82C140.18,-264.09 150.06,-266.6 159.25,-269.25 183.86,-276.34 210.93,-285.71 232.58,-293.6"/>
<polygon fill="#63b8ff" stroke="#63b8ff" points="131.64,-258.46 121.11,-259.63 130.07,-265.28 131.64,-258.46"/>
</a>
</g>
</g>
</g>
</svg>

<g id="navigator" transform="translate(0 0)" fill="#404254">
  <rect fill="#f2f5e9" fill-opacity="0.5" stroke="#606060" stroke-width=".5" x="0" y="0" width="60" height="60"/>
  <use id="zoomplus" xlink:href="#zoomPlus" x="17" y="9" onmousedown="handleZoom(evt,'in')"/>
  <use id="zoomminus" xlink:href="#zoomMin" x="42" y="9" onmousedown="handleZoom(evt,'out')"/>
  <use id="reset" xlink:href="#resetDef" x="30" y="36" onmousedown="handleReset()"/>
   <use id="arrowup" xlink:href="#arrowUp" x="0" y="0" onmousedown="handlePan(0,-1)"/>
  <use id="arrowright" xlink:href="#arrowRight" x="0" y="0" onmousedown="handlePan(1,0)"/>
  <use id="arrowdown" xlink:href="#arrowDown" x="0" y="0" onmousedown="handlePan(0,1)"/>
  <use id="arrowleft" xlink:href="#arrowLeft" x="0" y="0" onmousedown="handlePan(-1,0)"/>
</g>
<svg viewBox="0 0 15 15" width="100%" height="30px" preserveAspectRatio="xMaxYMin meet">
 <g id="arrow_out" transform="scale(0.3 0.3)">
  <a xlink:href="classedu_1_1wpi_1_1first_1_1wpilibj_1_1motorcontrol_1_1_p_w_m_motor_controller__inherit__graph_org.svg" target="_base">
   <rect id="button" ry="5" rx="5" y="6" x="6" height="38" width="38"
        fill="#f2f5e9" fill-opacity="0.5" stroke="#606060" stroke-width="1.0"/>
   <path id="arrow"
     d="M 11.500037,31.436501 C 11.940474,20.09759 22.043105,11.32322 32.158766,21.979434 L 37.068811,17.246167 C 37.068811,17.246167 37.088388,32 37.088388,32 L 22.160133,31.978069 C 22.160133,31.978069 26.997745,27.140456 26.997745,27.140456 C 18.528582,18.264221 13.291696,25.230495 11.500037,31.436501 z"
     style="fill:#404040;"/>
  </a>
 </g>
</svg>

<style type='text/css'>
<![CDATA[
[data-mouse-over-selected='false'] { opacity: 0.7; }
[data-mouse-over-selected='true']  { opacity: 1.0; }
]]>
</style>
<script type="application/ecmascript"><![CDATA[
document.addEventListener('DOMContentLoaded', (event) => {
  highlightEdges();
  highlightAdjacentNodes();
});
]]></script>
</svg>
