<?xml version="1.0" encoding="UTF-8" standalone="no"?>
<!DOCTYPE svg PUBLIC "-//W3C//DTD SVG 1.1//EN"
 "http://www.w3.org/Graphics/SVG/1.1/DTD/svg11.dtd">
<!-- Generated by graphviz version 9.0.0 (20230911.1827)
 -->
<!-- Title: edu.wpi.first.wpilibj.Tracer.clearEpochs Pages: 1 -->
<svg width="755pt" height="82pt"
 viewBox="0.00 0.00 754.50 81.50" xmlns="http://www.w3.org/2000/svg" xmlns:xlink="http://www.w3.org/1999/xlink">
<g id="graph0" class="graph" transform="scale(1 1) rotate(0) translate(4 77.5)">
<title>edu.wpi.first.wpilibj.Tracer.clearEpochs</title>
<!-- Node1 -->
<g id="Node000001" class="node">
<title>Node1</title>
<g id="a_Node000001"><a xlink:title=" ">
<polygon fill="#999999" stroke="#666666" points="746.5,-51.5 593.25,-51.5 593.25,-21 746.5,-21 746.5,-51.5"/>
<text text-anchor="start" x="601.25" y="-38" font-family="Helvetica,sans-Serif" font-size="10.00">edu.wpi.first.wpilibj.Tracer.clear</text>
<text text-anchor="middle" x="669.88" y="-26.75" font-family="Helvetica,sans-Serif" font-size="10.00">Epochs</text>
</a>
</g>
</g>
<!-- Node2 -->
<g id="Node000002" class="node">
<title>Node2</title>
<g id="a_Node000002"><a xlink:href="classedu_1_1wpi_1_1first_1_1wpilibj_1_1_watchdog.html#aacdc6efc6b79902319f7b07344298c49" target="_top" xlink:title=" ">
<polygon fill="white" stroke="#666666" points="557.25,-67.88 380,-67.88 380,-48.62 557.25,-48.62 557.25,-67.88"/>
<text text-anchor="middle" x="468.62" y="-54.38" font-family="Helvetica,sans-Serif" font-size="10.00">edu.wpi.first.wpilibj.Watchdog.enable</text>
</a>
</g>
</g>
<!-- Node1&#45;&gt;Node2 -->
<g id="edge1_Node000001_Node000002" class="edge">
<title>Node1&#45;&gt;Node2</title>
<g id="a_edge1_Node000001_Node000002"><a xlink:title=" ">
<path fill="none" stroke="#63b8ff" d="M581.77,-45.87C573.77,-46.75 565.66,-47.65 557.65,-48.53"/>
<polygon fill="#63b8ff" stroke="#63b8ff" points="581.92,-49.37 591.47,-44.8 581.15,-42.41 581.92,-49.37"/>
</a>
</g>
</g>
<!-- Node5 -->
<g id="Node000005" class="node">
<title>Node5</title>
<g id="a_Node000005"><a xlink:href="classedu_1_1wpi_1_1first_1_1wpilibj_1_1_watchdog.html#a721d8b1a9ebc2ab5d11b1b3fddc2fd96" target="_top" xlink:title=" ">
<polygon fill="white" stroke="#666666" points="549.75,-30.5 387.5,-30.5 387.5,0 549.75,0 549.75,-30.5"/>
<text text-anchor="start" x="395.5" y="-17" font-family="Helvetica,sans-Serif" font-size="10.00">edu.wpi.first.wpilibj.Watchdog.set</text>
<text text-anchor="middle" x="468.62" y="-5.75" font-family="Helvetica,sans-Serif" font-size="10.00">Timeout</text>
</a>
</g>
</g>
<!-- Node1&#45;&gt;Node5 -->
<g id="edge4_Node000001_Node000005" class="edge">
<title>Node1&#45;&gt;Node5</title>
<g id="a_edge4_Node000001_Node000005"><a xlink:title=" ">
<path fill="none" stroke="#63b8ff" d="M581.64,-27.06C571.11,-25.95 560.38,-24.82 549.95,-23.72"/>
<polygon fill="#63b8ff" stroke="#63b8ff" points="581.16,-30.52 591.47,-28.09 581.9,-23.56 581.16,-30.52"/>
</a>
</g>
</g>
<!-- Node3 -->
<g id="Node000003" class="node">
<title>Node3</title>
<g id="a_Node000003"><a xlink:href="classedu_1_1wpi_1_1first_1_1wpilibj_1_1_watchdog.html#afbebfdef0304b43e207e20d43cfba7bb" target="_top" xlink:title=" ">
<polygon fill="white" stroke="#666666" points="344,-67.88 173.5,-67.88 173.5,-48.62 344,-48.62 344,-67.88"/>
<text text-anchor="middle" x="258.75" y="-54.38" font-family="Helvetica,sans-Serif" font-size="10.00">edu.wpi.first.wpilibj.Watchdog.reset</text>
</a>
</g>
</g>
<!-- Node2&#45;&gt;Node3 -->
<g id="edge2_Node000002_Node000003" class="edge">
<title>Node2&#45;&gt;Node3</title>
<g id="a_edge2_Node000002_Node000003"><a xlink:title=" ">
<path fill="none" stroke="#63b8ff" d="M368.42,-58.25C360.35,-58.25 352.25,-58.25 344.31,-58.25"/>
<polygon fill="#63b8ff" stroke="#63b8ff" points="368.26,-61.75 378.26,-58.25 368.26,-54.75 368.26,-61.75"/>
</a>
</g>
</g>
<!-- Node4 -->
<g id="Node000004" class="node">
<title>Node4</title>
<g id="a_Node000004"><a xlink:href="classedu_1_1wpi_1_1first_1_1wpilibj_1_1_iterative_robot_base.html#aac5c45d7130bce188e0f9278075e8891" target="_top" xlink:title=" ">
<polygon fill="white" stroke="#666666" points="137.5,-73.5 0,-73.5 0,-43 137.5,-43 137.5,-73.5"/>
<text text-anchor="start" x="8" y="-60" font-family="Helvetica,sans-Serif" font-size="10.00">edu.wpi.first.wpilibj.Iterative</text>
<text text-anchor="middle" x="68.75" y="-48.75" font-family="Helvetica,sans-Serif" font-size="10.00">RobotBase.loopFunc</text>
</a>
</g>
</g>
<!-- Node3&#45;&gt;Node4 -->
<g id="edge3_Node000003_Node000004" class="edge">
<title>Node3&#45;&gt;Node4</title>
<g id="a_edge3_Node000003_Node000004"><a xlink:title=" ">
<path fill="none" stroke="#63b8ff" d="M161.73,-58.25C153.68,-58.25 145.65,-58.25 137.88,-58.25"/>
<polygon fill="#63b8ff" stroke="#63b8ff" points="161.59,-61.75 171.59,-58.25 161.59,-54.75 161.59,-61.75"/>
</a>
</g>
</g>
</g>
</svg>
