<?xml version="1.0" encoding="UTF-8" standalone="no"?>
<!DOCTYPE svg PUBLIC "-//W3C//DTD SVG 1.1//EN"
 "http://www.w3.org/Graphics/SVG/1.1/DTD/svg11.dtd">
<!-- Generated by graphviz version 9.0.0 (20230911.1827)
 -->
<!-- Title: edu.wpi.first.wpilibj.DriverStation.isTestEnabled Pages: 1 -->
<svg width="514pt" height="39pt"
 viewBox="0.00 0.00 513.50 38.50" xmlns="http://www.w3.org/2000/svg" xmlns:xlink="http://www.w3.org/1999/xlink">
<g id="graph0" class="graph" transform="scale(1 1) rotate(0) translate(4 34.5)">
<title>edu.wpi.first.wpilibj.DriverStation.isTestEnabled</title>
<!-- Node1 -->
<g id="Node000001" class="node">
<title>Node1</title>
<g id="a_Node000001"><a xlink:title=" ">
<polygon fill="#999999" stroke="#666666" points="505.5,-30.5 377,-30.5 377,0 505.5,0 505.5,-30.5"/>
<text text-anchor="start" x="385" y="-17" font-family="Helvetica,sans-Serif" font-size="10.00">edu.wpi.first.wpilibj.Driver</text>
<text text-anchor="middle" x="441.25" y="-5.75" font-family="Helvetica,sans-Serif" font-size="10.00">Station.isTestEnabled</text>
</a>
</g>
</g>
<!-- Node2 -->
<g id="Node000002" class="node">
<title>Node2</title>
<g id="a_Node000002"><a xlink:href="classedu_1_1wpi_1_1first_1_1wpilibj_1_1_robot_base.html#a5ab65f5a0186fa90e844ca46ea7e421a" target="_top" xlink:title=" ">
<polygon fill="white" stroke="#666666" points="341,-30.5 212.5,-30.5 212.5,0 341,0 341,-30.5"/>
<text text-anchor="start" x="220.5" y="-17" font-family="Helvetica,sans-Serif" font-size="10.00">edu.wpi.first.wpilibj.Robot</text>
<text text-anchor="middle" x="276.75" y="-5.75" font-family="Helvetica,sans-Serif" font-size="10.00">Base.isTestEnabled</text>
</a>
</g>
</g>
<!-- Node1&#45;&gt;Node2 -->
<g id="edge1_Node000001_Node000002" class="edge">
<title>Node1&#45;&gt;Node2</title>
<g id="a_edge1_Node000001_Node000002"><a xlink:title=" ">
<path fill="none" stroke="#63b8ff" d="M365.61,-15.25C357.52,-15.25 349.35,-15.25 341.4,-15.25"/>
<polygon fill="#63b8ff" stroke="#63b8ff" points="365.44,-18.75 375.44,-15.25 365.44,-11.75 365.44,-18.75"/>
</a>
</g>
</g>
<!-- Node3 -->
<g id="Node000003" class="node">
<title>Node3</title>
<g id="a_Node000003"><a xlink:href="classedu_1_1wpi_1_1first_1_1wpilibj_1_1_iterative_robot_base.html#a30ca78a050b2c4de0edfe9f38a3a3919" target="_top" xlink:title=" ">
<polygon fill="white" stroke="#666666" points="176.5,-30.5 0,-30.5 0,0 176.5,0 176.5,-30.5"/>
<text text-anchor="start" x="8" y="-17" font-family="Helvetica,sans-Serif" font-size="10.00">edu.wpi.first.wpilibj.Iterative</text>
<text text-anchor="middle" x="88.25" y="-5.75" font-family="Helvetica,sans-Serif" font-size="10.00">RobotBase.enableLiveWindowInTest</text>
</a>
</g>
</g>
<!-- Node2&#45;&gt;Node3 -->
<g id="edge2_Node000002_Node000003" class="edge">
<title>Node2&#45;&gt;Node3</title>
<g id="a_edge2_Node000002_Node000003"><a xlink:title=" ">
<path fill="none" stroke="#63b8ff" d="M200.69,-15.25C192.8,-15.25 184.72,-15.25 176.71,-15.25"/>
<polygon fill="#63b8ff" stroke="#63b8ff" points="200.58,-18.75 210.58,-15.25 200.58,-11.75 200.58,-18.75"/>
</a>
</g>
</g>
</g>
</svg>
