<?xml version="1.0" encoding="UTF-8" standalone="no"?>
<!DOCTYPE svg PUBLIC "-//W3C//DTD SVG 1.1//EN"
 "http://www.w3.org/Graphics/SVG/1.1/DTD/svg11.dtd">
<!-- Generated by graphviz version 9.0.0 (20230911.1827)
 -->
<!-- Title: Graphical Class Hierarchy Pages: 1 -->
<svg width="343pt" height="88pt"
 viewBox="0.00 0.00 343.00 87.50" xmlns="http://www.w3.org/2000/svg" xmlns:xlink="http://www.w3.org/1999/xlink">
<g id="graph0" class="graph" transform="scale(1 1) rotate(0) translate(4 83.5)">
<title>Graphical Class Hierarchy</title>
<!-- Node0 -->
<g id="Node000000" class="node">
<title>Node0</title>
<g id="a_Node000000"><a xlink:href="classedu_1_1wpi_1_1first_1_1wpilibj_1_1simulation_1_1_pneumatics_base_sim.html" target="_top" xlink:title=" ">
<polygon fill="white" stroke="#666666" points="149.5,-54.5 0,-54.5 0,-24 149.5,-24 149.5,-54.5"/>
<text text-anchor="start" x="8" y="-41" font-family="Helvetica,sans-Serif" font-size="10.00">edu.wpi.first.wpilibj.simulation.</text>
<text text-anchor="middle" x="74.75" y="-29.75" font-family="Helvetica,sans-Serif" font-size="10.00">PneumaticsBaseSim</text>
</a>
</g>
</g>
<!-- Node1 -->
<g id="Node000001" class="node">
<title>Node1</title>
<g id="a_Node000001"><a xlink:href="classedu_1_1wpi_1_1first_1_1wpilibj_1_1simulation_1_1_c_t_r_e_p_c_m_sim.html" target="_top" xlink:title=" ">
<polygon fill="white" stroke="#666666" points="335,-79.5 185.5,-79.5 185.5,-49 335,-49 335,-79.5"/>
<text text-anchor="start" x="193.5" y="-66" font-family="Helvetica,sans-Serif" font-size="10.00">edu.wpi.first.wpilibj.simulation.</text>
<text text-anchor="middle" x="260.25" y="-54.75" font-family="Helvetica,sans-Serif" font-size="10.00">CTREPCMSim</text>
</a>
</g>
</g>
<!-- Node0&#45;&gt;Node1 -->
<g id="edge161_Node000000_Node000001" class="edge">
<title>Node0&#45;&gt;Node1</title>
<g id="a_edge161_Node000000_Node000001"><a xlink:title=" ">
<path fill="none" stroke="#63b8ff" d="M161.14,-50.88C169.16,-51.98 177.25,-53.08 185.16,-54.16"/>
<polygon fill="#63b8ff" stroke="#63b8ff" points="161.74,-47.43 151.36,-49.55 160.79,-54.37 161.74,-47.43"/>
</a>
</g>
</g>
<!-- Node2 -->
<g id="Node000002" class="node">
<title>Node2</title>
<g id="a_Node000002"><a xlink:href="classedu_1_1wpi_1_1first_1_1wpilibj_1_1simulation_1_1_r_e_v_p_h_sim.html" target="_top" xlink:title=" ">
<polygon fill="white" stroke="#666666" points="335,-30.5 185.5,-30.5 185.5,0 335,0 335,-30.5"/>
<text text-anchor="start" x="193.5" y="-17" font-family="Helvetica,sans-Serif" font-size="10.00">edu.wpi.first.wpilibj.simulation.</text>
<text text-anchor="middle" x="260.25" y="-5.75" font-family="Helvetica,sans-Serif" font-size="10.00">REVPHSim</text>
</a>
</g>
</g>
<!-- Node0&#45;&gt;Node2 -->
<g id="edge162_Node000000_Node000002" class="edge">
<title>Node0&#45;&gt;Node2</title>
<g id="a_edge162_Node000000_Node000002"><a xlink:title=" ">
<path fill="none" stroke="#63b8ff" d="M161.14,-28.08C169.16,-27.03 177.25,-25.97 185.16,-24.94"/>
<polygon fill="#63b8ff" stroke="#63b8ff" points="160.82,-24.59 151.36,-29.36 161.73,-31.53 160.82,-24.59"/>
</a>
</g>
</g>
</g>
</svg>
