<?xml version="1.0" encoding="UTF-8" standalone="no"?>
<!DOCTYPE svg PUBLIC "-//W3C//DTD SVG 1.1//EN"
 "http://www.w3.org/Graphics/SVG/1.1/DTD/svg11.dtd">
<!-- Generated by graphviz version 9.0.0 (20230911.1827)
 -->
<!-- Title: edu.wpi.first.wpilibj.shuffleboard.ShuffleboardRoot.enableActuatorWidgets Pages: 1 -->
<svg width="589pt" height="39pt"
 viewBox="0.00 0.00 588.50 38.50" xmlns="http://www.w3.org/2000/svg" xmlns:xlink="http://www.w3.org/1999/xlink">
<g id="graph0" class="graph" transform="scale(1 1) rotate(0) translate(4 34.5)">
<title>edu.wpi.first.wpilibj.shuffleboard.ShuffleboardRoot.enableActuatorWidgets</title>
<!-- Node1 -->
<g id="Node000001" class="node">
<title>Node1</title>
<g id="a_Node000001"><a xlink:title=" ">
<polygon fill="#999999" stroke="#666666" points="580.5,-30.5 384.5,-30.5 384.5,0 580.5,0 580.5,-30.5"/>
<text text-anchor="start" x="392.5" y="-17" font-family="Helvetica,sans-Serif" font-size="10.00">edu.wpi.first.wpilibj.shuffleboard.</text>
<text text-anchor="middle" x="482.5" y="-5.75" font-family="Helvetica,sans-Serif" font-size="10.00">ShuffleboardRoot.enableActuatorWidgets</text>
</a>
</g>
</g>
<!-- Node2 -->
<g id="Node000002" class="node">
<title>Node2</title>
<g id="a_Node000002"><a xlink:href="classedu_1_1wpi_1_1first_1_1wpilibj_1_1shuffleboard_1_1_shuffleboard.html#a8a7ac37c62184c0d332c729f670a5c6d" target="_top" xlink:title=" ">
<polygon fill="white" stroke="#666666" points="348.5,-30.5 173.5,-30.5 173.5,0 348.5,0 348.5,-30.5"/>
<text text-anchor="start" x="181.5" y="-17" font-family="Helvetica,sans-Serif" font-size="10.00">edu.wpi.first.wpilibj.shuffleboard.</text>
<text text-anchor="middle" x="261" y="-5.75" font-family="Helvetica,sans-Serif" font-size="10.00">Shuffleboard.enableActuatorWidgets</text>
</a>
</g>
</g>
<!-- Node1&#45;&gt;Node2 -->
<g id="edge1_Node000001_Node000002" class="edge">
<title>Node1&#45;&gt;Node2</title>
<g id="a_edge1_Node000001_Node000002"><a xlink:title=" ">
<path fill="none" stroke="#63b8ff" d="M372.87,-15.25C364.8,-15.25 356.72,-15.25 348.8,-15.25"/>
<polygon fill="#63b8ff" stroke="#63b8ff" points="372.75,-18.75 382.75,-15.25 372.75,-11.75 372.75,-18.75"/>
</a>
</g>
</g>
<!-- Node3 -->
<g id="Node000003" class="node">
<title>Node3</title>
<g id="a_Node000003"><a xlink:href="classedu_1_1wpi_1_1first_1_1wpilibj_1_1_iterative_robot_base.html#aac5c45d7130bce188e0f9278075e8891" target="_top" xlink:title=" ">
<polygon fill="white" stroke="#666666" points="137.5,-30.5 0,-30.5 0,0 137.5,0 137.5,-30.5"/>
<text text-anchor="start" x="8" y="-17" font-family="Helvetica,sans-Serif" font-size="10.00">edu.wpi.first.wpilibj.Iterative</text>
<text text-anchor="middle" x="68.75" y="-5.75" font-family="Helvetica,sans-Serif" font-size="10.00">RobotBase.loopFunc</text>
</a>
</g>
</g>
<!-- Node2&#45;&gt;Node3 -->
<g id="edge2_Node000002_Node000003" class="edge">
<title>Node2&#45;&gt;Node3</title>
<g id="a_edge2_Node000002_Node000003"><a xlink:title=" ">
<path fill="none" stroke="#63b8ff" d="M161.8,-15.25C153.72,-15.25 145.66,-15.25 137.87,-15.25"/>
<polygon fill="#63b8ff" stroke="#63b8ff" points="161.71,-18.75 171.71,-15.25 161.71,-11.75 161.71,-18.75"/>
</a>
</g>
</g>
</g>
</svg>
