<?xml version="1.0" encoding="UTF-8" standalone="no"?>
<!DOCTYPE svg PUBLIC "-//W3C//DTD SVG 1.1//EN"
 "http://www.w3.org/Graphics/SVG/1.1/DTD/svg11.dtd">
<!-- Generated by graphviz version 9.0.0 (20230911.1827)
 -->
<!-- Title: edu.wpi.first.wpilibj.shuffleboard.ShuffleboardContainer Pages: 1 -->
<svg width="556pt" height="88pt"
 viewBox="0.00 0.00 555.50 87.50" xmlns="http://www.w3.org/2000/svg" xmlns:xlink="http://www.w3.org/1999/xlink">
<g id="graph0" class="graph" transform="scale(1 1) rotate(0) translate(4 83.5)">
<title>edu.wpi.first.wpilibj.shuffleboard.ShuffleboardContainer</title>
<!-- Node1 -->
<g id="Node000001" class="node">
<title>Node1</title>
<g id="a_Node000001"><a xlink:title=" ">
<polygon fill="#999999" stroke="#666666" points="353,-54.5 194.5,-54.5 194.5,-24 353,-24 353,-54.5"/>
<text text-anchor="start" x="202.5" y="-41" font-family="Helvetica,sans-Serif" font-size="10.00">edu.wpi.first.wpilibj.shuffleboard.</text>
<text text-anchor="middle" x="273.75" y="-29.75" font-family="Helvetica,sans-Serif" font-size="10.00">ShuffleboardContainer</text>
</a>
</g>
</g>
<!-- Node3 -->
<g id="Node000003" class="node">
<title>Node3</title>
<g id="a_Node000003"><a xlink:href="classedu_1_1wpi_1_1first_1_1wpilibj_1_1shuffleboard_1_1_shuffleboard_layout.html" target="_top" xlink:title=" ">
<polygon fill="white" stroke="#666666" points="547.5,-79.5 389,-79.5 389,-49 547.5,-49 547.5,-79.5"/>
<text text-anchor="start" x="397" y="-66" font-family="Helvetica,sans-Serif" font-size="10.00">edu.wpi.first.wpilibj.shuffleboard.</text>
<text text-anchor="middle" x="468.25" y="-54.75" font-family="Helvetica,sans-Serif" font-size="10.00">ShuffleboardLayout</text>
</a>
</g>
</g>
<!-- Node1&#45;&gt;Node3 -->
<g id="edge2_Node000001_Node000003" class="edge">
<title>Node1&#45;&gt;Node3</title>
<g id="a_edge2_Node000001_Node000003"><a xlink:title=" ">
<path fill="none" stroke="#63b8ff" d="M364.6,-50.92C372.62,-51.96 380.7,-53.01 388.61,-54.04"/>
<polygon fill="#63b8ff" stroke="#63b8ff" points="365.19,-47.47 354.83,-49.65 364.29,-54.41 365.19,-47.47"/>
</a>
</g>
</g>
<!-- Node4 -->
<g id="Node000004" class="node">
<title>Node4</title>
<g id="a_Node000004"><a xlink:href="classedu_1_1wpi_1_1first_1_1wpilibj_1_1shuffleboard_1_1_shuffleboard_tab.html" target="_top" xlink:title=" ">
<polygon fill="white" stroke="#666666" points="547.5,-30.5 389,-30.5 389,0 547.5,0 547.5,-30.5"/>
<text text-anchor="start" x="397" y="-17" font-family="Helvetica,sans-Serif" font-size="10.00">edu.wpi.first.wpilibj.shuffleboard.</text>
<text text-anchor="middle" x="468.25" y="-5.75" font-family="Helvetica,sans-Serif" font-size="10.00">ShuffleboardTab</text>
</a>
</g>
</g>
<!-- Node1&#45;&gt;Node4 -->
<g id="edge3_Node000001_Node000004" class="edge">
<title>Node1&#45;&gt;Node4</title>
<g id="a_edge3_Node000001_Node000004"><a xlink:title=" ">
<path fill="none" stroke="#63b8ff" d="M364.6,-28.05C372.62,-27.05 380.7,-26.04 388.61,-25.05"/>
<polygon fill="#63b8ff" stroke="#63b8ff" points="364.32,-24.56 354.83,-29.27 365.18,-31.5 364.32,-24.56"/>
</a>
</g>
</g>
<!-- Node2 -->
<g id="Node000002" class="node">
<title>Node2</title>
<g id="a_Node000002"><a xlink:href="interfaceedu_1_1wpi_1_1first_1_1wpilibj_1_1shuffleboard_1_1_shuffleboard_value.html" target="_top" xlink:title=" ">
<polygon fill="white" stroke="#bfbfbf" points="158.5,-54.5 0,-54.5 0,-24 158.5,-24 158.5,-54.5"/>
<text text-anchor="start" x="8" y="-41" font-family="Helvetica,sans-Serif" font-size="10.00">edu.wpi.first.wpilibj.shuffleboard.</text>
<text text-anchor="middle" x="79.25" y="-29.75" font-family="Helvetica,sans-Serif" font-size="10.00">ShuffleboardValue</text>
</a>
</g>
</g>
<!-- Node2&#45;&gt;Node1 -->
<g id="edge1_Node000001_Node000002" class="edge">
<title>Node2&#45;&gt;Node1</title>
<g id="a_edge1_Node000001_Node000002"><a xlink:title=" ">
<path fill="none" stroke="#63b8ff" d="M170.1,-39.25C178.12,-39.25 186.2,-39.25 194.11,-39.25"/>
<polygon fill="#63b8ff" stroke="#63b8ff" points="170.34,-35.75 160.34,-39.25 170.34,-42.75 170.34,-35.75"/>
</a>
</g>
</g>
</g>
</svg>
