<?xml version="1.0" encoding="UTF-8" standalone="no"?>
<!DOCTYPE svg PUBLIC "-//W3C//DTD SVG 1.1//EN"
 "http://www.w3.org/Graphics/SVG/1.1/DTD/svg11.dtd">
<!-- Generated by graphviz version 9.0.0 (20230911.1827)
 -->
<!-- Title: edu.wpi.first.wpilibj.motorcontrol.MotorController Pages: 1 -->
<!--zoomable 627 -->

<svg id="main" version="1.1" xmlns="http://www.w3.org/2000/svg" xmlns:xlink="http://www.w3.org/1999/xlink" xml:space="preserve" onload="init(evt)">
<style type="text/css"><![CDATA[
.node, .edge {opacity: 0.7;}
.node.selected, .edge.selected {opacity: 1;}
.edge:hover path { stroke: red; }
.edge:hover polygon { stroke: red; fill: red; }
]]></style>

<defs>
  <circle id="rim" cx="0" cy="0" r="7"/>
  <circle id="rim2" cx="0" cy="0" r="3.5"/>
  <g id="zoomPlus">
    <use xlink:href="#rim" fill="#404040"><set attributeName="fill" to="#808080" begin="zoomplus.mouseover" end="zoomplus.mouseout"/></use>
    <path d="M-4,0h8M0,-4v8" fill="none" stroke="white" stroke-width="1.5" pointer-events="none"/>
  </g>
  <g id="zoomMin">
    <use xlink:href="#rim" fill="#404040"><set attributeName="fill" to="#808080" begin="zoomminus.mouseover" end="zoomminus.mouseout"/></use>
    <path d="M-4,0h8" fill="none" stroke="white" stroke-width="1.5" pointer-events="none"/>
  </g>
  <g id="arrowUp" transform="translate(30 24)">
    <use xlink:href="#rim"/>
    <path pointer-events="none" fill="none" stroke="white" stroke-width="1.5" d="M0,-3.0v7 M-2.5,-0.5L0,-3.0L2.5,-0.5"/>
  </g>
  <g id="arrowRight" transform="rotate(90) translate(36 -43)">
    <use xlink:href="#rim"/>
    <path pointer-events="none" fill="none" stroke="white" stroke-width="1.5" d="M0,-3.0v7 M-2.5,-0.5L0,-3.0L2.5,-0.5"/>
  </g>
  <g id="arrowDown" transform="rotate(180) translate(-30 -48)">
    <use xlink:href="#rim"/>
    <path pointer-events="none" fill="none" stroke="white" stroke-width="1.5" d="M0,-3.0v7 M-2.5,-0.5L0,-3.0L2.5,-0.5"/>
  </g>
  <g id="arrowLeft" transform="rotate(270) translate(-36 17)">
    <use xlink:href="#rim"/>
    <path pointer-events="none" fill="none" stroke="white" stroke-width="1.5" d="M0,-3.0v7 M-2.5,-0.5L0,-3.0L2.5,-0.5"/>
  </g>
  <g id="resetDef">
    <use xlink:href="#rim2" fill="#404040"><set attributeName="fill" to="#808080" begin="reset.mouseover" end="reset.mouseout"/></use>
  </g>
</defs>
<script type="application/ecmascript">
var viewWidth = 558;
var viewHeight = 627;
var sectionId = 'dynsection-0';
</script>
<script type="application/ecmascript" xlink:href="svg.min.js"/>
<svg id="graph" class="graph">
<g id="viewport">
<title>edu.wpi.first.wpilibj.motorcontrol.MotorController</title>
<!-- Node1 -->
<g id="Node000001" class="node">
<title>Node1</title>
<g id="a_Node000001"><a xlink:title=" ">
<polygon fill="#999999" stroke="#666666" points="159.25,-397.5 0,-397.5 0,-367 159.25,-367 159.25,-397.5"/>
<text text-anchor="start" x="8" y="-384" font-family="Helvetica,sans-Serif" font-size="10.00">edu.wpi.first.wpilibj.motorcontrol.</text>
<text text-anchor="middle" x="79.62" y="-372.75" font-family="Helvetica,sans-Serif" font-size="10.00">MotorController</text>
</a>
</g>
</g>
<!-- Node2 -->
<g id="Node000002" class="node">
<title>Node2</title>
<g id="a_Node000002"><a xlink:href="classedu_1_1wpi_1_1first_1_1wpilibj_1_1motorcontrol_1_1_mock_motor_controller.html" target="_top" xlink:title=" ">
<polygon fill="white" stroke="#bfbfbf" points="354.5,-471.5 195.25,-471.5 195.25,-441 354.5,-441 354.5,-471.5"/>
<text text-anchor="start" x="203.25" y="-458" font-family="Helvetica,sans-Serif" font-size="10.00">edu.wpi.first.wpilibj.motorcontrol.</text>
<text text-anchor="middle" x="274.88" y="-446.75" font-family="Helvetica,sans-Serif" font-size="10.00">MockMotorController</text>
</a>
</g>
</g>
<!-- Node1&#45;&gt;Node2 -->
<g id="edge1_Node000001_Node000002" class="edge">
<title>Node1&#45;&gt;Node2</title>
<g id="a_edge1_Node000001_Node000002"><a xlink:title=" ">
<path fill="none" stroke="#63b8ff" d="M125.14,-402.46C146.2,-411.72 171.82,-422.54 195.25,-431.25 203.84,-434.44 213.05,-437.6 222.04,-440.55"/>
<polygon fill="#63b8ff" stroke="#63b8ff" points="126.83,-399.38 116.27,-398.53 124,-405.78 126.83,-399.38"/>
</a>
</g>
</g>
<!-- Node3 -->
<g id="Node000003" class="node">
<title>Node3</title>
<g id="a_Node000003"><a xlink:href="classedu_1_1wpi_1_1first_1_1wpilibj_1_1motorcontrol_1_1_motor_controller_group.html" target="_top" xlink:title=" ">
<polygon fill="white" stroke="#666666" points="354.5,-422.5 195.25,-422.5 195.25,-392 354.5,-392 354.5,-422.5"/>
<text text-anchor="start" x="203.25" y="-409" font-family="Helvetica,sans-Serif" font-size="10.00">edu.wpi.first.wpilibj.motorcontrol.</text>
<text text-anchor="middle" x="274.88" y="-397.75" font-family="Helvetica,sans-Serif" font-size="10.00">MotorControllerGroup</text>
</a>
</g>
</g>
<!-- Node1&#45;&gt;Node3 -->
<g id="edge2_Node000001_Node000003" class="edge">
<title>Node1&#45;&gt;Node3</title>
<g id="a_edge2_Node000001_Node000003"><a xlink:title=" ">
<path fill="none" stroke="#63b8ff" d="M170.83,-393.92C178.88,-394.96 186.99,-396.01 194.93,-397.04"/>
<polygon fill="#63b8ff" stroke="#63b8ff" points="171.37,-390.46 161.01,-392.65 170.48,-397.4 171.37,-390.46"/>
</a>
</g>
</g>
<!-- Node4 -->
<g id="Node000004" class="node">
<title>Node4</title>
<g id="a_Node000004"><a xlink:href="classedu_1_1wpi_1_1first_1_1wpilibj_1_1motorcontrol_1_1_nidec_brushless.html" target="_top" xlink:title=" ">
<polygon fill="white" stroke="#666666" points="354.5,-373.5 195.25,-373.5 195.25,-343 354.5,-343 354.5,-373.5"/>
<text text-anchor="start" x="203.25" y="-360" font-family="Helvetica,sans-Serif" font-size="10.00">edu.wpi.first.wpilibj.motorcontrol.</text>
<text text-anchor="middle" x="274.88" y="-348.75" font-family="Helvetica,sans-Serif" font-size="10.00">NidecBrushless</text>
</a>
</g>
</g>
<!-- Node1&#45;&gt;Node4 -->
<g id="edge3_Node000001_Node000004" class="edge">
<title>Node1&#45;&gt;Node4</title>
<g id="a_edge3_Node000001_Node000004"><a xlink:title=" ">
<path fill="none" stroke="#63b8ff" d="M170.83,-371.05C178.88,-370.05 186.99,-369.04 194.93,-368.05"/>
<polygon fill="#63b8ff" stroke="#63b8ff" points="170.5,-367.56 161.01,-372.27 171.36,-374.51 170.5,-367.56"/>
</a>
</g>
</g>
<!-- Node5 -->
<g id="Node000005" class="node">
<title>Node5</title>
<g id="a_Node000005"><a xlink:href="classedu_1_1wpi_1_1first_1_1wpilibj_1_1motorcontrol_1_1_p_w_m_motor_controller.html" target="_top" xlink:title=" ">
<polygon fill="white" stroke="#666666" points="354.5,-324.5 195.25,-324.5 195.25,-294 354.5,-294 354.5,-324.5"/>
<text text-anchor="start" x="203.25" y="-311" font-family="Helvetica,sans-Serif" font-size="10.00">edu.wpi.first.wpilibj.motorcontrol.</text>
<text text-anchor="middle" x="274.88" y="-299.75" font-family="Helvetica,sans-Serif" font-size="10.00">PWMMotorController</text>
</a>
</g>
</g>
<!-- Node1&#45;&gt;Node5 -->
<g id="edge4_Node000001_Node000005" class="edge">
<title>Node1&#45;&gt;Node5</title>
<g id="a_edge4_Node000001_Node000005"><a xlink:title=" ">
<path fill="none" stroke="#63b8ff" d="M126.4,-361.98C147.24,-353.05 172.32,-342.68 195.25,-334.25 203.99,-331.04 213.36,-327.85 222.48,-324.87"/>
<polygon fill="#63b8ff" stroke="#63b8ff" points="125.11,-358.73 117.32,-365.91 127.89,-365.16 125.11,-358.73"/>
</a>
</g>
</g>
<!-- Node6 -->
<g id="Node000006" class="node">
<title>Node6</title>
<g id="a_Node000006"><a xlink:href="classedu_1_1wpi_1_1first_1_1wpilibj_1_1motorcontrol_1_1_d_m_c60.html" target="_top" xlink:title=" ">
<polygon fill="white" stroke="#666666" points="549.75,-618.5 390.5,-618.5 390.5,-588 549.75,-588 549.75,-618.5"/>
<text text-anchor="start" x="398.5" y="-605" font-family="Helvetica,sans-Serif" font-size="10.00">edu.wpi.first.wpilibj.motorcontrol.</text>
<text text-anchor="middle" x="470.12" y="-593.75" font-family="Helvetica,sans-Serif" font-size="10.00">DMC60</text>
</a>
</g>
</g>
<!-- Node5&#45;&gt;Node6 -->
<g id="edge5_Node000005_Node000006" class="edge">
<title>Node5&#45;&gt;Node6</title>
<g id="a_edge5_Node000005_Node000006"><a xlink:title=" ">
<path fill="none" stroke="#63b8ff" d="M352.72,-332.28C353.33,-332.92 353.93,-333.57 354.5,-334.25 425.51,-417.76 319.49,-494.74 390.5,-578.25 393.56,-581.85 397.14,-584.94 401.05,-587.59"/>
<polygon fill="#63b8ff" stroke="#63b8ff" points="355.02,-329.63 345.11,-325.89 350.52,-335 355.02,-329.63"/>
</a>
</g>
</g>
<!-- Node7 -->
<g id="Node000007" class="node">
<title>Node7</title>
<g id="a_Node000007"><a xlink:href="classedu_1_1wpi_1_1first_1_1wpilibj_1_1motorcontrol_1_1_jaguar.html" target="_top" xlink:title=" ">
<polygon fill="white" stroke="#666666" points="549.75,-569.5 390.5,-569.5 390.5,-539 549.75,-539 549.75,-569.5"/>
<text text-anchor="start" x="398.5" y="-556" font-family="Helvetica,sans-Serif" font-size="10.00">edu.wpi.first.wpilibj.motorcontrol.</text>
<text text-anchor="middle" x="470.12" y="-544.75" font-family="Helvetica,sans-Serif" font-size="10.00">Jaguar</text>
</a>
</g>
</g>
<!-- Node5&#45;&gt;Node7 -->
<g id="edge6_Node000005_Node000007" class="edge">
<title>Node5&#45;&gt;Node7</title>
<g id="a_edge6_Node000005_Node000007"><a xlink:title=" ">
<path fill="none" stroke="#63b8ff" d="M352.31,-331.93C353.07,-332.68 353.8,-333.45 354.5,-334.25 412.79,-400.35 332.21,-463.15 390.5,-529.25 393.72,-532.9 397.47,-536.03 401.56,-538.7"/>
<polygon fill="#63b8ff" stroke="#63b8ff" points="354.61,-329.28 344.62,-325.75 350.23,-334.74 354.61,-329.28"/>
</a>
</g>
</g>
<!-- Node8 -->
<g id="Node000008" class="node">
<title>Node8</title>
<g id="a_Node000008"><a xlink:href="classedu_1_1wpi_1_1first_1_1wpilibj_1_1motorcontrol_1_1_p_w_m_spark_flex.html" target="_top" xlink:title=" ">
<polygon fill="white" stroke="#666666" points="549.75,-520.5 390.5,-520.5 390.5,-490 549.75,-490 549.75,-520.5"/>
<text text-anchor="start" x="398.5" y="-507" font-family="Helvetica,sans-Serif" font-size="10.00">edu.wpi.first.wpilibj.motorcontrol.</text>
<text text-anchor="middle" x="470.12" y="-495.75" font-family="Helvetica,sans-Serif" font-size="10.00">PWMSparkFlex</text>
</a>
</g>
</g>
<!-- Node5&#45;&gt;Node8 -->
<g id="edge7_Node000005_Node000008" class="edge">
<title>Node5&#45;&gt;Node8</title>
<g id="a_edge7_Node000005_Node000008"><a xlink:title=" ">
<path fill="none" stroke="#63b8ff" d="M351.83,-331.6C352.75,-332.45 353.64,-333.33 354.5,-334.25 400.17,-383.04 344.83,-431.46 390.5,-480.25 393.93,-483.91 397.88,-487.04 402.17,-489.71"/>
<polygon fill="#63b8ff" stroke="#63b8ff" points="354.13,-328.95 344.04,-325.71 349.9,-334.53 354.13,-328.95"/>
</a>
</g>
</g>
<!-- Node9 -->
<g id="Node000009" class="node">
<title>Node9</title>
<g id="a_Node000009"><a xlink:href="classedu_1_1wpi_1_1first_1_1wpilibj_1_1motorcontrol_1_1_p_w_m_spark_max.html" target="_top" xlink:title=" ">
<polygon fill="white" stroke="#666666" points="549.75,-471.5 390.5,-471.5 390.5,-441 549.75,-441 549.75,-471.5"/>
<text text-anchor="start" x="398.5" y="-458" font-family="Helvetica,sans-Serif" font-size="10.00">edu.wpi.first.wpilibj.motorcontrol.</text>
<text text-anchor="middle" x="470.12" y="-446.75" font-family="Helvetica,sans-Serif" font-size="10.00">PWMSparkMax</text>
</a>
</g>
</g>
<!-- Node5&#45;&gt;Node9 -->
<g id="edge8_Node000005_Node000009" class="edge">
<title>Node5&#45;&gt;Node9</title>
<g id="a_edge8_Node000005_Node000009"><a xlink:title=" ">
<path fill="none" stroke="#63b8ff" d="M350.76,-330.98C352.05,-332.02 353.3,-333.11 354.5,-334.25 387.78,-365.98 357.22,-399.52 390.5,-431.25 394.34,-434.91 398.7,-438.03 403.37,-440.7"/>
<polygon fill="#63b8ff" stroke="#63b8ff" points="353.13,-328.35 342.88,-325.65 349.21,-334.15 353.13,-328.35"/>
</a>
</g>
</g>
<!-- Node10 -->
<g id="Node000010" class="node">
<title>Node10</title>
<g id="a_Node000010"><a xlink:href="classedu_1_1wpi_1_1first_1_1wpilibj_1_1motorcontrol_1_1_p_w_m_talon_f_x.html" target="_top" xlink:title=" ">
<polygon fill="white" stroke="#666666" points="549.75,-422.5 390.5,-422.5 390.5,-392 549.75,-392 549.75,-422.5"/>
<text text-anchor="start" x="398.5" y="-409" font-family="Helvetica,sans-Serif" font-size="10.00">edu.wpi.first.wpilibj.motorcontrol.</text>
<text text-anchor="middle" x="470.12" y="-397.75" font-family="Helvetica,sans-Serif" font-size="10.00">PWMTalonFX</text>
</a>
</g>
</g>
<!-- Node5&#45;&gt;Node10 -->
<g id="edge9_Node000005_Node000010" class="edge">
<title>Node5&#45;&gt;Node10</title>
<g id="a_edge9_Node000005_Node000010"><a xlink:title=" ">
<path fill="none" stroke="#63b8ff" d="M348.14,-330.14C350.33,-331.43 352.46,-332.8 354.5,-334.25 376.24,-349.69 368.76,-366.81 390.5,-382.25 395.52,-385.82 401.07,-388.89 406.84,-391.54"/>
<polygon fill="#63b8ff" stroke="#63b8ff" points="349.99,-327.16 339.5,-325.66 346.77,-333.37 349.99,-327.16"/>
</a>
</g>
</g>
<!-- Node11 -->
<g id="Node000011" class="node">
<title>Node11</title>
<g id="a_Node000011"><a xlink:href="classedu_1_1wpi_1_1first_1_1wpilibj_1_1motorcontrol_1_1_p_w_m_talon_s_r_x.html" target="_top" xlink:title=" ">
<polygon fill="white" stroke="#666666" points="549.75,-373.5 390.5,-373.5 390.5,-343 549.75,-343 549.75,-373.5"/>
<text text-anchor="start" x="398.5" y="-360" font-family="Helvetica,sans-Serif" font-size="10.00">edu.wpi.first.wpilibj.motorcontrol.</text>
<text text-anchor="middle" x="470.12" y="-348.75" font-family="Helvetica,sans-Serif" font-size="10.00">PWMTalonSRX</text>
</a>
</g>
</g>
<!-- Node5&#45;&gt;Node11 -->
<g id="edge10_Node000005_Node000011" class="edge">
<title>Node5&#45;&gt;Node11</title>
<g id="a_edge10_Node000005_Node000011"><a xlink:title=" ">
<path fill="none" stroke="#63b8ff" d="M348.94,-327.78C368.14,-332.64 388.65,-337.85 407.2,-342.55"/>
<polygon fill="#63b8ff" stroke="#63b8ff" points="349.84,-324.39 339.29,-325.33 348.12,-331.18 349.84,-324.39"/>
</a>
</g>
</g>
<!-- Node12 -->
<g id="Node000012" class="node">
<title>Node12</title>
<g id="a_Node000012"><a xlink:href="classedu_1_1wpi_1_1first_1_1wpilibj_1_1motorcontrol_1_1_p_w_m_venom.html" target="_top" xlink:title=" ">
<polygon fill="white" stroke="#666666" points="549.75,-324.5 390.5,-324.5 390.5,-294 549.75,-294 549.75,-324.5"/>
<text text-anchor="start" x="398.5" y="-311" font-family="Helvetica,sans-Serif" font-size="10.00">edu.wpi.first.wpilibj.motorcontrol.</text>
<text text-anchor="middle" x="470.12" y="-299.75" font-family="Helvetica,sans-Serif" font-size="10.00">PWMVenom</text>
</a>
</g>
</g>
<!-- Node5&#45;&gt;Node12 -->
<g id="edge11_Node000005_Node000012" class="edge">
<title>Node5&#45;&gt;Node12</title>
<g id="a_edge11_Node000005_Node000012"><a xlink:title=" ">
<path fill="none" stroke="#63b8ff" d="M366.08,-309.25C374.13,-309.25 382.24,-309.25 390.18,-309.25"/>
<polygon fill="#63b8ff" stroke="#63b8ff" points="366.27,-305.75 356.27,-309.25 366.27,-312.75 366.27,-305.75"/>
</a>
</g>
</g>
<!-- Node13 -->
<g id="Node000013" class="node">
<title>Node13</title>
<g id="a_Node000013"><a xlink:href="classedu_1_1wpi_1_1first_1_1wpilibj_1_1motorcontrol_1_1_p_w_m_victor_s_p_x.html" target="_top" xlink:title=" ">
<polygon fill="white" stroke="#666666" points="549.75,-275.5 390.5,-275.5 390.5,-245 549.75,-245 549.75,-275.5"/>
<text text-anchor="start" x="398.5" y="-262" font-family="Helvetica,sans-Serif" font-size="10.00">edu.wpi.first.wpilibj.motorcontrol.</text>
<text text-anchor="middle" x="470.12" y="-250.75" font-family="Helvetica,sans-Serif" font-size="10.00">PWMVictorSPX</text>
</a>
</g>
</g>
<!-- Node5&#45;&gt;Node13 -->
<g id="edge12_Node000005_Node000013" class="edge">
<title>Node5&#45;&gt;Node13</title>
<g id="a_edge12_Node000005_Node000013"><a xlink:title=" ">
<path fill="none" stroke="#63b8ff" d="M348.94,-290.72C368.14,-285.86 388.65,-280.65 407.2,-275.95"/>
<polygon fill="#63b8ff" stroke="#63b8ff" points="348.12,-287.32 339.29,-293.17 349.84,-294.11 348.12,-287.32"/>
</a>
</g>
</g>
<!-- Node14 -->
<g id="Node000014" class="node">
<title>Node14</title>
<g id="a_Node000014"><a xlink:href="classedu_1_1wpi_1_1first_1_1wpilibj_1_1motorcontrol_1_1_s_d540.html" target="_top" xlink:title=" ">
<polygon fill="white" stroke="#666666" points="549.75,-226.5 390.5,-226.5 390.5,-196 549.75,-196 549.75,-226.5"/>
<text text-anchor="start" x="398.5" y="-213" font-family="Helvetica,sans-Serif" font-size="10.00">edu.wpi.first.wpilibj.motorcontrol.</text>
<text text-anchor="middle" x="470.12" y="-201.75" font-family="Helvetica,sans-Serif" font-size="10.00">SD540</text>
</a>
</g>
</g>
<!-- Node5&#45;&gt;Node14 -->
<g id="edge13_Node000005_Node000014" class="edge">
<title>Node5&#45;&gt;Node14</title>
<g id="a_edge13_Node000005_Node000014"><a xlink:title=" ">
<path fill="none" stroke="#63b8ff" d="M306.19,-286.86C328.6,-271.09 360.34,-250.35 390.5,-236.25 397.77,-232.85 405.62,-229.74 413.45,-226.96"/>
<polygon fill="#63b8ff" stroke="#63b8ff" points="304.22,-283.96 298.12,-292.62 308.29,-289.66 304.22,-283.96"/>
</a>
</g>
</g>
<!-- Node15 -->
<g id="Node000015" class="node">
<title>Node15</title>
<g id="a_Node000015"><a xlink:href="classedu_1_1wpi_1_1first_1_1wpilibj_1_1motorcontrol_1_1_spark.html" target="_top" xlink:title=" ">
<polygon fill="white" stroke="#666666" points="549.75,-177.5 390.5,-177.5 390.5,-147 549.75,-147 549.75,-177.5"/>
<text text-anchor="start" x="398.5" y="-164" font-family="Helvetica,sans-Serif" font-size="10.00">edu.wpi.first.wpilibj.motorcontrol.</text>
<text text-anchor="middle" x="470.12" y="-152.75" font-family="Helvetica,sans-Serif" font-size="10.00">Spark</text>
</a>
</g>
</g>
<!-- Node5&#45;&gt;Node15 -->
<g id="edge14_Node000005_Node000015" class="edge">
<title>Node5&#45;&gt;Node15</title>
<g id="a_edge14_Node000005_Node000015"><a xlink:title=" ">
<path fill="none" stroke="#63b8ff" d="M293.08,-284.42C313.37,-256.92 349.55,-213.05 390.5,-187.25 396.2,-183.66 402.45,-180.55 408.87,-177.86"/>
<polygon fill="#63b8ff" stroke="#63b8ff" points="290.25,-282.37 287.23,-292.53 295.92,-286.47 290.25,-282.37"/>
</a>
</g>
</g>
<!-- Node16 -->
<g id="Node000016" class="node">
<title>Node16</title>
<g id="a_Node000016"><a xlink:href="classedu_1_1wpi_1_1first_1_1wpilibj_1_1motorcontrol_1_1_talon.html" target="_top" xlink:title=" ">
<polygon fill="white" stroke="#666666" points="549.75,-128.5 390.5,-128.5 390.5,-98 549.75,-98 549.75,-128.5"/>
<text text-anchor="start" x="398.5" y="-115" font-family="Helvetica,sans-Serif" font-size="10.00">edu.wpi.first.wpilibj.motorcontrol.</text>
<text text-anchor="middle" x="470.12" y="-103.75" font-family="Helvetica,sans-Serif" font-size="10.00">Talon</text>
</a>
</g>
</g>
<!-- Node5&#45;&gt;Node16 -->
<g id="edge15_Node000005_Node000016" class="edge">
<title>Node5&#45;&gt;Node16</title>
<g id="a_edge15_Node000005_Node000016"><a xlink:title=" ">
<path fill="none" stroke="#63b8ff" d="M286.61,-283.13C303.33,-245.64 339.09,-176.85 390.5,-138.25 395.31,-134.64 400.66,-131.54 406.24,-128.88"/>
<polygon fill="#63b8ff" stroke="#63b8ff" points="283.4,-281.74 282.64,-292.3 289.83,-284.52 283.4,-281.74"/>
</a>
</g>
</g>
<!-- Node17 -->
<g id="Node000017" class="node">
<title>Node17</title>
<g id="a_Node000017"><a xlink:href="classedu_1_1wpi_1_1first_1_1wpilibj_1_1motorcontrol_1_1_victor.html" target="_top" xlink:title=" ">
<polygon fill="white" stroke="#666666" points="549.75,-79.5 390.5,-79.5 390.5,-49 549.75,-49 549.75,-79.5"/>
<text text-anchor="start" x="398.5" y="-66" font-family="Helvetica,sans-Serif" font-size="10.00">edu.wpi.first.wpilibj.motorcontrol.</text>
<text text-anchor="middle" x="470.12" y="-54.75" font-family="Helvetica,sans-Serif" font-size="10.00">Victor</text>
</a>
</g>
</g>
<!-- Node5&#45;&gt;Node17 -->
<g id="edge16_Node000005_Node000017" class="edge">
<title>Node5&#45;&gt;Node17</title>
<g id="a_edge16_Node000005_Node000017"><a xlink:title=" ">
<path fill="none" stroke="#63b8ff" d="M282.51,-282.73C295.4,-236.63 328.19,-141.65 390.5,-89.25 394.78,-85.65 399.57,-82.57 404.63,-79.94"/>
<polygon fill="#63b8ff" stroke="#63b8ff" points="279.2,-281.57 279.98,-292.13 285.96,-283.38 279.2,-281.57"/>
</a>
</g>
</g>
<!-- Node18 -->
<g id="Node000018" class="node">
<title>Node18</title>
<g id="a_Node000018"><a xlink:href="classedu_1_1wpi_1_1first_1_1wpilibj_1_1motorcontrol_1_1_victor_s_p.html" target="_top" xlink:title=" ">
<polygon fill="white" stroke="#666666" points="549.75,-30.5 390.5,-30.5 390.5,0 549.75,0 549.75,-30.5"/>
<text text-anchor="start" x="398.5" y="-17" font-family="Helvetica,sans-Serif" font-size="10.00">edu.wpi.first.wpilibj.motorcontrol.</text>
<text text-anchor="middle" x="470.12" y="-5.75" font-family="Helvetica,sans-Serif" font-size="10.00">VictorSP</text>
</a>
</g>
</g>
<!-- Node5&#45;&gt;Node18 -->
<g id="edge17_Node000005_Node000018" class="edge">
<title>Node5&#45;&gt;Node18</title>
<g id="a_edge17_Node000005_Node000018"><a xlink:title=" ">
<path fill="none" stroke="#63b8ff" d="M279.78,-282.29C289.01,-228.42 317.15,-106.94 390.5,-40.25 394.53,-36.59 399.09,-33.46 403.94,-30.79"/>
<polygon fill="#63b8ff" stroke="#63b8ff" points="276.34,-281.67 278.2,-292.1 283.25,-282.78 276.34,-281.67"/>
</a>
</g>
</g>
</g>
</svg>

<g id="navigator" transform="translate(0 0)" fill="#404254">
  <rect fill="#f2f5e9" fill-opacity="0.5" stroke="#606060" stroke-width=".5" x="0" y="0" width="60" height="60"/>
  <use id="zoomplus" xlink:href="#zoomPlus" x="17" y="9" onmousedown="handleZoom(evt,'in')"/>
  <use id="zoomminus" xlink:href="#zoomMin" x="42" y="9" onmousedown="handleZoom(evt,'out')"/>
  <use id="reset" xlink:href="#resetDef" x="30" y="36" onmousedown="handleReset()"/>
   <use id="arrowup" xlink:href="#arrowUp" x="0" y="0" onmousedown="handlePan(0,-1)"/>
  <use id="arrowright" xlink:href="#arrowRight" x="0" y="0" onmousedown="handlePan(1,0)"/>
  <use id="arrowdown" xlink:href="#arrowDown" x="0" y="0" onmousedown="handlePan(0,1)"/>
  <use id="arrowleft" xlink:href="#arrowLeft" x="0" y="0" onmousedown="handlePan(-1,0)"/>
</g>
<svg viewBox="0 0 15 15" width="100%" height="30px" preserveAspectRatio="xMaxYMin meet">
 <g id="arrow_out" transform="scale(0.3 0.3)">
  <a xlink:href="interfaceedu_1_1wpi_1_1first_1_1wpilibj_1_1motorcontrol_1_1_motor_controller__inherit__graph_org.svg" target="_base">
   <rect id="button" ry="5" rx="5" y="6" x="6" height="38" width="38"
        fill="#f2f5e9" fill-opacity="0.5" stroke="#606060" stroke-width="1.0"/>
   <path id="arrow"
     d="M 11.500037,31.436501 C 11.940474,20.09759 22.043105,11.32322 32.158766,21.979434 L 37.068811,17.246167 C 37.068811,17.246167 37.088388,32 37.088388,32 L 22.160133,31.978069 C 22.160133,31.978069 26.997745,27.140456 26.997745,27.140456 C 18.528582,18.264221 13.291696,25.230495 11.500037,31.436501 z"
     style="fill:#404040;"/>
  </a>
 </g>
</svg>

<style type='text/css'>
<![CDATA[
[data-mouse-over-selected='false'] { opacity: 0.7; }
[data-mouse-over-selected='true']  { opacity: 1.0; }
]]>
</style>
<script type="application/ecmascript"><![CDATA[
document.addEventListener('DOMContentLoaded', (event) => {
  highlightEdges();
  highlightAdjacentNodes();
});
]]></script>
</svg>
