<?xml version="1.0" encoding="UTF-8" standalone="no"?>
<!DOCTYPE svg PUBLIC "-//W3C//DTD SVG 1.1//EN"
 "http://www.w3.org/Graphics/SVG/1.1/DTD/svg11.dtd">
<!-- Generated by graphviz version 9.0.0 (20230911.1827)
 -->
<!-- Title: edu.wpi.first.wpilibj.motorcontrol.MotorController.set Pages: 1 -->
<svg width="363pt" height="88pt"
 viewBox="0.00 0.00 363.25 87.50" xmlns="http://www.w3.org/2000/svg" xmlns:xlink="http://www.w3.org/1999/xlink">
<g id="graph0" class="graph" transform="scale(1 1) rotate(0) translate(4 83.5)">
<title>edu.wpi.first.wpilibj.motorcontrol.MotorController.set</title>
<!-- Node1 -->
<g id="Node000001" class="node">
<title>Node1</title>
<g id="a_Node000001"><a xlink:title=" ">
<polygon fill="#999999" stroke="#666666" points="355.25,-54.5 196,-54.5 196,-24 355.25,-24 355.25,-54.5"/>
<text text-anchor="start" x="204" y="-41" font-family="Helvetica,sans-Serif" font-size="10.00">edu.wpi.first.wpilibj.motorcontrol.</text>
<text text-anchor="middle" x="275.62" y="-29.75" font-family="Helvetica,sans-Serif" font-size="10.00">MotorController.set</text>
</a>
</g>
</g>
<!-- Node2 -->
<g id="Node000002" class="node">
<title>Node2</title>
<g id="a_Node000002"><a xlink:href="classedu_1_1wpi_1_1first_1_1wpilibj_1_1drive_1_1_differential_drive.html#aad4a39f58c1ae09ec9b76ccc4112d8eb" target="_top" xlink:title=" ">
<polygon fill="white" stroke="#666666" points="160,-79.5 0,-79.5 0,-49 160,-49 160,-79.5"/>
<text text-anchor="start" x="8" y="-66" font-family="Helvetica,sans-Serif" font-size="10.00">edu.wpi.first.wpilibj.drive.</text>
<text text-anchor="middle" x="80" y="-54.75" font-family="Helvetica,sans-Serif" font-size="10.00">DifferentialDrive.DifferentialDrive</text>
</a>
</g>
</g>
<!-- Node1&#45;&gt;Node2 -->
<g id="edge1_Node000001_Node000002" class="edge">
<title>Node1&#45;&gt;Node2</title>
<g id="a_edge1_Node000001_Node000002"><a xlink:title=" ">
<path fill="none" stroke="#63b8ff" d="M184.35,-50.91C176.36,-51.94 168.3,-52.98 160.41,-54"/>
<polygon fill="#63b8ff" stroke="#63b8ff" points="184.62,-54.4 194.09,-49.65 183.72,-47.46 184.62,-54.4"/>
</a>
</g>
</g>
<!-- Node3 -->
<g id="Node000003" class="node">
<title>Node3</title>
<g id="a_Node000003"><a xlink:href="classedu_1_1wpi_1_1first_1_1wpilibj_1_1drive_1_1_mecanum_drive.html#a7a5134b21ddc4fbfa048ca3fa37c1d1c" target="_top" xlink:title=" ">
<polygon fill="white" stroke="#666666" points="155.5,-30.5 4.5,-30.5 4.5,0 155.5,0 155.5,-30.5"/>
<text text-anchor="start" x="12.5" y="-17" font-family="Helvetica,sans-Serif" font-size="10.00">edu.wpi.first.wpilibj.drive.</text>
<text text-anchor="middle" x="80" y="-5.75" font-family="Helvetica,sans-Serif" font-size="10.00">MecanumDrive.MecanumDrive</text>
</a>
</g>
</g>
<!-- Node1&#45;&gt;Node3 -->
<g id="edge2_Node000001_Node000003" class="edge">
<title>Node1&#45;&gt;Node3</title>
<g id="a_edge2_Node000001_Node000003"><a xlink:title=" ">
<path fill="none" stroke="#63b8ff" d="M184.39,-28.07C174.79,-26.88 165.11,-25.68 155.72,-24.51"/>
<polygon fill="#63b8ff" stroke="#63b8ff" points="183.73,-31.51 194.09,-29.27 184.6,-24.56 183.73,-31.51"/>
</a>
</g>
</g>
</g>
</svg>
