<?xml version="1.0" encoding="UTF-8" standalone="no"?>
<!DOCTYPE svg PUBLIC "-//W3C//DTD SVG 1.1//EN"
 "http://www.w3.org/Graphics/SVG/1.1/DTD/svg11.dtd">
<!-- Generated by graphviz version 9.0.0 (20230911.1827)
 -->
<!-- Title: edu.wpi.first.wpilibj.PneumaticsBase.getDefaultForType Pages: 1 -->
<svg width="359pt" height="88pt"
 viewBox="0.00 0.00 358.75 87.50" xmlns="http://www.w3.org/2000/svg" xmlns:xlink="http://www.w3.org/1999/xlink">
<g id="graph0" class="graph" transform="scale(1 1) rotate(0) translate(4 83.5)">
<title>edu.wpi.first.wpilibj.PneumaticsBase.getDefaultForType</title>
<!-- Node1 -->
<g id="Node000001" class="node">
<title>Node1</title>
<g id="a_Node000001"><a xlink:title=" ">
<polygon fill="#999999" stroke="#666666" points="154,-54.5 0,-54.5 0,-24 154,-24 154,-54.5"/>
<text text-anchor="start" x="8" y="-41" font-family="Helvetica,sans-Serif" font-size="10.00">edu.wpi.first.wpilibj.Pneumatics</text>
<text text-anchor="middle" x="77" y="-29.75" font-family="Helvetica,sans-Serif" font-size="10.00">Base.getDefaultForType</text>
</a>
</g>
</g>
<!-- Node2 -->
<g id="Node000002" class="node">
<title>Node2</title>
<g id="a_Node000002"><a xlink:href="classedu_1_1wpi_1_1first_1_1wpilibj_1_1_sensor_util.html#a7889ff0082624ed463b5149eb2d4abd6" target="_top" xlink:title=" ">
<polygon fill="white" stroke="#666666" points="350.75,-79.5 190,-79.5 190,-49 350.75,-49 350.75,-79.5"/>
<text text-anchor="start" x="198" y="-66" font-family="Helvetica,sans-Serif" font-size="10.00">edu.wpi.first.wpilibj.Sensor</text>
<text text-anchor="middle" x="270.38" y="-54.75" font-family="Helvetica,sans-Serif" font-size="10.00">Util.getDefaultCTREPCMModule</text>
</a>
</g>
</g>
<!-- Node1&#45;&gt;Node2 -->
<g id="edge1_Node000001_Node000002" class="edge">
<title>Node1&#45;&gt;Node2</title>
<g id="a_edge1_Node000001_Node000002"><a xlink:title=" ">
<path fill="none" stroke="#63b8ff" d="M154.46,-49.24C162.32,-50.26 170.35,-51.31 178.34,-52.36"/>
<polygon fill="#63b8ff" stroke="#63b8ff" points="177.72,-55.81 188.09,-53.63 178.63,-48.87 177.72,-55.81"/>
</a>
</g>
</g>
<!-- Node3 -->
<g id="Node000003" class="node">
<title>Node3</title>
<g id="a_Node000003"><a xlink:href="classedu_1_1wpi_1_1first_1_1wpilibj_1_1_sensor_util.html#a9d29bd9b554cc92650b42adc333681ef" target="_top" xlink:title=" ">
<polygon fill="white" stroke="#666666" points="343.25,-30.5 197.5,-30.5 197.5,0 343.25,0 343.25,-30.5"/>
<text text-anchor="start" x="205.5" y="-17" font-family="Helvetica,sans-Serif" font-size="10.00">edu.wpi.first.wpilibj.Sensor</text>
<text text-anchor="middle" x="270.38" y="-5.75" font-family="Helvetica,sans-Serif" font-size="10.00">Util.getDefaultREVPHModule</text>
</a>
</g>
</g>
<!-- Node1&#45;&gt;Node3 -->
<g id="edge2_Node000001_Node000003" class="edge">
<title>Node1&#45;&gt;Node3</title>
<g id="a_edge2_Node000001_Node000003"><a xlink:title=" ">
<path fill="none" stroke="#63b8ff" d="M154.46,-29.66C164.78,-28.37 175.42,-27.03 185.85,-25.72"/>
<polygon fill="#63b8ff" stroke="#63b8ff" points="186.09,-29.22 195.58,-24.51 185.22,-22.28 186.09,-29.22"/>
</a>
</g>
</g>
</g>
</svg>
